<?xml version="1.0" encoding="UTF-8" standalone="no"?>
<!-- Created with Inkscape (http://www.inkscape.org/) -->

<svg
   xmlns:dc="http://purl.org/dc/elements/1.1/"
   xmlns:cc="http://creativecommons.org/ns#"
   xmlns:rdf="http://www.w3.org/1999/02/22-rdf-syntax-ns#"
   xmlns:svg="http://www.w3.org/2000/svg"
   xmlns="http://www.w3.org/2000/svg"
   xmlns:sodipodi="http://sodipodi.sourceforge.net/DTD/sodipodi-0.dtd"
   xmlns:inkscape="http://www.inkscape.org/namespaces/inkscape"
   width="99.999994"
   height="42.791705"
   viewBox="0 0 99.999994 42.791707"
   version="1.1"
   id="svg8"
   inkscape:version="0.92.4 (5da689c313, 2019-01-14)"
   sodipodi:docname="A.svg">
  <defs
     id="defs2">
    <clipPath
       clipPathUnits="userSpaceOnUse"
       id="clipPath745">
      <path
         d="M 0,0 H 8959.9996 V 13087.03 H 0 Z"
         id="path743"
         inkscape:connector-curvature="0"
         style="clip-rule:evenodd" />
    </clipPath>
    <clipPath
       clipPathUnits="userSpaceOnUse"
       id="clipPath751">
      <path
         d="M 0,144.80807 H 1384.7272 V 778.3434 H 0 Z"
         id="path749"
         inkscape:connector-curvature="0"
         style="clip-rule:evenodd" />
    </clipPath>
    <clipPath
       clipPathUnits="userSpaceOnUse"
       id="clipPath757">
      <path
         d="M 0,144.80807 H 1384.7273 V 778.34342 H 0 Z"
         id="path755"
         inkscape:connector-curvature="0"
         style="clip-rule:evenodd" />
    </clipPath>
    <clipPath
       clipPathUnits="userSpaceOnUse"
       id="clipPath763">
      <path
         d="M 0,144.80807 H 1384.7273 V 778.34342 H 0 Z"
         id="path761"
         inkscape:connector-curvature="0"
         style="clip-rule:evenodd" />
    </clipPath>
  </defs>
  <sodipodi:namedview
     id="base"
     pagecolor="#ffffff"
     bordercolor="#666666"
     borderopacity="1.0"
     inkscape:pageopacity="0.0"
     inkscape:pageshadow="2"
     inkscape:zoom="0.61313868"
     inkscape:cx="837.92389"
     inkscape:cy="-74.340223"
     inkscape:document-units="px"
     inkscape:current-layer="layer1"
     showgrid="false"
     units="px"
     fit-margin-top="0"
     fit-margin-left="0"
     fit-margin-right="0"
     fit-margin-bottom="0"
     inkscape:window-width="1920"
     inkscape:window-height="1028"
     inkscape:window-x="-8"
     inkscape:window-y="-8"
     inkscape:window-maximized="1" />
  <metadata
     id="metadata5">
    <rdf:RDF>
      <cc:Work
         rdf:about="">
        <dc:format>image/svg+xml</dc:format>
        <dc:type
           rdf:resource="http://purl.org/dc/dcmitype/StillImage" />
        <dc:title></dc:title>
      </cc:Work>
    </rdf:RDF>
  </metadata>
  <g
     inkscape:label="Layer 1"
     inkscape:groupmode="layer"
     id="layer1"
     transform="translate(106.64234,38.428616)">
    <g
       transform="matrix(0.07242065,0,0,0.07242065,-106.74272,-49.029332)"
       id="g739">
      <g
         id="g741"
         clip-path="url(#clipPath745)">
        <g
           id="g747"
           clip-path="url(#clipPath751)">
          <g
             id="g753"
             clip-path="url(#clipPath757)">
            <g
               id="g759"
               clip-path="url(#clipPath763)">
              <g
                 id="g765" />
              <g
                 id="g767" />
              <g
                 id="g769" />
              <g
                 id="g771">
                <path
                   d="m 643.17047,593.56942 c 14.63514,0.1477 28.38791,-7.01606 36.70235,-19.11796 l 12.17778,7.56221 c -2.52267,3.91111 -5.56731,7.45618 -9.04868,10.53613 -3.50493,3.29368 -7.39542,6.1469 -11.58587,8.4969 -4.26742,2.2238 -8.78053,3.93494 -13.4463,5.09805 -4.83074,1.2689 -9.80614,1.89736 -14.79928,1.86939 -7.77261,0.063 -15.47907,-1.4394 -22.66415,-4.41848 -6.87094,-2.83169 -13.17435,-6.89077 -18.60494,-11.98055 -5.26729,-5.09059 -9.51574,-11.14745 -12.51599,-17.84335 -6.09359,-13.82557 -6.09359,-29.59355 0,-43.41906 2.9818,-6.68161 7.23328,-12.71396 12.51599,-17.75849 11.11945,-10.63632 25.91673,-16.5163 41.26909,-16.3989 9.83814,-0.0998 19.54596,2.26563 28.24558,6.88251 8.29438,4.33034 15.38571,10.66689 20.63448,18.43813 l -12.17764,7.22233 c -8.37451,-12.03329 -22.08857,-19.17679 -36.70242,-19.11793 -5.80449,-0.0736 -11.5618,1.05436 -16.91355,3.31374 -5.1485,2.05505 -9.85666,5.08372 -13.8691,8.92171 -3.96198,3.77303 -7.12591,8.31017 -9.30243,13.34009 -2.29517,5.15904 -3.47686,10.74795 -3.46731,16.39893 -0.0182,5.62456 1.1642,11.1876 3.46737,16.31404 2.15355,5.04281 5.32052,9.58433 9.30237,13.34009 4.03038,3.8363 8.7326,6.88993 13.8691,9.00669 5.35175,2.25935 11.10906,3.38739 16.91355,3.31374 z"
                   style="fill:#07486e;fill-opacity:1;fill-rule:nonzero;stroke:none"
                   id="path773"
                   inkscape:connector-curvature="0" />
              </g>
              <g
                 id="g775" />
              <g
                 id="g777">
                <path
                   d="m 747.44247,607.58924 c -10.75845,0.0506 -21.1316,-4.02103 -29.00672,-11.38578 -3.59726,-3.57412 -6.4693,-7.81614 -8.45677,-12.49045 -2.21627,-4.8188 -3.34266,-10.07107 -3.29814,-15.37935 -0.0238,-5.22413 1.10245,-10.38891 3.29814,-15.12445 1.98747,-4.67431 4.85951,-8.91629 8.4567,-12.49038 3.76307,-3.63968 8.18347,-6.5237 13.0235,-8.49693 5.06102,-2.12425 10.49864,-3.19385 15.98329,-3.14377 5.4573,-0.0504 10.86744,1.01945 15.89871,3.14386 4.84004,1.97318 9.26037,4.85716 13.02344,8.49684 3.59712,3.57405 6.46923,7.81607 8.45677,12.49038 2.42982,4.68105 3.78778,9.84843 3.97469,15.12445 0.0445,5.30828 -1.08187,10.56055 -3.29813,15.37935 -1.98754,4.67431 -4.85965,8.9163 -8.45684,12.49042 -3.78184,3.61576 -8.1974,6.49663 -13.02331,8.49687 -5.27174,2.08691 -10.91208,3.07003 -16.57533,2.88897 z m 0,-65.85076 c -3.6828,0.006 -7.32967,0.72757 -10.74007,2.12419 -3.1818,1.28702 -6.06191,3.22577 -8.45677,5.69292 -2.46879,2.43055 -4.44982,5.31518 -5.83513,8.4969 -2.81649,6.59154 -2.81649,14.05573 -6e-5,20.64734 1.37783,3.1859 3.35975,6.07189 5.83519,8.4969 2.4377,2.41487 5.30678,4.34623 8.45677,5.69292 3.41608,1.36754 7.06282,2.05994 10.74001,2.03923 7.2445,0.0992 14.23493,-2.67965 19.45067,-7.73212 2.53189,-2.39477 4.54685,-5.28691 5.91971,-8.4969 2.81643,-6.59164 2.81643,-14.05583 0,-20.64743 -1.38518,-3.20296 -3.39853,-6.09277 -5.91971,-8.49684 -2.40718,-2.45218 -5.284,-4.38876 -8.45678,-5.69286 -3.48685,-1.43803 -7.22489,-2.16029 -10.99389,-2.12425 z"
                   style="fill:#07486e;fill-opacity:1;fill-rule:nonzero;stroke:none"
                   id="path779"
                   inkscape:connector-curvature="0" />
              </g>
              <g
                 id="g781" />
              <g
                 id="g783">
                <path
                   d="m 806.55529,582.94833 c -0.41712,-1.7258 -0.64404,-3.49247 -0.67656,-5.26809 v -45.7981 h 13.53082 v 42.99418 c 0.0247,2.04873 0.19421,4.09315 0.50739,6.11773 0.41054,2.36715 1.24137,4.64076 2.45247,6.71257 1.40751,2.25922 3.35537,4.12864 5.66596,5.43796 3.0818,1.67744 6.56324,2.47107 10.06364,2.29419 4.20697,0.16871 8.3978,-0.61533 12.26236,-2.29413 2.67545,-1.24978 5.04334,-3.07761 6.93449,-5.35307 1.48757,-1.82138 2.58189,-3.93367 3.21355,-6.20271 0.43273,-1.6457 0.74365,-3.32136 0.93024,-5.01315 v -44.69357 h 13.61541 v 73.32798 h -13.61541 v -6.54259 c -1.75339,1.82005 -3.74487,3.39215 -5.91965,4.67327 -2.34427,1.28718 -4.80855,2.34019 -7.35747,3.14386 -3.31717,1.00513 -6.76829,1.4923 -10.23269,1.44443 -4.95572,0.11013 -9.88021,-0.81574 -14.46094,-2.71897 -3.50531,-1.45648 -6.67254,-3.6262 -9.30244,-6.37262 -2.3744,-2.40576 -4.19322,-5.30649 -5.32781,-8.4969 -1.00851,-2.37996 -1.77352,-4.85677 -2.28323,-7.39227 z"
                   style="fill:#07486e;fill-opacity:1;fill-rule:nonzero;stroke:none"
                   id="path785"
                   inkscape:connector-curvature="0" />
              </g>
              <g
                 id="g787" />
              <g
                 id="g789">
                <path
                   d="m 969.00986,554.22889 c 0.23021,0.97975 0.3997,1.97298 0.50739,2.97389 0,0.84968 0,1.6144 0,2.29416 v 45.71318 h -13.53082 v -43.33403 c -0.0301,-1.9921 -0.19956,-3.9796 -0.50726,-5.94782 -0.39596,-2.37104 -1.22762,-4.64734 -2.45254,-6.71257 -1.43963,-2.26278 -3.41556,-4.13129 -5.75067,-5.43796 -3.11561,-1.66813 -6.6215,-2.46073 -10.14803,-2.29415 -4.144,-0.17008 -8.27405,0.58443 -12.09319,2.2092 -2.70952,1.19416 -5.1107,2.99629 -7.0192,5.26802 -1.52816,1.83892 -2.65216,3.98164 -3.29813,6.2877 -0.43887,1.61549 -0.74999,3.26337 -0.93038,4.9282 l 1.3e-4,45.03341 h -13.44624 v -73.32801 h 13.44624 v 6.5426 c 0.66004,-0.32974 1.28369,-0.72845 1.86056,-1.18956 1.32118,-1.23844 2.79991,-2.29559 4.39743,-3.14387 2.34427,-1.28712 4.80848,-2.34012 7.35741,-3.1438 3.25943,-1.00386 6.65466,-1.49119 10.06352,-1.44445 4.97088,-0.1563 9.92105,0.71117 14.54572,2.54902 3.48492,1.417 6.64911,3.5268 9.30243,6.20281 2.34537,2.42858 4.16,5.3226 5.32781,8.49674 1.04297,2.40407 1.83644,4.90979 2.36789,7.47736 z"
                   style="fill:#07486e;fill-opacity:1;fill-rule:nonzero;stroke:none"
                   id="path791"
                   inkscape:connector-curvature="0" />
              </g>
              <g
                 id="g793" />
              <g
                 id="g795">
                <path
                   d="m 1028.2073,541.73848 c -3.6924,-0.005 -7.3468,0.7466 -10.7401,2.20917 -3.1656,1.27895 -6.0417,3.1863 -8.4567,5.60794 -2.5015,2.40277 -4.4873,5.2944 -5.8353,8.4969 -1.4186,3.26879 -2.1388,6.80021 -2.1141,10.36616 -0.036,3.5396 0.6849,7.04571 2.1141,10.28124 1.3855,3.18169 3.3664,6.06629 5.8353,8.49684 2.3899,2.49389 5.2697,4.46152 8.4567,5.77788 3.3986,1.43576 7.0535,2.1586 10.7401,2.12421 4.703,0.0876 9.3443,-1.08564 13.4461,-3.39885 3.8161,-2.05703 7.1136,-4.96331 9.6408,-8.49675 l 11.2475,6.9674 c -3.747,5.45919 -8.7327,9.94437 -14.5456,13.08523 -6.0861,3.26042 -12.8922,4.92619 -19.7889,4.84318 -5.4846,0.0501 -10.9223,-1.01949 -15.9833,-3.14384 -4.84,-1.97327 -9.2604,-4.85725 -13.02343,-8.4969 -3.59712,-3.57408 -6.46923,-7.8161 -8.45677,-12.49041 -2.20678,-4.79194 -3.33291,-10.01442 -3.29807,-15.29436 -0.0334,-5.25243 1.09303,-10.447 3.2982,-15.20938 1.96986,-4.65895 4.84487,-8.87639 8.45671,-12.40546 3.78186,-3.6157 8.19746,-6.49657 13.02346,-8.4968 5.0609,-2.12442 10.4986,-3.19401 15.9833,-3.14394 13.7076,-0.16439 26.5907,6.56276 34.3344,17.92841 l -11.1629,6.9675 c -2.4363,-3.61506 -5.7559,-6.54085 -9.6406,-8.49684 -4.0875,-2.50297 -8.7471,-3.90745 -13.5309,-4.07853 z"
                   style="fill:#07486e;fill-opacity:1;fill-rule:nonzero;stroke:none"
                   id="path797"
                   inkscape:connector-curvature="0" />
              </g>
              <g
                 id="g799" />
              <g
                 id="g801">
                <path
                   d="m 1095.5232,511.06477 c -0.01,2.27072 -0.923,4.44324 -2.537,6.03274 -1.6372,1.63303 -3.8672,2.52315 -6.1734,2.46413 -2.3353,0.0826 -4.6004,-0.80929 -6.2581,-2.46407 -3.2788,-3.31416 -3.2789,-8.66649 0,-11.98059 1.6974,-1.58263 3.9431,-2.43629 6.2581,-2.37911 2.2939,-0.0816 4.5222,0.77713 6.1734,2.37905 1.5932,1.56885 2.5052,3.70665 2.5369,5.94785 z m -2.2833,94.14535 h -13.5309 v -73.32801 h 13.5309 z"
                   style="fill:#07486e;fill-opacity:1;fill-rule:nonzero;stroke:none"
                   id="path803"
                   inkscape:connector-curvature="0" />
              </g>
              <g
                 id="g805" />
              <g
                 id="g807">
                <path
                   d="M 1120.4707,605.21012 V 498.14955 h 13.4462 v 107.06057 z"
                   style="fill:#07486e;fill-opacity:1;fill-rule:nonzero;stroke:none"
                   id="path809"
                   inkscape:connector-curvature="0" />
              </g>
              <g
                 id="g811" />
              <g
                 id="g813">
                <path
                   d="m 639.02667,276.46615 c 24.59968,-0.11589 48.29293,9.32111 66.13195,26.34031 8.51413,8.12532 15.35325,17.85509 20.12709,28.63446 9.92389,22.24347 9.92383,47.68577 0,69.92924 -4.7739,10.77936 -11.61283,20.50912 -20.12709,28.63441 -17.83909,17.01922 -41.53227,26.45623 -66.13195,26.34033 H 585.32618 V 276.46615 Z m 0,156.25745 c 9.16739,0.0427 18.25169,-1.74813 26.72343,-5.26808 8.00048,-3.38589 15.31099,-8.22506 21.56479,-14.27472 6.1656,-6.0258 11.13106,-13.17761 14.63024,-21.07225 7.10095,-16.39268 7.10101,-35.01337 -6e-5,-51.40607 -3.49918,-7.89463 -8.46458,-15.04643 -14.63025,-21.07222 -6.30412,-6.06714 -13.67341,-10.90721 -21.7339,-14.27476 -8.4718,-3.51994 -17.55597,-5.31072 -26.72343,-5.26804 h -28.24558 v 132.63617 z"
                   style="fill:#07486e;fill-opacity:1;fill-rule:nonzero;stroke:none"
                   id="path815"
                   inkscape:connector-curvature="0" />
              </g>
              <g
                 id="g817" />
              <g
                 id="g819">
                <path
                   d="m 826.34417,460.7633 c -9.26385,0.0749 -18.45409,-1.65643 -27.06164,-5.09811 -16.40707,-6.44428 -29.66535,-19.06435 -36.95605,-35.17707 -3.67061,-8.16918 -5.54544,-17.03739 -5.49698,-26.00038 -0.007,-8.79455 1.86734,-17.48789 5.49691,-25.49068 3.57467,-7.9156 8.6273,-15.06889 14.88394,-21.0722 27.49038,-26.14398 70.52351,-26.14398 98.01388,0 6.3451,5.96378 11.45999,13.12392 15.05311,21.07225 3.62971,8.00277 5.5044,16.69608 5.49698,25.49062 0.0485,8.963 -1.82643,17.83118 -5.49698,26.00042 -3.58551,7.90939 -8.63678,15.0607 -14.88393,21.07224 -6.38265,6.04713 -13.84188,10.83213 -21.9876,14.1048 -8.60813,3.43961 -17.79811,5.17085 -27.06171,5.09808 z m 0,-111.22405 c -6.25793,-0.0606 -12.46605,1.12332 -18.26659,3.4837 -5.48866,2.19124 -10.49006,5.4547 -14.71477,9.60146 -4.13212,4.13052 -7.45922,9.00073 -9.80995,14.35972 -4.84791,11.16075 -4.84791,23.84638 0,35.00712 2.29692,5.51422 5.62725,10.53347 9.80982,14.7846 4.274,4.06303 9.26411,7.29027 14.71483,9.51645 5.81784,2.2917 12.01783,3.44528 18.26659,3.39873 6.19535,0.0631 12.34321,-1.09144 18.09755,-3.39873 5.46647,-2.24456 10.48116,-5.46917 14.79935,-9.51642 4.20871,-4.05104 7.57234,-8.90368 9.89441,-14.27481 4.84791,-11.16072 4.84791,-23.8464 -6e-5,-35.0071 -2.32027,-5.39702 -5.68325,-10.27784 -9.89435,-14.35969 -8.86163,-8.48337 -20.65718,-13.17523 -32.8969,-13.0852 z"
                   style="fill:#07486e;fill-opacity:1;fill-rule:nonzero;stroke:none"
                   id="path821"
                   inkscape:connector-curvature="0" />
              </g>
              <g
                 id="g823" />
              <g
                 id="g825">
                <path
                   d="m 990.32096,328.12713 c 5.25413,-0.0465 10.49834,0.46613 15.64504,1.52944 l -3.2982,21.07224 c -4.06588,-1.3223 -8.32917,-1.92604 -12.60053,-1.78433 -7.01559,-0.32799 -14.01362,0.95039 -20.46537,3.73859 -4.5906,2.03507 -8.64472,5.11921 -11.83943,9.00673 -2.59099,3.05651 -4.46911,6.65633 -5.49691,10.5361 -0.78121,2.77982 -1.31879,5.62296 -1.60681,8.49689 l -7e-5,75.79208 H 927.82543 V 333.31023 h 22.83325 v 11.04593 l 2.79075,-2.63403 c 2.23492,-2.09242 4.70384,-3.91729 7.35742,-5.43796 3.87765,-2.23494 7.99023,-4.03028 12.26229,-5.35305 5.55698,-1.88543 11.3865,-2.83292 17.25176,-2.804 z"
                   style="fill:#07486e;fill-opacity:1;fill-rule:nonzero;stroke:none"
                   id="path827"
                   inkscape:connector-curvature="0" />
              </g>
              <g
                 id="g829" />
              <g
                 id="g831">
                <path
                   d="m 1079.2016,381.06266 c 4.8204,1.01963 10.4018,2.29415 16.9135,3.82359 6.2013,1.52729 12.1937,3.81002 17.8438,6.79749 5.53,3.00441 10.4155,7.0757 14.3765,11.98061 4.0645,5.48196 6.125,12.20339 5.8352,19.03301 0.2337,11.50651 -5.7104,22.25002 -15.5604,28.12455 -12.7888,7.49898 -27.504,11.01776 -42.2839,10.11127 -6.1105,0.0489 -12.208,-0.57795 -18.1821,-1.86926 -5.4264,-1.16891 -10.6834,-3.02471 -15.645,-5.52298 -4.4416,-2.32164 -8.5874,-5.17463 -12.3469,-8.49687 -3.5469,-2.88744 -6.4316,-6.51037 -8.4568,-10.62106 l 20.3809,-6.96746 c 3.4798,3.9432 7.9477,6.87729 12.9389,8.49687 6.681,2.48498 13.7651,3.69528 20.8882,3.56867 2.7062,0 5.9198,0 9.7253,-0.50982 3.6862,-0.32932 7.3202,-1.09948 10.8247,-2.29416 3.2988,-1.07653 6.3476,-2.81047 8.9641,-5.09811 2.5432,-2.28084 3.939,-5.58421 3.8056,-9.0067 0.01,-1.763 -0.2781,-3.51486 -0.8458,-5.18309 -0.8039,-2.10043 -2.2561,-3.88703 -4.1438,-5.09811 -3.2241,-2.2342 -6.7574,-3.98055 -10.4865,-5.18312 -6.5239,-2.17291 -13.1933,-3.87657 -19.958,-5.09811 -5.9197,-1.18955 -11.8395,-2.54905 -17.8438,-3.99352 -5.6266,-1.31611 -11.0373,-3.43339 -16.0678,-6.2877 -4.6385,-2.56865 -8.653,-6.13787 -11.755,-10.45111 -3.21,-4.71629 -4.8123,-10.35082 -4.5666,-16.0591 -0.1783,-10.57878 4.8538,-20.56366 13.4462,-26.68021 10.8818,-7.43473 23.9035,-11.04912 37.0407,-10.28119 5.9089,-0.0169 11.8036,0.58105 17.5899,1.78435 5.3544,1.11149 10.552,2.88079 15.476,5.26804 4.4359,2.24431 8.5352,5.10464 12.1778,8.49684 3.299,2.92089 5.9005,6.5512 7.6109,10.62117 l -20.3807,6.9674 c -2.7832,-4.00578 -6.7918,-6.98918 -11.4167,-8.49686 -5.9459,-2.23623 -12.2568,-3.33147 -18.6049,-3.22879 -7.3804,-0.3777 -14.7372,1.11232 -21.3956,4.3334 -4.4589,2.01894 -7.4037,6.39135 -7.6111,11.30083 0,1.44335 0.2266,2.87769 0.6765,4.24844 0.7312,1.64092 2.0204,2.96637 3.6364,3.73861 2.9122,1.61334 6.0071,2.8686 9.2179,3.73865 5.9827,1.66727 12.0527,3.00051 18.182,3.99352 z"
                   style="fill:#07486e;fill-opacity:1;fill-rule:nonzero;stroke:none"
                   id="path833"
                   inkscape:connector-curvature="0" />
              </g>
              <g
                 id="g835" />
              <g
                 id="g837">
                <path
                   d="m 1183.6428,400.60545 c 0.6711,5.3544 2.244,10.55502 4.6512,15.37937 2.2946,4.61768 5.3869,8.78927 9.1333,12.32044 3.656,3.57259 7.9249,6.45125 12.6007,8.49687 4.8124,2.05501 9.9934,3.09612 15.2223,3.05888 15.5921,0.21626 30.1963,-7.65021 38.6474,-20.81738 l 18.774,11.64074 c -12.8966,19.08098 -34.4673,30.38038 -57.4214,30.07893 -8.145,0.0628 -16.2216,-1.49663 -23.7634,-4.58831 -7.3236,-2.9831 -14.0333,-7.30456 -19.7889,-12.74531 -5.7832,-5.47478 -10.5384,-11.9507 -14.0383,-19.118 -3.7428,-7.44442 -5.9846,-15.55856 -6.5964,-23.87618 2e-4,-0.84968 2e-4,-1.78432 2e-4,-2.88893 0,-1.10458 0,-2.03924 0,-3.05887 -0.05,-5.186 0.5756,-10.3563 1.8605,-15.3793 1.6552,-7.17459 4.5151,-14.01331 8.4567,-20.22262 3.8257,-6.09978 8.5929,-11.54923 14.1228,-16.144 5.5218,-4.60218 11.7851,-8.2229 18.5202,-10.70609 13.9582,-5.09693 29.2561,-5.09695 43.2142,-2e-5 6.7352,2.48324 12.9986,6.104 18.5203,10.70613 5.3126,4.61492 9.8776,10.03285 13.531,16.05905 3.9418,6.20925 6.8016,13.04796 8.4568,20.22251 1.2848,5.02306 1.9104,10.19333 1.8605,15.37935 v 3.05888 c 0.095,0.96062 0.095,1.92831 0,2.88894 z m 81.0159,-21.32715 c -2.8357,-8.45672 -8.1036,-15.87863 -15.1376,-21.32718 -14.368,-10.97653 -34.2585,-10.97653 -48.6264,3e-5 -7.034,5.44852 -12.302,12.87043 -15.1376,21.32714 z"
                   style="fill:#07486e;fill-opacity:1;fill-rule:nonzero;stroke:none"
                   id="path839"
                   inkscape:connector-curvature="0" />
              </g>
              <g
                 id="g841" />
              <g
                 id="g843">
                <path
                   d="m 1382.2077,458.12926 -4.3129,1.27455 c -2.7614,0.77473 -5.5957,1.25882 -8.4568,1.44445 -3.8469,0.21885 -7.7062,-0.009 -11.5012,-0.6798 -4.3771,-0.74372 -8.5528,-2.39295 -12.2624,-4.84315 -12.1212,-7.70382 -18.182,-22.17684 -18.182,-43.41902 v -57.60878 h -16.4062 v -20.98728 h 16.4062 v -57.35388 h 22.2414 v 57.35388 h 26.8924 v 21.32715 h -26.8924 v 57.60879 c 0,13.51003 2.7062,22.09186 8.0339,25.49062 1.5815,1.00571 3.379,1.61747 5.2432,1.78437 1.7454,0.12216 3.4974,0.12216 5.2429,-4e-5 2.0115,-0.17272 3.9972,-0.57176 5.92,-1.18958 z"
                   style="fill:#07486e;fill-opacity:1;fill-rule:nonzero;stroke:none"
                   id="path845"
                   inkscape:connector-curvature="0" />
              </g>
              <g
                 id="g847" />
              <g
                 id="g849">
                <path
                   d="M 60.245214,360.07537 C 41.188851,356.12562 21.773624,354.18914 2.3163295,354.2975 v 83.26935 C 68.054305,420.27202 136.56367,416.31472 203.84119,425.92621 161.26953,393.81618 112.28129,371.35095 60.245226,360.07537 Z"
                   style="fill:#4ab171;fill-opacity:1;fill-rule:nonzero;stroke:none"
                   id="path851"
                   inkscape:connector-curvature="0" />
              </g>
              <g
                 id="g853" />
              <g
                 id="g855">
                <path
                   d="M 2.3163295,737.25151 H 178.30174 c 80.82312,0.32977 158.66359,-30.64972 217.33902,-86.49815 19.79052,-18.85451 36.8684,-40.38886 50.74066,-63.9814 C 269.2966,425.84116 81.809979,454.73053 2.3163295,477.75705 Z"
                   style="fill:#c7d42f;fill-opacity:1;fill-rule:nonzero;stroke:none"
                   id="path857"
                   inkscape:connector-curvature="0" />
              </g>
              <g
                 id="g859" />
              <g
                 id="g861">
                <path
                   d="m 486.04367,441.7303 c 0.21527,-39.56327 -8.03297,-78.71108 -24.18641,-114.79271 l -1.77588,-3.65367 c -88.64316,-26.12977 -184.43029,-4.73212 -253.70313,56.67415 29.10925,19.25721 56.19709,41.4345 80.84673,66.19057 65.38781,22.50285 125.64905,57.88932 177.25396,104.08678 14.3779,-34.34319 21.71245,-71.24768 21.56473,-108.50512 z"
                   style="fill:#06a099;fill-opacity:1;fill-rule:nonzero;stroke:none"
                   id="path863"
                   inkscape:connector-curvature="0" />
              </g>
              <g
                 id="g865" />
              <g
                 id="g867">
                <path
                   d="M 395.64076,232.79224 C 336.91874,177.02732 259.10168,146.08754 178.30174,146.37902 l -175.9854105,3e-5 -0.930245,168.49297 c 59.4635815,0.038 117.9567655,15.14711 170.0656555,43.92878 70.07029,-67.15791 167.67168,-96.97747 263.09016,-80.38032 -11.37269,-16.51162 -24.40858,-31.8018 -38.90108,-45.62827 z"
                   style="fill:#1ab9de;fill-opacity:1;fill-rule:nonzero;stroke:none"
                   id="path869"
                   inkscape:connector-curvature="0" />
              </g>
              <g
                 id="g871" />
              <g
                 id="g873" />
            </g>
          </g>
        </g>
      </g>
    </g>
  </g>
</svg>
