<svg width="960" height="640" xmlns="http://www.w3.org/2000/svg"><g fill="none" fill-rule="evenodd"><path d="M10 0h940c5.523 0 10 4.477 10 10v630H0V10C0 4.477 4.477 0 10 0z" fill="#DADADA"/><circle fill="#FFF" cx="25" cy="21" r="9"/><circle fill="#FFF" cx="49" cy="21" r="9"/><circle fill="#FFF" cx="73" cy="21" r="9"/><path fill="#0B0C0C" d="M4 42h952v594H4z"/><path fill="#0B0C0C" d="M4 42h952v594H4z"/><path fill="#1E1E1E" d="M4 42h146v594H4z"/><path d="M272.523 111.576c.704 0 1.374-.102 2.013-.307a5.38 5.38 0 001.696-.888 4.754 4.754 0 001.205-1.398c.31-.545.489-1.163.536-1.854h2.021a5.691 5.691 0 01-.703 2.496 6.674 6.674 0 01-1.652 1.969c-.68.55-1.46.981-2.338 1.292a8.275 8.275 0 01-2.778.466c-1.394 0-2.607-.264-3.638-.791a7.614 7.614 0 01-2.575-2.11 9.217 9.217 0 01-1.547-3.032 12.224 12.224 0 01-.519-3.56v-.738c0-1.23.173-2.417.519-3.56a9.217 9.217 0 011.547-3.032 7.614 7.614 0 012.575-2.11c1.031-.526 2.238-.79 3.62-.79 1.056 0 2.031.167 2.928.5a7.117 7.117 0 012.338 1.407 6.732 6.732 0 011.573 2.145c.386.826.603 1.731.65 2.715h-2.021a5.115 5.115 0 00-.493-1.986 5.215 5.215 0 00-1.16-1.582 5.143 5.143 0 00-1.696-1.037 5.937 5.937 0 00-2.118-.37c-1.102 0-2.042.224-2.821.669a5.662 5.662 0 00-1.908 1.758 7.65 7.65 0 00-1.08 2.47c-.23.92-.343 1.854-.343 2.803v.738c0 .961.114 1.905.342 2.83a7.54 7.54 0 001.081 2.47 5.697 5.697 0 001.908 1.75c.779.445 1.725.667 2.838.667zm26.473-17.947c.527 0 1.055.032 1.582.097.527.064.967.155 1.318.272l-.263 2.022a16.163 16.163 0 00-1.477-.247 12.78 12.78 0 00-1.511-.087c-1.782 0-3.293.421-4.536 1.265-1.242.844-2.115 2.139-2.619 3.885l.018 12.164h-2.18V93.98h2.022l.14 3.305v.387a8.423 8.423 0 013.076-2.962c1.278-.72 2.754-1.081 4.43-1.081zm17.139 19.723c-1.324 0-2.531-.247-3.621-.739a8.571 8.571 0 01-2.804-2.004 9.015 9.015 0 01-1.81-2.962 10.398 10.398 0 01-.66-3.612v-.756c.012-1.36.238-2.625.677-3.797.44-1.171 1.04-2.191 1.802-3.058a8.42 8.42 0 012.69-2.048 7.54 7.54 0 013.321-.747c1.266 0 2.385.228 3.358.685a7.074 7.074 0 012.452 1.873 8.281 8.281 0 011.512 2.768 11.18 11.18 0 01.536 3.393v1.283H309.35v.404c.011.996.181 1.948.51 2.857a7.556 7.556 0 001.388 2.399 6.797 6.797 0 002.162 1.661c.844.416 1.781.624 2.813.624 1.172.012 2.232-.205 3.181-.65a6.68 6.68 0 002.426-1.934l1.336 1.002a7.793 7.793 0 01-1.248 1.362c-.48.416-1.017.771-1.608 1.064a8.942 8.942 0 01-1.943.685 9.8 9.8 0 01-2.232.247zm-.405-17.93c-.855 0-1.64.161-2.355.483a5.858 5.858 0 00-1.88 1.345 7.357 7.357 0 00-1.337 2.03 9.308 9.308 0 00-.72 2.558h12.04v-.229a7.498 7.498 0 00-.43-2.294 6.268 6.268 0 00-1.125-1.977 5.574 5.574 0 00-1.784-1.389c-.703-.351-1.506-.527-2.409-.527zM342.695 113a7.625 7.625 0 01-.299-1.292c-.07-.475-.117-.958-.14-1.45a7.885 7.885 0 01-1.266 1.23c-.48.375-1.005.7-1.573.976a9.078 9.078 0 01-1.837.65 8.747 8.747 0 01-2.057.238c-.89 0-1.72-.13-2.487-.387a6.233 6.233 0 01-2.004-1.09 5.024 5.024 0 01-1.336-1.696c-.322-.662-.483-1.404-.483-2.224 0-1.09.24-2.016.72-2.777a5.544 5.544 0 011.952-1.855c.82-.474 1.77-.823 2.847-1.046a16.74 16.74 0 013.393-.334h4.113v-2.162c-.011-.715-.152-1.344-.422-1.89a3.994 3.994 0 00-1.098-1.37 4.774 4.774 0 00-1.653-.835 7.368 7.368 0 00-2.083-.282c-.68 0-1.327.088-1.942.264a5.514 5.514 0 00-1.635.756c-.474.328-.858.73-1.151 1.204a3.25 3.25 0 00-.475 1.608l-2.11-.017a4.814 4.814 0 01.643-2.233 5.835 5.835 0 011.59-1.766 7.827 7.827 0 012.33-1.17 9.319 9.319 0 012.838-.421c1.008 0 1.954.129 2.84.387.884.257 1.652.644 2.302 1.16a5.57 5.57 0 011.547 1.933c.38.774.577 1.676.589 2.707v9.211c0 .633.055 1.272.167 1.916.111.645.249 1.26.413 1.846l.017.211h-2.25zm-6.943-1.512a7.422 7.422 0 002.118-.263 7.607 7.607 0 001.855-.783 6.77 6.77 0 001.494-1.195c.433-.463.773-.97 1.02-1.52v-4.166h-3.833c-.926 0-1.816.07-2.672.21-.855.141-1.611.373-2.267.695-.656.322-1.18.753-1.573 1.292s-.59 1.213-.59 2.021c0 .575.118 1.09.352 1.547a3.6 3.6 0 00.95 1.17c.398.321.867.567 1.406.737.539.17 1.119.255 1.74.255zm22.482-22.377v4.87h7.05v1.722h-7.05v11.97c.012.74.126 1.351.343 1.838.217.486.51.879.88 1.177.368.3.802.513 1.3.642s1.04.193 1.626.193c.586 0 1.186-.04 1.802-.123.615-.082 1.14-.164 1.573-.246l.316 1.6c-.504.2-1.119.349-1.845.448-.727.1-1.465.15-2.215.15a8.452 8.452 0 01-2.338-.308 4.906 4.906 0 01-1.863-.984c-.528-.452-.944-1.038-1.249-1.758-.304-.72-.462-1.603-.474-2.646V95.703h-5.291V93.98h5.29v-4.869h2.145zm22.711 24.24c-1.324 0-2.53-.246-3.62-.738a8.571 8.571 0 01-2.804-2.004 9.015 9.015 0 01-1.811-2.962 10.398 10.398 0 01-.66-3.612v-.756c.012-1.36.238-2.625.678-3.797.439-1.171 1.04-2.191 1.801-3.058a8.42 8.42 0 012.69-2.048 7.54 7.54 0 013.322-.747c1.266 0 2.385.228 3.357.685a7.074 7.074 0 012.453 1.873 8.281 8.281 0 011.511 2.768 11.18 11.18 0 01.536 3.393v1.283H374.16v.404c.012.996.182 1.948.51 2.857a7.556 7.556 0 001.389 2.399 6.797 6.797 0 002.162 1.661c.843.416 1.78.624 2.812.624 1.172.012 2.233-.205 3.182-.65a6.68 6.68 0 002.426-1.934l1.336 1.002a7.793 7.793 0 01-1.248 1.362c-.481.416-1.017.771-1.609 1.064a8.942 8.942 0 01-1.942.685 9.8 9.8 0 01-2.233.247zm-.404-17.93c-.855 0-1.64.162-2.355.484a5.858 5.858 0 00-1.881 1.345 7.357 7.357 0 00-1.336 2.03 9.308 9.308 0 00-.721 2.558h12.041v-.229a7.498 7.498 0 00-.43-2.294 6.268 6.268 0 00-1.126-1.977 5.574 5.574 0 00-1.784-1.389c-.703-.351-1.506-.527-2.408-.527zm29.022 19.354h-15.487V113h15.486v1.775zm21.85-11.091c0 1.23-.15 2.428-.45 3.594-.298 1.166-.755 2.198-1.37 3.094a7.148 7.148 0 01-2.33 2.162c-.937.545-2.05.818-3.34.818-1.183 0-2.267-.229-3.251-.686a6.59 6.59 0 01-2.479-1.986v9.632h-2.109V93.98h1.969l.088 2.602a7.053 7.053 0 012.46-2.18c.973-.515 2.069-.773 3.288-.773 1.3 0 2.425.267 3.375.8a6.838 6.838 0 012.338 2.144c.609.897 1.063 1.928 1.362 3.094.299 1.166.448 2.382.448 3.647v.37zm-2.11-.37c0-.949-.106-1.892-.317-2.83a7.976 7.976 0 00-1.02-2.522 5.653 5.653 0 00-1.819-1.81c-.744-.464-1.655-.695-2.733-.695-.61 0-1.18.085-1.714.255-.533.17-1.02.41-1.459.72-.44.311-.832.68-1.178 1.108-.345.428-.635.9-.87 1.415v9.422a5.731 5.731 0 002.11 2.338c.914.574 1.963.861 3.146.861 1.067 0 1.972-.234 2.716-.703a5.653 5.653 0 001.81-1.82c.463-.743.8-1.587 1.011-2.53.211-.944.317-1.89.317-2.84v-.369zm21.41 9.686a7.625 7.625 0 01-.299-1.292c-.07-.475-.117-.958-.14-1.45a7.885 7.885 0 01-1.266 1.23c-.48.375-1.005.7-1.573.976a9.077 9.077 0 01-1.837.65 8.747 8.747 0 01-2.057.238c-.89 0-1.72-.13-2.487-.387a6.233 6.233 0 01-2.004-1.09 5.024 5.024 0 01-1.336-1.696c-.322-.662-.484-1.404-.484-2.224 0-1.09.24-2.016.721-2.777a5.544 5.544 0 011.951-1.855c.82-.474 1.77-.823 2.848-1.046a16.74 16.74 0 013.393-.334h4.113v-2.162c-.012-.715-.152-1.344-.422-1.89a3.994 3.994 0 00-1.099-1.37 4.774 4.774 0 00-1.652-.835 7.368 7.368 0 00-2.083-.282c-.68 0-1.327.088-1.942.264a5.514 5.514 0 00-1.635.756c-.475.328-.859.73-1.152 1.204a3.25 3.25 0 00-.474 1.608l-2.11-.017a4.814 4.814 0 01.642-2.233 5.835 5.835 0 011.59-1.766 7.827 7.827 0 012.33-1.17 9.319 9.319 0 012.839-.421c1.008 0 1.954.129 2.839.387.885.257 1.652.644 2.302 1.16a5.57 5.57 0 011.547 1.933c.381.774.578 1.676.59 2.707v9.211c0 .633.055 1.272.166 1.916.112.645.25 1.26.413 1.846l.018.211h-2.25zm-6.943-1.512a7.422 7.422 0 002.118-.263 7.607 7.607 0 001.854-.783 6.77 6.77 0 001.494-1.195c.434-.463.774-.97 1.02-1.52v-4.166h-3.832c-.926 0-1.817.07-2.672.21-.856.141-1.611.373-2.268.695-.656.322-1.18.753-1.573 1.292-.392.539-.589 1.213-.589 2.021 0 .575.117 1.09.352 1.547a3.6 3.6 0 00.949 1.17c.398.321.867.567 1.406.737.54.17 1.12.255 1.74.255zm22.623-2.355l.386 1.037 6.873-16.19h2.391l-9.826 22.061a13.133 13.133 0 01-.914 1.688 7.399 7.399 0 01-1.248 1.485 5.88 5.88 0 01-1.661 1.063c-.627.27-1.345.405-2.154.405-.281 0-.592-.027-.931-.08a9.864 9.864 0 01-.862-.166l.246-1.758c.2.023.449.05.747.079.3.03.548.044.748.044.539 0 1.03-.106 1.476-.317.445-.21.84-.483 1.187-.817a6.09 6.09 0 00.914-1.125c.263-.416.483-.823.659-1.222l1.3-2.812-8.542-18.528h2.373l6.838 15.153zm14.52-15.153l.052 2.127a4.774 4.774 0 011.59-1.784c.674-.45 1.527-.682 2.558-.694.54 0 1.017.061 1.433.184.416.124.776.296 1.081.519.305.223.562.49.773.8.211.31.381.647.51 1.01a5.199 5.199 0 011.644-1.784c.697-.474 1.567-.717 2.61-.73.82 0 1.506.142 2.057.423.55.281.996.662 1.336 1.142.34.48.583 1.037.73 1.67.146.633.219 1.301.219 2.004L497.488 113h-1.968l-.018-14.133c0-.41-.041-.82-.123-1.23a3.285 3.285 0 00-.43-1.108 2.251 2.251 0 00-.862-.79c-.37-.2-.84-.294-1.415-.282-.586.012-1.081.105-1.485.281a2.98 2.98 0 00-1.002.686 3.182 3.182 0 00-.616.94 5.382 5.382 0 00-.325 1.046l-.017 14.59h-1.97l-.017-14.326a5.66 5.66 0 00-.123-1.178 2.923 2.923 0 00-.43-1.037 2.24 2.24 0 00-.853-.738c-.363-.188-.826-.276-1.389-.264-.562.012-1.04.1-1.432.264-.393.164-.721.383-.985.659a3.28 3.28 0 00-.632.95c-.159.357-.285.729-.378 1.115L481 113h-1.986V93.98h1.898zm29.653 19.372c-1.324 0-2.53-.247-3.62-.739a8.571 8.571 0 01-2.804-2.004 9.015 9.015 0 01-1.81-2.962 10.398 10.398 0 01-.66-3.612v-.756c.012-1.36.237-2.625.677-3.797.44-1.171 1.04-2.191 1.801-3.058a8.42 8.42 0 012.69-2.048 7.54 7.54 0 013.322-.747c1.266 0 2.385.228 3.358.685a7.074 7.074 0 012.452 1.873 8.281 8.281 0 011.511 2.768 11.18 11.18 0 01.537 3.393v1.283H503.78v.404c.012.996.182 1.948.51 2.857a7.556 7.556 0 001.389 2.399 6.797 6.797 0 002.162 1.661c.844.416 1.781.624 2.812.624 1.172.012 2.233-.205 3.182-.65a6.68 6.68 0 002.426-1.934l1.336 1.002a7.793 7.793 0 01-1.248 1.362c-.48.416-1.017.771-1.609 1.064a8.942 8.942 0 01-1.942.685 9.8 9.8 0 01-2.233.247zm-.404-17.93c-.855 0-1.64.161-2.355.483a5.858 5.858 0 00-1.881 1.345 7.357 7.357 0 00-1.336 2.03 9.308 9.308 0 00-.72 2.558h12.04v-.229a7.498 7.498 0 00-.43-2.294 6.268 6.268 0 00-1.126-1.977 5.574 5.574 0 00-1.784-1.389c-.703-.351-1.506-.527-2.408-.527zm15.82-1.442l.159 3.569a7.92 7.92 0 012.672-2.839c1.113-.709 2.378-1.07 3.796-1.081 2.086 0 3.68.624 4.782 1.872 1.101 1.248 1.658 3.02 1.67 5.317V113h-2.11v-12.146c-.012-1.747-.41-3.085-1.195-4.017-.785-.932-2.004-1.392-3.656-1.38-.68 0-1.328.111-1.943.334a6.349 6.349 0 00-1.687.914c-.51.387-.961.844-1.354 1.371a7.493 7.493 0 00-.958 1.723V113h-2.11V93.98h1.934zm26.684-4.869v4.87h7.049v1.722h-7.049v11.97c.012.74.126 1.351.343 1.838.217.486.51.879.879 1.177.369.3.802.513 1.3.642.499.129 1.04.193 1.626.193.586 0 1.187-.04 1.802-.123a29.9 29.9 0 001.573-.246l.317 1.6c-.504.2-1.12.349-1.846.448-.726.1-1.465.15-2.215.15a8.452 8.452 0 01-2.338-.308 4.906 4.906 0 01-1.863-.984c-.527-.452-.943-1.038-1.248-1.758-.305-.72-.463-1.603-.475-2.646V95.703h-5.29V93.98h5.29v-4.869h2.145zM248.758 228.215l-.281 5.625h-1.6l.07-5.45-.017-2.39h1.845l-.017 2.215zm5.326 0l-.281 5.625h-1.6l.088-5.45-.018-2.39h1.846l-.035 2.215zm23.8 24.785a7.625 7.625 0 01-.298-1.292c-.07-.475-.117-.958-.14-1.45a7.885 7.885 0 01-1.266 1.23c-.48.375-1.005.7-1.574.976a9.077 9.077 0 01-1.836.65 8.747 8.747 0 01-2.057.238c-.89 0-1.72-.13-2.487-.387a6.233 6.233 0 01-2.004-1.09 5.024 5.024 0 01-1.336-1.696c-.323-.662-.484-1.404-.484-2.224 0-1.09.24-2.016.721-2.777a5.544 5.544 0 011.951-1.855c.82-.474 1.77-.823 2.848-1.046a16.74 16.74 0 013.392-.334h4.114v-2.162c-.012-.715-.153-1.344-.422-1.89a3.994 3.994 0 00-1.099-1.37 4.774 4.774 0 00-1.652-.835 7.368 7.368 0 00-2.083-.282c-.68 0-1.327.088-1.943.264a5.514 5.514 0 00-1.634.756c-.475.328-.859.73-1.152 1.204a3.25 3.25 0 00-.474 1.608l-2.11-.017a4.814 4.814 0 01.642-2.233 5.835 5.835 0 011.59-1.766 7.827 7.827 0 012.33-1.17 9.319 9.319 0 012.839-.421c1.008 0 1.954.129 2.839.387.884.257 1.652.644 2.302 1.16a5.57 5.57 0 011.547 1.933c.381.774.577 1.676.59 2.707v9.211c0 .633.055 1.272.166 1.916.111.645.25 1.26.413 1.846l.018.211h-2.25zm-6.943-1.512a7.422 7.422 0 002.119-.263 7.607 7.607 0 001.854-.783 6.77 6.77 0 001.494-1.195c.434-.463.774-.97 1.02-1.52v-4.166h-3.832c-.926 0-1.817.07-2.672.21-.856.141-1.611.373-2.268.695-.656.322-1.18.753-1.573 1.292s-.589 1.213-.589 2.021c0 .575.117 1.09.352 1.547a3.6 3.6 0 00.949 1.17c.398.321.867.567 1.406.737.54.17 1.12.255 1.74.255zm15.54-17.508l.052 2.127a4.774 4.774 0 011.591-1.784c.674-.45 1.526-.682 2.558-.694.539 0 1.016.061 1.432.184.416.124.777.296 1.081.519.305.223.563.49.774.8.21.31.38.647.51 1.01a5.199 5.199 0 011.643-1.784c.697-.474 1.567-.717 2.61-.73.82 0 1.506.142 2.057.423.55.281.996.662 1.336 1.142.34.48.583 1.037.73 1.67.146.633.22 1.301.22 2.004L303.056 253h-1.97l-.017-14.133c0-.41-.04-.82-.123-1.23a3.285 3.285 0 00-.43-1.108 2.251 2.251 0 00-.862-.79c-.369-.2-.84-.294-1.415-.282-.586.012-1.08.105-1.485.281a2.98 2.98 0 00-1.002.686 3.182 3.182 0 00-.615.94 5.382 5.382 0 00-.325 1.046l-.018 14.59h-1.969l-.017-14.326a5.66 5.66 0 00-.123-1.178 2.923 2.923 0 00-.431-1.037 2.24 2.24 0 00-.853-.738c-.363-.188-.826-.276-1.388-.264-.563.012-1.04.1-1.433.264s-.72.383-.984.659a3.28 3.28 0 00-.633.95c-.158.357-.284.729-.378 1.115L286.568 253h-1.986v-19.02h1.898zm20.443 9.229c.012-1.29.21-2.514.597-3.674.387-1.16.94-2.177 1.662-3.05a7.935 7.935 0 012.654-2.083c1.049-.515 2.235-.773 3.56-.773 1.335 0 2.528.258 3.577.773a8.026 8.026 0 012.663 2.083c.726.873 1.283 1.89 1.67 3.05.386 1.16.586 2.385.597 3.674v.58a12.06 12.06 0 01-.589 3.674c-.38 1.16-.934 2.177-1.66 3.05a7.953 7.953 0 01-2.655 2.074c-1.043.51-2.232.765-3.568.765-1.336 0-2.529-.255-3.578-.765a7.928 7.928 0 01-2.663-2.074c-.726-.873-1.283-1.89-1.67-3.05a11.887 11.887 0 01-.597-3.674v-.58zm2.11.58c0 1.008.14 1.98.421 2.918a7.903 7.903 0 001.23 2.487 6.161 6.161 0 001.996 1.732c.79.433 1.708.65 2.75.65 1.032 0 1.943-.217 2.734-.65a6.07 6.07 0 001.986-1.732c.534-.72.94-1.55 1.222-2.487a10.1 10.1 0 00.422-2.918v-.58c0-.996-.14-1.963-.422-2.9a7.903 7.903 0 00-1.23-2.488 6.228 6.228 0 00-2.004-1.74c-.797-.44-1.711-.66-2.743-.66-1.03 0-1.942.22-2.733.66a6.166 6.166 0 00-1.986 1.74c-.533.721-.94 1.55-1.222 2.488a10.04 10.04 0 00-.422 2.9v.58zm33.345 6.24a6.81 6.81 0 01-2.505 2.444c-1.037.586-2.265.879-3.683.879-1.054 0-1.983-.17-2.786-.51a5.243 5.243 0 01-2.021-1.494c-.545-.657-.961-1.46-1.248-2.409-.287-.949-.43-2.033-.43-3.251V233.98h2.09v11.743c.024 1.91.411 3.357 1.161 4.341.75.985 1.91 1.477 3.48 1.477 1.583 0 2.866-.363 3.85-1.09.984-.726 1.67-1.71 2.057-2.953l-.018-13.518h2.127V253h-1.969l-.105-2.97zm10.775-16.049l.159 3.569a7.92 7.92 0 012.671-2.839c1.114-.709 2.38-1.07 3.797-1.081 2.086 0 3.68.624 4.781 1.872 1.102 1.248 1.659 3.02 1.67 5.317V253h-2.109v-12.146c-.012-1.747-.41-3.085-1.195-4.017-.785-.932-2.004-1.392-3.657-1.38-.68 0-1.327.111-1.942.334a6.349 6.349 0 00-1.687.914c-.51.387-.961.844-1.354 1.371a7.493 7.493 0 00-.958 1.723V253h-2.11v-19.02h1.934zm26.684-4.869v4.87h7.049v1.722h-7.05v11.97c.013.74.127 1.351.344 1.838.216.486.51.879.879 1.177.369.3.802.513 1.3.642s1.04.193 1.626.193c.586 0 1.187-.04 1.802-.123a29.9 29.9 0 001.573-.246l.317 1.6c-.504.2-1.12.349-1.846.448-.727.1-1.465.15-2.215.15a8.452 8.452 0 01-2.338-.308 4.906 4.906 0 01-1.863-.984c-.527-.452-.943-1.038-1.248-1.758-.305-.72-.463-1.603-.475-2.646v-11.953h-5.29v-1.723h5.29v-4.869h2.145zm20.144-.896l-.28 5.625h-1.6l.07-5.45-.018-2.39H400l-.018 2.215zm5.327 0l-.282 5.625h-1.6l.089-5.45-.018-2.39h1.846l-.035 2.215zm17.806 23.29c0-.491.161-.91.484-1.256.322-.346.758-.519 1.31-.519.562 0 1.004.173 1.326.519.323.346.484.765.484 1.257 0 .492-.161.9-.484 1.222-.322.322-.764.483-1.327.483-.55 0-.987-.161-1.31-.483-.322-.323-.483-.73-.483-1.222zm0-15.398c0-.492.161-.91.484-1.256.322-.346.758-.519 1.31-.519.562 0 1.004.173 1.326.519.323.345.484.764.484 1.256 0 .493-.161.9-.484 1.222-.322.322-.764.483-1.327.483-.55 0-.987-.16-1.31-.483-.322-.322-.483-.73-.483-1.222zM474.18 253h-16.05v-1.617l8.386-9.51a61.42 61.42 0 001.713-2.021c.522-.645.973-1.28 1.354-1.908a9.32 9.32 0 00.888-1.89 6.13 6.13 0 00.316-1.95c0-.774-.129-1.483-.387-2.127a4.757 4.757 0 00-1.098-1.662 5.034 5.034 0 00-1.697-1.08c-.656-.258-1.388-.387-2.197-.387-.902 0-1.705.152-2.408.457a5.208 5.208 0 00-1.784 1.248 5.527 5.527 0 00-1.125 1.872 7.12 7.12 0 00-.413 2.364h-2.11a8.22 8.22 0 01.58-2.988 7.52 7.52 0 011.582-2.461 7.46 7.46 0 012.453-1.67c.955-.41 2.03-.615 3.225-.615 1.125 0 2.148.167 3.068.5.92.335 1.708.81 2.364 1.424a6.31 6.31 0 011.52 2.215c.358.862.536 1.814.536 2.857 0 .844-.149 1.664-.448 2.46a13.148 13.148 0 01-1.16 2.339 19.05 19.05 0 01-1.617 2.214c-.604.715-1.204 1.413-1.802 2.092l-7.154 8.069h13.465V253zm7.84-13.113l1.248-12.48h12.796v2.038h-11.003l-.88 8.56a7.965 7.965 0 012.18-1.027c.82-.252 1.7-.378 2.637-.378 1.16 0 2.209.202 3.147.606a6.757 6.757 0 012.39 1.705c.656.733 1.16 1.606 1.512 2.62.351 1.013.527 2.117.527 3.313 0 1.183-.152 2.29-.457 3.322-.305 1.031-.77 1.93-1.397 2.698a6.628 6.628 0 01-2.373 1.82c-.955.445-2.083.668-3.384.668-1.067 0-2.054-.159-2.962-.475a7.045 7.045 0 01-2.39-1.389 7.11 7.11 0 01-1.67-2.232c-.428-.88-.7-1.875-.818-2.988h2.04c.105.832.31 1.576.614 2.232a5.286 5.286 0 001.196 1.67 5.023 5.023 0 001.74 1.046c.668.24 1.418.36 2.25.36.937 0 1.752-.17 2.443-.51a4.765 4.765 0 001.723-1.415c.457-.603.794-1.312 1.01-2.127.217-.814.326-1.696.326-2.645 0-.89-.132-1.723-.396-2.496a5.925 5.925 0 00-1.151-2.022 5.372 5.372 0 00-1.837-1.353c-.72-.328-1.538-.492-2.452-.492-.54 0-1.034.035-1.485.105-.452.07-.873.185-1.266.343a6.809 6.809 0 00-1.125.58 8.194 8.194 0 00-1.064.817l-1.67-.474zm35.93 2.988c0 1.43-.159 2.78-.475 4.052-.317 1.271-.803 2.382-1.46 3.33a7.267 7.267 0 01-2.495 2.26c-1.008.556-2.21.835-3.604.835-1.383 0-2.581-.279-3.595-.835a7.323 7.323 0 01-2.513-2.26c-.662-.948-1.155-2.059-1.477-3.33a17.012 17.012 0 01-.5-4.052v-5.326c.01-1.43.175-2.78.491-4.052.317-1.271.806-2.388 1.468-3.349a7.282 7.282 0 012.505-2.276c1.008-.557 2.203-.835 3.586-.835 1.394 0 2.598.278 3.612.835a7.21 7.21 0 012.505 2.268c.656.955 1.146 2.07 1.468 3.348.322 1.278.483 2.631.483 4.06v5.327zm-14.01.316c0 .48.017.938.052 1.371l11.549-10.458a10.422 10.422 0 00-.686-2.092 5.717 5.717 0 00-1.133-1.67 5.08 5.08 0 00-1.644-1.108c-.633-.27-1.365-.404-2.197-.404-1.09 0-2.013.229-2.769.686a5.377 5.377 0 00-1.837 1.845c-.468.774-.808 1.664-1.02 2.672a15.412 15.412 0 00-.316 3.164v5.994zm11.9-5.994c0-.386-.018-.767-.053-1.142l-11.496 10.441c.176.727.416 1.4.72 2.022a5.868 5.868 0 001.143 1.608c.457.451.996.806 1.617 1.063.622.258 1.336.387 2.145.387 1.09 0 2.013-.231 2.769-.694a5.378 5.378 0 001.828-1.855c.463-.773.8-1.664 1.01-2.672.211-1.007.317-2.062.317-3.164v-5.994zm23.713 5.678c0 1.43-.158 2.78-.475 4.052-.316 1.271-.803 2.382-1.459 3.33a7.267 7.267 0 01-2.496 2.26c-1.008.556-2.209.835-3.603.835-1.383 0-2.582-.279-3.595-.835a7.323 7.323 0 01-2.514-2.26c-.662-.948-1.154-2.059-1.476-3.33a17.012 17.012 0 01-.501-4.052v-5.326c.011-1.43.175-2.78.492-4.052.316-1.271.805-2.388 1.468-3.349a7.282 7.282 0 012.504-2.276c1.008-.557 2.204-.835 3.586-.835 1.395 0 2.599.278 3.613.835a7.21 7.21 0 012.505 2.268c.656.955 1.145 2.07 1.467 3.348.323 1.278.484 2.631.484 4.06v5.327zm-14.01.316c0 .48.018.938.053 1.371l11.549-10.458a10.422 10.422 0 00-.686-2.092 5.717 5.717 0 00-1.134-1.67 5.08 5.08 0 00-1.643-1.108c-.633-.27-1.366-.404-2.198-.404-1.09 0-2.012.229-2.768.686a5.377 5.377 0 00-1.837 1.845c-.469.774-.809 1.664-1.02 2.672a15.411 15.411 0 00-.316 3.164v5.994zm11.9-5.994c0-.386-.017-.767-.052-1.142l-11.496 10.441c.175.727.416 1.4.72 2.022a5.868 5.868 0 001.143 1.608c.457.451.996.806 1.617 1.063.621.258 1.336.387 2.145.387 1.09 0 2.012-.231 2.768-.694a5.378 5.378 0 001.828-1.855c.463-.773.8-1.664 1.011-2.672.21-1.007.316-2.062.316-3.164v-5.994zm15.381 15.188a7.31 7.31 0 01-.167 1.547 9.206 9.206 0 01-.474 1.529c-.205.504-.46.987-.765 1.45a7.574 7.574 0 01-1.055 1.275l-1.336-.844a8.323 8.323 0 001.547-4.904v-2.743h2.25v2.69zm-304.066 45.83l-.281 5.625h-1.6l.07-5.45-.017-2.39h1.845l-.017 2.215zm5.326 0l-.281 5.625h-1.6l.088-5.45-.018-2.39h1.846l-.035 2.215zm10.09 15.1c0-1.266.158-2.482.474-3.648.317-1.166.789-2.197 1.415-3.094a7.113 7.113 0 012.356-2.144c.943-.533 2.054-.8 3.331-.8 1.207 0 2.288.258 3.243.773a6.88 6.88 0 012.4 2.162V296h2.091v27h-1.968l-.088-2.479a6.768 6.768 0 01-2.461 2.101c-.973.486-2.057.73-3.252.73-1.254 0-2.353-.273-3.296-.818a7.294 7.294 0 01-2.356-2.162c-.626-.896-1.098-1.928-1.415-3.094a13.665 13.665 0 01-.474-3.594v-.37zm2.127.369c0 .949.102 1.892.307 2.83.205.937.537 1.778.994 2.522a5.434 5.434 0 001.793 1.802c.738.457 1.64.685 2.707.685.597 0 1.163-.076 1.696-.228a5.598 5.598 0 002.69-1.696c.357-.405.658-.859.905-1.363v-9.21a6.6 6.6 0 00-.87-1.442 5.831 5.831 0 00-1.187-1.125 5.448 5.448 0 00-3.2-1.002c-1.077 0-1.986.231-2.724.694a5.6 5.6 0 00-1.802 1.81 7.95 7.95 0 00-1.002 2.523c-.205.938-.307 1.881-.307 2.83v.37zm28.23 9.668c-1.324 0-2.531-.247-3.62-.739a8.571 8.571 0 01-2.805-2.004 9.015 9.015 0 01-1.81-2.962 10.398 10.398 0 01-.66-3.612v-.756c.012-1.36.238-2.625.677-3.797.44-1.171 1.04-2.191 1.802-3.058a8.42 8.42 0 012.69-2.048 7.54 7.54 0 013.322-.747c1.266 0 2.385.228 3.357.685a7.074 7.074 0 012.453 1.873 8.281 8.281 0 011.511 2.768 11.18 11.18 0 01.536 3.393v1.283h-14.238v.404c.012.996.182 1.948.51 2.857a7.556 7.556 0 001.389 2.399 6.797 6.797 0 002.162 1.661c.843.416 1.78.624 2.812.624 1.172.012 2.233-.205 3.182-.65a6.68 6.68 0 002.426-1.934l1.336 1.002a7.793 7.793 0 01-1.249 1.362c-.48.416-1.016.771-1.608 1.064a8.942 8.942 0 01-1.942.685 9.8 9.8 0 01-2.233.247zm-.404-17.93c-.856 0-1.64.161-2.356.483a5.858 5.858 0 00-1.88 1.345 7.357 7.357 0 00-1.336 2.03 9.308 9.308 0 00-.721 2.558h12.041v-.229a7.498 7.498 0 00-.43-2.294 6.268 6.268 0 00-1.126-1.977 5.574 5.574 0 00-1.784-1.389c-.703-.351-1.506-.527-2.408-.527zm27.158 12.744c0-.586-.146-1.096-.44-1.53a3.822 3.822 0 00-1.203-1.115 8.037 8.037 0 00-1.767-.783 20.842 20.842 0 00-2.127-.545 28.343 28.343 0 01-2.654-.676 9.947 9.947 0 01-2.285-1.011 5.123 5.123 0 01-1.6-1.503c-.398-.592-.598-1.321-.598-2.189 0-.82.205-1.552.616-2.197a5.51 5.51 0 011.617-1.635 7.639 7.639 0 012.285-1.01 10.173 10.173 0 012.637-.343c1.03 0 1.995.126 2.891.378.897.252 1.682.62 2.356 1.107a5.565 5.565 0 011.608 1.784c.399.704.615 1.506.65 2.409h-2.109a3.276 3.276 0 00-.492-1.644 3.954 3.954 0 00-1.213-1.222 6.068 6.068 0 00-1.714-.755 7.418 7.418 0 00-1.977-.264c-.633 0-1.251.067-1.855.202a5.657 5.657 0 00-1.617.615 3.49 3.49 0 00-1.143 1.037c-.287.416-.43.906-.43 1.468-.012.598.126 1.099.413 1.503.287.404.677.744 1.169 1.02a7.73 7.73 0 001.731.685c.662.182 1.368.349 2.118.501.961.2 1.878.443 2.751.73s1.644.644 2.312 1.072a5.008 5.008 0 011.582 1.573c.387.621.58 1.365.58 2.233 0 .89-.214 1.667-.642 2.329a5.412 5.412 0 01-1.687 1.652 7.954 7.954 0 01-2.39.984c-.897.217-1.82.326-2.77.326-1.066 0-2.07-.13-3.014-.387-.943-.258-1.775-.63-2.496-1.116a5.837 5.837 0 01-1.732-1.785c-.433-.703-.667-1.5-.703-2.39h2.11c.07.75.296 1.377.676 1.88.381.505.85.906 1.407 1.205.556.299 1.163.51 1.82.633.655.123 1.3.184 1.933.184.644 0 1.286-.067 1.924-.202a6.372 6.372 0 001.723-.615c.51-.276.926-.627 1.248-1.055.322-.428.49-.94.501-1.538zm16.049 3.41c.703 0 1.374-.102 2.013-.307a5.38 5.38 0 001.696-.888 4.754 4.754 0 001.204-1.398c.31-.545.49-1.163.536-1.854h2.022a5.691 5.691 0 01-.703 2.496 6.674 6.674 0 01-1.653 1.969c-.68.55-1.459.981-2.338 1.292a8.275 8.275 0 01-2.777.466c-1.395 0-2.607-.264-3.639-.791a7.614 7.614 0 01-2.575-2.11 9.217 9.217 0 01-1.547-3.032 12.224 12.224 0 01-.518-3.56v-.738c0-1.23.173-2.417.518-3.56a9.217 9.217 0 011.547-3.032 7.614 7.614 0 012.575-2.11c1.032-.526 2.239-.79 3.621-.79 1.055 0 2.03.167 2.927.5a7.117 7.117 0 012.338 1.407 6.732 6.732 0 011.573 2.145c.387.826.604 1.731.65 2.715h-2.02a5.115 5.115 0 00-.493-1.986 5.215 5.215 0 00-1.16-1.582 5.143 5.143 0 00-1.696-1.037 5.937 5.937 0 00-2.119-.37c-1.101 0-2.042.224-2.82.669a5.662 5.662 0 00-1.908 1.758 7.65 7.65 0 00-1.081 2.47c-.229.92-.343 1.854-.343 2.803v.738c0 .961.114 1.905.343 2.83a7.54 7.54 0 001.08 2.47 5.697 5.697 0 001.908 1.75c.78.445 1.726.667 2.839.667zm26.473-17.947c.527 0 1.054.032 1.582.097.527.064.966.155 1.318.272l-.264 2.022a16.163 16.163 0 00-1.476-.247 12.78 12.78 0 00-1.512-.087c-1.781 0-3.293.421-4.535 1.265-1.242.844-2.115 2.139-2.62 3.885l.018 12.164h-2.18v-19.02h2.022l.14 3.305v.387a8.423 8.423 0 013.077-2.962c1.277-.72 2.754-1.081 4.43-1.081zm9.51.351h8.824v17.157h6.468V323h-15.293v-1.863h6.715V305.86h-6.715v-1.88zm6.099-5.203c0-.433.123-.808.37-1.125.245-.316.655-.474 1.23-.474.562 0 .97.158 1.221.474.252.317.378.692.378 1.125 0 .41-.126.77-.378 1.081-.252.31-.659.466-1.221.466-.575 0-.985-.155-1.23-.466a1.69 1.69 0 01-.37-1.08zm30.393 14.907c0 1.23-.15 2.428-.449 3.594-.298 1.166-.756 2.198-1.37 3.094a7.148 7.148 0 01-2.33 2.162c-.937.545-2.05.818-3.34.818-1.183 0-2.267-.229-3.252-.686a6.59 6.59 0 01-2.478-1.986v9.632h-2.11V303.98h1.97l.087 2.602a7.053 7.053 0 012.461-2.18c.973-.515 2.068-.773 3.287-.773 1.3 0 2.426.267 3.375.8a6.838 6.838 0 012.338 2.144c.61.897 1.064 1.928 1.362 3.094.3 1.166.449 2.382.449 3.647v.37zm-2.11-.37c0-.949-.105-1.892-.316-2.83a7.976 7.976 0 00-1.02-2.522 5.653 5.653 0 00-1.82-1.81c-.743-.464-1.654-.695-2.732-.695-.61 0-1.181.085-1.714.255-.534.17-1.02.41-1.46.72-.439.311-.831.68-1.177 1.108-.346.428-.636.9-.87 1.415v9.422a5.731 5.731 0 002.11 2.338c.913.574 1.962.861 3.146.861 1.066 0 1.971-.234 2.716-.703a5.653 5.653 0 001.81-1.82c.463-.743.8-1.587 1.01-2.53.212-.944.317-1.89.317-2.84v-.369zm15.346-14.203v4.87h7.049v1.722h-7.05v11.97c.013.74.127 1.351.344 1.838.216.486.51.879.879 1.177.369.3.802.513 1.3.642s1.04.193 1.626.193c.586 0 1.187-.04 1.802-.123a29.9 29.9 0 001.573-.246l.317 1.6c-.504.2-1.12.349-1.846.448-.727.1-1.465.15-2.215.15a8.452 8.452 0 01-2.338-.308 4.906 4.906 0 01-1.863-.984c-.527-.452-.943-1.038-1.248-1.758-.305-.72-.463-1.603-.475-2.646v-11.953h-5.29v-1.723h5.29v-4.869h2.145zm15.082 4.87h8.824v17.156h6.469V323h-15.293v-1.863h6.715V305.86h-6.715v-1.88zm6.1-5.204c0-.433.123-.808.369-1.125.246-.316.656-.474 1.23-.474.563 0 .97.158 1.222.474.252.317.378.692.378 1.125 0 .41-.126.77-.378 1.081-.252.31-.66.466-1.222.466-.574 0-.984-.155-1.23-.466a1.69 1.69 0 01-.37-1.08zm13.921 14.432c.012-1.29.211-2.514.598-3.674.387-1.16.94-2.177 1.661-3.05a7.935 7.935 0 012.655-2.083c1.048-.515 2.235-.773 3.56-.773 1.335 0 2.527.258 3.576.773a8.026 8.026 0 012.663 2.083c.727.873 1.284 1.89 1.67 3.05.387 1.16.586 2.385.598 3.674v.58a12.06 12.06 0 01-.589 3.674c-.38 1.16-.935 2.177-1.661 3.05a7.953 7.953 0 01-2.654 2.074c-1.043.51-2.233.765-3.569.765-1.336 0-2.528-.255-3.577-.765a7.928 7.928 0 01-2.663-2.074c-.727-.873-1.283-1.89-1.67-3.05a11.887 11.887 0 01-.598-3.674v-.58zm2.11.58c0 1.008.14 1.98.422 2.918a7.902 7.902 0 001.23 2.487 6.161 6.161 0 001.995 1.732c.791.433 1.708.65 2.751.65 1.032 0 1.943-.217 2.734-.65a6.07 6.07 0 001.986-1.732c.533-.72.94-1.55 1.222-2.487a10.1 10.1 0 00.422-2.918v-.58c0-.996-.141-1.963-.422-2.9a7.902 7.902 0 00-1.23-2.488 6.228 6.228 0 00-2.005-1.74c-.797-.44-1.71-.66-2.742-.66-1.031 0-1.942.22-2.733.66a6.166 6.166 0 00-1.987 1.74c-.533.721-.94 1.55-1.221 2.488a10.04 10.04 0 00-.422 2.9v.58zm22.517-9.809l.159 3.569a7.92 7.92 0 012.671-2.839c1.114-.709 2.38-1.07 3.797-1.081 2.086 0 3.68.624 4.782 1.872 1.101 1.248 1.658 3.02 1.67 5.317V323h-2.11v-12.146c-.012-1.747-.41-3.085-1.195-4.017-.785-.932-2.004-1.392-3.656-1.38-.68 0-1.328.111-1.943.334a6.349 6.349 0 00-1.687.914c-.51.387-.961.844-1.354 1.371a7.493 7.493 0 00-.958 1.723V323h-2.11v-19.02h1.934zM508 298.215l-.281 5.625h-1.6l.07-5.45-.017-2.39h1.846l-.018 2.215zm5.326 0l-.281 5.625h-1.6l.088-5.45-.017-2.39h1.845l-.035 2.215zm17.807 23.29c0-.491.16-.91.483-1.256.322-.346.759-.519 1.31-.519.562 0 1.005.173 1.327.519.322.346.483.765.483 1.257 0 .492-.16.9-.483 1.222-.322.322-.765.483-1.327.483-.551 0-.988-.161-1.31-.483-.322-.323-.483-.73-.483-1.222zm0-15.398c0-.492.16-.91.483-1.256.322-.346.759-.519 1.31-.519.562 0 1.005.173 1.327.519.322.345.483.764.483 1.256 0 .493-.16.9-.483 1.222-.322.322-.765.483-1.327.483-.551 0-.988-.16-1.31-.483-.322-.322-.483-.73-.483-1.222zm41.678-7.892l-.282 5.625h-1.6l.071-5.45-.018-2.39h1.846l-.017 2.215zm5.326 0l-.282 5.625h-1.6l.089-5.45-.018-2.39h1.846l-.035 2.215zm23.238 17.648h-9.738L589.369 323h-2.127l8.332-25.594h1.899L605.734 323h-2.109l-2.25-7.137zm-9.14-1.88h8.542l-4.254-13.465-4.289 13.464zm33.609-.3c0 1.231-.15 2.43-.448 3.595-.3 1.166-.756 2.198-1.372 3.094a7.148 7.148 0 01-2.329 2.162c-.937.545-2.05.818-3.34.818-1.183 0-2.267-.229-3.251-.686a6.59 6.59 0 01-2.479-1.986v9.632h-2.11V303.98h1.97l.087 2.602a7.053 7.053 0 012.461-2.18c.973-.515 2.069-.773 3.287-.773 1.301 0 2.426.267 3.375.8a6.838 6.838 0 012.338 2.144c.61.897 1.064 1.928 1.363 3.094.298 1.166.448 2.382.448 3.647v.37zm-2.11-.369c0-.949-.105-1.892-.316-2.83a7.976 7.976 0 00-1.02-2.522 5.653 5.653 0 00-1.819-1.81c-.744-.464-1.655-.695-2.733-.695-.61 0-1.181.085-1.714.255-.533.17-1.02.41-1.46.72-.439.311-.831.68-1.177 1.108-.346.428-.636.9-.87 1.415v9.422a5.731 5.731 0 002.11 2.338c.913.574 1.962.861 3.146.861 1.066 0 1.972-.234 2.716-.703a5.653 5.653 0 001.81-1.82c.463-.743.8-1.587 1.011-2.53.21-.944.316-1.89.316-2.84v-.369zm23.713.37c0 1.23-.15 2.428-.448 3.594-.299 1.166-.756 2.198-1.371 3.094a7.148 7.148 0 01-2.33 2.162c-.937.545-2.05.818-3.339.818-1.184 0-2.268-.229-3.252-.686a6.59 6.59 0 01-2.478-1.986v9.632h-2.11V303.98h1.969l.088 2.602a7.053 7.053 0 012.46-2.18c.973-.515 2.07-.773 3.288-.773 1.3 0 2.426.267 3.375.8a6.838 6.838 0 012.338 2.144c.61.897 1.063 1.928 1.362 3.094.299 1.166.448 2.382.448 3.647v.37zm-2.11-.37c0-.949-.105-1.892-.316-2.83a7.976 7.976 0 00-1.019-2.522 5.653 5.653 0 00-1.82-1.81c-.744-.464-1.655-.695-2.733-.695-.61 0-1.18.085-1.714.255-.533.17-1.02.41-1.459.72-.44.311-.832.68-1.177 1.108-.346.428-.636.9-.87 1.415v9.422a5.731 5.731 0 002.109 2.338c.914.574 1.963.861 3.146.861 1.067 0 1.972-.234 2.716-.703a5.653 5.653 0 001.81-1.82c.464-.743.8-1.587 1.011-2.53.211-.944.317-1.89.317-2.84v-.369zM654.163 296h8.86v25.137h6.433V323h-15.293v-1.863h6.75V297.88h-6.75V296zm21.604 7.98h8.824v17.157h6.469V323h-15.293v-1.863h6.714V305.86h-6.714v-1.88zm6.1-5.203c0-.433.122-.808.368-1.125.246-.316.657-.474 1.23-.474.563 0 .97.158 1.223.474.251.317.377.692.377 1.125 0 .41-.126.77-.377 1.081-.252.31-.66.466-1.222.466-.574 0-.985-.155-1.23-.466a1.69 1.69 0 01-.37-1.08zm22.728 22.8c.703 0 1.374-.103 2.012-.308a5.38 5.38 0 001.697-.888 4.754 4.754 0 001.204-1.398c.31-.545.49-1.163.536-1.854h2.021a5.691 5.691 0 01-.703 2.496 6.674 6.674 0 01-1.652 1.969c-.68.55-1.459.981-2.338 1.292a8.275 8.275 0 01-2.777.466c-1.395 0-2.608-.264-3.639-.791a7.614 7.614 0 01-2.575-2.11 9.217 9.217 0 01-1.547-3.032 12.224 12.224 0 01-.519-3.56v-.738c0-1.23.173-2.417.519-3.56a9.217 9.217 0 011.547-3.032 7.614 7.614 0 012.575-2.11c1.031-.526 2.238-.79 3.621-.79 1.055 0 2.03.167 2.927.5a7.117 7.117 0 012.338 1.407 6.732 6.732 0 011.573 2.145c.387.826.604 1.731.65 2.715h-2.021a5.115 5.115 0 00-.492-1.986 5.215 5.215 0 00-1.16-1.582 5.143 5.143 0 00-1.697-1.037 5.937 5.937 0 00-2.118-.37c-1.101 0-2.042.224-2.821.669a5.662 5.662 0 00-1.907 1.758 7.65 7.65 0 00-1.081 2.47c-.229.92-.343 1.854-.343 2.803v.738c0 .961.114 1.905.343 2.83a7.54 7.54 0 001.08 2.47 5.697 5.697 0 001.908 1.75c.78.445 1.725.667 2.839.667zM731.559 323a7.625 7.625 0 01-.3-1.292c-.07-.475-.116-.958-.14-1.45a7.885 7.885 0 01-1.265 1.23c-.481.375-1.005.7-1.574.976a9.077 9.077 0 01-1.837.65 8.747 8.747 0 01-2.056.238c-.89 0-1.72-.13-2.488-.387a6.233 6.233 0 01-2.003-1.09 5.024 5.024 0 01-1.336-1.696c-.323-.662-.484-1.404-.484-2.224 0-1.09.24-2.016.72-2.777a5.544 5.544 0 011.952-1.855c.82-.474 1.77-.823 2.848-1.046a16.74 16.74 0 013.392-.334h4.114v-2.162c-.012-.715-.153-1.344-.422-1.89a3.994 3.994 0 00-1.099-1.37 4.774 4.774 0 00-1.652-.835 7.368 7.368 0 00-2.083-.282c-.68 0-1.327.088-1.943.264a5.514 5.514 0 00-1.634.756c-.475.328-.859.73-1.152 1.204a3.25 3.25 0 00-.474 1.608l-2.11-.017a4.814 4.814 0 01.642-2.233 5.835 5.835 0 011.59-1.766 7.827 7.827 0 012.33-1.17 9.319 9.319 0 012.839-.421c1.007 0 1.954.129 2.838.387.885.257 1.653.644 2.303 1.16a5.57 5.57 0 011.547 1.933c.38.774.577 1.676.589 2.707v9.211c0 .633.056 1.272.167 1.916.111.645.249 1.26.413 1.846l.018.211h-2.25zm-6.944-1.512a7.422 7.422 0 002.118-.263 7.607 7.607 0 001.855-.783 6.77 6.77 0 001.494-1.195c.434-.463.773-.97 1.02-1.52v-4.166h-3.832c-.926 0-1.817.07-2.672.21-.856.141-1.612.373-2.268.695-.656.322-1.18.753-1.573 1.292s-.589 1.213-.589 2.021c0 .575.117 1.09.352 1.547a3.6 3.6 0 00.949 1.17c.398.321.867.567 1.406.737.54.17 1.12.255 1.74.255zm22.483-22.377v4.87h7.048v1.722h-7.048v11.97c.011.74.126 1.351.342 1.838.217.486.51.879.88 1.177.368.3.802.513 1.3.642s1.04.193 1.626.193c.586 0 1.187-.04 1.802-.123a29.9 29.9 0 001.573-.246l.317 1.6c-.504.2-1.12.349-1.846.448-.727.1-1.465.15-2.215.15a8.452 8.452 0 01-2.338-.308 4.906 4.906 0 01-1.863-.984c-.528-.452-.944-1.038-1.248-1.758-.305-.72-.463-1.603-.475-2.646v-11.953h-5.29v-1.723h5.29v-4.869h2.145zm15.082 4.87h8.824v17.156h6.469V323H762.18v-1.863h6.715V305.86h-6.715v-1.88zm6.1-5.204c0-.433.122-.808.368-1.125.247-.316.657-.474 1.23-.474.563 0 .97.158 1.223.474.252.317.378.692.378 1.125 0 .41-.126.77-.378 1.081-.252.31-.66.466-1.222.466-.574 0-.984-.155-1.23-.466a1.69 1.69 0 01-.37-1.08zM782.2 313.21c.012-1.29.211-2.514.598-3.674.387-1.16.94-2.177 1.661-3.05a7.935 7.935 0 012.654-2.083c1.05-.515 2.236-.773 3.56-.773 1.336 0 2.528.258 3.577.773a8.026 8.026 0 012.663 2.083c.727.873 1.283 1.89 1.67 3.05s.586 2.385.598 3.674v.58a12.06 12.06 0 01-.59 3.674c-.38 1.16-.934 2.177-1.66 3.05a7.953 7.953 0 01-2.655 2.074c-1.043.51-2.232.765-3.568.765-1.336 0-2.528-.255-3.577-.765a7.928 7.928 0 01-2.663-2.074c-.727-.873-1.283-1.89-1.67-3.05a11.887 11.887 0 01-.598-3.674v-.58zm2.11.58c0 1.008.14 1.98.421 2.918a7.902 7.902 0 001.23 2.487 6.161 6.161 0 001.996 1.732c.791.433 1.708.65 2.751.65 1.031 0 1.942-.217 2.733-.65a6.07 6.07 0 001.987-1.732c.533-.72.94-1.55 1.221-2.487a10.1 10.1 0 00.422-2.918v-.58c0-.996-.14-1.963-.422-2.9a7.903 7.903 0 00-1.23-2.488 6.228 6.228 0 00-2.004-1.74c-.797-.44-1.71-.66-2.742-.66-1.031 0-1.943.22-2.734.66a6.166 6.166 0 00-1.986 1.74c-.533.721-.94 1.55-1.222 2.488a10.04 10.04 0 00-.421 2.9v.58zm22.517-9.809l.158 3.569a7.92 7.92 0 012.672-2.839c1.113-.709 2.38-1.07 3.797-1.081 2.086 0 3.68.624 4.781 1.872 1.102 1.248 1.659 3.02 1.67 5.317V323h-2.11v-12.146c-.01-1.747-.41-3.085-1.194-4.017-.786-.932-2.004-1.392-3.657-1.38-.68 0-1.327.111-1.942.334a6.349 6.349 0 00-1.688.914c-.51.387-.96.844-1.353 1.371a7.493 7.493 0 00-.958 1.723V323h-2.11v-19.02h1.934zm55.951 1.723h-7.576l.035 17.297h-2.18l.018-17.297h-5.185v-1.723h5.203v-1.511c.011-1.301.214-2.397.606-3.287.393-.891.926-1.615 1.6-2.171a6.144 6.144 0 012.355-1.196c.897-.24 1.855-.36 2.874-.36.668 0 1.319.041 1.951.123.633.082 1.278.2 1.934.352l-.264 1.793a14.314 14.314 0 00-1.6-.317 12.802 12.802 0 00-1.81-.123 8.86 8.86 0 00-2.136.246 4.613 4.613 0 00-1.749.835c-.503.393-.902.923-1.195 1.591-.293.668-.445 1.506-.457 2.514v1.511h7.576v1.723zm15.065 17.649c-1.324 0-2.531-.247-3.621-.739a8.571 8.571 0 01-2.804-2.004 9.015 9.015 0 01-1.81-2.962 10.398 10.398 0 01-.66-3.612v-.756c.012-1.36.238-2.625.677-3.797.44-1.171 1.04-2.191 1.802-3.058a8.42 8.42 0 012.69-2.048 7.54 7.54 0 013.321-.747c1.266 0 2.385.228 3.358.685a7.074 7.074 0 012.452 1.873 8.281 8.281 0 011.512 2.768 11.18 11.18 0 01.536 3.393v1.283h-14.238v.404c.011.996.181 1.948.51 2.857a7.556 7.556 0 001.388 2.399 6.797 6.797 0 002.162 1.661c.844.416 1.781.624 2.813.624 1.172.012 2.232-.205 3.181-.65a6.68 6.68 0 002.426-1.934l1.336 1.002a7.793 7.793 0 01-1.248 1.362c-.48.416-1.017.771-1.608 1.064a8.942 8.942 0 01-1.943.685 9.8 9.8 0 01-2.232.247zm-.405-17.93c-.855 0-1.64.161-2.355.483a5.858 5.858 0 00-1.88 1.345 7.357 7.357 0 00-1.337 2.03 9.308 9.308 0 00-.72 2.558h12.04v-.229a7.498 7.498 0 00-.43-2.294 6.268 6.268 0 00-1.125-1.977 5.574 5.574 0 00-1.784-1.389c-.703-.351-1.506-.527-2.409-.527zm22.008 17.93c-1.324 0-2.531-.247-3.62-.739a8.571 8.571 0 01-2.805-2.004 9.015 9.015 0 01-1.81-2.962 10.398 10.398 0 01-.66-3.612v-.756c.012-1.36.238-2.625.677-3.797.44-1.171 1.04-2.191 1.802-3.058a8.42 8.42 0 012.69-2.048 7.54 7.54 0 013.322-.747c1.266 0 2.385.228 3.357.685a7.074 7.074 0 012.453 1.873 8.281 8.281 0 011.511 2.768 11.18 11.18 0 01.536 3.393v1.283h-14.238v.404c.012.996.182 1.948.51 2.857a7.556 7.556 0 001.389 2.399 6.797 6.797 0 002.162 1.661c.843.416 1.78.624 2.812.624 1.172.012 2.233-.205 3.182-.65a6.68 6.68 0 002.426-1.934l1.336 1.002a7.793 7.793 0 01-1.249 1.362c-.48.416-1.016.771-1.608 1.064a8.942 8.942 0 01-1.942.685 9.8 9.8 0 01-2.233.247zm-.404-17.93c-.856 0-1.64.161-2.356.483a5.858 5.858 0 00-1.88 1.345 7.357 7.357 0 00-1.336 2.03 9.308 9.308 0 00-.721 2.558h12.041v-.229a7.498 7.498 0 00-.43-2.294 6.268 6.268 0 00-1.126-1.977 5.574 5.574 0 00-1.784-1.389c-.703-.351-1.506-.527-2.408-.527zm19.441-7.207l-.28 5.625h-1.6l.07-5.45-.018-2.39h1.846l-.018 2.215zm5.327 0l-.282 5.625h-1.6l.089-5.45L922 296h1.846l-.035 2.215zm17.894 24.17a7.31 7.31 0 01-.167 1.547 9.206 9.206 0 01-.475 1.529c-.205.504-.46.987-.764 1.45a7.574 7.574 0 01-1.055 1.275l-1.336-.844a8.323 8.323 0 001.547-4.904v-2.743h2.25v2.69zm-692.947 45.83l-.281 5.625h-1.6l.07-5.45-.017-2.39h1.845l-.017 2.215zm5.326 0l-.281 5.625h-1.6l.088-5.45-.018-2.39h1.846l-.035 2.215zm23.309 5.414c.527 0 1.054.032 1.582.097.527.064.966.155 1.318.272l-.264 2.022a16.163 16.163 0 00-1.476-.247 12.78 12.78 0 00-1.512-.087c-1.781 0-3.293.421-4.535 1.265-1.242.844-2.115 2.139-2.62 3.885l.018 12.164h-2.18v-19.02h2.022l.14 3.305v.387a8.423 8.423 0 013.077-2.962c1.277-.72 2.754-1.081 4.43-1.081zm17.138 19.723c-1.324 0-2.531-.247-3.62-.739a8.571 8.571 0 01-2.805-2.004 9.015 9.015 0 01-1.81-2.962 10.398 10.398 0 01-.66-3.612v-.756c.012-1.36.238-2.625.677-3.797.44-1.171 1.04-2.191 1.802-3.058a8.42 8.42 0 012.69-2.048 7.54 7.54 0 013.322-.747c1.266 0 2.385.228 3.357.685a7.074 7.074 0 012.453 1.873 8.281 8.281 0 011.511 2.768 11.18 11.18 0 01.536 3.393v1.283h-14.238v.404c.012.996.182 1.948.51 2.857a7.556 7.556 0 001.389 2.399 6.797 6.797 0 002.162 1.661c.843.416 1.78.624 2.812.624 1.172.012 2.233-.205 3.182-.65a6.68 6.68 0 002.426-1.934l1.336 1.002a7.793 7.793 0 01-1.249 1.362c-.48.416-1.016.771-1.608 1.064a8.942 8.942 0 01-1.942.685 9.8 9.8 0 01-2.233.247zm-.404-17.93c-.856 0-1.64.161-2.356.483a5.858 5.858 0 00-1.88 1.345 7.357 7.357 0 00-1.336 2.03 9.308 9.308 0 00-.721 2.558h12.041v-.229a7.498 7.498 0 00-.43-2.294 6.268 6.268 0 00-1.126-1.977 5.574 5.574 0 00-1.784-1.389c-.703-.351-1.506-.527-2.408-.527zm28.564.281h-7.576L315.15 393h-2.18l.018-17.297h-5.185v-1.723h5.203v-1.511c.012-1.301.214-2.397.606-3.287.393-.891.926-1.615 1.6-2.171a6.144 6.144 0 012.355-1.196c.897-.24 1.855-.36 2.874-.36.668 0 1.319.041 1.952.123.632.082 1.277.2 1.933.352l-.264 1.793a14.314 14.314 0 00-1.6-.317 12.802 12.802 0 00-1.81-.123 8.86 8.86 0 00-2.135.246 4.613 4.613 0 00-1.75.835c-.503.393-.902.923-1.195 1.591-.293.668-.445 1.506-.457 2.514v1.511h7.576v1.723zm15.065 17.649c-1.324 0-2.531-.247-3.621-.739a8.571 8.571 0 01-2.804-2.004 9.015 9.015 0 01-1.81-2.962 10.398 10.398 0 01-.66-3.612v-.756c.012-1.36.238-2.625.677-3.797.44-1.171 1.04-2.191 1.802-3.058a8.42 8.42 0 012.69-2.048 7.54 7.54 0 013.322-.747c1.265 0 2.384.228 3.357.685a7.074 7.074 0 012.452 1.873 8.281 8.281 0 011.512 2.768 11.18 11.18 0 01.536 3.393v1.283h-14.238v.404c.011.996.181 1.948.51 2.857a7.556 7.556 0 001.388 2.399 6.797 6.797 0 002.162 1.661c.844.416 1.781.624 2.813.624 1.172.012 2.232-.205 3.181-.65a6.68 6.68 0 002.426-1.934l1.336 1.002a7.793 7.793 0 01-1.248 1.362c-.48.416-1.017.771-1.608 1.064a8.942 8.942 0 01-1.943.685 9.8 9.8 0 01-2.232.247zm-.404-17.93c-.856 0-1.641.161-2.356.483a5.858 5.858 0 00-1.88 1.345 7.357 7.357 0 00-1.337 2.03 9.308 9.308 0 00-.72 2.558h12.04v-.229a7.498 7.498 0 00-.43-2.294 6.268 6.268 0 00-1.125-1.977 5.574 5.574 0 00-1.784-1.389c-.703-.351-1.506-.527-2.408-.527zm26.472-1.793c.528 0 1.055.032 1.582.097.528.064.967.155 1.319.272l-.264 2.022a16.163 16.163 0 00-1.477-.247 12.78 12.78 0 00-1.511-.087c-1.782 0-3.293.421-4.536 1.265-1.242.844-2.115 2.139-2.619 3.885l.018 12.164h-2.18v-19.02h2.022l.14 3.305v.387a8.423 8.423 0 013.077-2.962c1.277-.72 2.753-1.081 4.43-1.081zm17.139 19.723c-1.324 0-2.531-.247-3.621-.739a8.571 8.571 0 01-2.804-2.004 9.015 9.015 0 01-1.81-2.962 10.398 10.398 0 01-.66-3.612v-.756c.012-1.36.238-2.625.677-3.797.44-1.171 1.04-2.191 1.802-3.058a8.42 8.42 0 012.69-2.048 7.54 7.54 0 013.322-.747c1.265 0 2.384.228 3.357.685a7.074 7.074 0 012.452 1.873 8.281 8.281 0 011.512 2.768 11.18 11.18 0 01.536 3.393v1.283h-14.238v.404c.011.996.181 1.948.51 2.857a7.556 7.556 0 001.388 2.399 6.797 6.797 0 002.162 1.661c.844.416 1.782.624 2.813.624 1.172.012 2.232-.205 3.181-.65a6.68 6.68 0 002.426-1.934l1.336 1.002a7.793 7.793 0 01-1.248 1.362c-.48.416-1.017.771-1.608 1.064a8.942 8.942 0 01-1.943.685 9.8 9.8 0 01-2.232.247zm-.404-17.93c-.856 0-1.641.161-2.356.483a5.858 5.858 0 00-1.88 1.345 7.357 7.357 0 00-1.337 2.03 9.308 9.308 0 00-.72 2.558h12.04v-.229a7.498 7.498 0 00-.43-2.294 6.268 6.268 0 00-1.125-1.977 5.574 5.574 0 00-1.784-1.389c-.703-.351-1.506-.527-2.408-.527zm15.82-1.442l.158 3.569a7.92 7.92 0 012.672-2.839c1.113-.709 2.379-1.07 3.797-1.081 2.086 0 3.68.624 4.781 1.872 1.102 1.248 1.658 3.02 1.67 5.317V393h-2.11v-12.146c-.011-1.747-.41-3.085-1.195-4.017-.785-.932-2.004-1.392-3.656-1.38-.68 0-1.327.111-1.942.334a6.349 6.349 0 00-1.688.914c-.51.387-.96.844-1.353 1.371a7.493 7.493 0 00-.958 1.723V393h-2.11v-19.02h1.934zm27.387 17.596c.703 0 1.374-.102 2.012-.307a5.38 5.38 0 001.697-.888 4.754 4.754 0 001.204-1.398c.31-.545.489-1.163.536-1.854h2.021a5.691 5.691 0 01-.703 2.496 6.674 6.674 0 01-1.652 1.969c-.68.55-1.46.981-2.338 1.292a8.275 8.275 0 01-2.777.466c-1.395 0-2.608-.264-3.639-.791a7.614 7.614 0 01-2.575-2.11 9.217 9.217 0 01-1.547-3.032 12.224 12.224 0 01-.519-3.56v-.738c0-1.23.173-2.417.519-3.56a9.217 9.217 0 011.547-3.032 7.614 7.614 0 012.575-2.11c1.031-.526 2.238-.79 3.621-.79 1.055 0 2.03.167 2.927.5a7.117 7.117 0 012.338 1.407 6.732 6.732 0 011.573 2.145c.387.826.603 1.731.65 2.715h-2.021a5.115 5.115 0 00-.492-1.986 5.215 5.215 0 00-1.16-1.582 5.143 5.143 0 00-1.697-1.037 5.937 5.937 0 00-2.118-.37c-1.102 0-2.042.224-2.821.669a5.662 5.662 0 00-1.907 1.758 7.65 7.65 0 00-1.082 2.47c-.228.92-.342 1.854-.342 2.803v.738c0 .961.114 1.905.342 2.83a7.54 7.54 0 001.082 2.47 5.697 5.697 0 001.907 1.75c.78.445 1.725.667 2.839.667zm22.007 1.776c-1.324 0-2.53-.247-3.62-.739a8.571 8.571 0 01-2.804-2.004 9.015 9.015 0 01-1.81-2.962 10.398 10.398 0 01-.66-3.612v-.756c.012-1.36.237-2.625.677-3.797.44-1.171 1.04-2.191 1.801-3.058a8.42 8.42 0 012.69-2.048 7.54 7.54 0 013.322-.747c1.266 0 2.385.228 3.358.685a7.074 7.074 0 012.452 1.873 8.281 8.281 0 011.511 2.768 11.18 11.18 0 01.537 3.393v1.283h-14.239v.404c.012.996.182 1.948.51 2.857a7.556 7.556 0 001.389 2.399 6.797 6.797 0 002.162 1.661c.844.416 1.781.624 2.812.624 1.172.012 2.233-.205 3.182-.65a6.68 6.68 0 002.426-1.934l1.336 1.002a7.793 7.793 0 01-1.248 1.362c-.48.416-1.017.771-1.609 1.064a8.942 8.942 0 01-1.942.685 9.8 9.8 0 01-2.233.247zm-.404-17.93c-.855 0-1.64.161-2.355.483a5.858 5.858 0 00-1.881 1.345 7.357 7.357 0 00-1.336 2.03 9.308 9.308 0 00-.72 2.558h12.04v-.229a7.498 7.498 0 00-.43-2.294 6.268 6.268 0 00-1.125-1.977 5.574 5.574 0 00-1.785-1.389c-.703-.351-1.506-.527-2.408-.527zm19.442-7.207l-.282 5.625h-1.6l.071-5.45-.018-2.39h1.846l-.017 2.215zm5.326 0l-.282 5.625h-1.6l.089-5.45-.018-2.39h1.846l-.035 2.215zm17.806 23.29c0-.491.161-.91.484-1.256.322-.346.759-.519 1.31-.519.562 0 1.004.173 1.326.519.323.346.484.765.484 1.257 0 .492-.161.9-.484 1.222-.322.322-.764.483-1.327.483-.55 0-.987-.161-1.31-.483-.322-.323-.483-.73-.483-1.222zm0-15.398c0-.492.161-.91.484-1.256.322-.346.759-.519 1.31-.519.562 0 1.004.173 1.326.519.323.345.484.764.484 1.256 0 .493-.161.9-.484 1.222-.322.322-.764.483-1.327.483-.55 0-.987-.16-1.31-.483-.322-.322-.483-.73-.483-1.222zm41.678-7.892l-.281 5.625h-1.6l.07-5.45-.017-2.39h1.846l-.018 2.215zm5.326 0l-.281 5.625h-1.6l.088-5.45-.017-2.39h1.845l-.035 2.215zm23.239 17.648h-9.739L546.18 393h-2.127l8.332-25.594h1.898L562.545 393h-2.11l-2.25-7.137zm-9.141-1.88h8.543l-4.254-13.465-4.29 13.464zm31.957-2.936h-11.32V393h-2.11v-25.594h15.135v1.846h-13.025v9.95h11.32v1.845zM598.527 393h-2.109v-22.94l-7.084 3.042v-1.987l8.895-3.709h.298V393zm26.895 0h-16.049v-1.617l8.385-9.51a61.42 61.42 0 001.714-2.021c.521-.645.972-1.28 1.353-1.908a9.32 9.32 0 00.888-1.89 6.13 6.13 0 00.316-1.95c0-.774-.129-1.483-.386-2.127a4.757 4.757 0 00-1.1-1.662 5.034 5.034 0 00-1.695-1.08c-.657-.258-1.389-.387-2.198-.387-.902 0-1.705.152-2.408.457a5.208 5.208 0 00-1.784 1.248 5.527 5.527 0 00-1.125 1.872 7.12 7.12 0 00-.413 2.364h-2.11a8.22 8.22 0 01.58-2.988 7.52 7.52 0 011.583-2.461 7.46 7.46 0 012.452-1.67c.955-.41 2.03-.615 3.225-.615 1.125 0 2.148.167 3.068.5.92.335 1.708.81 2.364 1.424a6.31 6.31 0 011.52 2.215c.358.862.537 1.814.537 2.857 0 .844-.15 1.664-.449 2.46a13.148 13.148 0 01-1.16 2.339 19.05 19.05 0 01-1.617 2.214 137.3 137.3 0 01-1.802 2.092l-7.154 8.069h13.465V393zm10.336-13.94h2.127a8.286 8.286 0 002.32-.351 5.91 5.91 0 001.907-.967 4.636 4.636 0 001.292-1.547c.317-.61.475-1.312.475-2.11 0-.831-.129-1.572-.387-2.223a4.536 4.536 0 00-1.09-1.643 4.707 4.707 0 00-1.696-1.02c-.662-.234-1.397-.351-2.206-.351-.809 0-1.553.126-2.232.378a5.31 5.31 0 00-1.767 1.063 4.92 4.92 0 00-1.178 1.661c-.287.65-.436 1.374-.448 2.171h-2.11a7.084 7.084 0 01.625-2.804 6.99 6.99 0 011.608-2.24 7.365 7.365 0 012.426-1.486c.937-.358 1.963-.536 3.076-.536 1.09 0 2.092.16 3.006.483a6.838 6.838 0 012.364 1.389 6.222 6.222 0 011.547 2.223c.37.88.554 1.881.554 3.006 0 .633-.103 1.24-.308 1.82a5.746 5.746 0 01-.888 1.617 6.653 6.653 0 01-1.406 1.336 7.644 7.644 0 01-1.846.958c1.594.445 2.813 1.21 3.657 2.294.843 1.084 1.265 2.376 1.265 3.876 0 1.148-.202 2.173-.606 3.076a6.558 6.558 0 01-1.67 2.285 7.499 7.499 0 01-2.496 1.433 9.282 9.282 0 01-3.085.5 9.784 9.784 0 01-3.164-.5 7.834 7.834 0 01-2.584-1.442 6.877 6.877 0 01-1.758-2.294c-.434-.902-.662-1.922-.686-3.058h2.092c.024.843.194 1.605.51 2.285.316.68.747 1.26 1.292 1.74s1.184.85 1.916 1.107a7.125 7.125 0 002.382.387c.832 0 1.602-.117 2.311-.351a5.096 5.096 0 001.829-1.038 4.717 4.717 0 001.195-1.705c.287-.68.43-1.464.43-2.355 0-.938-.172-1.737-.518-2.4a4.586 4.586 0 00-1.398-1.625c-.585-.422-1.271-.733-2.056-.932a10.7 10.7 0 00-2.496-.316h-2.127v-1.793zm30.146 5.696h4.008v1.775h-4.008V393h-2.091v-6.469H651.77v-1.195l11.83-17.93h2.303v17.35zm-11.601 0h9.51V370.06l-1.002 1.775-8.508 12.92zm22.166-4.87l1.248-12.48h12.797v2.04H679.51l-.88 8.56a7.965 7.965 0 012.18-1.028c.82-.252 1.7-.378 2.637-.378 1.16 0 2.21.202 3.147.606a6.757 6.757 0 012.39 1.705c.657.733 1.16 1.606 1.512 2.62.352 1.013.527 2.117.527 3.313 0 1.183-.152 2.29-.457 3.322-.304 1.031-.77 1.93-1.397 2.698a6.628 6.628 0 01-2.373 1.82c-.955.445-2.083.668-3.384.668-1.066 0-2.054-.159-2.962-.475a7.045 7.045 0 01-2.39-1.389 7.11 7.11 0 01-1.67-2.232c-.428-.88-.7-1.875-.818-2.988h2.04c.105.832.31 1.576.615 2.232a5.286 5.286 0 001.195 1.67 5.023 5.023 0 001.74 1.046c.668.24 1.418.36 2.25.36.938 0 1.752-.17 2.443-.51a4.765 4.765 0 001.723-1.415c.457-.603.794-1.312 1.01-2.127.218-.814.326-1.696.326-2.645 0-.89-.132-1.723-.395-2.496a5.926 5.926 0 00-1.152-2.022 5.372 5.372 0 00-1.837-1.353c-.72-.328-1.538-.492-2.452-.492-.539 0-1.034.035-1.485.105-.451.07-.873.185-1.266.343a6.809 6.809 0 00-1.125.58 8.194 8.194 0 00-1.063.817l-1.67-.474zm25.98-11.671l-.281 5.625h-1.6l.07-5.45-.017-2.39h1.846l-.018 2.215zm5.326 0l-.28 5.625h-1.6l.087-5.45-.017-2.39h1.846l-.036 2.215zm17.895 24.17a7.31 7.31 0 01-.167 1.547 9.206 9.206 0 01-.475 1.529c-.205.504-.46.987-.764 1.45a7.574 7.574 0 01-1.055 1.275l-1.336-.844a8.323 8.323 0 001.547-4.904v-2.743h2.25v2.69zm-476.912 45.83l-.281 5.625h-1.6l.07-5.45-.017-2.39h1.845l-.017 2.215zm5.326 0l-.281 5.625h-1.6l.088-5.45-.018-2.39h1.846l-.035 2.215zm23.309 5.414c.527 0 1.054.032 1.582.097.527.064.966.155 1.318.272l-.264 2.022a16.163 16.163 0 00-1.476-.247 12.78 12.78 0 00-1.512-.087c-1.781 0-3.293.421-4.535 1.265-1.242.844-2.115 2.139-2.62 3.885l.018 12.164h-2.18v-19.02h2.022l.14 3.305v.387a8.423 8.423 0 013.077-2.962c1.277-.72 2.754-1.081 4.43-1.081zm17.138 19.723c-1.324 0-2.531-.247-3.62-.739a8.571 8.571 0 01-2.805-2.004 9.015 9.015 0 01-1.81-2.962 10.398 10.398 0 01-.66-3.612v-.756c.012-1.36.238-2.625.677-3.797.44-1.171 1.04-2.191 1.802-3.058a8.42 8.42 0 012.69-2.048 7.54 7.54 0 013.322-.747c1.266 0 2.385.228 3.357.685a7.074 7.074 0 012.453 1.873 8.281 8.281 0 011.511 2.768 11.18 11.18 0 01.536 3.393v1.283h-14.238v.404c.012.996.182 1.948.51 2.857a7.556 7.556 0 001.389 2.399 6.797 6.797 0 002.162 1.661c.843.416 1.78.624 2.812.624 1.172.012 2.233-.205 3.182-.65a6.68 6.68 0 002.426-1.934l1.336 1.002a7.793 7.793 0 01-1.249 1.362c-.48.416-1.016.771-1.608 1.064a8.942 8.942 0 01-1.942.685 9.8 9.8 0 01-2.233.247zm-.404-17.93c-.856 0-1.64.161-2.356.483a5.858 5.858 0 00-1.88 1.345 7.357 7.357 0 00-1.336 2.03 9.308 9.308 0 00-.721 2.558h12.041v-.229a7.498 7.498 0 00-.43-2.294 6.268 6.268 0 00-1.126-1.977 5.574 5.574 0 00-1.784-1.389c-.703-.351-1.506-.527-2.408-.527zm20.9-6.31v4.868h7.05v1.723h-7.05v11.97c.012.74.126 1.351.343 1.838.217.486.51.879.879 1.177.37.3.803.513 1.3.642.499.129 1.04.193 1.627.193.586 0 1.186-.04 1.802-.123a29.9 29.9 0 001.573-.246l.316 1.6c-.504.2-1.119.349-1.846.448-.726.1-1.464.15-2.214.15a8.452 8.452 0 01-2.338-.308 4.906 4.906 0 01-1.864-.984c-.527-.452-.943-1.038-1.248-1.758-.304-.72-.462-1.603-.474-2.646v-11.953h-5.291v-1.723h5.29v-4.869h2.145zm27.352 20.917a6.81 6.81 0 01-2.505 2.444c-1.037.586-2.265.879-3.683.879-1.054 0-1.983-.17-2.786-.51a5.243 5.243 0 01-2.021-1.494c-.545-.657-.961-1.46-1.248-2.409-.287-.949-.43-2.033-.43-3.252V443.98h2.09v11.743c.024 1.91.411 3.357 1.161 4.341.75.985 1.91 1.477 3.48 1.477 1.583 0 2.866-.363 3.85-1.09.984-.726 1.67-1.71 2.057-2.953l-.018-13.518h2.127V463h-1.969l-.105-2.97zm21.428-16.4c.527 0 1.054.032 1.582.097.527.064.966.155 1.318.272l-.264 2.022a16.163 16.163 0 00-1.476-.247 12.78 12.78 0 00-1.512-.087c-1.781 0-3.293.421-4.535 1.265-1.242.844-2.115 2.139-2.62 3.885l.018 12.164h-2.18v-19.02h2.022l.14 3.305v.387a8.423 8.423 0 013.077-2.962c1.277-.72 2.754-1.081 4.43-1.081zm10.95.351l.159 3.569a7.92 7.92 0 012.672-2.839c1.113-.709 2.379-1.07 3.797-1.081 2.086 0 3.68.624 4.781 1.872 1.102 1.248 1.658 3.02 1.67 5.317V463h-2.11v-12.146c-.011-1.747-.41-3.085-1.195-4.017-.785-.932-2.004-1.392-3.656-1.38-.68 0-1.327.111-1.942.334a6.349 6.349 0 00-1.688.914c-.51.387-.96.844-1.353 1.371a7.493 7.493 0 00-.958 1.723V463h-2.11v-19.02h1.934zm34.805 20.795h-15.486V463h15.486v1.775zm19.231-4.746a6.81 6.81 0 01-2.505 2.444c-1.037.586-2.265.879-3.683.879-1.054 0-1.983-.17-2.786-.51a5.243 5.243 0 01-2.021-1.494c-.545-.657-.961-1.46-1.248-2.409-.287-.949-.43-2.033-.43-3.252V443.98h2.09v11.743c.024 1.91.411 3.357 1.161 4.341.75.985 1.91 1.477 3.48 1.477 1.583 0 2.866-.363 3.85-1.09.985-.726 1.67-1.71 2.057-2.953l-.018-13.518h2.127V463h-1.969l-.105-2.97zm21.428-16.4c.527 0 1.054.032 1.582.097.527.064.967.155 1.318.272l-.264 2.022a16.163 16.163 0 00-1.476-.247 12.78 12.78 0 00-1.512-.087c-1.781 0-3.293.421-4.535 1.265-1.242.844-2.115 2.139-2.62 3.885l.018 12.164h-2.18v-19.02h2.022l.14 3.305v.387a8.423 8.423 0 013.077-2.962c1.277-.72 2.754-1.081 4.43-1.081zm9.51-7.629h8.859v25.137h6.433V463H459.73v-1.863h6.75V437.88h-6.75V436zm26.665 2.215l-.28 5.625h-1.6l.07-5.45-.018-2.39h1.846l-.018 2.215zm5.327 0l-.282 5.625h-1.6l.089-5.45-.018-2.39h1.846l-.035 2.215zm17.806 23.29c0-.491.161-.91.484-1.256.322-.346.758-.519 1.31-.519.562 0 1.004.173 1.326.519.323.346.484.765.484 1.257 0 .492-.161.9-.484 1.222-.322.322-.764.483-1.327.483-.55 0-.987-.161-1.31-.483-.322-.323-.483-.73-.483-1.222zm0-15.398c0-.492.161-.91.484-1.256.322-.346.758-.519 1.31-.519.562 0 1.004.173 1.326.519.323.345.484.764.484 1.256 0 .493-.161.9-.484 1.222-.322.322-.764.483-1.327.483-.55 0-.987-.16-1.31-.483-.322-.322-.483-.73-.483-1.222zm41.678-7.892l-.281 5.625h-1.6l.07-5.45-.017-2.39h1.846l-.018 2.215zm5.326 0l-.281 5.625h-1.6l.088-5.45-.017-2.39h1.845l-.035 2.215zm12.832 9.44c.668-1.22 1.559-2.192 2.672-2.919 1.113-.726 2.385-1.095 3.815-1.107 1.043 0 1.965.161 2.768.483a5.285 5.285 0 012.022 1.407c.545.615.96 1.37 1.248 2.267.287.897.43 1.92.43 3.068V463h-2.11v-12.146c0-.844-.099-1.6-.298-2.268-.2-.668-.5-1.233-.905-1.696a3.942 3.942 0 00-1.52-1.064c-.61-.246-1.325-.369-2.145-.369-.668 0-1.307.105-1.916.316-.61.211-1.172.504-1.688.88a7.042 7.042 0 00-1.38 1.326 7.206 7.206 0 00-.993 1.68V463h-2.11v-27h2.11v11.654zm26.508-8.544v4.87h7.049v1.722h-7.049v11.97c.012.74.126 1.351.343 1.838.217.486.51.879.879 1.177.369.3.802.513 1.3.642.499.129 1.04.193 1.626.193.586 0 1.187-.04 1.802-.123a29.9 29.9 0 001.573-.246l.317 1.6c-.504.2-1.12.349-1.846.448-.726.1-1.465.15-2.215.15a8.452 8.452 0 01-2.338-.308 4.906 4.906 0 01-1.863-.984c-.527-.452-.943-1.038-1.248-1.758-.305-.72-.463-1.603-.474-2.646v-11.953h-5.292v-1.723h5.292v-4.869h2.144zm21.604 0v4.87h7.048v1.722h-7.048v11.97c.011.74.126 1.351.342 1.838.217.486.51.879.88 1.177.368.3.802.513 1.3.642s1.04.193 1.626.193c.586 0 1.187-.04 1.802-.123a29.9 29.9 0 001.573-.246l.316 1.6c-.504.2-1.119.349-1.845.448-.727.1-1.465.15-2.215.15a8.452 8.452 0 01-2.338-.308 4.906 4.906 0 01-1.863-.984c-.528-.452-.944-1.038-1.248-1.758-.305-.72-.463-1.603-.475-2.646v-11.953h-5.291v-1.723h5.291v-4.869h2.145zm29.97 14.573c0 1.23-.15 2.428-.448 3.594-.299 1.166-.756 2.198-1.371 3.094a7.148 7.148 0 01-2.33 2.162c-.937.545-2.05.818-3.339.818-1.184 0-2.268-.229-3.252-.686a6.59 6.59 0 01-2.478-1.986v9.632h-2.11V443.98h1.969l.088 2.602a7.053 7.053 0 012.46-2.18c.973-.515 2.07-.773 3.288-.773 1.3 0 2.426.267 3.375.8a6.838 6.838 0 012.338 2.144c.61.897 1.063 1.928 1.362 3.094.299 1.166.448 2.382.448 3.647v.37zm-2.11-.37c0-.949-.105-1.892-.316-2.83a7.976 7.976 0 00-1.019-2.522 5.653 5.653 0 00-1.82-1.81c-.744-.464-1.655-.695-2.733-.695-.61 0-1.18.085-1.714.255-.533.17-1.02.41-1.459.72-.44.311-.832.68-1.177 1.108-.346.428-.636.9-.87 1.415v9.422a5.731 5.731 0 002.109 2.338c.914.574 1.963.861 3.146.861 1.067 0 1.972-.234 2.716-.703a5.653 5.653 0 001.81-1.82c.464-.743.8-1.587 1.011-2.53.211-.944.317-1.89.317-2.84v-.369zm21.604 4.852c0-.586-.146-1.096-.439-1.53a3.822 3.822 0 00-1.204-1.115 8.037 8.037 0 00-1.767-.783 20.842 20.842 0 00-2.127-.545 28.343 28.343 0 01-2.654-.676 9.947 9.947 0 01-2.285-1.011 5.123 5.123 0 01-1.6-1.503c-.398-.592-.597-1.321-.597-2.189 0-.82.205-1.552.615-2.197a5.51 5.51 0 011.617-1.635 7.639 7.639 0 012.285-1.01 10.173 10.173 0 012.637-.343c1.031 0 1.995.126 2.891.378.897.252 1.682.62 2.356 1.107a5.565 5.565 0 011.608 1.784c.399.704.616 1.506.65 2.409h-2.109a3.276 3.276 0 00-.492-1.644 3.954 3.954 0 00-1.213-1.222 6.068 6.068 0 00-1.714-.755 7.418 7.418 0 00-1.977-.264c-.633 0-1.251.067-1.855.202a5.657 5.657 0 00-1.617.615 3.49 3.49 0 00-1.142 1.037c-.287.416-.431.906-.431 1.468-.012.598.126 1.099.413 1.503.287.404.677.744 1.169 1.02a7.73 7.73 0 001.731.685c.663.182 1.369.349 2.119.501.96.2 1.878.443 2.75.73.874.287 1.644.644 2.312 1.072a5.008 5.008 0 011.582 1.573c.387.621.58 1.365.58 2.233 0 .89-.214 1.667-.641 2.329a5.412 5.412 0 01-1.688 1.652 7.954 7.954 0 01-2.39.984c-.897.217-1.82.326-2.77.326-1.065 0-2.07-.13-3.014-.387-.943-.258-1.775-.63-2.496-1.116a5.837 5.837 0 01-1.731-1.785c-.434-.703-.668-1.5-.703-2.39h2.109c.07.75.296 1.377.677 1.88.38.505.85.906 1.406 1.205.557.299 1.163.51 1.82.633.656.123 1.3.184 1.933.184.644 0 1.286-.067 1.925-.202a6.372 6.372 0 001.722-.615c.51-.276.926-.627 1.248-1.055.323-.428.49-.94.501-1.538zm15.416 3.34c0-.492.162-.911.484-1.257.322-.346.759-.519 1.31-.519.562 0 1.004.173 1.327.519.322.346.483.765.483 1.257 0 .492-.161.9-.483 1.222-.323.322-.765.483-1.328.483-.55 0-.987-.161-1.31-.483-.321-.323-.483-.73-.483-1.222zm0-15.399c0-.492.162-.91.484-1.256.322-.346.759-.519 1.31-.519.562 0 1.004.173 1.327.519.322.345.483.764.483 1.256 0 .493-.161.9-.483 1.222-.323.322-.765.483-1.328.483-.55 0-.987-.16-1.31-.483-.321-.322-.483-.73-.483-1.222zm18 19.09h-1.968l10.687-27.79h1.969l-10.688 27.79zm21.604 0h-1.969l10.688-27.79h1.968l-10.687 27.79zm20.426-8.367l.562 3.375.703-3.375 3.217-12.85h1.477l3.216 12.85.704 3.463.615-3.463 2.601-12.85h1.952l-4.22 19.02h-1.704l-3.358-13.008-.562-3.04-.563 3.04L743.705 463H742l-4.219-19.02h1.951l2.655 12.85zm21.603 0l.563 3.375.703-3.375 3.217-12.85h1.476l3.217 12.85.703 3.463.615-3.463 2.602-12.85h1.951L774.818 463h-1.705l-3.357-13.008-.563-3.04-.562 3.04L765.309 463h-1.705l-4.22-19.02h1.952l2.654 12.85zm21.604 0l.562 3.375.703-3.375 3.217-12.85h1.477l3.217 12.85.703 3.463.615-3.463 2.601-12.85h1.952L796.42 463h-1.704l-3.358-13.008-.562-3.04-.563 3.04L786.912 463h-1.705l-4.219-19.02h1.951l2.655 12.85zm25.435 4.676c0-.492.161-.911.484-1.257.322-.346.758-.519 1.31-.519.562 0 1.004.173 1.326.519.323.346.484.765.484 1.257 0 .492-.161.9-.484 1.222-.322.322-.764.483-1.327.483-.55 0-.987-.161-1.31-.483-.322-.323-.483-.73-.483-1.222zm17.403-17.526l.158 3.569a7.92 7.92 0 012.672-2.839c1.113-.709 2.379-1.07 3.797-1.081 2.086 0 3.68.624 4.78 1.872 1.102 1.248 1.659 3.02 1.67 5.317V463H839.4v-12.146c-.011-1.747-.41-3.085-1.195-4.017-.785-.932-2.004-1.392-3.656-1.38-.68 0-1.327.111-1.943.334a6.349 6.349 0 00-1.687.914c-.51.387-.961.844-1.354 1.371a7.493 7.493 0 00-.958 1.723V463h-2.109v-19.02h1.934zm27.79 19.372c-1.324 0-2.53-.247-3.62-.739a8.571 8.571 0 01-2.804-2.004 9.015 9.015 0 01-1.81-2.962 10.398 10.398 0 01-.66-3.612v-.756c.012-1.36.237-2.625.677-3.797.44-1.171 1.04-2.191 1.802-3.058a8.42 8.42 0 012.69-2.048 7.54 7.54 0 013.321-.747c1.266 0 2.385.228 3.358.685a7.074 7.074 0 012.452 1.873 8.281 8.281 0 011.512 2.768 11.18 11.18 0 01.536 3.393v1.283h-14.239v.404c.012.996.182 1.948.51 2.857a7.556 7.556 0 001.389 2.399 6.797 6.797 0 002.162 1.661c.844.416 1.781.624 2.813.624 1.171.012 2.232-.205 3.181-.65a6.68 6.68 0 002.426-1.934l1.336 1.002a7.793 7.793 0 01-1.248 1.362c-.48.416-1.017.771-1.609 1.064a8.942 8.942 0 01-1.942.685 9.8 9.8 0 01-2.232.247zm-.404-17.93c-.855 0-1.64.161-2.355.483a5.858 5.858 0 00-1.881 1.345 7.357 7.357 0 00-1.336 2.03 9.308 9.308 0 00-.72 2.558h12.04v-.229a7.498 7.498 0 00-.43-2.294 6.268 6.268 0 00-1.125-1.977 5.574 5.574 0 00-1.784-1.389c-.704-.351-1.506-.527-2.409-.527zm21.463 6.328l5.907-7.77h2.548l-7.242 9.334 7.524 9.686h-2.497l-6.205-8.104-6.205 8.104h-2.513l7.523-9.686-7.242-9.334h2.514l5.888 7.77zm21.041-12.639v4.87h7.05v1.722h-7.05v11.97c.012.74.126 1.351.343 1.838.217.486.51.879.879 1.177.37.3.803.513 1.3.642.499.129 1.04.193 1.627.193.586 0 1.186-.04 1.801-.123a29.9 29.9 0 001.574-.246l.316 1.6c-.504.2-1.119.349-1.846.448-.726.1-1.464.15-2.214.15a8.452 8.452 0 01-2.338-.308 4.906 4.906 0 01-1.864-.984c-.527-.452-.943-1.038-1.248-1.758-.304-.72-.463-1.603-.474-2.646v-11.953h-5.291v-1.723h5.29v-4.869h2.145zm30.024-1.705l.017 17.35a10.165 10.165 0 01-.606 3.305 8.426 8.426 0 01-1.609 2.733c-.691.78-1.529 1.4-2.513 1.863-.985.463-2.086.695-3.305.695-1.23 0-2.338-.229-3.322-.686a7.531 7.531 0 01-2.514-1.863 8.659 8.659 0 01-1.617-2.742 9.715 9.715 0 01-.598-3.305l.035-17.35h1.987l.053 17.35c.011.879.152 1.725.421 2.54.27.814.657 1.535 1.16 2.162a5.629 5.629 0 001.864 1.503c.738.375 1.582.562 2.531.562.95 0 1.79-.187 2.523-.562a5.564 5.564 0 001.845-1.503 6.815 6.815 0 001.143-2.162 8.98 8.98 0 00.43-2.54l.036-17.35h2.039zm14.765 14.889h-6.328V463h-2.074v-25.594h7.225a10.47 10.47 0 013.181.545c.996.34 1.866.83 2.61 1.468a6.816 6.816 0 011.758 2.347c.428.925.642 1.986.642 3.181 0 .856-.126 1.635-.378 2.338a6.774 6.774 0 01-1.046 1.907 7.477 7.477 0 01-1.59 1.503 10.39 10.39 0 01-2.03 1.108l5.835 10.968V463h-2.197l-5.608-10.705zm-6.328-1.775h5.572a6.373 6.373 0 002.233-.457 5.681 5.681 0 001.802-1.152c.51-.486.908-1.07 1.195-1.749a5.68 5.68 0 00.43-2.232c0-.903-.158-1.705-.474-2.409a5.238 5.238 0 00-1.292-1.784 5.639 5.639 0 00-1.934-1.116 7.953 7.953 0 00-2.399-.422h-5.133v11.32z" fill="#FFF"/><path d="M73.73 113H57.682v-1.617l8.384-9.51a61.421 61.421 0 001.714-2.021c.522-.645.973-1.28 1.354-1.908a9.32 9.32 0 00.887-1.89 6.13 6.13 0 00.317-1.95c0-.774-.129-1.483-.387-2.127a4.757 4.757 0 00-1.098-1.662 5.034 5.034 0 00-1.697-1.08c-.656-.258-1.388-.387-2.197-.387-.902 0-1.705.152-2.408.457a5.208 5.208 0 00-1.784 1.248 5.527 5.527 0 00-1.125 1.872 7.12 7.12 0 00-.413 2.364h-2.11a8.22 8.22 0 01.58-2.988 7.52 7.52 0 011.582-2.461 7.46 7.46 0 012.452-1.67c.955-.41 2.03-.615 3.226-.615 1.125 0 2.147.167 3.067.5.92.335 1.708.81 2.365 1.424a6.31 6.31 0 011.52 2.215c.358.862.536 1.814.536 2.857 0 .844-.15 1.664-.448 2.46a13.148 13.148 0 01-1.16 2.339 19.05 19.05 0 01-1.617 2.214c-.604.715-1.204 1.413-1.802 2.092l-7.154 8.069H73.73V113zm18.88-8.244h4.007v1.775H92.61V113h-2.091v-6.469H78.477v-1.195l11.83-17.93h2.302v17.35zm-11.602 0h9.51V90.06l-1.002 1.775-8.508 12.92zM73.73 183H57.682v-1.617l8.384-9.51a61.42 61.42 0 001.714-2.021c.522-.645.973-1.28 1.354-1.908a9.32 9.32 0 00.887-1.89 6.13 6.13 0 00.317-1.95c0-.774-.129-1.483-.387-2.127a4.757 4.757 0 00-1.098-1.662 5.034 5.034 0 00-1.697-1.08c-.656-.258-1.388-.387-2.197-.387-.902 0-1.705.152-2.408.457a5.208 5.208 0 00-1.784 1.248 5.527 5.527 0 00-1.125 1.872 7.12 7.12 0 00-.413 2.364h-2.11a8.22 8.22 0 01.58-2.988 7.52 7.52 0 011.582-2.461 7.46 7.46 0 012.452-1.67c.955-.41 2.03-.615 3.226-.615 1.125 0 2.147.167 3.067.5.92.335 1.708.81 2.365 1.424a6.31 6.31 0 011.52 2.215c.358.862.536 1.814.536 2.857 0 .844-.15 1.664-.448 2.46a13.148 13.148 0 01-1.16 2.339 19.05 19.05 0 01-1.617 2.214c-.604.715-1.204 1.413-1.802 2.092l-7.154 8.069H73.73V183zm7.84-13.113l1.248-12.48h12.797v2.038H84.611l-.879 8.56a7.965 7.965 0 012.18-1.027c.82-.252 1.7-.378 2.637-.378 1.16 0 2.209.202 3.146.606a6.757 6.757 0 012.39 1.705c.657.733 1.161 1.606 1.513 2.62.351 1.013.527 2.117.527 3.313 0 1.183-.152 2.29-.457 3.322-.305 1.031-.77 1.93-1.397 2.698a6.628 6.628 0 01-2.374 1.82c-.955.445-2.083.668-3.383.668-1.067 0-2.054-.159-2.962-.475a7.045 7.045 0 01-2.39-1.389 7.11 7.11 0 01-1.67-2.232c-.429-.88-.701-1.875-.818-2.988h2.039c.105.832.31 1.576.615 2.232a5.286 5.286 0 001.195 1.67 5.023 5.023 0 001.74 1.046c.669.24 1.419.36 2.25.36.938 0 1.753-.17 2.444-.51a4.765 4.765 0 001.723-1.415c.457-.603.794-1.312 1.01-2.127.217-.814.326-1.696.326-2.645 0-.89-.132-1.723-.396-2.496a5.925 5.925 0 00-1.151-2.022 5.372 5.372 0 00-1.837-1.353c-.72-.328-1.538-.492-2.452-.492-.54 0-1.034.035-1.486.105-.45.07-.873.185-1.265.343a6.809 6.809 0 00-1.125.58 8.194 8.194 0 00-1.064.817l-1.67-.474zM73.73 253H57.682v-1.617l8.384-9.51a61.42 61.42 0 001.714-2.021c.522-.645.973-1.28 1.354-1.908a9.32 9.32 0 00.887-1.89 6.13 6.13 0 00.317-1.95c0-.774-.129-1.483-.387-2.127a4.757 4.757 0 00-1.098-1.662 5.034 5.034 0 00-1.697-1.08c-.656-.258-1.388-.387-2.197-.387-.902 0-1.705.152-2.408.457a5.208 5.208 0 00-1.784 1.248 5.527 5.527 0 00-1.125 1.872 7.12 7.12 0 00-.413 2.364h-2.11a8.22 8.22 0 01.58-2.988 7.52 7.52 0 011.582-2.461 7.46 7.46 0 012.452-1.67c.955-.41 2.03-.615 3.226-.615 1.125 0 2.147.167 3.067.5.92.335 1.708.81 2.365 1.424a6.31 6.31 0 011.52 2.215c.358.862.536 1.814.536 2.857 0 .844-.15 1.664-.448 2.46a13.148 13.148 0 01-1.16 2.339 19.05 19.05 0 01-1.617 2.214c-.604.715-1.204 1.413-1.802 2.092l-7.154 8.069H73.73V253zm18.44-25.787v1.916h-.316c-1.711.012-3.182.299-4.413.861-1.23.563-2.25 1.316-3.058 2.259a9.845 9.845 0 00-1.846 3.278 14.825 14.825 0 00-.756 3.885 7.541 7.541 0 012.68-2.32 8.226 8.226 0 011.75-.66 7.732 7.732 0 011.916-.237c1.23 0 2.306.238 3.226.712a6.953 6.953 0 012.302 1.881 8.016 8.016 0 011.38 2.69c.305 1.013.457 2.06.457 3.137 0 1.125-.16 2.212-.483 3.261a8.451 8.451 0 01-1.442 2.786 7.266 7.266 0 01-2.373 1.951c-.943.492-2.036.739-3.278.739-1.336 0-2.517-.267-3.542-.8a8.061 8.061 0 01-2.593-2.11 9.27 9.27 0 01-1.6-2.997 11.632 11.632 0 01-.562-3.48v-2.268c0-1.218.094-2.423.281-3.612.188-1.19.48-2.317.88-3.384a13.49 13.49 0 011.546-2.97 9.912 9.912 0 012.303-2.365c.902-.662 1.951-1.183 3.146-1.564 1.196-.381 2.555-.577 4.079-.59h.316zm-4.377 10.793a6.21 6.21 0 00-1.96.316 6.821 6.821 0 00-1.767.88c-.539.374-1.01.828-1.415 1.361a5.674 5.674 0 00-.905 1.767V244c0 1.102.152 2.118.457 3.05.305.931.73 1.731 1.275 2.4a5.85 5.85 0 001.95 1.564 5.358 5.358 0 002.488.545c.89 0 1.679-.194 2.364-.58a5.35 5.35 0 001.723-1.539 7.074 7.074 0 001.055-2.197c.24-.826.36-1.679.36-2.557 0-.88-.12-1.72-.36-2.523a6.492 6.492 0 00-1.073-2.127 5.359 5.359 0 00-1.757-1.476c-.698-.37-1.51-.554-2.435-.554zM73.73 323H57.682v-1.617l8.384-9.51a61.42 61.42 0 001.714-2.021c.522-.645.973-1.28 1.354-1.908a9.32 9.32 0 00.887-1.89 6.13 6.13 0 00.317-1.95c0-.774-.129-1.483-.387-2.127a4.757 4.757 0 00-1.098-1.662 5.034 5.034 0 00-1.697-1.08c-.656-.258-1.388-.387-2.197-.387-.902 0-1.705.152-2.408.457a5.208 5.208 0 00-1.784 1.248 5.527 5.527 0 00-1.125 1.872 7.12 7.12 0 00-.413 2.364h-2.11a8.22 8.22 0 01.58-2.988 7.52 7.52 0 011.582-2.461 7.46 7.46 0 012.452-1.67c.955-.41 2.03-.615 3.226-.615 1.125 0 2.147.167 3.067.5.92.335 1.708.81 2.365 1.424a6.31 6.31 0 011.52 2.215c.358.862.536 1.814.536 2.857 0 .844-.15 1.664-.448 2.46a13.148 13.148 0 01-1.16 2.339 19.05 19.05 0 01-1.617 2.214c-.604.715-1.204 1.413-1.802 2.092l-7.154 8.069H73.73V323zm22.29-24.38L85.086 323h-2.197l10.863-23.713H79.197v-1.88H96.02v1.212zM73.73 393H57.682v-1.617l8.384-9.51a61.42 61.42 0 001.714-2.021c.522-.645.973-1.28 1.354-1.908a9.32 9.32 0 00.887-1.89 6.13 6.13 0 00.317-1.95c0-.774-.129-1.483-.387-2.127a4.757 4.757 0 00-1.098-1.662 5.034 5.034 0 00-1.697-1.08c-.656-.258-1.388-.387-2.197-.387-.902 0-1.705.152-2.408.457a5.208 5.208 0 00-1.784 1.248 5.527 5.527 0 00-1.125 1.872 7.12 7.12 0 00-.413 2.364h-2.11a8.22 8.22 0 01.58-2.988 7.52 7.52 0 011.582-2.461 7.46 7.46 0 012.452-1.67c.955-.41 2.03-.615 3.226-.615 1.125 0 2.147.167 3.067.5.92.335 1.708.81 2.365 1.424a6.31 6.31 0 011.52 2.215c.358.862.536 1.814.536 2.857 0 .844-.15 1.664-.448 2.46a13.148 13.148 0 01-1.16 2.339 19.05 19.05 0 01-1.617 2.214c-.604.715-1.204 1.413-1.802 2.092l-7.154 8.069H73.73V393zm22.008-19.002c0 .691-.108 1.342-.325 1.951a6.194 6.194 0 01-2.232 2.98 7.702 7.702 0 01-1.714.94 8.844 8.844 0 011.96.967 6.924 6.924 0 011.564 1.406c.44.54.782 1.143 1.029 1.81.246.669.369 1.39.369 2.163 0 1.16-.217 2.185-.65 3.076a6.43 6.43 0 01-1.767 2.232 7.88 7.88 0 01-2.593 1.363 10.28 10.28 0 01-3.111.466 10.61 10.61 0 01-3.138-.457 7.655 7.655 0 01-2.602-1.363 6.517 6.517 0 01-1.766-2.241c-.434-.89-.65-1.916-.65-3.076 0-.774.12-1.494.36-2.162a6.108 6.108 0 011.01-1.802 7.208 7.208 0 011.539-1.406 8.266 8.266 0 011.942-.976 7.328 7.328 0 01-1.696-.94c-.51-.381-.953-.82-1.328-1.319a5.835 5.835 0 01-.87-1.66 6.078 6.078 0 01-.307-1.952c0-1.09.19-2.062.571-2.918a6.349 6.349 0 011.573-2.18 6.925 6.925 0 012.356-1.37c.902-.317 1.88-.475 2.935-.475a8.99 8.99 0 012.945.474c.92.317 1.72.774 2.399 1.371a6.44 6.44 0 011.608 2.18c.393.856.59 1.828.59 2.918zm-1.459 12.234c0-.843-.164-1.605-.492-2.285a5.146 5.146 0 00-1.327-1.722 5.998 5.998 0 00-1.934-1.081 7.002 7.002 0 00-2.294-.378c-.808 0-1.579.126-2.311.378a5.793 5.793 0 00-1.916 1.08 5.152 5.152 0 00-1.3 1.723c-.323.68-.484 1.442-.484 2.285 0 .868.16 1.635.483 2.303a4.926 4.926 0 001.3 1.679 5.567 5.567 0 001.917 1.02 7.837 7.837 0 002.347.342c.808 0 1.576-.117 2.302-.351a5.799 5.799 0 001.916-1.029 4.9 4.9 0 001.31-1.67c.322-.662.483-1.426.483-2.294zm-.65-12.252c0-.761-.147-1.459-.44-2.091a5.003 5.003 0 00-1.186-1.626 5.348 5.348 0 00-1.732-1.046 5.858 5.858 0 00-2.074-.37c-.738 0-1.43.12-2.074.361-.644.24-1.21.58-1.696 1.02-.487.439-.867.978-1.143 1.617-.275.638-.413 1.35-.413 2.135 0 .786.144 1.486.43 2.101a4.704 4.704 0 001.16 1.565 5.122 5.122 0 001.706.984c.65.228 1.339.343 2.065.343.727 0 1.415-.115 2.066-.343a5.223 5.223 0 001.714-.984 4.726 4.726 0 001.177-1.574c.293-.62.44-1.318.44-2.092zM73.73 463H57.682v-1.617l8.384-9.51a61.42 61.42 0 001.714-2.021c.522-.645.973-1.28 1.354-1.908a9.32 9.32 0 00.887-1.89 6.13 6.13 0 00.317-1.95c0-.774-.129-1.483-.387-2.127a4.757 4.757 0 00-1.098-1.662 5.034 5.034 0 00-1.697-1.08c-.656-.258-1.388-.387-2.197-.387-.902 0-1.705.152-2.408.457a5.208 5.208 0 00-1.784 1.248 5.527 5.527 0 00-1.125 1.872 7.12 7.12 0 00-.413 2.364h-2.11a8.22 8.22 0 01.58-2.988 7.52 7.52 0 011.582-2.461 7.46 7.46 0 012.452-1.67c.955-.41 2.03-.615 3.226-.615 1.125 0 2.147.167 3.067.5.92.335 1.708.81 2.365 1.424a6.31 6.31 0 011.52 2.215c.358.862.536 1.814.536 2.857 0 .844-.15 1.664-.448 2.46a13.148 13.148 0 01-1.16 2.339 19.05 19.05 0 01-1.617 2.214c-.604.715-1.204 1.413-1.802 2.092l-7.154 8.069H73.73V463zm9.985-1.705c1.793-.012 3.302-.29 4.526-.835 1.225-.545 2.22-1.28 2.988-2.206.768-.926 1.328-2.004 1.68-3.234.35-1.23.544-2.543.58-3.938a7.109 7.109 0 01-2.55 2.531c-.539.317-1.13.563-1.775.739a7.927 7.927 0 01-2.092.263c-1.218 0-2.285-.249-3.199-.747a7.134 7.134 0 01-2.294-1.96 8.63 8.63 0 01-1.389-2.75 10.709 10.709 0 01-.465-3.12c0-1.15.167-2.26.5-3.332a8.983 8.983 0 011.477-2.865 7.327 7.327 0 012.417-2.013c.961-.504 2.074-.762 3.34-.773 1.477 0 2.728.29 3.753.87a7.377 7.377 0 012.514 2.311c.65.961 1.125 2.054 1.423 3.279.3 1.224.449 2.475.449 3.753v2.039c0 1.172-.08 2.326-.238 3.463a16.494 16.494 0 01-.782 3.243 12.476 12.476 0 01-1.432 2.847 9.104 9.104 0 01-2.207 2.268c-.878.639-1.916 1.14-3.11 1.503-1.196.363-2.567.55-4.114.562h-.475l.018-1.898h.457zm3.62-8.49a6.08 6.08 0 002.031-.343 6.47 6.47 0 001.793-.967 6.815 6.815 0 001.424-1.476 6.563 6.563 0 00.923-1.873v-1.072a12.73 12.73 0 00-.387-3.199c-.258-.996-.639-1.866-1.142-2.61a5.608 5.608 0 00-1.881-1.758c-.75-.428-1.617-.642-2.602-.642-.914 0-1.723.202-2.426.607a5.793 5.793 0 00-1.784 1.59 7.19 7.19 0 00-1.107 2.26 9.194 9.194 0 00-.027 5.123c.235.82.586 1.553 1.055 2.198a5.562 5.562 0 001.74 1.564c.692.398 1.489.598 2.39.598zM62.464 519.06h2.127a8.286 8.286 0 002.32-.352 5.91 5.91 0 001.907-.967 4.636 4.636 0 001.292-1.547c.317-.61.475-1.312.475-2.11 0-.831-.129-1.572-.387-2.223a4.536 4.536 0 00-1.09-1.643 4.707 4.707 0 00-1.696-1.02c-.662-.234-1.397-.351-2.206-.351-.809 0-1.553.126-2.232.378a5.31 5.31 0 00-1.767 1.063 4.92 4.92 0 00-1.178 1.661c-.287.65-.436 1.374-.448 2.171h-2.11a7.084 7.084 0 01.625-2.804 6.99 6.99 0 011.608-2.24 7.365 7.365 0 012.426-1.486c.937-.358 1.963-.536 3.076-.536 1.09 0 2.092.16 3.006.483a6.838 6.838 0 012.364 1.389 6.222 6.222 0 011.547 2.223c.37.88.554 1.881.554 3.006 0 .633-.103 1.24-.308 1.82a5.746 5.746 0 01-.888 1.617 6.653 6.653 0 01-1.406 1.336 7.644 7.644 0 01-1.845.958c1.593.445 2.812 1.21 3.656 2.294.844 1.084 1.265 2.376 1.265 3.876 0 1.148-.202 2.173-.606 3.076a6.558 6.558 0 01-1.67 2.285 7.499 7.499 0 01-2.496 1.433 9.282 9.282 0 01-3.085.5 9.784 9.784 0 01-3.164-.5 7.834 7.834 0 01-2.584-1.442 6.877 6.877 0 01-1.758-2.294c-.433-.902-.662-1.922-.685-3.058h2.091c.024.843.194 1.605.51 2.285.317.68.747 1.26 1.292 1.74s1.184.85 1.916 1.107a7.125 7.125 0 002.382.387c.832 0 1.603-.117 2.311-.351a5.096 5.096 0 001.829-1.038 4.717 4.717 0 001.195-1.705c.287-.68.43-1.464.43-2.355 0-.938-.172-1.737-.518-2.4a4.586 4.586 0 00-1.397-1.625c-.586-.422-1.272-.733-2.057-.932a10.7 10.7 0 00-2.496-.316h-2.127v-1.793zm33.433 3.814c0 1.43-.158 2.78-.474 4.052-.317 1.271-.803 2.382-1.46 3.33a7.267 7.267 0 01-2.495 2.26c-1.008.556-2.21.835-3.604.835-1.383 0-2.58-.279-3.594-.835a7.323 7.323 0 01-2.514-2.26c-.662-.948-1.154-2.059-1.477-3.33a17.012 17.012 0 01-.5-4.052v-5.326c.011-1.43.175-2.78.492-4.052.316-1.271.805-2.388 1.467-3.349a7.282 7.282 0 012.505-2.276c1.008-.557 2.203-.835 3.586-.835 1.395 0 2.599.278 3.612.835a7.21 7.21 0 012.505 2.268c.657.955 1.146 2.07 1.468 3.348.322 1.278.483 2.631.483 4.06v5.327zm-14.01.316c0 .48.018.938.053 1.371l11.55-10.458a10.422 10.422 0 00-.686-2.092 5.717 5.717 0 00-1.134-1.67 5.08 5.08 0 00-1.644-1.108c-.632-.27-1.365-.404-2.197-.404-1.09 0-2.013.229-2.768.686a5.377 5.377 0 00-1.837 1.845c-.47.774-.809 1.664-1.02 2.672a15.411 15.411 0 00-.316 3.164v5.994zm11.901-5.994c0-.386-.017-.767-.053-1.142l-11.496 10.441c.176.727.416 1.4.721 2.022a5.868 5.868 0 001.143 1.608c.457.451.996.806 1.617 1.063.62.258 1.336.387 2.144.387 1.09 0 2.013-.231 2.769-.694a5.378 5.378 0 001.828-1.855c.463-.773.8-1.664 1.01-2.672.212-1.007.317-2.062.317-3.164v-5.994zm-31.324 71.864h2.127a8.286 8.286 0 002.32-.352 5.91 5.91 0 001.907-.967 4.636 4.636 0 001.292-1.547c.317-.61.475-1.312.475-2.11 0-.831-.129-1.572-.387-2.223a4.536 4.536 0 00-1.09-1.643 4.707 4.707 0 00-1.696-1.02c-.662-.234-1.397-.351-2.206-.351-.809 0-1.553.126-2.232.378a5.31 5.31 0 00-1.767 1.063 4.92 4.92 0 00-1.178 1.661c-.287.65-.436 1.374-.448 2.171h-2.11a7.084 7.084 0 01.625-2.804 6.99 6.99 0 011.608-2.24 7.365 7.365 0 012.426-1.486c.937-.358 1.963-.536 3.076-.536 1.09 0 2.092.16 3.006.483a6.838 6.838 0 012.364 1.389 6.222 6.222 0 011.547 2.223c.37.88.554 1.881.554 3.006 0 .633-.103 1.24-.308 1.82a5.746 5.746 0 01-.888 1.617 6.653 6.653 0 01-1.406 1.336 7.644 7.644 0 01-1.845.958c1.593.445 2.812 1.21 3.656 2.294.844 1.084 1.265 2.376 1.265 3.876 0 1.148-.202 2.173-.606 3.076a6.558 6.558 0 01-1.67 2.285 7.499 7.499 0 01-2.496 1.433 9.282 9.282 0 01-3.085.5 9.784 9.784 0 01-3.164-.5 7.834 7.834 0 01-2.584-1.442 6.877 6.877 0 01-1.758-2.294c-.433-.902-.662-1.922-.685-3.058h2.091c.024.843.194 1.605.51 2.285.317.68.747 1.26 1.292 1.74s1.184.85 1.916 1.107a7.125 7.125 0 002.382.387c.832 0 1.603-.117 2.311-.351a5.096 5.096 0 001.829-1.038 4.717 4.717 0 001.195-1.705c.287-.68.43-1.464.43-2.355 0-.938-.172-1.737-.518-2.4a4.586 4.586 0 00-1.397-1.625c-.586-.422-1.272-.733-2.057-.932a10.7 10.7 0 00-2.496-.316h-2.127v-1.793zM90.043 603h-2.11v-22.94l-7.083 3.042v-1.987l8.894-3.709h.299V603z" fill="#6F777B"/><path d="M213.725 190.102c-1.067-.176-1.998-.513-2.795-1.011a7.194 7.194 0 01-1.995-1.828 7.802 7.802 0 01-1.205-2.444c-.27-.908-.41-1.854-.421-2.839v-3.656c-.012-1.64-.428-2.853-1.248-3.638-.82-.786-2.034-1.196-3.64-1.23v-.476h-.017v-.86l.018-.493c1.594-.035 2.804-.442 3.63-1.222.826-.779 1.245-1.983 1.257-3.612v-3.691c.011-.985.146-1.931.404-2.84a7.948 7.948 0 011.169-2.46 6.923 6.923 0 011.986-1.855c.803-.504 1.75-.843 2.839-1.02l.334 1.39c-.867.163-1.594.454-2.18.87a4.96 4.96 0 00-1.415 1.529 6.643 6.643 0 00-.773 2.03c-.158.75-.243 1.535-.255 2.356v3.691c-.023 1.453-.378 2.672-1.064 3.656-.685.985-1.702 1.688-3.05 2.11 1.348.421 2.365 1.128 3.05 2.118.686.99 1.04 2.206 1.064 3.647v3.656c.012.833.111 1.618.299 2.356.187.738.474 1.403.861 1.995a5.53 5.53 0 001.45 1.503c.58.41 1.263.697 2.048.861l-.351 1.407zM202.404 538.695c.785-.164 1.468-.45 2.048-.861a5.53 5.53 0 001.45-1.503c.387-.592.674-1.26.862-2.004a10.17 10.17 0 00.298-2.347v-3.656c.012-1.441.364-2.657 1.055-3.647.692-.99 1.711-1.697 3.059-2.118-1.348-.422-2.367-1.125-3.059-2.11-.691-.984-1.043-2.203-1.054-3.656v-3.691a12.238 12.238 0 00-.255-2.356 6.643 6.643 0 00-.774-2.03 4.96 4.96 0 00-1.415-1.53c-.586-.415-1.306-.706-2.162-.87l.316-1.388c1.09.176 2.037.515 2.84 1.02a7.035 7.035 0 011.994 1.854c.528.732.92 1.552 1.178 2.46.258.909.387 1.855.387 2.84v3.691c.012 1.629.43 2.833 1.257 3.612.826.78 2.036 1.187 3.63 1.222v.492h.017l-.017.44.017.421h-.017v.475c-1.594.035-2.804.448-3.63 1.24-.826.79-1.245 2-1.257 3.63v3.655c0 .985-.135 1.931-.404 2.84a7.802 7.802 0 01-1.205 2.443 7.149 7.149 0 01-2.003 1.828c-.803.498-1.738.835-2.804 1.01l-.352-1.406zM185.406 586.107c0-.492.161-.91.484-1.256.322-.346.758-.519 1.31-.519.562 0 1.004.173 1.326.519.323.345.484.764.484 1.256 0 .493-.161.9-.484 1.222-.322.322-.764.484-1.327.484-.55 0-.987-.162-1.31-.484-.322-.322-.483-.73-.483-1.222zM188.078 602.385a7.31 7.31 0 01-.167 1.547 9.206 9.206 0 01-.474 1.529c-.206.504-.46.987-.765 1.45a7.574 7.574 0 01-1.055 1.275l-1.336-.844a8.323 8.323 0 001.547-4.904v-2.743h2.25v2.69zM185.688 110.152l.087.37.106-.37 6.539-16.172h2.197L186.62 113h-1.723l-8.015-19.02h2.197zM213.074 113a7.625 7.625 0 01-.299-1.292c-.07-.475-.117-.958-.14-1.45a7.885 7.885 0 01-1.266 1.23c-.48.375-1.005.7-1.573.976a9.077 9.077 0 01-1.837.65 8.747 8.747 0 01-2.057.238c-.89 0-1.72-.13-2.487-.387a6.233 6.233 0 01-2.004-1.09 5.024 5.024 0 01-1.336-1.696c-.322-.662-.483-1.404-.483-2.224 0-1.09.24-2.016.72-2.777a5.544 5.544 0 011.952-1.855c.82-.474 1.77-.823 2.847-1.046a16.74 16.74 0 013.393-.334h4.113v-2.162c-.012-.715-.152-1.344-.422-1.89a3.994 3.994 0 00-1.098-1.37 4.774 4.774 0 00-1.653-.835 7.368 7.368 0 00-2.083-.282c-.68 0-1.327.088-1.942.264a5.514 5.514 0 00-1.635.756c-.474.328-.858.73-1.151 1.204a3.25 3.25 0 00-.475 1.608l-2.11-.017a4.814 4.814 0 01.642-2.233 5.835 5.835 0 011.591-1.766 7.827 7.827 0 012.33-1.17 9.319 9.319 0 012.838-.421c1.008 0 1.954.129 2.84.387.884.257 1.651.644 2.302 1.16a5.57 5.57 0 011.547 1.933c.38.774.577 1.676.589 2.707v9.211c0 .633.055 1.272.167 1.916.11.645.249 1.26.413 1.846l.017.211h-2.25zm-6.943-1.512a7.422 7.422 0 002.118-.263 7.607 7.607 0 001.855-.783 6.77 6.77 0 001.494-1.195c.433-.463.773-.97 1.02-1.52v-4.166h-3.833c-.926 0-1.816.07-2.672.21-.855.141-1.611.373-2.267.695-.657.322-1.181.753-1.574 1.292-.392.539-.588 1.213-.588 2.021 0 .575.117 1.09.351 1.547a3.6 3.6 0 00.95 1.17c.398.321.867.567 1.406.737.539.17 1.119.255 1.74.255zM234.186 93.629c.527 0 1.054.032 1.582.097.527.064.966.155 1.318.272l-.264 2.022a16.163 16.163 0 00-1.476-.247 12.78 12.78 0 00-1.512-.087c-1.781 0-3.293.421-4.535 1.265-1.242.844-2.115 2.139-2.62 3.885l.018 12.164h-2.18V93.98h2.022l.14 3.305v.387a8.423 8.423 0 013.077-2.962c1.277-.72 2.754-1.081 4.43-1.081zM604.205 98.727h-15.68v-1.864h15.68zM604.205 105.951h-15.68v-1.863h15.68z" fill="#FFEF75" fill-rule="nonzero"/></g></svg>