<svg xmlns="http://www.w3.org/2000/svg" viewBox="0 0 960 640"><defs><style>.cls-1{fill:#fff}.cls-2{fill:#0b0b0b}.cls-3{fill:#dadada}</style></defs><g id="Layer_3" data-name="Layer 3"><path class="cls-1" d="M5.91 38.61h952.27v598.78H5.91z"/><path class="cls-2" d="M1 40.28h958v65H1z"/><path class="cls-1" d="M267 60.01L256.29 73V60.01h-6.06V90h6.06v-9.12l3.87-4.33L268.08 90h7.05l-11.08-18.07 10.41-11.92H267zm-37.36 24.54a5.28 5.28 0 01-2-1.17 5.52 5.52 0 01-1.31-2 7.58 7.58 0 01-.48-2.83V60h-6v19.46a11 11 0 00.95 4.54 9.89 9.89 0 002.54 3.45 11.55 11.55 0 003.86 2.2 15.83 15.83 0 009.78 0 11.45 11.45 0 003.85-2.2 9.94 9.94 0 002.53-3.45 11 11 0 00.91-4.54V60h-6v18.56a7.62 7.62 0 01-.48 2.83 5.54 5.54 0 01-1.31 2 5.3 5.3 0 01-2 1.17 8 8 0 01-4.91 0m-21.84 3.53a3.93 3.93 0 00.83 1.21 3.74 3.74 0 001.23.82 3.79 3.79 0 001.47.29 3.72 3.72 0 001.46-.29 3.78 3.78 0 001.21-.82 3.94 3.94 0 00.83-1.21 3.67 3.67 0 00.3-1.49 3.52 3.52 0 00-.3-1.45 3.85 3.85 0 00-.83-1.19 4 4 0 00-1.21-.82 3.58 3.58 0 00-1.46-.3 3.65 3.65 0 00-1.47.3 4 4 0 00-1.23.82 3.84 3.84 0 00-.83 1.19 3.53 3.53 0 00-.3 1.45 3.68 3.68 0 00.3 1.49M198.11 90l8.46-29.99h-6.71l-5.66 22.54h-.21l-5.8-22.54h-6.79L189.87 90h8.24zm-36.8-5.81a7.09 7.09 0 01-2.52-2.06 9.28 9.28 0 01-1.54-3.13 14.09 14.09 0 01-.52-3.93v-.17a14.13 14.13 0 01.52-3.92 9.27 9.27 0 011.54-3.12 7.07 7.07 0 012.52-2.06 8.46 8.46 0 016.93 0 7.2 7.2 0 012.52 2.06A9.17 9.17 0 01172.3 71a14.06 14.06 0 01.52 3.92v.17a14 14 0 01-.52 3.91 9.18 9.18 0 01-1.55 3.11 7.22 7.22 0 01-2.52 2.06 8.46 8.46 0 01-6.93 0m-2.54-23.4a13.32 13.32 0 00-4.49 3.28 14.3 14.3 0 00-2.82 4.95 19.21 19.21 0 000 12.07 14.45 14.45 0 002.82 4.89 13.12 13.12 0 004.49 3.28 15.73 15.73 0 0012 0 13.08 13.08 0 004.5-3.28 14.45 14.45 0 002.85-4.96 19.25 19.25 0 000-12.07 14.31 14.31 0 00-2.82-4.89 13.28 13.28 0 00-4.5-3.28 15.63 15.63 0 00-12 0m-33.11 14.12a14.07 14.07 0 01.48-3.69 9.51 9.51 0 011.46-3.19 7.37 7.37 0 012.51-2.19 7.54 7.54 0 013.64-.83 8 8 0 012.43.35 6.87 6.87 0 013.43 2.36 10.32 10.32 0 011.13 1.79l5.31-3a11.19 11.19 0 00-2-2.85 12.15 12.15 0 00-2.79-2.2 13.79 13.79 0 00-3.49-1.4 16.17 16.17 0 00-4-.49 14.18 14.18 0 00-5.93 1.2 13.54 13.54 0 00-4.51 3.28 14.67 14.67 0 00-2.91 4.98 17.65 17.65 0 00-1 6 19.43 19.43 0 00.91 6 14.55 14.55 0 002.65 4.94 12.29 12.29 0 004.29 3.28 13.65 13.65 0 005.83 1.19 11.57 11.57 0 002.64-.29 10.76 10.76 0 002.29-.81 8.75 8.75 0 001.88-1.23 7.38 7.38 0 001.4-1.6V90h5.31V73.56h-13.56v4.62h7.67v.29a7.59 7.59 0 01-.32 2.09 5.79 5.79 0 01-1.13 2.1 6.27 6.27 0 01-2.15 1.62 7.77 7.77 0 01-3.38.65 7.54 7.54 0 01-3.64-.83 7.36 7.36 0 01-2.51-2.18 9.53 9.53 0 01-1.46-3.14 14 14 0 01-.48-3.7zm-63.39-8.77a2.63 2.63 0 10-1.41-3.42 2.63 2.63 0 001.41 3.42m-5.96 3.49a2.63 2.63 0 10-1.42-3.42 2.63 2.63 0 001.42 3.42m-1.74 6.63a2.63 2.63 0 10-1.41-3.42 2.63 2.63 0 001.41 3.42m14.36-8.02a2.63 2.63 0 10-1.41-3.42 2.63 2.63 0 001.41 3.42M93 66.11a2.63 2.63 0 111.41-3.42A2.63 2.63 0 0193 66.11m6 3.49a2.63 2.63 0 111.42-3.42A2.63 2.63 0 0199 69.6m1.75 6.63a2.63 2.63 0 111.41-3.42 2.63 2.63 0 01-1.41 3.42M86.4 68.21a2.63 2.63 0 111.41-3.42 2.63 2.63 0 01-1.41 3.42m-7.34-6.8l3.33 1.75v-4.9l-3.32 1.04a1.66 1.66 0 00-.32-.33l1.34-4.21h-4.8L76.6 59a1.7 1.7 0 00-.32.33l-3.32-1.05v4.9l3.33-1.75a1.76 1.76 0 00.34.34l-1.93 5.75a3.1 3.1 0 002.51 4h.92a3.1 3.1 0 002.65-3.07 3.14 3.14 0 00-.14-.91l-1.91-5.77a1.8 1.8 0 00.34-.34m-1.4 28.2a125.8 125.8 0 0117.63 1.19c1.51-6.36 3.35-10 5.25-12.6L97 76.95a6.54 6.54 0 010 3.83 7.26 7.26 0 01-1.59-3.26l-1.73 5.78a5.29 5.29 0 012.8-1.22c-1.65 3.56-3.71 4.47-5.05 4.23a2.54 2.54 0 01-2.13-3c.38-1.75 2.17-2.21 3-.17 1.6-3.27-1.12-4.29-2.87-3.32 2.69-2.68 3-5.07.83-7.95-3 2.31-3.06 4.6-1.7 7.82C86.79 77.67 84 78.76 85 82c1.27-2 3-.73 2.69 1.14-.22 1.63-2.38 2.95-5.06 2.72-3.84-.35-4.07-3-4.17-5.2.94-.17 2.65.7 4.1 2.74l.53-6.13a6 6 0 01-4.6 2c.53-1.65 3-4.37 3-4.37h-7.64s2.44 2.71 3 4.37a6 6 0 01-4.6-2l.53 6.13c1.45-2 3.15-2.91 4.1-2.74-.1 2.2-.32 4.85-4.17 5.2-2.68.23-4.84-1.08-5.06-2.72-.3-1.85 1.35-3.09 2.66-1.14 1-3.26-1.75-4.35-3.52-2.33 1.36-3.22 1.32-5.51-1.7-7.82-2.17 2.88-1.86 5.27.83 7.95-1.75-1-4.47.05-2.87 3.32.84-2 2.63-1.58 3 .17a2.54 2.54 0 01-2.13 3c-1.34.25-3.4-.67-5-4.23a5.3 5.3 0 012.8 1.22l-1.74-5.78a7.24 7.24 0 01-1.59 3.26 6.55 6.55 0 010-3.83l-3.58 1.27c1.9 2.59 3.74 6.24 5.25 12.6a126 126 0 0117.62-1.19"/><path class="cls-3" d="M4 521.23V40.28h952v480.95h4V36.28H0v484.95h4z"/><path class="cls-2" d="M55.72 145.67h13.46c7 0 11.29 4.81 11.29 11.15S75.67 168 68.65 168h-6.1v11.34h-6.83zm11.63 6.15h-4.8v10h4.81c3.75 0 6.1-1.73 6.1-4.9v-.19c0-3.18-2.36-4.91-6.11-4.91zm24.13 27.97c-4.57 0-8.7-2.88-8.7-7.88 0-4 2.64-6.73 7.06-7.35l7.64-1.06v-.82c0-2.21-1.49-3.22-3.94-3.22a16.93 16.93 0 00-7.4 2l-2.55-5a21.23 21.23 0 0110.19-2.79c4.61 0 10.19 1.25 10.19 8.07v10.77c0 1.49.82 2 2.16 2.59l-2.93 4.66a5.71 5.71 0 01-4.7-2.76c-1.59 1.88-4.04 2.79-7.02 2.79zm.77-10.62c-1.59.24-2.64 1.15-2.64 2.59s1.25 2.93 3.41 2.93c3 0 4.47-2 4.47-4.61v-1.73zm22.88 11.15l.19-.82h-.48l-7.74-25.33h7.21l4.61 17.4 4.52-17.4h7.11L121.91 183c-1.1 3.75-4 4.76-7.83 4.76a42.56 42.56 0 01-5.91-.48l1.35-5.72a23.17 23.17 0 003.46.29 1.9 1.9 0 002.15-1.53zm38.26-26.14h4.81V160h-4.81v19.32h-6.49V160h-4v-5.82h4v-2.6c0-4.37 3.12-6.39 7.59-6.39a43.63 43.63 0 015.14.34l-.53 5.53a22.27 22.27 0 00-3.17-.24c-1.83 0-2.55.77-2.55 1.87zm32.01 12.59c0 7.45-5 13-12.35 13s-12.35-5.62-12.35-13c0-7.4 4.9-13 12.35-13s12.35 5.62 12.35 13zm-6.63 0c0-4.08-2-7-5.72-7s-5.67 2.93-5.72 7c0 4.08 2 7 5.72 7s5.67-2.93 5.72-7zm26-6.3h-1.15c-3.7 0-7 1.25-7 6.63v12.21h-6.49v-25.13h6.49V157a7.79 7.79 0 016.68-3.27h1.44zm20.09 8.53a5.91 5.91 0 006.1 4.9 9 9 0 006.34-2.35l3.22 4.9a15 15 0 01-9.76 3.37c-6.92 0-12.64-4.81-12.64-12.88v-.29c0-7.4 5-12.93 12.16-12.93 6.63 0 11.53 5 11.53 12.35V169zm0-4.9H235a4.83 4.83 0 00-4.95-4.76 5 5 0 00-5.14 4.74zm26.91 2.04l-7.64-12h7.5l3.84 6.78 4-6.78h7.55l-7.79 12 8.65 13.12h-7.64l-4.95-7.69-4.52 7.69h-7.55zm26.34 13.65c-4.57 0-8.7-2.88-8.7-7.88 0-4 2.64-6.73 7.06-7.35l7.64-1.06v-.82c0-2.21-1.49-3.22-3.94-3.22a16.93 16.93 0 00-7.4 2l-2.55-5a21.23 21.23 0 0110.19-2.79c4.61 0 10.19 1.25 10.19 8.07v10.77c0 1.49.82 2 2.16 2.59l-2.93 4.66a5.71 5.71 0 01-4.71-2.84c-1.58 1.96-4.03 2.87-7.01 2.87zm.77-10.62c-1.59.24-2.64 1.15-2.64 2.59s1.25 2.93 3.41 2.93c3 0 4.47-2 4.47-4.61v-1.73zm38.98 10.14h-6.49V164.7c0-3.61-1.68-4.85-3.8-4.85-2.5 0-4.42 1.73-4.42 5.77v13.7h-6.49v-25.14h6.49v2.21a8.42 8.42 0 016.44-2.69 7.27 7.27 0 016.49 3.41c1.78-2.5 4.61-3.41 7.59-3.41 5.62 0 8.94 4 8.94 8.46v17.16h-6.54V164.7c0-3.61-1.68-4.85-3.8-4.85-2.5 0-4.42 1.73-4.42 5.77zM345 154.18v2.16a8.31 8.31 0 016.34-2.64c6.63 0 11.05 5.48 11.05 12.93v.24c0 7.45-4.56 12.93-11.2 12.93a8 8 0 01-6.2-2.64v10.09h-6.49v-33.07zm-.19 14.9c0 2.69 2 4.71 5.19 4.71 3.7 0 5.72-2.93 5.72-6.92v-.24c0-4-2-6.92-5.72-6.92-3.17 0-5.19 2-5.19 4.71zm22.27-23.41h6.49v26.82c0 1.06.58 1.63 1.92 1.63a12.91 12.91 0 002.45-.24l.53 5.53a53.39 53.39 0 01-5.48.38c-3.65 0-5.91-1.92-5.91-5.53zM386.93 169a5.91 5.91 0 006.1 4.9 9 9 0 006.34-2.35l3.22 4.9a15 15 0 01-9.76 3.37c-6.92 0-12.64-4.81-12.64-12.88v-.29c0-7.4 5-12.93 12.16-12.93 6.63 0 11.53 5 11.53 12.35V169zm0-4.9h10.14a4.83 4.83 0 00-4.95-4.76 5 5 0 00-5.12 4.74zm34.61 7.14a11.64 11.64 0 007.35 3c2 0 3.56-.53 3.56-2 0-1.2-1-1.68-3.08-2.21a43 43 0 01-6.25-1.78 6.76 6.76 0 01-4.42-6.54c0-5.38 4.76-8 10.33-8 4.23 0 7.93 1.54 9.95 3.56l-4.13 4.28a8.64 8.64 0 00-5.77-2.31c-1.78 0-3.56.62-3.56 2.11 0 1.15 1.1 1.59 3 2.07a35.42 35.42 0 017.21 2.31 6.64 6.64 0 013.51 6c0 5.34-4.56 8.07-10.14 8.07-4.08 0-8.84-1.54-11.34-3.8zm27.87-2.24a5.91 5.91 0 006.1 4.9 9 9 0 006.34-2.35l3.22 4.9a15 15 0 01-9.76 3.37c-6.92 0-12.64-4.81-12.64-12.88v-.29c0-7.4 5-12.93 12.16-12.93 6.63 0 11.53 5 11.53 12.35V169zm0-4.9h10.19a4.83 4.83 0 00-4.95-4.76 5 5 0 00-5.19 4.74zm36.19-3.63h-1.15c-3.7 0-7 1.25-7 6.63v12.21H471v-25.13h6.49V157a7.79 7.79 0 016.68-3.27h1.44zm9.4 18.84l-7.69-25.13h7.21l4.52 17.3 4.61-17.3h7.11l-7.64 25.13zm22.66-34.84a4.08 4.08 0 11-4.08 4.08 4.08 4.08 0 014.08-4.08zm3.27 34.84h-6.49v-25.13h6.49zm4.76-12.64c0-7.4 5.09-13 12.16-13 5.14 0 9.28 2.55 10.91 6.49l-5.76 2.96a5.14 5.14 0 00-5-3.41c-3.94 0-5.62 3.61-5.62 6.92v.29c0 3.27 1.68 6.87 5.62 6.87a5.14 5.14 0 005-3.41l5.77 2.93c-1.63 3.94-5.91 6.49-11 6.49-7.07 0-12.06-5.58-12.06-13zm32.73 2.33a5.91 5.91 0 006.1 4.9 9 9 0 006.34-2.35l3.22 4.9a15 15 0 01-9.76 3.37c-6.92 0-12.64-4.81-12.64-12.88v-.29c0-7.4 5-12.93 12.16-12.93 6.63 0 11.53 5 11.53 12.35V169zm0-4.9h10.14a4.83 4.83 0 00-4.95-4.76 5 5 0 00-5.14 4.74z"/><path fill="#004a1e" d="M51.88 516.93h324.48v46.11H51.88z"/><path fill="#00823b" d="M51.88 511.61h324.48v46.11H51.88z"/><path class="cls-1" d="M97.14 526.39h7.1a5.64 5.64 0 016 5.88c0 3.37-2.54 5.88-6.24 5.88h-3.22v6h-3.6zm6.14 3.25h-2.54v5.28h2.54c2 0 3.22-.91 3.22-2.59v-.1c0-1.68-1.25-2.59-3.23-2.59zm16.79 4.56h-.61c-2 0-3.68.66-3.68 3.5v6.44h-3.42v-13.26h3.42v1.5a4.11 4.11 0 013.53-1.72h.76zm14.28 3.33c0 3.93-2.61 6.87-6.52 6.87s-6.52-3-6.52-6.87c0-3.91 2.59-6.87 6.52-6.87s6.52 3 6.52 6.87zm-3.5 0c0-2.16-1.07-3.7-3-3.7s-3 1.55-3 3.7c0 2.16 1.07 3.7 3 3.7s3-1.55 3-3.7zm5.33-.06c0-3.91 2.69-6.85 6.42-6.85a6 6 0 015.76 3.43l-3 1.55a2.71 2.71 0 00-2.64-1.8c-2.08 0-3 1.9-3 3.65v.15c0 1.72.89 3.63 3 3.63a2.71 2.71 0 002.64-1.8l3 1.55a6.07 6.07 0 01-5.81 3.43c-3.73 0-6.37-2.94-6.37-6.85zm17.27 1.22a3.12 3.12 0 003.22 2.59A4.76 4.76 0 00160 540l1.7 2.59a7.94 7.94 0 01-5.15 1.78 6.45 6.45 0 01-6.67-6.8v-.15c0-3.9 2.66-6.82 6.42-6.82 3.5 0 6.09 2.66 6.09 6.52v1.55zm0-2.59h5.35a2.55 2.55 0 00-2.61-2.51 2.66 2.66 0 00-2.71 2.51zm14.26 2.59a3.12 3.12 0 003.22 2.59 4.76 4.76 0 003.35-1.24l1.7 2.59a7.94 7.94 0 01-5.15 1.78 6.45 6.45 0 01-6.67-6.8v-.15c0-3.9 2.66-6.82 6.42-6.82 3.5 0 6.09 2.66 6.09 6.52v1.55zm0-2.59h5.35a2.55 2.55 0 00-2.61-2.51 2.66 2.66 0 00-2.72 2.51zm10.73 1.35c0-3.93 2.33-6.82 5.83-6.82a4.39 4.39 0 013.35 1.4v-5.63H191v17.75h-3.42V543a4.21 4.21 0 01-3.27 1.4c-3.5 0-5.91-2.89-5.91-6.82zm9.28-1.17a2.5 2.5 0 00-2.72-2.48c-2 0-3 1.55-3 3.65v.13c0 2.1 1.07 3.65 3 3.65a2.5 2.5 0 002.74-2.49zm17.02 3.91c0 .63.28 1.12 1.47 1.12a8.55 8.55 0 001.7-.15l.3 3a27.22 27.22 0 01-3.14.23c-2.36 0-3.75-1-3.75-3.37v-7.08h-2.38v-3.07h2.38v-3.75l3.42-.91v4.67h3.47v3.07h-3.47zm18.26-2.66c0 3.93-2.61 6.87-6.52 6.87s-6.52-3-6.52-6.87c0-3.91 2.59-6.87 6.52-6.87s6.52 3 6.52 6.87zm-3.5 0c0-2.16-1.07-3.7-3-3.7s-3 1.55-3 3.7c0 2.16 1.07 3.7 3 3.7s3-1.55 3-3.7zm15.56-6.65V532a4.39 4.39 0 013.35-1.4c3.5 0 5.83 2.89 5.83 6.82v.13c0 3.93-2.41 6.82-5.91 6.82a4.21 4.21 0 01-3.27-1.4v5.33h-3.42v-17.42zm-.1 7.86a2.5 2.5 0 002.74 2.49c2 0 3-1.55 3-3.65v-.13c0-2.1-1.07-3.65-3-3.65a2.5 2.5 0 00-2.74 2.49zm15.62 5.66c-2.41 0-4.59-1.52-4.59-4.16 0-2.13 1.4-3.55 3.73-3.88l4-.56v-.43c0-1.17-.79-1.7-2.08-1.7a8.94 8.94 0 00-3.91 1.07l-1.34-2.64a11.2 11.2 0 015.38-1.47c2.44 0 5.38.66 5.38 4.26v5.68c0 .79.43 1.07 1.14 1.37l-1.55 2.46a3 3 0 01-2.49-1.5 4.59 4.59 0 01-3.67 1.5zm.41-5.61c-.84.13-1.4.61-1.4 1.37a1.61 1.61 0 001.8 1.55 2.22 2.22 0 002.36-2.44v-.91zm12.07 5.89l.1-.43h-.25l-4.08-13.37h3.8l2.43 9.18 2.38-9.18h3.75l-4.57 15.22c-.58 2-2.13 2.51-4.13 2.51a22.39 22.39 0 01-3.12-.25l.71-3a12.26 12.26 0 001.83.15 1 1 0 001.15-.83zm21.21-.54h-3.42v-7.71c0-1.9-.89-2.56-2-2.56-1.32 0-2.33.91-2.33 3v7.23h-3.42v-13.22h3.42V532a4.44 4.44 0 013.4-1.42 3.84 3.84 0 013.43 1.8 4.67 4.67 0 014-1.8 4.44 4.44 0 014.72 4.46v9.06h-3.47v-7.71c0-1.9-.89-2.56-2-2.56-1.32 0-2.33.91-2.33 3zm13.73-5.45a3.12 3.12 0 003.22 2.59 4.76 4.76 0 003.35-1.24l1.7 2.59a7.94 7.94 0 01-5.15 1.78 6.45 6.45 0 01-6.67-6.8v-.15c0-3.9 2.66-6.82 6.42-6.82 3.5 0 6.09 2.66 6.09 6.52v1.55zm0-2.59h5.35a2.55 2.55 0 00-2.61-2.51 2.66 2.66 0 00-2.74 2.51zm11.41-5.22h3.42V532a4.5 4.5 0 013.37-1.4 4.35 4.35 0 014.59 4.57v9h-3.42v-7.71c0-1.88-.89-2.59-2.08-2.59-1.4 0-2.46 1-2.46 3v7.25h-3.42zm19.38 9.31c0 .63.28 1.12 1.47 1.12a8.55 8.55 0 001.7-.15l.3 3a27.22 27.22 0 01-3.14.23c-2.36 0-3.75-1-3.75-3.37v-7.08H323v-3.07h2.38v-3.75l3.42-.91v4.67h3.47v3.07h-3.47z"/><path class="cls-2" d="M65.34 238.85v-11.44h2.13v11.64a6.21 6.21 0 01-6.57 6.37 6.21 6.21 0 01-6.54-6.37v-11.64h2.16v11.44c0 3.32 2.11 4.69 4.39 4.69s4.43-1.37 4.43-4.69zm5.07 4.74l1.27-1.47a6 6 0 003.83 1.55c1.45 0 2.54-.66 2.54-1.9s-1.37-1.67-3.09-2.13-3.96-1.1-3.96-3.71c0-2.13 2-3.68 4.62-3.68a6.84 6.84 0 014.38 1.58l-1.22 1.4a4.64 4.64 0 00-3.09-1.23c-1.67 0-2.51.74-2.51 1.88 0 .91.71 1.37 1.83 1.67.66.18 1.42.41 2.08.61 1.7.53 3.09 1.42 3.09 3.45 0 2.61-2.31 3.8-4.77 3.8a7.61 7.61 0 01-5-1.82zm14.3-4.11c.15 2.38 1.65 4.11 3.93 4.11a5.08 5.08 0 003.36-1.24l1.07 1.5a7.06 7.06 0 01-4.49 1.57c-3.68 0-6-2.77-6-6.57s2.26-6.59 5.76-6.59c3.3 0 5.4 2.77 5.4 6.57v.66zm0-1.67h6.7c-.08-2-1.17-3.73-3.17-3.73a3.68 3.68 0 00-3.51 3.73zm22.04 4.19c0 .84.15 1.55 1.62 1.55a11.06 11.06 0 001.57-.15l.23 1.83a18.4 18.4 0 01-2.26.18c-2 0-3.25-.79-3.25-2.94v-8.14h-2.38v-1.83h2.38v-4.13l2.08-.74v4.87h3.53v1.83h-3.53zm6.13-14.59H115V234a4.36 4.36 0 013.7-1.7 4 4 0 014.23 4.31v8.6h-2.08v-7.94c0-2.23-1.14-3.07-2.61-3.07a3.24 3.24 0 00-3.25 3.5v7.51h-2.08zm14.83 0a1.55 1.55 0 011.52 1.55 1.53 1.53 0 11-3.07 0 1.55 1.55 0 011.55-1.55zm1 17.75h-2.08v-12.65h2.08zm2.76-1.57l1.27-1.47a6 6 0 003.83 1.55c1.45 0 2.54-.66 2.54-1.9s-1.37-1.67-3.09-2.13-3.93-1.09-3.93-3.7c0-2.13 2-3.68 4.62-3.68a6.84 6.84 0 014.39 1.57l-1.22 1.4a4.64 4.64 0 00-3.12-1.22c-1.67 0-2.51.74-2.51 1.88 0 .91.71 1.37 1.83 1.67.66.18 1.42.41 2.08.61 1.7.53 3.09 1.42 3.09 3.45 0 2.61-2.31 3.8-4.77 3.8a7.61 7.61 0 01-5.01-1.83zm30.53-4.74c0 3.8-2.33 6.57-5.83 6.57s-5.83-2.77-5.83-6.57 2.33-6.59 5.83-6.59S162 235 162 238.85zm-2.16.08v-.15c0-2.54-1.27-4.69-3.68-4.69s-3.68 2.16-3.68 4.69v.15c0 2.49 1.27 4.67 3.68 4.67s3.72-2.19 3.72-4.67zm7.46-6.42V234a4.44 4.44 0 013.7-1.7c3.27 0 5.38 2.77 5.38 6.59s-2.11 6.57-5.38 6.57a4.44 4.44 0 01-3.7-1.7V249h-2.08v-16.49zm6.92 6.26c0-2.64-1.27-4.67-3.6-4.67s-3.35 1.6-3.35 3.7v2.05c0 2.11 1.14 3.7 3.35 3.7s3.6-2 3.6-4.67zm8.33 3.23c0 .84.15 1.55 1.62 1.55a11.08 11.08 0 001.57-.15l.23 1.83a18.4 18.4 0 01-2.26.18c-2 0-3.25-.79-3.25-2.94v-8.14h-2.38v-1.83h2.38v-4.13l2.08-.74v4.87h3.53v1.83h-3.53zm7.19-14.59a1.55 1.55 0 011.52 1.55 1.53 1.53 0 11-3.07 0 1.55 1.55 0 011.55-1.55zm1 17.75h-2.08v-12.65h2.08zm14.77-6.31c0 3.8-2.33 6.57-5.83 6.57s-5.83-2.77-5.83-6.57 2.33-6.59 5.83-6.59 5.83 2.74 5.83 6.59zm-2.16.08v-.15c0-2.54-1.27-4.69-3.68-4.69s-3.68 2.16-3.68 4.69v.15c0 2.49 1.27 4.67 3.68 4.67s3.68-2.19 3.68-4.67zm5.34-6.42h2.08V234a4.36 4.36 0 013.7-1.7 4 4 0 014.23 4.31v8.6h-2.08v-7.94c0-2.23-1.14-3.07-2.61-3.07a3.25 3.25 0 00-3.25 3.5v7.51h-2.08zm17.26 12.91c-2.51 0-4.41-1.47-4.41-3.83a3.54 3.54 0 013.37-3.58l4.46-.61v-.81c0-1.93-1.24-2.51-2.81-2.51a7.7 7.7 0 00-3.65 1l-.79-1.65a9.56 9.56 0 014.64-1.17c3.07 0 4.69 1.37 4.69 4v5.91a1.72 1.72 0 001 1.72l-1.17 1.5a2.5 2.5 0 01-1.7-1.52 4.7 4.7 0 01-3.63 1.55zm0-5.89c-1.4.2-2.31.66-2.31 2a2.34 2.34 0 002.59 2.28c1.55 0 3.12-1 3.12-2.46V239zm9.31-12.12h2.08v14.91c0 .84.25 1.27 1.22 1.27.53 0 1-.05 1.29-.08l.2 1.75a20.19 20.19 0 01-2.11.15c-1.5 0-2.69-.66-2.69-2.49zm15.74 5.1V234a4.44 4.44 0 013.7-1.7c3.27 0 5.38 2.77 5.38 6.59s-2.11 6.57-5.38 6.57a4.44 4.44 0 01-3.7-1.7V249h-2.08v-16.49zm6.92 6.26c0-2.64-1.27-4.67-3.6-4.67s-3.35 1.6-3.35 3.7v2.05c0 2.11 1.14 3.7 3.35 3.7s3.6-2 3.6-4.67zm8.9 6.65c-2.51 0-4.41-1.47-4.41-3.83a3.54 3.54 0 013.37-3.58l4.46-.61v-.81c0-1.93-1.24-2.51-2.81-2.51a7.7 7.7 0 00-3.65 1l-.79-1.65a9.56 9.56 0 014.64-1.17c3.07 0 4.69 1.37 4.69 4v5.91a1.72 1.72 0 001 1.72l-1.17 1.5a2.5 2.5 0 01-1.7-1.52 4.7 4.7 0 01-3.63 1.55zm0-5.89c-1.4.2-2.31.66-2.31 2a2.34 2.34 0 002.59 2.28c1.55 0 3.12-1 3.12-2.46V239zm15.87-5.17h-.33c-2.13 0-4.06.86-4.06 4.31v6.49h-2.08v-12.65h2.08v2a3.94 3.94 0 013.78-2.23h.61zm6.2 11.06c-2.51 0-4.41-1.47-4.41-3.83a3.54 3.54 0 013.37-3.58l4.46-.61v-.81c0-1.93-1.24-2.51-2.82-2.51a7.7 7.7 0 00-3.65 1l-.79-1.65a9.56 9.56 0 014.64-1.17c3.07 0 4.69 1.37 4.69 4v5.91a1.72 1.72 0 001 1.72l-1.17 1.5a2.5 2.5 0 01-1.7-1.52 4.7 4.7 0 01-3.62 1.55zm0-5.89c-1.4.2-2.31.66-2.31 2a2.34 2.34 0 002.59 2.28c1.55 0 3.12-1 3.12-2.46V239zm13.63-7.28a4.28 4.28 0 013.58 1.7v-1.45h2.08v12.76c0 3.14-2.76 4.06-5.43 4.06a10.94 10.94 0 01-4.69-1l.71-1.72a10.27 10.27 0 004 .89c2.13 0 3.3-.79 3.3-2.74v-2.41a4.28 4.28 0 01-3.58 1.7c-3.14 0-5.12-2.56-5.12-5.89s2.01-5.9 5.15-5.9zm3.63 5.83c0-2.26-1-4-3.25-4s-3.35 1.78-3.35 4v.1c0 2.21 1 4 3.35 4s3.25-1.72 3.25-4zm12.35-3.72h-.33c-2.13 0-4.06.86-4.06 4.31v6.49H312v-12.65h2.08v2a3.94 3.94 0 013.78-2.23h.61zm6.19 11.06c-2.51 0-4.41-1.47-4.41-3.83a3.54 3.54 0 013.37-3.58l4.46-.61v-.81c0-1.93-1.24-2.51-2.81-2.51a7.7 7.7 0 00-3.65 1l-.79-1.65a9.56 9.56 0 014.64-1.17c3.07 0 4.69 1.37 4.69 4v5.91a1.72 1.72 0 001 1.72l-1.17 1.5a2.5 2.5 0 01-1.7-1.52 4.7 4.7 0 01-3.63 1.55zm0-5.89c-1.4.2-2.31.66-2.31 2a2.34 2.34 0 002.59 2.28c1.55 0 3.12-1 3.12-2.46V239zm11.48-7.02V234a4.44 4.44 0 013.7-1.7c3.27 0 5.38 2.77 5.38 6.59s-2.11 6.57-5.38 6.57a4.44 4.44 0 01-3.7-1.7V249h-2.08v-16.49zm6.92 6.26c0-2.64-1.27-4.67-3.6-4.67s-3.35 1.6-3.35 3.7v2.05c0 2.11 1.14 3.7 3.35 3.7s3.6-2 3.6-4.67zm5.36-11.36h2.08V234a4.36 4.36 0 013.7-1.7 4 4 0 014.23 4.31v8.6h-2.08v-7.94c0-2.23-1.14-3.07-2.61-3.07a3.24 3.24 0 00-3.25 3.5v7.51h-2.08zm23.9 14.59c0 .84.15 1.55 1.62 1.55a11.08 11.08 0 001.57-.15l.23 1.83a18.4 18.4 0 01-2.26.18c-2 0-3.25-.79-3.25-2.94v-8.14h-2.38v-1.83h2.38v-4.13l2.08-.74v4.87h3.53v1.83h-3.53zm16.79-3.15c0 3.8-2.33 6.57-5.83 6.57s-5.83-2.77-5.83-6.57 2.33-6.59 5.83-6.59 5.83 2.74 5.83 6.59zm-2.16.08v-.15c0-2.54-1.27-4.69-3.68-4.69s-3.68 2.16-3.68 4.69v.15c0 2.49 1.27 4.67 3.68 4.67s3.7-2.19 3.7-4.67zm16.51-6.68a4.28 4.28 0 013.58 1.7v-1.45h2.08v12.76c0 3.14-2.76 4.06-5.43 4.06a10.94 10.94 0 01-4.69-1l.71-1.72a10.27 10.27 0 004 .89c2.13 0 3.3-.79 3.3-2.74v-2.41a4.28 4.28 0 01-3.58 1.7c-3.14 0-5.12-2.56-5.12-5.89s2.01-5.9 5.15-5.9zm3.63 5.83c0-2.26-1-4-3.25-4s-3.35 1.78-3.35 4v.1c0 2.21 1 4 3.35 4s3.25-1.72 3.25-4zm6.97-10.67a1.55 1.55 0 011.52 1.55 1.53 1.53 0 11-3.07 0 1.55 1.55 0 011.55-1.55zm1 17.75H413v-12.65h2.08zm6.59 0l-4-12.66H420l3 10.73 3-10.73h2.36l-4 12.66zm10.45-5.68c.15 2.38 1.65 4.11 3.93 4.11a5.08 5.08 0 003.32-1.24l1.07 1.5a7.06 7.06 0 01-4.49 1.57c-3.68 0-6-2.77-6-6.57s2.26-6.59 5.76-6.59c3.3 0 5.4 2.77 5.4 6.57v.66zm0-1.67h6.7c-.08-2-1.17-3.73-3.17-3.73a3.68 3.68 0 00-3.51 3.73zm17.37-5.3h2.36L455 243l3-10.45h2.33l-4.62 14.56c-.56 1.78-1.8 2.23-3.35 2.23a14.78 14.78 0 01-2.26-.2l.31-1.83a9.63 9.63 0 001.67.18 1.43 1.43 0 001.6-1.27l.13-.58zm23.92 6.34c0 3.8-2.33 6.57-5.83 6.57s-5.83-2.77-5.83-6.57 2.33-6.59 5.83-6.59 5.83 2.74 5.83 6.59zm-2.16.08v-.15c0-2.54-1.27-4.69-3.68-4.69s-3.68 2.16-3.68 4.69v.15c0 2.49 1.27 4.67 3.68 4.67s3.68-2.19 3.68-4.67zm15.23 6.23h-2.08v-1.45a4.36 4.36 0 01-3.7 1.7 4 4 0 01-4.24-4.31v-8.6h2.08v7.94c0 2.23 1.14 3.07 2.61 3.07a3.17 3.17 0 003.25-3.5v-7.51h2.08zm10.32-10.8h-.33c-2.13 0-4.06.86-4.06 4.31v6.49h-2.08v-12.65h2.08v2a3.94 3.94 0 013.78-2.23h.61zm19.25 10.8H514v-1.45a4.36 4.36 0 01-3.7 1.7 4 4 0 01-4.24-4.31v-8.6h2.08v7.94c0 2.23 1.14 3.07 2.61 3.07A3.17 3.17 0 00514 240v-7.51h2.08zm2.74-1.57l1.27-1.47a6 6 0 003.83 1.55c1.45 0 2.54-.66 2.54-1.9s-1.37-1.67-3.09-2.13-3.93-1.09-3.93-3.7c0-2.13 2-3.68 4.62-3.68a6.84 6.84 0 014.39 1.57l-1.22 1.4a4.64 4.64 0 00-3.12-1.22c-1.67 0-2.51.74-2.51 1.88 0 .91.71 1.37 1.83 1.67.66.18 1.42.41 2.08.61 1.7.53 3.09 1.42 3.09 3.45 0 2.61-2.31 3.8-4.77 3.8a7.61 7.61 0 01-5.01-1.83zm14.3-4.11c.15 2.38 1.65 4.11 3.93 4.11a5.08 5.08 0 003.32-1.24l1.07 1.5a7.06 7.06 0 01-4.49 1.57c-3.68 0-6-2.77-6-6.57s2.26-6.59 5.76-6.59c3.3 0 5.4 2.77 5.4 6.57v.66zm0-1.67h6.7c-.08-2-1.17-3.73-3.17-3.73a3.68 3.68 0 00-3.51 3.73zm18.52-3.45h-.33c-2.13 0-4.06.86-4.06 4.31v6.49h-2.08v-12.65h2.08v2a3.94 3.94 0 013.78-2.23h.61zm1.59 9.23l1.27-1.47a6 6 0 003.83 1.55c1.45 0 2.54-.66 2.54-1.9s-1.37-1.67-3.09-2.13-3.93-1.09-3.93-3.7c0-2.13 2-3.68 4.62-3.68a6.84 6.84 0 014.39 1.57l-1.22 1.4a4.64 4.64 0 00-3.12-1.22c-1.67 0-2.51.74-2.51 1.88 0 .91.71 1.37 1.83 1.67.66.18 1.42.41 2.08.61 1.7.53 3.09 1.42 3.09 3.45 0 2.61-2.31 3.8-4.77 3.8a7.61 7.61 0 01-5.01-1.83zm29.15 1.57h-2.08v-8c0-2.26-1.14-3-2.54-3s-2.79 1.07-2.79 3.53v7.48h-2.08v-12.66H575V234a3.9 3.9 0 013.32-1.7 3.75 3.75 0 013.42 2.11 4.33 4.33 0 013.86-2.11 4.08 4.08 0 014.26 4.24v8.67h-2.08v-8c0-2.26-1.22-3-2.59-3s-2.79 1.07-2.79 3.53zm22.21-6.31c0 3.8-2.33 6.57-5.83 6.57s-5.83-2.77-5.83-6.57 2.33-6.59 5.83-6.59 5.83 2.74 5.83 6.59zm-2.16.08v-.15c0-2.54-1.27-4.69-3.68-4.69s-3.68 2.16-3.68 4.69v.15c0 2.49 1.27 4.67 3.68 4.67s3.68-2.19 3.68-4.67zm11.81-4.57h-.33c-2.13 0-4.06.86-4.06 4.31v6.49h-2.08v-12.65h2.08v2a3.94 3.94 0 013.78-2.23h.61zm3.78 5.12c.15 2.38 1.65 4.11 3.93 4.11a5.08 5.08 0 003.32-1.24l1.07 1.5a7.06 7.06 0 01-4.49 1.57c-3.68 0-6-2.77-6-6.57s2.26-6.59 5.76-6.59c3.3 0 5.4 2.77 5.4 6.57v.66zm0-1.67h6.7c-.08-2-1.17-3.73-3.17-3.73a3.68 3.68 0 00-3.47 3.73zm19.87-10.4a1.55 1.55 0 011.52 1.55 1.53 1.53 0 11-3.07 0 1.55 1.55 0 011.55-1.55zm1 17.75h-2.07v-12.65h2.08zm3.84-12.65h2.08V234a4.36 4.36 0 013.7-1.7 4 4 0 014.23 4.31v8.6h-2.08v-7.94c0-2.23-1.14-3.07-2.61-3.07a3.25 3.25 0 00-3.25 3.5v7.51h-2.08zm16.58 0h2.51v1.83h-2.51v10.83h-2.08v-10.84h-2.11v-1.83h2.11v-2.36c0-2.18 1.47-3 3.47-3a11.77 11.77 0 012 .18l-.15 1.78c-.48-.05-1.4-.1-1.8-.1-1.19 0-1.47.74-1.47 1.52zm15.8 6.34c0 3.8-2.33 6.57-5.83 6.57s-5.83-2.77-5.83-6.57 2.33-6.59 5.83-6.59 5.83 2.74 5.83 6.59zm-2.16.08v-.15c0-2.54-1.27-4.69-3.68-4.69s-3.68 2.16-3.68 4.69v.15c0 2.49 1.27 4.67 3.68 4.67s3.69-2.19 3.69-4.67zm11.81-4.57h-.33c-2.13 0-4.06.86-4.06 4.31v6.49h-2.08v-12.65h2.08v2a3.94 3.94 0 013.78-2.23h.61zm12.03 10.8h-2.08v-8c0-2.26-1.14-3-2.54-3s-2.79 1.07-2.79 3.53v7.48h-2.08v-12.66h2.08V234a3.9 3.9 0 013.32-1.7 3.75 3.75 0 013.42 2.11 4.33 4.33 0 013.86-2.11 4.08 4.08 0 014.26 4.24v8.67h-2.08v-8c0-2.26-1.22-3-2.59-3s-2.79 1.07-2.79 3.53zm14.72.26c-2.51 0-4.41-1.47-4.41-3.83a3.54 3.54 0 013.37-3.58l4.46-.61v-.81c0-1.93-1.24-2.51-2.81-2.51a7.7 7.7 0 00-3.65 1l-.79-1.65a9.56 9.56 0 014.64-1.17c3.07 0 4.69 1.37 4.69 4v5.91a1.72 1.72 0 001 1.72l-1.17 1.5a2.5 2.5 0 01-1.7-1.52 4.7 4.7 0 01-3.63 1.55zm0-5.89c-1.4.2-2.31.66-2.31 2a2.34 2.34 0 002.59 2.28c1.55 0 3.12-1 3.12-2.46V239zm12.44 2.47c0 .84.15 1.55 1.62 1.55a11.08 11.08 0 001.57-.15l.23 1.83a18.4 18.4 0 01-2.26.18c-2 0-3.25-.79-3.25-2.94v-8.14h-2.38v-1.83h2.38v-4.13l2.08-.74v4.87h3.53v1.83h-3.53zm7.19-14.59a1.55 1.55 0 011.52 1.55 1.53 1.53 0 11-3.07 0 1.55 1.55 0 011.55-1.55zm1 17.75h-2.08v-12.65h2.08zm14.77-6.31c0 3.8-2.33 6.57-5.83 6.57s-5.83-2.77-5.83-6.57 2.33-6.59 5.83-6.59 5.83 2.74 5.83 6.59zm-2.16.08v-.15c0-2.54-1.27-4.69-3.68-4.69s-3.68 2.16-3.68 4.69v.15c0 2.49 1.27 4.67 3.68 4.67s3.68-2.19 3.68-4.67zm5.34-6.42h2.08V234a4.36 4.36 0 013.7-1.7 4 4 0 014.23 4.31v8.6H758v-7.94c0-2.23-1.14-3.07-2.61-3.07a3.25 3.25 0 00-3.25 3.5v7.51h-2.08zm15.35 9.49a1.7 1.7 0 11-1.7 1.7 1.7 1.7 0 011.7-1.7zM54.54 257.85h10.62v1.88h-8.44v5.83h7.76v1.88h-7.76v8.17h-2.18zM79 269.29c0 3.8-2.33 6.57-5.83 6.57s-5.83-2.77-5.83-6.57 2.33-6.59 5.83-6.59 5.83 2.73 5.83 6.59zm-2.16.08v-.15c0-2.54-1.27-4.69-3.68-4.69s-3.68 2.16-3.68 4.69v.15c0 2.49 1.27 4.67 3.68 4.67s3.69-2.19 3.69-4.67zm11.82-4.57h-.33c-2.13 0-4.06.86-4.06 4.31v6.49h-2.08v-12.65h2.08v2a3.94 3.94 0 013.73-2.23h.61zm10.75 5.12c.15 2.38 1.65 4.11 3.93 4.11a5.08 5.08 0 003.32-1.24l1.07 1.5a7.06 7.06 0 01-4.49 1.57c-3.68 0-6-2.77-6-6.57s2.26-6.59 5.76-6.59c3.3 0 5.4 2.77 5.4 6.57v.66zm0-1.67h6.7c-.08-2-1.17-3.73-3.17-3.73a3.68 3.68 0 00-3.5 3.73zm14.69.68l-3.88-6h2.38l2.71 4.36 2.59-4.36h2.41l-3.86 6 4.39 6.67h-2.49l-3.17-4.92-2.89 4.92h-2.46zm12.53 6.93c-2.51 0-4.41-1.47-4.41-3.83a3.54 3.54 0 013.37-3.58l4.46-.61V267c0-1.93-1.24-2.51-2.81-2.51a7.7 7.7 0 00-3.65 1l-.79-1.65a9.56 9.56 0 014.64-1.17c3.07 0 4.69 1.37 4.69 4v5.91a1.72 1.72 0 001 1.72l-1.17 1.5a2.5 2.5 0 01-1.7-1.52 4.7 4.7 0 01-3.63 1.58zm0-5.89c-1.4.2-2.31.66-2.31 2a2.34 2.34 0 002.59 2.28c1.55 0 3.12-1 3.12-2.46v-2.28zm18.89 5.63h-2.08v-8c0-2.26-1.14-3-2.54-3s-2.79 1.07-2.79 3.53v7.48H136v-12.66h2.08v1.45a3.9 3.9 0 013.32-1.7 3.75 3.75 0 013.42 2.11 4.33 4.33 0 013.86-2.11 4.08 4.08 0 014.26 4.24v8.67h-2.04v-8c0-2.26-1.22-3-2.59-3s-2.79 1.07-2.79 3.53zm13.35-12.65v1.45a4.44 4.44 0 013.7-1.7c3.27 0 5.38 2.77 5.38 6.59s-2.11 6.57-5.38 6.57a4.44 4.44 0 01-3.7-1.7v5.3h-2.08v-16.51zm6.92 6.26c0-2.64-1.27-4.67-3.6-4.67s-3.35 1.6-3.35 3.7v2.05c0 2.11 1.14 3.7 3.35 3.7s3.6-2 3.6-4.67zm5.32-11.36h2.08v14.91c0 .84.25 1.27 1.22 1.27.53 0 1-.05 1.29-.08l.2 1.75a20.19 20.19 0 01-2.11.15c-1.5 0-2.69-.66-2.69-2.49zm8.16 12.07c.15 2.38 1.65 4.11 3.93 4.11a5.08 5.08 0 003.32-1.24l1.07 1.5a7.06 7.06 0 01-4.49 1.57c-3.68 0-6-2.77-6-6.57s2.26-6.59 5.76-6.59c3.3 0 5.4 2.77 5.4 6.57v.66zm0-1.67H186c-.08-2-1.17-3.73-3.17-3.73a3.68 3.68 0 00-3.54 3.73zm15.17 6.42a3 3 0 01-3 3.22h-.35L191 277h.3c.66-.1 1.29-.33 1.29-1v-.08h-.2a1.62 1.62 0 01-1.67-1.65 1.7 1.7 0 011.7-1.7 2 2 0 012.02 2.1zm9.04-11.72h2.36L209 273.4l3-10.45h2.33l-4.62 14.56c-.56 1.78-1.8 2.23-3.35 2.23a14.94 14.94 0 01-2.26-.2l.31-1.83a9.63 9.63 0 001.67.18 1.43 1.43 0 001.6-1.27l.13-.58zm23.91 6.34c0 3.8-2.33 6.57-5.83 6.57s-5.83-2.77-5.83-6.57 2.33-6.59 5.83-6.59 5.83 2.73 5.83 6.59zm-2.16.08v-.15c0-2.54-1.27-4.69-3.68-4.69s-3.68 2.16-3.68 4.69v.15c0 2.49 1.27 4.67 3.68 4.67s3.69-2.19 3.69-4.67zm15.23 6.23h-2.08v-1.45a4.36 4.36 0 01-3.7 1.7 4 4 0 01-4.24-4.31v-8.6h2.08v7.94c0 2.23 1.14 3.07 2.61 3.07a3.17 3.17 0 003.25-3.5v-7.51h2.08zm12.1-6.26c0 2.54 1.24 4.69 3.68 4.69a3.62 3.62 0 003.27-2.13l1.72 1a5.37 5.37 0 01-5 3c-3.5 0-5.83-2.74-5.83-6.57s2.33-6.59 5.83-6.59a5.37 5.37 0 015 3l-1.72 1a3.62 3.62 0 00-3.27-2.13c-2.44 0-3.68 2.16-3.68 4.69zm22.44-.05c0 3.8-2.33 6.57-5.83 6.57s-5.83-2.77-5.83-6.57 2.33-6.59 5.83-6.59 5.83 2.73 5.83 6.59zm-2.16.08v-.15c0-2.54-1.27-4.69-3.68-4.69s-3.68 2.16-3.68 4.69v.15c0 2.49 1.27 4.67 3.68 4.67s3.66-2.19 3.66-4.67zM288 275.6h-2v-1.45a4.36 4.36 0 01-3.7 1.7 4 4 0 01-4.24-4.31v-8.6h2.08v7.94c0 2.23 1.14 3.07 2.61 3.07a3.17 3.17 0 003.25-3.5v-7.51h2zm3.85-17.75h2.08v14.91c0 .84.25 1.27 1.22 1.27.53 0 1-.05 1.29-.08l.2 1.75a20.19 20.19 0 01-2.11.15c-1.5 0-2.69-.66-2.69-2.49zM307 274.16a4.43 4.43 0 01-3.7 1.7c-3.27 0-5.38-2.74-5.38-6.57s2.11-6.59 5.38-6.59a4.43 4.43 0 013.7 1.7v-6.54h2.08v17.74H307zm-6.92-4.82c0 2.64 1.27 4.67 3.6 4.67s3.35-1.6 3.35-3.7v-2.05c0-2.11-1.14-3.7-3.35-3.7s-3.6 2-3.6 4.67zm22.92 3.12c0 .84.15 1.55 1.62 1.55a11.06 11.06 0 001.57-.15l.23 1.83a18.4 18.4 0 01-2.26.18c-2 0-3.25-.79-3.25-2.94v-8.14h-2.38v-1.83H321v-4.13l2.08-.74v4.87h3.53v1.83H323zm7.37-2.54c.15 2.38 1.65 4.11 3.93 4.11a5.08 5.08 0 003.32-1.24l1.07 1.5a7.06 7.06 0 01-4.49 1.57c-3.68 0-6-2.77-6-6.57s2.26-6.59 5.76-6.59c3.3 0 5.4 2.77 5.4 6.57v.66zm0-1.67h6.7c-.08-2-1.17-3.73-3.17-3.73a3.68 3.68 0 00-3.5 3.73zm11.97-10.4h2.08v14.91c0 .84.25 1.27 1.22 1.27.53 0 1-.05 1.29-.08l.2 1.75a20.19 20.19 0 01-2.11.15c-1.5 0-2.69-.66-2.69-2.49zm6.97 0h2.08v14.91c0 .84.25 1.27 1.22 1.27.53 0 1-.05 1.29-.08l.2 1.75a20.19 20.19 0 01-2.11.15c-1.5 0-2.69-.66-2.69-2.49zm16.94 14.61c0 .84.15 1.55 1.62 1.55a11.08 11.08 0 001.57-.15l.23 1.83a18.4 18.4 0 01-2.26.18c-2 0-3.25-.79-3.25-2.94v-8.14h-2.38v-1.83h2.38v-4.13l2.08-.74v4.87h3.53v1.83h-3.53zm6.13-14.61h2.08v6.54a4.36 4.36 0 013.7-1.7 4 4 0 014.24 4.31v8.6h-2.08v-7.94c0-2.23-1.14-3.07-2.61-3.07a3.24 3.24 0 00-3.25 3.5v7.51h-2.08zm15.29 12.07c.15 2.38 1.65 4.11 3.93 4.11a5.08 5.08 0 003.32-1.24l1.07 1.5a7.06 7.06 0 01-4.49 1.57c-3.68 0-6-2.77-6-6.57s2.26-6.59 5.76-6.59c3.3 0 5.4 2.77 5.4 6.57v.66zm0-1.67h6.7c-.08-2-1.17-3.73-3.17-3.73a3.68 3.68 0 00-3.5 3.73zm21.54 7.35h-2.08v-8c0-2.26-1.14-3-2.54-3s-2.79 1.07-2.79 3.53v7.48h-2.08v-12.66h2.08v1.45a3.9 3.9 0 013.32-1.7 3.75 3.75 0 013.42 2.11 4.33 4.33 0 013.86-2.11 4.08 4.08 0 014.26 4.24v8.67h-2.08v-8c0-2.26-1.22-3-2.59-3s-2.79 1.07-2.79 3.53zm18.06-17.75h2.08v6.54a4.36 4.36 0 013.7-1.7 4 4 0 014.23 4.31v8.6h-2.08v-7.94c0-2.23-1.14-3.07-2.61-3.07a3.24 3.24 0 00-3.25 3.5v7.51h-2.08zm24.78 11.44c0 3.8-2.33 6.57-5.83 6.57s-5.83-2.77-5.83-6.57 2.33-6.59 5.83-6.59 5.83 2.73 5.83 6.59zm-2.16.08v-.15c0-2.54-1.27-4.69-3.68-4.69s-3.68 2.16-3.68 4.69v.15c0 2.49 1.27 4.67 3.68 4.67s3.68-2.19 3.68-4.67zm16 3.77l2.28-10.2h2.21l-3.09 12.66h-2.66l-2.56-10.15-2.61 10.15h-2.56l-3.07-12.66H456l2.21 10.2 2.66-10.2h2.36zm14-15.29H482v14.91c0 .84.25 1.27 1.22 1.27.53 0 1-.05 1.29-.08l.2 1.75a20.19 20.19 0 01-2.11.15c-1.5 0-2.69-.66-2.69-2.49zm17.65 11.44c0 3.8-2.33 6.57-5.83 6.57s-5.83-2.77-5.83-6.57 2.33-6.59 5.83-6.59 5.83 2.73 5.83 6.59zm-2.16.08v-.15c0-2.54-1.27-4.69-3.68-4.69s-3.68 2.16-3.68 4.69v.15c0 2.49 1.27 4.67 3.68 4.67s3.68-2.19 3.68-4.67zm5.34-6.42h2.08v1.45a4.36 4.36 0 013.7-1.7 4 4 0 014.23 4.31v8.6h-2.08v-7.94c0-2.23-1.14-3.07-2.61-3.07a3.25 3.25 0 00-3.25 3.5v7.51h-2.08zm18.17-.26a4.28 4.28 0 013.58 1.7v-1.45h2.08v12.76c0 3.14-2.76 4.06-5.43 4.06a10.94 10.94 0 01-4.69-1l.71-1.72a10.27 10.27 0 004 .89c2.13 0 3.3-.79 3.3-2.74v-2.41a4.28 4.28 0 01-3.58 1.7c-3.14 0-5.12-2.56-5.12-5.89s2.01-5.9 5.15-5.9zm3.63 5.83c0-2.26-1-4-3.25-4s-3.35 1.78-3.35 4v.1c0 2.21 1 4 3.35 4s3.25-1.72 3.25-4zm13.8-10.67a1.55 1.55 0 011.52 1.55 1.53 1.53 0 11-3.07 0 1.55 1.55 0 011.55-1.55zm1 17.75h-2.08v-12.65h2.08zm7.09-3.14c0 .84.15 1.55 1.62 1.55a11.06 11.06 0 001.57-.15l.23 1.83a18.4 18.4 0 01-2.26.18c-2 0-3.25-.79-3.25-2.94v-8.14h-2.38v-1.83h2.38v-4.13l2.08-.74v4.87h3.53v1.83h-3.53zm16.26 0c0 .84.15 1.55 1.62 1.55a11.08 11.08 0 001.57-.15l.23 1.83a18.4 18.4 0 01-2.26.18c-2 0-3.25-.79-3.25-2.94v-8.14h-2.38v-1.83h2.38v-4.13l2.08-.74v4.87h3.53v1.83h-3.53zm9.78 3.4c-2.51 0-4.41-1.47-4.41-3.83a3.54 3.54 0 013.37-3.58l4.46-.61V267c0-1.93-1.24-2.51-2.81-2.51a7.7 7.7 0 00-3.65 1l-.79-1.65a9.56 9.56 0 014.64-1.17c3.07 0 4.69 1.37 4.69 4v5.91a1.72 1.72 0 001 1.72l-1.17 1.5a2.5 2.5 0 01-1.7-1.52 4.7 4.7 0 01-3.63 1.58zm0-5.89c-1.4.2-2.31.66-2.31 2a2.34 2.34 0 002.59 2.28c1.55 0 3.12-1 3.12-2.46v-2.28zm11.49-.81l6-6.21h2.61l-4.82 5 5 7.63h-2.53l-4-6.24-2.28 2.33v3.91h-2.08v-17.73h2.08zm12.06.76c.15 2.38 1.65 4.11 3.93 4.11a5.08 5.08 0 003.32-1.24l1.07 1.5a7.06 7.06 0 01-4.49 1.57c-3.68 0-6-2.77-6-6.57s2.26-6.59 5.76-6.59c3.3 0 5.4 2.77 5.4 6.57v.66zm0-1.67h6.7c-.08-2-1.17-3.73-3.17-3.73a3.68 3.68 0 00-3.53 3.73zm10.89 5.75l1.27-1.47a6 6 0 003.83 1.55c1.45 0 2.54-.66 2.54-1.9s-1.37-1.67-3.09-2.13-3.93-1.09-3.93-3.7c0-2.13 2-3.68 4.62-3.68a6.84 6.84 0 014.39 1.57l-1.22 1.4a4.64 4.64 0 00-3.12-1.22c-1.67 0-2.51.74-2.51 1.88 0 .91.71 1.37 1.83 1.67.66.18 1.42.41 2.08.61 1.7.53 3.09 1.42 3.09 3.45 0 2.61-2.31 3.8-4.77 3.8a7.61 7.61 0 01-5.01-1.83zm22.62-11.05H630v1.83h-2.51v10.82h-2.08v-10.82h-2.1v-1.83h2.1v-2.36c0-2.18 1.47-3 3.47-3a11.77 11.77 0 012 .18l-.15 1.78c-.48-.05-1.4-.1-1.8-.1-1.19 0-1.47.74-1.47 1.52zm15.8 6.34c0 3.8-2.33 6.57-5.83 6.57s-5.83-2.77-5.83-6.57 2.33-6.59 5.83-6.59 5.83 2.73 5.83 6.59zm-2.16.08v-.15c0-2.54-1.27-4.69-3.68-4.69s-3.68 2.16-3.68 4.69v.15c0 2.49 1.27 4.67 3.68 4.67s3.69-2.19 3.69-4.67zM653 264.8h-.33c-2.13 0-4.06.86-4.06 4.31v6.49h-2.11v-12.65h2.08v2a3.94 3.94 0 013.78-2.23h.64zm12.57 7.66c0 .84.15 1.55 1.62 1.55a11.08 11.08 0 001.57-.15l.23 1.83a18.4 18.4 0 01-2.26.18c-2 0-3.25-.79-3.25-2.94v-8.14h-2.38v-1.83h2.38v-4.13l2.08-.74v4.87h3.53v1.83h-3.53zm6.13-14.61h2.08v6.54a4.36 4.36 0 013.7-1.7 4 4 0 014.23 4.31v8.6h-2.08v-7.94c0-2.23-1.14-3.07-2.61-3.07a3.24 3.24 0 00-3.25 3.5v7.51h-2.07zm15.3 12.07c.15 2.38 1.65 4.11 3.93 4.11a5.08 5.08 0 003.32-1.24l1.07 1.5a7.06 7.06 0 01-4.49 1.57c-3.68 0-6-2.77-6-6.57s2.26-6.59 5.76-6.59c3.3 0 5.4 2.77 5.4 6.57v.66zm0-1.67h6.7c-.08-2-1.17-3.73-3.17-3.73a3.68 3.68 0 00-3.53 3.73zm13.06-10.4a1.55 1.55 0 011.52 1.55 1.53 1.53 0 11-3.07 0 1.55 1.55 0 011.55-1.55zm1 17.75H699v-12.65h2.08zm10.31-10.8H711c-2.13 0-4.06.86-4.06 4.31v6.49h-2.04v-12.65h2.1v2a3.94 3.94 0 013.78-2.23h.61zm12.81 11.06c-2.51 0-4.41-1.47-4.41-3.83a3.54 3.54 0 013.37-3.58l4.46-.61V267c0-1.93-1.24-2.51-2.81-2.51a7.7 7.7 0 00-3.65 1l-.79-1.65a9.56 9.56 0 014.64-1.17c3.07 0 4.69 1.37 4.69 4v5.91a1.72 1.72 0 001 1.72l-1.17 1.5a2.5 2.5 0 01-1.7-1.52 4.7 4.7 0 01-3.63 1.58zm0-5.89c-1.4.2-2.31.66-2.31 2a2.34 2.34 0 002.59 2.28c1.55 0 3.12-1 3.12-2.46v-2.28zm11.49-7.02v1.45a4.44 4.44 0 013.7-1.7c3.27 0 5.38 2.77 5.38 6.59s-2.11 6.57-5.38 6.57a4.44 4.44 0 01-3.7-1.7v5.3h-2.08v-16.51zm6.92 6.26c0-2.64-1.27-4.67-3.6-4.67s-3.35 1.6-3.35 3.7v2.05c0 2.11 1.14 3.7 3.35 3.7s3.6-2 3.6-4.67zm7.41-6.26v1.45a4.44 4.44 0 013.7-1.7c3.27 0 5.38 2.77 5.38 6.59s-2.11 6.57-5.38 6.57a4.44 4.44 0 01-3.7-1.7v5.3h-2.08v-16.51zm6.92 6.26c0-2.64-1.27-4.67-3.6-4.67s-3.35 1.6-3.35 3.7v2.05c0 2.11 1.14 3.7 3.35 3.7s3.6-2 3.6-4.67zm5.34-11.36h2.08v14.91c0 .84.25 1.27 1.22 1.27.53 0 1-.05 1.29-.08l.2 1.75a20.19 20.19 0 01-2.11.15c-1.5 0-2.69-.66-2.69-2.49zm8.16 0a1.55 1.55 0 011.52 1.55 1.53 1.53 0 11-3.07 0 1.55 1.55 0 011.55-1.55zm1 17.75h-2.08v-12.65h2.08zm5.26-6.26c0 2.54 1.24 4.69 3.68 4.69a3.62 3.62 0 003.27-2.13l1.72 1a5.37 5.37 0 01-5 3c-3.5 0-5.83-2.74-5.83-6.57s2.33-6.59 5.83-6.59a5.37 5.37 0 015 3l-1.72 1a3.62 3.62 0 00-3.27-2.13c-2.44 0-3.68 2.16-3.68 4.69zm15.39 6.52c-2.51 0-4.41-1.47-4.41-3.83a3.54 3.54 0 013.37-3.58l4.46-.61V267c0-1.93-1.24-2.51-2.81-2.51a7.7 7.7 0 00-3.65 1l-.79-1.65a9.56 9.56 0 014.64-1.17c3.07 0 4.69 1.37 4.69 4v5.91a1.72 1.72 0 001 1.72l-1.17 1.5a2.5 2.5 0 01-1.7-1.52 4.7 4.7 0 01-3.63 1.58zm0-5.89c-1.4.2-2.31.66-2.31 2a2.34 2.34 0 002.59 2.28c1.55 0 3.12-1 3.12-2.46v-2.28zm12.44 2.49c0 .84.15 1.55 1.62 1.55a11.08 11.08 0 001.57-.15l.23 1.83a18.4 18.4 0 01-2.26.18c-2 0-3.25-.79-3.25-2.94v-8.14H800v-1.83h2.38v-4.13l2.08-.74v4.87H808v1.83h-3.53zm7.19-14.61a1.55 1.55 0 011.52 1.55 1.53 1.53 0 11-3.07 0 1.55 1.55 0 011.55-1.55zm1 17.75h-2.08v-12.65h2.08zm14.77-6.31c0 3.8-2.33 6.57-5.83 6.57s-5.83-2.77-5.83-6.57 2.33-6.59 5.83-6.59 5.83 2.73 5.83 6.59zm-2.16.08v-.15c0-2.54-1.27-4.69-3.68-4.69s-3.68 2.16-3.68 4.69v.15c0 2.49 1.27 4.67 3.68 4.67s3.68-2.19 3.68-4.67zm5.34-6.42h2.08v1.45a4.36 4.36 0 013.7-1.7 4 4 0 014.23 4.31v8.6h-2.08v-7.94c0-2.23-1.14-3.07-2.61-3.07a3.25 3.25 0 00-3.25 3.5v7.51h-2.08zM57.28 302.9c0 .84.15 1.55 1.62 1.55a11.08 11.08 0 001.57-.15l.23 1.83a18.4 18.4 0 01-2.26.18c-2 0-3.25-.79-3.25-2.94v-8.14h-2.38v-1.83h2.39v-4.13l2.08-.74v4.87h3.52v1.83h-3.52zm16.78-3.17c0 3.8-2.33 6.57-5.83 6.57s-5.83-2.77-5.83-6.57 2.33-6.59 5.83-6.59 5.83 2.74 5.83 6.59zm-2.16.08v-.15c0-2.54-1.27-4.69-3.68-4.69s-3.68 2.16-3.68 4.69v.15c0 2.49 1.27 4.67 3.68 4.67s3.69-2.19 3.69-4.67zM86.09 306H84v-17.71h2.08v6.54a4.44 4.44 0 013.7-1.7c3.27 0 5.38 2.77 5.38 6.59s-2.11 6.57-5.38 6.57a4.44 4.44 0 01-3.7-1.7zm6.91-6.34c0-2.64-1.27-4.67-3.6-4.67s-3.35 1.6-3.35 3.7v2.05c0 2.11 1.14 3.7 3.35 3.7s3.6-2 3.6-4.67zm6.9.7c.15 2.38 1.65 4.11 3.93 4.11a5.08 5.08 0 003.32-1.24l1.07 1.5a7.06 7.06 0 01-4.49 1.57c-3.68 0-6-2.77-6-6.57s2.26-6.59 5.76-6.59c3.3 0 5.4 2.77 5.4 6.57v.66zm0-1.67h6.7c-.08-2-1.17-3.73-3.17-3.73a3.68 3.68 0 00-3.51 3.73zm20.85-5.3v1.45a4.44 4.44 0 013.7-1.7c3.27 0 5.38 2.77 5.38 6.59s-2.11 6.57-5.38 6.57a4.44 4.44 0 01-3.7-1.7v5.3h-2.08v-16.51zm6.92 6.26c0-2.64-1.27-4.67-3.6-4.67s-3.35 1.6-3.35 3.7v2.05c0 2.11 1.14 3.7 3.35 3.7s3.6-2 3.6-4.67zm11.82-4.41h-.33c-2.13 0-4.06.86-4.06 4.31V306H133v-12.61h2.08v2a3.94 3.94 0 013.78-2.23h.61zm13.29 4.49c0 3.8-2.33 6.57-5.83 6.57s-5.83-2.77-5.83-6.57 2.33-6.59 5.83-6.59 5.83 2.74 5.83 6.59zm-2.16.08v-.15c0-2.54-1.27-4.69-3.68-4.69s-3.68 2.16-3.68 4.69v.15c0 2.49 1.27 4.67 3.68 4.67s3.69-2.19 3.69-4.67zm6.8-.03c0 2.54 1.24 4.69 3.68 4.69a3.62 3.62 0 003.27-2.13l1.72 1a5.37 5.37 0 01-5 3c-3.5 0-5.83-2.74-5.83-6.57s2.33-6.59 5.83-6.59a5.37 5.37 0 015 3l-1.72 1a3.62 3.62 0 00-3.27-2.13c-2.44 0-3.68 2.16-3.68 4.69zm12.93.58c.15 2.38 1.65 4.11 3.93 4.11a5.08 5.08 0 003.32-1.24l1.07 1.5a7.06 7.06 0 01-4.49 1.57c-3.68 0-6-2.77-6-6.57s2.26-6.59 5.76-6.59c3.3 0 5.4 2.77 5.4 6.57v.66zm0-1.67h6.7c-.08-2-1.17-3.73-3.17-3.73a3.68 3.68 0 00-3.5 3.73zm10.89 5.78l1.26-1.47a6 6 0 003.83 1.55c1.45 0 2.54-.66 2.54-1.9s-1.37-1.67-3.09-2.13-3.93-1.09-3.93-3.7c0-2.13 2-3.68 4.62-3.68a6.84 6.84 0 014.39 1.57l-1.22 1.4a4.64 4.64 0 00-3.12-1.22c-1.67 0-2.51.74-2.51 1.88 0 .91.71 1.37 1.83 1.67.66.18 1.42.41 2.08.61 1.7.53 3.09 1.42 3.09 3.45 0 2.61-2.31 3.8-4.77 3.8a7.61 7.61 0 01-5-1.83zm11.88 0l1.27-1.47a6 6 0 003.83 1.55c1.45 0 2.54-.66 2.54-1.9s-1.37-1.67-3.09-2.13-3.93-1.09-3.93-3.7c0-2.13 2-3.68 4.62-3.68a6.84 6.84 0 014.39 1.57l-1.22 1.4a4.64 4.64 0 00-3.12-1.22c-1.67 0-2.51.74-2.51 1.88 0 .91.71 1.37 1.83 1.67.66.18 1.42.41 2.08.61 1.7.53 3.09 1.42 3.09 3.45 0 2.61-2.31 3.8-4.77 3.8a7.61 7.61 0 01-5.01-1.83zm14.3-4.11c.15 2.38 1.65 4.11 3.93 4.11a5.08 5.08 0 003.32-1.24l1.07 1.5a7.06 7.06 0 01-4.49 1.57c-3.68 0-6-2.77-6-6.57s2.26-6.59 5.76-6.59c3.3 0 5.4 2.77 5.4 6.57v.66zm0-1.67h6.7c-.08-2-1.17-3.73-3.17-3.73a3.68 3.68 0 00-3.51 3.73zm20.47 5.91a4.43 4.43 0 01-3.7 1.7c-3.27 0-5.38-2.74-5.38-6.57s2.11-6.59 5.38-6.59a4.43 4.43 0 013.7 1.7v-6.54H230V306h-2.08zm-6.89-4.82c0 2.64 1.27 4.67 3.6 4.67s3.35-1.6 3.35-3.7v-2.05c0-2.11-1.14-3.7-3.35-3.7s-3.6 2-3.6 4.67zm14.37 3.12a1.7 1.7 0 11-1.7 1.7 1.7 1.7 0 011.7-1.7zM54.47 363.62H69.6v4.1H59v4.77h9.74v4.1H59V382h11.21v4.1H54.47zm18.97 5.68h4.33v1.44A5.69 5.69 0 0182 369a5.49 5.49 0 015.8 5.77v11.31h-4.29v-9.74c0-2.37-1.12-3.27-2.63-3.27-1.76 0-3.11 1.25-3.11 3.85v9.16h-4.33zm24.49 11.76c0 .8.35 1.41 1.86 1.41a10.71 10.71 0 002.15-.19l.38 3.81a34.59 34.59 0 01-4 .29c-3 0-4.74-1.31-4.74-4.26v-8.94h-3v-3.88h3v-4.74l4.33-1.15v5.9h4.39v3.88h-4.37zm11.07-1.89a3.94 3.94 0 004.07 3.27 6 6 0 004.23-1.57l2.15 3.27a10 10 0 01-6.5 2.24 8.15 8.15 0 01-8.43-8.59v-.19c0-4.93 3.37-8.62 8.11-8.62 4.42 0 7.69 3.37 7.69 8.23v2zm0-3.27h6.76a3.22 3.22 0 00-3.3-3.17 3.36 3.36 0 00-3.46 3.17zm24.11-2.41h-.77c-2.47 0-4.65.83-4.65 4.42v8.14h-4.33V369.3h4.33v1.89a5.2 5.2 0 014.46-2.18h1zm15.28 7.57c0 .8.35 1.41 1.86 1.41a10.71 10.71 0 002.15-.19l.38 3.81a34.59 34.59 0 01-4 .29c-3 0-4.74-1.31-4.74-4.26v-8.94h-3v-3.88h3v-4.74l4.33-1.15v5.9h4.39v3.88h-4.39zm7.44-17.44h4.33v7.11a5.69 5.69 0 014.26-1.76 5.49 5.49 0 015.8 5.77v11.31h-4.33v-9.74c0-2.37-1.12-3.27-2.63-3.27-1.76 0-3.11 1.25-3.11 3.85v9.16h-4.33zm21.91 15.55a3.94 3.94 0 004.07 3.27 6 6 0 004.23-1.57l2.15 3.27a10 10 0 01-6.5 2.24 8.15 8.15 0 01-8.43-8.59v-.19c0-4.93 3.37-8.62 8.11-8.62 4.42 0 7.69 3.37 7.69 8.23v2zm0-3.27h6.76a3.22 3.22 0 00-3.3-3.17 3.36 3.36 0 00-3.42 3.17zm26.54 10.48c-3 0-5.8-1.92-5.8-5.26 0-2.69 1.76-4.49 4.71-4.9l5.1-.71V375c0-1.47-1-2.15-2.63-2.15a11.28 11.28 0 00-4.93 1.35l-1.7-3.33a14.17 14.17 0 016.79-1.86c3.08 0 6.79.83 6.79 5.38v7.18c0 1 .55 1.35 1.44 1.73l-2 3.11a3.81 3.81 0 01-3.14-1.89 5.8 5.8 0 01-4.63 1.86zm.51-7.08c-1.06.16-1.76.77-1.76 1.73a2 2 0 002.28 2 2.8 2.8 0 003-3.08v-1.15zm25.99 6.76h-4.33v-9.74c0-2.4-1.12-3.24-2.53-3.24-1.67 0-2.95 1.15-2.95 3.84v9.13h-4.33V369.3H221v1.47a5.62 5.62 0 014.29-1.79 4.85 4.85 0 014.33 2.28 5.9 5.9 0 015.06-2.28 5.61 5.61 0 016 5.64v11.44h-4.36v-9.74c0-2.4-1.12-3.24-2.53-3.24-1.67 0-2.95 1.15-2.95 3.84zm29.35-8.37c0 5-3.3 8.68-8.24 8.68s-8.23-3.75-8.23-8.68c0-4.94 3.27-8.68 8.23-8.68s8.24 3.75 8.24 8.68zm-4.42 0c0-2.73-1.35-4.68-3.81-4.68s-3.78 2-3.81 4.68c0 2.72 1.35 4.68 3.81 4.68s3.78-2 3.81-4.68zm21.85 8.37h-4.33v-1.44a5.69 5.69 0 01-4.26 1.76 5.49 5.49 0 01-5.8-5.77V369.3h4.33v9.7c0 2.37 1.12 3.27 2.63 3.27 1.76 0 3.11-1.25 3.11-3.84v-9.13h4.33zm4.04-16.76h4.33v1.44a5.69 5.69 0 014.26-1.76 5.49 5.49 0 015.8 5.77v11.31h-4.33v-9.74c0-2.37-1.12-3.27-2.63-3.27-1.76 0-3.11 1.25-3.11 3.85v9.16h-4.32zm24.48 11.76c0 .8.35 1.41 1.86 1.41a10.71 10.71 0 002.15-.19l.38 3.81a34.59 34.59 0 01-4 .29c-3 0-4.74-1.31-4.74-4.26v-8.94h-3v-3.88h3v-4.74l4.33-1.15v5.9h4.39v3.88h-4.39zm18.13 5.67l.13-.55H324l-5.16-16.89h4.81l3.08 11.6 3-11.6h4.74l-5.77 19.23c-.74 2.5-2.69 3.17-5.22 3.17a28.46 28.46 0 01-3.94-.32l.9-3.81a15.45 15.45 0 002.31.19 1.27 1.27 0 001.46-1.02zm27.98-9.04c0 5-3.3 8.68-8.24 8.68s-8.23-3.75-8.23-8.68c0-4.94 3.27-8.68 8.23-8.68s8.24 3.75 8.24 8.68zm-4.42 0c0-2.73-1.35-4.68-3.81-4.68s-3.78 2-3.81 4.68c0 2.72 1.35 4.68 3.81 4.68s3.78-2 3.81-4.68zm21.85 8.37h-4.33v-1.44a5.69 5.69 0 01-4.26 1.76 5.49 5.49 0 01-5.8-5.77V369.3h4.33v9.7c0 2.37 1.12 3.27 2.63 3.27 1.76 0 3.11-1.25 3.11-3.84v-9.13h4.33zm26.98-5.48l2.05-11.28h4.58l-3.88 16.76h-5.13l-2.5-10.9-2.66 10.9H384l-3.88-16.76h4.71l2 11.28 2.92-11.28h4.13zm14.03 5.8c-3 0-5.8-1.92-5.8-5.26 0-2.69 1.76-4.49 4.71-4.9l5.1-.71V375c0-1.47-1-2.15-2.63-2.15a11.28 11.28 0 00-4.93 1.35l-1.7-3.33a14.17 14.17 0 016.79-1.86c3.08 0 6.79.83 6.79 5.38v7.18c0 1 .55 1.35 1.44 1.73l-2 3.11a3.81 3.81 0 01-3.14-1.89 5.8 5.8 0 01-4.63 1.86zm.51-7.08c-1.06.16-1.76.77-1.76 1.73a2 2 0 002.28 2 2.8 2.8 0 003-3.08v-1.15zm11.86-10h4.33v1.44a5.69 5.69 0 014.26-1.76 5.49 5.49 0 015.8 5.77v11.31h-4.33v-9.74c0-2.37-1.12-3.27-2.63-3.27-1.76 0-3.11 1.25-3.11 3.85v9.16H423zm24.48 11.76c0 .8.35 1.41 1.86 1.41a10.71 10.71 0 002.15-.19l.38 3.81a34.59 34.59 0 01-4 .29c-3 0-4.74-1.31-4.74-4.26v-8.94h-3v-3.88h3v-4.74l4.33-1.15v5.9h4.39v3.88h-4.39zm20.7 0c0 .8.35 1.41 1.86 1.41a10.71 10.71 0 002.15-.19l.38 3.81a34.59 34.59 0 01-4 .29c-3 0-4.74-1.31-4.74-4.26v-8.94h-3v-3.88h3v-4.74l4.33-1.15v5.9h4.39v3.88h-4.39zm23.04-3.37c0 5-3.3 8.68-8.24 8.68s-8.23-3.75-8.23-8.68c0-4.94 3.27-8.68 8.23-8.68s8.24 3.75 8.24 8.68zm-4.42 0c0-2.73-1.35-4.68-3.81-4.68s-3.78 2-3.81 4.68c0 2.72 1.35 4.68 3.81 4.68s3.78-2 3.81-4.68zm19.67-8.39v1.44a5.54 5.54 0 014.23-1.74c4.42 0 7.37 3.65 7.37 8.62v.16c0 5-3 8.62-7.47 8.62a5.32 5.32 0 01-4.13-1.76v6.73h-4.33v-22zm-.13 9.93a3.16 3.16 0 003.46 3.14c2.47 0 3.81-2 3.81-4.62v-.16c0-2.66-1.35-4.61-3.81-4.61a3.16 3.16 0 00-3.46 3.14zm19.74 7.15c-3 0-5.8-1.92-5.8-5.26 0-2.69 1.76-4.49 4.71-4.9l5.1-.71V375c0-1.47-1-2.15-2.63-2.15a11.28 11.28 0 00-4.93 1.35l-1.7-3.33a14.17 14.17 0 016.79-1.86c3.08 0 6.79.83 6.79 5.38v7.18c0 1 .55 1.35 1.44 1.73l-2 3.11a3.81 3.81 0 01-3.14-1.89 5.8 5.8 0 01-4.63 1.86zm.51-7.08c-1.06.16-1.76.77-1.76 1.73a2 2 0 002.28 2 2.8 2.8 0 003-3.08v-1.15zm15.26 7.43l.13-.55h-.32l-5.16-16.88h4.81l3.08 11.6 3-11.6h4.74l-5.77 19.23c-.74 2.5-2.69 3.17-5.22 3.17a28.46 28.46 0 01-3.94-.32l.9-3.81a15.45 15.45 0 002.31.19 1.27 1.27 0 001.44-1.03zM280.5 421.79v48.06H57v-48.06h223.5m2.67-2.67H54.32v53.4h228.85v-53.4z"/><path class="cls-2" d="M81.31 438.36a4.4 4.4 0 00-3.84-2c-2.4 0-4.1 1.86-4.1 4.71v3.53h5.22v2.4h-5.23v7.34h10v2.37H69v-2.37h1.67V447H69v-2.37h1.67v-3.46c0-4.49 2.69-7.18 6.79-7.18a7 7 0 016.09 2.79z"/><path class="cls-3" d="M0 40V10A10 10 0 0110 0h940a10 10 0 0110 10v30"/><circle class="cls-1" cx="25.38" cy="20" r="8.5"/><circle class="cls-1" cx="49.13" cy="20" r="8.5"/><circle class="cls-1" cx="72.88" cy="20" r="8.5"/><path class="cls-3" d="M0 636h960v4H0z"/><path class="cls-3" d="M4 640V40h952v600h4V36H0v604h4z"/></g></svg>