<svg id="Layer_1" xmlns="http://www.w3.org/2000/svg" viewBox="0 0 960 640"><style>.st3{fill:#dadada}.st4{fill:#fff}.st5{fill:#0b0b0b}.st6{fill:#005ea5}</style><path class="st3" d="M0 40V10C0 4.5 4.5 0 10 0h940c5.5 0 10 4.5 10 10v30"/><circle class="st4" cx="25.4" cy="20" r="8.5"/><circle class="st4" cx="49.1" cy="20" r="8.5"/><circle class="st4" cx="72.9" cy="20" r="8.5"/><path class="st5" d="M1 40h958v65H1z"/><path class="st4" d="M267 59.7l-10.7 13v-13h-6.1v30h6.1v-9.1l3.9-4.3 7.9 13.4h7l-11-18.1 10.4-11.9zm-37.4 24.6c-.8-.3-1.4-.6-2-1.2-.6-.5-1-1.2-1.3-2-.3-.8-.5-1.7-.5-2.8V59.7h-6v19.5c0 1.7.3 3.2.9 4.5.6 1.4 1.5 2.5 2.5 3.5 1.1.9 2.4 1.7 3.9 2.2 1.5.5 3.1.8 4.9.8 1.8 0 3.4-.3 4.9-.8 1.5-.5 2.8-1.2 3.9-2.2 1.1-.9 1.9-2.1 2.5-3.5.6-1.4.9-2.9.9-4.5V59.7h-6v18.6c0 1.1-.2 2-.5 2.8-.3.8-.8 1.5-1.3 2-.6.5-1.2.9-2 1.2-.8.3-1.6.4-2.5.4-.7 0-1.5-.2-2.3-.4m-21.9 3.5c.2.5.5.9.8 1.2.3.3.8.6 1.2.8.5.2 1 .3 1.5.3s1-.1 1.5-.3c.5-.2.9-.5 1.2-.8.3-.3.6-.8.8-1.2.2-.5.3-1 .3-1.5s-.1-1-.3-1.5c-.2-.5-.5-.9-.8-1.2-.3-.3-.8-.6-1.2-.8-.5-.2-.9-.3-1.5-.3-.5 0-1 .1-1.5.3-.5.2-.9.5-1.2.8-.3.3-.6.7-.8 1.2-.2.5-.3.9-.3 1.5s.1 1 .3 1.5m-9.6 1.9l8.5-30h-6.7l-5.7 22.6h-.2l-5.8-22.6h-6.8l8.5 30zm-36.8-5.8c-1-.5-1.8-1.2-2.5-2.1-.7-.9-1.2-1.9-1.5-3.1a16 16 0 01-.5-3.9v-.2c0-1.4.2-2.7.5-3.9.3-1.2.9-2.2 1.5-3.1.7-.9 1.5-1.6 2.5-2.1s2.2-.7 3.5-.7c1.3 0 2.5.2 3.5.7 1 .5 1.8 1.2 2.5 2.1.7.9 1.2 1.9 1.5 3.1.3 1.2.5 2.5.5 3.9v.2a16 16 0 01-.5 3.9c-.3 1.2-.9 2.2-1.5 3.1-.7.9-1.5 1.6-2.5 2.1s-2.2.7-3.5.7c-1.3.1-2.5-.2-3.5-.7m-2.5-23.4c-1.8.8-3.3 1.9-4.5 3.3-1.2 1.4-2.2 3-2.8 4.9-.6 1.9-1 3.9-1 6 0 2.2.3 4.2 1 6 .6 1.9 1.6 3.5 2.8 4.9 1.2 1.4 2.7 2.5 4.5 3.3 1.8.8 3.8 1.2 6 1.2s4.2-.4 6-1.2c1.8-.8 3.3-1.9 4.5-3.3 1.2-1.4 2.2-3 2.8-4.9.6-1.9 1-3.9 1-6s-.3-4.2-1-6c-.6-1.9-1.6-3.5-2.8-4.9-1.2-1.4-2.7-2.5-4.5-3.3-1.8-.8-3.8-1.2-6-1.2-2.3 0-4.3.4-6 1.2m-33.1 14.1c0-1.3.2-2.5.5-3.7.3-1.2.8-2.2 1.5-3.1.7-.9 1.5-1.6 2.5-2.2 1-.6 2.2-.8 3.6-.8.9 0 1.7.1 2.4.3.7.2 1.4.5 1.9.9.6.4 1.1.9 1.5 1.4.4.5.8 1.1 1.1 1.8l5.3-3c-.5-1-1.2-2-2-2.9-.8-.9-1.7-1.6-2.8-2.2-1.1-.6-2.2-1.1-3.5-1.4-1.3-.3-2.6-.5-4-.5-2.2 0-4.2.4-5.9 1.2-1.8.8-3.3 1.9-4.5 3.3-1.2 1.4-2.2 3-2.9 4.9-.7 1.9-1 3.9-1 6 0 2.2.3 4.2.9 6 .6 1.9 1.5 3.5 2.7 4.9 1.2 1.4 2.6 2.5 4.3 3.3 1.7.8 3.6 1.2 5.8 1.2.9 0 1.8-.1 2.6-.3.8-.2 1.6-.5 2.3-.8.7-.3 1.3-.8 1.9-1.2.6-.5 1-1 1.4-1.6v3.5h5.3V73.3H133v4.6h7.7v.3c0 .6-.1 1.3-.3 2.1-.2.8-.6 1.5-1.1 2.1-.5.6-1.3 1.2-2.2 1.6-.9.4-2 .6-3.4.6s-2.6-.3-3.6-.8c-1-.6-1.9-1.3-2.5-2.2-.7-.9-1.1-2-1.5-3.1-.3-1.2-.5-2.4-.5-3.7v-.2zm-63.4-8.8c1.4.6 2.9-.1 3.4-1.4.6-1.3-.1-2.9-1.4-3.4-1.3-.5-2.9.1-3.4 1.4-.6 1.3.1 2.9 1.4 3.4m-6 3.5c1.4.6 2.9-.1 3.4-1.4.6-1.3-.1-2.9-1.4-3.4-1.3-.5-2.9.1-3.4 1.4-.5 1.3.1 2.9 1.4 3.4m-1.7 6.6c1.4.6 2.9-.1 3.4-1.4.6-1.3-.1-2.9-1.4-3.4-1.3-.5-2.9.1-3.4 1.4-.6 1.4.1 2.9 1.4 3.4m14.3-8c1.4.6 2.9-.1 3.4-1.4.6-1.3-.1-2.9-1.4-3.4-1.3-.5-2.9.1-3.4 1.4-.5 1.3.1 2.9 1.4 3.4M93 65.8c-1.4.6-2.9-.1-3.4-1.4-.6-1.3.1-2.9 1.4-3.4 1.3-.5 2.9.1 3.4 1.4.6 1.3 0 2.9-1.4 3.4m6 3.5c-1.4.6-2.9-.1-3.4-1.4-.6-1.3 0-2.9 1.4-3.4 1.3-.5 2.9.1 3.4 1.4.6 1.3-.1 2.9-1.4 3.4m1.8 6.6c-1.4.6-2.9-.1-3.4-1.4-.6-1.3.1-2.9 1.4-3.4 1.3-.5 2.9.1 3.4 1.4.5 1.4-.1 2.9-1.4 3.4m-14.4-8c-1.4.6-2.9-.1-3.4-1.4-.6-1.3.1-2.9 1.4-3.4 1.3-.5 2.9.1 3.4 1.4.6 1.3-.1 2.9-1.4 3.4m-7.3-6.8l3.3 1.7V58l-3.3 1-.3-.3 1.3-4.2h-4.8l1.3 4.2-.3.3-3.4-1v4.9l3.3-1.7.3.3-1.9 5.8c-.1.3-.1.6-.1.9 0 1.6 1.2 2.8 2.6 3.1h1c1.5-.2 2.7-1.5 2.7-3.1 0-.3 0-.6-.1-.9l-1.9-5.8c0-.1.2-.2.3-.4m-1.4 28.2c6.3 0 12.3.4 17.6 1.2 1.5-6.4 3.4-10 5.3-12.6L97 76.7c.4 1.8.4 2.7 0 3.8-.6-.6-1.1-1.6-1.6-3.3L93.7 83c1.1-.7 1.9-1.2 2.8-1.2-1.7 3.6-3.7 4.5-5.1 4.2-1.6-.3-2.4-1.8-2.1-3 .4-1.7 2.2-2.2 3-.2 1.6-3.3-1.1-4.3-2.9-3.3 2.7-2.7 3-5.1.8-7.9-3 2.3-3.1 4.6-1.7 7.8-1.8-2-4.5-.9-3.5 2.3 1.3-2 3-.7 2.7 1.1-.2 1.6-2.4 2.9-5.1 2.7-3.8-.3-4.1-3-4.2-5.2.9-.2 2.6.7 4.1 2.7l.5-6.1c-1.6 1.6-3 2-4.6 2 .5-1.7 3-4.4 3-4.4h-7.5s2.4 2.7 3 4.4c-1.6-.1-3-.4-4.6-2l.5 6.1c1.5-2 3.2-2.9 4.1-2.7-.1 2.2-.3 4.8-4.2 5.2-2.7.2-4.8-1.1-5.1-2.7-.3-1.9 1.4-3.1 2.7-1.1 1-3.3-1.8-4.3-3.5-2.3 1.4-3.2 1.3-5.5-1.7-7.8-2.2 2.9-1.9 5.3.8 7.9-1.8-1-4.5.1-2.9 3.3.8-2 2.6-1.6 3 .2.3 1.2-.5 2.7-2.1 3-1.3.2-3.4-.7-5-4.2.9 0 1.7.5 2.8 1.2L60 77.2c-.4 1.6-1 2.7-1.6 3.3-.4-1.2-.3-2 0-3.8L54.8 78c1.9 2.6 3.7 6.2 5.3 12.6 5.3-.8 11.2-1.3 17.6-1.3"/><path class="st3" d="M0 636h960v4H0z"/><path class="st3" d="M4 640V40h952v600h4V36H0v604z"/><path class="st5" d="M64.3 170.3h-9.6v-25.2h9.6c8.1 0 11.9 5 11.9 12.6 0 7.5-3.7 12.6-11.9 12.6zm6.7-13.1c0-4.2-2-7.5-7.3-7.5h-3.8v16h3.8c5.2 0 7.3-3.3 7.3-7.5v-1zm14.3 13.4c-3.4 0-6.5-2.2-6.5-5.9 0-3 2-5 5.3-5.5l5.7-.8v-.6c0-1.7-1.1-2.4-3-2.4-2.3 0-4.1.9-5.5 1.5l-1.9-3.7c2.2-1.2 4.9-2.1 7.6-2.1 3.5 0 7.6.9 7.6 6v8.1c0 1.1.6 1.5 1.6 1.9l-2.2 3.5c-1.8-.1-3-1.1-3.5-2.1-1.1 1.5-2.9 2.1-5.2 2.1zm.6-7.9c-1.2.2-2 .9-2 1.9 0 1.2.9 2.2 2.6 2.2 2.3 0 3.3-1.5 3.3-3.5V162l-3.9.7zm14.8 1.5c1.3 1.3 3.6 2.3 5.5 2.3 1.5 0 2.7-.4 2.7-1.5 0-.9-.7-1.3-2.3-1.7-1.1-.3-3.1-.6-4.7-1.3-1.8-.8-3.3-2.3-3.3-4.9 0-4 3.6-6 7.7-6 3.2 0 5.9 1.2 7.5 2.7l-3.1 3.2c-1-.9-2.6-1.7-4.3-1.7-1.3 0-2.7.5-2.7 1.6 0 .9.8 1.2 2.2 1.5 2.3.6 4 1 5.4 1.7 1.5.8 2.6 2.4 2.6 4.5 0 4-3.4 6-7.6 6-3.1 0-6.6-1.2-8.5-2.8l2.9-3.6zm16.8-19.1h4.9v8c1-1 2.5-2 4.8-2 4.1 0 6.5 2.8 6.5 6.5v12.7h-4.9v-10.9c0-2.7-1.3-3.7-3-3.7-2 0-3.5 1.4-3.5 4.3v10.3h-4.9v-25.2zM156 161c0 5.6-3.4 9.7-8.4 9.7-2.2 0-3.6-.9-4.6-2v1.6h-4.9v-25.2h4.9v8c1-1.1 2.6-2 4.8-2 5 0 8.3 4.1 8.3 9.7v.2zm-13.2 1.6c0 2 1.5 3.5 3.9 3.5 2.8 0 4.3-2.2 4.3-5.2v-.2c0-3-1.5-5.2-4.3-5.2-2.4 0-3.9 1.5-3.9 3.5v3.6zm34.3-1.7c0 5.6-3.7 9.8-9.3 9.8-5.5 0-9.3-4.2-9.3-9.8 0-5.5 3.7-9.8 9.3-9.8 5.6 0 9.3 4.2 9.3 9.8zm-4.9 0c0-3.1-1.5-5.3-4.3-5.3s-4.2 2.2-4.3 5.3c0 3.1 1.5 5.3 4.3 5.3s4.2-2.3 4.3-5.3zm13.9 9.7c-3.4 0-6.5-2.2-6.5-5.9 0-3 2-5 5.3-5.5l5.7-.8v-.6c0-1.7-1.1-2.4-3-2.4-2.3 0-4.1.9-5.5 1.5l-1.9-3.7c2.2-1.2 4.9-2.1 7.6-2.1 3.5 0 7.6.9 7.6 6v8.1c0 1.1.6 1.5 1.6 1.9l-2.2 3.5c-1.8-.1-3-1.1-3.5-2.1-1.1 1.5-3 2.1-5.2 2.1zm.6-7.9c-1.2.2-2 .9-2 1.9 0 1.2.9 2.2 2.6 2.2 2.3 0 3.3-1.5 3.3-3.5V162l-3.9.7zm24.2-6.5h-.9c-2.8 0-5.2.9-5.2 5v9.1H200v-18.8h4.9v2.1c.8-1.3 2.6-2.4 5-2.4h1.1v5zm1.9 4.6c0-5.6 3.3-9.7 8.3-9.7 2.2 0 3.7.9 4.8 2v-8h4.9v25.2h-4.9v-1.6c-1 1.1-2.4 2-4.6 2-5 0-8.4-4.1-8.4-9.7v-.2zm13.1-1.7c0-2-1.5-3.5-3.9-3.5-2.8 0-4.3 2.2-4.3 5.2v.2c0 3 1.5 5.2 4.3 5.2 2.4 0 3.9-1.5 3.9-3.5v-3.6zm-131 56.3H105v2.5h-3.7v10.8h-2.7v-10.8h-3.7v-2.5zm19.6 8.3c0 2.9-2 5.1-4.9 5.1s-4.9-2.2-4.9-5.1c0-2.9 1.9-5.1 4.9-5.1 2.9-.1 4.9 2.2 4.9 5.1zm-2.6 0c0-1.6-.8-2.8-2.3-2.8s-2.2 1.2-2.3 2.8c0 1.6.8 2.8 2.3 2.8s2.3-1.2 2.3-2.8zm4-.1c0-2.9 1.7-5.1 4.4-5.1 1.2 0 2 .5 2.5 1v-4.2h2.6v13.3h-2.6v-.9c-.6.6-1.3 1-2.5 1-2.6.2-4.4-2-4.4-5.1zm6.9-.8c0-1.1-.8-1.9-2.1-1.9-1.5 0-2.3 1.2-2.3 2.7v.1c0 1.6.8 2.7 2.3 2.7 1.3 0 2.1-.8 2.1-1.9v-1.7zm7.8 6.1c-1.8 0-3.4-1.1-3.4-3.1 0-1.6 1-2.7 2.8-2.9l3-.4v-.3c0-.9-.6-1.3-1.6-1.3-1.2 0-2.2.5-2.9.8l-1-2c1.2-.6 2.6-1.1 4-1.1 1.8 0 4 .5 4 3.2v4.3c0 .6.3.8.9 1l-1.2 1.8c-1-.1-1.6-.6-1.9-1.1-.6.7-1.5 1.1-2.7 1.1zm.3-4.2c-.6.1-1 .5-1 1 0 .6.5 1.2 1.3 1.2 1.2 0 1.8-.8 1.8-1.8v-.7l-2.1.3zm9 4.4l.1-.3h-.2l-3.1-10h2.8l1.8 6.9 1.8-6.9h2.8l-3.4 11.4c-.4 1.5-1.6 1.9-3.1 1.9-.6 0-1.7-.1-2.3-.2l.5-2.3s.7.1 1.4.1c.6 0 .8-.3.9-.6zM58.9 275.7v10.2h-2.7v-13.3H60l5.3 8.9v-8.9H68v13.3h-3l-6.1-10.2zm13.8 6.1c.2 1.3 1.2 1.9 2.4 1.9 1 0 1.8-.3 2.5-.9l1.3 1.9c-.9.7-2.2 1.3-3.9 1.3-2.7 0-5-1.9-5-5.1v-.1c0-2.9 2-5.1 4.8-5.1 2.6 0 4.6 2 4.6 4.9v1.2h-6.7zm0-1.9h4c-.1-.9-.6-1.9-2-1.9-1.3 0-1.9 1-2 1.9zm12.1 3c0 .5.2.8 1.1.8.4 0 1 0 1.3-.1l.2 2.3s-1.3.2-2.4.2c-1.8 0-2.8-.8-2.8-2.5v-5.3h-1.8V276h1.8v-2.8l2.6-.7v3.5h2.6v2.3h-2.6v4.6zm10.3-10.8c.9 0 1.6.7 1.6 1.6s-.7 1.6-1.6 1.6-1.6-.7-1.6-1.6.7-1.6 1.6-1.6zm1.3 13.8h-2.6V276h2.6v9.9zm2.4-9.9h2.6v.9c.6-.6 1.3-1 2.5-1 2.2 0 3.4 1.5 3.4 3.4v6.7h-2.6v-5.8c0-1.4-.7-1.9-1.6-1.9-1 0-1.8.7-1.8 2.3v5.4h-2.6v-10zm10.3 4.9c0-2.9 2-5.1 4.8-5.1 2 0 3.7 1 4.3 2.6l-2.3 1.2c-.4-.8-.9-1.3-2-1.3-1.6 0-2.2 1.4-2.2 2.7v.1c0 1.3.7 2.7 2.2 2.7 1 0 1.6-.5 2-1.3l2.3 1.2c-.6 1.6-2.3 2.6-4.4 2.6-2.7-.2-4.7-2.4-4.7-5.4zm20 0c0 2.9-2 5.1-4.9 5.1s-4.9-2.2-4.9-5.1c0-2.9 1.9-5.1 4.9-5.1 3 0 4.9 2.2 4.9 5.1zm-2.6 0c0-1.6-.8-2.8-2.3-2.8s-2.2 1.2-2.3 2.8c0 1.6.8 2.8 2.3 2.8s2.3-1.1 2.3-2.8zm12.9 5h-2.6v-5.8c0-1.4-.7-1.9-1.5-1.9-1 0-1.7.7-1.7 2.3v5.4H131V276h2.6v.9c.6-.7 1.6-1.1 2.5-1.1 1 0 2 .4 2.6 1.3.7-1 1.8-1.3 3-1.3 2.2 0 3.5 1.6 3.5 3.3v6.8h-2.6v-5.8c0-1.4-.7-1.9-1.5-1.9-1 0-1.7.7-1.7 2.3v5.4zm10.3-4.1c.2 1.3 1.2 1.9 2.4 1.9 1 0 1.8-.3 2.5-.9l1.3 1.9c-.9.7-2.2 1.3-3.9 1.3-2.7 0-5-1.9-5-5.1v-.1c0-2.9 2-5.1 4.8-5.1 2.6 0 4.6 2 4.6 4.9v1.2h-6.7zm0-1.9h4c-.1-.9-.6-1.9-2-1.9-1.3 0-1.9 1-2 1.9zM482.6 281.8c.6.8 1.9 1.8 3.7 1.8 1.5 0 2.4-.7 2.4-1.6 0-1-.8-1.3-2.3-1.6-1.4-.3-3-.5-4.1-1.5-.7-.6-1.1-1.4-1.1-2.7 0-1.7 1.4-3.9 5.1-3.9 2 0 3.9.8 5 2.1l-1.8 1.8c-.7-.9-2-1.5-3.2-1.5-1.2 0-2.2.5-2.2 1.4 0 .6.4 1 1 1.2.8.3 2 .5 3.2.8 1.7.5 3.3 1.3 3.3 3.7 0 2.7-2.5 4.2-5.2 4.2-2.5 0-4.5-1.1-5.6-2.3l1.8-1.9zm19.1 4.1h-2.6v-.9c-.6.6-1.3 1-2.5 1-2.2 0-3.4-1.5-3.4-3.4V276h2.6v5.8c0 1.4.7 1.9 1.6 1.9 1 0 1.8-.7 1.8-2.3V276h2.6v9.9zm1.9-5c0-2.9 2-5.1 4.8-5.1 2 0 3.7 1 4.3 2.6l-2.3 1.2c-.4-.8-.9-1.3-2-1.3-1.6 0-2.2 1.4-2.2 2.7v.1c0 1.3.7 2.7 2.2 2.7 1 0 1.6-.5 2-1.3l2.3 1.2c-.6 1.6-2.3 2.6-4.4 2.6-2.7-.2-4.7-2.4-4.7-5.4zm10.3 0c0-2.9 2-5.1 4.8-5.1 2 0 3.7 1 4.3 2.6l-2.3 1.2c-.4-.8-.9-1.3-2-1.3-1.6 0-2.2 1.4-2.2 2.7v.1c0 1.3.7 2.7 2.2 2.7 1 0 1.6-.5 2-1.3l2.3 1.2c-.6 1.6-2.3 2.6-4.4 2.6-2.7-.2-4.7-2.4-4.7-5.4zm12.9.9c.2 1.3 1.2 1.9 2.4 1.9 1 0 1.8-.3 2.5-.9l1.3 1.9c-.9.7-2.2 1.3-3.9 1.3-2.7 0-5-1.9-5-5.1v-.1c0-2.9 2-5.1 4.8-5.1 2.6 0 4.6 2 4.6 4.9v1.2h-6.7zm0-1.9h4c-.1-.9-.6-1.9-2-1.9-1.3 0-1.9 1-2 1.9zm9.3 2.8c.7.7 1.9 1.2 2.9 1.2.8 0 1.4-.2 1.4-.8 0-.5-.4-.7-1.2-.9-.6-.2-1.6-.3-2.5-.7-1-.4-1.7-1.2-1.7-2.6 0-2.1 1.9-3.2 4.1-3.2 1.7 0 3.1.6 3.9 1.4l-1.6 1.7c-.5-.5-1.3-.9-2.3-.9-.7 0-1.4.2-1.4.8 0 .5.4.6 1.2.8 1.2.3 2.1.5 2.8.9.8.4 1.4 1.3 1.4 2.4 0 2.1-1.8 3.2-4 3.2-1.6 0-3.5-.6-4.5-1.5l1.5-1.8zm9.7 0c.7.7 1.9 1.2 2.9 1.2.8 0 1.4-.2 1.4-.8 0-.5-.4-.7-1.2-.9-.6-.2-1.6-.3-2.5-.7-1-.4-1.7-1.2-1.7-2.6 0-2.1 1.9-3.2 4.1-3.2 1.7 0 3.1.6 3.9 1.4l-1.6 1.7c-.5-.5-1.3-.9-2.3-.9-.7 0-1.4.2-1.4.8 0 .5.4.6 1.2.8 1.2.3 2.1.5 2.8.9.8.4 1.4 1.3 1.4 2.4 0 2.1-1.8 3.2-4 3.2-1.6 0-3.5-.6-4.5-1.5l1.5-1.8zm12.3-6.7h1.9v2.3h-1.9v7.6h-2.6v-7.6H554V276h1.6v-1c0-1.7 1.2-2.5 3-2.5.9 0 1.7.1 2 .1l-.2 2.2c-.3-.1-.9-.1-1.3-.1-.7 0-1 .3-1 .7v.6zm12 9.9h-2.6v-.9c-.6.6-1.3 1-2.5 1-2.2 0-3.4-1.5-3.4-3.4V276h2.6v5.8c0 1.4.7 1.9 1.6 1.9 1 0 1.8-.7 1.8-2.3V276h2.6v9.9zm2.4-13.3h2.6v10.6c0 .4.2.6.8.6.3 0 .7 0 1-.1l.2 2.2s-1.2.2-2.2.2c-1.4 0-2.3-.8-2.3-2.2v-11.3zm12.4 3.4v.9c.6-.6 1.3-1 2.5-1 2.6 0 4.4 2.2 4.4 5.1v.1c0 2.9-1.8 5.1-4.4 5.1-1.2 0-1.9-.5-2.5-1v4h-2.6V276h2.6zm-.1 5.9c0 1.1.8 1.9 2.1 1.9 1.5 0 2.3-1.2 2.3-2.7v-.1c0-1.6-.8-2.7-2.3-2.7-1.3 0-2.1.8-2.1 1.9v1.7zm11.7 4.2c-1.8 0-3.4-1.1-3.4-3.1 0-1.6 1-2.7 2.8-2.9l3-.4v-.3c0-.9-.6-1.3-1.6-1.3-1.2 0-2.2.5-2.9.8l-1-2c1.2-.6 2.6-1.1 4-1.1 1.8 0 4 .5 4 3.2v4.3c0 .6.3.8.9 1l-1.2 1.8c-1-.1-1.6-.6-1.9-1.1-.5.7-1.5 1.1-2.7 1.1zm.3-4.2c-.6.1-1 .5-1 1 0 .6.5 1.2 1.3 1.2 1.2 0 1.8-.8 1.8-1.8v-.7l-2.1.3zm9.1 4.4l.1-.3h-.2l-3.1-10h2.8l1.8 6.9 1.8-6.9h2.8l-3.4 11.4c-.4 1.5-1.6 1.9-3.1 1.9-.6 0-1.7-.1-2.3-.2l.5-2.3s.7.1 1.4.1c.6 0 .8-.2.9-.6zm15.9-.4h-2.6v-5.8c0-1.4-.7-1.9-1.5-1.9-1 0-1.7.7-1.7 2.3v5.4h-2.6V276h2.6v.9c.6-.7 1.6-1.1 2.5-1.1 1 0 2 .4 2.6 1.3.7-1 1.8-1.3 3-1.3 2.2 0 3.5 1.6 3.5 3.3v6.8H625v-5.8c0-1.4-.7-1.9-1.5-1.9-1 0-1.7.7-1.7 2.3v5.4zm10.3-4.1c.2 1.3 1.2 1.9 2.4 1.9 1 0 1.8-.3 2.5-.9l1.3 1.9c-.9.7-2.2 1.3-3.9 1.3-2.7 0-5-1.9-5-5.1v-.1c0-2.9 2-5.1 4.8-5.1 2.6 0 4.6 2 4.6 4.9v1.2h-6.7zm0-1.9h4c-.1-.9-.6-1.9-2-1.9-1.3 0-1.9 1-2 1.9zm8.5-3.9h2.6v.9c.6-.6 1.3-1 2.5-1 2.2 0 3.4 1.5 3.4 3.4v6.7h-2.6v-5.8c0-1.4-.7-1.9-1.6-1.9-1 0-1.8.7-1.8 2.3v5.4h-2.6v-10zm14.5 6.9c0 .5.2.8 1.1.8.4 0 1 0 1.3-.1l.2 2.3s-1.3.2-2.4.2c-1.8 0-2.8-.8-2.8-2.5v-5.3h-1.8V276h1.8v-2.8l2.6-.7v3.5h2.6v2.3h-2.6v4.6zm5.2-.2c.7.7 1.9 1.2 2.9 1.2.8 0 1.4-.2 1.4-.8 0-.5-.4-.7-1.2-.9-.6-.2-1.6-.3-2.5-.7-1-.4-1.7-1.2-1.7-2.6 0-2.1 1.9-3.2 4.1-3.2 1.7 0 3.1.6 3.9 1.4l-1.6 1.7c-.5-.5-1.3-.9-2.3-.9-.7 0-1.4.2-1.4.8 0 .5.4.6 1.2.8 1.2.3 2.1.5 2.8.9.8.4 1.4 1.3 1.4 2.4 0 2.1-1.8 3.2-4 3.2-1.6 0-3.5-.6-4.5-1.5l1.5-1.8z"/><path class="st6" d="M70.4 417.9c.9 1.1 2.2 1.7 3.8 1.7 1.6 0 3-.8 3-2.4 0-1-.5-1.5-1.3-1.9-1.3-.6-3.4-.7-4.8-1.5-.9-.5-1.6-1.3-1.6-2.8 0-2.1 1.7-3.7 4.5-3.7 1.7 0 3.4.7 4.4 1.8l-1.2 1c-.7-.7-1.8-1.4-3.2-1.4-1.6 0-2.9.8-2.9 2.2 0 2.2 3.1 1.9 5.4 2.9 1.2.5 2.2 1.4 2.2 3.2 0 2.6-2.4 4-4.8 4-2.2 0-3.8-.9-4.9-2.1l1.4-1zm12-1.3c.1 1.8 1.2 3.1 2.9 3.1 1.1 0 1.8-.4 2.5-.9l.8 1.1c-.9.7-2 1.2-3.4 1.2-2.8 0-4.5-2.1-4.5-4.9 0-2.9 1.7-4.9 4.3-4.9 2.5 0 4 2.1 4 4.9v.5h-6.6zm0-1.2h5c-.1-1.5-.9-2.8-2.4-2.8s-2.5 1.4-2.6 2.8zm10.1 1.2c.1 1.8 1.2 3.1 2.9 3.1 1.1 0 1.8-.4 2.5-.9l.8 1.1c-.9.7-2 1.2-3.4 1.2-2.8 0-4.5-2.1-4.5-4.9 0-2.9 1.7-4.9 4.3-4.9 2.5 0 4 2.1 4 4.9v.5h-6.6zm0-1.2h5c-.1-1.5-.9-2.8-2.4-2.8s-2.5 1.4-2.6 2.8zm14.1-7.8h1.6v4.9c.6-.9 1.6-1.3 2.8-1.3 2.1 0 3.2 1.5 3.2 3.2v6.4h-1.6V415c0-1.7-.9-2.3-2-2.3-1.2 0-2.4.9-2.4 2.6v5.6h-1.6v-13.3zm18.6 8.6c0 2.8-1.7 4.9-4.4 4.9-2.6 0-4.4-2.1-4.4-4.9 0-2.9 1.7-4.9 4.4-4.9 2.7-.1 4.4 2 4.4 4.9zm-1.6 0v-.1c0-1.9-1-3.5-2.8-3.5s-2.8 1.6-2.8 3.5v.1c0 1.9 1 3.5 2.8 3.5s2.8-1.6 2.8-3.5zm12.2 2.9l1.7-7.6h1.7l-2.3 9.5h-2l-1.9-7.6-2 7.6h-1.9l-2.3-9.5h1.7l1.7 7.6 2-7.6h1.8l1.8 7.6zm12.6-.6c0 .6.1 1.2 1.2 1.2.3 0 .9-.1 1.2-.1l.2 1.4s-.9.1-1.7.1c-1.5 0-2.4-.6-2.4-2.2v-6.1h-1.8v-1.4h1.8v-3.1l1.6-.6v3.6h2.6v1.4h-2.6v5.8zm4.8-10.9h1.6v4.9c.6-.9 1.6-1.3 2.8-1.3 2.1 0 3.2 1.5 3.2 3.2v6.4h-1.6V415c0-1.7-.9-2.3-2-2.3-1.2 0-2.4.9-2.4 2.6v5.6h-1.6v-13.3zm11.2 0c.6 0 1.1.5 1.1 1.2 0 .6-.5 1.2-1.1 1.2-.6 0-1.2-.5-1.2-1.2.1-.7.6-1.2 1.2-1.2zm.8 13.3h-1.6v-9.5h1.6v9.5zm2.2-1.2l.9-1.1c.6.5 1.6 1.2 2.9 1.2 1.1 0 1.9-.5 1.9-1.4 0-1-1-1.3-2.3-1.6-1.3-.4-2.9-.8-2.9-2.8 0-1.6 1.5-2.8 3.5-2.8 1.3 0 2.6.5 3.3 1.2l-.9 1c-.6-.5-1.4-.9-2.3-.9-1.3 0-1.9.6-1.9 1.4 0 .7.5 1 1.4 1.3.5.1 1.1.3 1.6.5 1.3.4 2.3 1.1 2.3 2.6 0 2-1.7 2.8-3.6 2.8-1.4 0-2.8-.4-3.9-1.4zm16.7-8.3h1.9v1.4h-1.9v8.1h-1.6v-8.1H181v-1.4h1.6v-1.8c0-1.6 1.1-2.2 2.6-2.2.8 0 1.3.1 1.5.1l-.1 1.3c-.4 0-1-.1-1.3-.1-.9 0-1.1.6-1.1 1.1v1.6zm4.9-3.8c.6 0 1.1.5 1.1 1.2 0 .6-.5 1.2-1.1 1.2-.6 0-1.2-.5-1.2-1.2s.5-1.2 1.2-1.2zm.7 13.3h-1.6v-9.5h1.6v9.5zm6.4-9.7c1 0 2 .4 2.7 1.3v-1.1h1.6v9.6c0 2.4-2.1 3-4.1 3-1.1 0-2.5-.2-3.5-.8l.5-1.3c.7.3 1.9.7 3 .7 1.6 0 2.5-.6 2.5-2.1v-1.8c-.6.9-1.7 1.3-2.7 1.3-2.4 0-3.8-1.9-3.8-4.4-.1-2.4 1.4-4.4 3.8-4.4zm2.7 4.4c0-1.7-.7-3-2.4-3s-2.5 1.3-2.5 3v.1c0 1.7.8 3 2.5 3s2.4-1.3 2.4-3.1zm12 5.3h-1.6v-1.1c-.6.9-1.6 1.3-2.8 1.3-2.1 0-3.2-1.5-3.2-3.2v-6.4h1.6v5.9c0 1.7.9 2.3 2 2.3 1.3 0 2.4-.9 2.4-2.6v-5.6h1.6v9.4zm7.8-8.1h-.2c-1.6 0-3 .6-3 3.2v4.9h-1.6v-9.5h1.6v1.5c.5-1.1 1.6-1.7 2.8-1.7h.5v1.6zm2.9 3.8c.1 1.8 1.2 3.1 2.9 3.1 1.1 0 1.8-.4 2.5-.9l.8 1.1c-.9.7-2 1.2-3.4 1.2-2.8 0-4.5-2.1-4.5-4.9 0-2.9 1.7-4.9 4.3-4.9 2.5 0 4 2.1 4 4.9v.5h-6.6zm0-1.2h5c-.1-1.5-.9-2.8-2.4-2.8s-2.5 1.4-2.6 2.8zm22.3 3.7l1.7-7.6h1.7l-2.3 9.5h-2l-1.9-7.6-2 7.6h-2l-2.3-9.5h1.7l1.7 7.6 2-7.6h1.8l1.9 7.6zm8.1 2c-1.9 0-3.3-1.1-3.3-2.9 0-1.5 1-2.5 2.5-2.7l3.3-.5v-.6c0-1.4-.9-1.9-2.1-1.9-1.1 0-2 .3-2.7.7l-.6-1.2c1.1-.6 2.3-.9 3.5-.9 2.3 0 3.5 1 3.5 3v4.4c0 .6.2 1 .8 1.3l-.9 1.1c-.6-.2-1.1-.6-1.3-1.1-.5.8-1.4 1.3-2.7 1.3zm.1-4.4c-1 .2-1.7.5-1.7 1.5 0 1.1.9 1.7 1.9 1.7 1.2 0 2.3-.7 2.3-1.8v-1.7l-2.5.3zm6.3 3l.9-1.1c.6.5 1.6 1.2 2.9 1.2 1.1 0 1.9-.5 1.9-1.4 0-1-1-1.3-2.3-1.6-1.3-.4-2.9-.8-2.9-2.8 0-1.6 1.5-2.8 3.5-2.8 1.3 0 2.6.5 3.3 1.2l-.9 1c-.6-.5-1.4-.9-2.3-.9-1.3 0-1.9.6-1.9 1.4 0 .7.5 1 1.4 1.3.5.1 1.1.3 1.6.5 1.3.4 2.3 1.1 2.3 2.6 0 2-1.7 2.8-3.6 2.8-1.5 0-2.9-.4-3.9-1.4zm15.7-3.5c0 1.9.9 3.5 2.8 3.5 1.2 0 2-.7 2.5-1.6l1.3.7c-.6 1.3-2 2.2-3.7 2.2-2.6 0-4.4-2.1-4.4-4.9 0-2.9 1.7-4.9 4.4-4.9 1.7 0 3.1.9 3.7 2.2l-1.3.7c-.5-.9-1.3-1.6-2.5-1.6-1.8.1-2.8 1.7-2.8 3.7zm11.4 4.9c-1.9 0-3.3-1.1-3.3-2.9 0-1.5 1-2.5 2.5-2.7l3.3-.5v-.6c0-1.4-.9-1.9-2.1-1.9-1.1 0-2 .3-2.7.7l-.6-1.2c1.1-.6 2.3-.9 3.5-.9 2.3 0 3.5 1 3.5 3v4.4c0 .6.2 1 .8 1.3l-.9 1.1c-.6-.2-1.1-.6-1.3-1.1-.5.8-1.4 1.3-2.7 1.3zm0-4.4c-1 .2-1.7.5-1.7 1.5 0 1.1.9 1.7 1.9 1.7 1.2 0 2.3-.7 2.3-1.8v-1.7l-2.5.3zm7.1-9.1h1.6v11.2c0 .6.2 1 .9 1 .4 0 .7 0 1-.1l.2 1.3s-.9.1-1.6.1c-1.1 0-2-.5-2-1.9v-11.6zm6.3 8.6c0 1.9.9 3.5 2.8 3.5 1.2 0 2-.7 2.5-1.6l1.3.7c-.6 1.3-2 2.2-3.7 2.2-2.6 0-4.4-2.1-4.4-4.9 0-2.9 1.7-4.9 4.4-4.9 1.7 0 3.1.9 3.7 2.2l-1.3.7c-.5-.9-1.3-1.6-2.5-1.6-1.9.1-2.8 1.7-2.8 3.7zm16.3 4.7h-1.6v-1.1c-.6.9-1.6 1.3-2.8 1.3-2.1 0-3.2-1.5-3.2-3.2v-6.4h1.6v5.9c0 1.7.9 2.3 2 2.3 1.3 0 2.4-.9 2.4-2.6v-5.6h1.6v9.4zm3-13.3h1.6v11.2c0 .6.2 1 .9 1 .4 0 .7 0 1-.1l.2 1.3s-.9.1-1.6.1c-1.1 0-2-.5-2-1.9v-11.6zm7.8 13.5c-1.9 0-3.3-1.1-3.3-2.9 0-1.5 1-2.5 2.5-2.7l3.3-.5v-.6c0-1.4-.9-1.9-2.1-1.9-1.1 0-2 .3-2.7.7l-.6-1.2c1.1-.6 2.3-.9 3.5-.9 2.3 0 3.5 1 3.5 3v4.4c0 .6.2 1 .8 1.3l-.9 1.1c-.6-.2-1.1-.6-1.3-1.1-.5.8-1.4 1.3-2.7 1.3zm.1-4.4c-1 .2-1.7.5-1.7 1.5 0 1.1.9 1.7 1.9 1.7 1.2 0 2.3-.7 2.3-1.8v-1.7l-2.5.3zm9.5 1.8c0 .6.1 1.2 1.2 1.2.3 0 .9-.1 1.2-.1l.2 1.4s-.9.1-1.7.1c-1.5 0-2.4-.6-2.4-2.2v-6.1h-1.8v-1.4h1.8v-3.1l1.6-.6v3.6h2.6v1.4h-2.6v5.8zm5.8-1.9c.1 1.8 1.2 3.1 2.9 3.1 1.1 0 1.8-.4 2.5-.9l.8 1.1c-.9.7-2 1.2-3.4 1.2-2.8 0-4.5-2.1-4.5-4.9 0-2.9 1.7-4.9 4.3-4.9 2.5 0 4 2.1 4 4.9v.5h-6.6zm.1-1.2h5c-.1-1.5-.9-2.8-2.4-2.8-1.6 0-2.6 1.4-2.6 2.8zm15.3 4.4c-.6.8-1.6 1.3-2.8 1.3-2.5 0-4-2.1-4-4.9 0-2.9 1.6-4.9 4-4.9 1.2 0 2.2.5 2.8 1.3v-4.9h1.6V421h-1.6v-1.2zm-5.2-3.6c0 2 .9 3.5 2.7 3.5 1.7 0 2.5-1.2 2.5-2.8v-1.5c0-1.6-.9-2.8-2.5-2.8-1.8 0-2.7 1.5-2.7 3.6z"/><path class="st6" d="M68.2 423.3v-1h291.6v1H68.2z"/><path class="st5" d="M227.1 215.4h3l-4.4 7.9v5.4H223v-5.4l-4.4-7.9h3.1l2.7 5.1 2.7-5.1zm5 9.2c.2 1.3 1.2 1.9 2.4 1.9 1 0 1.8-.3 2.5-.9l1.3 1.9c-.9.7-2.2 1.3-3.9 1.3-2.7 0-5-1.9-5-5.1v-.1c0-2.9 2-5.1 4.8-5.1 2.6 0 4.6 2 4.6 4.9v1.2h-6.7zm0-2h4c-.1-.9-.6-1.9-2-1.9-1.3.1-1.9 1.1-2 1.9zm9.3 2.9c.7.7 1.9 1.2 2.9 1.2.8 0 1.4-.2 1.4-.8 0-.5-.4-.7-1.2-.9-.6-.2-1.6-.3-2.5-.7-1-.4-1.7-1.2-1.7-2.6 0-2.1 1.9-3.2 4.1-3.2 1.7 0 3.1.6 3.9 1.4l-1.6 1.7c-.5-.5-1.3-.9-2.3-.9-.7 0-1.4.2-1.4.8 0 .5.4.6 1.2.8 1.2.3 2.1.5 2.8.9.8.4 1.4 1.3 1.4 2.4 0 2.1-1.8 3.2-4 3.2-1.6 0-3.5-.6-4.5-1.5l1.5-1.8zm12.6.2c0 .5.2.8 1.1.8.4 0 1 0 1.3-.1l.2 2.3s-1.3.2-2.4.2c-1.8 0-2.8-.8-2.8-2.5V221h-1.8v-2.3h1.8v-2.8l2.6-.7v3.5h2.6v2.3H254v4.7zm6.5-1.1c.2 1.3 1.2 1.9 2.4 1.9 1 0 1.8-.3 2.5-.9l1.3 1.9c-.9.7-2.2 1.3-3.9 1.3-2.7 0-5-1.9-5-5.1v-.1c0-2.9 2-5.1 4.8-5.1 2.6 0 4.6 2 4.6 4.9v1.2h-6.7zm0-2h4c-.1-.9-.6-1.9-2-1.9-1.3.1-1.9 1.1-2 1.9zm14.3-1.4h-.5c-1.5 0-2.8.5-2.8 2.6v4.8h-2.6v-9.9h2.6v1.1c.4-.7 1.3-1.3 2.6-1.3h.6v2.7zm1 2.4c0-2.9 1.7-5.1 4.4-5.1 1.2 0 2 .5 2.5 1v-4.2h2.6v13.3h-2.6v-.9c-.6.6-1.3 1-2.5 1-2.6.2-4.4-2-4.4-5.1zm7-.8c0-1.1-.8-1.9-2.1-1.9-1.5 0-2.3 1.2-2.3 2.7v.1c0 1.6.8 2.7 2.3 2.7 1.3 0 2.1-.8 2.1-1.9v-1.7zm7.7 6.1c-1.8 0-3.4-1.1-3.4-3.1 0-1.6 1-2.7 2.8-2.9l3-.4v-.3c0-.9-.6-1.3-1.6-1.3-1.2 0-2.2.5-2.9.8l-1-2c1.2-.6 2.6-1.1 4-1.1 1.8 0 4 .5 4 3.2v4.3c0 .6.3.8.9 1l-1.2 1.8c-1-.1-1.6-.6-1.9-1.1-.6.7-1.5 1.1-2.7 1.1zm.3-4.2c-.6.1-1 .5-1 1 0 .6.5 1.2 1.3 1.2 1.2 0 1.8-.8 1.8-1.8v-.7l-2.1.3zm9 4.4l.1-.3h-.2l-3.1-10h2.8l1.8 6.9 1.8-6.9h2.8l-3.4 11.4c-.4 1.5-1.6 1.9-3.1 1.9-.6 0-1.7-.1-2.3-.2l.5-2.3s.7.1 1.4.1c.6 0 .8-.3.9-.6zM386.4 215.4h2.7v10.8h5.3v2.5h-8v-13.3zm12.3 13.5c-1.8 0-3.4-1.1-3.4-3.1 0-1.6 1-2.7 2.8-2.9l3-.4v-.3c0-.9-.6-1.3-1.6-1.3-1.2 0-2.2.5-2.9.8l-1-2c1.2-.6 2.6-1.1 4-1.1 1.8 0 4 .5 4 3.2v4.3c0 .6.3.8.9 1l-1.2 1.8c-1-.1-1.6-.6-1.9-1.1-.6.7-1.6 1.1-2.7 1.1zm.3-4.2c-.6.1-1 .5-1 1 0 .6.5 1.2 1.3 1.2 1.2 0 1.8-.8 1.8-1.8v-.7l-2.1.3zm7.8.8c.7.7 1.9 1.2 2.9 1.2.8 0 1.4-.2 1.4-.8 0-.5-.4-.7-1.2-.9-.6-.2-1.6-.3-2.5-.7-1-.4-1.7-1.2-1.7-2.6 0-2.1 1.9-3.2 4.1-3.2 1.7 0 3.1.6 3.9 1.4l-1.6 1.7c-.5-.5-1.3-.9-2.3-.9-.7 0-1.4.2-1.4.8 0 .5.4.6 1.2.8 1.2.3 2.1.5 2.8.9.8.4 1.4 1.3 1.4 2.4 0 2.1-1.8 3.2-4 3.2-1.6 0-3.5-.6-4.5-1.5l1.5-1.8zm12.5.2c0 .5.2.8 1.1.8.4 0 1 0 1.3-.1l.2 2.3s-1.3.2-2.4.2c-1.8 0-2.8-.8-2.8-2.5V221H415v-2.3h1.8v-2.8l2.6-.7v3.5h2.6v2.3h-2.6v4.7zm15.1-7.8h-6.7v-2.5h9.5v2.6l-5.1 10.7h-3.2l5.5-10.8zm8.5 5.7c0-2.9 1.7-5.1 4.4-5.1 1.2 0 2 .5 2.5 1v-4.2h2.6v13.3h-2.6v-.9c-.6.6-1.3 1-2.5 1-2.6.2-4.4-2-4.4-5.1zm7-.8c0-1.1-.8-1.9-2.1-1.9-1.5 0-2.3 1.2-2.3 2.7v.1c0 1.6.8 2.7 2.3 2.7 1.3 0 2.1-.8 2.1-1.9v-1.7zm7.7 6.1c-1.8 0-3.4-1.1-3.4-3.1 0-1.6 1-2.7 2.8-2.9l3-.4v-.3c0-.9-.6-1.3-1.6-1.3-1.2 0-2.2.5-2.9.8l-1-2c1.2-.6 2.6-1.1 4-1.1 1.8 0 4 .5 4 3.2v4.3c0 .6.3.8.9 1l-1.2 1.8c-1-.1-1.6-.6-1.9-1.1-.5.7-1.5 1.1-2.7 1.1zm.3-4.2c-.6.1-1 .5-1 1 0 .6.5 1.2 1.3 1.2 1.2 0 1.8-.8 1.8-1.8v-.7l-2.1.3zm9.1 4.4l.1-.3h-.2l-3.1-10h2.8l1.8 6.9 1.8-6.9h2.8l-3.4 11.4c-.4 1.5-1.6 1.9-3.1 1.9-.6 0-1.7-.1-2.3-.2l.5-2.3s.7.1 1.4.1c.5 0 .8-.3.9-.6zm8.1-3.6c.7.7 1.9 1.2 2.9 1.2.8 0 1.4-.2 1.4-.8 0-.5-.4-.7-1.2-.9-.6-.2-1.6-.3-2.5-.7-1-.4-1.7-1.2-1.7-2.6 0-2.1 1.9-3.2 4.1-3.2 1.7 0 3.1.6 3.9 1.4l-1.6 1.7c-.5-.5-1.3-.9-2.3-.9-.7 0-1.4.2-1.4.8 0 .5.4.6 1.2.8 1.2.3 2.1.5 2.8.9.8.4 1.4 1.3 1.4 2.4 0 2.1-1.8 3.2-4 3.2-1.6 0-3.5-.6-4.5-1.5l1.5-1.8zM545.8 215.4h5.3c2.8 0 4.5 1.9 4.5 4.4 0 2.5-1.9 4.4-4.7 4.4h-2.4v4.5h-2.7v-13.3zm4.6 2.4h-1.9v4h1.9c1.5 0 2.4-.7 2.4-1.9v-.1c0-1.3-.9-2-2.4-2zm12.6 3.4h-.5c-1.5 0-2.8.5-2.8 2.6v4.8h-2.6v-9.9h2.6v1.1c.4-.7 1.3-1.3 2.6-1.3h.6v2.7zm3.6 3.4c.2 1.3 1.2 1.9 2.4 1.9 1 0 1.8-.3 2.5-.9l1.3 1.9c-.9.7-2.2 1.3-3.9 1.3-2.7 0-5-1.9-5-5.1v-.1c0-2.9 2-5.1 4.8-5.1 2.6 0 4.6 2 4.6 4.9v1.2h-6.7zm0-2h4c-.1-.9-.6-1.9-2-1.9-1.3.1-1.9 1.1-2 1.9zm10.5 6.1l-3-9.9h2.8l1.8 6.8 1.8-6.8h2.8l-3 9.9h-3.2zm8.9-13.8c.9 0 1.6.7 1.6 1.6s-.7 1.6-1.6 1.6-1.6-.7-1.6-1.6.7-1.6 1.6-1.6zm1.3 13.8h-2.6v-9.9h2.6v9.9zm11.7-5c0 2.9-2 5.1-4.9 5.1s-4.9-2.2-4.9-5.1c0-2.9 1.9-5.1 4.9-5.1 2.9-.1 4.9 2.2 4.9 5.1zm-2.7 0c0-1.6-.8-2.8-2.3-2.8s-2.2 1.2-2.3 2.8c0 1.6.8 2.8 2.3 2.8s2.3-1.2 2.3-2.8zm13 5h-2.6v-.9c-.6.6-1.3 1-2.5 1-2.2 0-3.4-1.5-3.4-3.4v-6.7h2.6v5.8c0 1.4.7 1.9 1.6 1.9 1 0 1.8-.7 1.8-2.3v-5.4h2.6v10zm3.2-3.2c.7.7 1.9 1.2 2.9 1.2.8 0 1.4-.2 1.4-.8 0-.5-.4-.7-1.2-.9-.6-.2-1.6-.3-2.5-.7-1-.4-1.7-1.2-1.7-2.6 0-2.1 1.9-3.2 4.1-3.2 1.7 0 3.1.6 3.9 1.4l-1.6 1.7c-.5-.5-1.3-.9-2.3-.9-.7 0-1.4.2-1.4.8 0 .5.4.6 1.2.8 1.2.3 2.1.5 2.8.9.8.4 1.4 1.3 1.4 2.4 0 2.1-1.8 3.2-4 3.2-1.6 0-3.5-.6-4.5-1.5l1.5-1.8zm22.5-.1l1.2-6.7h2.7l-2.3 9.9h-3l-1.5-6.5-1.6 6.5h-3l-2.3-9.9h2.8l1.2 6.7 1.7-6.7h2.5l1.6 6.7zm7.5-.8c.2 1.3 1.2 1.9 2.4 1.9 1 0 1.8-.3 2.5-.9l1.3 1.9c-.9.7-2.2 1.3-3.9 1.3-2.7 0-5-1.9-5-5.1v-.1c0-2.9 2-5.1 4.8-5.1 2.6 0 4.6 2 4.6 4.9v1.2h-6.7zm0-2h4c-.1-.9-.6-1.9-2-1.9-1.3.1-1.9 1.1-2 1.9zm10.7 2c.2 1.3 1.2 1.9 2.4 1.9 1 0 1.8-.3 2.5-.9l1.3 1.9c-.9.7-2.2 1.3-3.9 1.3-2.7 0-5-1.9-5-5.1v-.1c0-2.9 2-5.1 4.8-5.1 2.6 0 4.6 2 4.6 4.9v1.2h-6.7zm0-2h4c-.1-.9-.6-1.9-2-1.9-1.3.1-1.9 1.1-2 1.9zm11.1 0l3.5-3.9h3.3l-3.9 4.1 4 5.9H668l-2.6-4.1-1.1 1.2v2.9h-2.6v-13.3h2.6v7.2zm8.8 2.9c.7.7 1.9 1.2 2.9 1.2.8 0 1.4-.2 1.4-.8 0-.5-.4-.7-1.2-.9-.6-.2-1.6-.3-2.5-.7-1-.4-1.7-1.2-1.7-2.6 0-2.1 1.9-3.2 4.1-3.2 1.7 0 3.1.6 3.9 1.4l-1.6 1.7c-.5-.5-1.3-.9-2.3-.9-.7 0-1.4.2-1.4.8 0 .5.4.6 1.2.8 1.2.3 2.1.5 2.8.9.8.4 1.4 1.3 1.4 2.4 0 2.1-1.8 3.2-4 3.2-1.6 0-3.5-.6-4.5-1.5l1.5-1.8z"/><path class="st3" d="M480.1 297.7H901V353H480.1z"/><path class="st5" d="M481.6 386.2h9v2.4h-6.3v2.8h5.8v2.4h-5.8v5.6h-2.7v-13.2zm13.3 13.5c-1.8 0-3.4-1.1-3.4-3.1 0-1.6 1-2.7 2.8-2.9l3-.4v-.3c0-.9-.6-1.3-1.6-1.3-1.2 0-2.2.5-2.9.8l-1-2c1.2-.6 2.6-1.1 4-1.1 1.8 0 4 .5 4 3.2v4.3c0 .6.3.8.9 1l-1.2 1.8c-1-.1-1.6-.6-1.9-1.1-.5.7-1.5 1.1-2.7 1.1zm.3-4.2c-.6.1-1 .5-1 1 0 .6.5 1.2 1.3 1.2 1.2 0 1.8-.8 1.8-1.8v-.7l-2.1.3zm8.3-9.8c.9 0 1.6.7 1.6 1.6s-.7 1.6-1.6 1.6-1.6-.7-1.6-1.6.7-1.6 1.6-1.6zm1.3 13.8h-2.6v-9.9h2.6v9.9zm2.4-13.3h2.6v10.6c0 .4.2.6.8.6.3 0 .7 0 1-.1l.2 2.2s-1.2.2-2.2.2c-1.4 0-2.3-.8-2.3-2.2v-11.3zm7.8 9.2c.2 1.3 1.2 1.9 2.4 1.9 1 0 1.8-.3 2.5-.9l1.3 1.9c-.9.7-2.2 1.3-3.9 1.3-2.7 0-5-1.9-5-5.1v-.1c0-2.9 2-5.1 4.8-5.1 2.6 0 4.6 2 4.6 4.9v1.2H515zm.1-1.9h4c-.1-.9-.6-1.9-2-1.9-1.3 0-2 1-2 1.9zm8 1c0-2.9 1.7-5.1 4.4-5.1 1.2 0 2 .5 2.5 1v-4.2h2.6v13.3H530v-.9c-.6.6-1.3 1-2.5 1-2.6.1-4.4-2.1-4.4-5.1zm6.9-.9c0-1.1-.8-1.9-2.1-1.9-1.5 0-2.3 1.2-2.3 2.7v.1c0 1.6.8 2.7 2.3 2.7 1.3 0 2.1-.8 2.1-1.9v-1.7zm12.1-4v.9c.6-.6 1.3-1 2.5-1 2.6 0 4.4 2.2 4.4 5.1v.1c0 2.9-1.8 5.1-4.4 5.1-1.2 0-1.9-.5-2.5-1v4h-2.6v-13.1h2.6zm-.1 5.8c0 1.1.8 1.9 2.1 1.9 1.5 0 2.3-1.2 2.3-2.7v-.1c0-1.6-.8-2.7-2.3-2.7-1.3 0-2.1.8-2.1 1.9v1.7zm11.7 4.3c-1.8 0-3.4-1.1-3.4-3.1 0-1.6 1-2.7 2.8-2.9l3-.4v-.3c0-.9-.6-1.3-1.6-1.3-1.2 0-2.2.5-2.9.8l-1-2c1.2-.6 2.6-1.1 4-1.1 1.8 0 4 .5 4 3.2v4.3c0 .6.3.8.9 1l-1.2 1.8c-1-.1-1.6-.6-1.9-1.1-.6.7-1.5 1.1-2.7 1.1zm.3-4.2c-.6.1-1 .5-1 1 0 .6.5 1.2 1.3 1.2 1.2 0 1.8-.8 1.8-1.8v-.7l-2.1.3zm9 4.4l.1-.3h-.2l-3.1-10h2.8l1.8 6.9 1.8-6.9h2.8l-3.4 11.4c-.4 1.5-1.6 1.9-3.1 1.9-.6 0-1.7-.1-2.3-.2l.5-2.3s.7.1 1.4.1c.6 0 .9-.2.9-.6zm15.9-.4h-2.6v-5.8c0-1.4-.7-1.9-1.5-1.9-1 0-1.7.7-1.7 2.3v5.4h-2.6v-9.9h2.6v.9c.6-.7 1.6-1.1 2.5-1.1 1 0 2 .4 2.6 1.3.7-1 1.8-1.3 3-1.3 2.2 0 3.5 1.6 3.5 3.3v6.8h-2.6v-5.8c0-1.4-.7-1.9-1.5-1.9-1 0-1.7.7-1.7 2.3v5.4zm10.3-4.1c.2 1.3 1.2 1.9 2.4 1.9 1 0 1.8-.3 2.5-.9l1.3 1.9c-.9.7-2.2 1.3-3.9 1.3-2.7 0-5-1.9-5-5.1v-.1c0-2.9 2-5.1 4.8-5.1 2.6 0 4.6 2 4.6 4.9v1.2h-6.7zm0-1.9h4c-.1-.9-.6-1.9-2-1.9-1.2 0-1.9 1-2 1.9zm8.6-3.9h2.6v.9c.6-.6 1.3-1 2.5-1 2.2 0 3.4 1.5 3.4 3.4v6.7h-2.6v-5.8c0-1.4-.7-1.9-1.6-1.9-1 0-1.8.7-1.8 2.3v5.4h-2.6v-10zm14.5 6.9c0 .5.2.8 1.1.8.4 0 1 0 1.3-.1l.2 2.3s-1.3.2-2.4.2c-1.8 0-2.8-.8-2.8-2.5v-5.3h-1.8v-2.3h1.8v-2.8l2.6-.7v3.5h2.6v2.3h-2.6v4.6zm5.2-.2c.7.7 1.9 1.2 2.9 1.2.8 0 1.4-.2 1.4-.8 0-.5-.4-.7-1.2-.9-.6-.2-1.6-.3-2.5-.7-1-.4-1.7-1.2-1.7-2.6 0-2.1 1.9-3.2 4.1-3.2 1.7 0 3.1.6 3.9 1.4l-1.6 1.7c-.5-.5-1.3-.9-2.3-.9-.7 0-1.4.2-1.4.8 0 .5.4.6 1.2.8 1.2.3 2.1.5 2.8.9.8.4 1.4 1.3 1.4 2.4 0 2.1-1.8 3.2-4 3.2-1.6 0-3.5-.6-4.5-1.5l1.5-1.8z"/><path class="st3" d="M480.1 411.3H901v55.3H480.1z"/><path class="st5" d="M481.6 504.4h5.1c3.2 0 4.9 2 4.9 4.1 0 1.8-1.1 3.2-2.6 3.7l2.9 5.5h-3.1l-2.4-4.8h-2.1v4.8h-2.7v-13.3zm4.9 2.5h-2.2v3.6h2.2c1.5 0 2.3-.8 2.3-1.8 0-1.1-.8-1.8-2.3-1.8zm9.1 6.8c.2 1.3 1.2 1.9 2.4 1.9 1 0 1.8-.3 2.5-.9l1.3 1.9c-.9.7-2.2 1.3-3.9 1.3-2.7 0-5-1.9-5-5.1v-.1c0-2.9 2-5.1 4.8-5.1 2.6 0 4.6 2 4.6 4.9v1.2h-6.7zm0-2h4c-.1-.9-.6-1.9-2-1.9-1.3 0-1.9 1-2 1.9zm11.8-3.9h1.9v2.3h-1.9v7.6h-2.6v-7.6h-1.6v-2.3h1.6v-1c0-1.7 1.2-2.5 3-2.5.9 0 1.7.1 2 .1l-.2 2.2c-.3-.1-.9-.1-1.3-.1-.7 0-1 .3-1 .7v.6zm12 9.9h-2.6v-.9c-.6.6-1.3 1-2.5 1-2.2 0-3.4-1.5-3.4-3.4v-6.7h2.6v5.8c0 1.4.7 1.9 1.6 1.9 1 0 1.8-.7 1.8-2.3v-5.4h2.6v10zm2.4-9.9h2.6v.9c.6-.6 1.3-1 2.5-1 2.2 0 3.4 1.5 3.4 3.4v6.7h-2.6V512c0-1.4-.7-1.9-1.6-1.9-1 0-1.8.7-1.8 2.3v5.4h-2.6v-10zm10.4 4.9c0-2.9 1.7-5.1 4.4-5.1 1.2 0 2 .5 2.5 1v-4.2h2.6v13.3h-2.6v-.9c-.6.6-1.3 1-2.5 1-2.6.1-4.4-2-4.4-5.1zm6.9-.8c0-1.1-.8-1.9-2.1-1.9-1.5 0-2.3 1.2-2.3 2.7v.1c0 1.6.8 2.7 2.3 2.7 1.3 0 2.1-.8 2.1-1.9v-1.7zm7.1 1.8c.2 1.3 1.2 1.9 2.4 1.9 1 0 1.8-.3 2.5-.9l1.3 1.9c-.9.7-2.2 1.3-3.9 1.3-2.7 0-5-1.9-5-5.1v-.1c0-2.9 2-5.1 4.8-5.1 2.6 0 4.6 2 4.6 4.9v1.2h-6.7zm0-2h4c-.1-.9-.6-1.9-2-1.9-1.3 0-1.9 1-2 1.9zm8 1c0-2.9 1.7-5.1 4.4-5.1 1.2 0 2 .5 2.5 1v-4.2h2.6v13.3h-2.6v-.9c-.6.6-1.3 1-2.5 1-2.6.1-4.4-2-4.4-5.1zm7-.8c0-1.1-.8-1.9-2.1-1.9-1.5 0-2.3 1.2-2.3 2.7v.1c0 1.6.8 2.7 2.3 2.7 1.3 0 2.1-.8 2.1-1.9v-1.7zm12-4.1v.9c.6-.6 1.3-1 2.5-1 2.6 0 4.4 2.2 4.4 5.1v.1c0 2.9-1.8 5.1-4.4 5.1-1.2 0-1.9-.5-2.5-1v4h-2.6v-13.1h2.6zm-.1 5.9c0 1.1.8 1.9 2.1 1.9 1.5 0 2.3-1.2 2.3-2.7v-.1c0-1.6-.8-2.7-2.3-2.7-1.3 0-2.1.8-2.1 1.9v1.7zm11.7 4.2c-1.8 0-3.4-1.1-3.4-3.1 0-1.6 1-2.7 2.8-2.9l3-.4v-.3c0-.9-.6-1.3-1.6-1.3-1.2 0-2.2.5-2.9.8l-1-2c1.2-.6 2.6-1.1 4-1.1 1.8 0 4 .5 4 3.2v4.3c0 .6.3.8.9 1l-1.2 1.8c-1-.1-1.6-.6-1.9-1.1-.5.8-1.5 1.1-2.7 1.1zm.3-4.2c-.6.1-1 .5-1 1 0 .6.5 1.2 1.3 1.2 1.2 0 1.8-.8 1.8-1.8v-.7l-2.1.3zm9.1 4.4l.1-.3h-.2l-3.1-10h2.8l1.8 6.9 1.8-6.9h2.8l-3.4 11.4c-.4 1.5-1.6 1.9-3.1 1.9-.6 0-1.7-.1-2.3-.2l.5-2.3s.7.1 1.4.1c.6.1.8-.2.9-.6zm15.9-.4h-2.6V512c0-1.4-.7-1.9-1.5-1.9-1 0-1.7.7-1.7 2.3v5.4h-2.6v-9.9h2.6v.9c.6-.7 1.6-1.1 2.5-1.1 1 0 2 .4 2.6 1.3.7-1 1.8-1.3 3-1.3 2.2 0 3.5 1.6 3.5 3.3v6.8h-2.6V512c0-1.4-.7-1.9-1.5-1.9-1 0-1.7.7-1.7 2.3v5.3zm10.3-4c.2 1.3 1.2 1.9 2.4 1.9 1 0 1.8-.3 2.5-.9l1.3 1.9c-.9.7-2.2 1.3-3.9 1.3-2.7 0-5-1.9-5-5.1v-.1c0-2.9 2-5.1 4.8-5.1 2.6 0 4.6 2 4.6 4.9v1.2h-6.7zm0-2h4c-.1-.9-.6-1.9-2-1.9-1.3 0-1.9 1-2 1.9zm8.5-3.9h2.6v.9c.6-.6 1.3-1 2.5-1 2.2 0 3.4 1.5 3.4 3.4v6.7h-2.6V512c0-1.4-.7-1.9-1.6-1.9-1 0-1.8.7-1.8 2.3v5.4h-2.6v-10zm14.5 7c0 .5.2.8 1.1.8.4 0 1 0 1.3-.1l.2 2.3s-1.3.2-2.4.2c-1.8 0-2.8-.8-2.8-2.5v-5.3H639v-2.3h1.8V505l2.6-.7v3.5h2.6v2.3h-2.6v4.7zm5.2-.2c.7.7 1.9 1.2 2.9 1.2.8 0 1.4-.2 1.4-.8 0-.5-.4-.7-1.2-.9-.6-.2-1.6-.3-2.5-.7-1-.4-1.7-1.2-1.7-2.6 0-2.1 1.9-3.2 4.1-3.2 1.7 0 3.1.6 3.9 1.4l-1.6 1.7c-.5-.5-1.3-.9-2.3-.9-.7 0-1.4.2-1.4.8 0 .5.4.6 1.2.8 1.2.3 2.1.5 2.8.9.8.4 1.4 1.3 1.4 2.4 0 2.1-1.8 3.2-4 3.2-1.6 0-3.5-.6-4.5-1.5l1.5-1.8z"/><path class="st3" d="M480.1 529.6H901v55.3H480.1z"/><path class="st4" d="M309.9 65.8c2.4 0 4.2.6 5.4 1.8 1.2 1.2 1.9 3 1.9 5.2s-.6 4-1.9 5.2c-1.2 1.2-3 1.9-5.4 1.8h-7.3v9.7h-3.2V65.8h10.5zm-1.1 11.4c1.8 0 3.1-.3 3.9-1.1.8-.8 1.3-1.8 1.3-3.3 0-1.4-.4-2.5-1.3-3.3-.8-.7-2.1-1.1-3.9-1.1h-6.2v8.7h6.2zm27 12.4c-.5.3-1.2.4-2 .4-.7 0-1.3-.2-1.7-.6-.4-.4-.6-1.1-.6-2-.8.9-1.7 1.6-2.7 2-1 .4-2.1.6-3.3.6-.8 0-1.5-.1-2.2-.3-.7-.2-1.3-.5-1.8-.8-.5-.4-.9-.9-1.2-1.5-.3-.6-.4-1.4-.4-2.2 0-1 .2-1.8.5-2.4s.8-1.1 1.3-1.5c.5-.4 1.2-.7 1.9-.9.7-.2 1.4-.4 2.1-.5.8-.2 1.5-.3 2.2-.4.7-.1 1.3-.2 1.8-.3.5-.1 1-.4 1.3-.6.3-.3.5-.7.5-1.2 0-.6-.1-1.1-.4-1.5-.2-.4-.5-.7-.9-.9-.4-.2-.8-.3-1.2-.4-.5-.1-.9-.1-1.3-.1-1.2 0-2.2.2-3 .7-.8.5-1.2 1.3-1.3 2.6h-2.8c0-1.1.3-2 .7-2.7.4-.7.9-1.3 1.6-1.8.7-.5 1.4-.8 2.3-1 .9-.2 1.8-.3 2.8-.3.8 0 1.5.1 2.3.2.8.1 1.5.3 2.1.7.6.3 1.1.8 1.5 1.4.4.6.6 1.4.6 2.4v8.8c0 .7 0 1.2.1 1.5.1.3.3.5.8.5.2 0 .5 0 .9-.1v2.2zm-4.6-8.9c-.4.3-.8.5-1.4.6l-1.8.3c-.6.1-1.3.2-1.9.3-.6.1-1.2.3-1.7.5s-.9.5-1.2.9c-.3.4-.5 1-.5 1.7 0 .5.1.9.3 1.2.2.3.4.6.7.8.3.2.6.3 1.1.4.4.1.8.1 1.3.1.9 0 1.7-.1 2.4-.4.7-.3 1.2-.6 1.6-1 .4-.4.7-.8.9-1.3.2-.5.3-.9.3-1.3v-2.8zm14 11.2c-.3.8-.7 1.6-1 2.1-.3.6-.7 1.1-1.1 1.4-.4.4-.8.6-1.3.8-.5.2-1 .2-1.7.2-.3 0-.7 0-1-.1-.3 0-.7-.1-1-.2v-2.6c.2.1.5.2.8.3.3.1.6.1.8.1.6 0 1.1-.1 1.4-.4.4-.3.7-.7.9-1.2l1.2-2.9-6.8-17.1h3.2l5 14.1h.1l4.8-14.1h3l-7.3 19.6z"/><path d="M54.7 239.2h8.6v-39h111.9v39H901" fill="none" stroke="#8c8c8c" stroke-miterlimit="10"/><path class="st5" d="M87.1 326.2c-1.1-2.6-3.9-4.6-7.8-4.6-4.6 0-7.6 3.4-7.5 8.7l.1 5.6h11.3v9.8H71.9v12h23.5V368H55.9v-10.2h4.6v-12h-4.6V336h4.6v-6.3c0-11.5 7.8-18.4 18.6-18.4 7.5 0 14 3 17.1 8.2l-9.1 6.7zm17.4 16.4l3.1-30.6h35.6v10.2h-25.9l-1.3 11.1c2.6-2.8 7.3-4.1 11.2-4.1 11.3 0 18.8 7.9 18.8 19.3 0 12.3-9.7 20.2-22.1 20.2-10.1 0-19-4.8-21.4-14.5l10.8-3.4c1.2 4.1 4.2 7.7 10.6 7.7 6.7 0 10.3-4.5 10.3-9.9s-3.5-9.7-9.9-9.7c-3.7 0-7 1.8-9 4.8l-10.8-1.1zm90.9-15.4c0 3.9-2 9-7.7 11.6 6.5 2.6 9.3 7.9 9.3 13 0 11.8-10.8 17-22.1 17-11.2 0-22.1-5.2-22.1-17 0-5.1 2.9-10.5 9.3-13-5.6-2.6-7.7-7.7-7.7-11.6 0-10.7 10-16 20.5-16s20.5 5 20.5 16zM185 351.5c0-4.6-4.2-7.8-10.1-7.8-5.9 0-10.1 3.2-10.1 7.8s4.2 7.7 10.1 7.7c5.9 0 10.1-3 10.1-7.7zm-1.3-23.9c0-4.2-3.7-6.8-8.8-6.8s-8.8 2.6-8.8 6.8c0 4.5 3.5 6.9 8.8 6.9s8.8-2.4 8.8-6.9zm36.7 35.7c0 6.2-3.4 12.8-14.2 12.8l-.4-3.7c1.4-.2 2.5-.5 3.4-.7 2.6-.7 3-2 3-3v-.2c-4.6 0-7.8-2.6-7.8-7.1 0-4 3.4-7.4 7.5-7.4 5.2-.2 8.5 4.1 8.5 9.3zm18.3-12.4c1.7 5.4 5.6 7.8 10.7 7.8 7.1 0 9.6-3.6 9.6-7.2 0-4.4-3.3-6.9-10.9-6.9h-3.4v-10.1h2.6c6.8 0 10.6-2 10.6-6.6 0-4-3.4-6.5-8.3-6.5-5.6 0-8.9 3.2-10.5 7.5l-10.6-3.3c2.2-9.7 11.7-14.5 21-14.5 11.5 0 20.2 6 20.2 16 0 5.5-3.6 10.5-9.2 11.7 5.8 1.3 10.2 6.1 10.2 12.9 0 11.4-9.4 17-21.5 17-10.6 0-20.1-5-22.1-15l11.6-2.8zm66.4 17.1v-12.6h-27.9v-12.1L303 312h13.5v33.1h8.2v10.2h-8.2V368h-11.4zm0-22.9v-21l-17.4 21h17.4zm70.6-5.1c0 14.5-6.6 28.8-22.4 28.8-15.8 0-22.4-14.3-22.4-28.8s6.6-28.8 22.4-28.8c15.8 0 22.4 14.3 22.4 28.8zm-11.8 1.1V339c0-10.5-3.5-17.5-10.6-17.5s-10.6 7-10.6 17.5v2.2c0 10.4 3.6 17.4 10.6 17.4s10.6-7.1 10.6-17.5zM502.1 326l1-9.6h11.2v2.1H505l-.6 5.6c1.1-1 2.6-1.5 4.2-1.5 3.7 0 6.5 2.8 6.5 6.6 0 4.2-2.9 7.1-7 7.1-3.2 0-5.9-1.6-6.6-4.7l2.5-.3c.5 1.7 1.8 2.9 4.1 2.9 2.8 0 4.5-2.1 4.5-4.8 0-2.8-1.7-4.7-4.5-4.7-1.3 0-2.9.7-3.7 1.7l-2.3-.4zm29.8-4.6c0 1.8-.8 3.6-3.3 4.4 2.7.8 3.9 2.9 3.9 5 0 3.6-3.4 5.5-7 5.5s-7-1.9-7-5.5c0-2.1 1.1-4.2 3.9-5-2.5-.8-3.3-2.7-3.3-4.4 0-3.4 3.1-5.3 6.4-5.3 3.3.1 6.4 1.9 6.4 5.3zm-1.9 9.2c0-2.4-2.1-3.6-4.5-3.6s-4.5 1.2-4.5 3.6c0 2.4 2.1 3.6 4.5 3.6 2.3 0 4.5-1.2 4.5-3.6zm-.5-9c0-2.1-2-3.4-4-3.4s-4 1.2-4 3.4c0 2.1 1.8 3.3 4 3.3 2.1 0 4-1.2 4-3.3zm6.6 14.4v-2.4c1.5-1.3 5.6-4.7 7.1-6 1.6-1.4 3-3.1 3-5.4 0-2.5-1.6-3.9-3.8-3.9-2.5 0-3.7 1.7-3.8 4.1l-2.5-.2c.1-3.9 2.7-6.1 6.4-6.1 3.8 0 6.4 2.3 6.4 6.2 0 2.9-1.5 4.7-5.8 8.5l-3.6 3.1h9.7v2.2h-13.1zM798.6 320c-.6-1-1.8-1.7-3.4-1.7-2.1 0-3.6 1.6-3.6 4.1v3.1h4.6v2.1h-4.6v6.4h8.8v2.1h-12.6V334h1.5v-6.4h-1.5v-2.1h1.5v-3c0-3.9 2.4-6.3 5.9-6.3 2.4 0 4.2.8 5.3 2.4l-1.9 1.4zm5.9 6l1-9.6h11.2v2.1h-9.3l-.6 5.6c1.1-1 2.6-1.5 4.2-1.5 3.7 0 6.5 2.8 6.5 6.6 0 4.2-2.9 7.1-7 7.1-3.2 0-5.9-1.6-6.6-4.7l2.5-.3c.5 1.7 1.8 2.9 4.1 2.9 2.8 0 4.5-2.1 4.5-4.8 0-2.8-1.7-4.7-4.5-4.7-1.3 0-2.9.7-3.7 1.7l-2.3-.4zm30.4-.3c0 5.3-2.1 10.6-7.8 10.6-2.8 0-4.8-1.3-5.8-3.1l2.4-.8c.9 1.3 2 1.9 3.4 1.9 3.7 0 5.2-3.9 5.3-7.8h-.1c-.8 1.4-2.5 2.8-5.2 2.8-3.7 0-6.4-2.7-6.4-6.4 0-3.8 2.8-6.7 6.7-6.7 4.1 0 7.3 3.2 7.3 9v.5zm-7.3-7.5c-2.5 0-4.3 1.8-4.3 4.5s1.8 4.5 4.4 4.5c2.6 0 4.4-1.8 4.4-4.4-.1-2.7-2-4.6-4.5-4.6zm14.7 16.8c0 1.6-.8 3.4-3.3 3.6h-.4l-.1-1 .3-.1c.7-.1 1.4-.4 1.4-1.1v-.1h-.2c-1 0-1.8-.8-1.8-1.8s.8-1.9 1.9-1.9c1.2 0 2.2.9 2.2 2.4zm6-18.4v-.2h2.4V336h-2.4v-14.3h-3.6v-2.1h.4c2.5 0 3.2-.9 3.2-3zm21.2 9.6c0 5.1-1.8 10.1-7.1 10.1s-7.1-5-7.1-10.1 1.8-10.1 7.1-10.1c5.3.1 7.1 5 7.1 10.1zm-2.5.6v-1.1c0-4.7-1.8-7.4-4.6-7.4-2.7 0-4.6 2.7-4.6 7.4v1.1c0 4.7 1.8 7.4 4.6 7.4s4.6-2.7 4.6-7.4zm6.3 9.2v-2.4c1.5-1.3 5.6-4.7 7.1-6 1.6-1.4 3-3.1 3-5.4 0-2.5-1.6-3.9-3.8-3.9-2.5 0-3.7 1.7-3.8 4.1l-2.5-.2c.1-3.9 2.7-6.1 6.4-6.1 3.8 0 6.4 2.3 6.4 6.2 0 2.9-1.5 4.7-5.8 8.5l-3.6 3.1h9.7v2.2h-13.1zM504 444.2c.7 1.8 2 3.2 4.5 3.2 2.9 0 4.2-1.7 4.2-3.6 0-2.2-1.6-3.4-4.6-3.4h-.9v-2.1h.5c2.5 0 4.6-.9 4.6-3.4 0-2.3-1.8-3.4-3.8-3.4-2.2 0-3.6 1.3-4.3 3l-2.2-.8c1.1-2.9 3.7-4.2 6.6-4.2 3.4 0 6.3 2.2 6.3 5.2 0 2.1-1.2 4-3.6 4.5 2.8.6 4 2.5 4 4.8 0 3.8-3.2 5.6-6.8 5.6-3.2 0-5.8-1.5-6.9-4.5l2.4-.9zm24.1 5v-5h-9.8v-2.4l8.8-12.2h3.4v12.5h3.2v2h-3.2v5h-2.4zm0-7v-10.5l-7.6 10.5h7.6zM810.7 433.2c-.6-1-1.8-1.7-3.4-1.7-2.1 0-3.6 1.6-3.6 4.1v3.1h4.6v2.1h-4.6v6.4h8.8v2.1H800v-2.1h1.5v-6.4H800v-2.1h1.5v-3c0-3.9 2.4-6.3 5.9-6.3 2.4 0 4.2.8 5.3 2.4l-2 1.4zm15.4-1.4h-10.4v-2.2h12.9v2.2l-7.8 17.4H818l8.1-17.4zm7.7 16.4c0 1.6-.8 3.4-3.3 3.6h-.4l-.1-1 .3-.1c.7-.1 1.4-.4 1.4-1.1v-.1h-.2c-1 0-1.8-.8-1.8-1.8s.8-1.9 1.9-1.9c1.2 0 2.2 1 2.2 2.4zm17.6-8.7c0 5.1-1.8 10.1-7.1 10.1s-7.1-5-7.1-10.1 1.8-10.1 7.1-10.1 7.1 5 7.1 10.1zm-2.5.5v-1.1c0-4.7-1.8-7.4-4.6-7.4-2.7 0-4.6 2.7-4.6 7.4v1.1c0 4.7 1.8 7.4 4.6 7.4s4.6-2.7 4.6-7.4zm20.1-1.1c0 5.3-2.1 10.6-7.8 10.6-2.8 0-4.8-1.3-5.8-3.1l2.4-.8c.9 1.3 2 1.9 3.4 1.9 3.7 0 5.2-3.9 5.3-7.8h-.1c-.8 1.4-2.5 2.8-5.2 2.8-3.7 0-6.4-2.7-6.4-6.4 0-3.8 2.8-6.7 6.7-6.7 4.1 0 7.3 3.2 7.3 9v.5zm-7.3-7.5c-2.5 0-4.3 1.8-4.3 4.5s1.8 4.5 4.4 4.5c2.6 0 4.4-1.8 4.4-4.4-.1-2.7-1.9-4.6-4.5-4.6zm24.2 3.3c0 1.8-.8 3.6-3.3 4.4 2.7.8 3.9 2.9 3.9 5 0 3.6-3.4 5.5-7 5.5s-7-1.9-7-5.5c0-2.1 1.1-4.2 3.9-5-2.5-.8-3.3-2.7-3.3-4.4 0-3.4 3.1-5.3 6.4-5.3 3.3 0 6.4 1.9 6.4 5.3zm-1.9 9.2c0-2.4-2.1-3.6-4.5-3.6s-4.5 1.2-4.5 3.6c0 2.4 2.1 3.6 4.5 3.6 2.3-.1 4.5-1.2 4.5-3.6zm-.5-9c0-2.1-2-3.4-4-3.4s-4 1.2-4 3.4c0 2.1 1.8 3.3 4 3.3 2.1-.1 4-1.3 4-3.3zM511 567.2v-5h-9.8v-2.4l8.8-12.2h3.4v12.5h3.2v2h-3.2v5H511zm0-7v-10.5l-7.6 10.5h7.6zM834.7 551.2c-.6-1-1.8-1.7-3.4-1.7-2.1 0-3.6 1.6-3.6 4.1v3.1h4.6v2.1h-4.6v6.4h8.8v2.1H824v-2.1h1.5v-6.4H824v-2.1h1.5v-3c0-3.9 2.4-6.3 5.9-6.3 2.4 0 4.2.8 5.3 2.4l-2 1.4zm15.4-1.4h-10.4v-2.2h12.9v2.2l-7.8 17.4H842l8.1-17.4zm5.3 8.2c0-5.3 2.1-10.6 7.8-10.6 2.8 0 4.8 1.3 5.8 3.1l-2.4.8c-.9-1.3-2-1.9-3.4-1.9-3.7 0-5.2 3.9-5.3 7.8h.1c.8-1.4 2.5-2.8 5.2-2.8 3.7 0 6.4 2.7 6.4 6.4 0 3.8-2.8 6.7-6.7 6.7-4.1 0-7.3-3.2-7.3-9v-.5zm7.2 7.5c2.5 0 4.3-1.8 4.3-4.5s-1.8-4.5-4.4-4.5c-2.6 0-4.4 1.8-4.4 4.4.1 2.7 2 4.6 4.5 4.6zm10.4 1.7v-2.4c1.5-1.3 5.6-4.7 7.1-6 1.6-1.4 3-3.1 3-5.4 0-2.5-1.6-3.9-3.8-3.9-2.5 0-3.7 1.7-3.8 4.1l-2.5-.2c.1-3.9 2.7-6.1 6.4-6.1 3.8 0 6.4 2.3 6.4 6.2 0 2.9-1.5 4.7-5.8 8.5l-3.6 3.1h9.7v2.2H873z"/><path class="st6" d="M62.5 414.9l-7.5 5v-10.1zm417.6-117.2h9.6V353h-9.6z"/><path d="M480.1 411.3h9.6v55.3h-9.6z" fill="#8c8c8c"/><path d="M480.1 529.6h9.6v55.3h-9.6z" fill="#de0000"/><path class="st3" d="M0 636h960v4H0z"/></svg>