<svg id="Layer_1" xmlns="http://www.w3.org/2000/svg" viewBox="0 0 960 640"><style>.st3{fill:#dadada}.st4{fill:#fff}.st5{fill:#0b0b0b}.st8{fill:none;stroke:#8c8c8c;stroke-miterlimit:10}</style><path class="st3" d="M0 40V10C0 4.5 4.5 0 10 0h940c5.5 0 10 4.5 10 10v30"/><circle class="st4" cx="25.4" cy="20" r="8.5"/><circle class="st4" cx="49.1" cy="20" r="8.5"/><circle class="st4" cx="72.9" cy="20" r="8.5"/><path class="st5" d="M1 40h958v65H1z"/><path class="st4" d="M267 59.7l-10.7 13v-13h-6.1v30h6.1v-9.1l3.9-4.3 7.9 13.4h7l-11-18.1 10.4-11.9zm-37.4 24.6c-.8-.3-1.4-.6-2-1.2-.6-.5-1-1.2-1.3-2-.3-.8-.5-1.7-.5-2.8V59.7h-6v19.5c0 1.7.3 3.2.9 4.5.6 1.4 1.5 2.5 2.5 3.5 1.1.9 2.4 1.7 3.9 2.2 1.5.5 3.1.8 4.9.8 1.8 0 3.4-.3 4.9-.8 1.5-.5 2.8-1.2 3.9-2.2 1.1-.9 1.9-2.1 2.5-3.5.6-1.4.9-2.9.9-4.5V59.7h-6v18.6c0 1.1-.2 2-.5 2.8-.3.8-.8 1.5-1.3 2-.6.5-1.2.9-2 1.2-.8.3-1.6.4-2.5.4-.7 0-1.5-.2-2.3-.4m-21.9 3.5c.2.5.5.9.8 1.2.3.3.8.6 1.2.8.5.2 1 .3 1.5.3s1-.1 1.5-.3c.5-.2.9-.5 1.2-.8.3-.3.6-.8.8-1.2.2-.5.3-1 .3-1.5s-.1-1-.3-1.5c-.2-.5-.5-.9-.8-1.2-.3-.3-.8-.6-1.2-.8-.5-.2-.9-.3-1.5-.3-.5 0-1 .1-1.5.3-.5.2-.9.5-1.2.8-.3.3-.6.7-.8 1.2-.2.5-.3.9-.3 1.5s.1 1 .3 1.5m-9.6 1.9l8.5-30h-6.7l-5.7 22.6h-.2l-5.8-22.6h-6.8l8.5 30zM161.3 83.9c-1-.5-1.8-1.2-2.5-2.1-.7-.9-1.2-1.9-1.5-3.1a16 16 0 01-.5-3.9v-.2c0-1.4.2-2.7.5-3.9.3-1.2.9-2.2 1.5-3.1.7-.9 1.5-1.6 2.5-2.1s2.2-.7 3.5-.7c1.3 0 2.5.2 3.5.7 1 .5 1.8 1.2 2.5 2.1.7.9 1.2 1.9 1.5 3.1.3 1.2.5 2.5.5 3.9v.2a16 16 0 01-.5 3.9c-.3 1.2-.9 2.2-1.5 3.1-.7.9-1.5 1.6-2.5 2.1s-2.2.7-3.5.7c-1.3.1-2.5-.2-3.5-.7m-2.5-23.4c-1.8.8-3.3 1.9-4.5 3.3-1.2 1.4-2.2 3-2.8 4.9-.6 1.9-1 3.9-1 6 0 2.2.3 4.2 1 6 .6 1.9 1.6 3.5 2.8 4.9 1.2 1.4 2.7 2.5 4.5 3.3 1.8.8 3.8 1.2 6 1.2s4.2-.4 6-1.2c1.8-.8 3.3-1.9 4.5-3.3 1.2-1.4 2.2-3 2.8-4.9.6-1.9 1-3.9 1-6s-.3-4.2-1-6c-.6-1.9-1.6-3.5-2.8-4.9-1.2-1.4-2.7-2.5-4.5-3.3-1.8-.8-3.8-1.2-6-1.2-2.3 0-4.3.4-6 1.2m-33.1 14.1c0-1.3.2-2.5.5-3.7.3-1.2.8-2.2 1.5-3.1.7-.9 1.5-1.6 2.5-2.2 1-.6 2.2-.8 3.6-.8.9 0 1.7.1 2.4.3.7.2 1.4.5 1.9.9.6.4 1.1.9 1.5 1.4.4.5.8 1.1 1.1 1.8l5.3-3c-.5-1-1.2-2-2-2.9-.8-.9-1.7-1.6-2.8-2.2-1.1-.6-2.2-1.1-3.5-1.4-1.3-.3-2.6-.5-4-.5-2.2 0-4.2.4-5.9 1.2-1.8.8-3.3 1.9-4.5 3.3-1.2 1.4-2.2 3-2.9 4.9-.7 1.9-1 3.9-1 6 0 2.2.3 4.2.9 6 .6 1.9 1.5 3.5 2.7 4.9 1.2 1.4 2.6 2.5 4.3 3.3 1.7.8 3.6 1.2 5.8 1.2.9 0 1.8-.1 2.6-.3.8-.2 1.6-.5 2.3-.8.7-.3 1.3-.8 1.9-1.2.6-.5 1-1 1.4-1.6v3.5h5.3V73.3H133v4.6h7.7v.3c0 .6-.1 1.3-.3 2.1-.2.8-.6 1.5-1.1 2.1-.5.6-1.3 1.2-2.2 1.6-.9.4-2 .6-3.4.6s-2.6-.3-3.6-.8c-1-.6-1.9-1.3-2.5-2.2-.7-.9-1.1-2-1.5-3.1-.3-1.2-.5-2.4-.5-3.7v-.2zm-63.4-8.8c1.4.6 2.9-.1 3.4-1.4.6-1.3-.1-2.9-1.4-3.4-1.3-.5-2.9.1-3.4 1.4-.6 1.3.1 2.9 1.4 3.4m-6 3.5c1.4.6 2.9-.1 3.4-1.4.6-1.3-.1-2.9-1.4-3.4-1.3-.5-2.9.1-3.4 1.4-.5 1.3.1 2.9 1.4 3.4m-1.7 6.6c1.4.6 2.9-.1 3.4-1.4.6-1.3-.1-2.9-1.4-3.4-1.3-.5-2.9.1-3.4 1.4-.6 1.4.1 2.9 1.4 3.4m14.3-8c1.4.6 2.9-.1 3.4-1.4.6-1.3-.1-2.9-1.4-3.4-1.3-.5-2.9.1-3.4 1.4-.5 1.3.1 2.9 1.4 3.4M93 65.8c-1.4.6-2.9-.1-3.4-1.4-.6-1.3.1-2.9 1.4-3.4 1.3-.5 2.9.1 3.4 1.4.6 1.3 0 2.9-1.4 3.4m6 3.5c-1.4.6-2.9-.1-3.4-1.4-.6-1.3 0-2.9 1.4-3.4 1.3-.5 2.9.1 3.4 1.4.6 1.3-.1 2.9-1.4 3.4m1.8 6.6c-1.4.6-2.9-.1-3.4-1.4-.6-1.3.1-2.9 1.4-3.4 1.3-.5 2.9.1 3.4 1.4.5 1.4-.1 2.9-1.4 3.4m-14.4-8c-1.4.6-2.9-.1-3.4-1.4-.6-1.3.1-2.9 1.4-3.4 1.3-.5 2.9.1 3.4 1.4.6 1.3-.1 2.9-1.4 3.4m-7.3-6.8l3.3 1.7V58l-3.3 1-.3-.3 1.3-4.2h-4.8l1.3 4.2-.3.3-3.4-1v4.9l3.3-1.7.3.3-1.9 5.8c-.1.3-.1.6-.1.9 0 1.6 1.2 2.8 2.6 3.1h1c1.5-.2 2.7-1.5 2.7-3.1 0-.3 0-.6-.1-.9l-1.9-5.8c0-.1.2-.2.3-.4m-1.4 28.2c6.3 0 12.3.4 17.6 1.2 1.5-6.4 3.4-10 5.3-12.6L97 76.7c.4 1.8.4 2.7 0 3.8-.6-.6-1.1-1.6-1.6-3.3L93.7 83c1.1-.7 1.9-1.2 2.8-1.2-1.7 3.6-3.7 4.5-5.1 4.2-1.6-.3-2.4-1.8-2.1-3 .4-1.7 2.2-2.2 3-.2 1.6-3.3-1.1-4.3-2.9-3.3 2.7-2.7 3-5.1.8-7.9-3 2.3-3.1 4.6-1.7 7.8-1.8-2-4.5-.9-3.5 2.3 1.3-2 3-.7 2.7 1.1-.2 1.6-2.4 2.9-5.1 2.7-3.8-.3-4.1-3-4.2-5.2.9-.2 2.6.7 4.1 2.7l.5-6.1c-1.6 1.6-3 2-4.6 2 .5-1.7 3-4.4 3-4.4h-7.5s2.4 2.7 3 4.4c-1.6-.1-3-.4-4.6-2l.5 6.1c1.5-2 3.2-2.9 4.1-2.7-.1 2.2-.3 4.8-4.2 5.2-2.7.2-4.8-1.1-5.1-2.7-.3-1.9 1.4-3.1 2.7-1.1 1-3.3-1.8-4.3-3.5-2.3 1.4-3.2 1.3-5.5-1.7-7.8-2.2 2.9-1.9 5.3.8 7.9-1.8-1-4.5.1-2.9 3.3.8-2 2.6-1.6 3 .2.3 1.2-.5 2.7-2.1 3-1.3.2-3.4-.7-5-4.2.9 0 1.7.5 2.8 1.2L60 77.2c-.4 1.6-1 2.7-1.6 3.3-.4-1.2-.3-2 0-3.8L54.8 78c1.9 2.6 3.7 6.2 5.3 12.6 5.3-.8 11.2-1.3 17.6-1.3"/><path class="st3" d="M4 640V40h952v600h4V36H0v604z"/><path class="st4" d="M309.9 65.8c2.4 0 4.2.6 5.4 1.8 1.2 1.2 1.9 3 1.9 5.2s-.6 4-1.9 5.2c-1.2 1.2-3 1.9-5.4 1.8h-7.3v9.7h-3.2V65.8h10.5zm-1.1 11.4c1.8 0 3.1-.3 3.9-1.1.8-.8 1.3-1.8 1.3-3.3 0-1.4-.4-2.5-1.3-3.3-.8-.7-2.1-1.1-3.9-1.1h-6.2v8.7h6.2zm27 12.4c-.5.3-1.2.4-2 .4-.7 0-1.3-.2-1.7-.6-.4-.4-.6-1.1-.6-2-.8.9-1.7 1.6-2.7 2-1 .4-2.1.6-3.3.6-.8 0-1.5-.1-2.2-.3-.7-.2-1.3-.5-1.8-.8-.5-.4-.9-.9-1.2-1.5-.3-.6-.4-1.4-.4-2.2 0-1 .2-1.8.5-2.4s.8-1.1 1.3-1.5c.5-.4 1.2-.7 1.9-.9.7-.2 1.4-.4 2.1-.5.8-.2 1.5-.3 2.2-.4.7-.1 1.3-.2 1.8-.3.5-.1 1-.4 1.3-.6.3-.3.5-.7.5-1.2 0-.6-.1-1.1-.4-1.5-.2-.4-.5-.7-.9-.9-.4-.2-.8-.3-1.2-.4-.5-.1-.9-.1-1.3-.1-1.2 0-2.2.2-3 .7-.8.5-1.2 1.3-1.3 2.6h-2.8c0-1.1.3-2 .7-2.7.4-.7.9-1.3 1.6-1.8.7-.5 1.4-.8 2.3-1 .9-.2 1.8-.3 2.8-.3.8 0 1.5.1 2.3.2.8.1 1.5.3 2.1.7.6.3 1.1.8 1.5 1.4.4.6.6 1.4.6 2.4v8.8c0 .7 0 1.2.1 1.5.1.3.3.5.8.5.2 0 .5 0 .9-.1v2.2zm-4.6-8.9c-.4.3-.8.5-1.4.6l-1.8.3c-.6.1-1.3.2-1.9.3-.6.1-1.2.3-1.7.5s-.9.5-1.2.9c-.3.4-.5 1-.5 1.7 0 .5.1.9.3 1.2.2.3.4.6.7.8.3.2.6.3 1 .4.4.1.8.1 1.3.1.9 0 1.7-.1 2.4-.4.7-.3 1.2-.6 1.6-1 .4-.4.7-.8.9-1.3.2-.5.3-.9.3-1.3v-2.8zm14 11.2c-.3.8-.7 1.6-1 2.1-.3.6-.7 1.1-1.1 1.4-.4.4-.8.6-1.3.8-.5.2-1 .2-1.7.2-.3 0-.7 0-1-.1-.3 0-.7-.1-1-.2v-2.6c.2.1.5.2.8.3.3.1.6.1.8.1.6 0 1.1-.1 1.4-.4.4-.3.7-.7.9-1.2l1.2-2.9-6.8-17.1h3.2l5 14.1h.1l4.8-14.1h3l-7.3 19.6z"/><path class="st3" d="M48 197.8h864v251.4H48z"/><path class="st5" d="M48.7 145.1H68v4.7h-7.1v20.5h-5.1v-20.5h-7.1v-4.7zm31 11.1h-.9c-2.8 0-5.2.9-5.2 5v9.1h-4.9v-18.8h4.9v2.1c.8-1.3 2.6-2.4 5-2.4h1.1v5zm8.2 14.4c-3.4 0-6.5-2.2-6.5-5.9 0-3 2-5 5.3-5.5l5.7-.8v-.6c0-1.7-1.1-2.4-3-2.4-2.3 0-4.1.9-5.5 1.5l-1.9-3.7c2.2-1.2 4.9-2.1 7.6-2.1 3.5 0 7.6.9 7.6 6v8.1c0 1.1.6 1.5 1.6 1.9l-2.2 3.5c-1.8-.1-3-1.1-3.5-2.1-1.1 1.5-2.9 2.1-5.2 2.1zm.6-7.9c-1.2.2-2 .9-2 1.9 0 1.2.9 2.2 2.6 2.2 2.3 0 3.3-1.5 3.3-3.5V162l-3.9.7zm13.3-11.2h4.9v1.6c1-1 2.5-2 4.8-2 4.1 0 6.5 2.8 6.5 6.5v12.7h-4.9v-10.9c0-2.7-1.3-3.7-3-3.7-2 0-3.5 1.4-3.5 4.3v10.3h-4.9v-18.8zm22.1 12.7c1.3 1.3 3.6 2.3 5.5 2.3 1.5 0 2.7-.4 2.7-1.5 0-.9-.7-1.3-2.3-1.7-1.1-.3-3.1-.6-4.7-1.3-1.8-.8-3.3-2.3-3.3-4.9 0-4 3.6-6 7.7-6 3.2 0 5.9 1.2 7.5 2.7l-3.1 3.2c-1-.9-2.6-1.7-4.3-1.7-1.3 0-2.7.5-2.7 1.6 0 .9.8 1.2 2.2 1.5 2.3.6 4 1 5.4 1.7 1.5.8 2.6 2.4 2.6 4.5 0 4-3.4 6-7.6 6-3.1 0-6.6-1.2-8.5-2.8l2.9-3.6zm22.2 6.4c-3.4 0-6.5-2.2-6.5-5.9 0-3 2-5 5.3-5.5l5.7-.8v-.6c0-1.7-1.1-2.4-3-2.4-2.3 0-4.1.9-5.5 1.5l-1.9-3.7c2.2-1.2 4.9-2.1 7.6-2.1 3.5 0 7.6.9 7.6 6v8.1c0 1.1.6 1.5 1.6 1.9l-2.2 3.5c-1.8-.1-3-1.1-3.5-2.1-1.1 1.5-3 2.1-5.2 2.1zm.6-7.9c-1.2.2-2 .9-2 1.9 0 1.2.9 2.2 2.6 2.2 2.3 0 3.3-1.5 3.3-3.5V162l-3.9.7zm12.3-1.9c0-5.5 3.8-9.7 9.1-9.7 3.9 0 6.9 1.9 8.2 4.9l-4.3 2.2c-.7-1.5-1.8-2.6-3.7-2.6-3 0-4.2 2.7-4.2 5.2v.2c0 2.4 1.3 5.1 4.2 5.1 1.9 0 3-1 3.7-2.6l4.3 2.2c-1.2 3-4.4 4.9-8.2 4.9-5.3 0-9-4.2-9-9.7v-.1zm27.6 3.9c0 .9.4 1.6 2.1 1.6.7 0 1.9-.1 2.4-.2l.4 4.3s-2.4.3-4.5.3c-3.3 0-5.3-1.5-5.3-4.8v-10h-3.4v-4.4h3.4v-5.3l4.9-1.3v6.6h4.9v4.4h-4.9v8.8zm10.8-20.5c1.7 0 3.1 1.4 3.1 3.1s-1.4 3.1-3.1 3.1c-1.7 0-3.1-1.4-3.1-3.1s1.4-3.1 3.1-3.1zm2.4 26.1H195v-18.8h4.9v18.8zm22.1-9.4c0 5.6-3.7 9.8-9.3 9.8-5.5 0-9.2-4.2-9.2-9.8 0-5.5 3.7-9.8 9.2-9.8 5.6 0 9.3 4.2 9.3 9.8zm-5 0c0-3.1-1.5-5.3-4.3-5.3s-4.2 2.2-4.3 5.3c0 3.1 1.5 5.3 4.3 5.3s4.3-2.3 4.3-5.3zm8.6-9.4h4.9v1.6c1-1 2.5-2 4.8-2 4.1 0 6.5 2.8 6.5 6.5v12.7h-4.9v-10.9c0-2.7-1.3-3.7-3-3.7-2 0-3.5 1.4-3.5 4.3v10.3h-4.9v-18.8zm22 12.7c1.3 1.3 3.6 2.3 5.5 2.3 1.5 0 2.7-.4 2.7-1.5 0-.9-.7-1.3-2.3-1.7-1.1-.3-3.1-.6-4.7-1.3-1.8-.8-3.3-2.3-3.3-4.9 0-4 3.6-6 7.7-6 3.2 0 5.9 1.2 7.5 2.7l-3.1 3.2c-1-.9-2.6-1.7-4.3-1.7-1.3 0-2.7.5-2.7 1.6 0 .9.8 1.2 2.2 1.5 2.3.6 4 1 5.4 1.7 1.5.8 2.6 2.4 2.6 4.5 0 4-3.4 6-7.6 6-3.1 0-6.6-1.2-8.5-2.8l2.9-3.6zm-47.4 318.3h7.6v2h-5.3v2.4h4.9v2h-4.9v2.7h5.6v2h-7.9v-11.1zm16.6 11.3h-2.2v-4.9c0-1.2-.6-1.6-1.3-1.6-.8 0-1.5.6-1.5 1.9v4.6h-2.2v-8.4h2.2v.7c.5-.6 1.3-.9 2.1-.9.9 0 1.7.3 2.2 1.1.6-.8 1.5-1.1 2.5-1.1 1.9 0 3 1.3 3 2.8v5.7h-2.2v-4.9c0-1.2-.6-1.6-1.3-1.6-.8 0-1.5.6-1.5 1.9v4.7zm9.2.1c-1.5 0-2.9-1-2.9-2.6 0-1.3.9-2.2 2.4-2.4l2.5-.4v-.3c0-.7-.5-1.1-1.3-1.1-1 0-1.8.4-2.5.7l-.8-1.7c1-.5 2.2-.9 3.4-.9 1.5 0 3.4.4 3.4 2.7v3.6c0 .5.3.7.7.9l-1 1.6c-.8-.1-1.3-.5-1.6-.9-.4.5-1.3.8-2.3.8zm.3-3.5c-.5.1-.9.4-.9.9s.4 1 1.1 1c1 0 1.5-.7 1.5-1.5v-.6l-1.7.2zm7-8.3c.8 0 1.4.6 1.4 1.4 0 .8-.6 1.4-1.4 1.4-.8 0-1.4-.6-1.4-1.4 0-.7.6-1.4 1.4-1.4zm1.1 11.7h-2.2v-8.4h2.2v8.4zm2-11.3h2.2v8.9c0 .4.2.5.6.5.3 0 .6 0 .8-.1l.2 1.8s-1 .1-1.8.1c-1.2 0-2-.6-2-1.8v-9.4zm10.6 11.4c-1.5 0-2.9-1-2.9-2.6 0-1.3.9-2.2 2.4-2.4l2.5-.4v-.3c0-.7-.5-1.1-1.3-1.1-1 0-1.8.4-2.5.7l-.8-1.7c1-.5 2.2-.9 3.4-.9 1.5 0 3.4.4 3.4 2.7v3.6c0 .5.3.7.7.9l-1 1.6c-.8-.1-1.3-.5-1.6-.9-.4.5-1.3.8-2.3.8zm.3-3.5c-.5.1-.9.4-.9.9s.4 1 1.1 1c1 0 1.5-.7 1.5-1.5v-.6l-1.7.2zm5.5-.9c0-2.5 1.5-4.3 3.7-4.3 1 0 1.6.4 2.1.9v-3.6h2.2v11.2h-2.2v-.7c-.5.5-1.1.9-2.1.9-2.2 0-3.7-1.8-3.7-4.4zm5.9-.7c0-.9-.7-1.6-1.7-1.6-1.2 0-1.9 1-1.9 2.3v.1c0 1.3.7 2.3 1.9 2.3 1.1 0 1.7-.7 1.7-1.6v-1.5zm3.7.7c0-2.5 1.5-4.3 3.7-4.3 1 0 1.6.4 2.1.9v-3.6h2.2v11.2h-2.2v-.7c-.5.5-1.1.9-2.1.9-2.2 0-3.7-1.8-3.7-4.4zm5.8-.7c0-.9-.7-1.6-1.7-1.6-1.2 0-1.9 1-1.9 2.3v.1c0 1.3.7 2.3 1.9 2.3 1.1 0 1.7-.7 1.7-1.6v-1.5zm9-1.3h-.4c-1.2 0-2.3.4-2.3 2.2v4.1h-2.2v-8.4h2.2v.9c.4-.6 1.1-1.1 2.2-1.1h.5v2.3zm3 2.8c.2 1.1 1 1.6 2 1.6.8 0 1.6-.3 2.1-.8l1.1 1.6c-.7.6-1.9 1.1-3.2 1.1-2.3 0-4.2-1.6-4.2-4.3v-.1c0-2.5 1.7-4.3 4-4.3 2.2 0 3.8 1.7 3.8 4.1v1h-5.6zm0-1.6h3.4c0-.7-.5-1.6-1.6-1.6-1.2 0-1.7.8-1.8 1.6zm7.9 2.4c.6.6 1.6 1 2.4 1 .7 0 1.2-.2 1.2-.7 0-.4-.3-.6-1-.7-.5-.1-1.4-.3-2.1-.6-.8-.4-1.5-1-1.5-2.2 0-1.8 1.6-2.7 3.4-2.7 1.4 0 2.6.5 3.3 1.2l-1.4 1.4c-.4-.4-1.1-.8-1.9-.8-.6 0-1.2.2-1.2.7 0 .4.4.5 1 .7 1 .3 1.8.4 2.4.8.7.4 1.2 1.1 1.2 2 0 1.8-1.5 2.7-3.4 2.7-1.4 0-2.9-.5-3.8-1.3l1.4-1.5zm8.1 0c.6.6 1.6 1 2.4 1 .7 0 1.2-.2 1.2-.7 0-.4-.3-.6-1-.7-.5-.1-1.4-.3-2.1-.6-.8-.4-1.5-1-1.5-2.2 0-1.8 1.6-2.7 3.4-2.7 1.4 0 2.6.5 3.3 1.2l-1.4 1.4c-.4-.4-1.1-.8-1.9-.8-.6 0-1.2.2-1.2.7 0 .4.4.5 1 .7 1 .3 1.8.4 2.4.8.7.4 1.2 1.1 1.2 2 0 1.8-1.5 2.7-3.4 2.7-1.4 0-2.9-.5-3.8-1.3l1.4-1.5zM50.5 463.3h4.3c2.7 0 4.1 1.7 4.1 3.5 0 1.5-.9 2.7-2.2 3.1l2.4 4.6h-2.6l-2-4h-1.8v4h-2.3v-11.2zm4.2 2.1h-1.8v3.1h1.8c1.3 0 2-.6 2-1.5-.1-1-.7-1.6-2-1.6zm7.6 5.7c.2 1.1 1 1.6 2 1.6.8 0 1.6-.3 2.1-.8l1.1 1.6c-.7.6-1.9 1.1-3.2 1.1-2.3 0-4.2-1.6-4.2-4.3v-.1c0-2.5 1.7-4.3 4.1-4.3 2.2 0 3.8 1.7 3.8 4.1v1h-5.7zm0-1.6h3.4c0-.7-.5-1.6-1.6-1.6-1.2 0-1.7.8-1.8 1.6zm10-3.3h1.6v1.9h-1.6v6.4h-2.2v-6.4h-1.3v-1.9h1.3v-.9c0-1.5 1-2.1 2.5-2.1.8 0 1.5.1 1.7.1l-.2 1.8c-.3 0-.8-.1-1.1-.1-.6 0-.8.3-.8.6v.6zm4.7 4.9c.2 1.1 1 1.6 2 1.6.8 0 1.6-.3 2.1-.8l1.1 1.6c-.7.6-1.9 1.1-3.2 1.1-2.3 0-4.2-1.6-4.2-4.3v-.1c0-2.5 1.7-4.3 4.1-4.3 2.2 0 3.8 1.7 3.8 4.1v1H77zm0-1.6h3.4c0-.7-.5-1.6-1.6-1.6-1.2 0-1.7.8-1.8 1.6zm12-1.2h-.4c-1.2 0-2.3.4-2.3 2.2v4.1h-2.2v-8.4h2.2v.9c.4-.6 1.1-1.1 2.2-1.1h.5v2.3zm3 2.8c.2 1.1 1 1.6 2 1.6.8 0 1.6-.3 2.1-.8l1.1 1.6c-.7.6-1.9 1.1-3.2 1.1-2.3 0-4.2-1.6-4.2-4.3v-.1c0-2.5 1.7-4.3 4-4.3 2.2 0 3.8 1.7 3.8 4.1v1H92zm.1-1.6h3.4c0-.7-.5-1.6-1.7-1.6-1.1 0-1.7.8-1.7 1.6zm7.1-3.3h2.2v.7c.5-.5 1.1-.9 2.1-.9 1.8 0 2.9 1.3 2.9 2.9v5.7h-2.2v-4.9c0-1.2-.6-1.6-1.3-1.6-.9 0-1.6.6-1.6 1.9v4.6h-2.2v-8.4zm8.7 4.1c0-2.5 1.7-4.3 4-4.3 1.7 0 3.1.8 3.6 2.2l-1.9 1c-.3-.7-.8-1.1-1.7-1.1-1.3 0-1.9 1.2-1.9 2.3v.1c0 1.1.6 2.3 1.9 2.3.9 0 1.3-.4 1.7-1.1l1.9 1c-.5 1.3-2 2.2-3.7 2.2-2.2-.2-3.9-2-3.9-4.6zm10.9.8c.2 1.1 1 1.6 2 1.6.8 0 1.6-.3 2.1-.8l1.1 1.6c-.7.6-1.9 1.1-3.2 1.1-2.3 0-4.2-1.6-4.2-4.3v-.1c0-2.5 1.7-4.3 4.1-4.3 2.2 0 3.8 1.7 3.8 4.1v1h-5.7zm0-1.6h3.4c0-.7-.5-1.6-1.6-1.6-1.2 0-1.7.8-1.8 1.6zm-68.5 15.9h2.2v.7c.5-.5 1.1-.9 2.1-.9 1.8 0 2.9 1.3 2.9 2.9v5.7h-2.2v-4.9c0-1.2-.6-1.6-1.3-1.6-.9 0-1.6.6-1.6 1.9v4.6h-2.2v-8.4zm16.3 8.4h-2.2v-.8c-.5.5-1.1.9-2.1.9-1.8 0-2.9-1.3-2.9-2.9v-5.7h2.2v4.9c0 1.2.6 1.6 1.3 1.6.9 0 1.6-.6 1.6-1.9v-4.6h2.2v8.5zm9 0h-2.2v-4.9c0-1.2-.6-1.6-1.3-1.6-.8 0-1.5.6-1.5 1.9v4.6h-2.2v-8.4h2.2v.7c.5-.6 1.3-.9 2.1-.9.9 0 1.7.3 2.2 1.1.6-.8 1.5-1.1 2.5-1.1 1.9 0 3 1.3 3 2.8v5.7h-2.2v-4.9c0-1.2-.6-1.6-1.3-1.6-.8 0-1.5.6-1.5 1.9v4.7zm14.9-4.2c0 2.5-1.5 4.3-3.7 4.3-1 0-1.6-.4-2.1-.9v.7h-2.2v-11.2h2.2v3.6c.5-.5 1.1-.9 2.1-.9 2.2 0 3.7 1.8 3.7 4.4zm-5.9.7c0 .9.7 1.6 1.7 1.6 1.2 0 1.9-1 1.9-2.3v-.1c0-1.3-.7-2.3-1.9-2.3-1.1 0-1.7.7-1.7 1.6v1.5zm9.3 0c.2 1.1 1 1.6 2 1.6.8 0 1.6-.3 2.1-.8l1.1 1.6c-.7.6-1.9 1.1-3.2 1.1-2.3 0-4.2-1.6-4.2-4.3v-.1c0-2.5 1.7-4.3 4-4.3 2.2 0 3.8 1.7 3.8 4.1v1h-5.6zm0-1.6h3.4c0-.7-.5-1.6-1.7-1.6-1.1 0-1.7.8-1.7 1.6zm12-1.2h-.4c-1.2 0-2.3.4-2.3 2.2v4.1H101v-8.4h2.2v.9c.4-.6 1.1-1.1 2.2-1.1h.5v2.3zm274.4 4.5H376l-.5 1.8H373l3.7-11.2h3l3.7 11.2h-2.5l-.6-1.8zm-3.7-2h3.1l-1.6-5.1-1.5 5.1zm15.1 3.8h-2.2v-4.9c0-1.2-.6-1.6-1.3-1.6-.8 0-1.5.6-1.5 1.9v4.6h-2.2v-8.4h2.2v.7c.5-.6 1.3-.9 2.1-.9.9 0 1.7.3 2.2 1.1.6-.8 1.5-1.1 2.5-1.1 1.9 0 3 1.3 3 2.8v5.7h-2.2v-4.9c0-1.2-.6-1.6-1.3-1.6-.8 0-1.5.6-1.5 1.9v4.7zm14.6-4.2c0 2.5-1.6 4.3-4.1 4.3-2.5 0-4.1-1.9-4.1-4.3 0-2.5 1.6-4.3 4.1-4.3 2.5-.1 4.1 1.8 4.1 4.3zm-2.2 0c0-1.4-.7-2.3-1.9-2.3s-1.9 1-1.9 2.3c0 1.4.7 2.3 1.9 2.3 1.3 0 1.9-1 1.9-2.3zm10.9 4.2h-2.2v-.8c-.5.5-1.1.9-2.1.9-1.8 0-2.9-1.3-2.9-2.9v-5.7h2.2v4.9c0 1.2.6 1.6 1.3 1.6.9 0 1.6-.6 1.6-1.9v-4.6h2.2v8.5zm2.1-8.4h2.2v.7c.5-.5 1.1-.9 2.1-.9 1.8 0 2.9 1.3 2.9 2.9v5.7h-2.2v-4.9c0-1.2-.6-1.6-1.3-1.6-.9 0-1.6.6-1.6 1.9v4.6H417v-8.4zm12.2 5.9c0 .4.2.7.9.7.3 0 .8 0 1.1-.1l.2 1.9s-1.1.1-2 .1c-1.5 0-2.4-.7-2.4-2.1v-4.5h-1.5v-1.9h1.5V483l2.2-.6v2.9h2.2v1.9h-2.2v4.1zm73.6-3.2c0-3.2 2-5.8 5.2-5.8 2.3 0 4 1.2 4.6 3.2l-2.2.7c-.2-.8-1.1-1.9-2.5-1.9-2 0-2.9 1.8-2.9 3.6v.1c0 1.8.9 3.7 2.9 3.7 1.4 0 2.2-1 2.5-1.9l2.2.7c-.7 1.9-2.3 3.2-4.7 3.2-3.1.2-5.1-2.3-5.1-5.6zm13.9 5.8c-1.5 0-2.9-1-2.9-2.6 0-1.3.9-2.2 2.4-2.4l2.5-.4v-.3c0-.7-.5-1.1-1.3-1.1-1 0-1.8.4-2.5.7l-.8-1.7c1-.5 2.2-.9 3.4-.9 1.5 0 3.4.4 3.4 2.7v3.6c0 .5.3.7.7.9l-1 1.6c-.8-.1-1.3-.5-1.6-.9-.5.5-1.3.8-2.3.8zm.2-3.5c-.5.1-.9.4-.9.9s.4 1 1.1 1c1 0 1.5-.7 1.5-1.5v-.6l-1.7.2zm10.8-2.9h-.4c-1.2 0-2.3.4-2.3 2.2v4.1h-2.2v-8.4h2.2v.9c.4-.6 1.1-1.1 2.2-1.1h.5v2.3zm.8 2c0-2.5 1.5-4.3 3.7-4.3 1 0 1.6.4 2.1.9v-3.6h2.2v11.2h-2.2v-.7c-.5.5-1.1.9-2.1.9-2.2 0-3.7-1.8-3.7-4.4zm5.9-.7c0-.9-.7-1.6-1.7-1.6-1.2 0-1.9 1-1.9 2.3v.1c0 1.3.7 2.3 1.9 2.3 1.1 0 1.7-.7 1.7-1.6v-1.5zm10.7 2.5c0 .4.2.7.9.7.3 0 .8 0 1.1-.1l.2 1.9s-1.1.1-2 .1c-1.5 0-2.4-.7-2.4-2.1v-4.5h-1.5v-1.9h1.5V483l2.2-.6v2.9h2.2v1.9h-2.2v4.1zm5.5 2.8l.1-.3h-.2l-2.6-8.4h2.4l1.5 5.8 1.5-5.8h2.4L553 495c-.4 1.2-1.3 1.6-2.6 1.6-.5 0-1.4-.1-2-.2l.4-1.9s.6.1 1.2.1c.5 0 .7-.2.7-.5zm8.5-8.7v.7c.5-.5 1.1-.9 2.1-.9 2.2 0 3.7 1.8 3.7 4.3v.1c0 2.5-1.5 4.3-3.7 4.3-1 0-1.6-.4-2.1-.9v3.4H557v-11h2.2zm0 4.9c0 .9.7 1.6 1.7 1.6 1.2 0 1.9-1 1.9-2.3v-.1c0-1.3-.7-2.3-1.9-2.3-1.1 0-1.7.7-1.7 1.6v1.5zm9.2 0c.2 1.1 1 1.6 2 1.6.8 0 1.6-.3 2.1-.8l1.1 1.6c-.7.6-1.9 1.1-3.2 1.1-2.3 0-4.2-1.6-4.2-4.3v-.1c0-2.5 1.7-4.3 4-4.3 2.2 0 3.8 1.7 3.8 4.1v1h-5.6zm0-1.6h3.4c0-.7-.5-1.6-1.6-1.6-1.2 0-1.7.8-1.8 1.6zM645.9 482.5h4.5c2.3 0 3.8 1.6 3.8 3.7s-1.6 3.7-3.9 3.7h-2v3.8H646v-11.2zm3.8 2.1h-1.6v3.3h1.6c1.2 0 2-.6 2-1.6v-.1c.1-1-.7-1.6-2-1.6zm8.1 9.3c-1.5 0-2.9-1-2.9-2.6 0-1.3.9-2.2 2.4-2.4l2.5-.4v-.3c0-.7-.5-1.1-1.3-1.1-1 0-1.8.4-2.5.7l-.8-1.7c1-.5 2.2-.9 3.4-.9 1.5 0 3.4.4 3.4 2.7v3.6c0 .5.3.7.7.9l-1 1.6c-.8-.1-1.3-.5-1.6-.9-.5.5-1.3.8-2.3.8zm.2-3.5c-.5.1-.9.4-.9.9s.4 1 1.1 1c1 0 1.5-.7 1.5-1.5v-.6l-1.7.2zm7.6 3.7l.1-.3h-.2l-2.6-8.4h2.4l1.5 5.8 1.5-5.8h2.4l-2.9 9.6c-.4 1.2-1.3 1.6-2.6 1.6-.5 0-1.4-.1-2-.2l.4-1.9s.6.1 1.2.1.8-.2.8-.5zm13.4-.3h-2.2v-4.9c0-1.2-.6-1.6-1.3-1.6-.8 0-1.5.6-1.5 1.9v4.6h-2v-8.4h2.2v.7c.5-.6 1.3-.9 2.1-.9.9 0 1.7.3 2.2 1.1.6-.8 1.5-1.1 2.5-1.1 1.9 0 3 1.3 3 2.8v5.7h-2.2v-4.9c0-1.2-.6-1.6-1.3-1.6-.8 0-1.5.6-1.5 1.9v4.7zm8.7-3.5c.2 1.1 1 1.6 2 1.6.8 0 1.6-.3 2.1-.8l1.1 1.6c-.7.6-1.9 1.1-3.2 1.1-2.3 0-4.2-1.6-4.2-4.3v-.1c0-2.5 1.7-4.3 4.1-4.3 2.2 0 3.8 1.7 3.8 4.1v1h-5.7zm0-1.6h3.4c0-.7-.5-1.6-1.6-1.6-1.2 0-1.7.8-1.8 1.6zm7.2-3.3h2.2v.7c.5-.5 1.1-.9 2.1-.9 1.8 0 2.9 1.3 2.9 2.9v5.7h-2.2v-4.9c0-1.2-.6-1.6-1.3-1.6-.9 0-1.6.6-1.6 1.9v4.6h-2.2v-8.4zm12.2 5.9c0 .4.2.7.9.7.3 0 .8 0 1.1-.1l.2 1.9s-1.1.1-2 .1c-1.5 0-2.4-.7-2.4-2.1v-4.5h-1.5v-1.9h1.5V483l2.2-.6v2.9h2.2v1.9h-2.2v4.1zm8.3-.2c.6.6 1.6 1 2.4 1 .7 0 1.2-.2 1.2-.7 0-.4-.3-.6-1-.7-.5-.1-1.4-.3-2.1-.6-.8-.4-1.5-1-1.5-2.2 0-1.8 1.6-2.7 3.4-2.7 1.4 0 2.6.5 3.3 1.2l-1.4 1.4c-.4-.4-1.1-.8-1.9-.8-.6 0-1.2.2-1.2.7 0 .4.4.5 1 .7 1 .3 1.8.4 2.4.8.7.4 1.2 1.1 1.2 2 0 1.8-1.5 2.7-3.4 2.7-1.4 0-2.9-.5-3.8-1.3l1.4-1.5zm10.5.2c0 .4.2.7.9.7.3 0 .8 0 1.1-.1l.2 1.9s-1.1.1-2 .1c-1.5 0-2.4-.7-2.4-2.1v-4.5h-1.5v-1.9h1.5V483l2.2-.6v2.9h2.2v1.9h-2.2v4.1zm6.1 2.6c-1.5 0-2.9-1-2.9-2.6 0-1.3.9-2.2 2.4-2.4l2.5-.4v-.3c0-.7-.5-1.1-1.3-1.1-1 0-1.8.4-2.5.7l-.8-1.7c1-.5 2.2-.9 3.4-.9 1.5 0 3.4.4 3.4 2.7v3.6c0 .5.3.7.7.9l-1 1.6c-.8-.1-1.3-.5-1.6-.9-.5.5-1.3.8-2.3.8zm.3-3.5c-.5.1-.9.4-.9.9s.4 1 1.1 1c1 0 1.5-.7 1.5-1.5v-.6l-1.7.2zm8.9.9c0 .4.2.7.9.7.3 0 .8 0 1.1-.1l.2 1.9s-1.1.1-2 .1c-1.5 0-2.4-.7-2.4-2.1v-4.5h-1.5v-1.9h1.5V483l2.2-.6v2.9h2.2v1.9h-2.2v4.1zm10.8 2.5h-2.2v-.8c-.5.5-1.1.9-2.1.9-1.8 0-2.9-1.3-2.9-2.9v-5.7h2.2v4.9c0 1.2.6 1.6 1.3 1.6.9 0 1.6-.6 1.6-1.9v-4.6h2.2v8.5zm2.7-2.7c.6.6 1.6 1 2.4 1 .7 0 1.2-.2 1.2-.7 0-.4-.3-.6-1-.7-.5-.1-1.4-.3-2.1-.6-.8-.4-1.5-1-1.5-2.2 0-1.8 1.6-2.7 3.4-2.7 1.4 0 2.6.5 3.3 1.2l-1.4 1.4c-.4-.4-1.1-.8-1.9-.8-.6 0-1.2.2-1.2.7 0 .4.4.5 1 .7 1 .3 1.8.4 2.4.8.7.4 1.2 1.1 1.2 2 0 1.8-1.5 2.7-3.4 2.7-1.4 0-2.9-.5-3.8-1.3l1.4-1.5zM826.9 493.8h-4.3v-11.2h4.3c3.6 0 5.3 2.2 5.3 5.6s-1.7 5.6-5.3 5.6zm3-5.9c0-1.9-.9-3.3-3.2-3.3H825v7.1h1.7c2.3 0 3.2-1.5 3.2-3.3v-.5zm6.4 6c-1.5 0-2.9-1-2.9-2.6 0-1.3.9-2.2 2.4-2.4l2.5-.4v-.3c0-.7-.5-1.1-1.3-1.1-1 0-1.8.4-2.5.7l-.8-1.7c1-.5 2.2-.9 3.4-.9 1.5 0 3.4.4 3.4 2.7v3.6c0 .5.3.7.7.9l-1 1.6c-.8-.1-1.3-.5-1.6-.9-.5.5-1.4.8-2.3.8zm.2-3.5c-.5.1-.9.4-.9.9s.4 1 1.1 1c1 0 1.5-.7 1.5-1.5v-.6l-1.7.2zm8.9.9c0 .4.2.7.9.7.3 0 .8 0 1.1-.1l.2 1.9s-1.1.1-2 .1c-1.5 0-2.4-.7-2.4-2.1v-4.5h-1.5v-1.9h1.5V483l2.2-.6v2.9h2.2v1.9h-2.2v4.1zm5.6-1c.2 1.1 1 1.6 2 1.6.8 0 1.6-.3 2.1-.8l1.1 1.6c-.7.6-1.9 1.1-3.2 1.1-2.3 0-4.2-1.6-4.2-4.3v-.1c0-2.5 1.7-4.3 4-4.3 2.2 0 3.8 1.7 3.8 4.1v1H851zm0-1.6h3.4c0-.7-.5-1.6-1.6-1.6-1.2 0-1.8.8-1.8 1.6z"/><path class="st8" d="M911.3 506.3h-863"/><path class="st5" d="M201.5 532.5h-1.3v-11.2h1.3v4.1c.5-.7 1.3-1.1 2.3-1.1 2.1 0 3.4 1.7 3.4 4.2 0 2.4-1.3 4.1-3.4 4.1-1 0-1.9-.4-2.3-1.1v1zm4.4-4c0-1.7-.8-2.9-2.3-2.9-1.4 0-2.1 1-2.1 2.3v1.3c0 1.3.7 2.3 2.1 2.3 1.5 0 2.3-1.3 2.3-3zm3.3 4.7h3.4v1.2h-3.4v-1.2zm5.8-8.7h1.3v.9c.5-.7 1.4-1.1 2.3-1.1 1.8 0 2.7 1.3 2.7 2.7v5.4H220v-5c0-1.4-.7-1.9-1.6-1.9-1 0-2 .7-2 2.2v4.7H215v-7.9zm15.7 4c0 2.4-1.5 4.1-3.7 4.1s-3.7-1.7-3.7-4.1c0-2.4 1.5-4.2 3.7-4.2s3.7 1.8 3.7 4.2zm-1.3.1c0-1.7-.8-3.1-2.3-3.1-1.5 0-2.3 1.4-2.3 3v.1c0 1.6.8 2.9 2.3 2.9 1.5 0 2.3-1.4 2.3-2.9zm7.5-2.9h-.2c-1.3 0-2.6.5-2.6 2.7v4.1h-1.3v-8h1.3v1.3c.4-.9 1.4-1.4 2.4-1.4h.4v1.3zm3.8 4.8c0 .5.1 1 1 1 .2 0 .8 0 1-.1l.1 1.2s-.8.1-1.4.1c-1.3 0-2-.5-2-1.9v-5.1h-1.5v-1.2h1.5v-2.6l1.3-.5v3.1h2.2v1.2h-2.2v4.8zm4-9.2h1.3v4.1c.5-.7 1.4-1.1 2.3-1.1 1.8 0 2.7 1.3 2.7 2.7v5.4h-1.3v-5c0-1.4-.7-1.9-1.6-1.9-1 0-2 .7-2 2.2v4.7h-1.3v-11.1zm10.3.1v-.1h1.3v11.2H255v-8.2h-2.1v-1.2h.2c1.5 0 1.9-.5 1.9-1.7zm5.3 8.2c.4 1.1 1.1 1.8 2.6 1.8 1.6 0 2.4-.9 2.4-2.1 0-1.2-.9-2-2.6-2h-.5v-1.2h.3c1.5 0 2.7-.5 2.7-1.9 0-1.3-1-1.9-2.2-1.9-1.2 0-2.1.7-2.5 1.7l-1.3-.5c.6-1.6 2.1-2.4 3.7-2.4 2 0 3.6 1.2 3.6 3 0 1.2-.7 2.3-2.1 2.6 1.6.3 2.3 1.4 2.3 2.7 0 2.2-1.8 3.2-3.9 3.2-1.8 0-3.3-.8-3.9-2.6l1.4-.4zm17.1 2.1c-.5.5-1.2 1-2.3 1-1.6 0-2.8-.9-2.8-2.4 0-1.2.8-2.1 2.1-2.3l2.8-.4v-.5c0-1.2-.8-1.6-1.8-1.6-.9 0-1.7.3-2.3.6l-.5-1c.9-.5 2-.7 2.9-.7 1.9 0 3 .9 3 2.5v3.9c0 .5.2.9.7.9 1.7 0 2.1-2.6 2.1-3.3 0-3.4-2.5-5.8-5.8-5.8s-5.9 2.7-5.9 5.9c0 3.3 2.7 5.9 5.9 5.9.9 0 1.8-.2 2.6-.6l.6.7c-1 .5-2.1.8-3.3.8-3.8 0-6.7-3-6.7-6.8s3.1-6.8 6.9-6.8c3.8 0 6.6 2.7 6.6 6.6 0 1.7-1 4.3-3 4.3-1.3.1-1.7-.6-1.8-.9zm-2.3-2.8c-.9.1-1.5.4-1.5 1.2 0 .9.8 1.4 1.6 1.4 1 0 2-.6 2-1.6v-1.4l-2.1.4zm9.5-7.6h1.3v4.1c.5-.7 1.4-1.1 2.3-1.1 1.8 0 2.7 1.3 2.7 2.7v5.4h-1.3v-5c0-1.4-.7-1.9-1.6-1.9-1 0-2 .7-2 2.2v4.7h-1.3v-11.1zm15.7 7.2c0 2.4-1.5 4.1-3.7 4.1s-3.7-1.7-3.7-4.1c0-2.4 1.5-4.2 3.7-4.2 2.2.1 3.7 1.8 3.7 4.2zm-1.4.1c0-1.7-.8-3.1-2.3-3.1s-2.3 1.4-2.3 3v.1c0 1.6.8 2.9 2.3 2.9s2.3-1.4 2.3-2.9zm5.4 1.9c0 .5.1 1 1 1 .2 0 .8 0 1-.1l.1 1.2s-.8.1-1.4.1c-1.3 0-2-.5-2-1.9v-5.1h-1.5v-1.2h1.5v-2.6l1.3-.5v3.1h2.2v1.2h-2.2v4.8zm10 2H313v-5c0-1.4-.7-1.9-1.6-1.9-.9 0-1.8.7-1.8 2.2v4.7h-1.3v-8h1.3v.9c.5-.7 1.2-1.1 2.1-1.1.7 0 1.7.4 2.2 1.3.6-1 1.5-1.3 2.4-1.3 1.7 0 2.7 1.3 2.7 2.7v5.5h-1.3v-5c0-1.4-.8-1.9-1.6-1.9-.9 0-1.8.7-1.8 2.2v4.7zm8.1-2c.6 0 1.1.5 1.1 1.1 0 .6-.5 1.1-1.1 1.1-.6 0-1.1-.5-1.1-1.1 0-.6.5-1.1 1.1-1.1zm4.3 0c.6 0 1.1.5 1.1 1.1 0 .6-.5 1.1-1.1 1.1-.6 0-1.1-.5-1.1-1.1 0-.6.5-1.1 1.1-1.1zm4.4 0c.6 0 1.1.5 1.1 1.1 0 .6-.5 1.1-1.1 1.1-.6 0-1.1-.5-1.1-1.1 0-.6.5-1.1 1.1-1.1zM51.1 530c.7.9 1.9 1.5 3.2 1.5 1.4 0 2.5-.7 2.5-2 0-.8-.4-1.3-1.1-1.6-1.1-.5-2.9-.6-4.1-1.3-.7-.4-1.3-1.1-1.3-2.3 0-1.7 1.4-3.1 3.8-3.1 1.4 0 2.8.6 3.7 1.5l-1 .8c-.6-.6-1.5-1.2-2.7-1.2-1.4 0-2.4.7-2.4 1.9 0 1.8 2.6 1.6 4.6 2.5 1 .4 1.9 1.2 1.9 2.7 0 2.2-2 3.3-4.1 3.3-1.9 0-3.2-.8-4.1-1.7l1.1-1zm9.6-8.7h3.8c2.1 0 3.7 1 3.7 3.3 0 1.4-.8 2.5-2.2 3.1l2.4 4.8h-1.6l-2.1-4.5h-2.6v4.5h-1.4v-11.2zm3.9 5.5c1.3 0 2.2-.8 2.2-2.1 0-1.4-.9-2.2-2.2-2.2h-2.5v4.3h2.5zm8.4 5.7l-3.3-11.2h1.5l2.7 9.9 2.8-9.9h1.5l-3.3 11.2H73zm6.8-5.7l.6-5.5h6.4v1.2h-5.3l-.3 3.2c.6-.6 1.5-.9 2.4-.9 2.1 0 3.7 1.6 3.7 3.8 0 2.4-1.6 4.1-4 4.1-1.8 0-3.4-.9-3.8-2.7l1.4-.2c.3.9 1 1.7 2.4 1.7 1.6 0 2.6-1.2 2.6-2.8 0-1.6-1-2.7-2.6-2.7-.8 0-1.7.4-2.1 1l-1.4-.2zm11.2-5.4v-.1h1.3v11.2H91v-8.2h-2.1v-1.2h.2c1.5 0 1.9-.5 1.9-1.7zm9.6 1.1h-6v-1.2h7.3v1.2l-4.5 10h-1.6l4.8-10zm8.6 0h-6v-1.2h7.3v1.2l-4.5 10h-1.6l4.8-10zm11 4.1c0 3-1.2 6.1-4.4 6.1-1.6 0-2.7-.7-3.3-1.8l1.4-.4c.5.7 1.1 1.1 2 1.1 2.1 0 3-2.2 3-4.5-.5.8-1.4 1.6-3 1.6-2.1 0-3.6-1.6-3.6-3.6 0-2.2 1.6-3.8 3.9-3.8 2.4 0 4.2 1.8 4.2 5.2v.1zm-4.2-4.3c-1.4 0-2.5 1-2.5 2.6s1 2.6 2.5 2.6 2.5-1 2.5-2.5c0-1.6-1-2.7-2.5-2.7zm6.3 10.2v-1.3c.8-.7 3.2-2.7 4-3.5.9-.8 1.7-1.8 1.7-3.1 0-1.4-.9-2.2-2.2-2.2-1.4 0-2.1 1-2.2 2.4l-1.4-.1c.1-2.2 1.5-3.5 3.6-3.5 2.2 0 3.7 1.3 3.7 3.5 0 1.6-.8 2.7-3.3 4.8l-2 1.7h5.5v1.2h-7.4zM380 523.3c-.4-.6-1-1-1.9-1-1.2 0-2 .9-2 2.4v1.8h2.6v1.2H376v3.7h5v1.2h-7.2v-1.2h.8v-3.7h-.8v-1.2h.8v-1.7c0-2.2 1.3-3.6 3.4-3.6 1.4 0 2.4.5 3 1.4l-1 .7zm8.2 9.2v-2.9h-5.6v-1.4l5.1-6.9h2v7.2h1.8v1.2h-1.8v2.9h-1.5zm0-4.1v-6l-4.3 6h4.3zm13.1-1.5c0 2.9-1.1 5.7-4.1 5.7-3 0-4.1-2.8-4.1-5.7 0-2.9 1.1-5.8 4.1-5.8 3.1 0 4.1 2.9 4.1 5.8zm-1.4.3v-.7c0-2.7-1-4.2-2.6-4.2s-2.6 1.5-2.6 4.2v.7c0 2.7 1 4.2 2.6 4.2 1.5.1 2.6-1.5 2.6-4.2zm4.5 3.3c.6 0 1.1.5 1.1 1.1 0 .6-.5 1.1-1.1 1.1-.6 0-1.1-.5-1.1-1.1 0-.6.5-1.1 1.1-1.1zm11.1-3.6c0 2.9-1.1 5.7-4.1 5.7-3 0-4.1-2.8-4.1-5.7 0-2.9 1.1-5.8 4.1-5.8 3.1 0 4.1 2.9 4.1 5.8zm-1.4.3v-.7c0-2.7-1-4.2-2.6-4.2s-2.6 1.5-2.6 4.2v.7c0 2.7 1 4.2 2.6 4.2 1.5.1 2.6-1.5 2.6-4.2zm11.7-.3c0 2.9-1.1 5.7-4.1 5.7-3 0-4.1-2.8-4.1-5.7 0-2.9 1.1-5.8 4.1-5.8 3 0 4.1 2.9 4.1 5.8zm-1.5.3v-.7c0-2.7-1-4.2-2.6-4.2s-2.6 1.5-2.6 4.2v.7c0 2.7 1 4.2 2.6 4.2 1.6.1 2.6-1.5 2.6-4.2zM508.2 528.3l-3.3-11.2h1.5l2.7 9.9 2.8-9.9h1.5l-3.3 11.2h-1.9zm7.7-11.2c.5 0 1 .4 1 1 0 .5-.4 1-1 1-.5 0-1-.4-1-1s.4-1 1-1zm.6 11.2h-1.3v-8h1.3v8zm1.9-1l.8-.9c.5.4 1.3 1 2.4 1 .9 0 1.6-.4 1.6-1.2 0-.9-.9-1.1-2-1.3-1.1-.3-2.5-.7-2.5-2.3 0-1.3 1.2-2.3 2.9-2.3 1.1 0 2.2.4 2.8 1l-.8.9c-.5-.4-1.2-.8-2-.8-1.1 0-1.6.5-1.6 1.2 0 .6.4.9 1.2 1.1.4.1.9.3 1.3.4 1.1.3 2 .9 2 2.2 0 1.6-1.5 2.4-3 2.4-1-.3-2.2-.6-3.1-1.4zm10.4 1.1c-1.6 0-2.8-.9-2.8-2.4 0-1.2.8-2.1 2.1-2.3l2.8-.4v-.5c0-1.2-.8-1.6-1.8-1.6-.9 0-1.7.3-2.3.6l-.5-1c.9-.5 2-.7 2.9-.7 1.9 0 3 .9 3 2.5v3.7c0 .5.2.9.7 1.1l-.7.9c-.5-.1-.9-.5-1.1-1-.4.7-1.2 1.1-2.3 1.1zm0-3.7c-.9.1-1.5.4-1.5 1.2 0 .9.8 1.4 1.6 1.4 1 0 2-.6 2-1.6v-1.4l-2.1.4zM646.2 521.3h1.4v11.2h-1.4v-11.2zm4.2 3.2h1.3v.9c.5-.7 1.4-1.1 2.3-1.1 1.8 0 2.7 1.3 2.7 2.7v5.4h-1.3v-5c0-1.4-.7-1.9-1.6-1.9-1 0-2 .7-2 2.2v4.7h-1.3v-7.9zm14.3 0v.9c.5-.7 1.3-1.1 2.3-1.1 2.1 0 3.4 1.7 3.4 4.2 0 2.4-1.3 4.1-3.4 4.1-1 0-1.9-.4-2.3-1.1v3.3h-1.3v-10.4h1.3zm4.4 4c0-1.7-.8-2.9-2.3-2.9-1.4 0-2.1 1-2.1 2.3v1.3c0 1.3.7 2.3 2.1 2.3 1.5 0 2.3-1.3 2.3-3zm7.5-2.8h-.2c-1.3 0-2.6.5-2.6 2.7v4.1h-1.3v-8h1.3v1.3c.4-.9 1.4-1.4 2.4-1.4h.4v1.3zm8.4 2.8c0 2.4-1.5 4.1-3.7 4.1s-3.7-1.7-3.7-4.1c0-2.4 1.5-4.2 3.7-4.2 2.2.1 3.7 1.8 3.7 4.2zm-1.4.1c0-1.7-.8-3.1-2.3-3.1s-2.3 1.4-2.3 3v.1c0 1.6.8 2.9 2.3 2.9s2.3-1.4 2.3-2.9zm6.3-4.2c.9 0 1.7.3 2.3 1.1v-.9h1.3v8.1c0 2-1.7 2.6-3.4 2.6-.9 0-2.1-.2-3-.6l.4-1.1c.6.3 1.6.6 2.5.6 1.3 0 2.1-.5 2.1-1.7V531c-.5.8-1.4 1.1-2.3 1.1-2 0-3.2-1.6-3.2-3.7 0-2.4 1.3-4 3.3-4zm2.3 3.6c0-1.4-.6-2.5-2-2.5-1.5 0-2.1 1.1-2.1 2.5v.1c0 1.4.7 2.5 2.1 2.5 1.4 0 2-1.1 2-2.6zm7.9-2.3h-.2c-1.3 0-2.6.5-2.6 2.7v4.1H696v-8h1.3v1.3c.4-.9 1.4-1.4 2.4-1.4h.4v1.3zm2.4 3.2c.1 1.5 1 2.6 2.5 2.6.9 0 1.5-.3 2.1-.8l.7.9c-.7.6-1.7 1-2.8 1-2.3 0-3.8-1.7-3.8-4.1 0-2.4 1.4-4.2 3.6-4.2 2.1 0 3.4 1.7 3.4 4.1v.4h-5.7zm0-1h4.2c0-1.2-.7-2.4-2-2.4s-2.1 1.1-2.2 2.4zm6.9 3.6l.8-.9c.5.4 1.3 1 2.4 1 .9 0 1.6-.4 1.6-1.2 0-.9-.9-1.1-2-1.3-1.1-.3-2.5-.7-2.5-2.3 0-1.3 1.2-2.3 2.9-2.3 1.1 0 2.2.4 2.8 1l-.8.9c-.5-.4-1.2-.8-2-.8-1.1 0-1.6.5-1.6 1.2 0 .6.4.9 1.2 1.1.4.1.9.3 1.3.4 1.1.3 2 .9 2 2.2 0 1.6-1.5 2.4-3 2.4-1-.2-2.2-.6-3.1-1.4zm7.6 0l.8-.9c.5.4 1.3 1 2.4 1 .9 0 1.6-.4 1.6-1.2 0-.9-.9-1.1-2-1.3-1.1-.3-2.5-.7-2.5-2.3 0-1.3 1.2-2.3 2.9-2.3 1.1 0 2.2.4 2.8 1l-.8.9c-.5-.4-1.2-.8-2-.8-1.1 0-1.6.5-1.6 1.2 0 .6.4.9 1.2 1.1.4.1.9.3 1.3.4 1.1.3 2 .9 2 2.2 0 1.6-1.5 2.4-3 2.4-1.1-.2-2.3-.6-3.1-1.4zM824.3 521.4v-.1h1.3v11.2h-1.4v-8.2h-2.1v-1.2h.2c1.5 0 2-.5 2-1.7zm17.4-.1h1.7v11.2H842V523l-3.8 5.2-3.8-5.1v9.5H833v-11.2h1.7l3.5 4.8 3.5-4.9zm6.7 11.4c-1.6 0-2.8-.9-2.8-2.4 0-1.2.8-2.1 2.1-2.3l2.8-.4v-.5c0-1.2-.8-1.6-1.8-1.6-.9 0-1.7.3-2.3.6l-.5-1c.9-.5 2-.7 2.9-.7 1.9 0 3 .9 3 2.5v3.7c0 .5.2.9.7 1.1l-.7.9c-.5-.1-.9-.5-1.1-1-.4.6-1.2 1.1-2.3 1.1zm0-3.8c-.9.1-1.5.4-1.5 1.2 0 .9.8 1.4 1.6 1.4 1 0 2-.6 2-1.6v-1.4l-2.1.4zm5.1-4.4h1.5l2 6.6 1.9-6.6h1.5l-2.9 9.2c-.4 1.1-1.1 1.4-2.1 1.4-.4 0-.9 0-1.4-.1l.2-1.2s.5.1 1.1.1c.6 0 .9-.2 1-.8l.1-.4-2.9-8.2zm12.2 8v-1.3c.8-.7 3.2-2.7 4-3.5.9-.8 1.7-1.8 1.7-3.1 0-1.4-.9-2.2-2.2-2.2-1.4 0-2.1 1-2.2 2.4l-1.4-.1c.1-2.2 1.5-3.5 3.6-3.5 2.2 0 3.7 1.3 3.7 3.5 0 1.6-.8 2.7-3.3 4.8l-2 1.7h5.5v1.2h-7.4zm17.5-5.6c0 2.9-1.1 5.7-4.1 5.7-3 0-4.1-2.8-4.1-5.7 0-2.9 1.1-5.8 4.1-5.8 3.1 0 4.1 2.9 4.1 5.8zm-1.4.3v-.7c0-2.7-1-4.2-2.6-4.2s-2.6 1.5-2.6 4.2v.7c0 2.7 1 4.2 2.6 4.2 1.5.1 2.6-1.5 2.6-4.2zm5.3-5.8v-.1h1.3v11.2H887v-8.2h-2v-1.2h.2c1.5 0 1.9-.5 1.9-1.7zm9.6 1.1h-6v-1.2h7.3v1.2l-4.5 10H892l4.7-10zm7.3 4.7h3.4v1.2H904v-1.2zm-79.7 13.4v-.1h1.3v11.2h-1.4v-8.2h-2.1v-1.2h.2c1.5 0 2-.5 2-1.7zm12.1 5.5c0 2.9-1.1 5.7-4.1 5.7-3 0-4.1-2.8-4.1-5.7 0-2.9 1.1-5.8 4.1-5.8 3 0 4.1 2.9 4.1 5.8zm-1.5.3v-.7c0-2.7-1-4.2-2.6-4.2s-2.6 1.5-2.6 4.2v.7c0 2.7 1 4.2 2.6 4.2 1.6.1 2.6-1.5 2.6-4.2zm4.7-2.7c.6 0 1.1.5 1.1 1.1 0 .6-.5 1.1-1.1 1.1-.6 0-1.1-.5-1.1-1.1 0-.6.5-1.1 1.1-1.1zm0 6c.6 0 1.1.5 1.1 1.1 0 .6-.5 1.1-1.1 1.1-.6 0-1.1-.5-1.1-1.1 0-.6.5-1.1 1.1-1.1zm5-9.1v-.1h1.3v11.2h-1.4v-8.2h-2.1v-1.2h.2c1.6 0 2-.5 2-1.7zm4.2 5.4l.6-5.5h6.4v1.2h-5.3l-.3 3.2c.6-.6 1.5-.9 2.4-.9 2.1 0 3.7 1.6 3.7 3.8 0 2.4-1.6 4.1-4 4.1-1.8 0-3.4-.9-3.8-2.7l1.4-.2c.3.9 1 1.7 2.4 1.7 1.6 0 2.6-1.2 2.6-2.8 0-1.6-1-2.7-2.6-2.7-.8 0-1.7.4-2.1 1l-1.4-.2z"/><path class="st8" d="M912 562.4H48.9"/><path class="st5" d="M200.1 576.3h1.3v9.4c0 .5.2.8.8.8h.8l.1 1.1s-.8.1-1.3.1c-.9 0-1.7-.4-1.7-1.6v-9.8zm3.5 3.2h1.5l2 6.6 1.9-6.6h1.5l-2.9 9.2c-.4 1.1-1.1 1.4-2.1 1.4-.4 0-.9 0-1.4-.1l.2-1.2s.5.1 1.1.1c.6 0 .9-.2 1-.8l.1-.4-2.9-8.2zm14.5 8h-1.3v-5c0-1.4-.7-1.9-1.6-1.9-.9 0-1.8.7-1.8 2.2v4.7h-1.3v-8h1.3v.9c.5-.7 1.2-1.1 2.1-1.1.7 0 1.7.4 2.2 1.3.6-1 1.5-1.3 2.4-1.3 1.7 0 2.7 1.3 2.7 2.7v5.5h-1.3v-5c0-1.4-.8-1.9-1.6-1.9-.9 0-1.8.7-1.8 2.2v4.7zm9.4.2c-1.6 0-2.8-.9-2.8-2.4 0-1.2.8-2.1 2.1-2.3l2.8-.4v-.5c0-1.2-.8-1.6-1.8-1.6-.9 0-1.7.3-2.3.6l-.5-1c.9-.5 2-.7 2.9-.7 1.9 0 3 .9 3 2.5v3.7c0 .5.2.9.7 1.1l-.7.9c-.5-.1-.9-.5-1.1-1-.5.6-1.2 1.1-2.3 1.1zm0-3.8c-.9.1-1.5.4-1.5 1.2 0 .9.8 1.4 1.6 1.4 1 0 2-.6 2-1.6v-1.4l-2.1.4zm6-4.4h1.3v.9c.5-.7 1.4-1.1 2.3-1.1 1.8 0 2.7 1.3 2.7 2.7v5.4h-1.3v-5c0-1.4-.7-1.9-1.6-1.9-1 0-2 .7-2 2.2v4.7h-1.3v-7.9zm9.7 6c.6 0 1.1.5 1.1 1.1 0 .6-.5 1.1-1.1 1.1-.6 0-1.1-.5-1.1-1.1 0-.6.5-1.1 1.1-1.1zm2.8 1l.8-.9c.5.4 1.3 1 2.4 1 .9 0 1.6-.4 1.6-1.2 0-.9-.9-1.1-2-1.3-1.1-.3-2.5-.7-2.5-2.3 0-1.3 1.2-2.3 2.9-2.3 1.1 0 2.2.4 2.8 1l-.8.9c-.5-.4-1.2-.8-2-.8-1.1 0-1.6.5-1.6 1.2 0 .6.4.9 1.2 1.1.4.1.9.3 1.3.4 1.1.3 2 .9 2 2.2 0 1.6-1.5 2.4-3 2.4-1-.2-2.2-.6-3.1-1.4zm10.4 1.2c-1.6 0-2.8-.9-2.8-2.4 0-1.2.8-2.1 2.1-2.3l2.8-.4v-.5c0-1.2-.8-1.6-1.8-1.6-.9 0-1.7.3-2.3.6l-.5-1c.9-.5 2-.7 2.9-.7 1.9 0 3 .9 3 2.5v3.7c0 .5.2.9.7 1.1l-.7.9c-.5-.1-.9-.5-1.1-1-.5.6-1.2 1.1-2.3 1.1zm0-3.8c-.9.1-1.5.4-1.5 1.2 0 .9.8 1.4 1.6 1.4 1 0 2-.6 2-1.6v-1.4l-2.1.4zm10.1-3.2h-.2c-1.3 0-2.6.5-2.6 2.7v4.1h-1.3v-8h1.3v1.3c.4-.9 1.4-1.4 2.4-1.4h.4v1.3zm3.9 7c-1.6 0-2.8-.9-2.8-2.4 0-1.2.8-2.1 2.1-2.3l2.8-.4v-.5c0-1.2-.8-1.6-1.8-1.6-.9 0-1.7.3-2.3.6l-.5-1c.9-.5 2-.7 2.9-.7 1.9 0 3 .9 3 2.5v3.7c0 .5.2.9.7 1.1l-.7.9c-.5-.1-.9-.5-1.1-1-.5.6-1.3 1.1-2.3 1.1zm0-3.8c-.9.1-1.5.4-1.5 1.2 0 .9.8 1.4 1.6 1.4 1 0 2-.6 2-1.6v-1.4l-2.1.4zm6-7.6h1.3v4.1c.5-.7 1.4-1.1 2.3-1.1 1.8 0 2.7 1.3 2.7 2.7v5.4h-1.3v-5c0-1.4-.7-1.9-1.6-1.9-1 0-2 .7-2 2.2v4.7h-1.3v-11.1zm8.6 5.9c0-3 1.2-6.1 4.5-6.1 1.6 0 2.7.7 3.3 1.8l-1.4.4c-.5-.7-1.1-1.1-2-1.1-2.1 0-3 2.2-3 4.5.5-.8 1.4-1.6 3-1.6 2.1 0 3.6 1.6 3.6 3.7 0 2.2-1.6 3.8-3.9 3.8-2.4 0-4.2-1.8-4.2-5.2v-.2zm4.1 4.3c1.4 0 2.5-1 2.5-2.6s-1-2.6-2.5-2.6-2.5 1-2.5 2.5c0 1.6 1.1 2.7 2.5 2.7zm14-4.6c0 2.9-1.1 5.7-4.1 5.7-3 0-4.1-2.8-4.1-5.7 0-2.9 1.1-5.8 4.1-5.8 3.1 0 4.1 2.9 4.1 5.8zm-1.4.3v-.7c0-2.7-1-4.2-2.6-4.2s-2.6 1.5-2.6 4.2v.7c0 2.7 1 4.2 2.6 4.2 1.5.1 2.6-1.5 2.6-4.2zm12.1 4.5c-.5.5-1.2 1-2.3 1-1.6 0-2.8-.9-2.8-2.4 0-1.2.8-2.1 2.1-2.3l2.8-.4v-.5c0-1.2-.8-1.6-1.8-1.6-.9 0-1.7.3-2.3.6l-.5-1c.9-.5 2-.7 2.9-.7 1.9 0 3 .9 3 2.5v3.9c0 .5.2.9.7.9 1.7 0 2.1-2.6 2.1-3.3 0-3.4-2.5-5.8-5.8-5.8s-5.9 2.7-5.9 5.9c0 3.3 2.7 5.9 5.9 5.9.9 0 1.8-.2 2.6-.6l.6.7c-1 .5-2.1.8-3.3.8-3.8 0-6.7-3-6.7-6.8s3.1-6.8 6.9-6.8c3.8 0 6.6 2.7 6.6 6.6 0 1.7-1 4.3-3 4.3-1.2.1-1.6-.6-1.8-.9zm-2.3-2.8c-.9.1-1.5.4-1.5 1.2 0 .9.8 1.4 1.6 1.4 1 0 2-.6 2-1.6v-1.4l-2.1.4zm10.4 1.6c.6 0 1.1.5 1.1 1.1 0 .6-.5 1.1-1.1 1.1-.6 0-1.1-.5-1.1-1.1 0-.6.5-1.1 1.1-1.1zm4.3 0c.6 0 1.1.5 1.1 1.1 0 .6-.5 1.1-1.1 1.1-.6 0-1.1-.5-1.1-1.1.1-.6.6-1.1 1.1-1.1zm4.4 0c.6 0 1.1.5 1.1 1.1 0 .6-.5 1.1-1.1 1.1-.6 0-1.1-.5-1.1-1.1 0-.6.5-1.1 1.1-1.1zM51.1 585c.7.9 1.9 1.5 3.2 1.5 1.4 0 2.5-.7 2.5-2 0-.8-.4-1.3-1.1-1.6-1.1-.5-2.9-.6-4.1-1.3-.7-.4-1.3-1.1-1.3-2.3 0-1.7 1.4-3.1 3.8-3.1 1.4 0 2.8.6 3.7 1.5l-1 .8c-.6-.6-1.5-1.2-2.7-1.2-1.4 0-2.4.7-2.4 1.9 0 1.8 2.6 1.6 4.6 2.5 1 .4 1.9 1.2 1.9 2.7 0 2.2-2 3.3-4.1 3.3-1.9 0-3.2-.8-4.1-1.7l1.1-1zm9.6-8.7h3.8c2.1 0 3.7 1 3.7 3.3 0 1.4-.8 2.5-2.2 3.1l2.4 4.8h-1.6l-2.1-4.5h-2.6v4.5h-1.4v-11.2zm3.9 5.5c1.3 0 2.2-.8 2.2-2.1 0-1.4-.9-2.2-2.2-2.2h-2.5v4.3h2.5zm8.4 5.7l-3.3-11.2h1.5l2.7 9.9 2.8-9.9h1.5l-3.3 11.2H73zm6.8-5.7l.6-5.5h6.4v1.2h-5.3l-.3 3.2c.6-.6 1.5-.9 2.4-.9 2.1 0 3.7 1.6 3.7 3.8 0 2.4-1.6 4.1-4 4.1-1.8 0-3.4-.9-3.8-2.7l1.4-.2c.3.9 1 1.7 2.4 1.7 1.6 0 2.6-1.2 2.6-2.8 0-1.6-1-2.7-2.6-2.7-.8 0-1.7.4-2.1 1l-1.4-.2zm11.2-5.4v-.1h1.3v11.2H91v-8.2h-2.1v-1.2h.2c1.5 0 1.9-.5 1.9-1.7zm9.6 1.1h-6v-1.2h7.3v1.2l-4.5 10h-1.6l4.8-10zm8.6 0h-6v-1.2h7.3v1.2l-4.5 10h-1.6l4.8-10zm11 4.1c0 3-1.2 6.1-4.4 6.1-1.6 0-2.7-.7-3.3-1.8l1.4-.4c.5.7 1.1 1.1 2 1.1 2.1 0 3-2.2 3-4.5-.5.8-1.4 1.6-3 1.6-2.1 0-3.6-1.6-3.6-3.6 0-2.2 1.6-3.8 3.9-3.8 2.4 0 4.2 1.8 4.2 5.2v.1zm-4.2-4.3c-1.4 0-2.5 1-2.5 2.6s1 2.6 2.5 2.6 2.5-1 2.5-2.5c0-1.6-1-2.7-2.5-2.7zm8-.9v-.1h1.3v11.2H124v-8.2h-2.1v-1.2h.2c1.5 0 1.9-.5 1.9-1.7zM380 578.3c-.4-.6-1-1-1.9-1-1.2 0-2 .9-2 2.4v1.8h2.6v1.2H376v3.7h5v1.2h-7.2v-1.2h.8v-3.7h-.8v-1.2h.8v-1.7c0-2.2 1.3-3.6 3.4-3.6 1.4 0 2.4.5 3 1.4l-1 .7zm10.7.9c0 1-.5 2.1-1.9 2.5 1.6.4 2.2 1.7 2.2 2.8 0 2-2 3.1-4 3.1s-4-1.1-4-3.1c0-1.2.7-2.4 2.2-2.8-1.4-.4-1.9-1.5-1.9-2.5 0-1.9 1.8-3 3.7-3 2-.1 3.7 1 3.7 3zm-1.1 5.2c0-1.4-1.2-2-2.6-2-1.4 0-2.6.7-2.6 2 0 1.4 1.2 2 2.6 2 1.4.1 2.6-.6 2.6-2zm-.2-5.1c0-1.2-1.1-1.9-2.3-1.9-1.2 0-2.3.7-2.3 1.9s1 1.9 2.3 1.9c1.2-.1 2.3-.8 2.3-1.9zm11.8 2.6c0 2.9-1.1 5.7-4.1 5.7-3 0-4.1-2.8-4.1-5.7 0-2.9 1.1-5.8 4.1-5.8 3 0 4.1 2.9 4.1 5.8zm-1.5.3v-.7c0-2.7-1-4.2-2.6-4.2s-2.6 1.5-2.6 4.2v.7c0 2.7 1 4.2 2.6 4.2 1.6.1 2.6-1.5 2.6-4.2zm4.5 3.3c.6 0 1.1.5 1.1 1.1 0 .6-.5 1.1-1.1 1.1-.6 0-1.1-.5-1.1-1.1.1-.6.5-1.1 1.1-1.1zm11.2-3.6c0 2.9-1.1 5.7-4.1 5.7-3 0-4.1-2.8-4.1-5.7 0-2.9 1.1-5.8 4.1-5.8 3 0 4.1 2.9 4.1 5.8zm-1.5.3v-.7c0-2.7-1-4.2-2.6-4.2s-2.6 1.5-2.6 4.2v.7c0 2.7 1 4.2 2.6 4.2 1.6.1 2.6-1.5 2.6-4.2zm11.7-.3c0 2.9-1.1 5.7-4.1 5.7-3 0-4.1-2.8-4.1-5.7 0-2.9 1.1-5.8 4.1-5.8 3.1 0 4.1 2.9 4.1 5.8zm-1.4.3v-.7c0-2.7-1-4.2-2.6-4.2s-2.6 1.5-2.6 4.2v.7c0 2.7 1 4.2 2.6 4.2 1.5.1 2.6-1.5 2.6-4.2zM514.6 574.9h1.7v11.2h-1.4v-9.5l-3.8 5.2-3.8-5.1v9.5h-1.4V575h1.7l3.5 4.8 3.5-4.9zm6.6 11.4c-1.6 0-2.8-.9-2.8-2.4 0-1.2.8-2.1 2.1-2.3l2.8-.4v-.5c0-1.2-.8-1.6-1.8-1.6-.9 0-1.7.3-2.3.6l-.5-1c.9-.5 2-.7 2.9-.7 1.9 0 3 .9 3 2.5v3.7c0 .5.2.9.7 1.1l-.7.9c-.5-.1-.9-.5-1.1-1-.4.7-1.2 1.1-2.3 1.1zm0-3.7c-.9.1-1.5.4-1.5 1.2 0 .9.8 1.4 1.6 1.4 1 0 2-.6 2-1.6v-1.4l-2.1.4zm5.3 2.5l.8-.9c.5.4 1.3 1 2.4 1 .9 0 1.6-.4 1.6-1.2 0-.9-.9-1.1-2-1.3-1.1-.3-2.5-.7-2.5-2.3 0-1.3 1.2-2.3 2.9-2.3 1.1 0 2.2.4 2.8 1l-.8.9c-.5-.4-1.2-.8-2-.8-1.1 0-1.6.5-1.6 1.2 0 .6.4.9 1.2 1.1.4.1.9.3 1.3.4 1.1.3 2 .9 2 2.2 0 1.6-1.5 2.4-3 2.4-1-.2-2.2-.6-3.1-1.4zm10.3-1c0 .5.1 1 1 1 .2 0 .8 0 1-.1l.1 1.2s-.8.1-1.4.1c-1.3 0-2-.5-2-1.9v-5.1H534v-1.2h1.5v-2.6l1.3-.5v3.1h2.2v1.2h-2.2v4.8zm4.9-1.6c.1 1.5 1 2.6 2.5 2.6.9 0 1.5-.3 2.1-.8l.7.9c-.7.6-1.7 1-2.8 1-2.3 0-3.8-1.7-3.8-4.1 0-2.4 1.4-4.2 3.6-4.2 2.1 0 3.4 1.7 3.4 4.1v.4h-5.7zm0-1h4.2c0-1.2-.7-2.4-2-2.4s-2.1 1.2-2.2 2.4zm11.7-2.2h-.2c-1.3 0-2.6.5-2.6 2.7v4.1h-1.3v-8h1.3v1.3c.4-.9 1.4-1.4 2.4-1.4h.4v1.3zm2.4 2.9c0 1.6.8 3 2.3 3 1 0 1.7-.6 2.1-1.3l1.1.6c-.5 1.1-1.7 1.9-3.2 1.9-2.2 0-3.7-1.7-3.7-4.1 0-2.4 1.5-4.2 3.7-4.2 1.4 0 2.6.7 3.2 1.9l-1.1.6c-.4-.8-1.1-1.3-2.1-1.3-1.5-.2-2.3 1.2-2.3 2.9zm9.6 4.1c-1.6 0-2.8-.9-2.8-2.4 0-1.2.8-2.1 2.1-2.3l2.8-.4v-.5c0-1.2-.8-1.6-1.8-1.6-.9 0-1.7.3-2.3.6l-.5-1c.9-.5 2-.7 2.9-.7 1.9 0 3 .9 3 2.5v3.7c0 .5.2.9.7 1.1l-.7.9c-.5-.1-.9-.5-1.1-1-.4.7-1.2 1.1-2.3 1.1zm0-3.7c-.9.1-1.5.4-1.5 1.2 0 .9.8 1.4 1.6 1.4 1 0 2-.6 2-1.6v-1.4l-2.1.4zm10.1-3.3h-.2c-1.3 0-2.6.5-2.6 2.7v4.1h-1.3v-8h1.3v1.3c.4-.9 1.4-1.4 2.4-1.4h.4v1.3zm6.8 5.9c-.5.7-1.3 1.1-2.3 1.1-2.1 0-3.4-1.7-3.4-4.1 0-2.4 1.3-4.2 3.4-4.2 1 0 1.9.4 2.3 1.1V575h1.3v11.2h-1.3v-1zm-4.4-3c0 1.7.8 2.9 2.3 2.9 1.4 0 2.1-1 2.1-2.3v-1.3c0-1.3-.7-2.3-2.1-2.3-1.5-.1-2.3 1.2-2.3 3zM646.2 576.3h1.4v11.2h-1.4v-11.2zm4.2 3.2h1.3v.9c.5-.7 1.4-1.1 2.3-1.1 1.8 0 2.7 1.3 2.7 2.7v5.4h-1.3v-5c0-1.4-.7-1.9-1.6-1.9-1 0-2 .7-2 2.2v4.7h-1.3v-7.9zm14.3 0v.9c.5-.7 1.3-1.1 2.3-1.1 2.1 0 3.4 1.7 3.4 4.2 0 2.4-1.3 4.1-3.4 4.1-1 0-1.9-.4-2.3-1.1v3.3h-1.3v-10.4h1.3zm4.4 4c0-1.7-.8-2.9-2.3-2.9-1.4 0-2.1 1-2.1 2.3v1.3c0 1.3.7 2.3 2.1 2.3 1.5 0 2.3-1.3 2.3-3zm7.5-2.8h-.2c-1.3 0-2.6.5-2.6 2.7v4.1h-1.3v-8h1.3v1.3c.4-.9 1.4-1.4 2.4-1.4h.4v1.3zm8.4 2.8c0 2.4-1.5 4.1-3.7 4.1s-3.7-1.7-3.7-4.1c0-2.4 1.5-4.2 3.7-4.2s3.7 1.8 3.7 4.2zm-1.4.1c0-1.7-.8-3.1-2.3-3.1s-2.3 1.4-2.3 3v.1c0 1.6.8 2.9 2.3 2.9s2.3-1.4 2.3-2.9zm6.3-4.3c.9 0 1.7.3 2.3 1.1v-.9h1.3v8.1c0 2-1.7 2.6-3.4 2.6-.9 0-2.1-.2-3-.6l.4-1.1c.6.3 1.6.6 2.5.6 1.3 0 2.1-.5 2.1-1.7v-1.5c-.5.8-1.4 1.1-2.3 1.1-2 0-3.2-1.6-3.2-3.7s1.3-4 3.3-4zm2.3 3.7c0-1.4-.6-2.5-2-2.5-1.5 0-2.1 1.1-2.1 2.5v.1c0 1.4.7 2.5 2.1 2.5 1.4 0 2-1.1 2-2.6zm7.9-2.3h-.2c-1.3 0-2.6.5-2.6 2.7v4.1H696v-8h1.3v1.3c.4-.9 1.4-1.4 2.4-1.4h.4v1.3zm2.4 3.2c.1 1.5 1 2.6 2.5 2.6.9 0 1.5-.3 2.1-.8l.7.9c-.7.6-1.7 1-2.8 1-2.3 0-3.8-1.7-3.8-4.1 0-2.4 1.4-4.2 3.6-4.2 2.1 0 3.4 1.7 3.4 4.1v.4h-5.7zm0-1.1h4.2c0-1.2-.7-2.4-2-2.4-1.3.1-2.1 1.2-2.2 2.4zm6.9 3.7l.8-.9c.5.4 1.3 1 2.4 1 .9 0 1.6-.4 1.6-1.2 0-.9-.9-1.1-2-1.3-1.1-.3-2.5-.7-2.5-2.3 0-1.3 1.2-2.3 2.9-2.3 1.1 0 2.2.4 2.8 1l-.8.9c-.5-.4-1.2-.8-2-.8-1.1 0-1.6.5-1.6 1.2 0 .6.4.9 1.2 1.1.4.1.9.3 1.3.4 1.1.3 2 .9 2 2.2 0 1.6-1.5 2.4-3 2.4-1-.2-2.2-.6-3.1-1.4zm7.6 0l.8-.9c.5.4 1.3 1 2.4 1 .9 0 1.6-.4 1.6-1.2 0-.9-.9-1.1-2-1.3-1.1-.3-2.5-.7-2.5-2.3 0-1.3 1.2-2.3 2.9-2.3 1.1 0 2.2.4 2.8 1l-.8.9c-.5-.4-1.2-.8-2-.8-1.1 0-1.6.5-1.6 1.2 0 .6.4.9 1.2 1.1.4.1.9.3 1.3.4 1.1.3 2 .9 2 2.2 0 1.6-1.5 2.4-3 2.4-1.1-.2-2.3-.6-3.1-1.4zM824.3 576.4v-.1h1.3v11.2h-1.4v-8.2h-2.1v-1.2h.2c1.5 0 2-.5 2-1.7zm17.4-.1h1.7v11.2H842V578l-3.8 5.2-3.8-5.1v9.5H833v-11.2h1.7l3.5 4.8 3.5-4.9zm6.7 11.4c-1.6 0-2.8-.9-2.8-2.4 0-1.2.8-2.1 2.1-2.3l2.8-.4v-.5c0-1.2-.8-1.6-1.8-1.6-.9 0-1.7.3-2.3.6l-.5-1c.9-.5 2-.7 2.9-.7 1.9 0 3 .9 3 2.5v3.7c0 .5.2.9.7 1.1l-.7.9c-.5-.1-.9-.5-1.1-1-.4.6-1.2 1.1-2.3 1.1zm0-3.8c-.9.1-1.5.4-1.5 1.2 0 .9.8 1.4 1.6 1.4 1 0 2-.6 2-1.6v-1.4l-2.1.4zm5.1-4.4h1.5l2 6.6 1.9-6.6h1.5l-2.9 9.2c-.4 1.1-1.1 1.4-2.1 1.4-.4 0-.9 0-1.4-.1l.2-1.2s.5.1 1.1.1c.6 0 .9-.2 1-.8l.1-.4-2.9-8.2zm12.2 8v-1.3c.8-.7 3.2-2.7 4-3.5.9-.8 1.7-1.8 1.7-3.1 0-1.4-.9-2.2-2.2-2.2-1.4 0-2.1 1-2.2 2.4l-1.4-.1c.1-2.2 1.5-3.5 3.6-3.5 2.2 0 3.7 1.3 3.7 3.5 0 1.6-.8 2.7-3.3 4.8l-2 1.7h5.5v1.2h-7.4zm17.5-5.6c0 2.9-1.1 5.7-4.1 5.7-3 0-4.1-2.8-4.1-5.7 0-2.9 1.1-5.8 4.1-5.8 3.1 0 4.1 2.9 4.1 5.8zm-1.4.3v-.7c0-2.7-1-4.2-2.6-4.2s-2.6 1.5-2.6 4.2v.7c0 2.7 1 4.2 2.6 4.2 1.5.1 2.6-1.5 2.6-4.2zm5.3-5.8v-.1h1.3v11.2H887v-8.2h-2v-1.2h.2c1.5 0 1.9-.5 1.9-1.7zm9.6 1.1h-6v-1.2h7.3v1.2l-4.5 10H892l4.7-10zm7.3 4.7h3.4v1.2H904v-1.2zm-73.4 18.9c0 2.9-1.1 5.7-4.1 5.7-3 0-4.1-2.8-4.1-5.7 0-2.9 1.1-5.8 4.1-5.8 3 0 4.1 2.9 4.1 5.8zm-1.5.3v-.7c0-2.7-1-4.2-2.6-4.2s-2.6 1.5-2.6 4.2v.7c0 2.7 1 4.2 2.6 4.2 1.6.1 2.6-1.5 2.6-4.2zm11.5-.6c0 3-1.2 6.1-4.4 6.1-1.6 0-2.7-.7-3.3-1.8l1.4-.4c.5.7 1.1 1.1 2 1.1 2.1 0 3-2.2 3-4.5-.5.8-1.4 1.6-3 1.6-2.1 0-3.6-1.6-3.6-3.6 0-2.2 1.6-3.8 3.9-3.8 2.4 0 4.2 1.8 4.2 5.2v.1zm-4.1-4.3c-1.4 0-2.5 1-2.5 2.6s1 2.6 2.5 2.6 2.5-1 2.5-2.5c0-1.6-1.1-2.7-2.5-2.7zm7.3 2.2c.6 0 1.1.5 1.1 1.1 0 .6-.5 1.1-1.1 1.1-.6 0-1.1-.5-1.1-1.1.1-.6.5-1.1 1.1-1.1zm0 6c.6 0 1.1.5 1.1 1.1 0 .6-.5 1.1-1.1 1.1-.6 0-1.1-.5-1.1-1.1.1-.6.5-1.1 1.1-1.1zm3.4-3.7l.6-5.5h6.4v1.2h-5.3l-.3 3.2c.6-.6 1.5-.9 2.4-.9 2.1 0 3.7 1.6 3.7 3.8 0 2.4-1.6 4.1-4 4.1-1.8 0-3.4-.9-3.8-2.7l1.4-.2c.3.9 1 1.7 2.4 1.7 1.6 0 2.6-1.2 2.6-2.8 0-1.6-1-2.7-2.6-2.7-.8 0-1.7.4-2.1 1l-1.4-.2zm17.1-2.6c0 1-.5 2.1-1.9 2.5 1.6.4 2.2 1.7 2.2 2.8 0 2-2 3.1-4 3.1s-4-1.1-4-3.1c0-1.2.7-2.4 2.2-2.8-1.4-.4-1.9-1.5-1.9-2.5 0-1.9 1.8-3 3.7-3 1.9-.1 3.7 1 3.7 3zm-1.1 5.2c0-1.4-1.2-2-2.6-2-1.4 0-2.6.7-2.6 2 0 1.4 1.2 2 2.6 2 1.3.1 2.6-.6 2.6-2zm-.3-5.1c0-1.2-1.1-1.9-2.3-1.9-1.2 0-2.3.7-2.3 1.9s1 1.9 2.3 1.9c1.2-.1 2.3-.8 2.3-1.9z"/><path class="st8" d="M912 618H48.9"/><path class="st5" d="M64.6 219.2h4.3c2.7 0 4.1 1.7 4.1 3.5 0 1.5-.9 2.7-2.2 3.1l2.4 4.6h-2.6l-2-4h-1.8v4h-2.3v-11.2zm4.1 2h-1.8v3.1h1.8c1.3 0 2-.6 2-1.5-.1-.9-.7-1.6-2-1.6zm7.6 5.8c.2 1.1 1 1.6 2 1.6.8 0 1.6-.3 2.1-.8l1.1 1.6c-.7.6-1.9 1.1-3.2 1.1-2.3 0-4.2-1.6-4.2-4.3v-.1c0-2.5 1.7-4.3 4-4.3 2.2 0 3.8 1.7 3.8 4.1v1h-5.6zm0-1.7h3.4c0-.7-.5-1.6-1.6-1.6-1.2 0-1.7.9-1.8 1.6zm10-3.3h1.6v1.9h-1.6v6.4h-2.2V224h-1.3v-2h1.3v-.9c0-1.5 1-2.1 2.5-2.1.8 0 1.5.1 1.7.1l-.2 1.8c-.3 0-.8-.1-1.1-.1-.6 0-.8.3-.8.6v.6zm4.7 5c.2 1.1 1 1.6 2 1.6.8 0 1.6-.3 2.1-.8l1.1 1.6c-.7.6-1.9 1.1-3.2 1.1-2.3 0-4.2-1.6-4.2-4.3v-.1c0-2.5 1.7-4.3 4-4.3 2.2 0 3.8 1.7 3.8 4.1v1H91zm0-1.7h3.4c0-.7-.5-1.6-1.6-1.6-1.2 0-1.7.9-1.8 1.6zm12-1.2h-.4c-1.2 0-2.3.4-2.3 2.2v4.1h-2.2V222h2.2v.9c.4-.6 1.1-1.1 2.2-1.1h.5v2.3zm3.1 2.9c.2 1.1 1 1.6 2 1.6.8 0 1.6-.3 2.1-.8l1.1 1.6c-.7.6-1.9 1.1-3.2 1.1-2.3 0-4.2-1.6-4.2-4.3v-.1c0-2.5 1.7-4.3 4-4.3 2.2 0 3.8 1.7 3.8 4.1v1h-5.6zm0-1.7h3.4c0-.7-.5-1.6-1.6-1.6-1.2 0-1.8.9-1.8 1.6zm7.2-3.3h2.2v.7c.5-.5 1.1-.9 2.1-.9 1.8 0 2.9 1.3 2.9 2.9v5.7h-2.2v-4.9c0-1.2-.6-1.6-1.3-1.6-.9 0-1.6.6-1.6 1.9v4.6h-2.2V222zm8.7 4.2c0-2.5 1.7-4.3 4-4.3 1.7 0 3.1.8 3.6 2.2l-1.9 1c-.3-.7-.8-1.1-1.7-1.1-1.3 0-1.9 1.2-1.9 2.3v.1c0 1.1.6 2.3 1.9 2.3.9 0 1.3-.4 1.7-1.1l1.9 1c-.5 1.3-2 2.2-3.7 2.2-2.3-.2-3.9-2.1-3.9-4.6zm10.9.8c.2 1.1 1 1.6 2 1.6.8 0 1.6-.3 2.1-.8l1.1 1.6c-.7.6-1.9 1.1-3.2 1.1-2.3 0-4.2-1.6-4.2-4.3v-.1c0-2.5 1.7-4.3 4-4.3 2.2 0 3.8 1.7 3.8 4.1v1h-5.6zm0-1.7h3.4c0-.7-.5-1.6-1.6-1.6-1.2 0-1.8.9-1.8 1.6zm10.8-3.3h2.2v.7c.5-.5 1.1-.9 2.1-.9 1.8 0 2.9 1.3 2.9 2.9v5.7h-2.2v-4.9c0-1.2-.6-1.6-1.3-1.6-.9 0-1.6.6-1.6 1.9v4.6h-2.2V222zm16.3 8.4h-2.2v-.7c-.5.5-1.1.9-2.1.9-1.8 0-2.9-1.3-2.9-2.9V222h2.2v4.9c0 1.2.6 1.6 1.3 1.6.9 0 1.6-.6 1.6-1.9V222h2.2v8.4zm9 0h-2.2v-4.9c0-1.2-.6-1.6-1.3-1.6-.8 0-1.5.6-1.5 1.9v4.6h-2V222h2.2v.7c.5-.6 1.3-.9 2.1-.9.9 0 1.7.3 2.2 1.1.6-.8 1.5-1.1 2.5-1.1 1.9 0 3 1.3 3 2.8v5.7h-2.2v-4.9c0-1.2-.6-1.6-1.3-1.6-.8 0-1.5.6-1.5 1.9v4.7zm14.8-4.1c0 2.5-1.5 4.3-3.7 4.3-1 0-1.6-.4-2.1-.9v.7h-2.2v-11.2h2.2v3.6c.5-.5 1.1-.9 2.1-.9 2.3 0 3.7 1.8 3.7 4.4zm-5.8.7c0 .9.7 1.6 1.7 1.6 1.2 0 1.9-1 1.9-2.3v-.1c0-1.3-.7-2.3-1.9-2.3-1.1 0-1.7.7-1.7 1.6v1.5zm9.3 0c.2 1.1 1 1.6 2 1.6.8 0 1.6-.3 2.1-.8l1.1 1.6c-.7.6-1.9 1.1-3.2 1.1-2.3 0-4.2-1.6-4.2-4.3v-.1c0-2.5 1.7-4.3 4-4.3 2.2 0 3.8 1.7 3.8 4.1v1h-5.6zm0-1.7h3.4c0-.7-.5-1.6-1.6-1.6-1.2 0-1.8.9-1.8 1.6zm12-1.2h-.4c-1.2 0-2.3.4-2.3 2.2v4.1h-2.2V222h2.2v.9c.4-.6 1.1-1.1 2.2-1.1h.5v2.3zM64.9 238.4h6.7v1.2h-5.3v3.7h4.9v1.2h-4.9v4h5.6v1.2h-7v-11.3zm9.1 3.2h1.3v.9c.5-.7 1.4-1.1 2.3-1.1 1.8 0 2.7 1.3 2.7 2.7v5.4H79v-5c0-1.4-.7-1.9-1.6-1.9-1 0-2 .7-2 2.2v4.7H74v-7.9zm10.9 6c0 .5.1 1 1 1 .2 0 .8 0 1-.1l.1 1.2s-.8.1-1.4.1c-1.3 0-2-.5-2-1.9v-5.1h-1.5v-1.2h1.5V239l1.3-.5v3.1h2.2v1.2h-2.2v4.8zm4.9-1.6c.1 1.5 1 2.6 2.5 2.6.9 0 1.5-.3 2.1-.8l.7.9c-.7.6-1.7 1-2.8 1-2.3 0-3.8-1.7-3.8-4.1 0-2.4 1.4-4.2 3.6-4.2 2.1 0 3.4 1.7 3.4 4.1v.4h-5.7zm0-1H94c0-1.2-.7-2.4-2-2.4s-2.1 1.1-2.2 2.4zm11.7-2.2h-.2c-1.3 0-2.6.5-2.6 2.7v4.1h-1.3v-8h1.3v1.3c.4-.9 1.4-1.4 2.4-1.4h.4v1.3zm7.2-1.2h1.6v1.2h-1.6v6.8h-1.3v-6.8h-1.3v-1.2h1.3v-1.5c0-1.4.9-1.9 2.2-1.9.6 0 1.1.1 1.3.1l-.1 1.1c-.3 0-.9-.1-1.1-.1-.8 0-.9.5-.9 1v1.3zm9.7 8H117v-.9c-.5.7-1.4 1.1-2.3 1.1-1.8 0-2.7-1.3-2.7-2.7v-5.4h1.3v5c0 1.4.7 1.9 1.6 1.9 1.1 0 2-.7 2-2.2v-4.7h1.3v7.9zm2.5-11.2h1.3v9.4c0 .5.2.8.8.8h.8l.1 1.1s-.8.1-1.3.1c-.9 0-1.7-.4-1.7-1.6v-9.8zm4.4 0h1.3v9.4c0 .5.2.8.8.8h.8l.1 1.1s-.8.1-1.3.1c-.9 0-1.7-.4-1.7-1.6v-9.8zm15 7.2c0 2.4-1.5 4.1-3.7 4.1s-3.7-1.7-3.7-4.1c0-2.4 1.5-4.2 3.7-4.2 2.3.1 3.7 1.8 3.7 4.2zm-1.3.1c0-1.7-.8-3.1-2.3-3.1-1.5 0-2.3 1.4-2.3 3v.1c0 1.6.8 2.9 2.3 2.9 1.5 0 2.3-1.4 2.3-2.9zm7.5-2.9h-.2c-1.3 0-2.6.5-2.6 2.7v4.1h-1.3v-8h1.3v1.3c.4-.9 1.4-1.4 2.4-1.4h.4v1.3zm6.8-1.2v.9c.5-.7 1.3-1.1 2.3-1.1 2.1 0 3.4 1.7 3.4 4.2 0 2.4-1.3 4.1-3.4 4.1-1 0-1.9-.4-2.3-1.1v3.3H152v-10.4h1.3zm4.4 4c0-1.7-.8-2.9-2.3-2.9-1.4 0-2.1 1-2.1 2.3v1.3c0 1.3.7 2.3 2.1 2.3 1.5 0 2.3-1.3 2.3-3zm5.6 4.2c-1.6 0-2.8-.9-2.8-2.4 0-1.2.8-2.1 2.1-2.3l2.8-.4v-.5c0-1.2-.8-1.6-1.8-1.6-.9 0-1.7.3-2.3.6l-.5-1c.9-.5 2-.7 2.9-.7 1.9 0 3 .9 3 2.5v3.7c0 .5.2.9.7 1.1l-.7.9c-.5-.1-.9-.5-1.1-1-.4.6-1.2 1.1-2.3 1.1zm.1-3.8c-.9.1-1.5.4-1.5 1.2 0 .9.8 1.4 1.6 1.4 1 0 2-.6 2-1.6v-1.4l-2.1.4zm10-3.2h-.2c-1.3 0-2.6.5-2.6 2.7v4.1h-1.3v-8h1.3v1.3c.4-.9 1.4-1.4 2.4-1.4h.4v1.3zm3.8 4.8c0 .5.1 1 1 1 .2 0 .8 0 1-.1l.1 1.2s-.8.1-1.4.1c-1.3 0-2-.5-2-1.9v-5.1h-1.5v-1.2h1.5V239l1.3-.5v3.1h2.2v1.2h-2.2v4.8zm4.7-9.2c.5 0 1 .4 1 1 0 .5-.4 1-1 1-.5 0-1-.4-1-1s.4-1 1-1zm.6 11.2h-1.3v-8h1.3v8zm4.8.2c-1.6 0-2.8-.9-2.8-2.4 0-1.2.8-2.1 2.1-2.3l2.8-.4v-.5c0-1.2-.8-1.6-1.8-1.6-.9 0-1.7.3-2.3.6l-.5-1c.9-.5 2-.7 2.9-.7 1.9 0 3 .9 3 2.5v3.7c0 .5.2.9.7 1.1l-.7.9c-.5-.1-.9-.5-1.1-1-.5.6-1.3 1.1-2.3 1.1zm0-3.8c-.9.1-1.5.4-1.5 1.2 0 .9.8 1.4 1.6 1.4 1 0 2-.6 2-1.6v-1.4l-2.1.4zm5.9-7.6h1.3v9.4c0 .5.2.8.8.8h.8l.1 1.1s-.8.1-1.3.1c-.9 0-1.7-.4-1.7-1.6v-9.8zm13.5 10.3c-.5.7-1.3 1.1-2.3 1.1-2.1 0-3.4-1.7-3.4-4.1 0-2.4 1.3-4.2 3.4-4.2 1 0 1.9.4 2.3 1.1v-4.1h1.3v11.2h-1.3v-1zm-4.4-3.1c0 1.7.8 2.9 2.3 2.9 1.4 0 2.1-1 2.1-2.3V245c0-1.3-.7-2.3-2.1-2.3-1.5-.1-2.3 1.2-2.3 2.9zm9.2.4c.1 1.5 1 2.6 2.5 2.6.9 0 1.5-.3 2.1-.8l.7.9c-.7.6-1.7 1-2.8 1-2.3 0-3.8-1.7-3.8-4.1 0-2.4 1.4-4.2 3.6-4.2 2.1 0 3.4 1.7 3.4 4.1v.4h-5.7zm0-1h4.2c0-1.2-.7-2.4-2-2.4s-2.2 1.1-2.2 2.4zm9.6 2.6c0 .5.1 1 1 1 .2 0 .8 0 1-.1l.1 1.2s-.8.1-1.4.1c-1.3 0-2-.5-2-1.9v-5.1h-1.5v-1.2h1.5V239l1.3-.5v3.1h2.2v1.2h-2.2v4.8zm6.2 2.2c-1.6 0-2.8-.9-2.8-2.4 0-1.2.8-2.1 2.1-2.3l2.8-.4v-.5c0-1.2-.8-1.6-1.8-1.6-.9 0-1.7.3-2.3.6l-.5-1c.9-.5 2-.7 2.9-.7 1.9 0 3 .9 3 2.5v3.7c0 .5.2.9.7 1.1l-.7.9c-.5-.1-.9-.5-1.1-1-.5.6-1.2 1.1-2.3 1.1zm0-3.8c-.9.1-1.5.4-1.5 1.2 0 .9.8 1.4 1.6 1.4 1 0 2-.6 2-1.6v-1.4l-2.1.4zm6.7-7.6c.5 0 1 .4 1 1 0 .5-.4 1-1 1-.5 0-1-.4-1-1s.4-1 1-1zm.6 11.2h-1.3v-8h1.3v8zm2.5-11.2h1.3v9.4c0 .5.2.8.8.8h.8l.1 1.1s-.8.1-1.3.1c-.9 0-1.7-.4-1.7-1.6v-9.8zm3.8 10.2l.8-.9c.5.4 1.3 1 2.4 1 .9 0 1.6-.4 1.6-1.2 0-.9-.9-1.1-2-1.3-1.1-.3-2.5-.7-2.5-2.3 0-1.3 1.2-2.3 2.9-2.3 1.1 0 2.2.4 2.8 1l-.8.9c-.5-.4-1.2-.8-2-.8-1.1 0-1.6.5-1.6 1.2 0 .6.4.9 1.2 1.1.4.1.9.3 1.3.4 1.1.3 2 .9 2 2.2 0 1.6-1.5 2.4-3 2.4-1.1-.2-2.3-.6-3.1-1.4zM276.9 219.2h7.6v2h-5.3v2.4h4.9v2h-4.9v2.7h5.6v2h-7.9v-11.1zm16.5 11.2h-2.2v-4.9c0-1.2-.6-1.6-1.3-1.6-.8 0-1.5.6-1.5 1.9v4.6h-2.2V222h2.2v.7c.5-.6 1.3-.9 2.1-.9.9 0 1.7.3 2.2 1.1.6-.8 1.5-1.1 2.5-1.1 1.9 0 3 1.3 3 2.8v5.7H296v-4.9c0-1.2-.6-1.6-1.3-1.6-.8 0-1.5.6-1.5 1.9v4.7zm9.3.2c-1.5 0-2.9-1-2.9-2.6 0-1.3.9-2.2 2.4-2.4l2.5-.4v-.3c0-.7-.5-1.1-1.3-1.1-1 0-1.8.4-2.5.7l-.8-1.7c1-.5 2.2-.9 3.4-.9 1.5 0 3.4.4 3.4 2.7v3.6c0 .5.3.7.7.9l-1 1.6c-.8-.1-1.3-.5-1.6-.9-.5.5-1.3.8-2.3.8zm.2-3.6c-.5.1-.9.4-.9.9s.4 1 1.1 1c1 0 1.5-.7 1.5-1.5v-.6l-1.7.2zm7-8.2c.8 0 1.4.6 1.4 1.4 0 .8-.6 1.4-1.4 1.4-.8 0-1.4-.6-1.4-1.4.1-.8.7-1.4 1.4-1.4zm1.1 11.6h-2.2V222h2.2v8.4zm2-11.2h2.2v8.9c0 .4.2.5.6.5.3 0 .6 0 .8-.1l.2 1.8s-1 .1-1.8.1c-1.2 0-2-.6-2-1.8v-9.4zm-35.7 19.2h6.7v1.2h-5.3v3.7h4.9v1.2h-4.9v4h5.6v1.2h-7v-11.3zm9 3.2h1.3v.9c.5-.7 1.4-1.1 2.3-1.1 1.8 0 2.7 1.3 2.7 2.7v5.4h-1.3v-5c0-1.4-.7-1.9-1.6-1.9-1 0-2 .7-2 2.2v4.7h-1.3v-7.9zm10.9 6c0 .5.1 1 1 1 .2 0 .8 0 1-.1l.1 1.2s-.8.1-1.4.1c-1.3 0-2-.5-2-1.9v-5.1h-1.5v-1.2h1.5V239l1.3-.5v3.1h2.2v1.2h-2.2v4.8zm4.9-1.6c.1 1.5 1 2.6 2.5 2.6.9 0 1.5-.3 2.1-.8l.7.9c-.7.6-1.7 1-2.8 1-2.3 0-3.8-1.7-3.8-4.1 0-2.4 1.4-4.2 3.6-4.2 2.1 0 3.4 1.7 3.4 4.1v.4h-5.7zm0-1h4.2c0-1.2-.7-2.4-2-2.4s-2.1 1.1-2.2 2.4zm11.7-2.2h-.2c-1.3 0-2.6.5-2.6 2.7v4.1h-1.3v-8h1.3v1.3c.4-.9 1.4-1.4 2.4-1.4h.4v1.3zm7.2-1.2h1.6v1.2H321v6.8h-1.3v-6.8h-1.3v-1.2h1.3v-1.5c0-1.4.9-1.9 2.2-1.9.6 0 1.1.1 1.3.1l-.1 1.1c-.3 0-.9-.1-1.1-.1-.8 0-.9.5-.9 1v1.3zm9.7 8h-1.3v-.9c-.5.7-1.4 1.1-2.3 1.1-1.8 0-2.7-1.3-2.7-2.7v-5.4h1.3v5c0 1.4.7 1.9 1.6 1.9 1.1 0 2-.7 2-2.2v-4.7h1.3v7.9zm2.5-11.2h1.3v9.4c0 .5.2.8.8.8h.8l.1 1.1s-.8.1-1.3.1c-.9 0-1.7-.4-1.7-1.6v-9.8zm4.4 0h1.3v9.4c0 .5.2.8.8.8h.8l.1 1.1s-.8.1-1.3.1c-.9 0-1.7-.4-1.7-1.6v-9.8zm15.1 7.2c0 2.4-1.5 4.1-3.7 4.1s-3.7-1.7-3.7-4.1c0-2.4 1.5-4.2 3.7-4.2 2.2.1 3.7 1.8 3.7 4.2zm-1.4.1c0-1.7-.8-3.1-2.3-3.1-1.5 0-2.3 1.4-2.3 3v.1c0 1.6.8 2.9 2.3 2.9 1.5 0 2.3-1.4 2.3-2.9zm7.5-2.9h-.2c-1.3 0-2.6.5-2.6 2.7v4.1h-1.3v-8h1.3v1.3c.4-.9 1.4-1.4 2.4-1.4h.4v1.3zm6.9-1.2v.9c.5-.7 1.3-1.1 2.3-1.1 2.1 0 3.4 1.7 3.4 4.2 0 2.4-1.3 4.1-3.4 4.1-1 0-1.9-.4-2.3-1.1v3.3h-1.3v-10.4h1.3zm4.3 4c0-1.7-.8-2.9-2.3-2.9-1.4 0-2.1 1-2.1 2.3v1.3c0 1.3.7 2.3 2.1 2.3 1.5 0 2.3-1.3 2.3-3zm5.7 4.2c-1.6 0-2.8-.9-2.8-2.4 0-1.2.8-2.1 2.1-2.3l2.8-.4v-.5c0-1.2-.8-1.6-1.8-1.6-.9 0-1.7.3-2.3.6l-.5-1c.9-.5 2-.7 2.9-.7 1.9 0 3 .9 3 2.5v3.7c0 .5.2.9.7 1.1l-.7.9c-.5-.1-.9-.5-1.1-1-.5.6-1.2 1.1-2.3 1.1zm0-3.8c-.9.1-1.5.4-1.5 1.2 0 .9.8 1.4 1.6 1.4 1 0 2-.6 2-1.6v-1.4l-2.1.4zm10.1-3.2h-.2c-1.3 0-2.6.5-2.6 2.7v4.1h-1.3v-8h1.3v1.3c.4-.9 1.4-1.4 2.4-1.4h.4v1.3zm3.7 4.8c0 .5.1 1 1 1 .2 0 .8 0 1-.1l.1 1.2s-.8.1-1.4.1c-1.3 0-2-.5-2-1.9v-5.1h-1.5v-1.2h1.5V239l1.3-.5v3.1h2.2v1.2h-2.2v4.8zm4.7-9.2c.5 0 1 .4 1 1 0 .5-.4 1-1 1-.5 0-1-.4-1-1s.5-1 1-1zm.6 11.2h-1.3v-8h1.3v8zm4.8.2c-1.6 0-2.8-.9-2.8-2.4 0-1.2.8-2.1 2.1-2.3l2.8-.4v-.5c0-1.2-.8-1.6-1.8-1.6-.9 0-1.7.3-2.3.6l-.5-1c.9-.5 2-.7 2.9-.7 1.9 0 3 .9 3 2.5v3.7c0 .5.2.9.7 1.1l-.7.9c-.5-.1-.9-.5-1.1-1-.4.6-1.2 1.1-2.3 1.1zm0-3.8c-.9.1-1.5.4-1.5 1.2 0 .9.8 1.4 1.6 1.4 1 0 2-.6 2-1.6v-1.4l-2.1.4zm6-7.6h1.3v9.4c0 .5.2.8.8.8h.8l.1 1.1s-.8.1-1.3.1c-.9 0-1.7-.4-1.7-1.6v-9.8zm13.4 10.3c-.5.7-1.3 1.1-2.3 1.1-2.1 0-3.4-1.7-3.4-4.1 0-2.4 1.3-4.2 3.4-4.2 1 0 1.9.4 2.3 1.1v-4.1h1.3v11.2H419v-1zm-4.3-3.1c0 1.7.8 2.9 2.3 2.9 1.4 0 2.1-1 2.1-2.3V245c0-1.3-.7-2.3-2.1-2.3-1.5-.1-2.3 1.2-2.3 2.9zm9.1.4c.1 1.5 1 2.6 2.5 2.6.9 0 1.5-.3 2.1-.8l.7.9c-.7.6-1.7 1-2.8 1-2.3 0-3.8-1.7-3.8-4.1 0-2.4 1.4-4.2 3.6-4.2 2.1 0 3.4 1.7 3.4 4.1v.4h-5.7zm0-1h4.2c0-1.2-.7-2.4-2-2.4s-2.1 1.1-2.2 2.4zm9.6 2.6c0 .5.1 1 1 1 .2 0 .8 0 1-.1l.1 1.2s-.8.1-1.4.1c-1.3 0-2-.5-2-1.9v-5.1h-1.5v-1.2h1.5V239l1.3-.5v3.1h2.2v1.2h-2.2v4.8zm6.2 2.2c-1.6 0-2.8-.9-2.8-2.4 0-1.2.8-2.1 2.1-2.3l2.8-.4v-.5c0-1.2-.8-1.6-1.8-1.6-.9 0-1.7.3-2.3.6l-.5-1c.9-.5 2-.7 2.9-.7 1.9 0 3 .9 3 2.5v3.7c0 .5.2.9.7 1.1l-.7.9c-.5-.1-.9-.5-1.1-1-.4.6-1.2 1.1-2.3 1.1zm0-3.8c-.9.1-1.5.4-1.5 1.2 0 .9.8 1.4 1.6 1.4 1 0 2-.6 2-1.6v-1.4l-2.1.4zm6.7-7.6c.5 0 1 .4 1 1 0 .5-.4 1-1 1-.5 0-1-.4-1-1s.5-1 1-1zm.6 11.2h-1.3v-8h1.3v8zm2.6-11.2h1.3v9.4c0 .5.2.8.8.8h.8l.1 1.1s-.8.1-1.3.1c-.9 0-1.7-.4-1.7-1.6v-9.8zm3.7 10.2l.8-.9c.5.4 1.3 1 2.4 1 .9 0 1.6-.4 1.6-1.2 0-.9-.9-1.1-2-1.3-1.1-.3-2.5-.7-2.5-2.3 0-1.3 1.2-2.3 2.9-2.3 1.1 0 2.2.4 2.8 1l-.8.9c-.5-.4-1.2-.8-2-.8-1.1 0-1.6.5-1.6 1.2 0 .6.4.9 1.2 1.1.4.1.9.3 1.3.4 1.1.3 2 .9 2 2.2 0 1.6-1.5 2.4-3 2.4-1-.2-2.2-.6-3.1-1.4zM489.6 219.2h4.5c2.3 0 3.8 1.6 3.8 3.7s-1.6 3.7-3.9 3.7h-2v3.8h-2.3v-11.2zm3.9 2h-1.6v3.3h1.6c1.2 0 2-.6 2-1.6v-.1c0-1-.7-1.6-2-1.6zm8 9.4c-1.5 0-2.9-1-2.9-2.6 0-1.3.9-2.2 2.4-2.4l2.5-.4v-.3c0-.7-.5-1.1-1.3-1.1-1 0-1.8.4-2.5.7l-.8-1.7c1-.5 2.2-.9 3.4-.9 1.5 0 3.4.4 3.4 2.7v3.6c0 .5.3.7.7.9l-1 1.6c-.8-.1-1.3-.5-1.6-.9-.5.5-1.3.8-2.3.8zm.3-3.6c-.5.1-.9.4-.9.9s.4 1 1.1 1c1 0 1.5-.7 1.5-1.5v-.6l-1.7.2zm7.6 3.7l.1-.3h-.2l-2.6-8.4h2.4l1.5 5.8 1.5-5.8h2.4l-2.9 9.6c-.4 1.2-1.3 1.6-2.6 1.6-.5 0-1.4-.1-2-.2l.4-1.9s.6.1 1.2.1c.5.1.7-.1.8-.5zm13.4-.3h-2.2v-4.9c0-1.2-.6-1.6-1.3-1.6-.8 0-1.5.6-1.5 1.9v4.6h-2.2V222h2.2v.7c.5-.6 1.3-.9 2.1-.9.9 0 1.7.3 2.2 1.1.6-.8 1.5-1.1 2.5-1.1 1.9 0 3 1.3 3 2.8v5.7h-2.2v-4.9c0-1.2-.6-1.6-1.3-1.6-.8 0-1.5.6-1.5 1.9v4.7zm8.7-3.4c.2 1.1 1 1.6 2 1.6.8 0 1.6-.3 2.1-.8l1.1 1.6c-.7.6-1.9 1.1-3.2 1.1-2.3 0-4.2-1.6-4.2-4.3v-.1c0-2.5 1.7-4.3 4-4.3 2.2 0 3.8 1.7 3.8 4.1v1h-5.6zm0-1.7h3.4c0-.7-.5-1.6-1.6-1.6-1.2 0-1.8.9-1.8 1.6zm7.1-3.3h2.2v.7c.5-.5 1.1-.9 2.1-.9 1.8 0 2.9 1.3 2.9 2.9v5.7h-2.2v-4.9c0-1.2-.6-1.6-1.3-1.6-.9 0-1.6.6-1.6 1.9v4.6h-2.2V222zm12.3 5.9c0 .4.2.7.9.7.3 0 .8 0 1.1-.1l.2 1.9s-1.1.1-2 .1c-1.5 0-2.4-.7-2.4-2.1V224h-1.5v-2h1.5v-2.4l2.2-.6v2.9h2.2v1.9h-2.2v4.1zm8.2-.2c.6.6 1.6 1 2.4 1 .7 0 1.2-.2 1.2-.7 0-.4-.3-.6-1-.7-.5-.1-1.4-.3-2.1-.6-.8-.4-1.5-1-1.5-2.2 0-1.8 1.6-2.7 3.4-2.7 1.4 0 2.6.5 3.3 1.2l-1.4 1.4c-.4-.4-1.1-.8-1.9-.8-.6 0-1.2.2-1.2.7 0 .4.4.5 1 .7 1 .3 1.8.4 2.4.8.7.4 1.2 1.1 1.2 2 0 1.8-1.5 2.7-3.4 2.7-1.4 0-2.9-.5-3.8-1.3l1.4-1.5zm10.6.2c0 .4.2.7.9.7.3 0 .8 0 1.1-.1l.2 1.9s-1.1.1-2 .1c-1.5 0-2.4-.7-2.4-2.1V224H566v-2h1.5v-2.4l2.2-.6v2.9h2.2v1.9h-2.2v4.1zm6.1 2.7c-1.5 0-2.9-1-2.9-2.6 0-1.3.9-2.2 2.4-2.4l2.5-.4v-.3c0-.7-.5-1.1-1.3-1.1-1 0-1.8.4-2.5.7l-.8-1.7c1-.5 2.2-.9 3.4-.9 1.5 0 3.4.4 3.4 2.7v3.6c0 .5.3.7.7.9l-1 1.6c-.8-.1-1.3-.5-1.6-.9-.5.5-1.3.8-2.3.8zm.3-3.6c-.5.1-.9.4-.9.9s.4 1 1.1 1c1 0 1.5-.7 1.5-1.5v-.6l-1.7.2zm8.9.9c0 .4.2.7.9.7.3 0 .8 0 1.1-.1l.2 1.9s-1.1.1-2 .1c-1.5 0-2.4-.7-2.4-2.1V224h-1.5v-2h1.5v-2.4l2.2-.6v2.9h2.2v1.9H585v4.1zm10.8 2.5h-2.2v-.7c-.5.5-1.1.9-2.1.9-1.8 0-2.9-1.3-2.9-2.9V222h2.2v4.9c0 1.2.6 1.6 1.3 1.6.9 0 1.6-.6 1.6-1.9V222h2.2v8.4zm2.7-2.7c.6.6 1.6 1 2.4 1 .7 0 1.2-.2 1.2-.7 0-.4-.3-.6-1-.7-.5-.1-1.4-.3-2.1-.6-.8-.4-1.5-1-1.5-2.2 0-1.8 1.6-2.7 3.4-2.7 1.4 0 2.6.5 3.3 1.2l-1.4 1.4c-.4-.4-1.1-.8-1.9-.8-.6 0-1.2.2-1.2.7 0 .4.4.5 1 .7 1 .3 1.8.4 2.4.8.7.4 1.2 1.1 1.2 2 0 1.8-1.5 2.7-3.4 2.7-1.4 0-2.9-.5-3.8-1.3l1.4-1.5zm-108.3 19.4c.7.9 1.9 1.5 3.2 1.5 1.4 0 2.5-.7 2.5-2 0-.8-.4-1.3-1.1-1.6-1.1-.5-2.9-.6-4.1-1.3-.7-.4-1.3-1.1-1.3-2.3 0-1.7 1.4-3.1 3.8-3.1 1.4 0 2.8.6 3.7 1.5l-1 .8c-.6-.6-1.5-1.2-2.7-1.2-1.4 0-2.4.7-2.4 1.9 0 1.8 2.6 1.6 4.6 2.5 1 .4 1.9 1.2 1.9 2.7 0 2.2-2 3.3-4.1 3.3-1.9 0-3.2-.8-4.1-1.7l1.1-1zm10.1-1.1c.1 1.5 1 2.6 2.5 2.6.9 0 1.5-.3 2.1-.8l.7.9c-.7.6-1.7 1-2.8 1-2.3 0-3.8-1.7-3.8-4.1 0-2.4 1.4-4.2 3.6-4.2 2.1 0 3.4 1.7 3.4 4.1v.4h-5.7zm.1-1h4.2c0-1.2-.7-2.4-2-2.4s-2.2 1.1-2.2 2.4zm7.5-6.6h1.3v9.4c0 .5.2.8.8.8h.8l.1 1.1s-.8.1-1.3.1c-.9 0-1.7-.4-1.7-1.6v-9.8zm5.4 7.6c.1 1.5 1 2.6 2.5 2.6.9 0 1.5-.3 2.1-.8l.7.9c-.7.6-1.7 1-2.8 1-2.3 0-3.8-1.7-3.8-4.1 0-2.4 1.4-4.2 3.6-4.2 2.1 0 3.4 1.7 3.4 4.1v.4h-5.7zm0-1h4.2c0-1.2-.7-2.4-2-2.4s-2.2 1.1-2.2 2.4zm8.5.6c0 1.6.8 3 2.3 3 1 0 1.7-.6 2.1-1.3l1.1.6c-.5 1.1-1.7 1.9-3.2 1.9-2.2 0-3.7-1.7-3.7-4.1 0-2.4 1.5-4.2 3.7-4.2 1.4 0 2.6.7 3.2 1.9l-1.1.6c-.4-.8-1.1-1.3-2.1-1.3-1.5-.1-2.3 1.3-2.3 2.9zm9.5 2c0 .5.1 1 1 1 .2 0 .8 0 1-.1l.1 1.2s-.8.1-1.4.1c-1.3 0-2-.5-2-1.9v-5.1h-1.5v-1.2h1.5V239l1.3-.5v3.1h2.2v1.2h-2.2v4.8zm10.4 2.2c-1.6 0-2.8-.9-2.8-2.4 0-1.2.8-2.1 2.1-2.3l2.8-.4v-.5c0-1.2-.8-1.6-1.8-1.6-.9 0-1.7.3-2.3.6l-.5-1c.9-.5 2-.7 2.9-.7 1.9 0 3 .9 3 2.5v3.7c0 .5.2.9.7 1.1l-.7.9c-.5-.1-.9-.5-1.1-1-.4.6-1.2 1.1-2.3 1.1zm0-3.8c-.9.1-1.5.4-1.5 1.2 0 .9.8 1.4 1.6 1.4 1 0 2-.6 2-1.6v-1.4l-2.1.4zm6-4.4h1.3v.9c.5-.7 1.4-1.1 2.3-1.1 1.8 0 2.7 1.3 2.7 2.7v5.4h-1.3v-5c0-1.4-.7-1.9-1.6-1.9-1 0-2 .7-2 2.2v4.7h-1.3v-7.9zm19.9 4c0 2.4-1.5 4.1-3.7 4.1s-3.7-1.7-3.7-4.1c0-2.4 1.5-4.2 3.7-4.2 2.2.1 3.7 1.8 3.7 4.2zm-1.4.1c0-1.7-.8-3.1-2.3-3.1s-2.3 1.4-2.3 3v.1c0 1.6.8 2.9 2.3 2.9s2.3-1.4 2.3-2.9zm4.8-4.1v.9c.5-.7 1.3-1.1 2.3-1.1 2.1 0 3.4 1.7 3.4 4.2 0 2.4-1.3 4.1-3.4 4.1-1 0-1.9-.4-2.3-1.1v3.3h-1.3v-10.4h1.3zm4.4 4c0-1.7-.8-2.9-2.3-2.9-1.4 0-2.1 1-2.1 2.3v1.3c0 1.3.7 2.3 2.1 2.3 1.5 0 2.3-1.3 2.3-3zm5.4 2c0 .5.1 1 1 1 .2 0 .8 0 1-.1l.1 1.2s-.8.1-1.4.1c-1.3 0-2-.5-2-1.9v-5.1H578v-1.2h1.5V239l1.3-.5v3.1h2.2v1.2h-2.2v4.8zm4.6-9.2c.5 0 1 .4 1 1 0 .5-.4 1-1 1-.5 0-1-.4-1-1 .1-.6.5-1 1-1zm.7 11.2h-1.3v-8h1.3v8zm9.4-4c0 2.4-1.5 4.1-3.7 4.1s-3.7-1.7-3.7-4.1c0-2.4 1.5-4.2 3.7-4.2s3.7 1.8 3.7 4.2zm-1.3.1c0-1.7-.8-3.1-2.3-3.1s-2.3 1.4-2.3 3v.1c0 1.6.8 2.9 2.3 2.9s2.3-1.4 2.3-2.9zm3.4-4.1h1.3v.9c.5-.7 1.4-1.1 2.3-1.1 1.8 0 2.7 1.3 2.7 2.7v5.4h-1.3v-5c0-1.4-.7-1.9-1.6-1.9-1 0-2 .7-2 2.2v4.7h-1.3v-7.9zM699.9 224.8c0-3.2 2-5.8 5.2-5.8 2.3 0 4 1.2 4.6 3.2l-2.2.7c-.2-.8-1.1-1.9-2.5-1.9-2 0-2.9 1.8-2.9 3.6v.1c0 1.8.9 3.7 2.9 3.7 1.4 0 2.2-1 2.5-1.9l2.2.7c-.7 1.9-2.3 3.2-4.7 3.2-3.1.2-5.1-2.4-5.1-5.6zm13.8 5.8c-1.5 0-2.9-1-2.9-2.6 0-1.3.9-2.2 2.4-2.4l2.5-.4v-.3c0-.7-.5-1.1-1.3-1.1-1 0-1.8.4-2.5.7l-.8-1.7c1-.5 2.2-.9 3.4-.9 1.5 0 3.4.4 3.4 2.7v3.6c0 .5.3.7.7.9l-1 1.6c-.8-.1-1.3-.5-1.6-.9-.4.5-1.3.8-2.3.8zm.3-3.6c-.5.1-.9.4-.9.9s.4 1 1.1 1c1 0 1.5-.7 1.5-1.5v-.6l-1.7.2zm10.8-2.9h-.4c-1.2 0-2.3.4-2.3 2.2v4.1h-2.2V222h2.2v.9c.4-.6 1.1-1.1 2.2-1.1h.5v2.3zm.8 2.1c0-2.5 1.5-4.3 3.7-4.3 1 0 1.6.4 2.1.9v-3.6h2.2v11.2h-2.2v-.7c-.5.5-1.1.9-2.1.9-2.2 0-3.7-1.9-3.7-4.4zm5.9-.8c0-.9-.7-1.6-1.7-1.6-1.2 0-1.9 1-1.9 2.3v.1c0 1.3.7 2.3 1.9 2.3 1.1 0 1.7-.7 1.7-1.6v-1.5zm10.7 2.5c0 .4.2.7.9.7.3 0 .8 0 1.1-.1l.2 1.9s-1.1.1-2 .1c-1.5 0-2.4-.7-2.4-2.1V224h-1.5v-2h1.5v-2.4l2.2-.6v2.9h2.2v1.9h-2.2v4.1zm5.5 2.8l.1-.3h-.2L745 222h2.4l1.5 5.8 1.5-5.8h2.4l-2.9 9.6c-.4 1.2-1.3 1.6-2.6 1.6-.5 0-1.4-.1-2-.2l.4-1.9s.6.1 1.2.1c.6.1.7-.1.8-.5zm8.5-8.7v.7c.5-.5 1.1-.9 2.1-.9 2.2 0 3.7 1.8 3.7 4.3v.1c0 2.5-1.5 4.3-3.7 4.3-1 0-1.6-.4-2.1-.9v3.4H754v-11h2.2zm-.1 5c0 .9.7 1.6 1.7 1.6 1.2 0 1.9-1 1.9-2.3v-.1c0-1.3-.7-2.3-1.9-2.3-1.1 0-1.7.7-1.7 1.6v1.5zm9.3 0c.2 1.1 1 1.6 2 1.6.8 0 1.6-.3 2.1-.8l1.1 1.6c-.7.6-1.9 1.1-3.2 1.1-2.3 0-4.2-1.6-4.2-4.3v-.1c0-2.5 1.7-4.3 4-4.3 2.2 0 3.8 1.7 3.8 4.1v1h-5.6zm0-1.7h3.4c0-.7-.5-1.6-1.6-1.6-1.2 0-1.7.9-1.8 1.6zM701 247.1c.7.9 1.9 1.5 3.2 1.5 1.4 0 2.5-.7 2.5-2 0-.8-.4-1.3-1.1-1.6-1.1-.5-2.9-.6-4.1-1.3-.7-.4-1.3-1.1-1.3-2.3 0-1.7 1.4-3.1 3.8-3.1 1.4 0 2.8.6 3.7 1.5l-1 .8c-.6-.6-1.5-1.2-2.7-1.2-1.4 0-2.4.7-2.4 1.9 0 1.8 2.6 1.6 4.6 2.5 1 .4 1.9 1.2 1.9 2.7 0 2.2-2 3.3-4.1 3.3-1.9 0-3.2-.8-4.1-1.7l1.1-1zm10.1-1.1c.1 1.5 1 2.6 2.5 2.6.9 0 1.5-.3 2.1-.8l.7.9c-.7.6-1.7 1-2.8 1-2.3 0-3.8-1.7-3.8-4.1 0-2.4 1.4-4.2 3.6-4.2 2.1 0 3.4 1.7 3.4 4.1v.4h-5.7zm.1-1h4.2c0-1.2-.7-2.4-2-2.4s-2.2 1.1-2.2 2.4zm7.6-6.6h1.3v9.4c0 .5.2.8.8.8h.8l.1 1.1s-.8.1-1.3.1c-.9 0-1.7-.4-1.7-1.6v-9.8zm5.3 7.6c.1 1.5 1 2.6 2.5 2.6.9 0 1.5-.3 2.1-.8l.7.9c-.7.6-1.7 1-2.8 1-2.3 0-3.8-1.7-3.8-4.1 0-2.4 1.4-4.2 3.6-4.2 2.1 0 3.4 1.7 3.4 4.1v.4h-5.7zm0-1h4.2c0-1.2-.7-2.4-2-2.4s-2.1 1.1-2.2 2.4zm8.5.6c0 1.6.8 3 2.3 3 1 0 1.7-.6 2.1-1.3l1.1.6c-.5 1.1-1.7 1.9-3.2 1.9-2.2 0-3.7-1.7-3.7-4.1 0-2.4 1.5-4.2 3.7-4.2 1.4 0 2.6.7 3.2 1.9l-1.1.6c-.4-.8-1.1-1.3-2.1-1.3-1.5-.1-2.3 1.3-2.3 2.9zm9.5 2c0 .5.1 1 1 1 .2 0 .8 0 1-.1l.1 1.2s-.8.1-1.4.1c-1.3 0-2-.5-2-1.9v-5.1h-1.5v-1.2h1.5V239l1.3-.5v3.1h2.2v1.2h-2.2v4.8zm10.4 2.2c-1.6 0-2.8-.9-2.8-2.4 0-1.2.8-2.1 2.1-2.3l2.8-.4v-.5c0-1.2-.8-1.6-1.8-1.6-.9 0-1.7.3-2.3.6l-.5-1c.9-.5 2-.7 2.9-.7 1.9 0 3 .9 3 2.5v3.7c0 .5.2.9.7 1.1l-.7.9c-.5-.1-.9-.5-1.1-1-.4.6-1.2 1.1-2.3 1.1zm0-3.8c-.9.1-1.5.4-1.5 1.2 0 .9.8 1.4 1.6 1.4 1 0 2-.6 2-1.6v-1.4l-2.1.4zm6-4.4h1.3v.9c.5-.7 1.4-1.1 2.3-1.1 1.8 0 2.7 1.3 2.7 2.7v5.4h-1.3v-5c0-1.4-.7-1.9-1.6-1.9-1 0-2 .7-2 2.2v4.7h-1.3v-7.9zm19.9 4c0 2.4-1.5 4.1-3.7 4.1s-3.7-1.7-3.7-4.1c0-2.4 1.5-4.2 3.7-4.2 2.2.1 3.7 1.8 3.7 4.2zm-1.3.1c0-1.7-.8-3.1-2.3-3.1-1.5 0-2.3 1.4-2.3 3v.1c0 1.6.8 2.9 2.3 2.9 1.5 0 2.3-1.4 2.3-2.9zm4.7-4.1v.9c.5-.7 1.3-1.1 2.3-1.1 2.1 0 3.4 1.7 3.4 4.2 0 2.4-1.3 4.1-3.4 4.1-1 0-1.9-.4-2.3-1.1v3.3h-1.3v-10.4h1.3zm4.4 4c0-1.7-.8-2.9-2.3-2.9-1.4 0-2.1 1-2.1 2.3v1.3c0 1.3.7 2.3 2.1 2.3 1.5 0 2.3-1.3 2.3-3zm5.4 2c0 .5.1 1 1 1 .2 0 .8 0 1-.1l.1 1.2s-.8.1-1.4.1c-1.3 0-2-.5-2-1.9v-5.1h-1.5v-1.2h1.5V239l1.3-.5v3.1h2.2v1.2h-2.2v4.8zm4.7-9.2c.5 0 1 .4 1 1 0 .5-.4 1-1 1-.5 0-1-.4-1-1s.4-1 1-1zm.6 11.2h-1.3v-8h1.3v8zm9.4-4c0 2.4-1.5 4.1-3.7 4.1s-3.7-1.7-3.7-4.1c0-2.4 1.5-4.2 3.7-4.2s3.7 1.8 3.7 4.2zm-1.3.1c0-1.7-.8-3.1-2.3-3.1s-2.3 1.4-2.3 3v.1c0 1.6.8 2.9 2.3 2.9s2.3-1.4 2.3-2.9zm3.4-4.1h1.3v.9c.5-.7 1.4-1.1 2.3-1.1 1.8 0 2.7 1.3 2.7 2.7v5.4h-1.3v-5c0-1.4-.7-1.9-1.6-1.9-1 0-2 .7-2 2.2v4.7h-1.3v-7.9z"/><path class="st4" d="M64.8 260h194.4v36.2H64.8z"/><path class="st5" d="M258.1 261v34.2H65.8V261h192.3m2-2H63.8v38.2h196.4V259h-.1z"/><path class="st4" d="M275.1 260h194.4v36.2H275.1z"/><path class="st5" d="M468.5 261v34.2H276.1V261h192.4m2-2H274.1v38.2h196.4V259zM69.3 339.2H65V328h4.3c3.6 0 5.3 2.2 5.3 5.6s-1.7 5.6-5.3 5.6zm2.9-5.9c0-1.9-.9-3.3-3.2-3.3h-1.7v7.1H69c2.3 0 3.2-1.5 3.2-3.3v-.5zm6.4 6c-1.5 0-2.9-1-2.9-2.6 0-1.3.9-2.2 2.4-2.4l2.5-.4v-.3c0-.7-.5-1.1-1.3-1.1-1 0-1.8.4-2.5.7l-.8-1.7c1-.5 2.2-.9 3.4-.9 1.5 0 3.4.4 3.4 2.7v3.6c0 .5.3.7.7.9l-1 1.6c-.8-.1-1.3-.5-1.6-.9-.5.5-1.3.8-2.3.8zm.3-3.5c-.5.1-.9.4-.9.9s.4 1 1.1 1c1 0 1.5-.7 1.5-1.5v-.6l-1.7.2zm8.9.9c0 .4.2.7.9.7.3 0 .8 0 1.1-.1l.2 1.9s-1.1.1-2 .1c-1.5 0-2.4-.7-2.4-2.1v-4.5h-1.5v-1.9h1.5v-2.4l2.2-.6v2.9H90v1.9h-2.2v4.1zm5.5-1c.2 1.1 1 1.6 2 1.6.8 0 1.6-.3 2.1-.8l1.1 1.6c-.7.6-1.9 1.1-3.2 1.1-2.3 0-4.2-1.6-4.2-4.3v-.1c0-2.5 1.7-4.3 4-4.3 2.2 0 3.8 1.7 3.8 4.1v1h-5.6zm0-1.6h3.4c0-.7-.5-1.6-1.6-1.6-1.2 0-1.7.8-1.8 1.6zm15.7-1.2h-.4c-1.2 0-2.3.4-2.3 2.2v4.1h-2.2v-8.4h2.2v.9c.4-.6 1.1-1.1 2.2-1.1h.5v2.3zm3.7 6.4c-1.5 0-2.9-1-2.9-2.6 0-1.3.9-2.2 2.4-2.4l2.5-.4v-.3c0-.7-.5-1.1-1.3-1.1-1 0-1.8.4-2.5.7l-.8-1.7c1-.5 2.2-.9 3.4-.9 1.5 0 3.4.4 3.4 2.7v3.6c0 .5.3.7.7.9l-1 1.6c-.8-.1-1.3-.5-1.6-.9-.5.5-1.3.8-2.3.8zm.3-3.5c-.5.1-.9.4-.9.9s.4 1 1.1 1c1 0 1.5-.7 1.5-1.5v-.6l-1.7.2zm5.9-5h2.2v.7c.5-.5 1.1-.9 2.1-.9 1.8 0 2.9 1.3 2.9 2.9v5.7h-2.2v-4.9c0-1.2-.6-1.6-1.3-1.6-.9 0-1.6.6-1.6 1.9v4.6h-2.2v-8.4zm12.3-.2c.8 0 1.6.3 1.9.8v-.6h2.2v8.3c0 2.1-1.7 2.9-3.7 2.9-1.2 0-2.7-.2-3.6-.8l.6-1.9c.6.3 1.7.6 2.7.6.9 0 1.8-.3 1.8-1.3v-1c-.4.5-1.1.8-2 .8-1.9 0-3.4-1.6-3.4-3.8-.1-2.2 1.2-4 3.5-4zm-1.4 3.9c0 1.1.5 2 1.6 2 1.2 0 1.6-.8 1.6-2 0-1.1-.4-2-1.6-2-1.1 0-1.6.9-1.6 2zm9.3 1.2c.2 1.1 1 1.6 2 1.6.8 0 1.6-.3 2.1-.8l1.1 1.6c-.7.6-1.9 1.1-3.2 1.1-2.3 0-4.2-1.6-4.2-4.3v-.1c0-2.5 1.7-4.3 4-4.3 2.2 0 3.8 1.7 3.8 4.1v1h-5.6zm0-1.6h3.4c0-.7-.5-1.6-1.6-1.6-1.2 0-1.7.8-1.8 1.6zm-70 24.3h-3.7v-11.2h3.7c3.5 0 5 2.2 5 5.6s-1.5 5.6-5 5.6zm3.5-5.9c0-2.3-1.1-4.2-3.6-4.2h-2.3v8.8H69c2.5 0 3.6-1.9 3.6-4.2v-.4zm5.9 6c-1.6 0-2.8-.9-2.8-2.4 0-1.2.8-2.1 2.1-2.3l2.8-.4v-.5c0-1.2-.8-1.6-1.8-1.6-.9 0-1.7.3-2.3.6l-.5-1c.9-.5 2-.7 2.9-.7 1.9 0 3 .9 3 2.5v3.7c0 .5.2.9.7 1.1l-.7.9c-.5-.1-.9-.5-1.1-1-.4.7-1.2 1.1-2.3 1.1zm0-3.7c-.9.1-1.5.4-1.5 1.2 0 .9.8 1.4 1.6 1.4 1 0 2-.6 2-1.6v-1.4l-2.1.4zm8.1 1.6c0 .5.1 1 1 1 .2 0 .8 0 1-.1l.1 1.2s-.8.1-1.4.1c-1.3 0-2-.5-2-1.9v-5.1h-1.5v-1.2h1.5v-2.6l1.3-.5v3.1h2.2v1.2h-2.2v4.8zm4.9-1.6c.1 1.5 1 2.6 2.5 2.6.9 0 1.5-.3 2.1-.8l.7.9c-.7.6-1.7 1-2.8 1-2.3 0-3.8-1.7-3.8-4.1 0-2.4 1.4-4.2 3.6-4.2 2.1 0 3.4 1.7 3.4 4.1v.4h-5.7zm0-1.1h4.2c0-1.2-.7-2.4-2-2.4-1.3.1-2.1 1.2-2.2 2.4zM191 347.2h7.7v1.2h-3.2v10h-1.4v-10H191v-1.2zm10.1 0c.5 0 1 .4 1 1 0 .5-.4 1-1 1-.5 0-1-.4-1-1s.4-1 1-1zm.6 11.2h-1.3v-8h1.3v8zm8.5 0h-1.3v-5c0-1.4-.7-1.9-1.6-1.9-.9 0-1.8.7-1.8 2.2v4.7h-1.3v-8h1.3v.9c.5-.7 1.2-1.1 2.1-1.1.7 0 1.7.4 2.2 1.3.6-1 1.5-1.3 2.4-1.3 1.7 0 2.7 1.3 2.7 2.7v5.5h-1.3v-5c0-1.4-.8-1.9-1.6-1.9-.9 0-1.8.7-1.8 2.2v4.7zm8.1-3.6c.1 1.5 1 2.6 2.5 2.6.9 0 1.5-.3 2.1-.8l.7.9c-.7.6-1.7 1-2.8 1-2.3 0-3.8-1.7-3.8-4.1 0-2.4 1.4-4.2 3.6-4.2 2.1 0 3.4 1.7 3.4 4.1v.4h-5.7zm.1-1.1h4.2c0-1.2-.7-2.4-2-2.4-1.3.1-2.2 1.2-2.2 2.4zM484.6 347.2h7.7v1.2h-3.2v10h-1.4v-10h-3.2v-1.2zm10 0c.5 0 1 .4 1 1 0 .5-.4 1-1 1-.5 0-1-.4-1-1s.5-1 1-1zm.6 11.2h-1.3v-8h1.3v8zm8.6 0h-1.3v-5c0-1.4-.7-1.9-1.6-1.9-.9 0-1.8.7-1.8 2.2v4.7h-1.3v-8h1.3v.9c.5-.7 1.2-1.1 2.1-1.1.7 0 1.7.4 2.2 1.3.6-1 1.5-1.3 2.4-1.3 1.7 0 2.7 1.3 2.7 2.7v5.5h-1.3v-5c0-1.4-.8-1.9-1.6-1.9-.9 0-1.8.7-1.8 2.2v4.7zm8.1-3.6c.1 1.5 1 2.6 2.5 2.6.9 0 1.5-.3 2.1-.8l.7.9c-.7.6-1.7 1-2.8 1-2.3 0-3.8-1.7-3.8-4.1 0-2.4 1.4-4.2 3.6-4.2 2.1 0 3.4 1.7 3.4 4.1v.4h-5.7zm0-1.1h4.2c0-1.2-.7-2.4-2-2.4-1.3.1-2.1 1.2-2.2 2.4z"/><path class="st4" d="M65.2 368.7h117v36.2h-117z"/><path class="st5" d="M181.2 369.7v34.2h-115v-34.2h115m2-2h-119v38.2h119v-38.2z"/><path class="st4" d="M191.6 368.7h117v36.2h-117z"/><path class="st5" d="M307.6 369.7v34.2h-115v-34.2h115m2-2h-119v38.2h119v-38.2z"/><path class="st4" d="M491.3 296.2c-2.7 0-5-2.2-5-5V265c0-2.8 2.2-5 5-5h184.4c2.7 0 5 2.2 5 5v26.2c0 2.8-2.2 5-5 5H491.3z"/><path class="st5" d="M675.7 261c2.2 0 4 1.8 4 4v26.2c0 2.2-1.8 4-4 4H491.3c-2.2 0-4-1.8-4-4V265c0-2.2 1.8-4 4-4h184.4m0-2H491.3c-3.3 0-6 2.7-6 6v26.2c0 3.3 2.7 6 6 6h184.4c3.3 0 6-2.7 6-6V265c0-3.3-2.7-6-6-6z"/><path class="st4" d="M700.6 296.2c-2.7 0-5-2.2-5-5V265c0-2.8 2.2-5 5-5H885c2.7 0 5 2.2 5 5v26.2c0 2.8-2.2 5-5 5H700.6z"/><path class="st5" d="M885 261c2.2 0 4 1.8 4 4v26.2c0 2.2-1.8 4-4 4H700.6c-2.2 0-4-1.8-4-4V265c0-2.2 1.8-4 4-4H885m0-2H700.6c-3.3 0-6 2.7-6 6v26.2c0 3.3 2.7 6 6 6H885c3.3 0 6-2.7 6-6V265c0-3.3-2.7-6-6-6zM192.8 419.4c.1 1.5 1 2.6 2.5 2.6.9 0 1.5-.3 2.1-.8l.7.9c-.7.6-1.7 1-2.8 1-2.3 0-3.8-1.7-3.8-4.1 0-2.4 1.4-4.2 3.6-4.2 2.1 0 3.4 1.7 3.4 4.1v.4h-5.7zm0-1.1h4.2c0-1.2-.7-2.4-2-2.4s-2.1 1.2-2.2 2.4zm10.4-3.5c.9 0 1.7.3 2.3 1.1v-.9h1.3v8.1c0 2-1.7 2.6-3.4 2.6-.9 0-2.1-.2-3-.6l.4-1.1c.6.3 1.6.6 2.5.6 1.3 0 2.1-.5 2.1-1.7v-1.5c-.5.8-1.4 1.1-2.3 1.1-2 0-3.2-1.6-3.2-3.7s1.3-4 3.3-4zm2.3 3.7c0-1.4-.6-2.5-2-2.5-1.5 0-2.1 1.1-2.1 2.5v.1c0 1.4.7 2.5 2.1 2.5 1.4 0 2-1.1 2-2.6zm15.7-1.5c0 3-1.2 6.1-4.4 6.1-1.6 0-2.7-.7-3.3-1.8l1.4-.4c.5.7 1.1 1.1 2 1.1 2.1 0 3-2.2 3-4.5-.5.8-1.4 1.6-3 1.6-2.1 0-3.6-1.6-3.6-3.6 0-2.2 1.6-3.8 3.9-3.8 2.4 0 4.2 1.8 4.2 5.2v.1zm-4.1-4.2c-1.4 0-2.5 1-2.5 2.6s1 2.6 2.5 2.6 2.5-1 2.5-2.5c0-1.7-1.1-2.7-2.5-2.7zm7.3 2.2c.6 0 1.1.5 1.1 1.1 0 .6-.5 1.1-1.1 1.1-.6 0-1.1-.5-1.1-1.1.1-.7.5-1.1 1.1-1.1zm0 6c.6 0 1.1.5 1.1 1.1 0 .6-.5 1.1-1.1 1.1-.6 0-1.1-.5-1.1-1.1.1-.7.5-1.1 1.1-1.1zm4.5-.9c.4 1.1 1.1 1.8 2.6 1.8 1.6 0 2.4-.9 2.4-2.1 0-1.2-.9-2-2.6-2h-.5v-1.2h.3c1.5 0 2.7-.5 2.7-1.9 0-1.3-1-1.9-2.2-1.9-1.2 0-2.1.7-2.5 1.7l-1.3-.5c.6-1.6 2.1-2.4 3.7-2.4 2 0 3.6 1.2 3.6 3 0 1.2-.7 2.3-2.1 2.6 1.6.3 2.3 1.4 2.3 2.7 0 2.2-1.8 3.2-3.9 3.2-1.8 0-3.3-.8-3.9-2.6l1.4-.4zm16.6-2.7c0 2.9-1.1 5.7-4.1 5.7-3 0-4.1-2.8-4.1-5.7 0-2.9 1.1-5.8 4.1-5.8 3.1 0 4.1 2.8 4.1 5.8zm-1.4.3v-.7c0-2.7-1-4.2-2.6-4.2s-2.6 1.5-2.6 4.2v.7c0 2.7 1 4.2 2.6 4.2 1.5 0 2.6-1.5 2.6-4.2zm4.6-2.7c.6 0 1.1.5 1.1 1.1 0 .6-.5 1.1-1.1 1.1-.6 0-1.1-.5-1.1-1.1.1-.7.5-1.1 1.1-1.1zm0 6c.6 0 1.1.5 1.1 1.1 0 .6-.5 1.1-1.1 1.1-.6 0-1.1-.5-1.1-1.1.1-.7.5-1.1 1.1-1.1zm11.4-3.6c0 2.9-1.1 5.7-4.1 5.7-3 0-4.1-2.8-4.1-5.7 0-2.9 1.1-5.8 4.1-5.8 3 0 4.1 2.8 4.1 5.8zm-1.5.3v-.7c0-2.7-1-4.2-2.6-4.2s-2.6 1.5-2.6 4.2v.7c0 2.7 1 4.2 2.6 4.2s2.6-1.5 2.6-4.2zm11.7-.3c0 2.9-1.1 5.7-4.1 5.7-3 0-4.1-2.8-4.1-5.7 0-2.9 1.1-5.8 4.1-5.8 3 0 4.1 2.8 4.1 5.8zm-1.5.3v-.7c0-2.7-1-4.2-2.6-4.2s-2.6 1.5-2.6 4.2v.7c0 2.7 1 4.2 2.6 4.2s2.6-1.5 2.6-4.2zM330 389.7c0 .5.1 1 1 1 .2 0 .8 0 1-.1l.1 1.2s-.8.1-1.4.1c-1.3 0-2-.5-2-1.9v-5.1h-1.5v-1.2h1.5v-2.6l1.3-.5v3.1h2.2v1.2H330v4.8zm10.9-2c0 2.4-1.5 4.1-3.7 4.1s-3.7-1.7-3.7-4.1c0-2.4 1.5-4.2 3.7-4.2s3.7 1.8 3.7 4.2zm-1.4 0c0-1.7-.8-3.1-2.3-3.1-1.5 0-2.3 1.4-2.3 3v.1c0 1.6.8 2.9 2.3 2.9 1.5.1 2.3-1.3 2.3-2.9zM66.4 419.4c.1 1.5 1 2.6 2.5 2.6.9 0 1.5-.3 2.1-.8l.7.9c-.7.6-1.7 1-2.8 1-2.3 0-3.8-1.7-3.8-4.1 0-2.4 1.4-4.2 3.6-4.2 2.1 0 3.4 1.7 3.4 4.1v.4h-5.7zm0-1.1h4.2c0-1.2-.7-2.4-2-2.4s-2.1 1.2-2.2 2.4zm10.4-3.5c.9 0 1.7.3 2.3 1.1v-.9h1.3v8.1c0 2-1.7 2.6-3.4 2.6-.9 0-2.1-.2-3-.6l.4-1.1c.6.3 1.6.6 2.5.6 1.3 0 2.1-.5 2.1-1.7v-1.5c-.5.8-1.4 1.1-2.3 1.1-2 0-3.2-1.6-3.2-3.7s1.3-4 3.3-4zm2.3 3.7c0-1.4-.6-2.5-2-2.5-1.5 0-2.1 1.1-2.1 2.5v.1c0 1.4.7 2.5 2.1 2.5 1.4 0 2-1.1 2-2.6zm7.9 4.4v-1.3c.8-.7 3.2-2.7 4-3.5.9-.8 1.7-1.8 1.7-3.1 0-1.4-.9-2.2-2.2-2.2-1.4 0-2.1 1-2.2 2.4l-1.4-.1c.1-2.2 1.5-3.5 3.6-3.5 2.2 0 3.7 1.3 3.7 3.5 0 1.6-.8 2.7-3.3 4.8l-2 1.7h5.5v1.2H87zm9.6-5.7l.6-5.5h6.4v1.2h-5.3l-.3 3.2c.6-.6 1.5-.9 2.4-.9 2.1 0 3.7 1.6 3.7 3.8 0 2.4-1.6 4.1-4 4.1-1.8 0-3.4-.9-3.8-2.7l1.4-.2c.3.9 1 1.7 2.4 1.7 1.6 0 2.6-1.2 2.6-2.8 0-1.6-1-2.7-2.6-2.7-.8 0-1.7.4-2.1 1l-1.4-.2zm12.9-5.5h1.3l-3.9 11.2h-1.4l4-11.2zm4.8.1v-.1h1.3v11.2h-1.4v-8.2h-2.1v-1.2h.2c1.6 0 2-.5 2-1.7zm5.8 0v-.1h1.3v11.2H120v-8.2h-2v-1.2h.2c1.5 0 1.9-.5 1.9-1.7zm7.5-.1h1.3l-3.9 11.2h-1.4l4-11.2zm3.1 11.2v-1.3c.8-.7 3.2-2.7 4-3.5.9-.8 1.7-1.8 1.7-3.1 0-1.4-.9-2.2-2.2-2.2-1.4 0-2.1 1-2.2 2.4l-1.4-.1c.1-2.2 1.5-3.5 3.6-3.5 2.2 0 3.7 1.3 3.7 3.5 0 1.6-.8 2.7-3.3 4.8l-2 1.7h5.5v1.2h-7.4zm17.6-5.5c0 2.9-1.1 5.7-4.1 5.7-3 0-4.1-2.8-4.1-5.7 0-2.9 1.1-5.8 4.1-5.8 3 0 4.1 2.8 4.1 5.8zm-1.5.3v-.7c0-2.7-1-4.2-2.6-4.2s-2.6 1.5-2.6 4.2v.7c0 2.7 1 4.2 2.6 4.2s2.6-1.5 2.6-4.2zm5.3-5.9v-.1h1.3v11.2H152v-8.2h-2v-1.2h.2c1.5 0 1.9-.5 1.9-1.7zm4.2 5.4l.6-5.5h6.4v1.2H158l-.3 3.2c.6-.6 1.5-.9 2.4-.9 2.1 0 3.7 1.6 3.7 3.8 0 2.4-1.6 4.1-4 4.1-1.8 0-3.4-.9-3.8-2.7l1.4-.2c.3.9 1 1.7 2.4 1.7 1.6 0 2.6-1.2 2.6-2.8 0-1.6-1-2.7-2.6-2.7-.8 0-1.7.4-2.1 1l-1.4-.2zM362.5 358.4h-3.7v-11.2h3.7c3.5 0 5 2.2 5 5.6s-1.5 5.6-5 5.6zm3.6-5.9c0-2.3-1.1-4.2-3.6-4.2h-2.3v8.8h2.3c2.5 0 3.6-1.9 3.6-4.2v-.4zm5.8 6c-1.6 0-2.8-.9-2.8-2.4 0-1.2.8-2.1 2.1-2.3l2.8-.4v-.5c0-1.2-.8-1.6-1.8-1.6-.9 0-1.7.3-2.3.6l-.5-1c.9-.5 2-.7 2.9-.7 1.9 0 3 .9 3 2.5v3.7c0 .5.2.9.7 1.1l-.7.9c-.5-.1-.9-.5-1.1-1-.4.7-1.2 1.1-2.3 1.1zm0-3.7c-.9.1-1.5.4-1.5 1.2 0 .9.8 1.4 1.6 1.4 1 0 2-.6 2-1.6v-1.4l-2.1.4zm8.1 1.6c0 .5.1 1 1 1 .2 0 .8 0 1-.1l.1 1.2s-.8.1-1.4.1c-1.3 0-2-.5-2-1.9v-5.1h-1.5v-1.2h1.5v-2.6l1.3-.5v3.1h2.2v1.2H380v4.8zm4.9-1.6c.1 1.5 1 2.6 2.5 2.6.9 0 1.5-.3 2.1-.8l.7.9c-.7.6-1.7 1-2.8 1-2.3 0-3.8-1.7-3.8-4.1 0-2.4 1.4-4.2 3.6-4.2 2.1 0 3.4 1.7 3.4 4.1v.4h-5.7zm0-1.1h4.2c0-1.2-.7-2.4-2-2.4-1.3.1-2.1 1.2-2.2 2.4zM509.9 281.4h-4.5l-.7 2.5h-1.5l3.5-11.2h2l3.5 11.2h-1.5l-.8-2.5zm-4.2-1.2h3.8l-1.9-6.3h-.1l-1.8 6.3zm8.2-7.5h1.3v9.4c0 .5.2.8.8.8h.8l.1 1.1s-.8.1-1.3.1c-.9 0-1.7-.4-1.7-1.6v-9.8zm4.3 0h1.3v9.4c0 .5.2.8.8.8h.8l.1 1.1s-.8.1-1.3.1c-.9 0-1.7-.4-1.7-1.6v-9.8zm10 9.2c0 .5.1 1 1 1 .2 0 .8 0 1-.1l.1 1.2s-.8.1-1.4.1c-1.3 0-2-.5-2-1.9v-5.1h-1.5v-1.2h1.5v-2.6l1.3-.5v3.1h2.2v1.2h-2.2v4.8zm8.1-4.8h-.2c-1.3 0-2.6.5-2.6 2.7v4.1h-1.3v-8h1.3v1.3c.4-.9 1.4-1.4 2.4-1.4h.4v1.3zm3.8 7c-1.6 0-2.8-.9-2.8-2.4 0-1.2.8-2.1 2.1-2.3l2.8-.4v-.5c0-1.2-.8-1.6-1.8-1.6-.9 0-1.7.3-2.3.6l-.5-1c.9-.5 2-.7 2.9-.7 1.9 0 3 .9 3 2.5v3.7c0 .5.2.9.7 1.1l-.7.9c-.5-.1-.9-.5-1.1-1-.4.7-1.2 1.1-2.3 1.1zm.1-3.7c-.9.1-1.5.4-1.5 1.2 0 .9.8 1.4 1.6 1.4 1 0 2-.6 2-1.6V280l-2.1.4zm6-4.5h1.3v.9c.5-.7 1.4-1.1 2.3-1.1 1.8 0 2.7 1.3 2.7 2.7v5.4h-1.3v-5c0-1.4-.7-1.9-1.6-1.9-1 0-2 .7-2 2.2v4.7h-1.3v-7.9zm8.1 7l.8-.9c.5.4 1.3 1 2.4 1 .9 0 1.6-.4 1.6-1.2 0-.9-.9-1.1-2-1.3-1.1-.3-2.5-.7-2.5-2.3 0-1.3 1.2-2.3 2.9-2.3 1.1 0 2.2.4 2.8 1l-.8.9c-.5-.4-1.2-.8-2-.8-1.1 0-1.6.5-1.6 1.2 0 .6.4.9 1.2 1.1.4.1.9.3 1.3.4 1.1.3 2 .9 2 2.2 0 1.6-1.5 2.4-3 2.4-1-.2-2.2-.6-3.1-1.4zm10.4 1.2c-1.6 0-2.8-.9-2.8-2.4 0-1.2.8-2.1 2.1-2.3l2.8-.4v-.5c0-1.2-.8-1.6-1.8-1.6-.9 0-1.7.3-2.3.6l-.5-1c.9-.5 2-.7 2.9-.7 1.9 0 3 .9 3 2.5v3.7c0 .5.2.9.7 1.1l-.7.9c-.5-.1-.9-.5-1.1-1-.5.7-1.2 1.1-2.3 1.1zm0-3.7c-.9.1-1.5.4-1.5 1.2 0 .9.8 1.4 1.6 1.4 1 0 2-.6 2-1.6V280l-2.1.4zm6.9-.4c0 1.6.8 3 2.3 3 1 0 1.7-.6 2.1-1.3l1.1.6c-.5 1.1-1.7 1.9-3.2 1.9-2.2 0-3.7-1.7-3.7-4.1 0-2.4 1.5-4.2 3.7-4.2 1.4 0 2.6.7 3.2 1.9l-1.1.6c-.4-.8-1.1-1.3-2.1-1.3-1.5-.2-2.3 1.2-2.3 2.9zm9.5 1.9c0 .5.1 1 1 1 .2 0 .8 0 1-.1l.1 1.2s-.8.1-1.4.1c-1.3 0-2-.5-2-1.9v-5.1h-1.5v-1.2h1.5v-2.6l1.3-.5v3.1h2.2v1.2h-2.2v4.8zm4.7-9.2c.5 0 1 .4 1 1 0 .5-.4 1-1 1-.5 0-1-.4-1-1 0-.5.4-1 1-1zm.6 11.2h-1.3v-8h1.3v8zm9.5-4c0 2.4-1.5 4.1-3.7 4.1s-3.7-1.7-3.7-4.1c0-2.4 1.5-4.2 3.7-4.2s3.7 1.8 3.7 4.2zm-1.4.1c0-1.7-.8-3.1-2.3-3.1s-2.3 1.4-2.3 3v.1c0 1.6.8 2.9 2.3 2.9s2.3-1.3 2.3-2.9zm3.4-4.1h1.3v.9c.5-.7 1.4-1.1 2.3-1.1 1.8 0 2.7 1.3 2.7 2.7v5.4h-1.3v-5c0-1.4-.7-1.9-1.6-1.9-1 0-2 .7-2 2.2v4.7H598v-7.9zm8.2 7l.8-.9c.5.4 1.3 1 2.4 1 .9 0 1.6-.4 1.6-1.2 0-.9-.9-1.1-2-1.3-1.1-.3-2.5-.7-2.5-2.3 0-1.3 1.2-2.3 2.9-2.3 1.1 0 2.2.4 2.8 1l-.8.9c-.5-.4-1.2-.8-2-.8-1.1 0-1.6.5-1.6 1.2 0 .6.4.9 1.2 1.1.4.1.9.3 1.3.4 1.1.3 2 .9 2 2.2 0 1.6-1.5 2.4-3 2.4-1.1-.2-2.3-.6-3.1-1.4z"/><path class="st5" d="M717.9 281.4h-4.5l-.7 2.5h-1.5l3.5-11.2h2l3.5 11.2h-1.5l-.8-2.5zm-4.2-1.2h3.8l-1.9-6.3h-.1l-1.8 6.3zm8.2-7.5h1.3v9.4c0 .5.2.8.8.8h.8l.1 1.1s-.8.1-1.3.1c-.9 0-1.7-.4-1.7-1.6v-9.8zm4.3 0h1.3v9.4c0 .5.2.8.8.8h.8l.1 1.1s-.8.1-1.3.1c-.9 0-1.7-.4-1.7-1.6v-9.8zm10 9.2c0 .5.1 1 1 1 .2 0 .8 0 1-.1l.1 1.2s-.8.1-1.4.1c-1.3 0-2-.5-2-1.9v-5.1h-1.5v-1.2h1.5v-2.6l1.3-.5v3.1h2.2v1.2h-2.2v4.8zm3.1-6h1.5l2 6.6 1.9-6.6h1.5l-2.9 9.2c-.4 1.1-1.1 1.4-2.1 1.4-.4 0-.9 0-1.4-.1l.2-1.2s.5.1 1.1.1c.6 0 .9-.2 1-.8l.1-.4-2.9-8.2zm9.8 0v.9c.5-.7 1.3-1.1 2.3-1.1 2.1 0 3.4 1.7 3.4 4.2s-1.3 4.1-3.4 4.1c-1 0-1.9-.4-2.3-1.1v3.3h-1.3v-10.4h1.3zm4.4 4c0-1.7-.8-2.9-2.3-2.9-1.4 0-2.1 1-2.1 2.3v1.3c0 1.3.7 2.3 2.1 2.3 1.5 0 2.3-1.3 2.3-3zm4.3.4c.1 1.5 1 2.6 2.5 2.6.9 0 1.5-.3 2.1-.8l.7.9c-.7.6-1.7 1-2.8 1-2.3 0-3.8-1.7-3.8-4.1 0-2.4 1.4-4.2 3.6-4.2 2.1 0 3.4 1.7 3.4 4.1v.4h-5.7zm.1-1h4.2c0-1.2-.7-2.4-2-2.4s-2.2 1.2-2.2 2.4zm6.9 3.6l.8-.9c.5.4 1.3 1 2.4 1 .9 0 1.6-.4 1.6-1.2 0-.9-.9-1.1-2-1.3-1.1-.3-2.5-.7-2.5-2.3 0-1.3 1.2-2.3 2.9-2.3 1.1 0 2.2.4 2.8 1l-.8.9c-.5-.4-1.2-.8-2-.8-1.1 0-1.6.5-1.6 1.2 0 .6.4.9 1.2 1.1.4.1.9.3 1.3.4 1.1.3 2 .9 2 2.2 0 1.6-1.5 2.4-3 2.4-1-.2-2.2-.6-3.1-1.4z"/><path class="st4" d="M358.6 368.7h117v36.2h-117z"/><path class="st5" d="M474.6 369.7v34.2h-115v-34.2h115m2-2h-119v38.2h119v-38.2z"/><g><path class="st4" d="M485 368.7h117v36.2H485z"/><path class="st5" d="M601 369.7v34.2H486v-34.2h115m2-2H484v38.2h119v-38.2z"/></g><g><path class="st5" d="M486.2 419.4c.1 1.5 1 2.6 2.5 2.6.9 0 1.5-.3 2.1-.8l.7.9c-.7.6-1.7 1-2.8 1-2.3 0-3.8-1.7-3.8-4.1 0-2.4 1.4-4.2 3.6-4.2 2.1 0 3.4 1.7 3.4 4.1v.4h-5.7zm0-1.1h4.2c0-1.2-.7-2.4-2-2.4s-2.1 1.2-2.2 2.4zm10.4-3.5c.9 0 1.7.3 2.3 1.1v-.9h1.3v8.1c0 2-1.7 2.6-3.4 2.6-.9 0-2.1-.2-3-.6l.4-1.1c.6.3 1.6.6 2.5.6 1.3 0 2.1-.5 2.1-1.7v-1.5c-.5.8-1.4 1.1-2.3 1.1-2 0-3.2-1.6-3.2-3.7s1.4-4 3.3-4zm2.3 3.7c0-1.4-.6-2.5-2-2.5-1.5 0-2.1 1.1-2.1 2.5v.1c0 1.4.7 2.5 2.1 2.5 1.4 0 2-1.1 2-2.6zm9.6-6.7v-.1h1.3v11.2h-1.4v-8.2h-2.1v-1.2h.2c1.6 0 2-.5 2-1.7zm4.2 5.4l.6-5.5h6.4v1.2h-5.3l-.3 3.2c.6-.6 1.5-.9 2.4-.9 2.1 0 3.7 1.6 3.7 3.8 0 2.4-1.6 4.1-4 4.1-1.8 0-3.4-.9-3.8-2.7l1.4-.2c.3.9 1 1.7 2.4 1.7 1.6 0 2.6-1.2 2.6-2.8 0-1.6-1-2.7-2.6-2.7-.8 0-1.7.4-2.1 1l-1.4-.2zm10.6-2.2c.6 0 1.1.5 1.1 1.1 0 .6-.5 1.1-1.1 1.1-.6 0-1.1-.5-1.1-1.1 0-.7.5-1.1 1.1-1.1zm0 6c.6 0 1.1.5 1.1 1.1 0 .6-.5 1.1-1.1 1.1-.6 0-1.1-.5-1.1-1.1 0-.7.5-1.1 1.1-1.1zm11.3-3.6c0 2.9-1.1 5.7-4.1 5.7-3 0-4.1-2.8-4.1-5.7 0-2.9 1.1-5.8 4.1-5.8 3 0 4.1 2.8 4.1 5.8zm-1.5.3v-.7c0-2.7-1-4.2-2.6-4.2s-2.6 1.5-2.6 4.2v.7c0 2.7 1 4.2 2.6 4.2s2.6-1.5 2.6-4.2zm11.7-.3c0 2.9-1.1 5.7-4.1 5.7-3 0-4.1-2.8-4.1-5.7 0-2.9 1.1-5.8 4.1-5.8 3.1 0 4.1 2.8 4.1 5.8zm-1.4.3v-.7c0-2.7-1-4.2-2.6-4.2s-2.6 1.5-2.6 4.2v.7c0 2.7 1 4.2 2.6 4.2 1.5 0 2.6-1.5 2.6-4.2zm4.6-2.7c.6 0 1.1.5 1.1 1.1 0 .6-.5 1.1-1.1 1.1-.6 0-1.1-.5-1.1-1.1.1-.7.5-1.1 1.1-1.1zm0 6c.6 0 1.1.5 1.1 1.1 0 .6-.5 1.1-1.1 1.1-.6 0-1.1-.5-1.1-1.1.1-.7.5-1.1 1.1-1.1zm11.4-3.6c0 2.9-1.1 5.7-4.1 5.7-3 0-4.1-2.8-4.1-5.7 0-2.9 1.1-5.8 4.1-5.8 3 0 4.1 2.8 4.1 5.8zm-1.5.3v-.7c0-2.7-1-4.2-2.6-4.2s-2.6 1.5-2.6 4.2v.7c0 2.7 1 4.2 2.6 4.2s2.6-1.5 2.6-4.2zm11.7-.3c0 2.9-1.1 5.7-4.1 5.7-3 0-4.1-2.8-4.1-5.7 0-2.9 1.1-5.8 4.1-5.8 3 0 4.1 2.8 4.1 5.8zm-1.5.3v-.7c0-2.7-1-4.2-2.6-4.2s-2.6 1.5-2.6 4.2v.7c0 2.7 1 4.2 2.6 4.2s2.6-1.5 2.6-4.2z"/></g><g><path class="st5" d="M359.8 419.4c.1 1.5 1 2.6 2.5 2.6.9 0 1.5-.3 2.1-.8l.7.9c-.7.6-1.7 1-2.8 1-2.3 0-3.8-1.7-3.8-4.1 0-2.4 1.4-4.2 3.6-4.2 2.1 0 3.4 1.7 3.4 4.1v.4h-5.7zm0-1.1h4.2c0-1.2-.7-2.4-2-2.4s-2.1 1.2-2.2 2.4zm10.5-3.5c.9 0 1.7.3 2.3 1.1v-.9h1.3v8.1c0 2-1.7 2.6-3.4 2.6-.9 0-2.1-.2-3-.6l.4-1.1c.6.3 1.6.6 2.5.6 1.3 0 2.1-.5 2.1-1.7v-1.5c-.5.8-1.4 1.1-2.3 1.1-2 0-3.2-1.6-3.2-3.7s1.3-4 3.3-4zm2.2 3.7c0-1.4-.6-2.5-2-2.5-1.5 0-2.1 1.1-2.1 2.5v.1c0 1.4.7 2.5 2.1 2.5 1.4 0 2-1.1 2-2.6zm7.9 4.4v-1.3c.8-.7 3.2-2.7 4-3.5.9-.8 1.7-1.8 1.7-3.1 0-1.4-.9-2.2-2.2-2.2-1.4 0-2.1 1-2.2 2.4l-1.4-.1c.1-2.2 1.5-3.5 3.6-3.5 2.2 0 3.7 1.3 3.7 3.5 0 1.6-.8 2.7-3.3 4.8l-2 1.7h5.5v1.2h-7.4zm9.6-5.7l.6-5.5h6.4v1.2h-5.3l-.3 3.2c.6-.6 1.5-.9 2.4-.9 2.1 0 3.7 1.6 3.7 3.8 0 2.4-1.6 4.1-4 4.1-1.8 0-3.4-.9-3.8-2.7l1.4-.2c.3.9 1 1.7 2.4 1.7 1.6 0 2.6-1.2 2.6-2.8 0-1.6-1-2.7-2.6-2.7-.8 0-1.7.4-2.1 1l-1.4-.2zm13-5.5h1.3l-3.9 11.2H399l4-11.2zm4.8.1v-.1h1.3v11.2h-1.4v-8.2h-2.1v-1.2h.2c1.5 0 2-.5 2-1.7zm5.7 0v-.1h1.3v11.2h-1.4v-8.2h-2.1v-1.2h.2c1.6 0 2-.5 2-1.7zm7.6-.1h1.3l-3.9 11.2h-1.4l4-11.2zm3 11.2v-1.3c.8-.7 3.2-2.7 4-3.5.9-.8 1.7-1.8 1.7-3.1 0-1.4-.9-2.2-2.2-2.2-1.4 0-2.1 1-2.2 2.4l-1.4-.1c.1-2.2 1.5-3.5 3.6-3.5 2.2 0 3.7 1.3 3.7 3.5 0 1.6-.8 2.7-3.3 4.8l-2 1.7h5.5v1.2h-7.4zm17.6-5.5c0 2.9-1.1 5.7-4.1 5.7-3 0-4.1-2.8-4.1-5.7 0-2.9 1.1-5.8 4.1-5.8 3 0 4.1 2.8 4.1 5.8zm-1.5.3v-.7c0-2.7-1-4.2-2.6-4.2s-2.6 1.5-2.6 4.2v.7c0 2.7 1 4.2 2.6 4.2s2.6-1.5 2.6-4.2zm5.4-5.9v-.1h1.3v11.2h-1.4v-8.2h-2.1v-1.2h.2c1.5 0 2-.5 2-1.7zm4.2 5.4l.6-5.5h6.4v1.2h-5.3l-.3 3.2c.6-.6 1.5-.9 2.4-.9 2.1 0 3.7 1.6 3.7 3.8 0 2.4-1.6 4.1-4 4.1-1.8 0-3.4-.9-3.8-2.7l1.4-.2c.3.9 1 1.7 2.4 1.7 1.6 0 2.6-1.2 2.6-2.8 0-1.6-1-2.7-2.6-2.7-.8 0-1.7.4-2.1 1l-1.4-.2z"/></g><path d="M703 371.8h108.6v34.5H703z" fill="#004a1e"/><path d="M703 367.8h108.6v34.5H703z" fill="#00823b"/><g><path class="st4" d="M737 378.4h8v1.4h-6.3v4.4h5.8v1.4h-5.8v6.1H737v-13.3zm11.2 0c.6 0 1.1.5 1.1 1.2 0 .6-.5 1.2-1.1 1.2-.6 0-1.2-.5-1.2-1.2s.6-1.2 1.2-1.2zm.8 13.3h-1.6v-9.5h1.6v9.5zm2.9-13.3h1.6v11.2c0 .6.2 1 .9 1 .4 0 .7 0 1-.1l.2 1.3s-.9.1-1.6.1c-1.1 0-2-.5-2-1.9v-11.6zm7.8 10.9c0 .6.1 1.2 1.2 1.2.3 0 .9-.1 1.2-.1l.2 1.4s-.9.1-1.7.1c-1.5 0-2.4-.6-2.4-2.2v-6.1h-1.8v-1.4h1.8v-3.1l1.6-.6v3.6h2.6v1.4h-2.6v5.8zm5.8-1.9c.1 1.8 1.2 3.1 2.9 3.1 1.1 0 1.8-.4 2.5-.9l.8 1.1c-.9.7-2 1.2-3.4 1.2-2.8 0-4.5-2.1-4.5-4.9 0-2.9 1.7-4.9 4.3-4.9 2.5 0 4 2.1 4 4.9v.5h-6.6zm0-1.2h5c-.1-1.5-.9-2.8-2.4-2.8s-2.5 1.3-2.6 2.8zm13.9-2.6h-.2c-1.6 0-3 .6-3 3.2v4.9h-1.6v-9.5h1.6v1.5c.5-1.1 1.6-1.7 2.8-1.7h.5v1.6z"/></g><path class="st5" d="M669.6 286.6l-5-7.5h10zm0-17.1l-5 7.6h10zm211.5 17.1l-5-7.5h10zm0-17.1l-5 7.6h10z"/><path class="st3" d="M.3 636h960v4H.3z"/></svg>