<svg id="Layer_1" xmlns="http://www.w3.org/2000/svg" viewBox="0 0 960 640">
  <style>
    .st0{fill:#28A197;} .st1{fill:#FFD419;} .st2{fill:#004A1E;} .st3{fill:#DADADA;} .st4{fill:#FFFFFF;} .st5{fill:#0B0B0B;} .st6{fill:#005EA5;} .st7{fill:#006435;} .st8{fill:none;stroke:#8C8C8C;stroke-miterlimit:10;} .st9{fill:#00823B;} .st10{fill:#8C8C8C;} .st11{fill:#DE0000;} .st12{fill:#6E6E6E;} .st13{fill:#F8F8F8;} .st14{fill:#DEE0E2;} .st15{clip-path:url(#SVGID_2_);} .st16{clip-path:url(#SVGID_2_);fill:#0B0B0B;} .st17{clip-path:url(#SVGID_2_);fill:#DE0000;} .st18{fill:#881516;} .st19{fill:#B10E1E;} .st20{opacity:0.5;} .st21{fill:#8C8C8C;stroke:#B4B4B4;stroke-width:8;stroke-miterlimit:10;} .st22{fill:#FFBF47;} .st23{fill:none;stroke:#000000;stroke-width:2;stroke-miterlimit:10;} .st24{fill:none;stroke:#000000;stroke-width:2;stroke-miterlimit:10;stroke-dasharray:6,6;}
  </style>
  <path class="st3" d="M0 40V10C0 4.5 4.5 0 10 0h940c5.5 0 10 4.5 10 10v30"/>
  <circle class="st4" cx="25.4" cy="20" r="8.5"/>
  <circle class="st4" cx="49.1" cy="20" r="8.5"/>
  <circle class="st4" cx="72.9" cy="20" r="8.5"/>
  <path class="st5" d="M1 40h958v65H1z"/>
  <path class="st4" d="M267 59.7l-10.7 13v-13h-6.1v30h6.1v-9.1l3.9-4.3 7.9 13.4h7l-11-18.1 10.4-11.9zM229.6 84.3c-.8-.3-1.4-.6-2-1.2-.6-.5-1-1.2-1.3-2-.3-.8-.5-1.7-.5-2.8V59.7h-6v19.5c0 1.7.3 3.2.9 4.5.6 1.4 1.5 2.5 2.5 3.5 1.1.9 2.4 1.7 3.9 2.2 1.5.5 3.1.8 4.9.8 1.8 0 3.4-.3 4.9-.8 1.5-.5 2.8-1.2 3.9-2.2 1.1-.9 1.9-2.1 2.5-3.5.6-1.4.9-2.9.9-4.5V59.7h-6v18.6c0 1.1-.2 2-.5 2.8-.3.8-.8 1.5-1.3 2-.6.5-1.2.9-2 1.2-.8.3-1.6.4-2.5.4-.7 0-1.5-.2-2.3-.4M207.7 87.8c.2.5.5.9.8 1.2.3.3.8.6 1.2.8.5.2 1 .3 1.5.3s1-.1 1.5-.3c.5-.2.9-.5 1.2-.8.3-.3.6-.8.8-1.2.2-.5.3-1 .3-1.5s-.1-1-.3-1.5c-.2-.5-.5-.9-.8-1.2-.3-.3-.8-.6-1.2-.8-.5-.2-.9-.3-1.5-.3-.5 0-1 .1-1.5.3-.5.2-.9.5-1.2.8-.3.3-.6.7-.8 1.2-.2.5-.3.9-.3 1.5s.1 1 .3 1.5M198.1 89.7l8.5-30h-6.7l-5.7 22.6h-.2l-5.8-22.6h-6.8l8.5 30z"/>
  <g>
    <path class="st4" d="M161.3 83.9c-1-.5-1.8-1.2-2.5-2.1-.7-.9-1.2-1.9-1.5-3.1-.3-1.2-.5-2.5-.5-3.9v-.2c0-1.4.2-2.7.5-3.9.3-1.2.9-2.2 1.5-3.1.7-.9 1.5-1.6 2.5-2.1s2.2-.7 3.5-.7c1.3 0 2.5.2 3.5.7 1 .5 1.8 1.2 2.5 2.1.7.9 1.2 1.9 1.5 3.1.3 1.2.5 2.5.5 3.9v.2c0 1.4-.2 2.7-.5 3.9-.3 1.2-.9 2.2-1.5 3.1-.7.9-1.5 1.6-2.5 2.1s-2.2.7-3.5.7c-1.3.1-2.5-.2-3.5-.7m-2.5-23.4c-1.8.8-3.3 1.9-4.5 3.3-1.2 1.4-2.2 3-2.8 4.9-.6 1.9-1 3.9-1 6 0 2.2.3 4.2 1 6 .6 1.9 1.6 3.5 2.8 4.9 1.2 1.4 2.7 2.5 4.5 3.3 1.8.8 3.8 1.2 6 1.2s4.2-.4 6-1.2c1.8-.8 3.3-1.9 4.5-3.3 1.2-1.4 2.2-3 2.8-4.9.6-1.9 1-3.9 1-6s-.3-4.2-1-6c-.6-1.9-1.6-3.5-2.8-4.9-1.2-1.4-2.7-2.5-4.5-3.3-1.8-.8-3.8-1.2-6-1.2-2.3 0-4.3.4-6 1.2M125.7 74.6c0-1.3.2-2.5.5-3.7.3-1.2.8-2.2 1.5-3.1.7-.9 1.5-1.6 2.5-2.2 1-.6 2.2-.8 3.6-.8.9 0 1.7.1 2.4.3.7.2 1.4.5 1.9.9.6.4 1.1.9 1.5 1.4.4.5.8 1.1 1.1 1.8l5.3-3c-.5-1-1.2-2-2-2.9-.8-.9-1.7-1.6-2.8-2.2-1.1-.6-2.2-1.1-3.5-1.4-1.3-.3-2.6-.5-4-.5-2.2 0-4.2.4-5.9 1.2-1.8.8-3.3 1.9-4.5 3.3-1.2 1.4-2.2 3-2.9 4.9-.7 1.9-1 3.9-1 6 0 2.2.3 4.2.9 6 .6 1.9 1.5 3.5 2.7 4.9 1.2 1.4 2.6 2.5 4.3 3.3 1.7.8 3.6 1.2 5.8 1.2.9 0 1.8-.1 2.6-.3.8-.2 1.6-.5 2.3-.8.7-.3 1.3-.8 1.9-1.2.6-.5 1-1 1.4-1.6v3.5h5.3V73.3H133v4.6h7.7v.3c0 .6-.1 1.3-.3 2.1-.2.8-.6 1.5-1.1 2.1-.5.6-1.3 1.2-2.2 1.6-.9.4-2 .6-3.4.6s-2.6-.3-3.6-.8c-1-.6-1.9-1.3-2.5-2.2-.7-.9-1.1-2-1.5-3.1-.3-1.2-.5-2.4-.5-3.7v-.2zM62.3 65.8c1.4.6 2.9-.1 3.4-1.4.6-1.3-.1-2.9-1.4-3.4-1.3-.5-2.9.1-3.4 1.4-.6 1.3.1 2.9 1.4 3.4M56.3 69.3c1.4.6 2.9-.1 3.4-1.4.6-1.3-.1-2.9-1.4-3.4-1.3-.5-2.9.1-3.4 1.4-.5 1.3.1 2.9 1.4 3.4M54.6 75.9c1.4.6 2.9-.1 3.4-1.4.6-1.3-.1-2.9-1.4-3.4-1.3-.5-2.9.1-3.4 1.4-.6 1.4.1 2.9 1.4 3.4M68.9 67.9c1.4.6 2.9-.1 3.4-1.4.6-1.3-.1-2.9-1.4-3.4-1.3-.5-2.9.1-3.4 1.4-.5 1.3.1 2.9 1.4 3.4M93 65.8c-1.4.6-2.9-.1-3.4-1.4-.6-1.3.1-2.9 1.4-3.4 1.3-.5 2.9.1 3.4 1.4.6 1.3 0 2.9-1.4 3.4M99 69.3c-1.4.6-2.9-.1-3.4-1.4-.6-1.3 0-2.9 1.4-3.4 1.3-.5 2.9.1 3.4 1.4.6 1.3-.1 2.9-1.4 3.4M100.8 75.9c-1.4.6-2.9-.1-3.4-1.4-.6-1.3.1-2.9 1.4-3.4 1.3-.5 2.9.1 3.4 1.4.5 1.4-.1 2.9-1.4 3.4M86.4 67.9c-1.4.6-2.9-.1-3.4-1.4-.6-1.3.1-2.9 1.4-3.4 1.3-.5 2.9.1 3.4 1.4.6 1.3-.1 2.9-1.4 3.4M79.1 61.1l3.3 1.7V58l-3.3 1-.3-.3 1.3-4.2h-4.8l1.3 4.2-.3.3-3.4-1v4.9l3.3-1.7.3.3-1.9 5.8c-.1.3-.1.6-.1.9 0 1.6 1.2 2.8 2.6 3.1h1c1.5-.2 2.7-1.5 2.7-3.1 0-.3 0-.6-.1-.9l-1.9-5.8c0-.1.2-.2.3-.4M77.7 89.3c6.3 0 12.3.4 17.6 1.2 1.5-6.4 3.4-10 5.3-12.6L97 76.7c.4 1.8.4 2.7 0 3.8-.6-.6-1.1-1.6-1.6-3.3L93.7 83c1.1-.7 1.9-1.2 2.8-1.2-1.7 3.6-3.7 4.5-5.1 4.2-1.6-.3-2.4-1.8-2.1-3 .4-1.7 2.2-2.2 3-.2 1.6-3.3-1.1-4.3-2.9-3.3 2.7-2.7 3-5.1.8-7.9-3 2.3-3.1 4.6-1.7 7.8-1.8-2-4.5-.9-3.5 2.3 1.3-2 3-.7 2.7 1.1-.2 1.6-2.4 2.9-5.1 2.7-3.8-.3-4.1-3-4.2-5.2.9-.2 2.6.7 4.1 2.7l.5-6.1c-1.6 1.6-3 2-4.6 2 .5-1.7 3-4.4 3-4.4h-7.5s2.4 2.7 3 4.4c-1.6-.1-3-.4-4.6-2l.5 6.1c1.5-2 3.2-2.9 4.1-2.7-.1 2.2-.3 4.8-4.2 5.2-2.7.2-4.8-1.1-5.1-2.7-.3-1.9 1.4-3.1 2.7-1.1 1-3.3-1.8-4.3-3.5-2.3 1.4-3.2 1.3-5.5-1.7-7.8-2.2 2.9-1.9 5.3.8 7.9-1.8-1-4.5.1-2.9 3.3.8-2 2.6-1.6 3 .2.3 1.2-.5 2.7-2.1 3-1.3.2-3.4-.7-5-4.2.9 0 1.7.5 2.8 1.2L60 77.2c-.4 1.6-1 2.7-1.6 3.3-.4-1.2-.3-2 0-3.8L54.8 78c1.9 2.6 3.7 6.2 5.3 12.6 5.3-.8 11.2-1.3 17.6-1.3"/>
  </g>
  <path class="st3" d="M4 640V40h952v600h4V36H0v604z"/>
  <g>
    <path class="st4" d="M309.9 65.8c2.4 0 4.2.6 5.4 1.8 1.2 1.2 1.9 3 1.9 5.2s-.6 4-1.9 5.2c-1.2 1.2-3 1.9-5.4 1.8h-7.3v9.7h-3.2V65.8h10.5zm-1.1 11.4c1.8 0 3.1-.3 3.9-1.1.8-.8 1.3-1.8 1.3-3.3 0-1.4-.4-2.5-1.3-3.3-.8-.7-2.1-1.1-3.9-1.1h-6.2v8.7h6.2zM335.8 89.6c-.5.3-1.2.4-2 .4-.7 0-1.3-.2-1.7-.6-.4-.4-.6-1.1-.6-2-.8.9-1.7 1.6-2.7 2-1 .4-2.1.6-3.3.6-.8 0-1.5-.1-2.2-.3-.7-.2-1.3-.5-1.8-.8-.5-.4-.9-.9-1.2-1.5-.3-.6-.4-1.4-.4-2.2 0-1 .2-1.8.5-2.4s.8-1.1 1.3-1.5c.5-.4 1.2-.7 1.9-.9.7-.2 1.4-.4 2.1-.5.8-.2 1.5-.3 2.2-.4.7-.1 1.3-.2 1.8-.3.5-.1 1-.4 1.3-.6.3-.3.5-.7.5-1.2 0-.6-.1-1.1-.4-1.5-.2-.4-.5-.7-.9-.9-.4-.2-.8-.3-1.2-.4-.5-.1-.9-.1-1.3-.1-1.2 0-2.2.2-3 .7-.8.5-1.2 1.3-1.3 2.6h-2.8c0-1.1.3-2 .7-2.7.4-.7.9-1.3 1.6-1.8.7-.5 1.4-.8 2.3-1 .9-.2 1.8-.3 2.8-.3.8 0 1.5.1 2.3.2.8.1 1.5.3 2.1.7.6.3 1.1.8 1.5 1.4.4.6.6 1.4.6 2.4v8.8c0 .7 0 1.2.1 1.5.1.3.3.5.8.5.2 0 .5 0 .9-.1v2.2zm-4.6-8.9c-.4.3-.8.5-1.4.6l-1.8.3c-.6.1-1.3.2-1.9.3-.6.1-1.2.3-1.7.5s-.9.5-1.2.9c-.3.4-.5 1-.5 1.7 0 .5.1.9.3 1.2.2.3.4.6.7.8.3.2.6.3 1 .4.4.1.8.1 1.3.1.9 0 1.7-.1 2.4-.4.7-.3 1.2-.6 1.6-1 .4-.4.7-.8.9-1.3.2-.5.3-.9.3-1.3v-2.8zM345.2 91.9c-.3.8-.7 1.6-1 2.1-.3.6-.7 1.1-1.1 1.4-.4.4-.8.6-1.3.8-.5.2-1 .2-1.7.2-.3 0-.7 0-1-.1-.3 0-.7-.1-1-.2v-2.6c.2.1.5.2.8.3.3.1.6.1.8.1.6 0 1.1-.1 1.4-.4.4-.3.7-.7.9-1.2l1.2-2.9-6.8-17.1h3.2l5 14.1h.1l4.8-14.1h3l-7.3 19.6z"/>
  </g>
  <g>
    <path class="st3" d="M48 197.8h864v251.4H48z"/>
    <path class="st5" d="M48.7 145.1H68v4.7h-7.1v20.5h-5.1v-20.5h-7.1v-4.7zM79.7 156.2h-.9c-2.8 0-5.2.9-5.2 5v9.1h-4.9v-18.8h4.9v2.1c.8-1.3 2.6-2.4 5-2.4h1.1v5zM87.9 170.6c-3.4 0-6.5-2.2-6.5-5.9 0-3 2-5 5.3-5.5l5.7-.8v-.6c0-1.7-1.1-2.4-3-2.4-2.3 0-4.1.9-5.5 1.5l-1.9-3.7c2.2-1.2 4.9-2.1 7.6-2.1 3.5 0 7.6.9 7.6 6v8.1c0 1.1.6 1.5 1.6 1.9l-2.2 3.5c-1.8-.1-3-1.1-3.5-2.1-1.1 1.5-2.9 2.1-5.2 2.1zm.6-7.9c-1.2.2-2 .9-2 1.9 0 1.2.9 2.2 2.6 2.2 2.3 0 3.3-1.5 3.3-3.5V162l-3.9.7zM101.8 151.5h4.9v1.6c1-1 2.5-2 4.8-2 4.1 0 6.5 2.8 6.5 6.5v12.7h-4.9v-10.9c0-2.7-1.3-3.7-3-3.7-2 0-3.5 1.4-3.5 4.3v10.3h-4.9v-18.8zM123.9 164.2c1.3 1.3 3.6 2.3 5.5 2.3 1.5 0 2.7-.4 2.7-1.5 0-.9-.7-1.3-2.3-1.7-1.1-.3-3.1-.6-4.7-1.3-1.8-.8-3.3-2.3-3.3-4.9 0-4 3.6-6 7.7-6 3.2 0 5.9 1.2 7.5 2.7l-3.1 3.2c-1-.9-2.6-1.7-4.3-1.7-1.3 0-2.7.5-2.7 1.6 0 .9.8 1.2 2.2 1.5 2.3.6 4 1 5.4 1.7 1.5.8 2.6 2.4 2.6 4.5 0 4-3.4 6-7.6 6-3.1 0-6.6-1.2-8.5-2.8l2.9-3.6zM146.1 170.6c-3.4 0-6.5-2.2-6.5-5.9 0-3 2-5 5.3-5.5l5.7-.8v-.6c0-1.7-1.1-2.4-3-2.4-2.3 0-4.1.9-5.5 1.5l-1.9-3.7c2.2-1.2 4.9-2.1 7.6-2.1 3.5 0 7.6.9 7.6 6v8.1c0 1.1.6 1.5 1.6 1.9l-2.2 3.5c-1.8-.1-3-1.1-3.5-2.1-1.1 1.5-3 2.1-5.2 2.1zm.6-7.9c-1.2.2-2 .9-2 1.9 0 1.2.9 2.2 2.6 2.2 2.3 0 3.3-1.5 3.3-3.5V162l-3.9.7zM159 160.8c0-5.5 3.8-9.7 9.1-9.7 3.9 0 6.9 1.9 8.2 4.9l-4.3 2.2c-.7-1.5-1.8-2.6-3.7-2.6-3 0-4.2 2.7-4.2 5.2v.2c0 2.4 1.3 5.1 4.2 5.1 1.9 0 3-1 3.7-2.6l4.3 2.2c-1.2 3-4.4 4.9-8.2 4.9-5.3 0-9-4.2-9-9.7v-.1zM186.6 164.7c0 .9.4 1.6 2.1 1.6.7 0 1.9-.1 2.4-.2l.4 4.3s-2.4.3-4.5.3c-3.3 0-5.3-1.5-5.3-4.8v-10h-3.4v-4.4h3.4v-5.3l4.9-1.3v6.6h4.9v4.4h-4.9v8.8zM197.4 144.2c1.7 0 3.1 1.4 3.1 3.1s-1.4 3.1-3.1 3.1c-1.7 0-3.1-1.4-3.1-3.1s1.4-3.1 3.1-3.1zm2.4 26.1H195v-18.8h4.9v18.8zM221.9 160.9c0 5.6-3.7 9.8-9.3 9.8-5.5 0-9.2-4.2-9.2-9.8 0-5.5 3.7-9.8 9.2-9.8 5.6 0 9.3 4.2 9.3 9.8zm-5 0c0-3.1-1.5-5.3-4.3-5.3s-4.2 2.2-4.3 5.3c0 3.1 1.5 5.3 4.3 5.3s4.3-2.3 4.3-5.3zM225.5 151.5h4.9v1.6c1-1 2.5-2 4.8-2 4.1 0 6.5 2.8 6.5 6.5v12.7h-4.9v-10.9c0-2.7-1.3-3.7-3-3.7-2 0-3.5 1.4-3.5 4.3v10.3h-4.9v-18.8zM247.5 164.2c1.3 1.3 3.6 2.3 5.5 2.3 1.5 0 2.7-.4 2.7-1.5 0-.9-.7-1.3-2.3-1.7-1.1-.3-3.1-.6-4.7-1.3-1.8-.8-3.3-2.3-3.3-4.9 0-4 3.6-6 7.7-6 3.2 0 5.9 1.2 7.5 2.7l-3.1 3.2c-1-.9-2.6-1.7-4.3-1.7-1.3 0-2.7.5-2.7 1.6 0 .9.8 1.2 2.2 1.5 2.3.6 4 1 5.4 1.7 1.5.8 2.6 2.4 2.6 4.5 0 4-3.4 6-7.6 6-3.1 0-6.6-1.2-8.5-2.8l2.9-3.6zM200.1 482.5h7.6v2h-5.3v2.4h4.9v2h-4.9v2.7h5.6v2h-7.9v-11.1zM216.7 493.8h-2.2v-4.9c0-1.2-.6-1.6-1.3-1.6-.8 0-1.5.6-1.5 1.9v4.6h-2.2v-8.4h2.2v.7c.5-.6 1.3-.9 2.1-.9.9 0 1.7.3 2.2 1.1.6-.8 1.5-1.1 2.5-1.1 1.9 0 3 1.3 3 2.8v5.7h-2.2v-4.9c0-1.2-.6-1.6-1.3-1.6-.8 0-1.5.6-1.5 1.9v4.7zM225.9 493.9c-1.5 0-2.9-1-2.9-2.6 0-1.3.9-2.2 2.4-2.4l2.5-.4v-.3c0-.7-.5-1.1-1.3-1.1-1 0-1.8.4-2.5.7l-.8-1.7c1-.5 2.2-.9 3.4-.9 1.5 0 3.4.4 3.4 2.7v3.6c0 .5.3.7.7.9l-1 1.6c-.8-.1-1.3-.5-1.6-.9-.4.5-1.3.8-2.3.8zm.3-3.5c-.5.1-.9.4-.9.9s.4 1 1.1 1c1 0 1.5-.7 1.5-1.5v-.6l-1.7.2zM233.2 482.1c.8 0 1.4.6 1.4 1.4 0 .8-.6 1.4-1.4 1.4-.8 0-1.4-.6-1.4-1.4 0-.7.6-1.4 1.4-1.4zm1.1 11.7h-2.2v-8.4h2.2v8.4zM236.3 482.5h2.2v8.9c0 .4.2.5.6.5.3 0 .6 0 .8-.1l.2 1.8s-1 .1-1.8.1c-1.2 0-2-.6-2-1.8v-9.4zM246.9 493.9c-1.5 0-2.9-1-2.9-2.6 0-1.3.9-2.2 2.4-2.4l2.5-.4v-.3c0-.7-.5-1.1-1.3-1.1-1 0-1.8.4-2.5.7l-.8-1.7c1-.5 2.2-.9 3.4-.9 1.5 0 3.4.4 3.4 2.7v3.6c0 .5.3.7.7.9l-1 1.6c-.8-.1-1.3-.5-1.6-.9-.4.5-1.3.8-2.3.8zm.3-3.5c-.5.1-.9.4-.9.9s.4 1 1.1 1c1 0 1.5-.7 1.5-1.5v-.6l-1.7.2zM252.7 489.5c0-2.5 1.5-4.3 3.7-4.3 1 0 1.6.4 2.1.9v-3.6h2.2v11.2h-2.2v-.7c-.5.5-1.1.9-2.1.9-2.2 0-3.7-1.8-3.7-4.4zm5.9-.7c0-.9-.7-1.6-1.7-1.6-1.2 0-1.9 1-1.9 2.3v.1c0 1.3.7 2.3 1.9 2.3 1.1 0 1.7-.7 1.7-1.6v-1.5zM262.3 489.5c0-2.5 1.5-4.3 3.7-4.3 1 0 1.6.4 2.1.9v-3.6h2.2v11.2h-2.2v-.7c-.5.5-1.1.9-2.1.9-2.2 0-3.7-1.8-3.7-4.4zm5.8-.7c0-.9-.7-1.6-1.7-1.6-1.2 0-1.9 1-1.9 2.3v.1c0 1.3.7 2.3 1.9 2.3 1.1 0 1.7-.7 1.7-1.6v-1.5zM277.1 487.5h-.4c-1.2 0-2.3.4-2.3 2.2v4.1h-2.2v-8.4h2.2v.9c.4-.6 1.1-1.1 2.2-1.1h.5v2.3zM280.1 490.3c.2 1.1 1 1.6 2 1.6.8 0 1.6-.3 2.1-.8l1.1 1.6c-.7.6-1.9 1.1-3.2 1.1-2.3 0-4.2-1.6-4.2-4.3v-.1c0-2.5 1.7-4.3 4-4.3 2.2 0 3.8 1.7 3.8 4.1v1h-5.6zm0-1.6h3.4c0-.7-.5-1.6-1.6-1.6-1.2 0-1.7.8-1.8 1.6zM288 491.1c.6.6 1.6 1 2.4 1 .7 0 1.2-.2 1.2-.7 0-.4-.3-.6-1-.7-.5-.1-1.4-.3-2.1-.6-.8-.4-1.5-1-1.5-2.2 0-1.8 1.6-2.7 3.4-2.7 1.4 0 2.6.5 3.3 1.2l-1.4 1.4c-.4-.4-1.1-.8-1.9-.8-.6 0-1.2.2-1.2.7 0 .4.4.5 1 .7 1 .3 1.8.4 2.4.8.7.4 1.2 1.1 1.2 2 0 1.8-1.5 2.7-3.4 2.7-1.4 0-2.9-.5-3.8-1.3l1.4-1.5zM296.1 491.1c.6.6 1.6 1 2.4 1 .7 0 1.2-.2 1.2-.7 0-.4-.3-.6-1-.7-.5-.1-1.4-.3-2.1-.6-.8-.4-1.5-1-1.5-2.2 0-1.8 1.6-2.7 3.4-2.7 1.4 0 2.6.5 3.3 1.2l-1.4 1.4c-.4-.4-1.1-.8-1.9-.8-.6 0-1.2.2-1.2.7 0 .4.4.5 1 .7 1 .3 1.8.4 2.4.8.7.4 1.2 1.1 1.2 2 0 1.8-1.5 2.7-3.4 2.7-1.4 0-2.9-.5-3.8-1.3l1.4-1.5zM50.5 463.3h4.3c2.7 0 4.1 1.7 4.1 3.5 0 1.5-.9 2.7-2.2 3.1l2.4 4.6h-2.6l-2-4h-1.8v4h-2.3v-11.2zm4.2 2.1h-1.8v3.1h1.8c1.3 0 2-.6 2-1.5-.1-1-.7-1.6-2-1.6zM62.3 471.1c.2 1.1 1 1.6 2 1.6.8 0 1.6-.3 2.1-.8l1.1 1.6c-.7.6-1.9 1.1-3.2 1.1-2.3 0-4.2-1.6-4.2-4.3v-.1c0-2.5 1.7-4.3 4.1-4.3 2.2 0 3.8 1.7 3.8 4.1v1h-5.7zm0-1.6h3.4c0-.7-.5-1.6-1.6-1.6-1.2 0-1.7.8-1.8 1.6zM72.3 466.2h1.6v1.9h-1.6v6.4h-2.2v-6.4h-1.3v-1.9h1.3v-.9c0-1.5 1-2.1 2.5-2.1.8 0 1.5.1 1.7.1l-.2 1.8c-.3 0-.8-.1-1.1-.1-.6 0-.8.3-.8.6v.6zM77 471.1c.2 1.1 1 1.6 2 1.6.8 0 1.6-.3 2.1-.8l1.1 1.6c-.7.6-1.9 1.1-3.2 1.1-2.3 0-4.2-1.6-4.2-4.3v-.1c0-2.5 1.7-4.3 4.1-4.3 2.2 0 3.8 1.7 3.8 4.1v1H77zm0-1.6h3.4c0-.7-.5-1.6-1.6-1.6-1.2 0-1.7.8-1.8 1.6zM89 468.3h-.4c-1.2 0-2.3.4-2.3 2.2v4.1h-2.2v-8.4h2.2v.9c.4-.6 1.1-1.1 2.2-1.1h.5v2.3zM92 471.1c.2 1.1 1 1.6 2 1.6.8 0 1.6-.3 2.1-.8l1.1 1.6c-.7.6-1.9 1.1-3.2 1.1-2.3 0-4.2-1.6-4.2-4.3v-.1c0-2.5 1.7-4.3 4-4.3 2.2 0 3.8 1.7 3.8 4.1v1H92zm.1-1.6h3.4c0-.7-.5-1.6-1.7-1.6-1.1 0-1.7.8-1.7 1.6zM99.2 466.2h2.2v.7c.5-.5 1.1-.9 2.1-.9 1.8 0 2.9 1.3 2.9 2.9v5.7h-2.2v-4.9c0-1.2-.6-1.6-1.3-1.6-.9 0-1.6.6-1.6 1.9v4.6h-2.2v-8.4zM107.9 470.3c0-2.5 1.7-4.3 4-4.3 1.7 0 3.1.8 3.6 2.2l-1.9 1c-.3-.7-.8-1.1-1.7-1.1-1.3 0-1.9 1.2-1.9 2.3v.1c0 1.1.6 2.3 1.9 2.3.9 0 1.3-.4 1.7-1.1l1.9 1c-.5 1.3-2 2.2-3.7 2.2-2.2-.2-3.9-2-3.9-4.6zM118.8 471.1c.2 1.1 1 1.6 2 1.6.8 0 1.6-.3 2.1-.8l1.1 1.6c-.7.6-1.9 1.1-3.2 1.1-2.3 0-4.2-1.6-4.2-4.3v-.1c0-2.5 1.7-4.3 4.1-4.3 2.2 0 3.8 1.7 3.8 4.1v1h-5.7zm0-1.6h3.4c0-.7-.5-1.6-1.6-1.6-1.2 0-1.7.8-1.8 1.6zM50.3 485.4h2.2v.7c.5-.5 1.1-.9 2.1-.9 1.8 0 2.9 1.3 2.9 2.9v5.7h-2.2v-4.9c0-1.2-.6-1.6-1.3-1.6-.9 0-1.6.6-1.6 1.9v4.6h-2.2v-8.4zM66.6 493.8h-2.2v-.8c-.5.5-1.1.9-2.1.9-1.8 0-2.9-1.3-2.9-2.9v-5.7h2.2v4.9c0 1.2.6 1.6 1.3 1.6.9 0 1.6-.6 1.6-1.9v-4.6h2.2v8.5zM75.6 493.8h-2.2v-4.9c0-1.2-.6-1.6-1.3-1.6-.8 0-1.5.6-1.5 1.9v4.6h-2.2v-8.4h2.2v.7c.5-.6 1.3-.9 2.1-.9.9 0 1.7.3 2.2 1.1.6-.8 1.5-1.1 2.5-1.1 1.9 0 3 1.3 3 2.8v5.7h-2.2v-4.9c0-1.2-.6-1.6-1.3-1.6-.8 0-1.5.6-1.5 1.9v4.7zM90.5 489.6c0 2.5-1.5 4.3-3.7 4.3-1 0-1.6-.4-2.1-.9v.7h-2.2v-11.2h2.2v3.6c.5-.5 1.1-.9 2.1-.9 2.2 0 3.7 1.8 3.7 4.4zm-5.9.7c0 .9.7 1.6 1.7 1.6 1.2 0 1.9-1 1.9-2.3v-.1c0-1.3-.7-2.3-1.9-2.3-1.1 0-1.7.7-1.7 1.6v1.5zM93.9 490.3c.2 1.1 1 1.6 2 1.6.8 0 1.6-.3 2.1-.8l1.1 1.6c-.7.6-1.9 1.1-3.2 1.1-2.3 0-4.2-1.6-4.2-4.3v-.1c0-2.5 1.7-4.3 4-4.3 2.2 0 3.8 1.7 3.8 4.1v1h-5.6zm0-1.6h3.4c0-.7-.5-1.6-1.7-1.6-1.1 0-1.7.8-1.7 1.6zM105.9 487.5h-.4c-1.2 0-2.3.4-2.3 2.2v4.1H101v-8.4h2.2v.9c.4-.6 1.1-1.1 2.2-1.1h.5v2.3zM380.3 492H376l-.5 1.8H373l3.7-11.2h3l3.7 11.2h-2.5l-.6-1.8zm-3.7-2h3.1l-1.6-5.1-1.5 5.1zM391.7 493.8h-2.2v-4.9c0-1.2-.6-1.6-1.3-1.6-.8 0-1.5.6-1.5 1.9v4.6h-2.2v-8.4h2.2v.7c.5-.6 1.3-.9 2.1-.9.9 0 1.7.3 2.2 1.1.6-.8 1.5-1.1 2.5-1.1 1.9 0 3 1.3 3 2.8v5.7h-2.2v-4.9c0-1.2-.6-1.6-1.3-1.6-.8 0-1.5.6-1.5 1.9v4.7zM406.3 489.6c0 2.5-1.6 4.3-4.1 4.3-2.5 0-4.1-1.9-4.1-4.3 0-2.5 1.6-4.3 4.1-4.3 2.5-.1 4.1 1.8 4.1 4.3zm-2.2 0c0-1.4-.7-2.3-1.9-2.3s-1.9 1-1.9 2.3c0 1.4.7 2.3 1.9 2.3 1.3 0 1.9-1 1.9-2.3zM415 493.8h-2.2v-.8c-.5.5-1.1.9-2.1.9-1.8 0-2.9-1.3-2.9-2.9v-5.7h2.2v4.9c0 1.2.6 1.6 1.3 1.6.9 0 1.6-.6 1.6-1.9v-4.6h2.2v8.5zM417.1 485.4h2.2v.7c.5-.5 1.1-.9 2.1-.9 1.8 0 2.9 1.3 2.9 2.9v5.7h-2.2v-4.9c0-1.2-.6-1.6-1.3-1.6-.9 0-1.6.6-1.6 1.9v4.6H417v-8.4zM429.3 491.3c0 .4.2.7.9.7.3 0 .8 0 1.1-.1l.2 1.9s-1.1.1-2 .1c-1.5 0-2.4-.7-2.4-2.1v-4.5h-1.5v-1.9h1.5V483l2.2-.6v2.9h2.2v1.9h-2.2v4.1zM502.9 488.1c0-3.2 2-5.8 5.2-5.8 2.3 0 4 1.2 4.6 3.2l-2.2.7c-.2-.8-1.1-1.9-2.5-1.9-2 0-2.9 1.8-2.9 3.6v.1c0 1.8.9 3.7 2.9 3.7 1.4 0 2.2-1 2.5-1.9l2.2.7c-.7 1.9-2.3 3.2-4.7 3.2-3.1.2-5.1-2.3-5.1-5.6zM516.8 493.9c-1.5 0-2.9-1-2.9-2.6 0-1.3.9-2.2 2.4-2.4l2.5-.4v-.3c0-.7-.5-1.1-1.3-1.1-1 0-1.8.4-2.5.7l-.8-1.7c1-.5 2.2-.9 3.4-.9 1.5 0 3.4.4 3.4 2.7v3.6c0 .5.3.7.7.9l-1 1.6c-.8-.1-1.3-.5-1.6-.9-.5.5-1.3.8-2.3.8zm.2-3.5c-.5.1-.9.4-.9.9s.4 1 1.1 1c1 0 1.5-.7 1.5-1.5v-.6l-1.7.2zM527.8 487.5h-.4c-1.2 0-2.3.4-2.3 2.2v4.1h-2.2v-8.4h2.2v.9c.4-.6 1.1-1.1 2.2-1.1h.5v2.3zM528.6 489.5c0-2.5 1.5-4.3 3.7-4.3 1 0 1.6.4 2.1.9v-3.6h2.2v11.2h-2.2v-.7c-.5.5-1.1.9-2.1.9-2.2 0-3.7-1.8-3.7-4.4zm5.9-.7c0-.9-.7-1.6-1.7-1.6-1.2 0-1.9 1-1.9 2.3v.1c0 1.3.7 2.3 1.9 2.3 1.1 0 1.7-.7 1.7-1.6v-1.5zM545.2 491.3c0 .4.2.7.9.7.3 0 .8 0 1.1-.1l.2 1.9s-1.1.1-2 .1c-1.5 0-2.4-.7-2.4-2.1v-4.5h-1.5v-1.9h1.5V483l2.2-.6v2.9h2.2v1.9h-2.2v4.1zM550.7 494.1l.1-.3h-.2l-2.6-8.4h2.4l1.5 5.8 1.5-5.8h2.4L553 495c-.4 1.2-1.3 1.6-2.6 1.6-.5 0-1.4-.1-2-.2l.4-1.9s.6.1 1.2.1c.5 0 .7-.2.7-.5zM559.2 485.4v.7c.5-.5 1.1-.9 2.1-.9 2.2 0 3.7 1.8 3.7 4.3v.1c0 2.5-1.5 4.3-3.7 4.3-1 0-1.6-.4-2.1-.9v3.4H557v-11h2.2zm0 4.9c0 .9.7 1.6 1.7 1.6 1.2 0 1.9-1 1.9-2.3v-.1c0-1.3-.7-2.3-1.9-2.3-1.1 0-1.7.7-1.7 1.6v1.5zM568.4 490.3c.2 1.1 1 1.6 2 1.6.8 0 1.6-.3 2.1-.8l1.1 1.6c-.7.6-1.9 1.1-3.2 1.1-2.3 0-4.2-1.6-4.2-4.3v-.1c0-2.5 1.7-4.3 4-4.3 2.2 0 3.8 1.7 3.8 4.1v1h-5.6zm0-1.6h3.4c0-.7-.5-1.6-1.6-1.6-1.2 0-1.7.8-1.8 1.6z"/>
    <g>
      <path class="st5" d="M645.9 482.5h4.5c2.3 0 3.8 1.6 3.8 3.7s-1.6 3.7-3.9 3.7h-2v3.8H646v-11.2zm3.8 2.1h-1.6v3.3h1.6c1.2 0 2-.6 2-1.6v-.1c.1-1-.7-1.6-2-1.6zM657.8 493.9c-1.5 0-2.9-1-2.9-2.6 0-1.3.9-2.2 2.4-2.4l2.5-.4v-.3c0-.7-.5-1.1-1.3-1.1-1 0-1.8.4-2.5.7l-.8-1.7c1-.5 2.2-.9 3.4-.9 1.5 0 3.4.4 3.4 2.7v3.6c0 .5.3.7.7.9l-1 1.6c-.8-.1-1.3-.5-1.6-.9-.5.5-1.3.8-2.3.8zm.2-3.5c-.5.1-.9.4-.9.9s.4 1 1.1 1c1 0 1.5-.7 1.5-1.5v-.6l-1.7.2zM665.6 494.1l.1-.3h-.2l-2.6-8.4h2.4l1.5 5.8 1.5-5.8h2.4l-2.9 9.6c-.4 1.2-1.3 1.6-2.6 1.6-.5 0-1.4-.1-2-.2l.4-1.9s.6.1 1.2.1.8-.2.8-.5zM679 493.8h-2.2v-4.9c0-1.2-.6-1.6-1.3-1.6-.8 0-1.5.6-1.5 1.9v4.6h-2v-8.4h2.2v.7c.5-.6 1.3-.9 2.1-.9.9 0 1.7.3 2.2 1.1.6-.8 1.5-1.1 2.5-1.1 1.9 0 3 1.3 3 2.8v5.7h-2.2v-4.9c0-1.2-.6-1.6-1.3-1.6-.8 0-1.5.6-1.5 1.9v4.7zM687.7 490.3c.2 1.1 1 1.6 2 1.6.8 0 1.6-.3 2.1-.8l1.1 1.6c-.7.6-1.9 1.1-3.2 1.1-2.3 0-4.2-1.6-4.2-4.3v-.1c0-2.5 1.7-4.3 4.1-4.3 2.2 0 3.8 1.7 3.8 4.1v1h-5.7zm0-1.6h3.4c0-.7-.5-1.6-1.6-1.6-1.2 0-1.7.8-1.8 1.6zM694.9 485.4h2.2v.7c.5-.5 1.1-.9 2.1-.9 1.8 0 2.9 1.3 2.9 2.9v5.7h-2.2v-4.9c0-1.2-.6-1.6-1.3-1.6-.9 0-1.6.6-1.6 1.9v4.6h-2.2v-8.4zM707.1 491.3c0 .4.2.7.9.7.3 0 .8 0 1.1-.1l.2 1.9s-1.1.1-2 .1c-1.5 0-2.4-.7-2.4-2.1v-4.5h-1.5v-1.9h1.5V483l2.2-.6v2.9h2.2v1.9h-2.2v4.1zM715.4 491.1c.6.6 1.6 1 2.4 1 .7 0 1.2-.2 1.2-.7 0-.4-.3-.6-1-.7-.5-.1-1.4-.3-2.1-.6-.8-.4-1.5-1-1.5-2.2 0-1.8 1.6-2.7 3.4-2.7 1.4 0 2.6.5 3.3 1.2l-1.4 1.4c-.4-.4-1.1-.8-1.9-.8-.6 0-1.2.2-1.2.7 0 .4.4.5 1 .7 1 .3 1.8.4 2.4.8.7.4 1.2 1.1 1.2 2 0 1.8-1.5 2.7-3.4 2.7-1.4 0-2.9-.5-3.8-1.3l1.4-1.5zM725.9 491.3c0 .4.2.7.9.7.3 0 .8 0 1.1-.1l.2 1.9s-1.1.1-2 .1c-1.5 0-2.4-.7-2.4-2.1v-4.5h-1.5v-1.9h1.5V483l2.2-.6v2.9h2.2v1.9h-2.2v4.1zM732 493.9c-1.5 0-2.9-1-2.9-2.6 0-1.3.9-2.2 2.4-2.4l2.5-.4v-.3c0-.7-.5-1.1-1.3-1.1-1 0-1.8.4-2.5.7l-.8-1.7c1-.5 2.2-.9 3.4-.9 1.5 0 3.4.4 3.4 2.7v3.6c0 .5.3.7.7.9l-1 1.6c-.8-.1-1.3-.5-1.6-.9-.5.5-1.3.8-2.3.8zm.3-3.5c-.5.1-.9.4-.9.9s.4 1 1.1 1c1 0 1.5-.7 1.5-1.5v-.6l-1.7.2zM741.2 491.3c0 .4.2.7.9.7.3 0 .8 0 1.1-.1l.2 1.9s-1.1.1-2 .1c-1.5 0-2.4-.7-2.4-2.1v-4.5h-1.5v-1.9h1.5V483l2.2-.6v2.9h2.2v1.9h-2.2v4.1zM752 493.8h-2.2v-.8c-.5.5-1.1.9-2.1.9-1.8 0-2.9-1.3-2.9-2.9v-5.7h2.2v4.9c0 1.2.6 1.6 1.3 1.6.9 0 1.6-.6 1.6-1.9v-4.6h2.2v8.5zM754.7 491.1c.6.6 1.6 1 2.4 1 .7 0 1.2-.2 1.2-.7 0-.4-.3-.6-1-.7-.5-.1-1.4-.3-2.1-.6-.8-.4-1.5-1-1.5-2.2 0-1.8 1.6-2.7 3.4-2.7 1.4 0 2.6.5 3.3 1.2l-1.4 1.4c-.4-.4-1.1-.8-1.9-.8-.6 0-1.2.2-1.2.7 0 .4.4.5 1 .7 1 .3 1.8.4 2.4.8.7.4 1.2 1.1 1.2 2 0 1.8-1.5 2.7-3.4 2.7-1.4 0-2.9-.5-3.8-1.3l1.4-1.5z"/>
    </g>
    <g>
      <path class="st5" d="M826.9 493.8h-4.3v-11.2h4.3c3.6 0 5.3 2.2 5.3 5.6s-1.7 5.6-5.3 5.6zm3-5.9c0-1.9-.9-3.3-3.2-3.3H825v7.1h1.7c2.3 0 3.2-1.5 3.2-3.3v-.5zM836.3 493.9c-1.5 0-2.9-1-2.9-2.6 0-1.3.9-2.2 2.4-2.4l2.5-.4v-.3c0-.7-.5-1.1-1.3-1.1-1 0-1.8.4-2.5.7l-.8-1.7c1-.5 2.2-.9 3.4-.9 1.5 0 3.4.4 3.4 2.7v3.6c0 .5.3.7.7.9l-1 1.6c-.8-.1-1.3-.5-1.6-.9-.5.5-1.4.8-2.3.8zm.2-3.5c-.5.1-.9.4-.9.9s.4 1 1.1 1c1 0 1.5-.7 1.5-1.5v-.6l-1.7.2zM845.4 491.3c0 .4.2.7.9.7.3 0 .8 0 1.1-.1l.2 1.9s-1.1.1-2 .1c-1.5 0-2.4-.7-2.4-2.1v-4.5h-1.5v-1.9h1.5V483l2.2-.6v2.9h2.2v1.9h-2.2v4.1zM851 490.3c.2 1.1 1 1.6 2 1.6.8 0 1.6-.3 2.1-.8l1.1 1.6c-.7.6-1.9 1.1-3.2 1.1-2.3 0-4.2-1.6-4.2-4.3v-.1c0-2.5 1.7-4.3 4-4.3 2.2 0 3.8 1.7 3.8 4.1v1H851zm0-1.6h3.4c0-.7-.5-1.6-1.6-1.6-1.2 0-1.8.8-1.8 1.6z"/>
    </g>
    <path class="st8" d="M911.3 506.3h-863"/>
    <g>
      <path class="st5" d="M201.5 532.5h-1.3v-11.2h1.3v4.1c.5-.7 1.3-1.1 2.3-1.1 2.1 0 3.4 1.7 3.4 4.2 0 2.4-1.3 4.1-3.4 4.1-1 0-1.9-.4-2.3-1.1v1zm4.4-4c0-1.7-.8-2.9-2.3-2.9-1.4 0-2.1 1-2.1 2.3v1.3c0 1.3.7 2.3 2.1 2.3 1.5 0 2.3-1.3 2.3-3zM209.2 533.2h3.4v1.2h-3.4v-1.2zM215 524.5h1.3v.9c.5-.7 1.4-1.1 2.3-1.1 1.8 0 2.7 1.3 2.7 2.7v5.4H220v-5c0-1.4-.7-1.9-1.6-1.9-1 0-2 .7-2 2.2v4.7H215v-7.9zM230.7 528.5c0 2.4-1.5 4.1-3.7 4.1s-3.7-1.7-3.7-4.1c0-2.4 1.5-4.2 3.7-4.2s3.7 1.8 3.7 4.2zm-1.3.1c0-1.7-.8-3.1-2.3-3.1-1.5 0-2.3 1.4-2.3 3v.1c0 1.6.8 2.9 2.3 2.9 1.5 0 2.3-1.4 2.3-2.9zM236.9 525.7h-.2c-1.3 0-2.6.5-2.6 2.7v4.1h-1.3v-8h1.3v1.3c.4-.9 1.4-1.4 2.4-1.4h.4v1.3zM240.7 530.5c0 .5.1 1 1 1 .2 0 .8 0 1-.1l.1 1.2s-.8.1-1.4.1c-1.3 0-2-.5-2-1.9v-5.1h-1.5v-1.2h1.5v-2.6l1.3-.5v3.1h2.2v1.2h-2.2v4.8zM244.7 521.3h1.3v4.1c.5-.7 1.4-1.1 2.3-1.1 1.8 0 2.7 1.3 2.7 2.7v5.4h-1.3v-5c0-1.4-.7-1.9-1.6-1.9-1 0-2 .7-2 2.2v4.7h-1.3v-11.1zM255 521.4v-.1h1.3v11.2H255v-8.2h-2.1v-1.2h.2c1.5 0 1.9-.5 1.9-1.7zM260.3 529.6c.4 1.1 1.1 1.8 2.6 1.8 1.6 0 2.4-.9 2.4-2.1 0-1.2-.9-2-2.6-2h-.5v-1.2h.3c1.5 0 2.7-.5 2.7-1.9 0-1.3-1-1.9-2.2-1.9-1.2 0-2.1.7-2.5 1.7l-1.3-.5c.6-1.6 2.1-2.4 3.7-2.4 2 0 3.6 1.2 3.6 3 0 1.2-.7 2.3-2.1 2.6 1.6.3 2.3 1.4 2.3 2.7 0 2.2-1.8 3.2-3.9 3.2-1.8 0-3.3-.8-3.9-2.6l1.4-.4zM277.4 531.7c-.5.5-1.2 1-2.3 1-1.6 0-2.8-.9-2.8-2.4 0-1.2.8-2.1 2.1-2.3l2.8-.4v-.5c0-1.2-.8-1.6-1.8-1.6-.9 0-1.7.3-2.3.6l-.5-1c.9-.5 2-.7 2.9-.7 1.9 0 3 .9 3 2.5v3.9c0 .5.2.9.7.9 1.7 0 2.1-2.6 2.1-3.3 0-3.4-2.5-5.8-5.8-5.8s-5.9 2.7-5.9 5.9c0 3.3 2.7 5.9 5.9 5.9.9 0 1.8-.2 2.6-.6l.6.7c-1 .5-2.1.8-3.3.8-3.8 0-6.7-3-6.7-6.8s3.1-6.8 6.9-6.8c3.8 0 6.6 2.7 6.6 6.6 0 1.7-1 4.3-3 4.3-1.3.1-1.7-.6-1.8-.9zm-2.3-2.8c-.9.1-1.5.4-1.5 1.2 0 .9.8 1.4 1.6 1.4 1 0 2-.6 2-1.6v-1.4l-2.1.4zM284.6 521.3h1.3v4.1c.5-.7 1.4-1.1 2.3-1.1 1.8 0 2.7 1.3 2.7 2.7v5.4h-1.3v-5c0-1.4-.7-1.9-1.6-1.9-1 0-2 .7-2 2.2v4.7h-1.3v-11.1zM300.3 528.5c0 2.4-1.5 4.1-3.7 4.1s-3.7-1.7-3.7-4.1c0-2.4 1.5-4.2 3.7-4.2 2.2.1 3.7 1.8 3.7 4.2zm-1.4.1c0-1.7-.8-3.1-2.3-3.1s-2.3 1.4-2.3 3v.1c0 1.6.8 2.9 2.3 2.9s2.3-1.4 2.3-2.9zM304.3 530.5c0 .5.1 1 1 1 .2 0 .8 0 1-.1l.1 1.2s-.8.1-1.4.1c-1.3 0-2-.5-2-1.9v-5.1h-1.5v-1.2h1.5v-2.6l1.3-.5v3.1h2.2v1.2h-2.2v4.8zM314.3 532.5H313v-5c0-1.4-.7-1.9-1.6-1.9-.9 0-1.8.7-1.8 2.2v4.7h-1.3v-8h1.3v.9c.5-.7 1.2-1.1 2.1-1.1.7 0 1.7.4 2.2 1.3.6-1 1.5-1.3 2.4-1.3 1.7 0 2.7 1.3 2.7 2.7v5.5h-1.3v-5c0-1.4-.8-1.9-1.6-1.9-.9 0-1.8.7-1.8 2.2v4.7zM322.4 530.5c.6 0 1.1.5 1.1 1.1 0 .6-.5 1.1-1.1 1.1-.6 0-1.1-.5-1.1-1.1 0-.6.5-1.1 1.1-1.1zM326.7 530.5c.6 0 1.1.5 1.1 1.1 0 .6-.5 1.1-1.1 1.1-.6 0-1.1-.5-1.1-1.1 0-.6.5-1.1 1.1-1.1zM331.1 530.5c.6 0 1.1.5 1.1 1.1 0 .6-.5 1.1-1.1 1.1-.6 0-1.1-.5-1.1-1.1 0-.6.5-1.1 1.1-1.1z"/>
    </g>
    <g>
      <path class="st5" d="M51.1 530c.7.9 1.9 1.5 3.2 1.5 1.4 0 2.5-.7 2.5-2 0-.8-.4-1.3-1.1-1.6-1.1-.5-2.9-.6-4.1-1.3-.7-.4-1.3-1.1-1.3-2.3 0-1.7 1.4-3.1 3.8-3.1 1.4 0 2.8.6 3.7 1.5l-1 .8c-.6-.6-1.5-1.2-2.7-1.2-1.4 0-2.4.7-2.4 1.9 0 1.8 2.6 1.6 4.6 2.5 1 .4 1.9 1.2 1.9 2.7 0 2.2-2 3.3-4.1 3.3-1.9 0-3.2-.8-4.1-1.7l1.1-1zM60.7 521.3h3.8c2.1 0 3.7 1 3.7 3.3 0 1.4-.8 2.5-2.2 3.1l2.4 4.8h-1.6l-2.1-4.5h-2.6v4.5h-1.4v-11.2zm3.9 5.5c1.3 0 2.2-.8 2.2-2.1 0-1.4-.9-2.2-2.2-2.2h-2.5v4.3h2.5zM73 532.5l-3.3-11.2h1.5l2.7 9.9 2.8-9.9h1.5l-3.3 11.2H73zM79.8 526.8l.6-5.5h6.4v1.2h-5.3l-.3 3.2c.6-.6 1.5-.9 2.4-.9 2.1 0 3.7 1.6 3.7 3.8 0 2.4-1.6 4.1-4 4.1-1.8 0-3.4-.9-3.8-2.7l1.4-.2c.3.9 1 1.7 2.4 1.7 1.6 0 2.6-1.2 2.6-2.8 0-1.6-1-2.7-2.6-2.7-.8 0-1.7.4-2.1 1l-1.4-.2zM91 521.4v-.1h1.3v11.2H91v-8.2h-2.1v-1.2h.2c1.5 0 1.9-.5 1.9-1.7zM100.6 522.5h-6v-1.2h7.3v1.2l-4.5 10h-1.6l4.8-10zM109.2 522.5h-6v-1.2h7.3v1.2l-4.5 10h-1.6l4.8-10zM120.2 526.6c0 3-1.2 6.1-4.4 6.1-1.6 0-2.7-.7-3.3-1.8l1.4-.4c.5.7 1.1 1.1 2 1.1 2.1 0 3-2.2 3-4.5-.5.8-1.4 1.6-3 1.6-2.1 0-3.6-1.6-3.6-3.6 0-2.2 1.6-3.8 3.9-3.8 2.4 0 4.2 1.8 4.2 5.2v.1zm-4.2-4.3c-1.4 0-2.5 1-2.5 2.6s1 2.6 2.5 2.6 2.5-1 2.5-2.5c0-1.6-1-2.7-2.5-2.7zM122.3 532.5v-1.3c.8-.7 3.2-2.7 4-3.5.9-.8 1.7-1.8 1.7-3.1 0-1.4-.9-2.2-2.2-2.2-1.4 0-2.1 1-2.2 2.4l-1.4-.1c.1-2.2 1.5-3.5 3.6-3.5 2.2 0 3.7 1.3 3.7 3.5 0 1.6-.8 2.7-3.3 4.8l-2 1.7h5.5v1.2h-7.4z"/>
    </g>
    <g>
      <path class="st5" d="M380 523.3c-.4-.6-1-1-1.9-1-1.2 0-2 .9-2 2.4v1.8h2.6v1.2H376v3.7h5v1.2h-7.2v-1.2h.8v-3.7h-.8v-1.2h.8v-1.7c0-2.2 1.3-3.6 3.4-3.6 1.4 0 2.4.5 3 1.4l-1 .7zM388.2 532.5v-2.9h-5.6v-1.4l5.1-6.9h2v7.2h1.8v1.2h-1.8v2.9h-1.5zm0-4.1v-6l-4.3 6h4.3zM401.3 526.9c0 2.9-1.1 5.7-4.1 5.7-3 0-4.1-2.8-4.1-5.7 0-2.9 1.1-5.8 4.1-5.8 3.1 0 4.1 2.9 4.1 5.8zm-1.4.3v-.7c0-2.7-1-4.2-2.6-4.2s-2.6 1.5-2.6 4.2v.7c0 2.7 1 4.2 2.6 4.2 1.5.1 2.6-1.5 2.6-4.2zM404.4 530.5c.6 0 1.1.5 1.1 1.1 0 .6-.5 1.1-1.1 1.1-.6 0-1.1-.5-1.1-1.1 0-.6.5-1.1 1.1-1.1zM415.5 526.9c0 2.9-1.1 5.7-4.1 5.7-3 0-4.1-2.8-4.1-5.7 0-2.9 1.1-5.8 4.1-5.8 3.1 0 4.1 2.9 4.1 5.8zm-1.4.3v-.7c0-2.7-1-4.2-2.6-4.2s-2.6 1.5-2.6 4.2v.7c0 2.7 1 4.2 2.6 4.2 1.5.1 2.6-1.5 2.6-4.2zM425.8 526.9c0 2.9-1.1 5.7-4.1 5.7-3 0-4.1-2.8-4.1-5.7 0-2.9 1.1-5.8 4.1-5.8 3 0 4.1 2.9 4.1 5.8zm-1.5.3v-.7c0-2.7-1-4.2-2.6-4.2s-2.6 1.5-2.6 4.2v.7c0 2.7 1 4.2 2.6 4.2 1.6.1 2.6-1.5 2.6-4.2z"/>
    </g>
    <g>
      <path class="st5" d="M508.2 528.3l-3.3-11.2h1.5l2.7 9.9 2.8-9.9h1.5l-3.3 11.2h-1.9zM515.9 517.1c.5 0 1 .4 1 1 0 .5-.4 1-1 1-.5 0-1-.4-1-1s.4-1 1-1zm.6 11.2h-1.3v-8h1.3v8zM518.4 527.3l.8-.9c.5.4 1.3 1 2.4 1 .9 0 1.6-.4 1.6-1.2 0-.9-.9-1.1-2-1.3-1.1-.3-2.5-.7-2.5-2.3 0-1.3 1.2-2.3 2.9-2.3 1.1 0 2.2.4 2.8 1l-.8.9c-.5-.4-1.2-.8-2-.8-1.1 0-1.6.5-1.6 1.2 0 .6.4.9 1.2 1.1.4.1.9.3 1.3.4 1.1.3 2 .9 2 2.2 0 1.6-1.5 2.4-3 2.4-1-.3-2.2-.6-3.1-1.4zM528.8 528.4c-1.6 0-2.8-.9-2.8-2.4 0-1.2.8-2.1 2.1-2.3l2.8-.4v-.5c0-1.2-.8-1.6-1.8-1.6-.9 0-1.7.3-2.3.6l-.5-1c.9-.5 2-.7 2.9-.7 1.9 0 3 .9 3 2.5v3.7c0 .5.2.9.7 1.1l-.7.9c-.5-.1-.9-.5-1.1-1-.4.7-1.2 1.1-2.3 1.1zm0-3.7c-.9.1-1.5.4-1.5 1.2 0 .9.8 1.4 1.6 1.4 1 0 2-.6 2-1.6v-1.4l-2.1.4z"/>
    </g>
    <g>
      <path class="st5" d="M646.2 521.3h1.4v11.2h-1.4v-11.2zM650.4 524.5h1.3v.9c.5-.7 1.4-1.1 2.3-1.1 1.8 0 2.7 1.3 2.7 2.7v5.4h-1.3v-5c0-1.4-.7-1.9-1.6-1.9-1 0-2 .7-2 2.2v4.7h-1.3v-7.9zM664.7 524.5v.9c.5-.7 1.3-1.1 2.3-1.1 2.1 0 3.4 1.7 3.4 4.2 0 2.4-1.3 4.1-3.4 4.1-1 0-1.9-.4-2.3-1.1v3.3h-1.3v-10.4h1.3zm4.4 4c0-1.7-.8-2.9-2.3-2.9-1.4 0-2.1 1-2.1 2.3v1.3c0 1.3.7 2.3 2.1 2.3 1.5 0 2.3-1.3 2.3-3zM676.6 525.7h-.2c-1.3 0-2.6.5-2.6 2.7v4.1h-1.3v-8h1.3v1.3c.4-.9 1.4-1.4 2.4-1.4h.4v1.3zM685 528.5c0 2.4-1.5 4.1-3.7 4.1s-3.7-1.7-3.7-4.1c0-2.4 1.5-4.2 3.7-4.2 2.2.1 3.7 1.8 3.7 4.2zm-1.4.1c0-1.7-.8-3.1-2.3-3.1s-2.3 1.4-2.3 3v.1c0 1.6.8 2.9 2.3 2.9s2.3-1.4 2.3-2.9zM689.9 524.4c.9 0 1.7.3 2.3 1.1v-.9h1.3v8.1c0 2-1.7 2.6-3.4 2.6-.9 0-2.1-.2-3-.6l.4-1.1c.6.3 1.6.6 2.5.6 1.3 0 2.1-.5 2.1-1.7V531c-.5.8-1.4 1.1-2.3 1.1-2 0-3.2-1.6-3.2-3.7 0-2.4 1.3-4 3.3-4zm2.3 3.6c0-1.4-.6-2.5-2-2.5-1.5 0-2.1 1.1-2.1 2.5v.1c0 1.4.7 2.5 2.1 2.5 1.4 0 2-1.1 2-2.6zM700.1 525.7h-.2c-1.3 0-2.6.5-2.6 2.7v4.1H696v-8h1.3v1.3c.4-.9 1.4-1.4 2.4-1.4h.4v1.3zM702.5 528.9c.1 1.5 1 2.6 2.5 2.6.9 0 1.5-.3 2.1-.8l.7.9c-.7.6-1.7 1-2.8 1-2.3 0-3.8-1.7-3.8-4.1 0-2.4 1.4-4.2 3.6-4.2 2.1 0 3.4 1.7 3.4 4.1v.4h-5.7zm0-1h4.2c0-1.2-.7-2.4-2-2.4s-2.1 1.1-2.2 2.4zM709.4 531.5l.8-.9c.5.4 1.3 1 2.4 1 .9 0 1.6-.4 1.6-1.2 0-.9-.9-1.1-2-1.3-1.1-.3-2.5-.7-2.5-2.3 0-1.3 1.2-2.3 2.9-2.3 1.1 0 2.2.4 2.8 1l-.8.9c-.5-.4-1.2-.8-2-.8-1.1 0-1.6.5-1.6 1.2 0 .6.4.9 1.2 1.1.4.1.9.3 1.3.4 1.1.3 2 .9 2 2.2 0 1.6-1.5 2.4-3 2.4-1-.2-2.2-.6-3.1-1.4zM717 531.5l.8-.9c.5.4 1.3 1 2.4 1 .9 0 1.6-.4 1.6-1.2 0-.9-.9-1.1-2-1.3-1.1-.3-2.5-.7-2.5-2.3 0-1.3 1.2-2.3 2.9-2.3 1.1 0 2.2.4 2.8 1l-.8.9c-.5-.4-1.2-.8-2-.8-1.1 0-1.6.5-1.6 1.2 0 .6.4.9 1.2 1.1.4.1.9.3 1.3.4 1.1.3 2 .9 2 2.2 0 1.6-1.5 2.4-3 2.4-1.1-.2-2.3-.6-3.1-1.4z"/>
    </g>
    <g>
      <path class="st5" d="M824.3 521.4v-.1h1.3v11.2h-1.4v-8.2h-2.1v-1.2h.2c1.5 0 2-.5 2-1.7zM841.7 521.3h1.7v11.2H842V523l-3.8 5.2-3.8-5.1v9.5H833v-11.2h1.7l3.5 4.8 3.5-4.9zM848.4 532.7c-1.6 0-2.8-.9-2.8-2.4 0-1.2.8-2.1 2.1-2.3l2.8-.4v-.5c0-1.2-.8-1.6-1.8-1.6-.9 0-1.7.3-2.3.6l-.5-1c.9-.5 2-.7 2.9-.7 1.9 0 3 .9 3 2.5v3.7c0 .5.2.9.7 1.1l-.7.9c-.5-.1-.9-.5-1.1-1-.4.6-1.2 1.1-2.3 1.1zm0-3.8c-.9.1-1.5.4-1.5 1.2 0 .9.8 1.4 1.6 1.4 1 0 2-.6 2-1.6v-1.4l-2.1.4zM853.5 524.5h1.5l2 6.6 1.9-6.6h1.5l-2.9 9.2c-.4 1.1-1.1 1.4-2.1 1.4-.4 0-.9 0-1.4-.1l.2-1.2s.5.1 1.1.1c.6 0 .9-.2 1-.8l.1-.4-2.9-8.2zM865.7 532.5v-1.3c.8-.7 3.2-2.7 4-3.5.9-.8 1.7-1.8 1.7-3.1 0-1.4-.9-2.2-2.2-2.2-1.4 0-2.1 1-2.2 2.4l-1.4-.1c.1-2.2 1.5-3.5 3.6-3.5 2.2 0 3.7 1.3 3.7 3.5 0 1.6-.8 2.7-3.3 4.8l-2 1.7h5.5v1.2h-7.4zM883.2 526.9c0 2.9-1.1 5.7-4.1 5.7-3 0-4.1-2.8-4.1-5.7 0-2.9 1.1-5.8 4.1-5.8 3.1 0 4.1 2.9 4.1 5.8zm-1.4.3v-.7c0-2.7-1-4.2-2.6-4.2s-2.6 1.5-2.6 4.2v.7c0 2.7 1 4.2 2.6 4.2 1.5.1 2.6-1.5 2.6-4.2zM887.1 521.4v-.1h1.3v11.2H887v-8.2h-2v-1.2h.2c1.5 0 1.9-.5 1.9-1.7zM896.7 522.5h-6v-1.2h7.3v1.2l-4.5 10H892l4.7-10zM904 527.2h3.4v1.2H904v-1.2zM824.3 540.6v-.1h1.3v11.2h-1.4v-8.2h-2.1v-1.2h.2c1.5 0 2-.5 2-1.7zM836.4 546.1c0 2.9-1.1 5.7-4.1 5.7-3 0-4.1-2.8-4.1-5.7 0-2.9 1.1-5.8 4.1-5.8 3 0 4.1 2.9 4.1 5.8zm-1.5.3v-.7c0-2.7-1-4.2-2.6-4.2s-2.6 1.5-2.6 4.2v.7c0 2.7 1 4.2 2.6 4.2 1.6.1 2.6-1.5 2.6-4.2zM839.6 543.7c.6 0 1.1.5 1.1 1.1 0 .6-.5 1.1-1.1 1.1-.6 0-1.1-.5-1.1-1.1 0-.6.5-1.1 1.1-1.1zm0 6c.6 0 1.1.5 1.1 1.1 0 .6-.5 1.1-1.1 1.1-.6 0-1.1-.5-1.1-1.1 0-.6.5-1.1 1.1-1.1zM844.6 540.6v-.1h1.3v11.2h-1.4v-8.2h-2.1v-1.2h.2c1.6 0 2-.5 2-1.7zM848.8 546l.6-5.5h6.4v1.2h-5.3l-.3 3.2c.6-.6 1.5-.9 2.4-.9 2.1 0 3.7 1.6 3.7 3.8 0 2.4-1.6 4.1-4 4.1-1.8 0-3.4-.9-3.8-2.7l1.4-.2c.3.9 1 1.7 2.4 1.7 1.6 0 2.6-1.2 2.6-2.8 0-1.6-1-2.7-2.6-2.7-.8 0-1.7.4-2.1 1l-1.4-.2z"/>
    </g>
    <path class="st8" d="M912 562.4H48.9"/>
    <g>
      <path class="st5" d="M200.1 576.3h1.3v9.4c0 .5.2.8.8.8h.8l.1 1.1s-.8.1-1.3.1c-.9 0-1.7-.4-1.7-1.6v-9.8zM203.6 579.5h1.5l2 6.6 1.9-6.6h1.5l-2.9 9.2c-.4 1.1-1.1 1.4-2.1 1.4-.4 0-.9 0-1.4-.1l.2-1.2s.5.1 1.1.1c.6 0 .9-.2 1-.8l.1-.4-2.9-8.2zM218.1 587.5h-1.3v-5c0-1.4-.7-1.9-1.6-1.9-.9 0-1.8.7-1.8 2.2v4.7h-1.3v-8h1.3v.9c.5-.7 1.2-1.1 2.1-1.1.7 0 1.7.4 2.2 1.3.6-1 1.5-1.3 2.4-1.3 1.7 0 2.7 1.3 2.7 2.7v5.5h-1.3v-5c0-1.4-.8-1.9-1.6-1.9-.9 0-1.8.7-1.8 2.2v4.7zM227.5 587.7c-1.6 0-2.8-.9-2.8-2.4 0-1.2.8-2.1 2.1-2.3l2.8-.4v-.5c0-1.2-.8-1.6-1.8-1.6-.9 0-1.7.3-2.3.6l-.5-1c.9-.5 2-.7 2.9-.7 1.9 0 3 .9 3 2.5v3.7c0 .5.2.9.7 1.1l-.7.9c-.5-.1-.9-.5-1.1-1-.5.6-1.2 1.1-2.3 1.1zm0-3.8c-.9.1-1.5.4-1.5 1.2 0 .9.8 1.4 1.6 1.4 1 0 2-.6 2-1.6v-1.4l-2.1.4zM233.5 579.5h1.3v.9c.5-.7 1.4-1.1 2.3-1.1 1.8 0 2.7 1.3 2.7 2.7v5.4h-1.3v-5c0-1.4-.7-1.9-1.6-1.9-1 0-2 .7-2 2.2v4.7h-1.3v-7.9zM243.2 585.5c.6 0 1.1.5 1.1 1.1 0 .6-.5 1.1-1.1 1.1-.6 0-1.1-.5-1.1-1.1 0-.6.5-1.1 1.1-1.1zM246 586.5l.8-.9c.5.4 1.3 1 2.4 1 .9 0 1.6-.4 1.6-1.2 0-.9-.9-1.1-2-1.3-1.1-.3-2.5-.7-2.5-2.3 0-1.3 1.2-2.3 2.9-2.3 1.1 0 2.2.4 2.8 1l-.8.9c-.5-.4-1.2-.8-2-.8-1.1 0-1.6.5-1.6 1.2 0 .6.4.9 1.2 1.1.4.1.9.3 1.3.4 1.1.3 2 .9 2 2.2 0 1.6-1.5 2.4-3 2.4-1-.2-2.2-.6-3.1-1.4zM256.4 587.7c-1.6 0-2.8-.9-2.8-2.4 0-1.2.8-2.1 2.1-2.3l2.8-.4v-.5c0-1.2-.8-1.6-1.8-1.6-.9 0-1.7.3-2.3.6l-.5-1c.9-.5 2-.7 2.9-.7 1.9 0 3 .9 3 2.5v3.7c0 .5.2.9.7 1.1l-.7.9c-.5-.1-.9-.5-1.1-1-.5.6-1.2 1.1-2.3 1.1zm0-3.8c-.9.1-1.5.4-1.5 1.2 0 .9.8 1.4 1.6 1.4 1 0 2-.6 2-1.6v-1.4l-2.1.4zM266.5 580.7h-.2c-1.3 0-2.6.5-2.6 2.7v4.1h-1.3v-8h1.3v1.3c.4-.9 1.4-1.4 2.4-1.4h.4v1.3zM270.4 587.7c-1.6 0-2.8-.9-2.8-2.4 0-1.2.8-2.1 2.1-2.3l2.8-.4v-.5c0-1.2-.8-1.6-1.8-1.6-.9 0-1.7.3-2.3.6l-.5-1c.9-.5 2-.7 2.9-.7 1.9 0 3 .9 3 2.5v3.7c0 .5.2.9.7 1.1l-.7.9c-.5-.1-.9-.5-1.1-1-.5.6-1.3 1.1-2.3 1.1zm0-3.8c-.9.1-1.5.4-1.5 1.2 0 .9.8 1.4 1.6 1.4 1 0 2-.6 2-1.6v-1.4l-2.1.4zM276.4 576.3h1.3v4.1c.5-.7 1.4-1.1 2.3-1.1 1.8 0 2.7 1.3 2.7 2.7v5.4h-1.3v-5c0-1.4-.7-1.9-1.6-1.9-1 0-2 .7-2 2.2v4.7h-1.3v-11.1zM285 582.2c0-3 1.2-6.1 4.5-6.1 1.6 0 2.7.7 3.3 1.8l-1.4.4c-.5-.7-1.1-1.1-2-1.1-2.1 0-3 2.2-3 4.5.5-.8 1.4-1.6 3-1.6 2.1 0 3.6 1.6 3.6 3.7 0 2.2-1.6 3.8-3.9 3.8-2.4 0-4.2-1.8-4.2-5.2v-.2zm4.1 4.3c1.4 0 2.5-1 2.5-2.6s-1-2.6-2.5-2.6-2.5 1-2.5 2.5c0 1.6 1.1 2.7 2.5 2.7zM303.1 581.9c0 2.9-1.1 5.7-4.1 5.7-3 0-4.1-2.8-4.1-5.7 0-2.9 1.1-5.8 4.1-5.8 3.1 0 4.1 2.9 4.1 5.8zm-1.4.3v-.7c0-2.7-1-4.2-2.6-4.2s-2.6 1.5-2.6 4.2v.7c0 2.7 1 4.2 2.6 4.2 1.5.1 2.6-1.5 2.6-4.2zM313.8 586.7c-.5.5-1.2 1-2.3 1-1.6 0-2.8-.9-2.8-2.4 0-1.2.8-2.1 2.1-2.3l2.8-.4v-.5c0-1.2-.8-1.6-1.8-1.6-.9 0-1.7.3-2.3.6l-.5-1c.9-.5 2-.7 2.9-.7 1.9 0 3 .9 3 2.5v3.9c0 .5.2.9.7.9 1.7 0 2.1-2.6 2.1-3.3 0-3.4-2.5-5.8-5.8-5.8s-5.9 2.7-5.9 5.9c0 3.3 2.7 5.9 5.9 5.9.9 0 1.8-.2 2.6-.6l.6.7c-1 .5-2.1.8-3.3.8-3.8 0-6.7-3-6.7-6.8s3.1-6.8 6.9-6.8c3.8 0 6.6 2.7 6.6 6.6 0 1.7-1 4.3-3 4.3-1.2.1-1.6-.6-1.8-.9zm-2.3-2.8c-.9.1-1.5.4-1.5 1.2 0 .9.8 1.4 1.6 1.4 1 0 2-.6 2-1.6v-1.4l-2.1.4zM321.9 585.5c.6 0 1.1.5 1.1 1.1 0 .6-.5 1.1-1.1 1.1-.6 0-1.1-.5-1.1-1.1 0-.6.5-1.1 1.1-1.1zM326.2 585.5c.6 0 1.1.5 1.1 1.1 0 .6-.5 1.1-1.1 1.1-.6 0-1.1-.5-1.1-1.1.1-.6.6-1.1 1.1-1.1zM330.6 585.5c.6 0 1.1.5 1.1 1.1 0 .6-.5 1.1-1.1 1.1-.6 0-1.1-.5-1.1-1.1 0-.6.5-1.1 1.1-1.1z"/>
    </g>
    <g>
      <path class="st5" d="M51.1 585c.7.9 1.9 1.5 3.2 1.5 1.4 0 2.5-.7 2.5-2 0-.8-.4-1.3-1.1-1.6-1.1-.5-2.9-.6-4.1-1.3-.7-.4-1.3-1.1-1.3-2.3 0-1.7 1.4-3.1 3.8-3.1 1.4 0 2.8.6 3.7 1.5l-1 .8c-.6-.6-1.5-1.2-2.7-1.2-1.4 0-2.4.7-2.4 1.9 0 1.8 2.6 1.6 4.6 2.5 1 .4 1.9 1.2 1.9 2.7 0 2.2-2 3.3-4.1 3.3-1.9 0-3.2-.8-4.1-1.7l1.1-1zM60.7 576.3h3.8c2.1 0 3.7 1 3.7 3.3 0 1.4-.8 2.5-2.2 3.1l2.4 4.8h-1.6l-2.1-4.5h-2.6v4.5h-1.4v-11.2zm3.9 5.5c1.3 0 2.2-.8 2.2-2.1 0-1.4-.9-2.2-2.2-2.2h-2.5v4.3h2.5zM73 587.5l-3.3-11.2h1.5l2.7 9.9 2.8-9.9h1.5l-3.3 11.2H73zM79.8 581.8l.6-5.5h6.4v1.2h-5.3l-.3 3.2c.6-.6 1.5-.9 2.4-.9 2.1 0 3.7 1.6 3.7 3.8 0 2.4-1.6 4.1-4 4.1-1.8 0-3.4-.9-3.8-2.7l1.4-.2c.3.9 1 1.7 2.4 1.7 1.6 0 2.6-1.2 2.6-2.8 0-1.6-1-2.7-2.6-2.7-.8 0-1.7.4-2.1 1l-1.4-.2zM91 576.4v-.1h1.3v11.2H91v-8.2h-2.1v-1.2h.2c1.5 0 1.9-.5 1.9-1.7zM100.6 577.5h-6v-1.2h7.3v1.2l-4.5 10h-1.6l4.8-10zM109.2 577.5h-6v-1.2h7.3v1.2l-4.5 10h-1.6l4.8-10zM120.2 581.6c0 3-1.2 6.1-4.4 6.1-1.6 0-2.7-.7-3.3-1.8l1.4-.4c.5.7 1.1 1.1 2 1.1 2.1 0 3-2.2 3-4.5-.5.8-1.4 1.6-3 1.6-2.1 0-3.6-1.6-3.6-3.6 0-2.2 1.6-3.8 3.9-3.8 2.4 0 4.2 1.8 4.2 5.2v.1zm-4.2-4.3c-1.4 0-2.5 1-2.5 2.6s1 2.6 2.5 2.6 2.5-1 2.5-2.5c0-1.6-1-2.7-2.5-2.7zM124 576.4v-.1h1.3v11.2H124v-8.2h-2.1v-1.2h.2c1.5 0 1.9-.5 1.9-1.7z"/>
    </g>
    <g>
      <path class="st5" d="M380 578.3c-.4-.6-1-1-1.9-1-1.2 0-2 .9-2 2.4v1.8h2.6v1.2H376v3.7h5v1.2h-7.2v-1.2h.8v-3.7h-.8v-1.2h.8v-1.7c0-2.2 1.3-3.6 3.4-3.6 1.4 0 2.4.5 3 1.4l-1 .7zM390.7 579.2c0 1-.5 2.1-1.9 2.5 1.6.4 2.2 1.7 2.2 2.8 0 2-2 3.1-4 3.1s-4-1.1-4-3.1c0-1.2.7-2.4 2.2-2.8-1.4-.4-1.9-1.5-1.9-2.5 0-1.9 1.8-3 3.7-3 2-.1 3.7 1 3.7 3zm-1.1 5.2c0-1.4-1.2-2-2.6-2-1.4 0-2.6.7-2.6 2 0 1.4 1.2 2 2.6 2 1.4.1 2.6-.6 2.6-2zm-.2-5.1c0-1.2-1.1-1.9-2.3-1.9-1.2 0-2.3.7-2.3 1.9s1 1.9 2.3 1.9c1.2-.1 2.3-.8 2.3-1.9zM401.2 581.9c0 2.9-1.1 5.7-4.1 5.7-3 0-4.1-2.8-4.1-5.7 0-2.9 1.1-5.8 4.1-5.8 3 0 4.1 2.9 4.1 5.8zm-1.5.3v-.7c0-2.7-1-4.2-2.6-4.2s-2.6 1.5-2.6 4.2v.7c0 2.7 1 4.2 2.6 4.2 1.6.1 2.6-1.5 2.6-4.2zM404.2 585.5c.6 0 1.1.5 1.1 1.1 0 .6-.5 1.1-1.1 1.1-.6 0-1.1-.5-1.1-1.1.1-.6.5-1.1 1.1-1.1zM415.4 581.9c0 2.9-1.1 5.7-4.1 5.7-3 0-4.1-2.8-4.1-5.7 0-2.9 1.1-5.8 4.1-5.8 3 0 4.1 2.9 4.1 5.8zm-1.5.3v-.7c0-2.7-1-4.2-2.6-4.2s-2.6 1.5-2.6 4.2v.7c0 2.7 1 4.2 2.6 4.2 1.6.1 2.6-1.5 2.6-4.2zM425.6 581.9c0 2.9-1.1 5.7-4.1 5.7-3 0-4.1-2.8-4.1-5.7 0-2.9 1.1-5.8 4.1-5.8 3.1 0 4.1 2.9 4.1 5.8zm-1.4.3v-.7c0-2.7-1-4.2-2.6-4.2s-2.6 1.5-2.6 4.2v.7c0 2.7 1 4.2 2.6 4.2 1.5.1 2.6-1.5 2.6-4.2z"/>
    </g>
    <g>
      <path class="st5" d="M514.6 574.9h1.7v11.2h-1.4v-9.5l-3.8 5.2-3.8-5.1v9.5h-1.4V575h1.7l3.5 4.8 3.5-4.9zM521.2 586.3c-1.6 0-2.8-.9-2.8-2.4 0-1.2.8-2.1 2.1-2.3l2.8-.4v-.5c0-1.2-.8-1.6-1.8-1.6-.9 0-1.7.3-2.3.6l-.5-1c.9-.5 2-.7 2.9-.7 1.9 0 3 .9 3 2.5v3.7c0 .5.2.9.7 1.1l-.7.9c-.5-.1-.9-.5-1.1-1-.4.7-1.2 1.1-2.3 1.1zm0-3.7c-.9.1-1.5.4-1.5 1.2 0 .9.8 1.4 1.6 1.4 1 0 2-.6 2-1.6v-1.4l-2.1.4zM526.5 585.1l.8-.9c.5.4 1.3 1 2.4 1 .9 0 1.6-.4 1.6-1.2 0-.9-.9-1.1-2-1.3-1.1-.3-2.5-.7-2.5-2.3 0-1.3 1.2-2.3 2.9-2.3 1.1 0 2.2.4 2.8 1l-.8.9c-.5-.4-1.2-.8-2-.8-1.1 0-1.6.5-1.6 1.2 0 .6.4.9 1.2 1.1.4.1.9.3 1.3.4 1.1.3 2 .9 2 2.2 0 1.6-1.5 2.4-3 2.4-1-.2-2.2-.6-3.1-1.4zM536.8 584.1c0 .5.1 1 1 1 .2 0 .8 0 1-.1l.1 1.2s-.8.1-1.4.1c-1.3 0-2-.5-2-1.9v-5.1H534v-1.2h1.5v-2.6l1.3-.5v3.1h2.2v1.2h-2.2v4.8zM541.7 582.5c.1 1.5 1 2.6 2.5 2.6.9 0 1.5-.3 2.1-.8l.7.9c-.7.6-1.7 1-2.8 1-2.3 0-3.8-1.7-3.8-4.1 0-2.4 1.4-4.2 3.6-4.2 2.1 0 3.4 1.7 3.4 4.1v.4h-5.7zm0-1h4.2c0-1.2-.7-2.4-2-2.4s-2.1 1.2-2.2 2.4zM553.4 579.3h-.2c-1.3 0-2.6.5-2.6 2.7v4.1h-1.3v-8h1.3v1.3c.4-.9 1.4-1.4 2.4-1.4h.4v1.3zM555.8 582.2c0 1.6.8 3 2.3 3 1 0 1.7-.6 2.1-1.3l1.1.6c-.5 1.1-1.7 1.9-3.2 1.9-2.2 0-3.7-1.7-3.7-4.1 0-2.4 1.5-4.2 3.7-4.2 1.4 0 2.6.7 3.2 1.9l-1.1.6c-.4-.8-1.1-1.3-2.1-1.3-1.5-.2-2.3 1.2-2.3 2.9zM565.4 586.3c-1.6 0-2.8-.9-2.8-2.4 0-1.2.8-2.1 2.1-2.3l2.8-.4v-.5c0-1.2-.8-1.6-1.8-1.6-.9 0-1.7.3-2.3.6l-.5-1c.9-.5 2-.7 2.9-.7 1.9 0 3 .9 3 2.5v3.7c0 .5.2.9.7 1.1l-.7.9c-.5-.1-.9-.5-1.1-1-.4.7-1.2 1.1-2.3 1.1zm0-3.7c-.9.1-1.5.4-1.5 1.2 0 .9.8 1.4 1.6 1.4 1 0 2-.6 2-1.6v-1.4l-2.1.4zM575.5 579.3h-.2c-1.3 0-2.6.5-2.6 2.7v4.1h-1.3v-8h1.3v1.3c.4-.9 1.4-1.4 2.4-1.4h.4v1.3zM582.3 585.2c-.5.7-1.3 1.1-2.3 1.1-2.1 0-3.4-1.7-3.4-4.1 0-2.4 1.3-4.2 3.4-4.2 1 0 1.9.4 2.3 1.1V575h1.3v11.2h-1.3v-1zm-4.4-3c0 1.7.8 2.9 2.3 2.9 1.4 0 2.1-1 2.1-2.3v-1.3c0-1.3-.7-2.3-2.1-2.3-1.5-.1-2.3 1.2-2.3 3z"/>
    </g>
    <g>
      <path class="st5" d="M646.2 576.3h1.4v11.2h-1.4v-11.2zM650.4 579.5h1.3v.9c.5-.7 1.4-1.1 2.3-1.1 1.8 0 2.7 1.3 2.7 2.7v5.4h-1.3v-5c0-1.4-.7-1.9-1.6-1.9-1 0-2 .7-2 2.2v4.7h-1.3v-7.9zM664.7 579.5v.9c.5-.7 1.3-1.1 2.3-1.1 2.1 0 3.4 1.7 3.4 4.2 0 2.4-1.3 4.1-3.4 4.1-1 0-1.9-.4-2.3-1.1v3.3h-1.3v-10.4h1.3zm4.4 4c0-1.7-.8-2.9-2.3-2.9-1.4 0-2.1 1-2.1 2.3v1.3c0 1.3.7 2.3 2.1 2.3 1.5 0 2.3-1.3 2.3-3zM676.6 580.7h-.2c-1.3 0-2.6.5-2.6 2.7v4.1h-1.3v-8h1.3v1.3c.4-.9 1.4-1.4 2.4-1.4h.4v1.3zM685 583.5c0 2.4-1.5 4.1-3.7 4.1s-3.7-1.7-3.7-4.1c0-2.4 1.5-4.2 3.7-4.2s3.7 1.8 3.7 4.2zm-1.4.1c0-1.7-.8-3.1-2.3-3.1s-2.3 1.4-2.3 3v.1c0 1.6.8 2.9 2.3 2.9s2.3-1.4 2.3-2.9zM689.9 579.3c.9 0 1.7.3 2.3 1.1v-.9h1.3v8.1c0 2-1.7 2.6-3.4 2.6-.9 0-2.1-.2-3-.6l.4-1.1c.6.3 1.6.6 2.5.6 1.3 0 2.1-.5 2.1-1.7v-1.5c-.5.8-1.4 1.1-2.3 1.1-2 0-3.2-1.6-3.2-3.7s1.3-4 3.3-4zm2.3 3.7c0-1.4-.6-2.5-2-2.5-1.5 0-2.1 1.1-2.1 2.5v.1c0 1.4.7 2.5 2.1 2.5 1.4 0 2-1.1 2-2.6zM700.1 580.7h-.2c-1.3 0-2.6.5-2.6 2.7v4.1H696v-8h1.3v1.3c.4-.9 1.4-1.4 2.4-1.4h.4v1.3zM702.5 583.9c.1 1.5 1 2.6 2.5 2.6.9 0 1.5-.3 2.1-.8l.7.9c-.7.6-1.7 1-2.8 1-2.3 0-3.8-1.7-3.8-4.1 0-2.4 1.4-4.2 3.6-4.2 2.1 0 3.4 1.7 3.4 4.1v.4h-5.7zm0-1.1h4.2c0-1.2-.7-2.4-2-2.4-1.3.1-2.1 1.2-2.2 2.4zM709.4 586.5l.8-.9c.5.4 1.3 1 2.4 1 .9 0 1.6-.4 1.6-1.2 0-.9-.9-1.1-2-1.3-1.1-.3-2.5-.7-2.5-2.3 0-1.3 1.2-2.3 2.9-2.3 1.1 0 2.2.4 2.8 1l-.8.9c-.5-.4-1.2-.8-2-.8-1.1 0-1.6.5-1.6 1.2 0 .6.4.9 1.2 1.1.4.1.9.3 1.3.4 1.1.3 2 .9 2 2.2 0 1.6-1.5 2.4-3 2.4-1-.2-2.2-.6-3.1-1.4zM717 586.5l.8-.9c.5.4 1.3 1 2.4 1 .9 0 1.6-.4 1.6-1.2 0-.9-.9-1.1-2-1.3-1.1-.3-2.5-.7-2.5-2.3 0-1.3 1.2-2.3 2.9-2.3 1.1 0 2.2.4 2.8 1l-.8.9c-.5-.4-1.2-.8-2-.8-1.1 0-1.6.5-1.6 1.2 0 .6.4.9 1.2 1.1.4.1.9.3 1.3.4 1.1.3 2 .9 2 2.2 0 1.6-1.5 2.4-3 2.4-1.1-.2-2.3-.6-3.1-1.4z"/>
    </g>
    <g>
      <path class="st5" d="M824.3 576.4v-.1h1.3v11.2h-1.4v-8.2h-2.1v-1.2h.2c1.5 0 2-.5 2-1.7zM841.7 576.3h1.7v11.2H842V578l-3.8 5.2-3.8-5.1v9.5H833v-11.2h1.7l3.5 4.8 3.5-4.9zM848.4 587.7c-1.6 0-2.8-.9-2.8-2.4 0-1.2.8-2.1 2.1-2.3l2.8-.4v-.5c0-1.2-.8-1.6-1.8-1.6-.9 0-1.7.3-2.3.6l-.5-1c.9-.5 2-.7 2.9-.7 1.9 0 3 .9 3 2.5v3.7c0 .5.2.9.7 1.1l-.7.9c-.5-.1-.9-.5-1.1-1-.4.6-1.2 1.1-2.3 1.1zm0-3.8c-.9.1-1.5.4-1.5 1.2 0 .9.8 1.4 1.6 1.4 1 0 2-.6 2-1.6v-1.4l-2.1.4zM853.5 579.5h1.5l2 6.6 1.9-6.6h1.5l-2.9 9.2c-.4 1.1-1.1 1.4-2.1 1.4-.4 0-.9 0-1.4-.1l.2-1.2s.5.1 1.1.1c.6 0 .9-.2 1-.8l.1-.4-2.9-8.2zM865.7 587.5v-1.3c.8-.7 3.2-2.7 4-3.5.9-.8 1.7-1.8 1.7-3.1 0-1.4-.9-2.2-2.2-2.2-1.4 0-2.1 1-2.2 2.4l-1.4-.1c.1-2.2 1.5-3.5 3.6-3.5 2.2 0 3.7 1.3 3.7 3.5 0 1.6-.8 2.7-3.3 4.8l-2 1.7h5.5v1.2h-7.4zM883.2 581.9c0 2.9-1.1 5.7-4.1 5.7-3 0-4.1-2.8-4.1-5.7 0-2.9 1.1-5.8 4.1-5.8 3.1 0 4.1 2.9 4.1 5.8zm-1.4.3v-.7c0-2.7-1-4.2-2.6-4.2s-2.6 1.5-2.6 4.2v.7c0 2.7 1 4.2 2.6 4.2 1.5.1 2.6-1.5 2.6-4.2zM887.1 576.4v-.1h1.3v11.2H887v-8.2h-2v-1.2h.2c1.5 0 1.9-.5 1.9-1.7zM896.7 577.5h-6v-1.2h7.3v1.2l-4.5 10H892l4.7-10zM904 582.2h3.4v1.2H904v-1.2zM830.6 601.1c0 2.9-1.1 5.7-4.1 5.7-3 0-4.1-2.8-4.1-5.7 0-2.9 1.1-5.8 4.1-5.8 3 0 4.1 2.9 4.1 5.8zm-1.5.3v-.7c0-2.7-1-4.2-2.6-4.2s-2.6 1.5-2.6 4.2v.7c0 2.7 1 4.2 2.6 4.2 1.6.1 2.6-1.5 2.6-4.2zM840.6 600.8c0 3-1.2 6.1-4.4 6.1-1.6 0-2.7-.7-3.3-1.8l1.4-.4c.5.7 1.1 1.1 2 1.1 2.1 0 3-2.2 3-4.5-.5.8-1.4 1.6-3 1.6-2.1 0-3.6-1.6-3.6-3.6 0-2.2 1.6-3.8 3.9-3.8 2.4 0 4.2 1.8 4.2 5.2v.1zm-4.1-4.3c-1.4 0-2.5 1-2.5 2.6s1 2.6 2.5 2.6 2.5-1 2.5-2.5c0-1.6-1.1-2.7-2.5-2.7zM843.8 598.7c.6 0 1.1.5 1.1 1.1 0 .6-.5 1.1-1.1 1.1-.6 0-1.1-.5-1.1-1.1.1-.6.5-1.1 1.1-1.1zm0 6c.6 0 1.1.5 1.1 1.1 0 .6-.5 1.1-1.1 1.1-.6 0-1.1-.5-1.1-1.1.1-.6.5-1.1 1.1-1.1zM847.2 601l.6-5.5h6.4v1.2h-5.3l-.3 3.2c.6-.6 1.5-.9 2.4-.9 2.1 0 3.7 1.6 3.7 3.8 0 2.4-1.6 4.1-4 4.1-1.8 0-3.4-.9-3.8-2.7l1.4-.2c.3.9 1 1.7 2.4 1.7 1.6 0 2.6-1.2 2.6-2.8 0-1.6-1-2.7-2.6-2.7-.8 0-1.7.4-2.1 1l-1.4-.2zM864.3 598.4c0 1-.5 2.1-1.9 2.5 1.6.4 2.2 1.7 2.2 2.8 0 2-2 3.1-4 3.1s-4-1.1-4-3.1c0-1.2.7-2.4 2.2-2.8-1.4-.4-1.9-1.5-1.9-2.5 0-1.9 1.8-3 3.7-3 1.9-.1 3.7 1 3.7 3zm-1.1 5.2c0-1.4-1.2-2-2.6-2-1.4 0-2.6.7-2.6 2 0 1.4 1.2 2 2.6 2 1.3.1 2.6-.6 2.6-2zm-.3-5.1c0-1.2-1.1-1.9-2.3-1.9-1.2 0-2.3.7-2.3 1.9s1 1.9 2.3 1.9c1.2-.1 2.3-.8 2.3-1.9z"/>
    </g>
    <path class="st8" d="M912 618H48.9"/>
    <g>
      <path class="st5" d="M64.6 219.2h4.3c2.7 0 4.1 1.7 4.1 3.5 0 1.5-.9 2.7-2.2 3.1l2.4 4.6h-2.6l-2-4h-1.8v4h-2.3v-11.2zm4.1 2h-1.8v3.1h1.8c1.3 0 2-.6 2-1.5-.1-.9-.7-1.6-2-1.6zM76.3 227c.2 1.1 1 1.6 2 1.6.8 0 1.6-.3 2.1-.8l1.1 1.6c-.7.6-1.9 1.1-3.2 1.1-2.3 0-4.2-1.6-4.2-4.3v-.1c0-2.5 1.7-4.3 4-4.3 2.2 0 3.8 1.7 3.8 4.1v1h-5.6zm0-1.7h3.4c0-.7-.5-1.6-1.6-1.6-1.2 0-1.7.9-1.8 1.6zM86.3 222h1.6v1.9h-1.6v6.4h-2.2V224h-1.3v-2h1.3v-.9c0-1.5 1-2.1 2.5-2.1.8 0 1.5.1 1.7.1l-.2 1.8c-.3 0-.8-.1-1.1-.1-.6 0-.8.3-.8.6v.6zM91 227c.2 1.1 1 1.6 2 1.6.8 0 1.6-.3 2.1-.8l1.1 1.6c-.7.6-1.9 1.1-3.2 1.1-2.3 0-4.2-1.6-4.2-4.3v-.1c0-2.5 1.7-4.3 4-4.3 2.2 0 3.8 1.7 3.8 4.1v1H91zm0-1.7h3.4c0-.7-.5-1.6-1.6-1.6-1.2 0-1.7.9-1.8 1.6zM103 224.1h-.4c-1.2 0-2.3.4-2.3 2.2v4.1h-2.2V222h2.2v.9c.4-.6 1.1-1.1 2.2-1.1h.5v2.3zM106.1 227c.2 1.1 1 1.6 2 1.6.8 0 1.6-.3 2.1-.8l1.1 1.6c-.7.6-1.9 1.1-3.2 1.1-2.3 0-4.2-1.6-4.2-4.3v-.1c0-2.5 1.7-4.3 4-4.3 2.2 0 3.8 1.7 3.8 4.1v1h-5.6zm0-1.7h3.4c0-.7-.5-1.6-1.6-1.6-1.2 0-1.8.9-1.8 1.6zM113.3 222h2.2v.7c.5-.5 1.1-.9 2.1-.9 1.8 0 2.9 1.3 2.9 2.9v5.7h-2.2v-4.9c0-1.2-.6-1.6-1.3-1.6-.9 0-1.6.6-1.6 1.9v4.6h-2.2V222zM122 226.2c0-2.5 1.7-4.3 4-4.3 1.7 0 3.1.8 3.6 2.2l-1.9 1c-.3-.7-.8-1.1-1.7-1.1-1.3 0-1.9 1.2-1.9 2.3v.1c0 1.1.6 2.3 1.9 2.3.9 0 1.3-.4 1.7-1.1l1.9 1c-.5 1.3-2 2.2-3.7 2.2-2.3-.2-3.9-2.1-3.9-4.6zM132.9 227c.2 1.1 1 1.6 2 1.6.8 0 1.6-.3 2.1-.8l1.1 1.6c-.7.6-1.9 1.1-3.2 1.1-2.3 0-4.2-1.6-4.2-4.3v-.1c0-2.5 1.7-4.3 4-4.3 2.2 0 3.8 1.7 3.8 4.1v1h-5.6zm0-1.7h3.4c0-.7-.5-1.6-1.6-1.6-1.2 0-1.8.9-1.8 1.6zM143.7 222h2.2v.7c.5-.5 1.1-.9 2.1-.9 1.8 0 2.9 1.3 2.9 2.9v5.7h-2.2v-4.9c0-1.2-.6-1.6-1.3-1.6-.9 0-1.6.6-1.6 1.9v4.6h-2.2V222zM160 230.4h-2.2v-.7c-.5.5-1.1.9-2.1.9-1.8 0-2.9-1.3-2.9-2.9V222h2.2v4.9c0 1.2.6 1.6 1.3 1.6.9 0 1.6-.6 1.6-1.9V222h2.2v8.4zM169 230.4h-2.2v-4.9c0-1.2-.6-1.6-1.3-1.6-.8 0-1.5.6-1.5 1.9v4.6h-2V222h2.2v.7c.5-.6 1.3-.9 2.1-.9.9 0 1.7.3 2.2 1.1.6-.8 1.5-1.1 2.5-1.1 1.9 0 3 1.3 3 2.8v5.7h-2.2v-4.9c0-1.2-.6-1.6-1.3-1.6-.8 0-1.5.6-1.5 1.9v4.7zM183.8 226.3c0 2.5-1.5 4.3-3.7 4.3-1 0-1.6-.4-2.1-.9v.7h-2.2v-11.2h2.2v3.6c.5-.5 1.1-.9 2.1-.9 2.3 0 3.7 1.8 3.7 4.4zm-5.8.7c0 .9.7 1.6 1.7 1.6 1.2 0 1.9-1 1.9-2.3v-.1c0-1.3-.7-2.3-1.9-2.3-1.1 0-1.7.7-1.7 1.6v1.5zM187.3 227c.2 1.1 1 1.6 2 1.6.8 0 1.6-.3 2.1-.8l1.1 1.6c-.7.6-1.9 1.1-3.2 1.1-2.3 0-4.2-1.6-4.2-4.3v-.1c0-2.5 1.7-4.3 4-4.3 2.2 0 3.8 1.7 3.8 4.1v1h-5.6zm0-1.7h3.4c0-.7-.5-1.6-1.6-1.6-1.2 0-1.8.9-1.8 1.6zM199.3 224.1h-.4c-1.2 0-2.3.4-2.3 2.2v4.1h-2.2V222h2.2v.9c.4-.6 1.1-1.1 2.2-1.1h.5v2.3zM64.9 238.4h6.7v1.2h-5.3v3.7h4.9v1.2h-4.9v4h5.6v1.2h-7v-11.3zM74 241.6h1.3v.9c.5-.7 1.4-1.1 2.3-1.1 1.8 0 2.7 1.3 2.7 2.7v5.4H79v-5c0-1.4-.7-1.9-1.6-1.9-1 0-2 .7-2 2.2v4.7H74v-7.9zM84.9 247.6c0 .5.1 1 1 1 .2 0 .8 0 1-.1l.1 1.2s-.8.1-1.4.1c-1.3 0-2-.5-2-1.9v-5.1h-1.5v-1.2h1.5V239l1.3-.5v3.1h2.2v1.2h-2.2v4.8zM89.8 246c.1 1.5 1 2.6 2.5 2.6.9 0 1.5-.3 2.1-.8l.7.9c-.7.6-1.7 1-2.8 1-2.3 0-3.8-1.7-3.8-4.1 0-2.4 1.4-4.2 3.6-4.2 2.1 0 3.4 1.7 3.4 4.1v.4h-5.7zm0-1H94c0-1.2-.7-2.4-2-2.4s-2.1 1.1-2.2 2.4zM101.5 242.8h-.2c-1.3 0-2.6.5-2.6 2.7v4.1h-1.3v-8h1.3v1.3c.4-.9 1.4-1.4 2.4-1.4h.4v1.3zM108.7 241.6h1.6v1.2h-1.6v6.8h-1.3v-6.8h-1.3v-1.2h1.3v-1.5c0-1.4.9-1.9 2.2-1.9.6 0 1.1.1 1.3.1l-.1 1.1c-.3 0-.9-.1-1.1-.1-.8 0-.9.5-.9 1v1.3zM118.4 249.6H117v-.9c-.5.7-1.4 1.1-2.3 1.1-1.8 0-2.7-1.3-2.7-2.7v-5.4h1.3v5c0 1.4.7 1.9 1.6 1.9 1.1 0 2-.7 2-2.2v-4.7h1.3v7.9zM120.9 238.4h1.3v9.4c0 .5.2.8.8.8h.8l.1 1.1s-.8.1-1.3.1c-.9 0-1.7-.4-1.7-1.6v-9.8zM125.3 238.4h1.3v9.4c0 .5.2.8.8.8h.8l.1 1.1s-.8.1-1.3.1c-.9 0-1.7-.4-1.7-1.6v-9.8zM140.3 245.6c0 2.4-1.5 4.1-3.7 4.1s-3.7-1.7-3.7-4.1c0-2.4 1.5-4.2 3.7-4.2 2.3.1 3.7 1.8 3.7 4.2zm-1.3.1c0-1.7-.8-3.1-2.3-3.1-1.5 0-2.3 1.4-2.3 3v.1c0 1.6.8 2.9 2.3 2.9 1.5 0 2.3-1.4 2.3-2.9zM146.5 242.8h-.2c-1.3 0-2.6.5-2.6 2.7v4.1h-1.3v-8h1.3v1.3c.4-.9 1.4-1.4 2.4-1.4h.4v1.3zM153.3 241.6v.9c.5-.7 1.3-1.1 2.3-1.1 2.1 0 3.4 1.7 3.4 4.2 0 2.4-1.3 4.1-3.4 4.1-1 0-1.9-.4-2.3-1.1v3.3H152v-10.4h1.3zm4.4 4c0-1.7-.8-2.9-2.3-2.9-1.4 0-2.1 1-2.1 2.3v1.3c0 1.3.7 2.3 2.1 2.3 1.5 0 2.3-1.3 2.3-3zM163.3 249.8c-1.6 0-2.8-.9-2.8-2.4 0-1.2.8-2.1 2.1-2.3l2.8-.4v-.5c0-1.2-.8-1.6-1.8-1.6-.9 0-1.7.3-2.3.6l-.5-1c.9-.5 2-.7 2.9-.7 1.9 0 3 .9 3 2.5v3.7c0 .5.2.9.7 1.1l-.7.9c-.5-.1-.9-.5-1.1-1-.4.6-1.2 1.1-2.3 1.1zm.1-3.8c-.9.1-1.5.4-1.5 1.2 0 .9.8 1.4 1.6 1.4 1 0 2-.6 2-1.6v-1.4l-2.1.4zM173.4 242.8h-.2c-1.3 0-2.6.5-2.6 2.7v4.1h-1.3v-8h1.3v1.3c.4-.9 1.4-1.4 2.4-1.4h.4v1.3zM177.2 247.6c0 .5.1 1 1 1 .2 0 .8 0 1-.1l.1 1.2s-.8.1-1.4.1c-1.3 0-2-.5-2-1.9v-5.1h-1.5v-1.2h1.5V239l1.3-.5v3.1h2.2v1.2h-2.2v4.8zM181.9 238.4c.5 0 1 .4 1 1 0 .5-.4 1-1 1-.5 0-1-.4-1-1s.4-1 1-1zm.6 11.2h-1.3v-8h1.3v8zM187.3 249.8c-1.6 0-2.8-.9-2.8-2.4 0-1.2.8-2.1 2.1-2.3l2.8-.4v-.5c0-1.2-.8-1.6-1.8-1.6-.9 0-1.7.3-2.3.6l-.5-1c.9-.5 2-.7 2.9-.7 1.9 0 3 .9 3 2.5v3.7c0 .5.2.9.7 1.1l-.7.9c-.5-.1-.9-.5-1.1-1-.5.6-1.3 1.1-2.3 1.1zm0-3.8c-.9.1-1.5.4-1.5 1.2 0 .9.8 1.4 1.6 1.4 1 0 2-.6 2-1.6v-1.4l-2.1.4zM193.2 238.4h1.3v9.4c0 .5.2.8.8.8h.8l.1 1.1s-.8.1-1.3.1c-.9 0-1.7-.4-1.7-1.6v-9.8zM206.7 248.7c-.5.7-1.3 1.1-2.3 1.1-2.1 0-3.4-1.7-3.4-4.1 0-2.4 1.3-4.2 3.4-4.2 1 0 1.9.4 2.3 1.1v-4.1h1.3v11.2h-1.3v-1zm-4.4-3.1c0 1.7.8 2.9 2.3 2.9 1.4 0 2.1-1 2.1-2.3V245c0-1.3-.7-2.3-2.1-2.3-1.5-.1-2.3 1.2-2.3 2.9zM211.5 246c.1 1.5 1 2.6 2.5 2.6.9 0 1.5-.3 2.1-.8l.7.9c-.7.6-1.7 1-2.8 1-2.3 0-3.8-1.7-3.8-4.1 0-2.4 1.4-4.2 3.6-4.2 2.1 0 3.4 1.7 3.4 4.1v.4h-5.7zm0-1h4.2c0-1.2-.7-2.4-2-2.4s-2.2 1.1-2.2 2.4zM221.1 247.6c0 .5.1 1 1 1 .2 0 .8 0 1-.1l.1 1.2s-.8.1-1.4.1c-1.3 0-2-.5-2-1.9v-5.1h-1.5v-1.2h1.5V239l1.3-.5v3.1h2.2v1.2h-2.2v4.8zM227.3 249.8c-1.6 0-2.8-.9-2.8-2.4 0-1.2.8-2.1 2.1-2.3l2.8-.4v-.5c0-1.2-.8-1.6-1.8-1.6-.9 0-1.7.3-2.3.6l-.5-1c.9-.5 2-.7 2.9-.7 1.9 0 3 .9 3 2.5v3.7c0 .5.2.9.7 1.1l-.7.9c-.5-.1-.9-.5-1.1-1-.5.6-1.2 1.1-2.3 1.1zm0-3.8c-.9.1-1.5.4-1.5 1.2 0 .9.8 1.4 1.6 1.4 1 0 2-.6 2-1.6v-1.4l-2.1.4zM234 238.4c.5 0 1 .4 1 1 0 .5-.4 1-1 1-.5 0-1-.4-1-1s.4-1 1-1zm.6 11.2h-1.3v-8h1.3v8zM237.1 238.4h1.3v9.4c0 .5.2.8.8.8h.8l.1 1.1s-.8.1-1.3.1c-.9 0-1.7-.4-1.7-1.6v-9.8zM240.9 248.6l.8-.9c.5.4 1.3 1 2.4 1 .9 0 1.6-.4 1.6-1.2 0-.9-.9-1.1-2-1.3-1.1-.3-2.5-.7-2.5-2.3 0-1.3 1.2-2.3 2.9-2.3 1.1 0 2.2.4 2.8 1l-.8.9c-.5-.4-1.2-.8-2-.8-1.1 0-1.6.5-1.6 1.2 0 .6.4.9 1.2 1.1.4.1.9.3 1.3.4 1.1.3 2 .9 2 2.2 0 1.6-1.5 2.4-3 2.4-1.1-.2-2.3-.6-3.1-1.4z"/>
    </g>
    <g>
      <path class="st5" d="M276.9 219.2h7.6v2h-5.3v2.4h4.9v2h-4.9v2.7h5.6v2h-7.9v-11.1zM293.4 230.4h-2.2v-4.9c0-1.2-.6-1.6-1.3-1.6-.8 0-1.5.6-1.5 1.9v4.6h-2.2V222h2.2v.7c.5-.6 1.3-.9 2.1-.9.9 0 1.7.3 2.2 1.1.6-.8 1.5-1.1 2.5-1.1 1.9 0 3 1.3 3 2.8v5.7H296v-4.9c0-1.2-.6-1.6-1.3-1.6-.8 0-1.5.6-1.5 1.9v4.7zM302.7 230.6c-1.5 0-2.9-1-2.9-2.6 0-1.3.9-2.2 2.4-2.4l2.5-.4v-.3c0-.7-.5-1.1-1.3-1.1-1 0-1.8.4-2.5.7l-.8-1.7c1-.5 2.2-.9 3.4-.9 1.5 0 3.4.4 3.4 2.7v3.6c0 .5.3.7.7.9l-1 1.6c-.8-.1-1.3-.5-1.6-.9-.5.5-1.3.8-2.3.8zm.2-3.6c-.5.1-.9.4-.9.9s.4 1 1.1 1c1 0 1.5-.7 1.5-1.5v-.6l-1.7.2zM309.9 218.8c.8 0 1.4.6 1.4 1.4 0 .8-.6 1.4-1.4 1.4-.8 0-1.4-.6-1.4-1.4.1-.8.7-1.4 1.4-1.4zm1.1 11.6h-2.2V222h2.2v8.4zM313 219.2h2.2v8.9c0 .4.2.5.6.5.3 0 .6 0 .8-.1l.2 1.8s-1 .1-1.8.1c-1.2 0-2-.6-2-1.8v-9.4zM277.3 238.4h6.7v1.2h-5.3v3.7h4.9v1.2h-4.9v4h5.6v1.2h-7v-11.3zM286.3 241.6h1.3v.9c.5-.7 1.4-1.1 2.3-1.1 1.8 0 2.7 1.3 2.7 2.7v5.4h-1.3v-5c0-1.4-.7-1.9-1.6-1.9-1 0-2 .7-2 2.2v4.7h-1.3v-7.9zM297.2 247.6c0 .5.1 1 1 1 .2 0 .8 0 1-.1l.1 1.2s-.8.1-1.4.1c-1.3 0-2-.5-2-1.9v-5.1h-1.5v-1.2h1.5V239l1.3-.5v3.1h2.2v1.2h-2.2v4.8zM302.1 246c.1 1.5 1 2.6 2.5 2.6.9 0 1.5-.3 2.1-.8l.7.9c-.7.6-1.7 1-2.8 1-2.3 0-3.8-1.7-3.8-4.1 0-2.4 1.4-4.2 3.6-4.2 2.1 0 3.4 1.7 3.4 4.1v.4h-5.7zm0-1h4.2c0-1.2-.7-2.4-2-2.4s-2.1 1.1-2.2 2.4zM313.8 242.8h-.2c-1.3 0-2.6.5-2.6 2.7v4.1h-1.3v-8h1.3v1.3c.4-.9 1.4-1.4 2.4-1.4h.4v1.3zM321 241.6h1.6v1.2H321v6.8h-1.3v-6.8h-1.3v-1.2h1.3v-1.5c0-1.4.9-1.9 2.2-1.9.6 0 1.1.1 1.3.1l-.1 1.1c-.3 0-.9-.1-1.1-.1-.8 0-.9.5-.9 1v1.3zM330.7 249.6h-1.3v-.9c-.5.7-1.4 1.1-2.3 1.1-1.8 0-2.7-1.3-2.7-2.7v-5.4h1.3v5c0 1.4.7 1.9 1.6 1.9 1.1 0 2-.7 2-2.2v-4.7h1.3v7.9zM333.2 238.4h1.3v9.4c0 .5.2.8.8.8h.8l.1 1.1s-.8.1-1.3.1c-.9 0-1.7-.4-1.7-1.6v-9.8zM337.6 238.4h1.3v9.4c0 .5.2.8.8.8h.8l.1 1.1s-.8.1-1.3.1c-.9 0-1.7-.4-1.7-1.6v-9.8zM352.7 245.6c0 2.4-1.5 4.1-3.7 4.1s-3.7-1.7-3.7-4.1c0-2.4 1.5-4.2 3.7-4.2 2.2.1 3.7 1.8 3.7 4.2zm-1.4.1c0-1.7-.8-3.1-2.3-3.1-1.5 0-2.3 1.4-2.3 3v.1c0 1.6.8 2.9 2.3 2.9 1.5 0 2.3-1.4 2.3-2.9zM358.8 242.8h-.2c-1.3 0-2.6.5-2.6 2.7v4.1h-1.3v-8h1.3v1.3c.4-.9 1.4-1.4 2.4-1.4h.4v1.3zM365.7 241.6v.9c.5-.7 1.3-1.1 2.3-1.1 2.1 0 3.4 1.7 3.4 4.2 0 2.4-1.3 4.1-3.4 4.1-1 0-1.9-.4-2.3-1.1v3.3h-1.3v-10.4h1.3zm4.3 4c0-1.7-.8-2.9-2.3-2.9-1.4 0-2.1 1-2.1 2.3v1.3c0 1.3.7 2.3 2.1 2.3 1.5 0 2.3-1.3 2.3-3zM375.7 249.8c-1.6 0-2.8-.9-2.8-2.4 0-1.2.8-2.1 2.1-2.3l2.8-.4v-.5c0-1.2-.8-1.6-1.8-1.6-.9 0-1.7.3-2.3.6l-.5-1c.9-.5 2-.7 2.9-.7 1.9 0 3 .9 3 2.5v3.7c0 .5.2.9.7 1.1l-.7.9c-.5-.1-.9-.5-1.1-1-.5.6-1.2 1.1-2.3 1.1zm0-3.8c-.9.1-1.5.4-1.5 1.2 0 .9.8 1.4 1.6 1.4 1 0 2-.6 2-1.6v-1.4l-2.1.4zM385.8 242.8h-.2c-1.3 0-2.6.5-2.6 2.7v4.1h-1.3v-8h1.3v1.3c.4-.9 1.4-1.4 2.4-1.4h.4v1.3zM389.5 247.6c0 .5.1 1 1 1 .2 0 .8 0 1-.1l.1 1.2s-.8.1-1.4.1c-1.3 0-2-.5-2-1.9v-5.1h-1.5v-1.2h1.5V239l1.3-.5v3.1h2.2v1.2h-2.2v4.8zM394.2 238.4c.5 0 1 .4 1 1 0 .5-.4 1-1 1-.5 0-1-.4-1-1s.5-1 1-1zm.6 11.2h-1.3v-8h1.3v8zM399.6 249.8c-1.6 0-2.8-.9-2.8-2.4 0-1.2.8-2.1 2.1-2.3l2.8-.4v-.5c0-1.2-.8-1.6-1.8-1.6-.9 0-1.7.3-2.3.6l-.5-1c.9-.5 2-.7 2.9-.7 1.9 0 3 .9 3 2.5v3.7c0 .5.2.9.7 1.1l-.7.9c-.5-.1-.9-.5-1.1-1-.4.6-1.2 1.1-2.3 1.1zm0-3.8c-.9.1-1.5.4-1.5 1.2 0 .9.8 1.4 1.6 1.4 1 0 2-.6 2-1.6v-1.4l-2.1.4zM405.6 238.4h1.3v9.4c0 .5.2.8.8.8h.8l.1 1.1s-.8.1-1.3.1c-.9 0-1.7-.4-1.7-1.6v-9.8zM419 248.7c-.5.7-1.3 1.1-2.3 1.1-2.1 0-3.4-1.7-3.4-4.1 0-2.4 1.3-4.2 3.4-4.2 1 0 1.9.4 2.3 1.1v-4.1h1.3v11.2H419v-1zm-4.3-3.1c0 1.7.8 2.9 2.3 2.9 1.4 0 2.1-1 2.1-2.3V245c0-1.3-.7-2.3-2.1-2.3-1.5-.1-2.3 1.2-2.3 2.9zM423.8 246c.1 1.5 1 2.6 2.5 2.6.9 0 1.5-.3 2.1-.8l.7.9c-.7.6-1.7 1-2.8 1-2.3 0-3.8-1.7-3.8-4.1 0-2.4 1.4-4.2 3.6-4.2 2.1 0 3.4 1.7 3.4 4.1v.4h-5.7zm0-1h4.2c0-1.2-.7-2.4-2-2.4s-2.1 1.1-2.2 2.4zM433.4 247.6c0 .5.1 1 1 1 .2 0 .8 0 1-.1l.1 1.2s-.8.1-1.4.1c-1.3 0-2-.5-2-1.9v-5.1h-1.5v-1.2h1.5V239l1.3-.5v3.1h2.2v1.2h-2.2v4.8zM439.6 249.8c-1.6 0-2.8-.9-2.8-2.4 0-1.2.8-2.1 2.1-2.3l2.8-.4v-.5c0-1.2-.8-1.6-1.8-1.6-.9 0-1.7.3-2.3.6l-.5-1c.9-.5 2-.7 2.9-.7 1.9 0 3 .9 3 2.5v3.7c0 .5.2.9.7 1.1l-.7.9c-.5-.1-.9-.5-1.1-1-.4.6-1.2 1.1-2.3 1.1zm0-3.8c-.9.1-1.5.4-1.5 1.2 0 .9.8 1.4 1.6 1.4 1 0 2-.6 2-1.6v-1.4l-2.1.4zM446.3 238.4c.5 0 1 .4 1 1 0 .5-.4 1-1 1-.5 0-1-.4-1-1s.5-1 1-1zm.6 11.2h-1.3v-8h1.3v8zM449.5 238.4h1.3v9.4c0 .5.2.8.8.8h.8l.1 1.1s-.8.1-1.3.1c-.9 0-1.7-.4-1.7-1.6v-9.8zM453.2 248.6l.8-.9c.5.4 1.3 1 2.4 1 .9 0 1.6-.4 1.6-1.2 0-.9-.9-1.1-2-1.3-1.1-.3-2.5-.7-2.5-2.3 0-1.3 1.2-2.3 2.9-2.3 1.1 0 2.2.4 2.8 1l-.8.9c-.5-.4-1.2-.8-2-.8-1.1 0-1.6.5-1.6 1.2 0 .6.4.9 1.2 1.1.4.1.9.3 1.3.4 1.1.3 2 .9 2 2.2 0 1.6-1.5 2.4-3 2.4-1-.2-2.2-.6-3.1-1.4z"/>
    </g>
    <g>
      <path class="st5" d="M489.6 219.2h4.5c2.3 0 3.8 1.6 3.8 3.7s-1.6 3.7-3.9 3.7h-2v3.8h-2.3v-11.2zm3.9 2h-1.6v3.3h1.6c1.2 0 2-.6 2-1.6v-.1c0-1-.7-1.6-2-1.6zM501.5 230.6c-1.5 0-2.9-1-2.9-2.6 0-1.3.9-2.2 2.4-2.4l2.5-.4v-.3c0-.7-.5-1.1-1.3-1.1-1 0-1.8.4-2.5.7l-.8-1.7c1-.5 2.2-.9 3.4-.9 1.5 0 3.4.4 3.4 2.7v3.6c0 .5.3.7.7.9l-1 1.6c-.8-.1-1.3-.5-1.6-.9-.5.5-1.3.8-2.3.8zm.3-3.6c-.5.1-.9.4-.9.9s.4 1 1.1 1c1 0 1.5-.7 1.5-1.5v-.6l-1.7.2zM509.4 230.7l.1-.3h-.2l-2.6-8.4h2.4l1.5 5.8 1.5-5.8h2.4l-2.9 9.6c-.4 1.2-1.3 1.6-2.6 1.6-.5 0-1.4-.1-2-.2l.4-1.9s.6.1 1.2.1c.5.1.7-.1.8-.5zM522.8 230.4h-2.2v-4.9c0-1.2-.6-1.6-1.3-1.6-.8 0-1.5.6-1.5 1.9v4.6h-2.2V222h2.2v.7c.5-.6 1.3-.9 2.1-.9.9 0 1.7.3 2.2 1.1.6-.8 1.5-1.1 2.5-1.1 1.9 0 3 1.3 3 2.8v5.7h-2.2v-4.9c0-1.2-.6-1.6-1.3-1.6-.8 0-1.5.6-1.5 1.9v4.7zM531.5 227c.2 1.1 1 1.6 2 1.6.8 0 1.6-.3 2.1-.8l1.1 1.6c-.7.6-1.9 1.1-3.2 1.1-2.3 0-4.2-1.6-4.2-4.3v-.1c0-2.5 1.7-4.3 4-4.3 2.2 0 3.8 1.7 3.8 4.1v1h-5.6zm0-1.7h3.4c0-.7-.5-1.6-1.6-1.6-1.2 0-1.8.9-1.8 1.6zM538.6 222h2.2v.7c.5-.5 1.1-.9 2.1-.9 1.8 0 2.9 1.3 2.9 2.9v5.7h-2.2v-4.9c0-1.2-.6-1.6-1.3-1.6-.9 0-1.6.6-1.6 1.9v4.6h-2.2V222zM550.9 227.9c0 .4.2.7.9.7.3 0 .8 0 1.1-.1l.2 1.9s-1.1.1-2 .1c-1.5 0-2.4-.7-2.4-2.1V224h-1.5v-2h1.5v-2.4l2.2-.6v2.9h2.2v1.9h-2.2v4.1zM559.1 227.7c.6.6 1.6 1 2.4 1 .7 0 1.2-.2 1.2-.7 0-.4-.3-.6-1-.7-.5-.1-1.4-.3-2.1-.6-.8-.4-1.5-1-1.5-2.2 0-1.8 1.6-2.7 3.4-2.7 1.4 0 2.6.5 3.3 1.2l-1.4 1.4c-.4-.4-1.1-.8-1.9-.8-.6 0-1.2.2-1.2.7 0 .4.4.5 1 .7 1 .3 1.8.4 2.4.8.7.4 1.2 1.1 1.2 2 0 1.8-1.5 2.7-3.4 2.7-1.4 0-2.9-.5-3.8-1.3l1.4-1.5zM569.7 227.9c0 .4.2.7.9.7.3 0 .8 0 1.1-.1l.2 1.9s-1.1.1-2 .1c-1.5 0-2.4-.7-2.4-2.1V224H566v-2h1.5v-2.4l2.2-.6v2.9h2.2v1.9h-2.2v4.1zM575.8 230.6c-1.5 0-2.9-1-2.9-2.6 0-1.3.9-2.2 2.4-2.4l2.5-.4v-.3c0-.7-.5-1.1-1.3-1.1-1 0-1.8.4-2.5.7l-.8-1.7c1-.5 2.2-.9 3.4-.9 1.5 0 3.4.4 3.4 2.7v3.6c0 .5.3.7.7.9l-1 1.6c-.8-.1-1.3-.5-1.6-.9-.5.5-1.3.8-2.3.8zm.3-3.6c-.5.1-.9.4-.9.9s.4 1 1.1 1c1 0 1.5-.7 1.5-1.5v-.6l-1.7.2zM585 227.9c0 .4.2.7.9.7.3 0 .8 0 1.1-.1l.2 1.9s-1.1.1-2 .1c-1.5 0-2.4-.7-2.4-2.1V224h-1.5v-2h1.5v-2.4l2.2-.6v2.9h2.2v1.9H585v4.1zM595.8 230.4h-2.2v-.7c-.5.5-1.1.9-2.1.9-1.8 0-2.9-1.3-2.9-2.9V222h2.2v4.9c0 1.2.6 1.6 1.3 1.6.9 0 1.6-.6 1.6-1.9V222h2.2v8.4zM598.5 227.7c.6.6 1.6 1 2.4 1 .7 0 1.2-.2 1.2-.7 0-.4-.3-.6-1-.7-.5-.1-1.4-.3-2.1-.6-.8-.4-1.5-1-1.5-2.2 0-1.8 1.6-2.7 3.4-2.7 1.4 0 2.6.5 3.3 1.2l-1.4 1.4c-.4-.4-1.1-.8-1.9-.8-.6 0-1.2.2-1.2.7 0 .4.4.5 1 .7 1 .3 1.8.4 2.4.8.7.4 1.2 1.1 1.2 2 0 1.8-1.5 2.7-3.4 2.7-1.4 0-2.9-.5-3.8-1.3l1.4-1.5zM490.2 247.1c.7.9 1.9 1.5 3.2 1.5 1.4 0 2.5-.7 2.5-2 0-.8-.4-1.3-1.1-1.6-1.1-.5-2.9-.6-4.1-1.3-.7-.4-1.3-1.1-1.3-2.3 0-1.7 1.4-3.1 3.8-3.1 1.4 0 2.8.6 3.7 1.5l-1 .8c-.6-.6-1.5-1.2-2.7-1.2-1.4 0-2.4.7-2.4 1.9 0 1.8 2.6 1.6 4.6 2.5 1 .4 1.9 1.2 1.9 2.7 0 2.2-2 3.3-4.1 3.3-1.9 0-3.2-.8-4.1-1.7l1.1-1zM500.3 246c.1 1.5 1 2.6 2.5 2.6.9 0 1.5-.3 2.1-.8l.7.9c-.7.6-1.7 1-2.8 1-2.3 0-3.8-1.7-3.8-4.1 0-2.4 1.4-4.2 3.6-4.2 2.1 0 3.4 1.7 3.4 4.1v.4h-5.7zm.1-1h4.2c0-1.2-.7-2.4-2-2.4s-2.2 1.1-2.2 2.4zM507.9 238.4h1.3v9.4c0 .5.2.8.8.8h.8l.1 1.1s-.8.1-1.3.1c-.9 0-1.7-.4-1.7-1.6v-9.8zM513.3 246c.1 1.5 1 2.6 2.5 2.6.9 0 1.5-.3 2.1-.8l.7.9c-.7.6-1.7 1-2.8 1-2.3 0-3.8-1.7-3.8-4.1 0-2.4 1.4-4.2 3.6-4.2 2.1 0 3.4 1.7 3.4 4.1v.4h-5.7zm0-1h4.2c0-1.2-.7-2.4-2-2.4s-2.2 1.1-2.2 2.4zM521.8 245.6c0 1.6.8 3 2.3 3 1 0 1.7-.6 2.1-1.3l1.1.6c-.5 1.1-1.7 1.9-3.2 1.9-2.2 0-3.7-1.7-3.7-4.1 0-2.4 1.5-4.2 3.7-4.2 1.4 0 2.6.7 3.2 1.9l-1.1.6c-.4-.8-1.1-1.3-2.1-1.3-1.5-.1-2.3 1.3-2.3 2.9zM531.3 247.6c0 .5.1 1 1 1 .2 0 .8 0 1-.1l.1 1.2s-.8.1-1.4.1c-1.3 0-2-.5-2-1.9v-5.1h-1.5v-1.2h1.5V239l1.3-.5v3.1h2.2v1.2h-2.2v4.8zM541.7 249.8c-1.6 0-2.8-.9-2.8-2.4 0-1.2.8-2.1 2.1-2.3l2.8-.4v-.5c0-1.2-.8-1.6-1.8-1.6-.9 0-1.7.3-2.3.6l-.5-1c.9-.5 2-.7 2.9-.7 1.9 0 3 .9 3 2.5v3.7c0 .5.2.9.7 1.1l-.7.9c-.5-.1-.9-.5-1.1-1-.4.6-1.2 1.1-2.3 1.1zm0-3.8c-.9.1-1.5.4-1.5 1.2 0 .9.8 1.4 1.6 1.4 1 0 2-.6 2-1.6v-1.4l-2.1.4zM547.7 241.6h1.3v.9c.5-.7 1.4-1.1 2.3-1.1 1.8 0 2.7 1.3 2.7 2.7v5.4h-1.3v-5c0-1.4-.7-1.9-1.6-1.9-1 0-2 .7-2 2.2v4.7h-1.3v-7.9zM567.6 245.6c0 2.4-1.5 4.1-3.7 4.1s-3.7-1.7-3.7-4.1c0-2.4 1.5-4.2 3.7-4.2 2.2.1 3.7 1.8 3.7 4.2zm-1.4.1c0-1.7-.8-3.1-2.3-3.1s-2.3 1.4-2.3 3v.1c0 1.6.8 2.9 2.3 2.9s2.3-1.4 2.3-2.9zM571 241.6v.9c.5-.7 1.3-1.1 2.3-1.1 2.1 0 3.4 1.7 3.4 4.2 0 2.4-1.3 4.1-3.4 4.1-1 0-1.9-.4-2.3-1.1v3.3h-1.3v-10.4h1.3zm4.4 4c0-1.7-.8-2.9-2.3-2.9-1.4 0-2.1 1-2.1 2.3v1.3c0 1.3.7 2.3 2.1 2.3 1.5 0 2.3-1.3 2.3-3zM580.8 247.6c0 .5.1 1 1 1 .2 0 .8 0 1-.1l.1 1.2s-.8.1-1.4.1c-1.3 0-2-.5-2-1.9v-5.1H578v-1.2h1.5V239l1.3-.5v3.1h2.2v1.2h-2.2v4.8zM585.4 238.4c.5 0 1 .4 1 1 0 .5-.4 1-1 1-.5 0-1-.4-1-1 .1-.6.5-1 1-1zm.7 11.2h-1.3v-8h1.3v8zM595.5 245.6c0 2.4-1.5 4.1-3.7 4.1s-3.7-1.7-3.7-4.1c0-2.4 1.5-4.2 3.7-4.2s3.7 1.8 3.7 4.2zm-1.3.1c0-1.7-.8-3.1-2.3-3.1s-2.3 1.4-2.3 3v.1c0 1.6.8 2.9 2.3 2.9s2.3-1.4 2.3-2.9zM597.6 241.6h1.3v.9c.5-.7 1.4-1.1 2.3-1.1 1.8 0 2.7 1.3 2.7 2.7v5.4h-1.3v-5c0-1.4-.7-1.9-1.6-1.9-1 0-2 .7-2 2.2v4.7h-1.3v-7.9z"/>
    </g>
    <g>
      <path class="st5" d="M699.9 224.8c0-3.2 2-5.8 5.2-5.8 2.3 0 4 1.2 4.6 3.2l-2.2.7c-.2-.8-1.1-1.9-2.5-1.9-2 0-2.9 1.8-2.9 3.6v.1c0 1.8.9 3.7 2.9 3.7 1.4 0 2.2-1 2.5-1.9l2.2.7c-.7 1.9-2.3 3.2-4.7 3.2-3.1.2-5.1-2.4-5.1-5.6zM713.7 230.6c-1.5 0-2.9-1-2.9-2.6 0-1.3.9-2.2 2.4-2.4l2.5-.4v-.3c0-.7-.5-1.1-1.3-1.1-1 0-1.8.4-2.5.7l-.8-1.7c1-.5 2.2-.9 3.4-.9 1.5 0 3.4.4 3.4 2.7v3.6c0 .5.3.7.7.9l-1 1.6c-.8-.1-1.3-.5-1.6-.9-.4.5-1.3.8-2.3.8zm.3-3.6c-.5.1-.9.4-.9.9s.4 1 1.1 1c1 0 1.5-.7 1.5-1.5v-.6l-1.7.2zM724.8 224.1h-.4c-1.2 0-2.3.4-2.3 2.2v4.1h-2.2V222h2.2v.9c.4-.6 1.1-1.1 2.2-1.1h.5v2.3zM725.6 226.2c0-2.5 1.5-4.3 3.7-4.3 1 0 1.6.4 2.1.9v-3.6h2.2v11.2h-2.2v-.7c-.5.5-1.1.9-2.1.9-2.2 0-3.7-1.9-3.7-4.4zm5.9-.8c0-.9-.7-1.6-1.7-1.6-1.2 0-1.9 1-1.9 2.3v.1c0 1.3.7 2.3 1.9 2.3 1.1 0 1.7-.7 1.7-1.6v-1.5zM742.2 227.9c0 .4.2.7.9.7.3 0 .8 0 1.1-.1l.2 1.9s-1.1.1-2 .1c-1.5 0-2.4-.7-2.4-2.1V224h-1.5v-2h1.5v-2.4l2.2-.6v2.9h2.2v1.9h-2.2v4.1zM747.7 230.7l.1-.3h-.2L745 222h2.4l1.5 5.8 1.5-5.8h2.4l-2.9 9.6c-.4 1.2-1.3 1.6-2.6 1.6-.5 0-1.4-.1-2-.2l.4-1.9s.6.1 1.2.1c.6.1.7-.1.8-.5zM756.2 222v.7c.5-.5 1.1-.9 2.1-.9 2.2 0 3.7 1.8 3.7 4.3v.1c0 2.5-1.5 4.3-3.7 4.3-1 0-1.6-.4-2.1-.9v3.4H754v-11h2.2zm-.1 5c0 .9.7 1.6 1.7 1.6 1.2 0 1.9-1 1.9-2.3v-.1c0-1.3-.7-2.3-1.9-2.3-1.1 0-1.7.7-1.7 1.6v1.5zM765.4 227c.2 1.1 1 1.6 2 1.6.8 0 1.6-.3 2.1-.8l1.1 1.6c-.7.6-1.9 1.1-3.2 1.1-2.3 0-4.2-1.6-4.2-4.3v-.1c0-2.5 1.7-4.3 4-4.3 2.2 0 3.8 1.7 3.8 4.1v1h-5.6zm0-1.7h3.4c0-.7-.5-1.6-1.6-1.6-1.2 0-1.7.9-1.8 1.6zM701 247.1c.7.9 1.9 1.5 3.2 1.5 1.4 0 2.5-.7 2.5-2 0-.8-.4-1.3-1.1-1.6-1.1-.5-2.9-.6-4.1-1.3-.7-.4-1.3-1.1-1.3-2.3 0-1.7 1.4-3.1 3.8-3.1 1.4 0 2.8.6 3.7 1.5l-1 .8c-.6-.6-1.5-1.2-2.7-1.2-1.4 0-2.4.7-2.4 1.9 0 1.8 2.6 1.6 4.6 2.5 1 .4 1.9 1.2 1.9 2.7 0 2.2-2 3.3-4.1 3.3-1.9 0-3.2-.8-4.1-1.7l1.1-1zM711.1 246c.1 1.5 1 2.6 2.5 2.6.9 0 1.5-.3 2.1-.8l.7.9c-.7.6-1.7 1-2.8 1-2.3 0-3.8-1.7-3.8-4.1 0-2.4 1.4-4.2 3.6-4.2 2.1 0 3.4 1.7 3.4 4.1v.4h-5.7zm.1-1h4.2c0-1.2-.7-2.4-2-2.4s-2.2 1.1-2.2 2.4zM718.8 238.4h1.3v9.4c0 .5.2.8.8.8h.8l.1 1.1s-.8.1-1.3.1c-.9 0-1.7-.4-1.7-1.6v-9.8zM724.1 246c.1 1.5 1 2.6 2.5 2.6.9 0 1.5-.3 2.1-.8l.7.9c-.7.6-1.7 1-2.8 1-2.3 0-3.8-1.7-3.8-4.1 0-2.4 1.4-4.2 3.6-4.2 2.1 0 3.4 1.7 3.4 4.1v.4h-5.7zm0-1h4.2c0-1.2-.7-2.4-2-2.4s-2.1 1.1-2.2 2.4zM732.6 245.6c0 1.6.8 3 2.3 3 1 0 1.7-.6 2.1-1.3l1.1.6c-.5 1.1-1.7 1.9-3.2 1.9-2.2 0-3.7-1.7-3.7-4.1 0-2.4 1.5-4.2 3.7-4.2 1.4 0 2.6.7 3.2 1.9l-1.1.6c-.4-.8-1.1-1.3-2.1-1.3-1.5-.1-2.3 1.3-2.3 2.9zM742.1 247.6c0 .5.1 1 1 1 .2 0 .8 0 1-.1l.1 1.2s-.8.1-1.4.1c-1.3 0-2-.5-2-1.9v-5.1h-1.5v-1.2h1.5V239l1.3-.5v3.1h2.2v1.2h-2.2v4.8zM752.5 249.8c-1.6 0-2.8-.9-2.8-2.4 0-1.2.8-2.1 2.1-2.3l2.8-.4v-.5c0-1.2-.8-1.6-1.8-1.6-.9 0-1.7.3-2.3.6l-.5-1c.9-.5 2-.7 2.9-.7 1.9 0 3 .9 3 2.5v3.7c0 .5.2.9.7 1.1l-.7.9c-.5-.1-.9-.5-1.1-1-.4.6-1.2 1.1-2.3 1.1zm0-3.8c-.9.1-1.5.4-1.5 1.2 0 .9.8 1.4 1.6 1.4 1 0 2-.6 2-1.6v-1.4l-2.1.4zM758.5 241.6h1.3v.9c.5-.7 1.4-1.1 2.3-1.1 1.8 0 2.7 1.3 2.7 2.7v5.4h-1.3v-5c0-1.4-.7-1.9-1.6-1.9-1 0-2 .7-2 2.2v4.7h-1.3v-7.9zM778.4 245.6c0 2.4-1.5 4.1-3.7 4.1s-3.7-1.7-3.7-4.1c0-2.4 1.5-4.2 3.7-4.2 2.2.1 3.7 1.8 3.7 4.2zm-1.3.1c0-1.7-.8-3.1-2.3-3.1-1.5 0-2.3 1.4-2.3 3v.1c0 1.6.8 2.9 2.3 2.9 1.5 0 2.3-1.4 2.3-2.9zM781.8 241.6v.9c.5-.7 1.3-1.1 2.3-1.1 2.1 0 3.4 1.7 3.4 4.2 0 2.4-1.3 4.1-3.4 4.1-1 0-1.9-.4-2.3-1.1v3.3h-1.3v-10.4h1.3zm4.4 4c0-1.7-.8-2.9-2.3-2.9-1.4 0-2.1 1-2.1 2.3v1.3c0 1.3.7 2.3 2.1 2.3 1.5 0 2.3-1.3 2.3-3zM791.6 247.6c0 .5.1 1 1 1 .2 0 .8 0 1-.1l.1 1.2s-.8.1-1.4.1c-1.3 0-2-.5-2-1.9v-5.1h-1.5v-1.2h1.5V239l1.3-.5v3.1h2.2v1.2h-2.2v4.8zM796.3 238.4c.5 0 1 .4 1 1 0 .5-.4 1-1 1-.5 0-1-.4-1-1s.4-1 1-1zm.6 11.2h-1.3v-8h1.3v8zM806.3 245.6c0 2.4-1.5 4.1-3.7 4.1s-3.7-1.7-3.7-4.1c0-2.4 1.5-4.2 3.7-4.2s3.7 1.8 3.7 4.2zm-1.3.1c0-1.7-.8-3.1-2.3-3.1s-2.3 1.4-2.3 3v.1c0 1.6.8 2.9 2.3 2.9s2.3-1.4 2.3-2.9zM808.4 241.6h1.3v.9c.5-.7 1.4-1.1 2.3-1.1 1.8 0 2.7 1.3 2.7 2.7v5.4h-1.3v-5c0-1.4-.7-1.9-1.6-1.9-1 0-2 .7-2 2.2v4.7h-1.3v-7.9z"/>
    </g>
    <g>
      <path class="st4" d="M64.8 260h194.4v36.2H64.8z"/>
      <path class="st5" d="M258.1 261v34.2H65.8V261h192.3m2-2H63.8v38.2h196.4V259h-.1z"/>
    </g>
    <g>
      <path class="st4" d="M275.1 260h194.4v36.2H275.1z"/>
      <path class="st5" d="M468.5 261v34.2H276.1V261h192.4m2-2H274.1v38.2h196.4V259z"/>
    </g>
    <g>
      <path class="st5" d="M69.3 339.2H65V328h4.3c3.6 0 5.3 2.2 5.3 5.6s-1.7 5.6-5.3 5.6zm2.9-5.9c0-1.9-.9-3.3-3.2-3.3h-1.7v7.1H69c2.3 0 3.2-1.5 3.2-3.3v-.5zM78.6 339.3c-1.5 0-2.9-1-2.9-2.6 0-1.3.9-2.2 2.4-2.4l2.5-.4v-.3c0-.7-.5-1.1-1.3-1.1-1 0-1.8.4-2.5.7l-.8-1.7c1-.5 2.2-.9 3.4-.9 1.5 0 3.4.4 3.4 2.7v3.6c0 .5.3.7.7.9l-1 1.6c-.8-.1-1.3-.5-1.6-.9-.5.5-1.3.8-2.3.8zm.3-3.5c-.5.1-.9.4-.9.9s.4 1 1.1 1c1 0 1.5-.7 1.5-1.5v-.6l-1.7.2zM87.8 336.7c0 .4.2.7.9.7.3 0 .8 0 1.1-.1l.2 1.9s-1.1.1-2 .1c-1.5 0-2.4-.7-2.4-2.1v-4.5h-1.5v-1.9h1.5v-2.4l2.2-.6v2.9H90v1.9h-2.2v4.1zM93.3 335.7c.2 1.1 1 1.6 2 1.6.8 0 1.6-.3 2.1-.8l1.1 1.6c-.7.6-1.9 1.1-3.2 1.1-2.3 0-4.2-1.6-4.2-4.3v-.1c0-2.5 1.7-4.3 4-4.3 2.2 0 3.8 1.7 3.8 4.1v1h-5.6zm0-1.6h3.4c0-.7-.5-1.6-1.6-1.6-1.2 0-1.7.8-1.8 1.6zM109 332.9h-.4c-1.2 0-2.3.4-2.3 2.2v4.1h-2.2v-8.4h2.2v.9c.4-.6 1.1-1.1 2.2-1.1h.5v2.3zM112.7 339.3c-1.5 0-2.9-1-2.9-2.6 0-1.3.9-2.2 2.4-2.4l2.5-.4v-.3c0-.7-.5-1.1-1.3-1.1-1 0-1.8.4-2.5.7l-.8-1.7c1-.5 2.2-.9 3.4-.9 1.5 0 3.4.4 3.4 2.7v3.6c0 .5.3.7.7.9l-1 1.6c-.8-.1-1.3-.5-1.6-.9-.5.5-1.3.8-2.3.8zm.3-3.5c-.5.1-.9.4-.9.9s.4 1 1.1 1c1 0 1.5-.7 1.5-1.5v-.6l-1.7.2zM118.9 330.8h2.2v.7c.5-.5 1.1-.9 2.1-.9 1.8 0 2.9 1.3 2.9 2.9v5.7h-2.2v-4.9c0-1.2-.6-1.6-1.3-1.6-.9 0-1.6.6-1.6 1.9v4.6h-2.2v-8.4zM131.2 330.6c.8 0 1.6.3 1.9.8v-.6h2.2v8.3c0 2.1-1.7 2.9-3.7 2.9-1.2 0-2.7-.2-3.6-.8l.6-1.9c.6.3 1.7.6 2.7.6.9 0 1.8-.3 1.8-1.3v-1c-.4.5-1.1.8-2 .8-1.9 0-3.4-1.6-3.4-3.8-.1-2.2 1.2-4 3.5-4zm-1.4 3.9c0 1.1.5 2 1.6 2 1.2 0 1.6-.8 1.6-2 0-1.1-.4-2-1.6-2-1.1 0-1.6.9-1.6 2zM139.1 335.7c.2 1.1 1 1.6 2 1.6.8 0 1.6-.3 2.1-.8l1.1 1.6c-.7.6-1.9 1.1-3.2 1.1-2.3 0-4.2-1.6-4.2-4.3v-.1c0-2.5 1.7-4.3 4-4.3 2.2 0 3.8 1.7 3.8 4.1v1h-5.6zm0-1.6h3.4c0-.7-.5-1.6-1.6-1.6-1.2 0-1.7.8-1.8 1.6zM69.1 358.4h-3.7v-11.2h3.7c3.5 0 5 2.2 5 5.6s-1.5 5.6-5 5.6zm3.5-5.9c0-2.3-1.1-4.2-3.6-4.2h-2.3v8.8H69c2.5 0 3.6-1.9 3.6-4.2v-.4zM78.5 358.5c-1.6 0-2.8-.9-2.8-2.4 0-1.2.8-2.1 2.1-2.3l2.8-.4v-.5c0-1.2-.8-1.6-1.8-1.6-.9 0-1.7.3-2.3.6l-.5-1c.9-.5 2-.7 2.9-.7 1.9 0 3 .9 3 2.5v3.7c0 .5.2.9.7 1.1l-.7.9c-.5-.1-.9-.5-1.1-1-.4.7-1.2 1.1-2.3 1.1zm0-3.7c-.9.1-1.5.4-1.5 1.2 0 .9.8 1.4 1.6 1.4 1 0 2-.6 2-1.6v-1.4l-2.1.4zM86.6 356.4c0 .5.1 1 1 1 .2 0 .8 0 1-.1l.1 1.2s-.8.1-1.4.1c-1.3 0-2-.5-2-1.9v-5.1h-1.5v-1.2h1.5v-2.6l1.3-.5v3.1h2.2v1.2h-2.2v4.8zM91.5 354.8c.1 1.5 1 2.6 2.5 2.6.9 0 1.5-.3 2.1-.8l.7.9c-.7.6-1.7 1-2.8 1-2.3 0-3.8-1.7-3.8-4.1 0-2.4 1.4-4.2 3.6-4.2 2.1 0 3.4 1.7 3.4 4.1v.4h-5.7zm0-1.1h4.2c0-1.2-.7-2.4-2-2.4-1.3.1-2.1 1.2-2.2 2.4z"/>
    </g>
    <g>
      <path class="st5" d="M191 347.2h7.7v1.2h-3.2v10h-1.4v-10H191v-1.2zM201.1 347.2c.5 0 1 .4 1 1 0 .5-.4 1-1 1-.5 0-1-.4-1-1s.4-1 1-1zm.6 11.2h-1.3v-8h1.3v8zM210.2 358.4h-1.3v-5c0-1.4-.7-1.9-1.6-1.9-.9 0-1.8.7-1.8 2.2v4.7h-1.3v-8h1.3v.9c.5-.7 1.2-1.1 2.1-1.1.7 0 1.7.4 2.2 1.3.6-1 1.5-1.3 2.4-1.3 1.7 0 2.7 1.3 2.7 2.7v5.5h-1.3v-5c0-1.4-.8-1.9-1.6-1.9-.9 0-1.8.7-1.8 2.2v4.7zM218.3 354.8c.1 1.5 1 2.6 2.5 2.6.9 0 1.5-.3 2.1-.8l.7.9c-.7.6-1.7 1-2.8 1-2.3 0-3.8-1.7-3.8-4.1 0-2.4 1.4-4.2 3.6-4.2 2.1 0 3.4 1.7 3.4 4.1v.4h-5.7zm.1-1.1h4.2c0-1.2-.7-2.4-2-2.4-1.3.1-2.2 1.2-2.2 2.4z"/>
    </g>
    <g>
      <path class="st5" d="M484.6 347.2h7.7v1.2h-3.2v10h-1.4v-10h-3.2v-1.2zM494.6 347.2c.5 0 1 .4 1 1 0 .5-.4 1-1 1-.5 0-1-.4-1-1s.5-1 1-1zm.6 11.2h-1.3v-8h1.3v8zM503.8 358.4h-1.3v-5c0-1.4-.7-1.9-1.6-1.9-.9 0-1.8.7-1.8 2.2v4.7h-1.3v-8h1.3v.9c.5-.7 1.2-1.1 2.1-1.1.7 0 1.7.4 2.2 1.3.6-1 1.5-1.3 2.4-1.3 1.7 0 2.7 1.3 2.7 2.7v5.5h-1.3v-5c0-1.4-.8-1.9-1.6-1.9-.9 0-1.8.7-1.8 2.2v4.7zM511.9 354.8c.1 1.5 1 2.6 2.5 2.6.9 0 1.5-.3 2.1-.8l.7.9c-.7.6-1.7 1-2.8 1-2.3 0-3.8-1.7-3.8-4.1 0-2.4 1.4-4.2 3.6-4.2 2.1 0 3.4 1.7 3.4 4.1v.4h-5.7zm0-1.1h4.2c0-1.2-.7-2.4-2-2.4-1.3.1-2.1 1.2-2.2 2.4z"/>
    </g>
    <g>
      <path class="st4" d="M65.2 368.7h117v36.2h-117z"/>
      <path class="st5" d="M181.2 369.7v34.2h-115v-34.2h115m2-2h-119v38.2h119v-38.2z"/>
    </g>
    <g>
      <path class="st4" d="M191.6 368.7h117v36.2h-117z"/>
      <path class="st5" d="M307.6 369.7v34.2h-115v-34.2h115m2-2h-119v38.2h119v-38.2z"/>
    </g>
    <g>
      <path class="st4" d="M491.3 296.2c-2.7 0-5-2.2-5-5V265c0-2.8 2.2-5 5-5h184.4c2.7 0 5 2.2 5 5v26.2c0 2.8-2.2 5-5 5H491.3z"/>
      <path class="st5" d="M675.7 261c2.2 0 4 1.8 4 4v26.2c0 2.2-1.8 4-4 4H491.3c-2.2 0-4-1.8-4-4V265c0-2.2 1.8-4 4-4h184.4m0-2H491.3c-3.3 0-6 2.7-6 6v26.2c0 3.3 2.7 6 6 6h184.4c3.3 0 6-2.7 6-6V265c0-3.3-2.7-6-6-6z"/>
    </g>
    <g>
      <path class="st4" d="M700.6 296.2c-2.7 0-5-2.2-5-5V265c0-2.8 2.2-5 5-5H885c2.7 0 5 2.2 5 5v26.2c0 2.8-2.2 5-5 5H700.6z"/>
      <path class="st5" d="M885 261c2.2 0 4 1.8 4 4v26.2c0 2.2-1.8 4-4 4H700.6c-2.2 0-4-1.8-4-4V265c0-2.2 1.8-4 4-4H885m0-2H700.6c-3.3 0-6 2.7-6 6v26.2c0 3.3 2.7 6 6 6H885c3.3 0 6-2.7 6-6V265c0-3.3-2.7-6-6-6z"/>
    </g>
    <g>
      <path class="st5" d="M192.8 419.4c.1 1.5 1 2.6 2.5 2.6.9 0 1.5-.3 2.1-.8l.7.9c-.7.6-1.7 1-2.8 1-2.3 0-3.8-1.7-3.8-4.1 0-2.4 1.4-4.2 3.6-4.2 2.1 0 3.4 1.7 3.4 4.1v.4h-5.7zm0-1.1h4.2c0-1.2-.7-2.4-2-2.4s-2.1 1.2-2.2 2.4zM203.2 414.8c.9 0 1.7.3 2.3 1.1v-.9h1.3v8.1c0 2-1.7 2.6-3.4 2.6-.9 0-2.1-.2-3-.6l.4-1.1c.6.3 1.6.6 2.5.6 1.3 0 2.1-.5 2.1-1.7v-1.5c-.5.8-1.4 1.1-2.3 1.1-2 0-3.2-1.6-3.2-3.7s1.3-4 3.3-4zm2.3 3.7c0-1.4-.6-2.5-2-2.5-1.5 0-2.1 1.1-2.1 2.5v.1c0 1.4.7 2.5 2.1 2.5 1.4 0 2-1.1 2-2.6zM221.2 417c0 3-1.2 6.1-4.4 6.1-1.6 0-2.7-.7-3.3-1.8l1.4-.4c.5.7 1.1 1.1 2 1.1 2.1 0 3-2.2 3-4.5-.5.8-1.4 1.6-3 1.6-2.1 0-3.6-1.6-3.6-3.6 0-2.2 1.6-3.8 3.9-3.8 2.4 0 4.2 1.8 4.2 5.2v.1zm-4.1-4.2c-1.4 0-2.5 1-2.5 2.6s1 2.6 2.5 2.6 2.5-1 2.5-2.5c0-1.7-1.1-2.7-2.5-2.7zM224.4 415c.6 0 1.1.5 1.1 1.1 0 .6-.5 1.1-1.1 1.1-.6 0-1.1-.5-1.1-1.1.1-.7.5-1.1 1.1-1.1zm0 6c.6 0 1.1.5 1.1 1.1 0 .6-.5 1.1-1.1 1.1-.6 0-1.1-.5-1.1-1.1.1-.7.5-1.1 1.1-1.1zM228.9 420.1c.4 1.1 1.1 1.8 2.6 1.8 1.6 0 2.4-.9 2.4-2.1 0-1.2-.9-2-2.6-2h-.5v-1.2h.3c1.5 0 2.7-.5 2.7-1.9 0-1.3-1-1.9-2.2-1.9-1.2 0-2.1.7-2.5 1.7l-1.3-.5c.6-1.6 2.1-2.4 3.7-2.4 2 0 3.6 1.2 3.6 3 0 1.2-.7 2.3-2.1 2.6 1.6.3 2.3 1.4 2.3 2.7 0 2.2-1.8 3.2-3.9 3.2-1.8 0-3.3-.8-3.9-2.6l1.4-.4zM245.5 417.4c0 2.9-1.1 5.7-4.1 5.7-3 0-4.1-2.8-4.1-5.7 0-2.9 1.1-5.8 4.1-5.8 3.1 0 4.1 2.8 4.1 5.8zm-1.4.3v-.7c0-2.7-1-4.2-2.6-4.2s-2.6 1.5-2.6 4.2v.7c0 2.7 1 4.2 2.6 4.2 1.5 0 2.6-1.5 2.6-4.2zM248.7 415c.6 0 1.1.5 1.1 1.1 0 .6-.5 1.1-1.1 1.1-.6 0-1.1-.5-1.1-1.1.1-.7.5-1.1 1.1-1.1zm0 6c.6 0 1.1.5 1.1 1.1 0 .6-.5 1.1-1.1 1.1-.6 0-1.1-.5-1.1-1.1.1-.7.5-1.1 1.1-1.1zM260.1 417.4c0 2.9-1.1 5.7-4.1 5.7-3 0-4.1-2.8-4.1-5.7 0-2.9 1.1-5.8 4.1-5.8 3 0 4.1 2.8 4.1 5.8zm-1.5.3v-.7c0-2.7-1-4.2-2.6-4.2s-2.6 1.5-2.6 4.2v.7c0 2.7 1 4.2 2.6 4.2s2.6-1.5 2.6-4.2zM270.3 417.4c0 2.9-1.1 5.7-4.1 5.7-3 0-4.1-2.8-4.1-5.7 0-2.9 1.1-5.8 4.1-5.8 3 0 4.1 2.8 4.1 5.8zm-1.5.3v-.7c0-2.7-1-4.2-2.6-4.2s-2.6 1.5-2.6 4.2v.7c0 2.7 1 4.2 2.6 4.2s2.6-1.5 2.6-4.2z"/>
    </g>
    <g>
      <path class="st5" d="M330 389.7c0 .5.1 1 1 1 .2 0 .8 0 1-.1l.1 1.2s-.8.1-1.4.1c-1.3 0-2-.5-2-1.9v-5.1h-1.5v-1.2h1.5v-2.6l1.3-.5v3.1h2.2v1.2H330v4.8zM340.9 387.7c0 2.4-1.5 4.1-3.7 4.1s-3.7-1.7-3.7-4.1c0-2.4 1.5-4.2 3.7-4.2s3.7 1.8 3.7 4.2zm-1.4 0c0-1.7-.8-3.1-2.3-3.1-1.5 0-2.3 1.4-2.3 3v.1c0 1.6.8 2.9 2.3 2.9 1.5.1 2.3-1.3 2.3-2.9z"/>
    </g>
    <g>
      <path class="st5" d="M66.4 419.4c.1 1.5 1 2.6 2.5 2.6.9 0 1.5-.3 2.1-.8l.7.9c-.7.6-1.7 1-2.8 1-2.3 0-3.8-1.7-3.8-4.1 0-2.4 1.4-4.2 3.6-4.2 2.1 0 3.4 1.7 3.4 4.1v.4h-5.7zm0-1.1h4.2c0-1.2-.7-2.4-2-2.4s-2.1 1.2-2.2 2.4zM76.8 414.8c.9 0 1.7.3 2.3 1.1v-.9h1.3v8.1c0 2-1.7 2.6-3.4 2.6-.9 0-2.1-.2-3-.6l.4-1.1c.6.3 1.6.6 2.5.6 1.3 0 2.1-.5 2.1-1.7v-1.5c-.5.8-1.4 1.1-2.3 1.1-2 0-3.2-1.6-3.2-3.7s1.3-4 3.3-4zm2.3 3.7c0-1.4-.6-2.5-2-2.5-1.5 0-2.1 1.1-2.1 2.5v.1c0 1.4.7 2.5 2.1 2.5 1.4 0 2-1.1 2-2.6zM87 422.9v-1.3c.8-.7 3.2-2.7 4-3.5.9-.8 1.7-1.8 1.7-3.1 0-1.4-.9-2.2-2.2-2.2-1.4 0-2.1 1-2.2 2.4l-1.4-.1c.1-2.2 1.5-3.5 3.6-3.5 2.2 0 3.7 1.3 3.7 3.5 0 1.6-.8 2.7-3.3 4.8l-2 1.7h5.5v1.2H87zM96.6 417.2l.6-5.5h6.4v1.2h-5.3l-.3 3.2c.6-.6 1.5-.9 2.4-.9 2.1 0 3.7 1.6 3.7 3.8 0 2.4-1.6 4.1-4 4.1-1.8 0-3.4-.9-3.8-2.7l1.4-.2c.3.9 1 1.7 2.4 1.7 1.6 0 2.6-1.2 2.6-2.8 0-1.6-1-2.7-2.6-2.7-.8 0-1.7.4-2.1 1l-1.4-.2zM109.5 411.7h1.3l-3.9 11.2h-1.4l4-11.2zM114.3 411.8v-.1h1.3v11.2h-1.4v-8.2h-2.1v-1.2h.2c1.6 0 2-.5 2-1.7zM120.1 411.8v-.1h1.3v11.2H120v-8.2h-2v-1.2h.2c1.5 0 1.9-.5 1.9-1.7zM127.6 411.7h1.3l-3.9 11.2h-1.4l4-11.2zM130.7 422.9v-1.3c.8-.7 3.2-2.7 4-3.5.9-.8 1.7-1.8 1.7-3.1 0-1.4-.9-2.2-2.2-2.2-1.4 0-2.1 1-2.2 2.4l-1.4-.1c.1-2.2 1.5-3.5 3.6-3.5 2.2 0 3.7 1.3 3.7 3.5 0 1.6-.8 2.7-3.3 4.8l-2 1.7h5.5v1.2h-7.4zM148.3 417.4c0 2.9-1.1 5.7-4.1 5.7-3 0-4.1-2.8-4.1-5.7 0-2.9 1.1-5.8 4.1-5.8 3 0 4.1 2.8 4.1 5.8zm-1.5.3v-.7c0-2.7-1-4.2-2.6-4.2s-2.6 1.5-2.6 4.2v.7c0 2.7 1 4.2 2.6 4.2s2.6-1.5 2.6-4.2zM152.1 411.8v-.1h1.3v11.2H152v-8.2h-2v-1.2h.2c1.5 0 1.9-.5 1.9-1.7zM156.3 417.2l.6-5.5h6.4v1.2H158l-.3 3.2c.6-.6 1.5-.9 2.4-.9 2.1 0 3.7 1.6 3.7 3.8 0 2.4-1.6 4.1-4 4.1-1.8 0-3.4-.9-3.8-2.7l1.4-.2c.3.9 1 1.7 2.4 1.7 1.6 0 2.6-1.2 2.6-2.8 0-1.6-1-2.7-2.6-2.7-.8 0-1.7.4-2.1 1l-1.4-.2z"/>
    </g>
    <g>
      <path class="st5" d="M362.5 358.4h-3.7v-11.2h3.7c3.5 0 5 2.2 5 5.6s-1.5 5.6-5 5.6zm3.6-5.9c0-2.3-1.1-4.2-3.6-4.2h-2.3v8.8h2.3c2.5 0 3.6-1.9 3.6-4.2v-.4zM371.9 358.5c-1.6 0-2.8-.9-2.8-2.4 0-1.2.8-2.1 2.1-2.3l2.8-.4v-.5c0-1.2-.8-1.6-1.8-1.6-.9 0-1.7.3-2.3.6l-.5-1c.9-.5 2-.7 2.9-.7 1.9 0 3 .9 3 2.5v3.7c0 .5.2.9.7 1.1l-.7.9c-.5-.1-.9-.5-1.1-1-.4.7-1.2 1.1-2.3 1.1zm0-3.7c-.9.1-1.5.4-1.5 1.2 0 .9.8 1.4 1.6 1.4 1 0 2-.6 2-1.6v-1.4l-2.1.4zM380 356.4c0 .5.1 1 1 1 .2 0 .8 0 1-.1l.1 1.2s-.8.1-1.4.1c-1.3 0-2-.5-2-1.9v-5.1h-1.5v-1.2h1.5v-2.6l1.3-.5v3.1h2.2v1.2H380v4.8zM384.9 354.8c.1 1.5 1 2.6 2.5 2.6.9 0 1.5-.3 2.1-.8l.7.9c-.7.6-1.7 1-2.8 1-2.3 0-3.8-1.7-3.8-4.1 0-2.4 1.4-4.2 3.6-4.2 2.1 0 3.4 1.7 3.4 4.1v.4h-5.7zm0-1.1h4.2c0-1.2-.7-2.4-2-2.4-1.3.1-2.1 1.2-2.2 2.4z"/>
    </g>
    <g>
      <path class="st5" d="M509.9 281.4h-4.5l-.7 2.5h-1.5l3.5-11.2h2l3.5 11.2h-1.5l-.8-2.5zm-4.2-1.2h3.8l-1.9-6.3h-.1l-1.8 6.3zM513.9 272.7h1.3v9.4c0 .5.2.8.8.8h.8l.1 1.1s-.8.1-1.3.1c-.9 0-1.7-.4-1.7-1.6v-9.8zM518.2 272.7h1.3v9.4c0 .5.2.8.8.8h.8l.1 1.1s-.8.1-1.3.1c-.9 0-1.7-.4-1.7-1.6v-9.8zM528.2 281.9c0 .5.1 1 1 1 .2 0 .8 0 1-.1l.1 1.2s-.8.1-1.4.1c-1.3 0-2-.5-2-1.9v-5.1h-1.5v-1.2h1.5v-2.6l1.3-.5v3.1h2.2v1.2h-2.2v4.8zM536.3 277.1h-.2c-1.3 0-2.6.5-2.6 2.7v4.1h-1.3v-8h1.3v1.3c.4-.9 1.4-1.4 2.4-1.4h.4v1.3zM540.1 284.1c-1.6 0-2.8-.9-2.8-2.4 0-1.2.8-2.1 2.1-2.3l2.8-.4v-.5c0-1.2-.8-1.6-1.8-1.6-.9 0-1.7.3-2.3.6l-.5-1c.9-.5 2-.7 2.9-.7 1.9 0 3 .9 3 2.5v3.7c0 .5.2.9.7 1.1l-.7.9c-.5-.1-.9-.5-1.1-1-.4.7-1.2 1.1-2.3 1.1zm.1-3.7c-.9.1-1.5.4-1.5 1.2 0 .9.8 1.4 1.6 1.4 1 0 2-.6 2-1.6V280l-2.1.4zM546.2 275.9h1.3v.9c.5-.7 1.4-1.1 2.3-1.1 1.8 0 2.7 1.3 2.7 2.7v5.4h-1.3v-5c0-1.4-.7-1.9-1.6-1.9-1 0-2 .7-2 2.2v4.7h-1.3v-7.9zM554.3 282.9l.8-.9c.5.4 1.3 1 2.4 1 .9 0 1.6-.4 1.6-1.2 0-.9-.9-1.1-2-1.3-1.1-.3-2.5-.7-2.5-2.3 0-1.3 1.2-2.3 2.9-2.3 1.1 0 2.2.4 2.8 1l-.8.9c-.5-.4-1.2-.8-2-.8-1.1 0-1.6.5-1.6 1.2 0 .6.4.9 1.2 1.1.4.1.9.3 1.3.4 1.1.3 2 .9 2 2.2 0 1.6-1.5 2.4-3 2.4-1-.2-2.2-.6-3.1-1.4zM564.7 284.1c-1.6 0-2.8-.9-2.8-2.4 0-1.2.8-2.1 2.1-2.3l2.8-.4v-.5c0-1.2-.8-1.6-1.8-1.6-.9 0-1.7.3-2.3.6l-.5-1c.9-.5 2-.7 2.9-.7 1.9 0 3 .9 3 2.5v3.7c0 .5.2.9.7 1.1l-.7.9c-.5-.1-.9-.5-1.1-1-.5.7-1.2 1.1-2.3 1.1zm0-3.7c-.9.1-1.5.4-1.5 1.2 0 .9.8 1.4 1.6 1.4 1 0 2-.6 2-1.6V280l-2.1.4zM571.6 280c0 1.6.8 3 2.3 3 1 0 1.7-.6 2.1-1.3l1.1.6c-.5 1.1-1.7 1.9-3.2 1.9-2.2 0-3.7-1.7-3.7-4.1 0-2.4 1.5-4.2 3.7-4.2 1.4 0 2.6.7 3.2 1.9l-1.1.6c-.4-.8-1.1-1.3-2.1-1.3-1.5-.2-2.3 1.2-2.3 2.9zM581.1 281.9c0 .5.1 1 1 1 .2 0 .8 0 1-.1l.1 1.2s-.8.1-1.4.1c-1.3 0-2-.5-2-1.9v-5.1h-1.5v-1.2h1.5v-2.6l1.3-.5v3.1h2.2v1.2h-2.2v4.8zM585.8 272.7c.5 0 1 .4 1 1 0 .5-.4 1-1 1-.5 0-1-.4-1-1 0-.5.4-1 1-1zm.6 11.2h-1.3v-8h1.3v8zM595.9 279.9c0 2.4-1.5 4.1-3.7 4.1s-3.7-1.7-3.7-4.1c0-2.4 1.5-4.2 3.7-4.2s3.7 1.8 3.7 4.2zm-1.4.1c0-1.7-.8-3.1-2.3-3.1s-2.3 1.4-2.3 3v.1c0 1.6.8 2.9 2.3 2.9s2.3-1.3 2.3-2.9zM597.9 275.9h1.3v.9c.5-.7 1.4-1.1 2.3-1.1 1.8 0 2.7 1.3 2.7 2.7v5.4h-1.3v-5c0-1.4-.7-1.9-1.6-1.9-1 0-2 .7-2 2.2v4.7H598v-7.9zM606.1 282.9l.8-.9c.5.4 1.3 1 2.4 1 .9 0 1.6-.4 1.6-1.2 0-.9-.9-1.1-2-1.3-1.1-.3-2.5-.7-2.5-2.3 0-1.3 1.2-2.3 2.9-2.3 1.1 0 2.2.4 2.8 1l-.8.9c-.5-.4-1.2-.8-2-.8-1.1 0-1.6.5-1.6 1.2 0 .6.4.9 1.2 1.1.4.1.9.3 1.3.4 1.1.3 2 .9 2 2.2 0 1.6-1.5 2.4-3 2.4-1.1-.2-2.3-.6-3.1-1.4z"/>
    </g>
    <g>
      <path class="st5" d="M717.9 281.4h-4.5l-.7 2.5h-1.5l3.5-11.2h2l3.5 11.2h-1.5l-.8-2.5zm-4.2-1.2h3.8l-1.9-6.3h-.1l-1.8 6.3zM721.9 272.7h1.3v9.4c0 .5.2.8.8.8h.8l.1 1.1s-.8.1-1.3.1c-.9 0-1.7-.4-1.7-1.6v-9.8zM726.2 272.7h1.3v9.4c0 .5.2.8.8.8h.8l.1 1.1s-.8.1-1.3.1c-.9 0-1.7-.4-1.7-1.6v-9.8zM736.2 281.9c0 .5.1 1 1 1 .2 0 .8 0 1-.1l.1 1.2s-.8.1-1.4.1c-1.3 0-2-.5-2-1.9v-5.1h-1.5v-1.2h1.5v-2.6l1.3-.5v3.1h2.2v1.2h-2.2v4.8zM739.3 275.9h1.5l2 6.6 1.9-6.6h1.5l-2.9 9.2c-.4 1.1-1.1 1.4-2.1 1.4-.4 0-.9 0-1.4-.1l.2-1.2s.5.1 1.1.1c.6 0 .9-.2 1-.8l.1-.4-2.9-8.2zM749.1 275.9v.9c.5-.7 1.3-1.1 2.3-1.1 2.1 0 3.4 1.7 3.4 4.2s-1.3 4.1-3.4 4.1c-1 0-1.9-.4-2.3-1.1v3.3h-1.3v-10.4h1.3zm4.4 4c0-1.7-.8-2.9-2.3-2.9-1.4 0-2.1 1-2.1 2.3v1.3c0 1.3.7 2.3 2.1 2.3 1.5 0 2.3-1.3 2.3-3zM757.8 280.3c.1 1.5 1 2.6 2.5 2.6.9 0 1.5-.3 2.1-.8l.7.9c-.7.6-1.7 1-2.8 1-2.3 0-3.8-1.7-3.8-4.1 0-2.4 1.4-4.2 3.6-4.2 2.1 0 3.4 1.7 3.4 4.1v.4h-5.7zm.1-1h4.2c0-1.2-.7-2.4-2-2.4s-2.2 1.2-2.2 2.4zM764.8 282.9l.8-.9c.5.4 1.3 1 2.4 1 .9 0 1.6-.4 1.6-1.2 0-.9-.9-1.1-2-1.3-1.1-.3-2.5-.7-2.5-2.3 0-1.3 1.2-2.3 2.9-2.3 1.1 0 2.2.4 2.8 1l-.8.9c-.5-.4-1.2-.8-2-.8-1.1 0-1.6.5-1.6 1.2 0 .6.4.9 1.2 1.1.4.1.9.3 1.3.4 1.1.3 2 .9 2 2.2 0 1.6-1.5 2.4-3 2.4-1-.2-2.2-.6-3.1-1.4z"/>
    </g>
    <g>
      <path class="st4" d="M358.6 368.7h117v36.2h-117z"/>
      <path class="st5" d="M474.6 369.7v34.2h-115v-34.2h115m2-2h-119v38.2h119v-38.2z"/>
    </g>
    <g>
      <path class="st4" d="M485 368.7h117v36.2H485z"/>
      <path class="st5" d="M601 369.7v34.2H486v-34.2h115m2-2H484v38.2h119v-38.2z"/>
    </g>
    <g>
      <path class="st5" d="M486.2 419.4c.1 1.5 1 2.6 2.5 2.6.9 0 1.5-.3 2.1-.8l.7.9c-.7.6-1.7 1-2.8 1-2.3 0-3.8-1.7-3.8-4.1 0-2.4 1.4-4.2 3.6-4.2 2.1 0 3.4 1.7 3.4 4.1v.4h-5.7zm0-1.1h4.2c0-1.2-.7-2.4-2-2.4s-2.1 1.2-2.2 2.4zM496.6 414.8c.9 0 1.7.3 2.3 1.1v-.9h1.3v8.1c0 2-1.7 2.6-3.4 2.6-.9 0-2.1-.2-3-.6l.4-1.1c.6.3 1.6.6 2.5.6 1.3 0 2.1-.5 2.1-1.7v-1.5c-.5.8-1.4 1.1-2.3 1.1-2 0-3.2-1.6-3.2-3.7s1.4-4 3.3-4zm2.3 3.7c0-1.4-.6-2.5-2-2.5-1.5 0-2.1 1.1-2.1 2.5v.1c0 1.4.7 2.5 2.1 2.5 1.4 0 2-1.1 2-2.6zM508.5 411.8v-.1h1.3v11.2h-1.4v-8.2h-2.1v-1.2h.2c1.6 0 2-.5 2-1.7zM512.7 417.2l.6-5.5h6.4v1.2h-5.3l-.3 3.2c.6-.6 1.5-.9 2.4-.9 2.1 0 3.7 1.6 3.7 3.8 0 2.4-1.6 4.1-4 4.1-1.8 0-3.4-.9-3.8-2.7l1.4-.2c.3.9 1 1.7 2.4 1.7 1.6 0 2.6-1.2 2.6-2.8 0-1.6-1-2.7-2.6-2.7-.8 0-1.7.4-2.1 1l-1.4-.2zM523.3 415c.6 0 1.1.5 1.1 1.1 0 .6-.5 1.1-1.1 1.1-.6 0-1.1-.5-1.1-1.1 0-.7.5-1.1 1.1-1.1zm0 6c.6 0 1.1.5 1.1 1.1 0 .6-.5 1.1-1.1 1.1-.6 0-1.1-.5-1.1-1.1 0-.7.5-1.1 1.1-1.1zM534.6 417.4c0 2.9-1.1 5.7-4.1 5.7-3 0-4.1-2.8-4.1-5.7 0-2.9 1.1-5.8 4.1-5.8 3 0 4.1 2.8 4.1 5.8zm-1.5.3v-.7c0-2.7-1-4.2-2.6-4.2s-2.6 1.5-2.6 4.2v.7c0 2.7 1 4.2 2.6 4.2s2.6-1.5 2.6-4.2zM544.8 417.4c0 2.9-1.1 5.7-4.1 5.7-3 0-4.1-2.8-4.1-5.7 0-2.9 1.1-5.8 4.1-5.8 3.1 0 4.1 2.8 4.1 5.8zm-1.4.3v-.7c0-2.7-1-4.2-2.6-4.2s-2.6 1.5-2.6 4.2v.7c0 2.7 1 4.2 2.6 4.2 1.5 0 2.6-1.5 2.6-4.2zM548 415c.6 0 1.1.5 1.1 1.1 0 .6-.5 1.1-1.1 1.1-.6 0-1.1-.5-1.1-1.1.1-.7.5-1.1 1.1-1.1zm0 6c.6 0 1.1.5 1.1 1.1 0 .6-.5 1.1-1.1 1.1-.6 0-1.1-.5-1.1-1.1.1-.7.5-1.1 1.1-1.1zM559.4 417.4c0 2.9-1.1 5.7-4.1 5.7-3 0-4.1-2.8-4.1-5.7 0-2.9 1.1-5.8 4.1-5.8 3 0 4.1 2.8 4.1 5.8zm-1.5.3v-.7c0-2.7-1-4.2-2.6-4.2s-2.6 1.5-2.6 4.2v.7c0 2.7 1 4.2 2.6 4.2s2.6-1.5 2.6-4.2zM569.6 417.4c0 2.9-1.1 5.7-4.1 5.7-3 0-4.1-2.8-4.1-5.7 0-2.9 1.1-5.8 4.1-5.8 3 0 4.1 2.8 4.1 5.8zm-1.5.3v-.7c0-2.7-1-4.2-2.6-4.2s-2.6 1.5-2.6 4.2v.7c0 2.7 1 4.2 2.6 4.2s2.6-1.5 2.6-4.2z"/>
    </g>
    <g>
      <path class="st5" d="M359.8 419.4c.1 1.5 1 2.6 2.5 2.6.9 0 1.5-.3 2.1-.8l.7.9c-.7.6-1.7 1-2.8 1-2.3 0-3.8-1.7-3.8-4.1 0-2.4 1.4-4.2 3.6-4.2 2.1 0 3.4 1.7 3.4 4.1v.4h-5.7zm0-1.1h4.2c0-1.2-.7-2.4-2-2.4s-2.1 1.2-2.2 2.4zM370.3 414.8c.9 0 1.7.3 2.3 1.1v-.9h1.3v8.1c0 2-1.7 2.6-3.4 2.6-.9 0-2.1-.2-3-.6l.4-1.1c.6.3 1.6.6 2.5.6 1.3 0 2.1-.5 2.1-1.7v-1.5c-.5.8-1.4 1.1-2.3 1.1-2 0-3.2-1.6-3.2-3.7s1.3-4 3.3-4zm2.2 3.7c0-1.4-.6-2.5-2-2.5-1.5 0-2.1 1.1-2.1 2.5v.1c0 1.4.7 2.5 2.1 2.5 1.4 0 2-1.1 2-2.6zM380.4 422.9v-1.3c.8-.7 3.2-2.7 4-3.5.9-.8 1.7-1.8 1.7-3.1 0-1.4-.9-2.2-2.2-2.2-1.4 0-2.1 1-2.2 2.4l-1.4-.1c.1-2.2 1.5-3.5 3.6-3.5 2.2 0 3.7 1.3 3.7 3.5 0 1.6-.8 2.7-3.3 4.8l-2 1.7h5.5v1.2h-7.4zM390 417.2l.6-5.5h6.4v1.2h-5.3l-.3 3.2c.6-.6 1.5-.9 2.4-.9 2.1 0 3.7 1.6 3.7 3.8 0 2.4-1.6 4.1-4 4.1-1.8 0-3.4-.9-3.8-2.7l1.4-.2c.3.9 1 1.7 2.4 1.7 1.6 0 2.6-1.2 2.6-2.8 0-1.6-1-2.7-2.6-2.7-.8 0-1.7.4-2.1 1l-1.4-.2zM403 411.7h1.3l-3.9 11.2H399l4-11.2zM407.8 411.8v-.1h1.3v11.2h-1.4v-8.2h-2.1v-1.2h.2c1.5 0 2-.5 2-1.7zM413.5 411.8v-.1h1.3v11.2h-1.4v-8.2h-2.1v-1.2h.2c1.6 0 2-.5 2-1.7zM421.1 411.7h1.3l-3.9 11.2h-1.4l4-11.2zM424.1 422.9v-1.3c.8-.7 3.2-2.7 4-3.5.9-.8 1.7-1.8 1.7-3.1 0-1.4-.9-2.2-2.2-2.2-1.4 0-2.1 1-2.2 2.4l-1.4-.1c.1-2.2 1.5-3.5 3.6-3.5 2.2 0 3.7 1.3 3.7 3.5 0 1.6-.8 2.7-3.3 4.8l-2 1.7h5.5v1.2h-7.4zM441.7 417.4c0 2.9-1.1 5.7-4.1 5.7-3 0-4.1-2.8-4.1-5.7 0-2.9 1.1-5.8 4.1-5.8 3 0 4.1 2.8 4.1 5.8zm-1.5.3v-.7c0-2.7-1-4.2-2.6-4.2s-2.6 1.5-2.6 4.2v.7c0 2.7 1 4.2 2.6 4.2s2.6-1.5 2.6-4.2zM445.6 411.8v-.1h1.3v11.2h-1.4v-8.2h-2.1v-1.2h.2c1.5 0 2-.5 2-1.7zM449.8 417.2l.6-5.5h6.4v1.2h-5.3l-.3 3.2c.6-.6 1.5-.9 2.4-.9 2.1 0 3.7 1.6 3.7 3.8 0 2.4-1.6 4.1-4 4.1-1.8 0-3.4-.9-3.8-2.7l1.4-.2c.3.9 1 1.7 2.4 1.7 1.6 0 2.6-1.2 2.6-2.8 0-1.6-1-2.7-2.6-2.7-.8 0-1.7.4-2.1 1l-1.4-.2z"/>
    </g>
    <path class="st2" d="M703 371.8h108.6v34.5H703z"/>
    <path class="st9" d="M703 367.8h108.6v34.5H703z"/>
    <g>
      <path class="st4" d="M737 378.4h8v1.4h-6.3v4.4h5.8v1.4h-5.8v6.1H737v-13.3zM748.2 378.4c.6 0 1.1.5 1.1 1.2 0 .6-.5 1.2-1.1 1.2-.6 0-1.2-.5-1.2-1.2s.6-1.2 1.2-1.2zm.8 13.3h-1.6v-9.5h1.6v9.5zM751.9 378.4h1.6v11.2c0 .6.2 1 .9 1 .4 0 .7 0 1-.1l.2 1.3s-.9.1-1.6.1c-1.1 0-2-.5-2-1.9v-11.6zM759.7 389.3c0 .6.1 1.2 1.2 1.2.3 0 .9-.1 1.2-.1l.2 1.4s-.9.1-1.7.1c-1.5 0-2.4-.6-2.4-2.2v-6.1h-1.8v-1.4h1.8v-3.1l1.6-.6v3.6h2.6v1.4h-2.6v5.8zM765.5 387.4c.1 1.8 1.2 3.1 2.9 3.1 1.1 0 1.8-.4 2.5-.9l.8 1.1c-.9.7-2 1.2-3.4 1.2-2.8 0-4.5-2.1-4.5-4.9 0-2.9 1.7-4.9 4.3-4.9 2.5 0 4 2.1 4 4.9v.5h-6.6zm0-1.2h5c-.1-1.5-.9-2.8-2.4-2.8s-2.5 1.3-2.6 2.8zM779.4 383.6h-.2c-1.6 0-3 .6-3 3.2v4.9h-1.6v-9.5h1.6v1.5c.5-1.1 1.6-1.7 2.8-1.7h.5v1.6z"/>
    </g>
    <path class="st5" d="M669.6 286.6l-5-7.5h10zM669.6 269.5l-5 7.6h10zM881.1 286.6l-5-7.5h10zM881.1 269.5l-5 7.6h10z"/>
  </g>
  <path class="st3" d="M.3 636h960v4H.3z"/>
</svg>
