<svg id="Layer_1" xmlns="http://www.w3.org/2000/svg" viewBox="0 0 960 640">
  <style>
    .st0{fill:#28A197;} .st1{fill:#FFD419;} .st2{fill:#004A1E;} .st3{fill:#DADADA;} .st4{fill:#FFFFFF;} .st5{fill:#0B0B0B;} .st6{fill:#005EA5;} .st7{fill:#006435;} .st8{fill:none;stroke:#8C8C8C;stroke-miterlimit:10;} .st9{fill:#00823B;} .st10{fill:#8C8C8C;} .st11{fill:#DE0000;} .st12{fill:#6E6E6E;} .st13{fill:#F8F8F8;} .st14{fill:#DEE0E2;} .st15{clip-path:url(#SVGID_2_);} .st16{clip-path:url(#SVGID_2_);fill:#0B0B0B;} .st17{clip-path:url(#SVGID_2_);fill:#DE0000;} .st18{fill:#881516;} .st19{fill:#B10E1E;} .st20{opacity:0.5;} .st21{fill:#8C8C8C;stroke:#B4B4B4;stroke-width:8;stroke-miterlimit:10;} .st22{fill:#FFBF47;}
  </style>
  <path class="st3" d="M51.7 197.8h864v251.4h-864zM0 40V10C0 4.5 4.5 0 10 0h940c5.5 0 10 4.5 10 10v30"/>
  <circle class="st4" cx="25.4" cy="20" r="8.5"/>
  <circle class="st4" cx="49.1" cy="20" r="8.5"/>
  <circle class="st4" cx="72.9" cy="20" r="8.5"/>
  <path class="st5" d="M1 40h958v65H1z"/>
  <path class="st4" d="M267 59.7l-10.7 13v-13h-6.1v30h6.1v-9.1l3.9-4.3 7.9 13.4h7l-11-18.1 10.4-11.9zM229.6 84.3c-.8-.3-1.4-.6-2-1.2-.6-.5-1-1.2-1.3-2-.3-.8-.5-1.7-.5-2.8V59.7h-6v19.5c0 1.7.3 3.2.9 4.5.6 1.4 1.5 2.5 2.5 3.5 1.1.9 2.4 1.7 3.9 2.2 1.5.5 3.1.8 4.9.8 1.8 0 3.4-.3 4.9-.8 1.5-.5 2.8-1.2 3.9-2.2 1.1-.9 1.9-2.1 2.5-3.5.6-1.4.9-2.9.9-4.5V59.7h-6v18.6c0 1.1-.2 2-.5 2.8-.3.8-.8 1.5-1.3 2-.6.5-1.2.9-2 1.2-.8.3-1.6.4-2.5.4-.7 0-1.5-.2-2.3-.4M207.7 87.8c.2.5.5.9.8 1.2.3.3.8.6 1.2.8.5.2 1 .3 1.5.3s1-.1 1.5-.3c.5-.2.9-.5 1.2-.8.3-.3.6-.8.8-1.2.2-.5.3-1 .3-1.5s-.1-1-.3-1.5c-.2-.5-.5-.9-.8-1.2-.3-.3-.8-.6-1.2-.8-.5-.2-.9-.3-1.5-.3-.5 0-1 .1-1.5.3-.5.2-.9.5-1.2.8-.3.3-.6.7-.8 1.2-.2.5-.3.9-.3 1.5s.1 1 .3 1.5M198.1 89.7l8.5-30h-6.7l-5.7 22.6h-.2l-5.8-22.6h-6.8l8.5 30zM161.3 83.9c-1-.5-1.8-1.2-2.5-2.1-.7-.9-1.2-1.9-1.5-3.1-.3-1.2-.5-2.5-.5-3.9v-.2c0-1.4.2-2.7.5-3.9.3-1.2.9-2.2 1.5-3.1.7-.9 1.5-1.6 2.5-2.1s2.2-.7 3.5-.7c1.3 0 2.5.2 3.5.7 1 .5 1.8 1.2 2.5 2.1.7.9 1.2 1.9 1.5 3.1.3 1.2.5 2.5.5 3.9v.2c0 1.4-.2 2.7-.5 3.9-.3 1.2-.9 2.2-1.5 3.1-.7.9-1.5 1.6-2.5 2.1s-2.2.7-3.5.7c-1.3.1-2.5-.2-3.5-.7m-2.5-23.4c-1.8.8-3.3 1.9-4.5 3.3-1.2 1.4-2.2 3-2.8 4.9-.6 1.9-1 3.9-1 6 0 2.2.3 4.2 1 6 .6 1.9 1.6 3.5 2.8 4.9 1.2 1.4 2.7 2.5 4.5 3.3 1.8.8 3.8 1.2 6 1.2s4.2-.4 6-1.2c1.8-.8 3.3-1.9 4.5-3.3 1.2-1.4 2.2-3 2.8-4.9.6-1.9 1-3.9 1-6s-.3-4.2-1-6c-.6-1.9-1.6-3.5-2.8-4.9-1.2-1.4-2.7-2.5-4.5-3.3-1.8-.8-3.8-1.2-6-1.2-2.3 0-4.3.4-6 1.2M125.7 74.6c0-1.3.2-2.5.5-3.7.3-1.2.8-2.2 1.5-3.1.7-.9 1.5-1.6 2.5-2.2 1-.6 2.2-.8 3.6-.8.9 0 1.7.1 2.4.3.7.2 1.4.5 1.9.9.6.4 1.1.9 1.5 1.4.4.5.8 1.1 1.1 1.8l5.3-3c-.5-1-1.2-2-2-2.9-.8-.9-1.7-1.6-2.8-2.2-1.1-.6-2.2-1.1-3.5-1.4-1.3-.3-2.6-.5-4-.5-2.2 0-4.2.4-5.9 1.2-1.8.8-3.3 1.9-4.5 3.3-1.2 1.4-2.2 3-2.9 4.9-.7 1.9-1 3.9-1 6 0 2.2.3 4.2.9 6 .6 1.9 1.5 3.5 2.7 4.9 1.2 1.4 2.6 2.5 4.3 3.3 1.7.8 3.6 1.2 5.8 1.2.9 0 1.8-.1 2.6-.3.8-.2 1.6-.5 2.3-.8.7-.3 1.3-.8 1.9-1.2.6-.5 1-1 1.4-1.6v3.5h5.3V73.3H133v4.6h7.7v.3c0 .6-.1 1.3-.3 2.1-.2.8-.6 1.5-1.1 2.1-.5.6-1.3 1.2-2.2 1.6-.9.4-2 .6-3.4.6s-2.6-.3-3.6-.8c-1-.6-1.9-1.3-2.5-2.2-.7-.9-1.1-2-1.5-3.1-.3-1.2-.5-2.4-.5-3.7v-.2zM62.3 65.8c1.4.6 2.9-.1 3.4-1.4.6-1.3-.1-2.9-1.4-3.4-1.3-.5-2.9.1-3.4 1.4-.6 1.3.1 2.9 1.4 3.4M56.3 69.3c1.4.6 2.9-.1 3.4-1.4.6-1.3-.1-2.9-1.4-3.4-1.3-.5-2.9.1-3.4 1.4-.5 1.3.1 2.9 1.4 3.4M54.6 75.9c1.4.6 2.9-.1 3.4-1.4.6-1.3-.1-2.9-1.4-3.4-1.3-.5-2.9.1-3.4 1.4-.6 1.4.1 2.9 1.4 3.4M68.9 67.9c1.4.6 2.9-.1 3.4-1.4.6-1.3-.1-2.9-1.4-3.4-1.3-.5-2.9.1-3.4 1.4-.5 1.3.1 2.9 1.4 3.4M93 65.8c-1.4.6-2.9-.1-3.4-1.4-.6-1.3.1-2.9 1.4-3.4 1.3-.5 2.9.1 3.4 1.4.6 1.3 0 2.9-1.4 3.4M99 69.3c-1.4.6-2.9-.1-3.4-1.4-.6-1.3 0-2.9 1.4-3.4 1.3-.5 2.9.1 3.4 1.4.6 1.3-.1 2.9-1.4 3.4M100.8 75.9c-1.4.6-2.9-.1-3.4-1.4-.6-1.3.1-2.9 1.4-3.4 1.3-.5 2.9.1 3.4 1.4.5 1.4-.1 2.9-1.4 3.4M86.4 67.9c-1.4.6-2.9-.1-3.4-1.4-.6-1.3.1-2.9 1.4-3.4 1.3-.5 2.9.1 3.4 1.4.6 1.3-.1 2.9-1.4 3.4M79.1 61.1l3.3 1.7V58l-3.3 1-.3-.3 1.3-4.2h-4.8l1.3 4.2-.3.3-3.4-1v4.9l3.3-1.7.3.3-1.9 5.8c-.1.3-.1.6-.1.9 0 1.6 1.2 2.8 2.6 3.1h1c1.5-.2 2.7-1.5 2.7-3.1 0-.3 0-.6-.1-.9l-1.9-5.8c0-.1.2-.2.3-.4M77.7 89.3c6.3 0 12.3.4 17.6 1.2 1.5-6.4 3.4-10 5.3-12.6L97 76.7c.4 1.8.4 2.7 0 3.8-.6-.6-1.1-1.6-1.6-3.3L93.7 83c1.1-.7 1.9-1.2 2.8-1.2-1.7 3.6-3.7 4.5-5.1 4.2-1.6-.3-2.4-1.8-2.1-3 .4-1.7 2.2-2.2 3-.2 1.6-3.3-1.1-4.3-2.9-3.3 2.7-2.7 3-5.1.8-7.9-3 2.3-3.1 4.6-1.7 7.8-1.8-2-4.5-.9-3.5 2.3 1.3-2 3-.7 2.7 1.1-.2 1.6-2.4 2.9-5.1 2.7-3.8-.3-4.1-3-4.2-5.2.9-.2 2.6.7 4.1 2.7l.5-6.1c-1.6 1.6-3 2-4.6 2 .5-1.7 3-4.4 3-4.4h-7.5s2.4 2.7 3 4.4c-1.6-.1-3-.4-4.6-2l.5 6.1c1.5-2 3.2-2.9 4.1-2.7-.1 2.2-.3 4.8-4.2 5.2-2.7.2-4.8-1.1-5.1-2.7-.3-1.9 1.4-3.1 2.7-1.1 1-3.3-1.8-4.3-3.5-2.3 1.4-3.2 1.3-5.5-1.7-7.8-2.2 2.9-1.9 5.3.8 7.9-1.8-1-4.5.1-2.9 3.3.8-2 2.6-1.6 3 .2.3 1.2-.5 2.7-2.1 3-1.3.2-3.4-.7-5-4.2.9 0 1.7.5 2.8 1.2L60 77.2c-.4 1.6-1 2.7-1.6 3.3-.4-1.2-.3-2 0-3.8L54.8 78c1.9 2.6 3.7 6.2 5.3 12.6 5.3-.8 11.2-1.3 17.6-1.3"/>
  <path class="st3" d="M4 640V40h952v600h4V36H0v604z"/>
  <path class="st5" d="M52.4 145.1h19.2v4.7h-7.1v20.5h-5.1v-20.5h-7.1v-4.7zM83.3 156.2h-.9c-2.8 0-5.2.9-5.2 5v9.1h-4.9v-18.8h4.9v2.1c.8-1.3 2.6-2.4 5-2.4h1.1v5zM91.6 170.6c-3.4 0-6.5-2.2-6.5-5.9 0-3 2-5 5.3-5.5l5.7-.8v-.6c0-1.7-1.1-2.4-3-2.4-2.3 0-4.1.9-5.5 1.5l-1.9-3.7c2.2-1.2 4.9-2.1 7.6-2.1 3.5 0 7.6.9 7.6 6v8.1c0 1.1.6 1.5 1.6 1.9l-2.2 3.5c-1.8-.1-3-1.1-3.5-2.1-1.1 1.5-2.9 2.1-5.2 2.1zm.6-7.9c-1.2.2-2 .9-2 1.9 0 1.2.9 2.2 2.6 2.2 2.3 0 3.3-1.5 3.3-3.5V162l-3.9.7zM105.5 151.5h4.9v1.6c1-1 2.5-2 4.8-2 4.1 0 6.5 2.8 6.5 6.5v12.7h-4.9v-10.9c0-2.7-1.3-3.7-3-3.7-2 0-3.5 1.4-3.5 4.3v10.3h-4.9v-18.8zM127.6 164.2c1.3 1.3 3.6 2.3 5.5 2.3 1.5 0 2.7-.4 2.7-1.5 0-.9-.7-1.3-2.3-1.7-1.1-.3-3.1-.6-4.7-1.3-1.8-.8-3.3-2.3-3.3-4.9 0-4 3.6-6 7.7-6 3.2 0 5.9 1.2 7.5 2.7l-3.1 3.2c-1-.9-2.6-1.7-4.3-1.7-1.3 0-2.7.5-2.7 1.6 0 .9.8 1.2 2.2 1.5 2.3.6 4 1 5.4 1.7 1.5.8 2.6 2.4 2.6 4.5 0 4-3.4 6-7.6 6-3.1 0-6.6-1.2-8.5-2.8l2.9-3.6zM149.8 170.6c-3.4 0-6.5-2.2-6.5-5.9 0-3 2-5 5.3-5.5l5.7-.8v-.6c0-1.7-1.1-2.4-3-2.4-2.3 0-4.1.9-5.5 1.5l-1.9-3.7c2.2-1.2 4.9-2.1 7.6-2.1 3.5 0 7.6.9 7.6 6v8.1c0 1.1.6 1.5 1.6 1.9l-2.2 3.5c-1.8-.1-3-1.1-3.5-2.1-1.1 1.5-3 2.1-5.2 2.1zm.6-7.9c-1.2.2-2 .9-2 1.9 0 1.2.9 2.2 2.6 2.2 2.3 0 3.3-1.5 3.3-3.5V162l-3.9.7zM162.7 160.8c0-5.5 3.8-9.7 9.1-9.7 3.9 0 6.9 1.9 8.2 4.9l-4.3 2.2c-.7-1.5-1.8-2.6-3.7-2.6-3 0-4.2 2.7-4.2 5.2v.2c0 2.4 1.3 5.1 4.2 5.1 1.9 0 3-1 3.7-2.6l4.3 2.2c-1.2 3-4.4 4.9-8.2 4.9-5.3 0-9-4.2-9-9.7v-.1zM190.3 164.7c0 .9.4 1.6 2.1 1.6.7 0 1.9-.1 2.4-.2l.4 4.3s-2.4.3-4.5.3c-3.3 0-5.3-1.5-5.3-4.8v-10H182v-4.4h3.4v-5.3l4.9-1.3v6.6h4.9v4.4h-4.9v8.8zM201.1 144.2c1.7 0 3.1 1.4 3.1 3.1s-1.4 3.1-3.1 3.1c-1.7 0-3.1-1.4-3.1-3.1s1.4-3.1 3.1-3.1zm2.4 26.1h-4.9v-18.8h4.9v18.8zM225.6 160.9c0 5.6-3.7 9.8-9.3 9.8-5.5 0-9.2-4.2-9.2-9.8 0-5.5 3.7-9.8 9.2-9.8 5.6 0 9.3 4.2 9.3 9.8zm-5 0c0-3.1-1.5-5.3-4.3-5.3s-4.2 2.2-4.3 5.3c0 3.1 1.5 5.3 4.3 5.3s4.3-2.3 4.3-5.3zM229.1 151.5h4.9v1.6c1-1 2.5-2 4.8-2 4.1 0 6.5 2.8 6.5 6.5v12.7h-4.9v-10.9c0-2.7-1.3-3.7-3-3.7-2 0-3.5 1.4-3.5 4.3v10.3H229v-18.8zM251.2 164.2c1.3 1.3 3.6 2.3 5.5 2.3 1.5 0 2.7-.4 2.7-1.5 0-.9-.7-1.3-2.3-1.7-1.1-.3-3.1-.6-4.7-1.3-1.8-.8-3.3-2.3-3.3-4.9 0-4 3.6-6 7.7-6 3.2 0 5.9 1.2 7.5 2.7l-3.1 3.2c-1-.9-2.6-1.7-4.3-1.7-1.3 0-2.7.5-2.7 1.6 0 .9.8 1.2 2.2 1.5 2.3.6 4 1 5.4 1.7 1.5.8 2.6 2.4 2.6 4.5 0 4-3.4 6-7.6 6-3.1 0-6.6-1.2-8.5-2.8l2.9-3.6z"/>
  <path class="st4" d="M309.9 65.8c2.4 0 4.2.6 5.4 1.8 1.2 1.2 1.9 3 1.9 5.2s-.6 4-1.9 5.2c-1.2 1.2-3 1.9-5.4 1.8h-7.3v9.7h-3.2V65.8h10.5zm-1.1 11.4c1.8 0 3.1-.3 3.9-1.1.8-.8 1.3-1.8 1.3-3.3 0-1.4-.4-2.5-1.3-3.3-.8-.7-2.1-1.1-3.9-1.1h-6.2v8.7h6.2zM335.8 89.6c-.5.3-1.2.4-2 .4-.7 0-1.3-.2-1.7-.6-.4-.4-.6-1.1-.6-2-.8.9-1.7 1.6-2.7 2-1 .4-2.1.6-3.3.6-.8 0-1.5-.1-2.2-.3-.7-.2-1.3-.5-1.8-.8-.5-.4-.9-.9-1.2-1.5-.3-.6-.4-1.4-.4-2.2 0-1 .2-1.8.5-2.4s.8-1.1 1.3-1.5c.5-.4 1.2-.7 1.9-.9.7-.2 1.4-.4 2.1-.5.8-.2 1.5-.3 2.2-.4.7-.1 1.3-.2 1.8-.3.5-.1 1-.4 1.3-.6.3-.3.5-.7.5-1.2 0-.6-.1-1.1-.4-1.5-.2-.4-.5-.7-.9-.9-.4-.2-.8-.3-1.2-.4-.5-.1-.9-.1-1.3-.1-1.2 0-2.2.2-3 .7-.8.5-1.2 1.3-1.3 2.6h-2.8c0-1.1.3-2 .7-2.7.4-.7.9-1.3 1.6-1.8.7-.5 1.4-.8 2.3-1 .9-.2 1.8-.3 2.8-.3.8 0 1.5.1 2.3.2.8.1 1.5.3 2.1.7.6.3 1.1.8 1.5 1.4.4.6.6 1.4.6 2.4v8.8c0 .7 0 1.2.1 1.5.1.3.3.5.8.5.2 0 .5 0 .9-.1v2.2zm-4.6-8.9c-.4.3-.8.5-1.4.6l-1.8.3c-.6.1-1.3.2-1.9.3-.6.1-1.2.3-1.7.5s-.9.5-1.2.9c-.3.4-.5 1-.5 1.7 0 .5.1.9.3 1.2.2.3.4.6.7.8.3.2.6.3 1 .4.4.1.8.1 1.3.1.9 0 1.7-.1 2.4-.4.7-.3 1.2-.6 1.6-1 .4-.4.7-.8.9-1.3.2-.5.3-.9.3-1.3v-2.8zM345.2 91.9c-.3.8-.7 1.6-1 2.1-.3.6-.7 1.1-1.1 1.4-.4.4-.8.6-1.3.8-.5.2-1 .2-1.7.2-.3 0-.7 0-1-.1-.3 0-.7-.1-1-.2v-2.6c.2.1.5.2.8.3.3.1.6.1.8.1.6 0 1.1-.1 1.4-.4.4-.3.7-.7.9-1.2l1.2-2.9-6.8-17.1h3.2l5 14.1h.1l4.8-14.1h3l-7.3 19.6z"/>
  <path class="st5" d="M203.8 482.5h7.6v2h-5.3v2.4h4.9v2h-4.9v2.7h5.6v2h-7.9v-11.1zM220.4 493.8h-2.2v-4.9c0-1.2-.6-1.6-1.3-1.6-.8 0-1.5.6-1.5 1.9v4.6h-2.2v-8.4h2.2v.7c.5-.6 1.3-.9 2.1-.9.9 0 1.7.3 2.2 1.1.6-.8 1.5-1.1 2.5-1.1 1.9 0 3 1.3 3 2.8v5.7H223v-4.9c0-1.2-.6-1.6-1.3-1.6-.8 0-1.5.6-1.5 1.9v4.7zM229.6 493.9c-1.5 0-2.9-1-2.9-2.6 0-1.3.9-2.2 2.4-2.4l2.5-.4v-.3c0-.7-.5-1.1-1.3-1.1-1 0-1.8.4-2.5.7l-.8-1.7c1-.5 2.2-.9 3.4-.9 1.5 0 3.4.4 3.4 2.7v3.6c0 .5.3.7.7.9l-1 1.6c-.8-.1-1.3-.5-1.6-.9-.5.5-1.3.8-2.3.8zm.3-3.5c-.5.1-.9.4-.9.9s.4 1 1.1 1c1 0 1.5-.7 1.5-1.5v-.6l-1.7.2zM236.9 482.1c.8 0 1.4.6 1.4 1.4 0 .8-.6 1.4-1.4 1.4-.8 0-1.4-.6-1.4-1.4 0-.7.6-1.4 1.4-1.4zm1.1 11.7h-2.2v-8.4h2.2v8.4zM239.9 482.5h2.2v8.9c0 .4.2.5.6.5.3 0 .6 0 .8-.1l.2 1.8s-1 .1-1.8.1c-1.2 0-2-.6-2-1.8v-9.4zM250.6 493.9c-1.5 0-2.9-1-2.9-2.6 0-1.3.9-2.2 2.4-2.4l2.5-.4v-.3c0-.7-.5-1.1-1.3-1.1-1 0-1.8.4-2.5.7l-.8-1.7c1-.5 2.2-.9 3.4-.9 1.5 0 3.4.4 3.4 2.7v3.6c0 .5.3.7.7.9l-1 1.6c-.8-.1-1.3-.5-1.6-.9-.5.5-1.3.8-2.3.8zm.3-3.5c-.5.1-.9.4-.9.9s.4 1 1.1 1c1 0 1.5-.7 1.5-1.5v-.6l-1.7.2zM256.4 489.5c0-2.5 1.5-4.3 3.7-4.3 1 0 1.6.4 2.1.9v-3.6h2.2v11.2h-2.2v-.7c-.5.5-1.1.9-2.1.9-2.2 0-3.7-1.8-3.7-4.4zm5.8-.7c0-.9-.7-1.6-1.7-1.6-1.2 0-1.9 1-1.9 2.3v.1c0 1.3.7 2.3 1.9 2.3 1.1 0 1.7-.7 1.7-1.6v-1.5zM265.9 489.5c0-2.5 1.5-4.3 3.7-4.3 1 0 1.6.4 2.1.9v-3.6h2.2v11.2h-2.2v-.7c-.5.5-1.1.9-2.1.9-2.1 0-3.7-1.8-3.7-4.4zm5.9-.7c0-.9-.7-1.6-1.7-1.6-1.2 0-1.9 1-1.9 2.3v.1c0 1.3.7 2.3 1.9 2.3 1.1 0 1.7-.7 1.7-1.6v-1.5zM280.8 487.5h-.4c-1.2 0-2.3.4-2.3 2.2v4.1h-2.2v-8.4h2.2v.9c.4-.6 1.1-1.1 2.2-1.1h.5v2.3zM283.8 490.3c.2 1.1 1 1.6 2 1.6.8 0 1.6-.3 2.1-.8l1.1 1.6c-.7.6-1.9 1.1-3.2 1.1-2.3 0-4.2-1.6-4.2-4.3v-.1c0-2.5 1.7-4.3 4-4.3 2.2 0 3.8 1.7 3.8 4.1v1h-5.6zm0-1.6h3.4c0-.7-.5-1.6-1.6-1.6-1.2 0-1.7.8-1.8 1.6zM291.6 491.1c.6.6 1.6 1 2.4 1 .7 0 1.2-.2 1.2-.7 0-.4-.3-.6-1-.7-.5-.1-1.4-.3-2.1-.6-.8-.4-1.5-1-1.5-2.2 0-1.8 1.6-2.7 3.4-2.7 1.4 0 2.6.5 3.3 1.2l-1.4 1.4c-.4-.4-1.1-.8-1.9-.8-.6 0-1.2.2-1.2.7 0 .4.4.5 1 .7 1 .3 1.8.4 2.4.8.7.4 1.2 1.1 1.2 2 0 1.8-1.5 2.7-3.4 2.7-1.4 0-2.9-.5-3.8-1.3l1.4-1.5zM299.8 491.1c.6.6 1.6 1 2.4 1 .7 0 1.2-.2 1.2-.7 0-.4-.3-.6-1-.7-.5-.1-1.4-.3-2.1-.6-.8-.4-1.5-1-1.5-2.2 0-1.8 1.6-2.7 3.4-2.7 1.4 0 2.6.5 3.3 1.2l-1.4 1.4c-.4-.4-1.1-.8-1.9-.8-.6 0-1.2.2-1.2.7 0 .4.4.5 1 .7 1 .3 1.8.4 2.4.8.7.4 1.2 1.1 1.2 2 0 1.8-1.5 2.7-3.4 2.7-1.4 0-2.9-.5-3.8-1.3l1.4-1.5zM54.2 463.3h4.3c2.7 0 4.1 1.7 4.1 3.5 0 1.5-.9 2.7-2.2 3.1l2.4 4.6h-2.6l-2-4h-1.8v4h-2.3v-11.2zm4.1 2.1h-1.8v3.1h1.8c1.3 0 2-.6 2-1.5 0-1-.7-1.6-2-1.6zM66 471.1c.2 1.1 1 1.6 2 1.6.8 0 1.6-.3 2.1-.8l1.1 1.6c-.7.6-1.9 1.1-3.2 1.1-2.3 0-4.2-1.6-4.2-4.3v-.1c0-2.5 1.7-4.3 4.1-4.3 2.2 0 3.8 1.7 3.8 4.1v1H66zm0-1.6h3.4c0-.7-.5-1.6-1.6-1.6-1.2 0-1.7.8-1.8 1.6zM76 466.2h1.6v1.9H76v6.4h-2.2v-6.4h-1.3v-1.9h1.3v-.9c0-1.5 1-2.1 2.5-2.1.8 0 1.5.1 1.7.1l-.2 1.8c-.3 0-.8-.1-1.1-.1-.6 0-.8.3-.8.6v.6zM80.7 471.1c.2 1.1 1 1.6 2 1.6.8 0 1.6-.3 2.1-.8l1.1 1.6c-.7.6-1.9 1.1-3.2 1.1-2.3 0-4.2-1.6-4.2-4.3v-.1c0-2.5 1.7-4.3 4.1-4.3 2.2 0 3.8 1.7 3.8 4.1v1h-5.7zm0-1.6H84c0-.7-.5-1.6-1.6-1.6s-1.7.8-1.7 1.6zM92.7 468.3h-.4c-1.2 0-2.3.4-2.3 2.2v4.1h-2.2v-8.4H90v.9c.4-.6 1.1-1.1 2.2-1.1h.5v2.3zM95.7 471.1c.2 1.1 1 1.6 2 1.6.8 0 1.6-.3 2.1-.8l1.1 1.6c-.7.6-1.9 1.1-3.2 1.1-2.3 0-4.2-1.6-4.2-4.3v-.1c0-2.5 1.7-4.3 4-4.3 2.2 0 3.8 1.7 3.8 4.1v1h-5.6zm0-1.6h3.4c0-.7-.5-1.6-1.7-1.6-1.1 0-1.6.8-1.7 1.6zM102.9 466.2h2.2v.7c.5-.5 1.1-.9 2.1-.9 1.8 0 2.9 1.3 2.9 2.9v5.7h-2.2v-4.9c0-1.2-.6-1.6-1.3-1.6-.9 0-1.6.6-1.6 1.9v4.6h-2.2v-8.4zM111.6 470.3c0-2.5 1.7-4.3 4-4.3 1.7 0 3.1.8 3.6 2.2l-1.9 1c-.3-.7-.8-1.1-1.7-1.1-1.3 0-1.9 1.2-1.9 2.3v.1c0 1.1.6 2.3 1.9 2.3.9 0 1.3-.4 1.7-1.1l1.9 1c-.5 1.3-2 2.2-3.7 2.2-2.2-.2-3.9-2-3.9-4.6zM122.5 471.1c.2 1.1 1 1.6 2 1.6.8 0 1.6-.3 2.1-.8l1.1 1.6c-.7.6-1.9 1.1-3.2 1.1-2.3 0-4.2-1.6-4.2-4.3v-.1c0-2.5 1.7-4.3 4.1-4.3 2.2 0 3.8 1.7 3.8 4.1v1h-5.7zm0-1.6h3.4c0-.7-.5-1.6-1.6-1.6-1.2 0-1.7.8-1.8 1.6zM54 485.4h2.2v.7c.5-.5 1.1-.9 2.1-.9 1.8 0 2.9 1.3 2.9 2.9v5.7H59v-4.9c0-1.2-.6-1.6-1.3-1.6-.9 0-1.6.6-1.6 1.9v4.6H54v-8.4zM70.2 493.8H68v-.8c-.5.5-1.1.9-2.1.9-1.8 0-2.9-1.3-2.9-2.9v-5.7h2.2v4.9c0 1.2.6 1.6 1.3 1.6.9 0 1.6-.6 1.6-1.9v-4.6h2.2v8.5zM79.3 493.8h-2.2v-4.9c0-1.2-.6-1.6-1.3-1.6-.8 0-1.5.6-1.5 1.9v4.6h-2.2v-8.4h2.2v.7c.5-.6 1.3-.9 2.1-.9.9 0 1.7.3 2.2 1.1.6-.8 1.5-1.1 2.5-1.1 1.9 0 3 1.3 3 2.8v5.7h-2.2v-4.9c0-1.2-.6-1.6-1.3-1.6-.8 0-1.5.6-1.5 1.9v4.7zM94.1 489.6c0 2.5-1.5 4.3-3.7 4.3-1 0-1.6-.4-2.1-.9v.7h-2.2v-11.2h2.2v3.6c.5-.5 1.1-.9 2.1-.9 2.3 0 3.7 1.8 3.7 4.4zm-5.8.7c0 .9.7 1.6 1.7 1.6 1.2 0 1.9-1 1.9-2.3v-.1c0-1.3-.7-2.3-1.9-2.3-1.1 0-1.7.7-1.7 1.6v1.5zM97.5 490.3c.2 1.1 1 1.6 2 1.6.8 0 1.6-.3 2.1-.8l1.1 1.6c-.7.6-1.9 1.1-3.2 1.1-2.3 0-4.2-1.6-4.2-4.3v-.1c0-2.5 1.7-4.3 4-4.3 2.2 0 3.8 1.7 3.8 4.1v1h-5.6zm.1-1.6h3.4c0-.7-.5-1.6-1.7-1.6s-1.7.8-1.7 1.6zM109.6 487.5h-.4c-1.2 0-2.3.4-2.3 2.2v4.1h-2.2v-8.4h2.2v.9c.4-.6 1.1-1.1 2.2-1.1h.5v2.3z"/>
  <g>
    <path class="st5" d="M384 492h-4.4l-.5 1.8h-2.4l3.7-11.2h3l3.7 11.2h-2.5l-.6-1.8zm-3.7-2h3.1l-1.6-5.1-1.5 5.1zM395.4 493.8h-2.2v-4.9c0-1.2-.6-1.6-1.3-1.6-.8 0-1.5.6-1.5 1.9v4.6h-2.2v-8.4h2.2v.7c.5-.6 1.3-.9 2.1-.9.9 0 1.7.3 2.2 1.1.6-.8 1.5-1.1 2.5-1.1 1.9 0 3 1.3 3 2.8v5.7H398v-4.9c0-1.2-.6-1.6-1.3-1.6-.8 0-1.5.6-1.5 1.9v4.7zM410 489.6c0 2.5-1.6 4.3-4.1 4.3-2.5 0-4.1-1.9-4.1-4.3 0-2.5 1.6-4.3 4.1-4.3 2.5-.1 4.1 1.8 4.1 4.3zm-2.2 0c0-1.4-.7-2.3-1.9-2.3s-1.9 1-1.9 2.3c0 1.4.7 2.3 1.9 2.3s1.9-1 1.9-2.3zM418.7 493.8h-2.2v-.8c-.5.5-1.1.9-2.1.9-1.8 0-2.9-1.3-2.9-2.9v-5.7h2.2v4.9c0 1.2.6 1.6 1.3 1.6.9 0 1.6-.6 1.6-1.9v-4.6h2.2v8.5zM420.7 485.4h2.2v.7c.5-.5 1.1-.9 2.1-.9 1.8 0 2.9 1.3 2.9 2.9v5.7h-2.2v-4.9c0-1.2-.6-1.6-1.3-1.6-.9 0-1.6.6-1.6 1.9v4.6h-2.2v-8.4zM433 491.3c0 .4.2.7.9.7.3 0 .8 0 1.1-.1l.2 1.9s-1.1.1-2 .1c-1.5 0-2.4-.7-2.4-2.1v-4.5h-1.5v-1.9h1.5V483l2.2-.6v2.9h2.2v1.9H433v4.1z"/>
  </g>
  <g>
    <path class="st5" d="M506.6 488.1c0-3.2 2-5.8 5.2-5.8 2.3 0 4 1.2 4.6 3.2l-2.2.7c-.2-.8-1.1-1.9-2.5-1.9-2 0-2.9 1.8-2.9 3.6v.1c0 1.8.9 3.7 2.9 3.7 1.4 0 2.2-1 2.5-1.9l2.2.7c-.7 1.9-2.3 3.2-4.7 3.2-3.1.2-5.1-2.3-5.1-5.6zM520.4 493.9c-1.5 0-2.9-1-2.9-2.6 0-1.3.9-2.2 2.4-2.4l2.5-.4v-.3c0-.7-.5-1.1-1.3-1.1-1 0-1.8.4-2.5.7l-.8-1.7c1-.5 2.2-.9 3.4-.9 1.5 0 3.4.4 3.4 2.7v3.6c0 .5.3.7.7.9l-1 1.6c-.8-.1-1.3-.5-1.6-.9-.5.5-1.3.8-2.3.8zm.3-3.5c-.5.1-.9.4-.9.9s.4 1 1.1 1c1 0 1.5-.7 1.5-1.5v-.6l-1.7.2zM531.5 487.5h-.4c-1.2 0-2.3.4-2.3 2.2v4.1h-2.2v-8.4h2.2v.9c.4-.6 1.1-1.1 2.2-1.1h.5v2.3zM532.3 489.5c0-2.5 1.5-4.3 3.7-4.3 1 0 1.6.4 2.1.9v-3.6h2.2v11.2h-2.2v-.7c-.5.5-1.1.9-2.1.9-2.2 0-3.7-1.8-3.7-4.4zm5.9-.7c0-.9-.7-1.6-1.7-1.6-1.2 0-1.9 1-1.9 2.3v.1c0 1.3.7 2.3 1.9 2.3 1.1 0 1.7-.7 1.7-1.6v-1.5zM548.9 491.3c0 .4.2.7.9.7.3 0 .8 0 1.1-.1l.2 1.9s-1.1.1-2 .1c-1.5 0-2.4-.7-2.4-2.1v-4.5h-1.5v-1.9h1.5V483l2.2-.6v2.9h2.2v1.9h-2.2v4.1zM554.4 494.1l.1-.3h-.2l-2.6-8.4h2.4l1.5 5.8 1.5-5.8h2.4l-2.9 9.6c-.4 1.2-1.3 1.6-2.6 1.6-.5 0-1.4-.1-2-.2l.4-1.9s.6.1 1.2.1.7-.2.8-.5zM562.9 485.4v.7c.5-.5 1.1-.9 2.1-.9 2.2 0 3.7 1.8 3.7 4.3v.1c0 2.5-1.5 4.3-3.7 4.3-1 0-1.6-.4-2.1-.9v3.4h-2.2v-11h2.2zm-.1 4.9c0 .9.7 1.6 1.7 1.6 1.2 0 1.9-1 1.9-2.3v-.1c0-1.3-.7-2.3-1.9-2.3-1.1 0-1.7.7-1.7 1.6v1.5zM572.1 490.3c.2 1.1 1 1.6 2 1.6.8 0 1.6-.3 2.1-.8l1.1 1.6c-.7.6-1.9 1.1-3.2 1.1-2.3 0-4.2-1.6-4.2-4.3v-.1c0-2.5 1.7-4.3 4-4.3 2.2 0 3.8 1.7 3.8 4.1v1h-5.6zm0-1.6h3.4c0-.7-.5-1.6-1.6-1.6-1.2 0-1.7.8-1.8 1.6z"/>
  </g>
  <g>
    <path class="st5" d="M649.5 482.5h4.5c2.3 0 3.8 1.6 3.8 3.7s-1.6 3.7-3.9 3.7h-2v3.8h-2.3v-11.2zm3.9 2.1h-1.6v3.3h1.6c1.2 0 2-.6 2-1.6v-.1c.1-1-.7-1.6-2-1.6zM661.5 493.9c-1.5 0-2.9-1-2.9-2.6 0-1.3.9-2.2 2.4-2.4l2.5-.4v-.3c0-.7-.5-1.1-1.3-1.1-1 0-1.8.4-2.5.7l-.8-1.7c1-.5 2.2-.9 3.4-.9 1.5 0 3.4.4 3.4 2.7v3.6c0 .5.3.7.7.9l-1 1.6c-.8-.1-1.3-.5-1.6-.9-.5.5-1.4.8-2.3.8zm.2-3.5c-.5.1-.9.4-.9.9s.4 1 1.1 1c1 0 1.5-.7 1.5-1.5v-.6l-1.7.2zM669.3 494.1l.1-.3h-.2l-2.6-8.4h2.4l1.5 5.8 1.5-5.8h2.4l-2.9 9.6c-.4 1.2-1.3 1.6-2.6 1.6-.5 0-1.4-.1-2-.2l.4-1.9s.6.1 1.2.1.7-.2.8-.5zM682.7 493.8h-2.2v-4.9c0-1.2-.6-1.6-1.3-1.6-.8 0-1.5.6-1.5 1.9v4.6h-2.2v-8.4h2.2v.7c.5-.6 1.3-.9 2.1-.9.9 0 1.7.3 2.2 1.1.6-.8 1.5-1.1 2.5-1.1 1.9 0 3 1.3 3 2.8v5.7h-2.2v-4.9c0-1.2-.6-1.6-1.3-1.6-.8 0-1.5.6-1.5 1.9v4.7zM691.4 490.3c.2 1.1 1 1.6 2 1.6.8 0 1.6-.3 2.1-.8l1.1 1.6c-.7.6-1.9 1.1-3.2 1.1-2.3 0-4.2-1.6-4.2-4.3v-.1c0-2.5 1.7-4.3 4.1-4.3 2.2 0 3.8 1.7 3.8 4.1v1h-5.7zm0-1.6h3.4c0-.7-.5-1.6-1.6-1.6-1.2 0-1.7.8-1.8 1.6zM698.6 485.4h2.2v.7c.5-.5 1.1-.9 2.1-.9 1.8 0 2.9 1.3 2.9 2.9v5.7h-2.2v-4.9c0-1.2-.6-1.6-1.3-1.6-.9 0-1.6.6-1.6 1.9v4.6h-2.2v-8.4zM710.8 491.3c0 .4.2.7.9.7.3 0 .8 0 1.1-.1l.2 1.9s-1.1.1-2 .1c-1.5 0-2.4-.7-2.4-2.1v-4.5h-1.5v-1.9h1.5V483l2.2-.6v2.9h2.2v1.9h-2.2v4.1zM719 491.1c.6.6 1.6 1 2.4 1 .7 0 1.2-.2 1.2-.7 0-.4-.3-.6-1-.7-.5-.1-1.4-.3-2.1-.6-.8-.4-1.5-1-1.5-2.2 0-1.8 1.6-2.7 3.4-2.7 1.4 0 2.6.5 3.3 1.2l-1.4 1.4c-.4-.4-1.1-.8-1.9-.8-.6 0-1.2.2-1.2.7 0 .4.4.5 1 .7 1 .3 1.8.4 2.4.8.7.4 1.2 1.1 1.2 2 0 1.8-1.5 2.7-3.4 2.7-1.4 0-2.9-.5-3.8-1.3l1.4-1.5zM729.6 491.3c0 .4.2.7.9.7.3 0 .8 0 1.1-.1l.2 1.9s-1.1.1-2 .1c-1.5 0-2.4-.7-2.4-2.1v-4.5h-1.5v-1.9h1.5V483l2.2-.6v2.9h2.2v1.9h-2.2v4.1zM735.7 493.9c-1.5 0-2.9-1-2.9-2.6 0-1.3.9-2.2 2.4-2.4l2.5-.4v-.3c0-.7-.5-1.1-1.3-1.1-1 0-1.8.4-2.5.7l-.8-1.7c1-.5 2.2-.9 3.4-.9 1.5 0 3.4.4 3.4 2.7v3.6c0 .5.3.7.7.9l-1 1.6c-.8-.1-1.3-.5-1.6-.9-.5.5-1.3.8-2.3.8zm.3-3.5c-.5.1-.9.4-.9.9s.4 1 1.1 1c1 0 1.5-.7 1.5-1.5v-.6l-1.7.2zM744.9 491.3c0 .4.2.7.9.7.3 0 .8 0 1.1-.1l.2 1.9s-1.1.1-2 .1c-1.5 0-2.4-.7-2.4-2.1v-4.5h-1.5v-1.9h1.5V483l2.2-.6v2.9h2.2v1.9h-2.2v4.1zM755.7 493.8h-2.2v-.8c-.5.5-1.1.9-2.1.9-1.8 0-2.9-1.3-2.9-2.9v-5.7h2.2v4.9c0 1.2.6 1.6 1.3 1.6.9 0 1.6-.6 1.6-1.9v-4.6h2.2v8.5zM758.4 491.1c.6.6 1.6 1 2.4 1 .7 0 1.2-.2 1.2-.7 0-.4-.3-.6-1-.7-.5-.1-1.4-.3-2.1-.6-.8-.4-1.5-1-1.5-2.2 0-1.8 1.6-2.7 3.4-2.7 1.4 0 2.6.5 3.3 1.2l-1.4 1.4c-.4-.4-1.1-.8-1.9-.8-.6 0-1.2.2-1.2.7 0 .4.4.5 1 .7 1 .3 1.8.4 2.4.8.7.4 1.2 1.1 1.2 2 0 1.8-1.5 2.7-3.4 2.7-1.4 0-2.9-.5-3.8-1.3l1.4-1.5z"/>
  </g>
  <g>
    <path class="st5" d="M830.6 493.8h-4.3v-11.2h4.3c3.6 0 5.3 2.2 5.3 5.6s-1.7 5.6-5.3 5.6zm3-5.9c0-1.9-.9-3.3-3.2-3.3h-1.7v7.1h1.7c2.3 0 3.2-1.5 3.2-3.3v-.5zM839.9 493.9c-1.5 0-2.9-1-2.9-2.6 0-1.3.9-2.2 2.4-2.4l2.5-.4v-.3c0-.7-.5-1.1-1.3-1.1-1 0-1.8.4-2.5.7l-.8-1.7c1-.5 2.2-.9 3.4-.9 1.5 0 3.4.4 3.4 2.7v3.6c0 .5.3.7.7.9l-1 1.6c-.8-.1-1.3-.5-1.6-.9-.5.5-1.3.8-2.3.8zm.3-3.5c-.5.1-.9.4-.9.9s.4 1 1.1 1c1 0 1.5-.7 1.5-1.5v-.6l-1.7.2zM849.1 491.3c0 .4.2.7.9.7.3 0 .8 0 1.1-.1l.2 1.9s-1.1.1-2 .1c-1.5 0-2.4-.7-2.4-2.1v-4.5h-1.5v-1.9h1.5V483l2.2-.6v2.9h2.2v1.9h-2.2v4.1zM854.6 490.3c.2 1.1 1 1.6 2 1.6.8 0 1.6-.3 2.1-.8l1.1 1.6c-.7.6-1.9 1.1-3.2 1.1-2.3 0-4.2-1.6-4.2-4.3v-.1c0-2.5 1.7-4.3 4-4.3 2.2 0 3.8 1.7 3.8 4.1v1h-5.6zm.1-1.6h3.4c0-.7-.5-1.6-1.6-1.6-1.3 0-1.8.8-1.8 1.6z"/>
  </g>
  <path class="st8" d="M915 506.3H51.9"/>
  <g>
    <path class="st5" d="M205.2 532.5h-1.3v-11.2h1.3v4.1c.5-.7 1.3-1.1 2.3-1.1 2.1 0 3.4 1.7 3.4 4.2 0 2.4-1.3 4.1-3.4 4.1-1 0-1.9-.4-2.3-1.1v1zm4.3-4c0-1.7-.8-2.9-2.3-2.9-1.4 0-2.1 1-2.1 2.3v1.3c0 1.3.7 2.3 2.1 2.3 1.5 0 2.3-1.3 2.3-3zM212.9 533.2h3.4v1.2h-3.4v-1.2zM218.7 524.5h1.3v.9c.5-.7 1.4-1.1 2.3-1.1 1.8 0 2.7 1.3 2.7 2.7v5.4h-1.3v-5c0-1.4-.7-1.9-1.6-1.9-1 0-2 .7-2 2.2v4.7h-1.3v-7.9zM234.4 528.5c0 2.4-1.5 4.1-3.7 4.1s-3.7-1.7-3.7-4.1c0-2.4 1.5-4.2 3.7-4.2s3.7 1.8 3.7 4.2zm-1.3.1c0-1.7-.8-3.1-2.3-3.1-1.5 0-2.3 1.4-2.3 3v.1c0 1.6.8 2.9 2.3 2.9 1.5 0 2.3-1.4 2.3-2.9zM240.6 525.7h-.2c-1.3 0-2.6.5-2.6 2.7v4.1h-1.3v-8h1.3v1.3c.4-.9 1.4-1.4 2.4-1.4h.4v1.3zM244.3 530.5c0 .5.1 1 1 1 .2 0 .8 0 1-.1l.1 1.2s-.8.1-1.4.1c-1.3 0-2-.5-2-1.9v-5.1h-1.5v-1.2h1.5v-2.6l1.3-.5v3.1h2.2v1.2h-2.2v4.8zM248.3 521.3h1.3v4.1c.5-.7 1.4-1.1 2.3-1.1 1.8 0 2.7 1.3 2.7 2.7v5.4h-1.3v-5c0-1.4-.7-1.9-1.6-1.9-1 0-2 .7-2 2.2v4.7h-1.3v-11.1zM258.7 521.4v-.1h1.3v11.2h-1.4v-8.2h-2.1v-1.2h.2c1.6 0 2-.5 2-1.7zM264 529.6c.4 1.1 1.1 1.8 2.6 1.8 1.6 0 2.4-.9 2.4-2.1 0-1.2-.9-2-2.6-2h-.5v-1.2h.3c1.5 0 2.7-.5 2.7-1.9 0-1.3-1-1.9-2.2-1.9-1.2 0-2.1.7-2.5 1.7l-1.3-.5c.6-1.6 2.1-2.4 3.7-2.4 2 0 3.6 1.2 3.6 3 0 1.2-.7 2.3-2.1 2.6 1.6.3 2.3 1.4 2.3 2.7 0 2.2-1.8 3.2-3.9 3.2-1.8 0-3.3-.8-3.9-2.6l1.4-.4zM281.1 531.7c-.5.5-1.2 1-2.3 1-1.6 0-2.8-.9-2.8-2.4 0-1.2.8-2.1 2.1-2.3l2.8-.4v-.5c0-1.2-.8-1.6-1.8-1.6-.9 0-1.7.3-2.3.6l-.5-1c.9-.5 2-.7 2.9-.7 1.9 0 3 .9 3 2.5v3.9c0 .5.2.9.7.9 1.7 0 2.1-2.6 2.1-3.3 0-3.4-2.5-5.8-5.8-5.8s-5.9 2.7-5.9 5.9c0 3.3 2.7 5.9 5.9 5.9.9 0 1.8-.2 2.6-.6l.6.7c-1 .5-2.1.8-3.3.8-3.8 0-6.7-3-6.7-6.8s3.1-6.8 6.9-6.8c3.8 0 6.6 2.7 6.6 6.6 0 1.7-1 4.3-3 4.3-1.3.1-1.7-.6-1.8-.9zm-2.3-2.8c-.9.1-1.5.4-1.5 1.2 0 .9.8 1.4 1.6 1.4 1 0 2-.6 2-1.6v-1.4l-2.1.4zM288.2 521.3h1.3v4.1c.5-.7 1.4-1.1 2.3-1.1 1.8 0 2.7 1.3 2.7 2.7v5.4h-1.3v-5c0-1.4-.7-1.9-1.6-1.9-1 0-2 .7-2 2.2v4.7h-1.3v-11.1zM303.9 528.5c0 2.4-1.5 4.1-3.7 4.1s-3.7-1.7-3.7-4.1c0-2.4 1.5-4.2 3.7-4.2 2.3.1 3.7 1.8 3.7 4.2zm-1.3.1c0-1.7-.8-3.1-2.3-3.1-1.5 0-2.3 1.4-2.3 3v.1c0 1.6.8 2.9 2.3 2.9 1.5 0 2.3-1.4 2.3-2.9zM308 530.5c0 .5.1 1 1 1 .2 0 .8 0 1-.1l.1 1.2s-.8.1-1.4.1c-1.3 0-2-.5-2-1.9v-5.1h-1.5v-1.2h1.5v-2.6l1.3-.5v3.1h2.2v1.2H308v4.8zM317.9 532.5h-1.3v-5c0-1.4-.7-1.9-1.6-1.9-.9 0-1.8.7-1.8 2.2v4.7H312v-8h1.3v.9c.5-.7 1.2-1.1 2.1-1.1.7 0 1.7.4 2.2 1.3.6-1 1.5-1.3 2.4-1.3 1.7 0 2.7 1.3 2.7 2.7v5.5h-1.3v-5c0-1.4-.8-1.9-1.6-1.9-.9 0-1.8.7-1.8 2.2v4.7zM326 530.5c.6 0 1.1.5 1.1 1.1 0 .6-.5 1.1-1.1 1.1-.6 0-1.1-.5-1.1-1.1.1-.6.5-1.1 1.1-1.1zM330.4 530.5c.6 0 1.1.5 1.1 1.1 0 .6-.5 1.1-1.1 1.1-.6 0-1.1-.5-1.1-1.1 0-.6.5-1.1 1.1-1.1zM334.7 530.5c.6 0 1.1.5 1.1 1.1 0 .6-.5 1.1-1.1 1.1-.6 0-1.1-.5-1.1-1.1.1-.6.5-1.1 1.1-1.1z"/>
  </g>
  <g>
    <path class="st5" d="M54.8 530c.7.9 1.9 1.5 3.2 1.5 1.4 0 2.5-.7 2.5-2 0-.8-.4-1.3-1.1-1.6-1.1-.5-2.9-.6-4.1-1.3-.7-.4-1.3-1.1-1.3-2.3 0-1.7 1.4-3.1 3.8-3.1 1.4 0 2.8.6 3.7 1.5l-1 .8c-.6-.6-1.5-1.2-2.7-1.2-1.4 0-2.4.7-2.4 1.9 0 1.8 2.6 1.6 4.6 2.5 1 .4 1.9 1.2 1.9 2.7 0 2.2-2 3.3-4.1 3.3-1.9 0-3.2-.8-4.1-1.7l1.1-1zM64.4 521.3h3.8c2.1 0 3.7 1 3.7 3.3 0 1.4-.8 2.5-2.2 3.1l2.4 4.8h-1.6l-2.1-4.5h-2.6v4.5h-1.4v-11.2zm3.9 5.5c1.3 0 2.2-.8 2.2-2.1 0-1.4-.9-2.2-2.2-2.2h-2.5v4.3h2.5zM76.6 532.5l-3.3-11.2h1.5l2.7 9.9 2.8-9.9h1.5l-3.3 11.2h-1.9zM83.5 526.8l.6-5.5h6.4v1.2h-5.3l-.3 3.2c.6-.6 1.5-.9 2.4-.9 2.1 0 3.7 1.6 3.7 3.8 0 2.4-1.6 4.1-4 4.1-1.8 0-3.4-.9-3.8-2.7l1.4-.2c.3.9 1 1.7 2.4 1.7 1.6 0 2.6-1.2 2.6-2.8 0-1.6-1-2.7-2.6-2.7-.8 0-1.7.4-2.1 1l-1.4-.2zM94.7 521.4v-.1H96v11.2h-1.4v-8.2h-2.1v-1.2h.2c1.6 0 2-.5 2-1.7zM104.3 522.5h-6v-1.2h7.3v1.2l-4.5 10h-1.6l4.8-10zM112.9 522.5h-6v-1.2h7.3v1.2l-4.5 10h-1.6l4.8-10zM123.8 526.6c0 3-1.2 6.1-4.4 6.1-1.6 0-2.7-.7-3.3-1.8l1.4-.4c.5.7 1.1 1.1 2 1.1 2.1 0 3-2.2 3-4.5-.5.8-1.4 1.6-3 1.6-2.1 0-3.6-1.6-3.6-3.6 0-2.2 1.6-3.8 3.9-3.8 2.4 0 4.2 1.8 4.2 5.2v.1zm-4.1-4.3c-1.4 0-2.5 1-2.5 2.6s1 2.6 2.5 2.6 2.5-1 2.5-2.5c0-1.6-1-2.7-2.5-2.7zM126 532.5v-1.3c.8-.7 3.2-2.7 4-3.5.9-.8 1.7-1.8 1.7-3.1 0-1.4-.9-2.2-2.2-2.2-1.4 0-2.1 1-2.2 2.4l-1.4-.1c.1-2.2 1.5-3.5 3.6-3.5 2.2 0 3.7 1.3 3.7 3.5 0 1.6-.8 2.7-3.3 4.8l-2 1.7h5.5v1.2H126z"/>
  </g>
  <g>
    <path class="st5" d="M383.7 523.3c-.4-.6-1-1-1.9-1-1.2 0-2 .9-2 2.4v1.8h2.6v1.2h-2.6v3.7h5v1.2h-7.2v-1.2h.8v-3.7h-.8v-1.2h.8v-1.7c0-2.2 1.3-3.6 3.4-3.6 1.4 0 2.4.5 3 1.4l-1.1.7zM391.9 532.5v-2.9h-5.6v-1.4l5.1-6.9h2v7.2h1.8v1.2h-1.8v2.9h-1.5zm0-4.1v-6l-4.3 6h4.3zM405 526.9c0 2.9-1.1 5.7-4.1 5.7-3 0-4.1-2.8-4.1-5.7 0-2.9 1.1-5.8 4.1-5.8 3.1 0 4.1 2.9 4.1 5.8zm-1.4.3v-.7c0-2.7-1-4.2-2.6-4.2s-2.6 1.5-2.6 4.2v.7c0 2.7 1 4.2 2.6 4.2 1.5.1 2.6-1.5 2.6-4.2zM408.1 530.5c.6 0 1.1.5 1.1 1.1 0 .6-.5 1.1-1.1 1.1-.6 0-1.1-.5-1.1-1.1 0-.6.5-1.1 1.1-1.1zM419.2 526.9c0 2.9-1.1 5.7-4.1 5.7-3 0-4.1-2.8-4.1-5.7 0-2.9 1.1-5.8 4.1-5.8 3.1 0 4.1 2.9 4.1 5.8zm-1.4.3v-.7c0-2.7-1-4.2-2.6-4.2s-2.6 1.5-2.6 4.2v.7c0 2.7 1 4.2 2.6 4.2 1.5.1 2.6-1.5 2.6-4.2zM429.4 526.9c0 2.9-1.1 5.7-4.1 5.7-3 0-4.1-2.8-4.1-5.7 0-2.9 1.1-5.8 4.1-5.8 3.1 0 4.1 2.9 4.1 5.8zm-1.4.3v-.7c0-2.7-1-4.2-2.6-4.2s-2.6 1.5-2.6 4.2v.7c0 2.7 1 4.2 2.6 4.2 1.5.1 2.6-1.5 2.6-4.2z"/>
  </g>
  <g>
    <path class="st5" d="M511.8 528.3l-3.3-11.2h1.5l2.7 9.9 2.8-9.9h1.5l-3.3 11.2h-1.9zM519.6 517.1c.5 0 1 .4 1 1 0 .5-.4 1-1 1-.5 0-1-.4-1-1s.4-1 1-1zm.6 11.2h-1.3v-8h1.3v8zM522.1 527.3l.8-.9c.5.4 1.3 1 2.4 1 .9 0 1.6-.4 1.6-1.2 0-.9-.9-1.1-2-1.3-1.1-.3-2.5-.7-2.5-2.3 0-1.3 1.2-2.3 2.9-2.3 1.1 0 2.2.4 2.8 1l-.8.9c-.5-.4-1.2-.8-2-.8-1.1 0-1.6.5-1.6 1.2 0 .6.4.9 1.2 1.1.4.1.9.3 1.3.4 1.1.3 2 .9 2 2.2 0 1.6-1.5 2.4-3 2.4-1.1-.3-2.2-.6-3.1-1.4zM532.5 528.4c-1.6 0-2.8-.9-2.8-2.4 0-1.2.8-2.1 2.1-2.3l2.8-.4v-.5c0-1.2-.8-1.6-1.8-1.6-.9 0-1.7.3-2.3.6l-.5-1c.9-.5 2-.7 2.9-.7 1.9 0 3 .9 3 2.5v3.7c0 .5.2.9.7 1.1l-.7.9c-.5-.1-.9-.5-1.1-1-.5.7-1.2 1.1-2.3 1.1zm0-3.7c-.9.1-1.5.4-1.5 1.2 0 .9.8 1.4 1.6 1.4 1 0 2-.6 2-1.6v-1.4l-2.1.4z"/>
  </g>
  <g>
    <path class="st5" d="M649.9 521.3h1.4v11.2h-1.4v-11.2zM654.1 524.5h1.3v.9c.5-.7 1.4-1.1 2.3-1.1 1.8 0 2.7 1.3 2.7 2.7v5.4h-1.3v-5c0-1.4-.7-1.9-1.6-1.9-1 0-2 .7-2 2.2v4.7h-1.3v-7.9zM668.4 524.5v.9c.5-.7 1.3-1.1 2.3-1.1 2.1 0 3.4 1.7 3.4 4.2 0 2.4-1.3 4.1-3.4 4.1-1 0-1.9-.4-2.3-1.1v3.3h-1.3v-10.4h1.3zm4.4 4c0-1.7-.8-2.9-2.3-2.9-1.4 0-2.1 1-2.1 2.3v1.3c0 1.3.7 2.3 2.1 2.3 1.5 0 2.3-1.3 2.3-3zM680.3 525.7h-.2c-1.3 0-2.6.5-2.6 2.7v4.1h-1.3v-8h1.3v1.3c.4-.9 1.4-1.4 2.4-1.4h.4v1.3zM688.7 528.5c0 2.4-1.5 4.1-3.7 4.1s-3.7-1.7-3.7-4.1c0-2.4 1.5-4.2 3.7-4.2 2.2.1 3.7 1.8 3.7 4.2zm-1.4.1c0-1.7-.8-3.1-2.3-3.1s-2.3 1.4-2.3 3v.1c0 1.6.8 2.9 2.3 2.9s2.3-1.4 2.3-2.9zM693.5 524.4c.9 0 1.7.3 2.3 1.1v-.9h1.3v8.1c0 2-1.7 2.6-3.4 2.6-.9 0-2.1-.2-3-.6l.4-1.1c.6.3 1.6.6 2.5.6 1.3 0 2.1-.5 2.1-1.7V531c-.5.8-1.4 1.1-2.3 1.1-2 0-3.2-1.6-3.2-3.7.1-2.4 1.4-4 3.3-4zm2.3 3.6c0-1.4-.6-2.5-2-2.5-1.5 0-2.1 1.1-2.1 2.5v.1c0 1.4.7 2.5 2.1 2.5 1.4 0 2-1.1 2-2.6zM703.8 525.7h-.2c-1.3 0-2.6.5-2.6 2.7v4.1h-1.3v-8h1.3v1.3c.4-.9 1.4-1.4 2.4-1.4h.4v1.3zM706.2 528.9c.1 1.5 1 2.6 2.5 2.6.9 0 1.5-.3 2.1-.8l.7.9c-.7.6-1.7 1-2.8 1-2.3 0-3.8-1.7-3.8-4.1 0-2.4 1.4-4.2 3.6-4.2 2.1 0 3.4 1.7 3.4 4.1v.4h-5.7zm0-1h4.2c0-1.2-.7-2.4-2-2.4s-2.2 1.1-2.2 2.4zM713.1 531.5l.8-.9c.5.4 1.3 1 2.4 1 .9 0 1.6-.4 1.6-1.2 0-.9-.9-1.1-2-1.3-1.1-.3-2.5-.7-2.5-2.3 0-1.3 1.2-2.3 2.9-2.3 1.1 0 2.2.4 2.8 1l-.8.9c-.5-.4-1.2-.8-2-.8-1.1 0-1.6.5-1.6 1.2 0 .6.4.9 1.2 1.1.4.1.9.3 1.3.4 1.1.3 2 .9 2 2.2 0 1.6-1.5 2.4-3 2.4-1-.2-2.2-.6-3.1-1.4zM720.6 531.5l.8-.9c.5.4 1.3 1 2.4 1 .9 0 1.6-.4 1.6-1.2 0-.9-.9-1.1-2-1.3-1.1-.3-2.5-.7-2.5-2.3 0-1.3 1.2-2.3 2.9-2.3 1.1 0 2.2.4 2.8 1l-.8.9c-.5-.4-1.2-.8-2-.8-1.1 0-1.6.5-1.6 1.2 0 .6.4.9 1.2 1.1.4.1.9.3 1.3.4 1.1.3 2 .9 2 2.2 0 1.6-1.5 2.4-3 2.4-1-.2-2.2-.6-3.1-1.4z"/>
  </g>
  <g>
    <path class="st5" d="M827.9 521.4v-.1h1.3v11.2h-1.4v-8.2h-2.1v-1.2h.2c1.6 0 2-.5 2-1.7zM845.4 521.3h1.7v11.2h-1.4V523l-3.8 5.2-3.8-5.1v9.5h-1.4v-11.2h1.7l3.5 4.8 3.5-4.9zM852.1 532.7c-1.6 0-2.8-.9-2.8-2.4 0-1.2.8-2.1 2.1-2.3l2.8-.4v-.5c0-1.2-.8-1.6-1.8-1.6-.9 0-1.7.3-2.3.6l-.5-1c.9-.5 2-.7 2.9-.7 1.9 0 3 .9 3 2.5v3.7c0 .5.2.9.7 1.1l-.7.9c-.5-.1-.9-.5-1.1-1-.5.6-1.2 1.1-2.3 1.1zm0-3.8c-.9.1-1.5.4-1.5 1.2 0 .9.8 1.4 1.6 1.4 1 0 2-.6 2-1.6v-1.4l-2.1.4zM857.2 524.5h1.5l2 6.6 1.9-6.6h1.5l-2.9 9.2c-.4 1.1-1.1 1.4-2.1 1.4-.4 0-.9 0-1.4-.1l.2-1.2s.5.1 1.1.1c.6 0 .9-.2 1-.8l.1-.4-2.9-8.2zM869.3 532.5v-1.3c.8-.7 3.2-2.7 4-3.5.9-.8 1.7-1.8 1.7-3.1 0-1.4-.9-2.2-2.2-2.2-1.4 0-2.1 1-2.2 2.4l-1.4-.1c.1-2.2 1.5-3.5 3.6-3.5 2.2 0 3.7 1.3 3.7 3.5 0 1.6-.8 2.7-3.3 4.8l-2 1.7h5.5v1.2h-7.4zM886.9 526.9c0 2.9-1.1 5.7-4.1 5.7-3 0-4.1-2.8-4.1-5.7 0-2.9 1.1-5.8 4.1-5.8 3 0 4.1 2.9 4.1 5.8zm-1.5.3v-.7c0-2.7-1-4.2-2.6-4.2s-2.6 1.5-2.6 4.2v.7c0 2.7 1 4.2 2.6 4.2 1.6.1 2.6-1.5 2.6-4.2zM890.8 521.4v-.1h1.3v11.2h-1.4v-8.2h-2.1v-1.2h.2c1.5 0 2-.5 2-1.7zM900.4 522.5h-6v-1.2h7.3v1.2l-4.5 10h-1.6l4.8-10zM907.7 527.2h3.4v1.2h-3.4v-1.2zM827.9 540.6v-.1h1.3v11.2h-1.4v-8.2h-2.1v-1.2h.2c1.6 0 2-.5 2-1.7zM840.1 546.1c0 2.9-1.1 5.7-4.1 5.7-3 0-4.1-2.8-4.1-5.7 0-2.9 1.1-5.8 4.1-5.8 3 0 4.1 2.9 4.1 5.8zm-1.5.3v-.7c0-2.7-1-4.2-2.6-4.2s-2.6 1.5-2.6 4.2v.7c0 2.7 1 4.2 2.6 4.2 1.6.1 2.6-1.5 2.6-4.2zM843.3 543.7c.6 0 1.1.5 1.1 1.1 0 .6-.5 1.1-1.1 1.1-.6 0-1.1-.5-1.1-1.1 0-.6.5-1.1 1.1-1.1zm0 6c.6 0 1.1.5 1.1 1.1 0 .6-.5 1.1-1.1 1.1-.6 0-1.1-.5-1.1-1.1 0-.6.5-1.1 1.1-1.1zM848.3 540.6v-.1h1.3v11.2h-1.4v-8.2h-2.1v-1.2h.2c1.6 0 2-.5 2-1.7zM852.5 546l.6-5.5h6.4v1.2h-5.3l-.3 3.2c.6-.6 1.5-.9 2.4-.9 2.1 0 3.7 1.6 3.7 3.8 0 2.4-1.6 4.1-4 4.1-1.8 0-3.4-.9-3.8-2.7l1.4-.2c.3.9 1 1.7 2.4 1.7 1.6 0 2.6-1.2 2.6-2.8 0-1.6-1-2.7-2.6-2.7-.8 0-1.7.4-2.1 1l-1.4-.2z"/>
  </g>
  <path class="st8" d="M915.7 562.4H52.6"/>
  <g>
    <path class="st5" d="M203.8 576.3h1.3v9.4c0 .5.2.8.8.8h.8l.1 1.1s-.8.1-1.3.1c-.9 0-1.7-.4-1.7-1.6v-9.8zM207.3 579.5h1.5l2 6.6 1.9-6.6h1.5l-2.9 9.2c-.4 1.1-1.1 1.4-2.1 1.4-.4 0-.9 0-1.4-.1l.2-1.2s.5.1 1.1.1c.6 0 .9-.2 1-.8l.1-.4-2.9-8.2zM221.8 587.5h-1.3v-5c0-1.4-.7-1.9-1.6-1.9-.9 0-1.8.7-1.8 2.2v4.7h-1.3v-8h1.3v.9c.5-.7 1.2-1.1 2.1-1.1.7 0 1.7.4 2.2 1.3.6-1 1.5-1.3 2.4-1.3 1.7 0 2.7 1.3 2.7 2.7v5.5h-1.3v-5c0-1.4-.8-1.9-1.6-1.9-.9 0-1.8.7-1.8 2.2v4.7zM231.2 587.7c-1.6 0-2.8-.9-2.8-2.4 0-1.2.8-2.1 2.1-2.3l2.8-.4v-.5c0-1.2-.8-1.6-1.8-1.6-.9 0-1.7.3-2.3.6l-.5-1c.9-.5 2-.7 2.9-.7 1.9 0 3 .9 3 2.5v3.7c0 .5.2.9.7 1.1l-.7.9c-.5-.1-.9-.5-1.1-1-.5.6-1.3 1.1-2.3 1.1zm0-3.8c-.9.1-1.5.4-1.5 1.2 0 .9.8 1.4 1.6 1.4 1 0 2-.6 2-1.6v-1.4l-2.1.4zM237.2 579.5h1.3v.9c.5-.7 1.4-1.1 2.3-1.1 1.8 0 2.7 1.3 2.7 2.7v5.4h-1.3v-5c0-1.4-.7-1.9-1.6-1.9-1 0-2 .7-2 2.2v4.7h-1.3v-7.9zM246.9 585.5c.6 0 1.1.5 1.1 1.1 0 .6-.5 1.1-1.1 1.1-.6 0-1.1-.5-1.1-1.1 0-.6.5-1.1 1.1-1.1zM249.7 586.5l.8-.9c.5.4 1.3 1 2.4 1 .9 0 1.6-.4 1.6-1.2 0-.9-.9-1.1-2-1.3-1.1-.3-2.5-.7-2.5-2.3 0-1.3 1.2-2.3 2.9-2.3 1.1 0 2.2.4 2.8 1l-.8.9c-.5-.4-1.2-.8-2-.8-1.1 0-1.6.5-1.6 1.2 0 .6.4.9 1.2 1.1.4.1.9.3 1.3.4 1.1.3 2 .9 2 2.2 0 1.6-1.5 2.4-3 2.4-1.1-.2-2.3-.6-3.1-1.4zM260.1 587.7c-1.6 0-2.8-.9-2.8-2.4 0-1.2.8-2.1 2.1-2.3l2.8-.4v-.5c0-1.2-.8-1.6-1.8-1.6-.9 0-1.7.3-2.3.6l-.5-1c.9-.5 2-.7 2.9-.7 1.9 0 3 .9 3 2.5v3.7c0 .5.2.9.7 1.1l-.7.9c-.5-.1-.9-.5-1.1-1-.5.6-1.3 1.1-2.3 1.1zm0-3.8c-.9.1-1.5.4-1.5 1.2 0 .9.8 1.4 1.6 1.4 1 0 2-.6 2-1.6v-1.4l-2.1.4zM270.2 580.7h-.2c-1.3 0-2.6.5-2.6 2.7v4.1h-1.3v-8h1.3v1.3c.4-.9 1.4-1.4 2.4-1.4h.4v1.3zM274 587.7c-1.6 0-2.8-.9-2.8-2.4 0-1.2.8-2.1 2.1-2.3l2.8-.4v-.5c0-1.2-.8-1.6-1.8-1.6-.9 0-1.7.3-2.3.6l-.5-1c.9-.5 2-.7 2.9-.7 1.9 0 3 .9 3 2.5v3.7c0 .5.2.9.7 1.1l-.7.9c-.5-.1-.9-.5-1.1-1-.4.6-1.2 1.1-2.3 1.1zm.1-3.8c-.9.1-1.5.4-1.5 1.2 0 .9.8 1.4 1.6 1.4 1 0 2-.6 2-1.6v-1.4l-2.1.4zM280.1 576.3h1.3v4.1c.5-.7 1.4-1.1 2.3-1.1 1.8 0 2.7 1.3 2.7 2.7v5.4h-1.3v-5c0-1.4-.7-1.9-1.6-1.9-1 0-2 .7-2 2.2v4.7h-1.3v-11.1zM288.6 582.2c0-3 1.2-6.1 4.5-6.1 1.6 0 2.7.7 3.3 1.8l-1.4.4c-.5-.7-1.1-1.1-2-1.1-2.1 0-3 2.2-3 4.5.5-.8 1.4-1.6 3-1.6 2.1 0 3.6 1.6 3.6 3.7 0 2.2-1.6 3.8-3.9 3.8-2.4 0-4.2-1.8-4.2-5.2v-.2zm4.2 4.3c1.4 0 2.5-1 2.5-2.6s-1-2.6-2.5-2.6-2.5 1-2.5 2.5c0 1.6 1 2.7 2.5 2.7zM306.8 581.9c0 2.9-1.1 5.7-4.1 5.7-3 0-4.1-2.8-4.1-5.7 0-2.9 1.1-5.8 4.1-5.8 3 0 4.1 2.9 4.1 5.8zm-1.5.3v-.7c0-2.7-1-4.2-2.6-4.2s-2.6 1.5-2.6 4.2v.7c0 2.7 1 4.2 2.6 4.2 1.6.1 2.6-1.5 2.6-4.2zM317.5 586.7c-.5.5-1.2 1-2.3 1-1.6 0-2.8-.9-2.8-2.4 0-1.2.8-2.1 2.1-2.3l2.8-.4v-.5c0-1.2-.8-1.6-1.8-1.6-.9 0-1.7.3-2.3.6l-.5-1c.9-.5 2-.7 2.9-.7 1.9 0 3 .9 3 2.5v3.9c0 .5.2.9.7.9 1.7 0 2.1-2.6 2.1-3.3 0-3.4-2.5-5.8-5.8-5.8s-5.9 2.7-5.9 5.9c0 3.3 2.7 5.9 5.9 5.9.9 0 1.8-.2 2.6-.6l.6.7c-1 .5-2.1.8-3.3.8-3.8 0-6.7-3-6.7-6.8s3.1-6.8 6.9-6.8c3.8 0 6.6 2.7 6.6 6.6 0 1.7-1 4.3-3 4.3-1.3.1-1.6-.6-1.8-.9zm-2.3-2.8c-.9.1-1.5.4-1.5 1.2 0 .9.8 1.4 1.6 1.4 1 0 2-.6 2-1.6v-1.4l-2.1.4zM325.6 585.5c.6 0 1.1.5 1.1 1.1 0 .6-.5 1.1-1.1 1.1-.6 0-1.1-.5-1.1-1.1 0-.6.5-1.1 1.1-1.1zM329.9 585.5c.6 0 1.1.5 1.1 1.1 0 .6-.5 1.1-1.1 1.1-.6 0-1.1-.5-1.1-1.1 0-.6.5-1.1 1.1-1.1zM334.3 585.5c.6 0 1.1.5 1.1 1.1 0 .6-.5 1.1-1.1 1.1-.6 0-1.1-.5-1.1-1.1 0-.6.5-1.1 1.1-1.1z"/>
  </g>
  <g>
    <path class="st5" d="M54.8 585c.7.9 1.9 1.5 3.2 1.5 1.4 0 2.5-.7 2.5-2 0-.8-.4-1.3-1.1-1.6-1.1-.5-2.9-.6-4.1-1.3-.7-.4-1.3-1.1-1.3-2.3 0-1.7 1.4-3.1 3.8-3.1 1.4 0 2.8.6 3.7 1.5l-1 .8c-.6-.6-1.5-1.2-2.7-1.2-1.4 0-2.4.7-2.4 1.9 0 1.8 2.6 1.6 4.6 2.5 1 .4 1.9 1.2 1.9 2.7 0 2.2-2 3.3-4.1 3.3-1.9 0-3.2-.8-4.1-1.7l1.1-1zM64.4 576.3h3.8c2.1 0 3.7 1 3.7 3.3 0 1.4-.8 2.5-2.2 3.1l2.4 4.8h-1.6l-2.1-4.5h-2.6v4.5h-1.4v-11.2zm3.9 5.5c1.3 0 2.2-.8 2.2-2.1 0-1.4-.9-2.2-2.2-2.2h-2.5v4.3h2.5zM76.6 587.5l-3.3-11.2h1.5l2.7 9.9 2.8-9.9h1.5l-3.3 11.2h-1.9zM83.5 581.8l.6-5.5h6.4v1.2h-5.3l-.3 3.2c.6-.6 1.5-.9 2.4-.9 2.1 0 3.7 1.6 3.7 3.8 0 2.4-1.6 4.1-4 4.1-1.8 0-3.4-.9-3.8-2.7l1.4-.2c.3.9 1 1.7 2.4 1.7 1.6 0 2.6-1.2 2.6-2.8 0-1.6-1-2.7-2.6-2.7-.8 0-1.7.4-2.1 1l-1.4-.2zM94.7 576.4v-.1H96v11.2h-1.4v-8.2h-2.1v-1.2h.2c1.6 0 2-.5 2-1.7zM104.3 577.5h-6v-1.2h7.3v1.2l-4.5 10h-1.6l4.8-10zM112.9 577.5h-6v-1.2h7.3v1.2l-4.5 10h-1.6l4.8-10zM123.8 581.6c0 3-1.2 6.1-4.4 6.1-1.6 0-2.7-.7-3.3-1.8l1.4-.4c.5.7 1.1 1.1 2 1.1 2.1 0 3-2.2 3-4.5-.5.8-1.4 1.6-3 1.6-2.1 0-3.6-1.6-3.6-3.6 0-2.2 1.6-3.8 3.9-3.8 2.4 0 4.2 1.8 4.2 5.2v.1zm-4.1-4.3c-1.4 0-2.5 1-2.5 2.6s1 2.6 2.5 2.6 2.5-1 2.5-2.5c0-1.6-1-2.7-2.5-2.7zM127.7 576.4v-.1h1.3v11.2h-1.4v-8.2h-2.1v-1.2h.2c1.6 0 2-.5 2-1.7z"/>
  </g>
  <g>
    <path class="st5" d="M383.7 578.3c-.4-.6-1-1-1.9-1-1.2 0-2 .9-2 2.4v1.8h2.6v1.2h-2.6v3.7h5v1.2h-7.2v-1.2h.8v-3.7h-.8v-1.2h.8v-1.7c0-2.2 1.3-3.6 3.4-3.6 1.4 0 2.4.5 3 1.4l-1.1.7zM394.4 579.2c0 1-.5 2.1-1.9 2.5 1.6.4 2.2 1.7 2.2 2.8 0 2-2 3.1-4 3.1s-4-1.1-4-3.1c0-1.2.7-2.4 2.2-2.8-1.4-.4-1.9-1.5-1.9-2.5 0-1.9 1.8-3 3.7-3 1.9-.1 3.7 1 3.7 3zm-1.1 5.2c0-1.4-1.2-2-2.6-2-1.4 0-2.6.7-2.6 2 0 1.4 1.2 2 2.6 2 1.4.1 2.6-.6 2.6-2zm-.3-5.1c0-1.2-1.1-1.9-2.3-1.9-1.2 0-2.3.7-2.3 1.9s1 1.9 2.3 1.9c1.3-.1 2.3-.8 2.3-1.9zM404.9 581.9c0 2.9-1.1 5.7-4.1 5.7-3 0-4.1-2.8-4.1-5.7 0-2.9 1.1-5.8 4.1-5.8 3 0 4.1 2.9 4.1 5.8zm-1.5.3v-.7c0-2.7-1-4.2-2.6-4.2s-2.6 1.5-2.6 4.2v.7c0 2.7 1 4.2 2.6 4.2 1.6.1 2.6-1.5 2.6-4.2zM407.9 585.5c.6 0 1.1.5 1.1 1.1 0 .6-.5 1.1-1.1 1.1-.6 0-1.1-.5-1.1-1.1 0-.6.5-1.1 1.1-1.1zM419.1 581.9c0 2.9-1.1 5.7-4.1 5.7-3 0-4.1-2.8-4.1-5.7 0-2.9 1.1-5.8 4.1-5.8 3 0 4.1 2.9 4.1 5.8zm-1.5.3v-.7c0-2.7-1-4.2-2.6-4.2s-2.6 1.5-2.6 4.2v.7c0 2.7 1 4.2 2.6 4.2 1.6.1 2.6-1.5 2.6-4.2zM429.3 581.9c0 2.9-1.1 5.7-4.1 5.7-3 0-4.1-2.8-4.1-5.7 0-2.9 1.1-5.8 4.1-5.8 3 0 4.1 2.9 4.1 5.8zm-1.5.3v-.7c0-2.7-1-4.2-2.6-4.2s-2.6 1.5-2.6 4.2v.7c0 2.7 1 4.2 2.6 4.2 1.6.1 2.6-1.5 2.6-4.2z"/>
  </g>
  <g>
    <path class="st5" d="M518.2 574.9h1.7v11.2h-1.4v-9.5l-3.8 5.2-3.8-5.1v9.5h-1.4V575h1.7l3.5 4.8 3.5-4.9zM524.9 586.3c-1.6 0-2.8-.9-2.8-2.4 0-1.2.8-2.1 2.1-2.3l2.8-.4v-.5c0-1.2-.8-1.6-1.8-1.6-.9 0-1.7.3-2.3.6l-.5-1c.9-.5 2-.7 2.9-.7 1.9 0 3 .9 3 2.5v3.7c0 .5.2.9.7 1.1l-.7.9c-.5-.1-.9-.5-1.1-1-.4.7-1.2 1.1-2.3 1.1zm0-3.7c-.9.1-1.5.4-1.5 1.2 0 .9.8 1.4 1.6 1.4 1 0 2-.6 2-1.6v-1.4l-2.1.4zM530.2 585.1l.8-.9c.5.4 1.3 1 2.4 1 .9 0 1.6-.4 1.6-1.2 0-.9-.9-1.1-2-1.3-1.1-.3-2.5-.7-2.5-2.3 0-1.3 1.2-2.3 2.9-2.3 1.1 0 2.2.4 2.8 1l-.8.9c-.5-.4-1.2-.8-2-.8-1.1 0-1.6.5-1.6 1.2 0 .6.4.9 1.2 1.1.4.1.9.3 1.3.4 1.1.3 2 .9 2 2.2 0 1.6-1.5 2.4-3 2.4-1-.2-2.2-.6-3.1-1.4zM540.5 584.1c0 .5.1 1 1 1 .2 0 .8 0 1-.1l.1 1.2s-.8.1-1.4.1c-1.3 0-2-.5-2-1.9v-5.1h-1.5v-1.2h1.5v-2.6l1.3-.5v3.1h2.2v1.2h-2.2v4.8zM545.4 582.5c.1 1.5 1 2.6 2.5 2.6.9 0 1.5-.3 2.1-.8l.7.9c-.7.6-1.7 1-2.8 1-2.3 0-3.8-1.7-3.8-4.1 0-2.4 1.4-4.2 3.6-4.2 2.1 0 3.4 1.7 3.4 4.1v.4h-5.7zm0-1h4.2c0-1.2-.7-2.4-2-2.4s-2.1 1.2-2.2 2.4zM557.1 579.3h-.2c-1.3 0-2.6.5-2.6 2.7v4.1H553v-8h1.3v1.3c.4-.9 1.4-1.4 2.4-1.4h.4v1.3zM559.5 582.2c0 1.6.8 3 2.3 3 1 0 1.7-.6 2.1-1.3l1.1.6c-.5 1.1-1.7 1.9-3.2 1.9-2.2 0-3.7-1.7-3.7-4.1 0-2.4 1.5-4.2 3.7-4.2 1.4 0 2.6.7 3.2 1.9l-1.1.6c-.4-.8-1.1-1.3-2.1-1.3-1.5-.2-2.3 1.2-2.3 2.9zM569.1 586.3c-1.6 0-2.8-.9-2.8-2.4 0-1.2.8-2.1 2.1-2.3l2.8-.4v-.5c0-1.2-.8-1.6-1.8-1.6-.9 0-1.7.3-2.3.6l-.5-1c.9-.5 2-.7 2.9-.7 1.9 0 3 .9 3 2.5v3.7c0 .5.2.9.7 1.1l-.7.9c-.5-.1-.9-.5-1.1-1-.5.7-1.2 1.1-2.3 1.1zm0-3.7c-.9.1-1.5.4-1.5 1.2 0 .9.8 1.4 1.6 1.4 1 0 2-.6 2-1.6v-1.4l-2.1.4zM579.2 579.3h-.2c-1.3 0-2.6.5-2.6 2.7v4.1h-1.3v-8h1.3v1.3c.4-.9 1.4-1.4 2.4-1.4h.4v1.3zM586 585.2c-.5.7-1.3 1.1-2.3 1.1-2.1 0-3.4-1.7-3.4-4.1 0-2.4 1.3-4.2 3.4-4.2 1 0 1.9.4 2.3 1.1V575h1.3v11.2H586v-1zm-4.4-3c0 1.7.8 2.9 2.3 2.9 1.4 0 2.1-1 2.1-2.3v-1.3c0-1.3-.7-2.3-2.1-2.3-1.5-.1-2.3 1.2-2.3 3z"/>
  </g>
  <g>
    <path class="st5" d="M649.9 576.3h1.4v11.2h-1.4v-11.2zM654.1 579.5h1.3v.9c.5-.7 1.4-1.1 2.3-1.1 1.8 0 2.7 1.3 2.7 2.7v5.4h-1.3v-5c0-1.4-.7-1.9-1.6-1.9-1 0-2 .7-2 2.2v4.7h-1.3v-7.9zM668.4 579.5v.9c.5-.7 1.3-1.1 2.3-1.1 2.1 0 3.4 1.7 3.4 4.2 0 2.4-1.3 4.1-3.4 4.1-1 0-1.9-.4-2.3-1.1v3.3h-1.3v-10.4h1.3zm4.4 4c0-1.7-.8-2.9-2.3-2.9-1.4 0-2.1 1-2.1 2.3v1.3c0 1.3.7 2.3 2.1 2.3 1.5 0 2.3-1.3 2.3-3zM680.3 580.7h-.2c-1.3 0-2.6.5-2.6 2.7v4.1h-1.3v-8h1.3v1.3c.4-.9 1.4-1.4 2.4-1.4h.4v1.3zM688.7 583.5c0 2.4-1.5 4.1-3.7 4.1s-3.7-1.7-3.7-4.1c0-2.4 1.5-4.2 3.7-4.2s3.7 1.8 3.7 4.2zm-1.4.1c0-1.7-.8-3.1-2.3-3.1s-2.3 1.4-2.3 3v.1c0 1.6.8 2.9 2.3 2.9s2.3-1.4 2.3-2.9zM693.5 579.3c.9 0 1.7.3 2.3 1.1v-.9h1.3v8.1c0 2-1.7 2.6-3.4 2.6-.9 0-2.1-.2-3-.6l.4-1.1c.6.3 1.6.6 2.5.6 1.3 0 2.1-.5 2.1-1.7v-1.5c-.5.8-1.4 1.1-2.3 1.1-2 0-3.2-1.6-3.2-3.7s1.4-4 3.3-4zm2.3 3.7c0-1.4-.6-2.5-2-2.5-1.5 0-2.1 1.1-2.1 2.5v.1c0 1.4.7 2.5 2.1 2.5 1.4 0 2-1.1 2-2.6zM703.8 580.7h-.2c-1.3 0-2.6.5-2.6 2.7v4.1h-1.3v-8h1.3v1.3c.4-.9 1.4-1.4 2.4-1.4h.4v1.3zM706.2 583.9c.1 1.5 1 2.6 2.5 2.6.9 0 1.5-.3 2.1-.8l.7.9c-.7.6-1.7 1-2.8 1-2.3 0-3.8-1.7-3.8-4.1 0-2.4 1.4-4.2 3.6-4.2 2.1 0 3.4 1.7 3.4 4.1v.4h-5.7zm0-1.1h4.2c0-1.2-.7-2.4-2-2.4-1.3.1-2.2 1.2-2.2 2.4zM713.1 586.5l.8-.9c.5.4 1.3 1 2.4 1 .9 0 1.6-.4 1.6-1.2 0-.9-.9-1.1-2-1.3-1.1-.3-2.5-.7-2.5-2.3 0-1.3 1.2-2.3 2.9-2.3 1.1 0 2.2.4 2.8 1l-.8.9c-.5-.4-1.2-.8-2-.8-1.1 0-1.6.5-1.6 1.2 0 .6.4.9 1.2 1.1.4.1.9.3 1.3.4 1.1.3 2 .9 2 2.2 0 1.6-1.5 2.4-3 2.4-1-.2-2.2-.6-3.1-1.4zM720.6 586.5l.8-.9c.5.4 1.3 1 2.4 1 .9 0 1.6-.4 1.6-1.2 0-.9-.9-1.1-2-1.3-1.1-.3-2.5-.7-2.5-2.3 0-1.3 1.2-2.3 2.9-2.3 1.1 0 2.2.4 2.8 1l-.8.9c-.5-.4-1.2-.8-2-.8-1.1 0-1.6.5-1.6 1.2 0 .6.4.9 1.2 1.1.4.1.9.3 1.3.4 1.1.3 2 .9 2 2.2 0 1.6-1.5 2.4-3 2.4-1-.2-2.2-.6-3.1-1.4z"/>
  </g>
  <g>
    <path class="st5" d="M827.9 576.4v-.1h1.3v11.2h-1.4v-8.2h-2.1v-1.2h.2c1.6 0 2-.5 2-1.7zM845.4 576.3h1.7v11.2h-1.4V578l-3.8 5.2-3.8-5.1v9.5h-1.4v-11.2h1.7l3.5 4.8 3.5-4.9zM852.1 587.7c-1.6 0-2.8-.9-2.8-2.4 0-1.2.8-2.1 2.1-2.3l2.8-.4v-.5c0-1.2-.8-1.6-1.8-1.6-.9 0-1.7.3-2.3.6l-.5-1c.9-.5 2-.7 2.9-.7 1.9 0 3 .9 3 2.5v3.7c0 .5.2.9.7 1.1l-.7.9c-.5-.1-.9-.5-1.1-1-.5.6-1.2 1.1-2.3 1.1zm0-3.8c-.9.1-1.5.4-1.5 1.2 0 .9.8 1.4 1.6 1.4 1 0 2-.6 2-1.6v-1.4l-2.1.4zM857.2 579.5h1.5l2 6.6 1.9-6.6h1.5l-2.9 9.2c-.4 1.1-1.1 1.4-2.1 1.4-.4 0-.9 0-1.4-.1l.2-1.2s.5.1 1.1.1c.6 0 .9-.2 1-.8l.1-.4-2.9-8.2zM869.3 587.5v-1.3c.8-.7 3.2-2.7 4-3.5.9-.8 1.7-1.8 1.7-3.1 0-1.4-.9-2.2-2.2-2.2-1.4 0-2.1 1-2.2 2.4l-1.4-.1c.1-2.2 1.5-3.5 3.6-3.5 2.2 0 3.7 1.3 3.7 3.5 0 1.6-.8 2.7-3.3 4.8l-2 1.7h5.5v1.2h-7.4zM886.9 581.9c0 2.9-1.1 5.7-4.1 5.7-3 0-4.1-2.8-4.1-5.7 0-2.9 1.1-5.8 4.1-5.8 3 0 4.1 2.9 4.1 5.8zm-1.5.3v-.7c0-2.7-1-4.2-2.6-4.2s-2.6 1.5-2.6 4.2v.7c0 2.7 1 4.2 2.6 4.2 1.6.1 2.6-1.5 2.6-4.2zM890.8 576.4v-.1h1.3v11.2h-1.4v-8.2h-2.1v-1.2h.2c1.5 0 2-.5 2-1.7zM900.4 577.5h-6v-1.2h7.3v1.2l-4.5 10h-1.6l4.8-10zM907.7 582.2h3.4v1.2h-3.4v-1.2zM834.3 601.1c0 2.9-1.1 5.7-4.1 5.7-3 0-4.1-2.8-4.1-5.7 0-2.9 1.1-5.8 4.1-5.8 3 0 4.1 2.9 4.1 5.8zm-1.5.3v-.7c0-2.7-1-4.2-2.6-4.2s-2.6 1.5-2.6 4.2v.7c0 2.7 1 4.2 2.6 4.2 1.6.1 2.6-1.5 2.6-4.2zM844.3 600.8c0 3-1.2 6.1-4.4 6.1-1.6 0-2.7-.7-3.3-1.8l1.4-.4c.5.7 1.1 1.1 2 1.1 2.1 0 3-2.2 3-4.5-.5.8-1.4 1.6-3 1.6-2.1 0-3.6-1.6-3.6-3.6 0-2.2 1.6-3.8 3.9-3.8 2.4 0 4.2 1.8 4.2 5.2v.1zm-4.2-4.3c-1.4 0-2.5 1-2.5 2.6s1 2.6 2.5 2.6 2.5-1 2.5-2.5c.1-1.6-1-2.7-2.5-2.7zM847.5 598.7c.6 0 1.1.5 1.1 1.1 0 .6-.5 1.1-1.1 1.1-.6 0-1.1-.5-1.1-1.1 0-.6.5-1.1 1.1-1.1zm0 6c.6 0 1.1.5 1.1 1.1 0 .6-.5 1.1-1.1 1.1-.6 0-1.1-.5-1.1-1.1 0-.6.5-1.1 1.1-1.1zM850.9 601l.6-5.5h6.4v1.2h-5.3l-.3 3.2c.6-.6 1.5-.9 2.4-.9 2.1 0 3.7 1.6 3.7 3.8 0 2.4-1.6 4.1-4 4.1-1.8 0-3.4-.9-3.8-2.7l1.4-.2c.3.9 1 1.7 2.4 1.7 1.6 0 2.6-1.2 2.6-2.8 0-1.6-1-2.7-2.6-2.7-.8 0-1.7.4-2.1 1l-1.4-.2zM867.9 598.4c0 1-.5 2.1-1.9 2.5 1.6.4 2.2 1.7 2.2 2.8 0 2-2 3.1-4 3.1s-4-1.1-4-3.1c0-1.2.7-2.4 2.2-2.8-1.4-.4-1.9-1.5-1.9-2.5 0-1.9 1.8-3 3.7-3 1.9-.1 3.7 1 3.7 3zm-1.1 5.2c0-1.4-1.2-2-2.6-2-1.4 0-2.6.7-2.6 2 0 1.4 1.2 2 2.6 2 1.4.1 2.6-.6 2.6-2zm-.3-5.1c0-1.2-1.1-1.9-2.3-1.9-1.2 0-2.3.7-2.3 1.9s1 1.9 2.3 1.9c1.3-.1 2.3-.8 2.3-1.9z"/>
  </g>
  <path class="st8" d="M915.7 618H52.6"/>
  <g>
    <path class="st5" d="M68.2 219.2h4.3c2.7 0 4.1 1.7 4.1 3.5 0 1.5-.9 2.7-2.2 3.1l2.4 4.6h-2.6l-2-4h-1.8v4h-2.3v-11.2zm4.2 2h-1.8v3.1h1.8c1.3 0 2-.6 2-1.5-.1-.9-.7-1.6-2-1.6zM80 227c.2 1.1 1 1.6 2 1.6.8 0 1.6-.3 2.1-.8l1.1 1.6c-.7.6-1.9 1.1-3.2 1.1-2.3 0-4.2-1.6-4.2-4.3v-.1c0-2.5 1.7-4.3 4-4.3 2.2 0 3.8 1.7 3.8 4.1v1H80zm0-1.7h3.4c0-.7-.5-1.6-1.6-1.6-1.2 0-1.7.9-1.8 1.6zM90 222h1.6v1.9H90v6.4h-2.2V224h-1.3v-2h1.3v-.9c0-1.5 1-2.1 2.5-2.1.8 0 1.5.1 1.7.1l-.2 1.8c-.3 0-.8-.1-1.1-.1-.6 0-.8.3-.8.6v.6zM94.7 227c.2 1.1 1 1.6 2 1.6.8 0 1.6-.3 2.1-.8l1.1 1.6c-.7.6-1.9 1.1-3.2 1.1-2.3 0-4.2-1.6-4.2-4.3v-.1c0-2.5 1.7-4.3 4-4.3 2.2 0 3.8 1.7 3.8 4.1v1h-5.6zm0-1.7h3.4c0-.7-.5-1.6-1.6-1.6-1.2 0-1.7.9-1.8 1.6zM106.7 224.1h-.4c-1.2 0-2.3.4-2.3 2.2v4.1h-2.2V222h2.2v.9c.4-.6 1.1-1.1 2.2-1.1h.5v2.3zM109.7 227c.2 1.1 1 1.6 2 1.6.8 0 1.6-.3 2.1-.8l1.1 1.6c-.7.6-1.9 1.1-3.2 1.1-2.3 0-4.2-1.6-4.2-4.3v-.1c0-2.5 1.7-4.3 4-4.3 2.2 0 3.8 1.7 3.8 4.1v1h-5.6zm.1-1.7h3.4c0-.7-.5-1.6-1.6-1.6-1.2 0-1.8.9-1.8 1.6zM116.9 222h2.2v.7c.5-.5 1.1-.9 2.1-.9 1.8 0 2.9 1.3 2.9 2.9v5.7H122v-4.9c0-1.2-.6-1.6-1.3-1.6-.9 0-1.6.6-1.6 1.9v4.6h-2.2V222zM125.6 226.2c0-2.5 1.7-4.3 4-4.3 1.7 0 3.1.8 3.6 2.2l-1.9 1c-.3-.7-.8-1.1-1.7-1.1-1.3 0-1.9 1.2-1.9 2.3v.1c0 1.1.6 2.3 1.9 2.3.9 0 1.3-.4 1.7-1.1l1.9 1c-.5 1.3-2 2.2-3.7 2.2-2.2-.2-3.9-2.1-3.9-4.6zM136.5 227c.2 1.1 1 1.6 2 1.6.8 0 1.6-.3 2.1-.8l1.1 1.6c-.7.6-1.9 1.1-3.2 1.1-2.3 0-4.2-1.6-4.2-4.3v-.1c0-2.5 1.7-4.3 4-4.3 2.2 0 3.8 1.7 3.8 4.1v1h-5.6zm0-1.7h3.4c0-.7-.5-1.6-1.6-1.6-1.2 0-1.7.9-1.8 1.6zM147.4 222h2.2v.7c.5-.5 1.1-.9 2.1-.9 1.8 0 2.9 1.3 2.9 2.9v5.7h-2.2v-4.9c0-1.2-.6-1.6-1.3-1.6-.9 0-1.6.6-1.6 1.9v4.6h-2.2V222zM163.6 230.4h-2.2v-.7c-.5.5-1.1.9-2.1.9-1.8 0-2.9-1.3-2.9-2.9V222h2.2v4.9c0 1.2.6 1.6 1.3 1.6.9 0 1.6-.6 1.6-1.9V222h2.2v8.4zM172.7 230.4h-2.2v-4.9c0-1.2-.6-1.6-1.3-1.6-.8 0-1.5.6-1.5 1.9v4.6h-2.2V222h2.2v.7c.5-.6 1.3-.9 2.1-.9.9 0 1.7.3 2.2 1.1.6-.8 1.5-1.1 2.5-1.1 1.9 0 3 1.3 3 2.8v5.7h-2.2v-4.9c0-1.2-.6-1.6-1.3-1.6-.8 0-1.5.6-1.5 1.9v4.7zM187.5 226.3c0 2.5-1.5 4.3-3.7 4.3-1 0-1.6-.4-2.1-.9v.7h-2.2v-11.2h2.2v3.6c.5-.5 1.1-.9 2.1-.9 2.3 0 3.7 1.8 3.7 4.4zm-5.8.7c0 .9.7 1.6 1.7 1.6 1.2 0 1.9-1 1.9-2.3v-.1c0-1.3-.7-2.3-1.9-2.3-1.1 0-1.7.7-1.7 1.6v1.5zM190.9 227c.2 1.1 1 1.6 2 1.6.8 0 1.6-.3 2.1-.8l1.1 1.6c-.7.6-1.9 1.1-3.2 1.1-2.3 0-4.2-1.6-4.2-4.3v-.1c0-2.5 1.7-4.3 4-4.3 2.2 0 3.8 1.7 3.8 4.1v1h-5.6zm0-1.7h3.4c0-.7-.5-1.6-1.6-1.6-1.2 0-1.7.9-1.8 1.6zM203 224.1h-.4c-1.2 0-2.3.4-2.3 2.2v4.1h-2.2V222h2.2v.9c.4-.6 1.1-1.1 2.2-1.1h.5v2.3zM68.6 238.4h6.7v1.2H70v3.7h4.9v1.2H70v4h5.6v1.2h-7v-11.3zM77.7 241.6H79v.9c.5-.7 1.4-1.1 2.3-1.1 1.8 0 2.7 1.3 2.7 2.7v5.4h-1.3v-5c0-1.4-.7-1.9-1.6-1.9-1 0-2 .7-2 2.2v4.7h-1.3v-7.9zM88.6 247.6c0 .5.1 1 1 1 .2 0 .8 0 1-.1l.1 1.2s-.8.1-1.4.1c-1.3 0-2-.5-2-1.9v-5.1h-1.5v-1.2h1.5V239l1.3-.5v3.1h2.2v1.2h-2.2v4.8zM93.5 246c.1 1.5 1 2.6 2.5 2.6.9 0 1.5-.3 2.1-.8l.7.9c-.7.6-1.7 1-2.8 1-2.3 0-3.8-1.7-3.8-4.1 0-2.4 1.4-4.2 3.6-4.2 2.1 0 3.4 1.7 3.4 4.1v.4h-5.7zm0-1h4.2c0-1.2-.7-2.4-2-2.4s-2.2 1.1-2.2 2.4zM105.2 242.8h-.2c-1.3 0-2.6.5-2.6 2.7v4.1h-1.3v-8h1.3v1.3c.4-.9 1.4-1.4 2.4-1.4h.4v1.3zM112.4 241.6h1.6v1.2h-1.6v6.8h-1.3v-6.8h-1.3v-1.2h1.3v-1.5c0-1.4.9-1.9 2.2-1.9.6 0 1.1.1 1.3.1l-.1 1.1c-.3 0-.9-.1-1.1-.1-.8 0-.9.5-.9 1v1.3zM122 249.6h-1.3v-.9c-.5.7-1.4 1.1-2.3 1.1-1.8 0-2.7-1.3-2.7-2.7v-5.4h1.3v5c0 1.4.7 1.9 1.6 1.9 1.1 0 2-.7 2-2.2v-4.7h1.3v7.9zM124.5 238.4h1.3v9.4c0 .5.2.8.8.8h.8l.1 1.1s-.8.1-1.3.1c-.9 0-1.7-.4-1.7-1.6v-9.8zM128.9 238.4h1.3v9.4c0 .5.2.8.8.8h.8l.1 1.1s-.8.1-1.3.1c-.9 0-1.7-.4-1.7-1.6v-9.8zM144 245.6c0 2.4-1.5 4.1-3.7 4.1s-3.7-1.7-3.7-4.1c0-2.4 1.5-4.2 3.7-4.2 2.2.1 3.7 1.8 3.7 4.2zm-1.4.1c0-1.7-.8-3.1-2.3-3.1-1.5 0-2.3 1.4-2.3 3v.1c0 1.6.8 2.9 2.3 2.9 1.5 0 2.3-1.4 2.3-2.9zM150.2 242.8h-.2c-1.3 0-2.6.5-2.6 2.7v4.1h-1.3v-8h1.3v1.3c.4-.9 1.4-1.4 2.4-1.4h.4v1.3zM157 241.6v.9c.5-.7 1.3-1.1 2.3-1.1 2.1 0 3.4 1.7 3.4 4.2 0 2.4-1.3 4.1-3.4 4.1-1 0-1.9-.4-2.3-1.1v3.3h-1.3v-10.4h1.3zm4.4 4c0-1.7-.8-2.9-2.3-2.9-1.4 0-2.1 1-2.1 2.3v1.3c0 1.3.7 2.3 2.1 2.3 1.5 0 2.3-1.3 2.3-3zM167 249.8c-1.6 0-2.8-.9-2.8-2.4 0-1.2.8-2.1 2.1-2.3l2.8-.4v-.5c0-1.2-.8-1.6-1.8-1.6-.9 0-1.7.3-2.3.6l-.5-1c.9-.5 2-.7 2.9-.7 1.9 0 3 .9 3 2.5v3.7c0 .5.2.9.7 1.1l-.7.9c-.5-.1-.9-.5-1.1-1-.4.6-1.2 1.1-2.3 1.1zm0-3.8c-.9.1-1.5.4-1.5 1.2 0 .9.8 1.4 1.6 1.4 1 0 2-.6 2-1.6v-1.4l-2.1.4zM177.1 242.8h-.2c-1.3 0-2.6.5-2.6 2.7v4.1H173v-8h1.3v1.3c.4-.9 1.4-1.4 2.4-1.4h.4v1.3zM180.9 247.6c0 .5.1 1 1 1 .2 0 .8 0 1-.1l.1 1.2s-.8.1-1.4.1c-1.3 0-2-.5-2-1.9v-5.1h-1.5v-1.2h1.5V239l1.3-.5v3.1h2.2v1.2h-2.2v4.8zM185.6 238.4c.5 0 1 .4 1 1 0 .5-.4 1-1 1-.5 0-1-.4-1-1s.4-1 1-1zm.6 11.2h-1.3v-8h1.3v8zM190.9 249.8c-1.6 0-2.8-.9-2.8-2.4 0-1.2.8-2.1 2.1-2.3l2.8-.4v-.5c0-1.2-.8-1.6-1.8-1.6-.9 0-1.7.3-2.3.6l-.5-1c.9-.5 2-.7 2.9-.7 1.9 0 3 .9 3 2.5v3.7c0 .5.2.9.7 1.1l-.7.9c-.5-.1-.9-.5-1.1-1-.4.6-1.2 1.1-2.3 1.1zm.1-3.8c-.9.1-1.5.4-1.5 1.2 0 .9.8 1.4 1.6 1.4 1 0 2-.6 2-1.6v-1.4l-2.1.4zM196.9 238.4h1.3v9.4c0 .5.2.8.8.8h.8l.1 1.1s-.8.1-1.3.1c-.9 0-1.7-.4-1.7-1.6v-9.8zM210.4 248.7c-.5.7-1.3 1.1-2.3 1.1-2.1 0-3.4-1.7-3.4-4.1 0-2.4 1.3-4.2 3.4-4.2 1 0 1.9.4 2.3 1.1v-4.1h1.3v11.2h-1.3v-1zm-4.4-3.1c0 1.7.8 2.9 2.3 2.9 1.4 0 2.1-1 2.1-2.3V245c0-1.3-.7-2.3-2.1-2.3-1.5-.1-2.3 1.2-2.3 2.9zM215.1 246c.1 1.5 1 2.6 2.5 2.6.9 0 1.5-.3 2.1-.8l.7.9c-.7.6-1.7 1-2.8 1-2.3 0-3.8-1.7-3.8-4.1 0-2.4 1.4-4.2 3.6-4.2 2.1 0 3.4 1.7 3.4 4.1v.4h-5.7zm.1-1h4.2c0-1.2-.7-2.4-2-2.4-1.4 0-2.2 1.1-2.2 2.4zM224.8 247.6c0 .5.1 1 1 1 .2 0 .8 0 1-.1l.1 1.2s-.8.1-1.4.1c-1.3 0-2-.5-2-1.9v-5.1H222v-1.2h1.5V239l1.3-.5v3.1h2.2v1.2h-2.2v4.8zM231 249.8c-1.6 0-2.8-.9-2.8-2.4 0-1.2.8-2.1 2.1-2.3l2.8-.4v-.5c0-1.2-.8-1.6-1.8-1.6-.9 0-1.7.3-2.3.6l-.5-1c.9-.5 2-.7 2.9-.7 1.9 0 3 .9 3 2.5v3.7c0 .5.2.9.7 1.1l-.7.9c-.5-.1-.9-.5-1.1-1-.5.6-1.3 1.1-2.3 1.1zm0-3.8c-.9.1-1.5.4-1.5 1.2 0 .9.8 1.4 1.6 1.4 1 0 2-.6 2-1.6v-1.4l-2.1.4zM237.6 238.4c.5 0 1 .4 1 1 0 .5-.4 1-1 1-.5 0-1-.4-1-1 .1-.6.5-1 1-1zm.7 11.2H237v-8h1.3v8zM240.8 238.4h1.3v9.4c0 .5.2.8.8.8h.8l.1 1.1s-.8.1-1.3.1c-.9 0-1.7-.4-1.7-1.6v-9.8zM244.5 248.6l.8-.9c.5.4 1.3 1 2.4 1 .9 0 1.6-.4 1.6-1.2 0-.9-.9-1.1-2-1.3-1.1-.3-2.5-.7-2.5-2.3 0-1.3 1.2-2.3 2.9-2.3 1.1 0 2.2.4 2.8 1l-.8.9c-.5-.4-1.2-.8-2-.8-1.1 0-1.6.5-1.6 1.2 0 .6.4.9 1.2 1.1.4.1.9.3 1.3.4 1.1.3 2 .9 2 2.2 0 1.6-1.5 2.4-3 2.4-1-.2-2.2-.6-3.1-1.4z"/>
  </g>
  <g>
    <path class="st5" d="M280.6 219.2h7.6v2h-5.3v2.4h4.9v2h-4.9v2.7h5.6v2h-7.9v-11.1zM297.1 230.4h-2.2v-4.9c0-1.2-.6-1.6-1.3-1.6-.8 0-1.5.6-1.5 1.9v4.6H290V222h2.2v.7c.5-.6 1.3-.9 2.1-.9.9 0 1.7.3 2.2 1.1.6-.8 1.5-1.1 2.5-1.1 1.9 0 3 1.3 3 2.8v5.7h-2.2v-4.9c0-1.2-.6-1.6-1.3-1.6-.8 0-1.5.6-1.5 1.9v4.7zM306.4 230.6c-1.5 0-2.9-1-2.9-2.6 0-1.3.9-2.2 2.4-2.4l2.5-.4v-.3c0-.7-.5-1.1-1.3-1.1-1 0-1.8.4-2.5.7l-.8-1.7c1-.5 2.2-.9 3.4-.9 1.5 0 3.4.4 3.4 2.7v3.6c0 .5.3.7.7.9l-1 1.6c-.8-.1-1.3-.5-1.6-.9-.5.5-1.3.8-2.3.8zm.2-3.6c-.5.1-.9.4-.9.9s.4 1 1.1 1c1 0 1.5-.7 1.5-1.5v-.6l-1.7.2zM313.6 218.8c.8 0 1.4.6 1.4 1.4 0 .8-.6 1.4-1.4 1.4-.8 0-1.4-.6-1.4-1.4.1-.8.7-1.4 1.4-1.4zm1.1 11.6h-2.2V222h2.2v8.4zM316.7 219.2h2.2v8.9c0 .4.2.5.6.5.3 0 .6 0 .8-.1l.2 1.8s-1 .1-1.8.1c-1.2 0-2-.6-2-1.8v-9.4zM280.9 238.4h6.7v1.2h-5.3v3.7h4.9v1.2h-4.9v4h5.6v1.2h-7v-11.3zM290 241.6h1.3v.9c.5-.7 1.4-1.1 2.3-1.1 1.8 0 2.7 1.3 2.7 2.7v5.4H295v-5c0-1.4-.7-1.9-1.6-1.9-1 0-2 .7-2 2.2v4.7H290v-7.9zM300.9 247.6c0 .5.1 1 1 1 .2 0 .8 0 1-.1l.1 1.2s-.8.1-1.4.1c-1.3 0-2-.5-2-1.9v-5.1h-1.5v-1.2h1.5V239l1.3-.5v3.1h2.2v1.2h-2.2v4.8zM305.8 246c.1 1.5 1 2.6 2.5 2.6.9 0 1.5-.3 2.1-.8l.7.9c-.7.6-1.7 1-2.8 1-2.3 0-3.8-1.7-3.8-4.1 0-2.4 1.4-4.2 3.6-4.2 2.1 0 3.4 1.7 3.4 4.1v.4h-5.7zm0-1h4.2c0-1.2-.7-2.4-2-2.4s-2.1 1.1-2.2 2.4zM317.5 242.8h-.2c-1.3 0-2.6.5-2.6 2.7v4.1h-1.3v-8h1.3v1.3c.4-.9 1.4-1.4 2.4-1.4h.4v1.3zM324.7 241.6h1.6v1.2h-1.6v6.8h-1.3v-6.8h-1.3v-1.2h1.3v-1.5c0-1.4.9-1.9 2.2-1.9.6 0 1.1.1 1.3.1l-.1 1.1c-.3 0-.9-.1-1.1-.1-.8 0-.9.5-.9 1v1.3zM334.4 249.6h-1.3v-.9c-.5.7-1.4 1.1-2.3 1.1-1.8 0-2.7-1.3-2.7-2.7v-5.4h1.3v5c0 1.4.7 1.9 1.6 1.9 1.1 0 2-.7 2-2.2v-4.7h1.3v7.9zM336.9 238.4h1.3v9.4c0 .5.2.8.8.8h.8l.1 1.1s-.8.1-1.3.1c-.9 0-1.7-.4-1.7-1.6v-9.8zM341.3 238.4h1.3v9.4c0 .5.2.8.8.8h.8l.1 1.1s-.8.1-1.3.1c-.9 0-1.7-.4-1.7-1.6v-9.8zM356.3 245.6c0 2.4-1.5 4.1-3.7 4.1s-3.7-1.7-3.7-4.1c0-2.4 1.5-4.2 3.7-4.2 2.3.1 3.7 1.8 3.7 4.2zm-1.3.1c0-1.7-.8-3.1-2.3-3.1-1.5 0-2.3 1.4-2.3 3v.1c0 1.6.8 2.9 2.3 2.9 1.5 0 2.3-1.4 2.3-2.9zM362.5 242.8h-.2c-1.3 0-2.6.5-2.6 2.7v4.1h-1.3v-8h1.3v1.3c.4-.9 1.4-1.4 2.4-1.4h.4v1.3zM369.3 241.6v.9c.5-.7 1.3-1.1 2.3-1.1 2.1 0 3.4 1.7 3.4 4.2 0 2.4-1.3 4.1-3.4 4.1-1 0-1.9-.4-2.3-1.1v3.3H368v-10.4h1.3zm4.4 4c0-1.7-.8-2.9-2.3-2.9-1.4 0-2.1 1-2.1 2.3v1.3c0 1.3.7 2.3 2.1 2.3 1.5 0 2.3-1.3 2.3-3zM379.4 249.8c-1.6 0-2.8-.9-2.8-2.4 0-1.2.8-2.1 2.1-2.3l2.8-.4v-.5c0-1.2-.8-1.6-1.8-1.6-.9 0-1.7.3-2.3.6l-.5-1c.9-.5 2-.7 2.9-.7 1.9 0 3 .9 3 2.5v3.7c0 .5.2.9.7 1.1l-.7.9c-.5-.1-.9-.5-1.1-1-.5.6-1.3 1.1-2.3 1.1zm0-3.8c-.9.1-1.5.4-1.5 1.2 0 .9.8 1.4 1.6 1.4 1 0 2-.6 2-1.6v-1.4l-2.1.4zM389.5 242.8h-.2c-1.3 0-2.6.5-2.6 2.7v4.1h-1.3v-8h1.3v1.3c.4-.9 1.4-1.4 2.4-1.4h.4v1.3zM393.2 247.6c0 .5.1 1 1 1 .2 0 .8 0 1-.1l.1 1.2s-.8.1-1.4.1c-1.3 0-2-.5-2-1.9v-5.1h-1.5v-1.2h1.5V239l1.3-.5v3.1h2.2v1.2h-2.2v4.8zM397.9 238.4c.5 0 1 .4 1 1 0 .5-.4 1-1 1-.5 0-1-.4-1-1s.4-1 1-1zm.6 11.2h-1.3v-8h1.3v8zM403.3 249.8c-1.6 0-2.8-.9-2.8-2.4 0-1.2.8-2.1 2.1-2.3l2.8-.4v-.5c0-1.2-.8-1.6-1.8-1.6-.9 0-1.7.3-2.3.6l-.5-1c.9-.5 2-.7 2.9-.7 1.9 0 3 .9 3 2.5v3.7c0 .5.2.9.7 1.1l-.7.9c-.5-.1-.9-.5-1.1-1-.5.6-1.3 1.1-2.3 1.1zm0-3.8c-.9.1-1.5.4-1.5 1.2 0 .9.8 1.4 1.6 1.4 1 0 2-.6 2-1.6v-1.4l-2.1.4zM409.2 238.4h1.3v9.4c0 .5.2.8.8.8h.8l.1 1.1s-.8.1-1.3.1c-.9 0-1.7-.4-1.7-1.6v-9.8zM422.7 248.7c-.5.7-1.3 1.1-2.3 1.1-2.1 0-3.4-1.7-3.4-4.1 0-2.4 1.3-4.2 3.4-4.2 1 0 1.9.4 2.3 1.1v-4.1h1.3v11.2h-1.3v-1zm-4.4-3.1c0 1.7.8 2.9 2.3 2.9 1.4 0 2.1-1 2.1-2.3V245c0-1.3-.7-2.3-2.1-2.3-1.5-.1-2.3 1.2-2.3 2.9zM427.5 246c.1 1.5 1 2.6 2.5 2.6.9 0 1.5-.3 2.1-.8l.7.9c-.7.6-1.7 1-2.8 1-2.3 0-3.8-1.7-3.8-4.1 0-2.4 1.4-4.2 3.6-4.2 2.1 0 3.4 1.7 3.4 4.1v.4h-5.7zm0-1h4.2c0-1.2-.7-2.4-2-2.4s-2.2 1.1-2.2 2.4zM437.1 247.6c0 .5.1 1 1 1 .2 0 .8 0 1-.1l.1 1.2s-.8.1-1.4.1c-1.3 0-2-.5-2-1.9v-5.1h-1.5v-1.2h1.5V239l1.3-.5v3.1h2.2v1.2h-2.2v4.8zM443.3 249.8c-1.6 0-2.8-.9-2.8-2.4 0-1.2.8-2.1 2.1-2.3l2.8-.4v-.5c0-1.2-.8-1.6-1.8-1.6-.9 0-1.7.3-2.3.6l-.5-1c.9-.5 2-.7 2.9-.7 1.9 0 3 .9 3 2.5v3.7c0 .5.2.9.7 1.1l-.7.9c-.5-.1-.9-.5-1.1-1-.5.6-1.2 1.1-2.3 1.1zm0-3.8c-.9.1-1.5.4-1.5 1.2 0 .9.8 1.4 1.6 1.4 1 0 2-.6 2-1.6v-1.4l-2.1.4zM450 238.4c.5 0 1 .4 1 1 0 .5-.4 1-1 1-.5 0-1-.4-1-1s.4-1 1-1zm.6 11.2h-1.3v-8h1.3v8zM453.1 238.4h1.3v9.4c0 .5.2.8.8.8h.8l.1 1.1s-.8.1-1.3.1c-.9 0-1.7-.4-1.7-1.6v-9.8zM456.9 248.6l.8-.9c.5.4 1.3 1 2.4 1 .9 0 1.6-.4 1.6-1.2 0-.9-.9-1.1-2-1.3-1.1-.3-2.5-.7-2.5-2.3 0-1.3 1.2-2.3 2.9-2.3 1.1 0 2.2.4 2.8 1l-.8.9c-.5-.4-1.2-.8-2-.8-1.1 0-1.6.5-1.6 1.2 0 .6.4.9 1.2 1.1.4.1.9.3 1.3.4 1.1.3 2 .9 2 2.2 0 1.6-1.5 2.4-3 2.4-1.1-.2-2.2-.6-3.1-1.4z"/>
  </g>
  <g>
    <path class="st5" d="M493.3 219.2h4.5c2.3 0 3.8 1.6 3.8 3.7s-1.6 3.7-3.9 3.7h-2v3.8h-2.3v-11.2zm3.9 2h-1.6v3.3h1.6c1.2 0 2-.6 2-1.6v-.1c0-1-.8-1.6-2-1.6zM505.2 230.6c-1.5 0-2.9-1-2.9-2.6 0-1.3.9-2.2 2.4-2.4l2.5-.4v-.3c0-.7-.5-1.1-1.3-1.1-1 0-1.8.4-2.5.7l-.8-1.7c1-.5 2.2-.9 3.4-.9 1.5 0 3.4.4 3.4 2.7v3.6c0 .5.3.7.7.9l-1 1.6c-.8-.1-1.3-.5-1.6-.9-.5.5-1.3.8-2.3.8zm.3-3.6c-.5.1-.9.4-.9.9s.4 1 1.1 1c1 0 1.5-.7 1.5-1.5v-.6l-1.7.2zM513.1 230.7l.1-.3h-.2l-2.6-8.4h2.4l1.5 5.8 1.5-5.8h2.4l-2.9 9.6c-.4 1.2-1.3 1.6-2.6 1.6-.5 0-1.4-.1-2-.2l.4-1.9s.6.1 1.2.1c.5.1.7-.1.8-.5zM526.5 230.4h-2.2v-4.9c0-1.2-.6-1.6-1.3-1.6-.8 0-1.5.6-1.5 1.9v4.6h-2.2V222h2.2v.7c.5-.6 1.3-.9 2.1-.9.9 0 1.7.3 2.2 1.1.6-.8 1.5-1.1 2.5-1.1 1.9 0 3 1.3 3 2.8v5.7h-2.2v-4.9c0-1.2-.6-1.6-1.3-1.6-.8 0-1.5.6-1.5 1.9v4.7zM535.1 227c.2 1.1 1 1.6 2 1.6.8 0 1.6-.3 2.1-.8l1.1 1.6c-.7.6-1.9 1.1-3.2 1.1-2.3 0-4.2-1.6-4.2-4.3v-.1c0-2.5 1.7-4.3 4-4.3 2.2 0 3.8 1.7 3.8 4.1v1h-5.6zm.1-1.7h3.4c0-.7-.5-1.6-1.6-1.6-1.3 0-1.8.9-1.8 1.6zM542.3 222h2.2v.7c.5-.5 1.1-.9 2.1-.9 1.8 0 2.9 1.3 2.9 2.9v5.7h-2.2v-4.9c0-1.2-.6-1.6-1.3-1.6-.9 0-1.6.6-1.6 1.9v4.6h-2.2V222zM554.5 227.9c0 .4.2.7.9.7.3 0 .8 0 1.1-.1l.2 1.9s-1.1.1-2 .1c-1.5 0-2.4-.7-2.4-2.1V224h-1.5v-2h1.5v-2.4l2.2-.6v2.9h2.2v1.9h-2.2v4.1zM562.8 227.7c.6.6 1.6 1 2.4 1 .7 0 1.2-.2 1.2-.7 0-.4-.3-.6-1-.7-.5-.1-1.4-.3-2.1-.6-.8-.4-1.5-1-1.5-2.2 0-1.8 1.6-2.7 3.4-2.7 1.4 0 2.6.5 3.3 1.2l-1.4 1.4c-.4-.4-1.1-.8-1.9-.8-.6 0-1.2.2-1.2.7 0 .4.4.5 1 .7 1 .3 1.8.4 2.4.8.7.4 1.2 1.1 1.2 2 0 1.8-1.5 2.7-3.4 2.7-1.4 0-2.9-.5-3.8-1.3l1.4-1.5zM573.4 227.9c0 .4.2.7.9.7.3 0 .8 0 1.1-.1l.2 1.9s-1.1.1-2 .1c-1.5 0-2.4-.7-2.4-2.1V224h-1.5v-2h1.5v-2.4l2.2-.6v2.9h2.2v1.9h-2.2v4.1zM579.5 230.6c-1.5 0-2.9-1-2.9-2.6 0-1.3.9-2.2 2.4-2.4l2.5-.4v-.3c0-.7-.5-1.1-1.3-1.1-1 0-1.8.4-2.5.7l-.8-1.7c1-.5 2.2-.9 3.4-.9 1.5 0 3.4.4 3.4 2.7v3.6c0 .5.3.7.7.9l-1 1.6c-.8-.1-1.3-.5-1.6-.9-.5.5-1.3.8-2.3.8zm.2-3.6c-.5.1-.9.4-.9.9s.4 1 1.1 1c1 0 1.5-.7 1.5-1.5v-.6l-1.7.2zM588.7 227.9c0 .4.2.7.9.7.3 0 .8 0 1.1-.1l.2 1.9s-1.1.1-2 .1c-1.5 0-2.4-.7-2.4-2.1V224H585v-2h1.5v-2.4l2.2-.6v2.9h2.2v1.9h-2.2v4.1zM599.5 230.4h-2.2v-.7c-.5.5-1.1.9-2.1.9-1.8 0-2.9-1.3-2.9-2.9V222h2.2v4.9c0 1.2.6 1.6 1.3 1.6.9 0 1.6-.6 1.6-1.9V222h2.2v8.4zM602.2 227.7c.6.6 1.6 1 2.4 1 .7 0 1.2-.2 1.2-.7 0-.4-.3-.6-1-.7-.5-.1-1.4-.3-2.1-.6-.8-.4-1.5-1-1.5-2.2 0-1.8 1.6-2.7 3.4-2.7 1.4 0 2.6.5 3.3 1.2l-1.4 1.4c-.4-.4-1.1-.8-1.9-.8-.6 0-1.2.2-1.2.7 0 .4.4.5 1 .7 1 .3 1.8.4 2.4.8.7.4 1.2 1.1 1.2 2 0 1.8-1.5 2.7-3.4 2.7-1.4 0-2.9-.5-3.8-1.3l1.4-1.5zM493.9 247.1c.7.9 1.9 1.5 3.2 1.5 1.4 0 2.5-.7 2.5-2 0-.8-.4-1.3-1.1-1.6-1.1-.5-2.9-.6-4.1-1.3-.7-.4-1.3-1.1-1.3-2.3 0-1.7 1.4-3.1 3.8-3.1 1.4 0 2.8.6 3.7 1.5l-1 .8c-.6-.6-1.5-1.2-2.7-1.2-1.4 0-2.4.7-2.4 1.9 0 1.8 2.6 1.6 4.6 2.5 1 .4 1.9 1.2 1.9 2.7 0 2.2-2 3.3-4.1 3.3-1.9 0-3.2-.8-4.1-1.7l1.1-1zM504 246c.1 1.5 1 2.6 2.5 2.6.9 0 1.5-.3 2.1-.8l.7.9c-.7.6-1.7 1-2.8 1-2.3 0-3.8-1.7-3.8-4.1 0-2.4 1.4-4.2 3.6-4.2 2.1 0 3.4 1.7 3.4 4.1v.4H504zm0-1h4.2c0-1.2-.7-2.4-2-2.4s-2.1 1.1-2.2 2.4zM511.6 238.4h1.3v9.4c0 .5.2.8.8.8h.8l.1 1.1s-.8.1-1.3.1c-.9 0-1.7-.4-1.7-1.6v-9.8zM516.9 246c.1 1.5 1 2.6 2.5 2.6.9 0 1.5-.3 2.1-.8l.7.9c-.7.6-1.7 1-2.8 1-2.3 0-3.8-1.7-3.8-4.1 0-2.4 1.4-4.2 3.6-4.2 2.1 0 3.4 1.7 3.4 4.1v.4h-5.7zm.1-1h4.2c0-1.2-.7-2.4-2-2.4s-2.2 1.1-2.2 2.4zM525.5 245.6c0 1.6.8 3 2.3 3 1 0 1.7-.6 2.1-1.3l1.1.6c-.5 1.1-1.7 1.9-3.2 1.9-2.2 0-3.7-1.7-3.7-4.1 0-2.4 1.5-4.2 3.7-4.2 1.4 0 2.6.7 3.2 1.9l-1.1.6c-.4-.8-1.1-1.3-2.1-1.3-1.5-.1-2.3 1.3-2.3 2.9zM535 247.6c0 .5.1 1 1 1 .2 0 .8 0 1-.1l.1 1.2s-.8.1-1.4.1c-1.3 0-2-.5-2-1.9v-5.1h-1.5v-1.2h1.5V239l1.3-.5v3.1h2.2v1.2H535v4.8zM545.4 249.8c-1.6 0-2.8-.9-2.8-2.4 0-1.2.8-2.1 2.1-2.3l2.8-.4v-.5c0-1.2-.8-1.6-1.8-1.6-.9 0-1.7.3-2.3.6l-.5-1c.9-.5 2-.7 2.9-.7 1.9 0 3 .9 3 2.5v3.7c0 .5.2.9.7 1.1l-.7.9c-.5-.1-.9-.5-1.1-1-.5.6-1.3 1.1-2.3 1.1zm0-3.8c-.9.1-1.5.4-1.5 1.2 0 .9.8 1.4 1.6 1.4 1 0 2-.6 2-1.6v-1.4l-2.1.4zM551.4 241.6h1.3v.9c.5-.7 1.4-1.1 2.3-1.1 1.8 0 2.7 1.3 2.7 2.7v5.4h-1.3v-5c0-1.4-.7-1.9-1.6-1.9-1 0-2 .7-2 2.2v4.7h-1.3v-7.9zM571.3 245.6c0 2.4-1.5 4.1-3.7 4.1s-3.7-1.7-3.7-4.1c0-2.4 1.5-4.2 3.7-4.2 2.2.1 3.7 1.8 3.7 4.2zm-1.4.1c0-1.7-.8-3.1-2.3-3.1s-2.3 1.4-2.3 3v.1c0 1.6.8 2.9 2.3 2.9s2.3-1.4 2.3-2.9zM574.7 241.6v.9c.5-.7 1.3-1.1 2.3-1.1 2.1 0 3.4 1.7 3.4 4.2 0 2.4-1.3 4.1-3.4 4.1-1 0-1.9-.4-2.3-1.1v3.3h-1.3v-10.4h1.3zm4.3 4c0-1.7-.8-2.9-2.3-2.9-1.4 0-2.1 1-2.1 2.3v1.3c0 1.3.7 2.3 2.1 2.3 1.5 0 2.3-1.3 2.3-3zM584.4 247.6c0 .5.1 1 1 1 .2 0 .8 0 1-.1l.1 1.2s-.8.1-1.4.1c-1.3 0-2-.5-2-1.9v-5.1h-1.5v-1.2h1.5V239l1.3-.5v3.1h2.2v1.2h-2.2v4.8zM589.1 238.4c.5 0 1 .4 1 1 0 .5-.4 1-1 1-.5 0-1-.4-1-1s.5-1 1-1zm.7 11.2h-1.3v-8h1.3v8zM599.2 245.6c0 2.4-1.5 4.1-3.7 4.1s-3.7-1.7-3.7-4.1c0-2.4 1.5-4.2 3.7-4.2s3.7 1.8 3.7 4.2zm-1.4.1c0-1.7-.8-3.1-2.3-3.1s-2.3 1.4-2.3 3v.1c0 1.6.8 2.9 2.3 2.9s2.3-1.4 2.3-2.9zM601.3 241.6h1.3v.9c.5-.7 1.4-1.1 2.3-1.1 1.8 0 2.7 1.3 2.7 2.7v5.4h-1.3v-5c0-1.4-.7-1.9-1.6-1.9-1 0-2 .7-2 2.2v4.7h-1.3v-7.9z"/>
  </g>
  <g>
    <path class="st5" d="M703.6 224.8c0-3.2 2-5.8 5.2-5.8 2.3 0 4 1.2 4.6 3.2l-2.2.7c-.2-.8-1.1-1.9-2.5-1.9-2 0-2.9 1.8-2.9 3.6v.1c0 1.8.9 3.7 2.9 3.7 1.4 0 2.2-1 2.5-1.9l2.2.7c-.7 1.9-2.3 3.2-4.7 3.2-3.1.2-5.1-2.4-5.1-5.6zM717.4 230.6c-1.5 0-2.9-1-2.9-2.6 0-1.3.9-2.2 2.4-2.4l2.5-.4v-.3c0-.7-.5-1.1-1.3-1.1-1 0-1.8.4-2.5.7l-.8-1.7c1-.5 2.2-.9 3.4-.9 1.5 0 3.4.4 3.4 2.7v3.6c0 .5.3.7.7.9l-1 1.6c-.8-.1-1.3-.5-1.6-.9-.5.5-1.3.8-2.3.8zm.3-3.6c-.5.1-.9.4-.9.9s.4 1 1.1 1c1 0 1.5-.7 1.5-1.5v-.6l-1.7.2zM728.5 224.1h-.4c-1.2 0-2.3.4-2.3 2.2v4.1h-2.2V222h2.2v.9c.4-.6 1.1-1.1 2.2-1.1h.5v2.3zM729.3 226.2c0-2.5 1.5-4.3 3.7-4.3 1 0 1.6.4 2.1.9v-3.6h2.2v11.2h-2.2v-.7c-.5.5-1.1.9-2.1.9-2.2 0-3.7-1.9-3.7-4.4zm5.8-.8c0-.9-.7-1.6-1.7-1.6-1.2 0-1.9 1-1.9 2.3v.1c0 1.3.7 2.3 1.9 2.3 1.1 0 1.7-.7 1.7-1.6v-1.5zM745.9 227.9c0 .4.2.7.9.7.3 0 .8 0 1.1-.1l.2 1.9s-1.1.1-2 .1c-1.5 0-2.4-.7-2.4-2.1V224h-1.5v-2h1.5v-2.4l2.2-.6v2.9h2.2v1.9h-2.2v4.1zM751.4 230.7l.1-.3h-.2l-2.6-8.4h2.4l1.5 5.8 1.5-5.8h2.4l-2.9 9.6c-.4 1.2-1.3 1.6-2.6 1.6-.5 0-1.4-.1-2-.2l.4-1.9s.6.1 1.2.1c.5.1.7-.1.8-.5zM759.9 222v.7c.5-.5 1.1-.9 2.1-.9 2.2 0 3.7 1.8 3.7 4.3v.1c0 2.5-1.5 4.3-3.7 4.3-1 0-1.6-.4-2.1-.9v3.4h-2.2v-11h2.2zm-.1 5c0 .9.7 1.6 1.7 1.6 1.2 0 1.9-1 1.9-2.3v-.1c0-1.3-.7-2.3-1.9-2.3-1.1 0-1.7.7-1.7 1.6v1.5zM769.1 227c.2 1.1 1 1.6 2 1.6.8 0 1.6-.3 2.1-.8l1.1 1.6c-.7.6-1.9 1.1-3.2 1.1-2.3 0-4.2-1.6-4.2-4.3v-.1c0-2.5 1.7-4.3 4-4.3 2.2 0 3.8 1.7 3.8 4.1v1h-5.6zm0-1.7h3.4c0-.7-.5-1.6-1.6-1.6-1.2 0-1.7.9-1.8 1.6zM704.7 247.1c.7.9 1.9 1.5 3.2 1.5 1.4 0 2.5-.7 2.5-2 0-.8-.4-1.3-1.1-1.6-1.1-.5-2.9-.6-4.1-1.3-.7-.4-1.3-1.1-1.3-2.3 0-1.7 1.4-3.1 3.8-3.1 1.4 0 2.8.6 3.7 1.5l-1 .8c-.6-.6-1.5-1.2-2.7-1.2-1.4 0-2.4.7-2.4 1.9 0 1.8 2.6 1.6 4.6 2.5 1 .4 1.9 1.2 1.9 2.7 0 2.2-2 3.3-4.1 3.3-1.9 0-3.2-.8-4.1-1.7l1.1-1zM714.8 246c.1 1.5 1 2.6 2.5 2.6.9 0 1.5-.3 2.1-.8l.7.9c-.7.6-1.7 1-2.8 1-2.3 0-3.8-1.7-3.8-4.1 0-2.4 1.4-4.2 3.6-4.2 2.1 0 3.4 1.7 3.4 4.1v.4h-5.7zm0-1h4.2c0-1.2-.7-2.4-2-2.4s-2.1 1.1-2.2 2.4zM722.4 238.4h1.3v9.4c0 .5.2.8.8.8h.8l.1 1.1s-.8.1-1.3.1c-.9 0-1.7-.4-1.7-1.6v-9.8zM727.8 246c.1 1.5 1 2.6 2.5 2.6.9 0 1.5-.3 2.1-.8l.7.9c-.7.6-1.7 1-2.8 1-2.3 0-3.8-1.7-3.8-4.1 0-2.4 1.4-4.2 3.6-4.2 2.1 0 3.4 1.7 3.4 4.1v.4h-5.7zm0-1h4.2c0-1.2-.7-2.4-2-2.4s-2.2 1.1-2.2 2.4zM736.3 245.6c0 1.6.8 3 2.3 3 1 0 1.7-.6 2.1-1.3l1.1.6c-.5 1.1-1.7 1.9-3.2 1.9-2.2 0-3.7-1.7-3.7-4.1 0-2.4 1.5-4.2 3.7-4.2 1.4 0 2.6.7 3.2 1.9l-1.1.6c-.4-.8-1.1-1.3-2.1-1.3-1.5-.1-2.3 1.3-2.3 2.9zM745.8 247.6c0 .5.1 1 1 1 .2 0 .8 0 1-.1l.1 1.2s-.8.1-1.4.1c-1.3 0-2-.5-2-1.9v-5.1H743v-1.2h1.5V239l1.3-.5v3.1h2.2v1.2h-2.2v4.8zM756.2 249.8c-1.6 0-2.8-.9-2.8-2.4 0-1.2.8-2.1 2.1-2.3l2.8-.4v-.5c0-1.2-.8-1.6-1.8-1.6-.9 0-1.7.3-2.3.6l-.5-1c.9-.5 2-.7 2.9-.7 1.9 0 3 .9 3 2.5v3.7c0 .5.2.9.7 1.1l-.7.9c-.5-.1-.9-.5-1.1-1-.5.6-1.2 1.1-2.3 1.1zm0-3.8c-.9.1-1.5.4-1.5 1.2 0 .9.8 1.4 1.6 1.4 1 0 2-.6 2-1.6v-1.4l-2.1.4zM762.2 241.6h1.3v.9c.5-.7 1.4-1.1 2.3-1.1 1.8 0 2.7 1.3 2.7 2.7v5.4h-1.3v-5c0-1.4-.7-1.9-1.6-1.9-1 0-2 .7-2 2.2v4.7h-1.3v-7.9zM782.1 245.6c0 2.4-1.5 4.1-3.7 4.1s-3.7-1.7-3.7-4.1c0-2.4 1.5-4.2 3.7-4.2 2.2.1 3.7 1.8 3.7 4.2zm-1.4.1c0-1.7-.8-3.1-2.3-3.1-1.5 0-2.3 1.4-2.3 3v.1c0 1.6.8 2.9 2.3 2.9 1.5 0 2.3-1.4 2.3-2.9zM785.5 241.6v.9c.5-.7 1.3-1.1 2.3-1.1 2.1 0 3.4 1.7 3.4 4.2 0 2.4-1.3 4.1-3.4 4.1-1 0-1.9-.4-2.3-1.1v3.3h-1.3v-10.4h1.3zm4.4 4c0-1.7-.8-2.9-2.3-2.9-1.4 0-2.1 1-2.1 2.3v1.3c0 1.3.7 2.3 2.1 2.3 1.5 0 2.3-1.3 2.3-3zM795.3 247.6c0 .5.1 1 1 1 .2 0 .8 0 1-.1l.1 1.2s-.8.1-1.4.1c-1.3 0-2-.5-2-1.9v-5.1h-1.5v-1.2h1.5V239l1.3-.5v3.1h2.2v1.2h-2.2v4.8zM799.9 238.4c.5 0 1 .4 1 1 0 .5-.4 1-1 1-.5 0-1-.4-1-1 .1-.6.5-1 1-1zm.7 11.2h-1.3v-8h1.3v8zM810 245.6c0 2.4-1.5 4.1-3.7 4.1s-3.7-1.7-3.7-4.1c0-2.4 1.5-4.2 3.7-4.2s3.7 1.8 3.7 4.2zm-1.3.1c0-1.7-.8-3.1-2.3-3.1s-2.3 1.4-2.3 3v.1c0 1.6.8 2.9 2.3 2.9s2.3-1.4 2.3-2.9zM812.1 241.6h1.3v.9c.5-.7 1.4-1.1 2.3-1.1 1.8 0 2.7 1.3 2.7 2.7v5.4h-1.3v-5c0-1.4-.7-1.9-1.6-1.9-1 0-2 .7-2 2.2v4.7h-1.3v-7.9z"/>
  </g>
  <g>
    <path class="st4" d="M68.4 260h194.4v36.2H68.4z"/>
    <path class="st5" d="M261.8 261v34.2H69.4V261h192.4m2-2H67.4v38.2h196.4V259z"/>
  </g>
  <g>
    <path class="st4" d="M278.8 260h194.4v36.2H278.8z"/>
    <path class="st5" d="M472.2 261v34.2H279.8V261h192.4m2-2H277.8v38.2h196.4V259z"/>
  </g>
  <g>
    <path class="st5" d="M72.9 339.2h-4.3V328h4.3c3.6 0 5.3 2.2 5.3 5.6s-1.6 5.6-5.3 5.6zm3-5.9c0-1.9-.9-3.3-3.2-3.3H71v7.1h1.7c2.3 0 3.2-1.5 3.2-3.3v-.5zM82.3 339.3c-1.5 0-2.9-1-2.9-2.6 0-1.3.9-2.2 2.4-2.4l2.5-.4v-.3c0-.7-.5-1.1-1.3-1.1-1 0-1.8.4-2.5.7l-.8-1.7c1-.5 2.2-.9 3.4-.9 1.5 0 3.4.4 3.4 2.7v3.6c0 .5.3.7.7.9l-1 1.6c-.8-.1-1.3-.5-1.6-.9-.5.5-1.3.8-2.3.8zm.2-3.5c-.5.1-.9.4-.9.9s.4 1 1.1 1c1 0 1.5-.7 1.5-1.5v-.6l-1.7.2zM91.5 336.7c0 .4.2.7.9.7.3 0 .8 0 1.1-.1l.2 1.9s-1.1.1-2 .1c-1.5 0-2.4-.7-2.4-2.1v-4.5h-1.5v-1.9h1.5v-2.4l2.2-.6v2.9h2.2v1.9h-2.2v4.1zM97 335.7c.2 1.1 1 1.6 2 1.6.8 0 1.6-.3 2.1-.8l1.1 1.6c-.7.6-1.9 1.1-3.2 1.1-2.3 0-4.2-1.6-4.2-4.3v-.1c0-2.5 1.7-4.3 4-4.3 2.2 0 3.8 1.7 3.8 4.1v1H97zm0-1.6h3.4c0-.7-.5-1.6-1.6-1.6-1.2 0-1.7.8-1.8 1.6zM112.7 332.9h-.4c-1.2 0-2.3.4-2.3 2.2v4.1h-2.2v-8.4h2.2v.9c.4-.6 1.1-1.1 2.2-1.1h.5v2.3zM116.4 339.3c-1.5 0-2.9-1-2.9-2.6 0-1.3.9-2.2 2.4-2.4l2.5-.4v-.3c0-.7-.5-1.1-1.3-1.1-1 0-1.8.4-2.5.7l-.8-1.7c1-.5 2.2-.9 3.4-.9 1.5 0 3.4.4 3.4 2.7v3.6c0 .5.3.7.7.9l-1 1.6c-.8-.1-1.3-.5-1.6-.9-.5.5-1.3.8-2.3.8zm.2-3.5c-.5.1-.9.4-.9.9s.4 1 1.1 1c1 0 1.5-.7 1.5-1.5v-.6l-1.7.2zM122.5 330.8h2.2v.7c.5-.5 1.1-.9 2.1-.9 1.8 0 2.9 1.3 2.9 2.9v5.7h-2.2v-4.9c0-1.2-.6-1.6-1.3-1.6-.9 0-1.6.6-1.6 1.9v4.6h-2.2v-8.4zM134.8 330.6c.8 0 1.6.3 1.9.8v-.6h2.2v8.3c0 2.1-1.7 2.9-3.7 2.9-1.2 0-2.7-.2-3.6-.8l.6-1.9c.6.3 1.7.6 2.7.6.9 0 1.8-.3 1.8-1.3v-1c-.4.5-1.1.8-2 .8-1.9 0-3.4-1.6-3.4-3.8 0-2.2 1.3-4 3.5-4zm-1.3 3.9c0 1.1.5 2 1.6 2 1.2 0 1.6-.8 1.6-2 0-1.1-.4-2-1.6-2-1.1 0-1.6.9-1.6 2zM142.8 335.7c.2 1.1 1 1.6 2 1.6.8 0 1.6-.3 2.1-.8l1.1 1.6c-.7.6-1.9 1.1-3.2 1.1-2.3 0-4.2-1.6-4.2-4.3v-.1c0-2.5 1.7-4.3 4-4.3 2.2 0 3.8 1.7 3.8 4.1v1h-5.6zm0-1.6h3.4c0-.7-.5-1.6-1.6-1.6-1.2 0-1.8.8-1.8 1.6zM72.8 358.4h-3.7v-11.2h3.7c3.5 0 5 2.2 5 5.6s-1.5 5.6-5 5.6zm3.5-5.9c0-2.3-1.1-4.2-3.6-4.2h-2.3v8.8h2.3c2.5 0 3.6-1.9 3.6-4.2v-.4zM82.2 358.5c-1.6 0-2.8-.9-2.8-2.4 0-1.2.8-2.1 2.1-2.3l2.8-.4v-.5c0-1.2-.8-1.6-1.8-1.6-.9 0-1.7.3-2.3.6l-.5-1c.9-.5 2-.7 2.9-.7 1.9 0 3 .9 3 2.5v3.7c0 .5.2.9.7 1.1l-.7.9c-.5-.1-.9-.5-1.1-1-.5.7-1.2 1.1-2.3 1.1zm0-3.7c-.9.1-1.5.4-1.5 1.2 0 .9.8 1.4 1.6 1.4 1 0 2-.6 2-1.6v-1.4l-2.1.4zM90.3 356.4c0 .5.1 1 1 1 .2 0 .8 0 1-.1l.1 1.2s-.8.1-1.4.1c-1.3 0-2-.5-2-1.9v-5.1h-1.5v-1.2H89v-2.6l1.3-.5v3.1h2.2v1.2h-2.2v4.8zM95.2 354.8c.1 1.5 1 2.6 2.5 2.6.9 0 1.5-.3 2.1-.8l.7.9c-.7.6-1.7 1-2.8 1-2.3 0-3.8-1.7-3.8-4.1 0-2.4 1.4-4.2 3.6-4.2 2.1 0 3.4 1.7 3.4 4.1v.4h-5.7zm0-1.1h4.2c0-1.2-.7-2.4-2-2.4-1.3.1-2.2 1.2-2.2 2.4z"/>
  </g>
  <g>
    <path class="st5" d="M194.7 347.2h7.7v1.2h-3.2v10h-1.4v-10h-3.2v-1.2zM204.7 347.2c.5 0 1 .4 1 1 0 .5-.4 1-1 1-.5 0-1-.4-1-1 .1-.6.5-1 1-1zm.7 11.2h-1.3v-8h1.3v8zM213.9 358.4h-1.3v-5c0-1.4-.7-1.9-1.6-1.9-.9 0-1.8.7-1.8 2.2v4.7h-1.3v-8h1.3v.9c.5-.7 1.2-1.1 2.1-1.1.7 0 1.7.4 2.2 1.3.6-1 1.5-1.3 2.4-1.3 1.7 0 2.7 1.3 2.7 2.7v5.5h-1.3v-5c0-1.4-.8-1.9-1.6-1.9-.9 0-1.8.7-1.8 2.2v4.7zM222 354.8c.1 1.5 1 2.6 2.5 2.6.9 0 1.5-.3 2.1-.8l.7.9c-.7.6-1.7 1-2.8 1-2.3 0-3.8-1.7-3.8-4.1 0-2.4 1.4-4.2 3.6-4.2 2.1 0 3.4 1.7 3.4 4.1v.4H222zm0-1.1h4.2c0-1.2-.7-2.4-2-2.4-1.3.1-2.1 1.2-2.2 2.4z"/>
  </g>
  <g>
    <path class="st5" d="M488.2 347.2h7.7v1.2h-3.2v10h-1.4v-10h-3.2v-1.2zM498.3 347.2c.5 0 1 .4 1 1 0 .5-.4 1-1 1-.5 0-1-.4-1-1s.4-1 1-1zm.6 11.2h-1.3v-8h1.3v8zM507.5 358.4h-1.3v-5c0-1.4-.7-1.9-1.6-1.9-.9 0-1.8.7-1.8 2.2v4.7h-1.3v-8h1.3v.9c.5-.7 1.2-1.1 2.1-1.1.7 0 1.7.4 2.2 1.3.6-1 1.5-1.3 2.4-1.3 1.7 0 2.7 1.3 2.7 2.7v5.5h-1.3v-5c0-1.4-.8-1.9-1.6-1.9-.9 0-1.8.7-1.8 2.2v4.7zM515.6 354.8c.1 1.5 1 2.6 2.5 2.6.9 0 1.5-.3 2.1-.8l.7.9c-.7.6-1.7 1-2.8 1-2.3 0-3.8-1.7-3.8-4.1 0-2.4 1.4-4.2 3.6-4.2 2.1 0 3.4 1.7 3.4 4.1v.4h-5.7zm0-1.1h4.2c0-1.2-.7-2.4-2-2.4-1.3.1-2.2 1.2-2.2 2.4z"/>
  </g>
  <g>
    <path class="st4" d="M68.9 368.7h117v36.2h-117z"/>
    <path class="st5" d="M184.9 369.7v34.2h-115v-34.2h115m2-2h-119v38.2h119v-38.2z"/>
  </g>
  <g>
    <path class="st4" d="M195.3 368.7h117v36.2h-117z"/>
    <path class="st5" d="M311.3 369.7v34.2h-115v-34.2h115m2-2h-119v38.2h119v-38.2z"/>
  </g>
  <g>
    <path class="st4" d="M495 296.2c-2.7 0-5-2.2-5-5V265c0-2.8 2.2-5 5-5h184.4c2.7 0 5 2.2 5 5v26.2c0 2.8-2.2 5-5 5H495z"/>
    <path class="st5" d="M679.4 261c2.2 0 4 1.8 4 4v26.2c0 2.2-1.8 4-4 4H495c-2.2 0-4-1.8-4-4V265c0-2.2 1.8-4 4-4h184.4m0-2H495c-3.3 0-6 2.7-6 6v26.2c0 3.3 2.7 6 6 6h184.4c3.3 0 6-2.7 6-6V265c0-3.3-2.7-6-6-6z"/>
  </g>
  <g>
    <path class="st4" d="M704.3 296.2c-2.7 0-5-2.2-5-5V265c0-2.8 2.2-5 5-5h184.4c2.7 0 5 2.2 5 5v26.2c0 2.8-2.2 5-5 5H704.3z"/>
    <path class="st5" d="M888.7 261c2.2 0 4 1.8 4 4v26.2c0 2.2-1.8 4-4 4H704.3c-2.2 0-4-1.8-4-4V265c0-2.2 1.8-4 4-4h184.4m0-2H704.3c-3.3 0-6 2.7-6 6v26.2c0 3.3 2.7 6 6 6h184.4c3.3 0 6-2.7 6-6V265c0-3.3-2.7-6-6-6z"/>
  </g>
  <g>
    <path class="st5" d="M196.5 419.4c.1 1.5 1 2.6 2.5 2.6.9 0 1.5-.3 2.1-.8l.7.9c-.7.6-1.7 1-2.8 1-2.3 0-3.8-1.7-3.8-4.1 0-2.4 1.4-4.2 3.6-4.2 2.1 0 3.4 1.7 3.4 4.1v.4h-5.7zm0-1.1h4.2c0-1.2-.7-2.4-2-2.4s-2.2 1.2-2.2 2.4zM206.9 414.8c.9 0 1.7.3 2.3 1.1v-.9h1.3v8.1c0 2-1.7 2.6-3.4 2.6-.9 0-2.1-.2-3-.6l.4-1.1c.6.3 1.6.6 2.5.6 1.3 0 2.1-.5 2.1-1.7v-1.5c-.5.8-1.4 1.1-2.3 1.1-2 0-3.2-1.6-3.2-3.7s1.3-4 3.3-4zm2.3 3.7c0-1.4-.6-2.5-2-2.5-1.5 0-2.1 1.1-2.1 2.5v.1c0 1.4.7 2.5 2.1 2.5 1.4 0 2-1.1 2-2.6zM224.9 417c0 3-1.2 6.1-4.4 6.1-1.6 0-2.7-.7-3.3-1.8l1.4-.4c.5.7 1.1 1.1 2 1.1 2.1 0 3-2.2 3-4.5-.5.8-1.4 1.6-3 1.6-2.1 0-3.6-1.6-3.6-3.6 0-2.2 1.6-3.8 3.9-3.8 2.4 0 4.2 1.8 4.2 5.2v.1zm-4.1-4.2c-1.4 0-2.5 1-2.5 2.6s1 2.6 2.5 2.6 2.5-1 2.5-2.5c0-1.7-1.1-2.7-2.5-2.7zM228.1 415c.6 0 1.1.5 1.1 1.1 0 .6-.5 1.1-1.1 1.1-.6 0-1.1-.5-1.1-1.1 0-.7.5-1.1 1.1-1.1zm0 6c.6 0 1.1.5 1.1 1.1 0 .6-.5 1.1-1.1 1.1-.6 0-1.1-.5-1.1-1.1 0-.7.5-1.1 1.1-1.1zM232.6 420.1c.4 1.1 1.1 1.8 2.6 1.8 1.6 0 2.4-.9 2.4-2.1 0-1.2-.9-2-2.6-2h-.5v-1.2h.3c1.5 0 2.7-.5 2.7-1.9 0-1.3-1-1.9-2.2-1.9-1.2 0-2.1.7-2.5 1.7l-1.3-.5c.6-1.6 2.1-2.4 3.7-2.4 2 0 3.6 1.2 3.6 3 0 1.2-.7 2.3-2.1 2.6 1.6.3 2.3 1.4 2.3 2.7 0 2.2-1.8 3.2-3.9 3.2-1.8 0-3.3-.8-3.9-2.6l1.4-.4zM249.2 417.4c0 2.9-1.1 5.7-4.1 5.7-3 0-4.1-2.8-4.1-5.7 0-2.9 1.1-5.8 4.1-5.8 3 0 4.1 2.8 4.1 5.8zm-1.5.3v-.7c0-2.7-1-4.2-2.6-4.2s-2.6 1.5-2.6 4.2v.7c0 2.7 1 4.2 2.6 4.2s2.6-1.5 2.6-4.2zM252.4 415c.6 0 1.1.5 1.1 1.1 0 .6-.5 1.1-1.1 1.1-.6 0-1.1-.5-1.1-1.1 0-.7.5-1.1 1.1-1.1zm0 6c.6 0 1.1.5 1.1 1.1 0 .6-.5 1.1-1.1 1.1-.6 0-1.1-.5-1.1-1.1 0-.7.5-1.1 1.1-1.1zM263.8 417.4c0 2.9-1.1 5.7-4.1 5.7-3 0-4.1-2.8-4.1-5.7 0-2.9 1.1-5.8 4.1-5.8 3 0 4.1 2.8 4.1 5.8zm-1.5.3v-.7c0-2.7-1-4.2-2.6-4.2s-2.6 1.5-2.6 4.2v.7c0 2.7 1 4.2 2.6 4.2s2.6-1.5 2.6-4.2zM274 417.4c0 2.9-1.1 5.7-4.1 5.7-3 0-4.1-2.8-4.1-5.7 0-2.9 1.1-5.8 4.1-5.8 3 0 4.1 2.8 4.1 5.8zm-1.5.3v-.7c0-2.7-1-4.2-2.6-4.2s-2.6 1.5-2.6 4.2v.7c0 2.7 1 4.2 2.6 4.2s2.6-1.5 2.6-4.2z"/>
  </g>
  <g>
    <path class="st5" d="M333.7 389.7c0 .5.1 1 1 1 .2 0 .8 0 1-.1l.1 1.2s-.8.1-1.4.1c-1.3 0-2-.5-2-1.9v-5.1h-1.5v-1.2h1.5v-2.6l1.3-.5v3.1h2.2v1.2h-2.2v4.8zM344.6 387.7c0 2.4-1.5 4.1-3.7 4.1s-3.7-1.7-3.7-4.1c0-2.4 1.5-4.2 3.7-4.2s3.7 1.8 3.7 4.2zm-1.4 0c0-1.7-.8-3.1-2.3-3.1-1.5 0-2.3 1.4-2.3 3v.1c0 1.6.8 2.9 2.3 2.9 1.5.1 2.3-1.3 2.3-2.9z"/>
  </g>
  <g>
    <path class="st5" d="M70.1 419.4c.1 1.5 1 2.6 2.5 2.6.9 0 1.5-.3 2.1-.8l.7.9c-.7.6-1.7 1-2.8 1-2.3 0-3.8-1.7-3.8-4.1 0-2.4 1.4-4.2 3.6-4.2 2.1 0 3.4 1.7 3.4 4.1v.4h-5.7zm0-1.1h4.2c0-1.2-.7-2.4-2-2.4s-2.2 1.2-2.2 2.4zM80.5 414.8c.9 0 1.7.3 2.3 1.1v-.9h1.3v8.1c0 2-1.7 2.6-3.4 2.6-.9 0-2.1-.2-3-.6l.4-1.1c.6.3 1.6.6 2.5.6 1.3 0 2.1-.5 2.1-1.7v-1.5c-.5.8-1.4 1.1-2.3 1.1-2 0-3.2-1.6-3.2-3.7s1.3-4 3.3-4zm2.3 3.7c0-1.4-.6-2.5-2-2.5-1.5 0-2.1 1.1-2.1 2.5v.1c0 1.4.7 2.5 2.1 2.5 1.4 0 2-1.1 2-2.6zM90.6 422.9v-1.3c.8-.7 3.2-2.7 4-3.5.9-.8 1.7-1.8 1.7-3.1 0-1.4-.9-2.2-2.2-2.2-1.4 0-2.1 1-2.2 2.4l-1.4-.1c.1-2.2 1.5-3.5 3.6-3.5 2.2 0 3.7 1.3 3.7 3.5 0 1.6-.8 2.7-3.3 4.8l-2 1.7H98v1.2h-7.4zM100.3 417.2l.6-5.5h6.4v1.2H102l-.3 3.2c.6-.6 1.5-.9 2.4-.9 2.1 0 3.7 1.6 3.7 3.8 0 2.4-1.6 4.1-4 4.1-1.8 0-3.4-.9-3.8-2.7l1.4-.2c.3.9 1 1.7 2.4 1.7 1.6 0 2.6-1.2 2.6-2.8 0-1.6-1-2.7-2.6-2.7-.8 0-1.7.4-2.1 1l-1.4-.2zM113.2 411.7h1.3l-3.9 11.2h-1.4l4-11.2zM118 411.8v-.1h1.3v11.2H118v-8.2h-2.1v-1.2h.2c1.5 0 1.9-.5 1.9-1.7zM123.8 411.8v-.1h1.3v11.2h-1.4v-8.2h-2.1v-1.2h.2c1.6 0 2-.5 2-1.7zM131.3 411.7h1.3l-3.9 11.2h-1.4l4-11.2zM134.4 422.9v-1.3c.8-.7 3.2-2.7 4-3.5.9-.8 1.7-1.8 1.7-3.1 0-1.4-.9-2.2-2.2-2.2-1.4 0-2.1 1-2.2 2.4l-1.4-.1c.1-2.2 1.5-3.5 3.6-3.5 2.2 0 3.7 1.3 3.7 3.5 0 1.6-.8 2.7-3.3 4.8l-2 1.7h5.5v1.2h-7.4zM151.9 417.4c0 2.9-1.1 5.7-4.1 5.7-3 0-4.1-2.8-4.1-5.7 0-2.9 1.1-5.8 4.1-5.8 3.1 0 4.1 2.8 4.1 5.8zm-1.4.3v-.7c0-2.7-1-4.2-2.6-4.2s-2.6 1.5-2.6 4.2v.7c0 2.7 1 4.2 2.6 4.2 1.5 0 2.6-1.5 2.6-4.2zM155.8 411.8v-.1h1.3v11.2h-1.4v-8.2h-2.1v-1.2h.2c1.6 0 2-.5 2-1.7zM160 417.2l.6-5.5h6.4v1.2h-5.3l-.3 3.2c.6-.6 1.5-.9 2.4-.9 2.1 0 3.7 1.6 3.7 3.8 0 2.4-1.6 4.1-4 4.1-1.8 0-3.4-.9-3.8-2.7l1.4-.2c.3.9 1 1.7 2.4 1.7 1.6 0 2.6-1.2 2.6-2.8 0-1.6-1-2.7-2.6-2.7-.8 0-1.7.4-2.1 1l-1.4-.2z"/>
  </g>
  <g>
    <path class="st5" d="M366.2 358.4h-3.7v-11.2h3.7c3.5 0 5 2.2 5 5.6s-1.5 5.6-5 5.6zm3.6-5.9c0-2.3-1.1-4.2-3.6-4.2h-2.3v8.8h2.3c2.5 0 3.6-1.9 3.6-4.2v-.4zM375.6 358.5c-1.6 0-2.8-.9-2.8-2.4 0-1.2.8-2.1 2.1-2.3l2.8-.4v-.5c0-1.2-.8-1.6-1.8-1.6-.9 0-1.7.3-2.3.6l-.5-1c.9-.5 2-.7 2.9-.7 1.9 0 3 .9 3 2.5v3.7c0 .5.2.9.7 1.1l-.7.9c-.5-.1-.9-.5-1.1-1-.4.7-1.2 1.1-2.3 1.1zm0-3.7c-.9.1-1.5.4-1.5 1.2 0 .9.8 1.4 1.6 1.4 1 0 2-.6 2-1.6v-1.4l-2.1.4zM383.7 356.4c0 .5.1 1 1 1 .2 0 .8 0 1-.1l.1 1.2s-.8.1-1.4.1c-1.3 0-2-.5-2-1.9v-5.1h-1.5v-1.2h1.5v-2.6l1.3-.5v3.1h2.2v1.2h-2.2v4.8zM388.6 354.8c.1 1.5 1 2.6 2.5 2.6.9 0 1.5-.3 2.1-.8l.7.9c-.7.6-1.7 1-2.8 1-2.3 0-3.8-1.7-3.8-4.1 0-2.4 1.4-4.2 3.6-4.2 2.1 0 3.4 1.7 3.4 4.1v.4h-5.7zm0-1.1h4.2c0-1.2-.7-2.4-2-2.4-1.3.1-2.1 1.2-2.2 2.4z"/>
  </g>
  <g>
    <path class="st5" d="M513.5 281.4H509l-.7 2.5h-1.5l3.5-11.2h2l3.5 11.2h-1.5l-.8-2.5zm-4.1-1.2h3.8l-1.9-6.3h-.1l-1.8 6.3zM517.5 272.7h1.3v9.4c0 .5.2.8.8.8h.8l.1 1.1s-.8.1-1.3.1c-.9 0-1.7-.4-1.7-1.6v-9.8zM521.9 272.7h1.3v9.4c0 .5.2.8.8.8h.8l.1 1.1s-.8.1-1.3.1c-.9 0-1.7-.4-1.7-1.6v-9.8zM531.9 281.9c0 .5.1 1 1 1 .2 0 .8 0 1-.1l.1 1.2s-.8.1-1.4.1c-1.3 0-2-.5-2-1.9v-5.1H529v-1.2h1.5v-2.6l1.3-.5v3.1h2.2v1.2h-2.2v4.8zM539.9 277.1h-.2c-1.3 0-2.6.5-2.6 2.7v4.1h-1.3v-8h1.3v1.3c.4-.9 1.4-1.4 2.4-1.4h.4v1.3zM543.8 284.1c-1.6 0-2.8-.9-2.8-2.4 0-1.2.8-2.1 2.1-2.3l2.8-.4v-.5c0-1.2-.8-1.6-1.8-1.6-.9 0-1.7.3-2.3.6l-.5-1c.9-.5 2-.7 2.9-.7 1.9 0 3 .9 3 2.5v3.7c0 .5.2.9.7 1.1l-.7.9c-.5-.1-.9-.5-1.1-1-.4.7-1.2 1.1-2.3 1.1zm0-3.7c-.9.1-1.5.4-1.5 1.2 0 .9.8 1.4 1.6 1.4 1 0 2-.6 2-1.6V280l-2.1.4zM549.8 275.9h1.3v.9c.5-.7 1.4-1.1 2.3-1.1 1.8 0 2.7 1.3 2.7 2.7v5.4h-1.3v-5c0-1.4-.7-1.9-1.6-1.9-1 0-2 .7-2 2.2v4.7h-1.3v-7.9zM558 282.9l.8-.9c.5.4 1.3 1 2.4 1 .9 0 1.6-.4 1.6-1.2 0-.9-.9-1.1-2-1.3-1.1-.3-2.5-.7-2.5-2.3 0-1.3 1.2-2.3 2.9-2.3 1.1 0 2.2.4 2.8 1l-.8.9c-.5-.4-1.2-.8-2-.8-1.1 0-1.6.5-1.6 1.2 0 .6.4.9 1.2 1.1.4.1.9.3 1.3.4 1.1.3 2 .9 2 2.2 0 1.6-1.5 2.4-3 2.4-1.1-.2-2.3-.6-3.1-1.4zM568.4 284.1c-1.6 0-2.8-.9-2.8-2.4 0-1.2.8-2.1 2.1-2.3l2.8-.4v-.5c0-1.2-.8-1.6-1.8-1.6-.9 0-1.7.3-2.3.6l-.5-1c.9-.5 2-.7 2.9-.7 1.9 0 3 .9 3 2.5v3.7c0 .5.2.9.7 1.1l-.7.9c-.5-.1-.9-.5-1.1-1-.5.7-1.3 1.1-2.3 1.1zm0-3.7c-.9.1-1.5.4-1.5 1.2 0 .9.8 1.4 1.6 1.4 1 0 2-.6 2-1.6V280l-2.1.4zM575.3 280c0 1.6.8 3 2.3 3 1 0 1.7-.6 2.1-1.3l1.1.6c-.5 1.1-1.7 1.9-3.2 1.9-2.2 0-3.7-1.7-3.7-4.1 0-2.4 1.5-4.2 3.7-4.2 1.4 0 2.6.7 3.2 1.9l-1.1.6c-.4-.8-1.1-1.3-2.1-1.3-1.6-.2-2.3 1.2-2.3 2.9zM584.8 281.9c0 .5.1 1 1 1 .2 0 .8 0 1-.1l.1 1.2s-.8.1-1.4.1c-1.3 0-2-.5-2-1.9v-5.1H582v-1.2h1.5v-2.6l1.3-.5v3.1h2.2v1.2h-2.2v4.8zM589.5 272.7c.5 0 1 .4 1 1 0 .5-.4 1-1 1-.5 0-1-.4-1-1 0-.5.4-1 1-1zm.6 11.2h-1.3v-8h1.3v8zM599.5 279.9c0 2.4-1.5 4.1-3.7 4.1s-3.7-1.7-3.7-4.1c0-2.4 1.5-4.2 3.7-4.2s3.7 1.8 3.7 4.2zm-1.3.1c0-1.7-.8-3.1-2.3-3.1s-2.3 1.4-2.3 3v.1c0 1.6.8 2.9 2.3 2.9s2.3-1.3 2.3-2.9zM601.6 275.9h1.3v.9c.5-.7 1.4-1.1 2.3-1.1 1.8 0 2.7 1.3 2.7 2.7v5.4h-1.3v-5c0-1.4-.7-1.9-1.6-1.9-1 0-2 .7-2 2.2v4.7h-1.3v-7.9zM609.7 282.9l.8-.9c.5.4 1.3 1 2.4 1 .9 0 1.6-.4 1.6-1.2 0-.9-.9-1.1-2-1.3-1.1-.3-2.5-.7-2.5-2.3 0-1.3 1.2-2.3 2.9-2.3 1.1 0 2.2.4 2.8 1l-.8.9c-.5-.4-1.2-.8-2-.8-1.1 0-1.6.5-1.6 1.2 0 .6.4.9 1.2 1.1.4.1.9.3 1.3.4 1.1.3 2 .9 2 2.2 0 1.6-1.5 2.4-3 2.4-1-.2-2.2-.6-3.1-1.4z"/>
  </g>
  <g>
    <path class="st5" d="M721.5 281.4H717l-.7 2.5h-1.5l3.5-11.2h2l3.5 11.2h-1.5l-.8-2.5zm-4.1-1.2h3.8l-1.9-6.3h-.1l-1.8 6.3zM725.5 272.7h1.3v9.4c0 .5.2.8.8.8h.8l.1 1.1s-.8.1-1.3.1c-.9 0-1.7-.4-1.7-1.6v-9.8zM729.9 272.7h1.3v9.4c0 .5.2.8.8.8h.8l.1 1.1s-.8.1-1.3.1c-.9 0-1.7-.4-1.7-1.6v-9.8zM739.9 281.9c0 .5.1 1 1 1 .2 0 .8 0 1-.1l.1 1.2s-.8.1-1.4.1c-1.3 0-2-.5-2-1.9v-5.1H737v-1.2h1.5v-2.6l1.3-.5v3.1h2.2v1.2h-2.2v4.8zM743 275.9h1.5l2 6.6 1.9-6.6h1.5l-2.9 9.2c-.4 1.1-1.1 1.4-2.1 1.4-.4 0-.9 0-1.4-.1l.2-1.2s.5.1 1.1.1c.6 0 .9-.2 1-.8l.1-.4-2.9-8.2zM752.8 275.9v.9c.5-.7 1.3-1.1 2.3-1.1 2.1 0 3.4 1.7 3.4 4.2s-1.3 4.1-3.4 4.1c-1 0-1.9-.4-2.3-1.1v3.3h-1.3v-10.4h1.3zm4.4 4c0-1.7-.8-2.9-2.3-2.9-1.4 0-2.1 1-2.1 2.3v1.3c0 1.3.7 2.3 2.1 2.3 1.5 0 2.3-1.3 2.3-3zM761.5 280.3c.1 1.5 1 2.6 2.5 2.6.9 0 1.5-.3 2.1-.8l.7.9c-.7.6-1.7 1-2.8 1-2.3 0-3.8-1.7-3.8-4.1 0-2.4 1.4-4.2 3.6-4.2 2.1 0 3.4 1.7 3.4 4.1v.4h-5.7zm0-1h4.2c0-1.2-.7-2.4-2-2.4s-2.1 1.2-2.2 2.4zM768.5 282.9l.8-.9c.5.4 1.3 1 2.4 1 .9 0 1.6-.4 1.6-1.2 0-.9-.9-1.1-2-1.3-1.1-.3-2.5-.7-2.5-2.3 0-1.3 1.2-2.3 2.9-2.3 1.1 0 2.2.4 2.8 1l-.8.9c-.5-.4-1.2-.8-2-.8-1.1 0-1.6.5-1.6 1.2 0 .6.4.9 1.2 1.1.4.1.9.3 1.3.4 1.1.3 2 .9 2 2.2 0 1.6-1.5 2.4-3 2.4-1.1-.2-2.2-.6-3.1-1.4z"/>
  </g>
  <g>
    <path class="st4" d="M362.3 368.7h117v36.2h-117z"/>
    <path class="st5" d="M478.3 369.7v34.2h-115v-34.2h115m2-2h-119v38.2h119v-38.2z"/>
  </g>
  <g>
    <path class="st4" d="M488.7 368.7h117v36.2h-117z"/>
    <path class="st5" d="M604.7 369.7v34.2h-115v-34.2h115m2-2h-119v38.2h119v-38.2z"/>
  </g>
  <g>
    <path class="st5" d="M489.9 419.4c.1 1.5 1 2.6 2.5 2.6.9 0 1.5-.3 2.1-.8l.7.9c-.7.6-1.7 1-2.8 1-2.3 0-3.8-1.7-3.8-4.1 0-2.4 1.4-4.2 3.6-4.2 2.1 0 3.4 1.7 3.4 4.1v.4h-5.7zm0-1.1h4.2c0-1.2-.7-2.4-2-2.4s-2.1 1.2-2.2 2.4zM500.3 414.8c.9 0 1.7.3 2.3 1.1v-.9h1.3v8.1c0 2-1.7 2.6-3.4 2.6-.9 0-2.1-.2-3-.6l.4-1.1c.6.3 1.6.6 2.5.6 1.3 0 2.1-.5 2.1-1.7v-1.5c-.5.8-1.4 1.1-2.3 1.1-2 0-3.2-1.6-3.2-3.7s1.3-4 3.3-4zm2.3 3.7c0-1.4-.6-2.5-2-2.5-1.5 0-2.1 1.1-2.1 2.5v.1c0 1.4.7 2.5 2.1 2.5 1.4 0 2-1.1 2-2.6zM512.2 411.8v-.1h1.3v11.2h-1.4v-8.2H510v-1.2h.2c1.6 0 2-.5 2-1.7zM516.4 417.2l.6-5.5h6.4v1.2h-5.3l-.3 3.2c.6-.6 1.5-.9 2.4-.9 2.1 0 3.7 1.6 3.7 3.8 0 2.4-1.6 4.1-4 4.1-1.8 0-3.4-.9-3.8-2.7l1.4-.2c.3.9 1 1.7 2.4 1.7 1.6 0 2.6-1.2 2.6-2.8 0-1.6-1-2.7-2.6-2.7-.8 0-1.7.4-2.1 1l-1.4-.2zM526.9 415c.6 0 1.1.5 1.1 1.1 0 .6-.5 1.1-1.1 1.1-.6 0-1.1-.5-1.1-1.1.1-.7.5-1.1 1.1-1.1zm0 6c.6 0 1.1.5 1.1 1.1 0 .6-.5 1.1-1.1 1.1-.6 0-1.1-.5-1.1-1.1.1-.7.5-1.1 1.1-1.1zM538.3 417.4c0 2.9-1.1 5.7-4.1 5.7-3 0-4.1-2.8-4.1-5.7 0-2.9 1.1-5.8 4.1-5.8 3 0 4.1 2.8 4.1 5.8zm-1.5.3v-.7c0-2.7-1-4.2-2.6-4.2s-2.6 1.5-2.6 4.2v.7c0 2.7 1 4.2 2.6 4.2s2.6-1.5 2.6-4.2zM548.5 417.4c0 2.9-1.1 5.7-4.1 5.7-3 0-4.1-2.8-4.1-5.7 0-2.9 1.1-5.8 4.1-5.8 3 0 4.1 2.8 4.1 5.8zm-1.5.3v-.7c0-2.7-1-4.2-2.6-4.2s-2.6 1.5-2.6 4.2v.7c0 2.7 1 4.2 2.6 4.2s2.6-1.5 2.6-4.2zM551.7 415c.6 0 1.1.5 1.1 1.1 0 .6-.5 1.1-1.1 1.1-.6 0-1.1-.5-1.1-1.1 0-.7.5-1.1 1.1-1.1zm0 6c.6 0 1.1.5 1.1 1.1 0 .6-.5 1.1-1.1 1.1-.6 0-1.1-.5-1.1-1.1 0-.7.5-1.1 1.1-1.1zM563 417.4c0 2.9-1.1 5.7-4.1 5.7-3 0-4.1-2.8-4.1-5.7 0-2.9 1.1-5.8 4.1-5.8 3.1 0 4.1 2.8 4.1 5.8zm-1.4.3v-.7c0-2.7-1-4.2-2.6-4.2s-2.6 1.5-2.6 4.2v.7c0 2.7 1 4.2 2.6 4.2s2.6-1.5 2.6-4.2zM573.3 417.4c0 2.9-1.1 5.7-4.1 5.7-3 0-4.1-2.8-4.1-5.7 0-2.9 1.1-5.8 4.1-5.8 3 0 4.1 2.8 4.1 5.8zm-1.5.3v-.7c0-2.7-1-4.2-2.6-4.2s-2.6 1.5-2.6 4.2v.7c0 2.7 1 4.2 2.6 4.2s2.6-1.5 2.6-4.2z"/>
  </g>
  <g>
    <path class="st5" d="M363.5 419.4c.1 1.5 1 2.6 2.5 2.6.9 0 1.5-.3 2.1-.8l.7.9c-.7.6-1.7 1-2.8 1-2.3 0-3.8-1.7-3.8-4.1 0-2.4 1.4-4.2 3.6-4.2 2.1 0 3.4 1.7 3.4 4.1v.4h-5.7zm0-1.1h4.2c0-1.2-.7-2.4-2-2.4s-2.1 1.2-2.2 2.4zM373.9 414.8c.9 0 1.7.3 2.3 1.1v-.9h1.3v8.1c0 2-1.7 2.6-3.4 2.6-.9 0-2.1-.2-3-.6l.4-1.1c.6.3 1.6.6 2.5.6 1.3 0 2.1-.5 2.1-1.7v-1.5c-.5.8-1.4 1.1-2.3 1.1-2 0-3.2-1.6-3.2-3.7s1.3-4 3.3-4zm2.3 3.7c0-1.4-.6-2.5-2-2.5-1.5 0-2.1 1.1-2.1 2.5v.1c0 1.4.7 2.5 2.1 2.5 1.4 0 2-1.1 2-2.6zM384.1 422.9v-1.3c.8-.7 3.2-2.7 4-3.5.9-.8 1.7-1.8 1.7-3.1 0-1.4-.9-2.2-2.2-2.2-1.4 0-2.1 1-2.2 2.4l-1.4-.1c.1-2.2 1.5-3.5 3.6-3.5 2.2 0 3.7 1.3 3.7 3.5 0 1.6-.8 2.7-3.3 4.8l-2 1.7h5.5v1.2h-7.4zM393.7 417.2l.6-5.5h6.4v1.2h-5.3l-.3 3.2c.6-.6 1.5-.9 2.4-.9 2.1 0 3.7 1.6 3.7 3.8 0 2.4-1.6 4.1-4 4.1-1.8 0-3.4-.9-3.8-2.7l1.4-.2c.3.9 1 1.7 2.4 1.7 1.6 0 2.6-1.2 2.6-2.8 0-1.6-1-2.7-2.6-2.7-.8 0-1.7.4-2.1 1l-1.4-.2zM406.6 411.7h1.3l-3.9 11.2h-1.4l4-11.2zM411.4 411.8v-.1h1.3v11.2h-1.4v-8.2h-2.1v-1.2h.2c1.6 0 2-.5 2-1.7zM417.2 411.8v-.1h1.3v11.2h-1.4v-8.2H415v-1.2h.2c1.6 0 2-.5 2-1.7zM424.7 411.7h1.3l-3.9 11.2h-1.4l4-11.2zM427.8 422.9v-1.3c.8-.7 3.2-2.7 4-3.5.9-.8 1.7-1.8 1.7-3.1 0-1.4-.9-2.2-2.2-2.2-1.4 0-2.1 1-2.2 2.4l-1.4-.1c.1-2.2 1.5-3.5 3.6-3.5 2.2 0 3.7 1.3 3.7 3.5 0 1.6-.8 2.7-3.3 4.8l-2 1.7h5.5v1.2h-7.4zM445.4 417.4c0 2.9-1.1 5.7-4.1 5.7-3 0-4.1-2.8-4.1-5.7 0-2.9 1.1-5.8 4.1-5.8 3 0 4.1 2.8 4.1 5.8zm-1.5.3v-.7c0-2.7-1-4.2-2.6-4.2s-2.6 1.5-2.6 4.2v.7c0 2.7 1 4.2 2.6 4.2s2.6-1.5 2.6-4.2zM449.2 411.8v-.1h1.3v11.2h-1.4v-8.2H447v-1.2h.2c1.6 0 2-.5 2-1.7zM453.4 417.2l.6-5.5h6.4v1.2h-5.3l-.3 3.2c.6-.6 1.5-.9 2.4-.9 2.1 0 3.7 1.6 3.7 3.8 0 2.4-1.6 4.1-4 4.1-1.8 0-3.4-.9-3.8-2.7l1.4-.2c.3.9 1 1.7 2.4 1.7 1.6 0 2.6-1.2 2.6-2.8 0-1.6-1-2.7-2.6-2.7-.8 0-1.7.4-2.1 1l-1.4-.2z"/>
  </g>
  <path class="st2" d="M706.6 371.8h108.6v34.5H706.6z"/>
  <path class="st9" d="M706.6 367.8h108.6v34.5H706.6z"/>
  <g>
    <path class="st4" d="M740.7 378.4h8v1.4h-6.3v4.4h5.8v1.4h-5.8v6.1h-1.6v-13.3zM751.9 378.4c.6 0 1.1.5 1.1 1.2 0 .6-.5 1.2-1.1 1.2-.6 0-1.2-.5-1.2-1.2s.5-1.2 1.2-1.2zm.7 13.3H751v-9.5h1.6v9.5zM755.6 378.4h1.6v11.2c0 .6.2 1 .9 1 .4 0 .7 0 1-.1l.2 1.3s-.9.1-1.6.1c-1.1 0-2-.5-2-1.9v-11.6zM763.3 389.3c0 .6.1 1.2 1.2 1.2.3 0 .9-.1 1.2-.1l.2 1.4s-.9.1-1.7.1c-1.5 0-2.4-.6-2.4-2.2v-6.1H760v-1.4h1.8v-3.1l1.6-.6v3.6h2.6v1.4h-2.6v5.8zM769.1 387.4c.1 1.8 1.2 3.1 2.9 3.1 1.1 0 1.8-.4 2.5-.9l.8 1.1c-.9.7-2 1.2-3.4 1.2-2.8 0-4.5-2.1-4.5-4.9 0-2.9 1.7-4.9 4.3-4.9 2.5 0 4 2.1 4 4.9v.5h-6.6zm.1-1.2h5c-.1-1.5-.9-2.8-2.4-2.8-1.6 0-2.6 1.3-2.6 2.8zM783.1 383.6h-.2c-1.6 0-3 .6-3 3.2v4.9h-1.6v-9.5h1.6v1.5c.5-1.1 1.6-1.7 2.8-1.7h.5v1.6z"/>
  </g>
  <path class="st5" d="M673.3 286.6l-5.1-7.5h10.1zM673.3 269.5l-5.1 7.6h10.1zM884.8 286.6l-5.1-7.5h10.1zM884.8 269.5l-5.1 7.6h10.1z"/>
  <path class="st3" d="M.3 636h960v4H.3z"/>
</svg>
