<svg id="Layer_1" xmlns="http://www.w3.org/2000/svg" viewBox="0 0 960 640">
  <style>
    .st0{fill:#28A197;} .st1{fill:#FFD419;} .st2{fill:#004A1E;} .st3{fill:#DADADA;} .st4{fill:#FFFFFF;} .st5{fill:#0B0B0B;} .st6{fill:#005EA5;} .st7{fill:#006435;} .st8{fill:none;stroke:#8C8C8C;stroke-miterlimit:10;} .st9{fill:#00823B;} .st10{fill:#8C8C8C;} .st11{fill:#DE0000;} .st12{fill:#6E6E6E;} .st13{fill:#F8F8F8;} .st14{fill:#DEE0E2;} .st15{clip-path:url(#SVGID_2_);} .st16{clip-path:url(#SVGID_2_);fill:#0B0B0B;} .st17{clip-path:url(#SVGID_2_);fill:#DE0000;} .st18{fill:#881516;} .st19{fill:#B10E1E;} .st20{opacity:0.5;} .st21{fill:#8C8C8C;stroke:#B4B4B4;stroke-width:8;stroke-miterlimit:10;} .st22{fill:#FFBF47;}
  </style>
  <path class="st3" d="M0 40V10C0 4.5 4.5 0 10 0h940c5.5 0 10 4.5 10 10v30"/>
  <circle class="st4" cx="25.4" cy="20" r="8.5"/>
  <circle class="st4" cx="49.1" cy="20" r="8.5"/>
  <circle class="st4" cx="72.9" cy="20" r="8.5"/>
  <path class="st5" d="M1 40h958v65H1z"/>
  <path class="st4" d="M267 59.7l-10.7 13v-13h-6.1v30h6.1v-9.1l3.9-4.3 7.9 13.4h7l-11-18.1 10.4-11.9zM229.6 84.3c-.8-.3-1.4-.6-2-1.2-.6-.5-1-1.2-1.3-2-.3-.8-.5-1.7-.5-2.8V59.7h-6v19.5c0 1.7.3 3.2.9 4.5.6 1.4 1.5 2.5 2.5 3.5 1.1.9 2.4 1.7 3.9 2.2 1.5.5 3.1.8 4.9.8 1.8 0 3.4-.3 4.9-.8 1.5-.5 2.8-1.2 3.9-2.2 1.1-.9 1.9-2.1 2.5-3.5.6-1.4.9-2.9.9-4.5V59.7h-6v18.6c0 1.1-.2 2-.5 2.8-.3.8-.8 1.5-1.3 2-.6.5-1.2.9-2 1.2-.8.3-1.6.4-2.5.4-.7 0-1.5-.2-2.3-.4M207.7 87.8c.2.5.5.9.8 1.2.3.3.8.6 1.2.8.5.2 1 .3 1.5.3s1-.1 1.5-.3c.5-.2.9-.5 1.2-.8.3-.3.6-.8.8-1.2.2-.5.3-1 .3-1.5s-.1-1-.3-1.5c-.2-.5-.5-.9-.8-1.2-.3-.3-.8-.6-1.2-.8-.5-.2-.9-.3-1.5-.3-.5 0-1 .1-1.5.3-.5.2-.9.5-1.2.8-.3.3-.6.7-.8 1.2-.2.5-.3.9-.3 1.5s.1 1 .3 1.5M198.1 89.7l8.5-30h-6.7l-5.7 22.6h-.2l-5.8-22.6h-6.8l8.5 30zM161.3 83.9c-1-.5-1.8-1.2-2.5-2.1-.7-.9-1.2-1.9-1.5-3.1-.3-1.2-.5-2.5-.5-3.9v-.2c0-1.4.2-2.7.5-3.9.3-1.2.9-2.2 1.5-3.1.7-.9 1.5-1.6 2.5-2.1s2.2-.7 3.5-.7c1.3 0 2.5.2 3.5.7 1 .5 1.8 1.2 2.5 2.1.7.9 1.2 1.9 1.5 3.1.3 1.2.5 2.5.5 3.9v.2c0 1.4-.2 2.7-.5 3.9-.3 1.2-.9 2.2-1.5 3.1-.7.9-1.5 1.6-2.5 2.1s-2.2.7-3.5.7c-1.3.1-2.5-.2-3.5-.7m-2.5-23.4c-1.8.8-3.3 1.9-4.5 3.3-1.2 1.4-2.2 3-2.8 4.9-.6 1.9-1 3.9-1 6 0 2.2.3 4.2 1 6 .6 1.9 1.6 3.5 2.8 4.9 1.2 1.4 2.7 2.5 4.5 3.3 1.8.8 3.8 1.2 6 1.2s4.2-.4 6-1.2c1.8-.8 3.3-1.9 4.5-3.3 1.2-1.4 2.2-3 2.8-4.9.6-1.9 1-3.9 1-6s-.3-4.2-1-6c-.6-1.9-1.6-3.5-2.8-4.9-1.2-1.4-2.7-2.5-4.5-3.3-1.8-.8-3.8-1.2-6-1.2-2.3 0-4.3.4-6 1.2M125.7 74.6c0-1.3.2-2.5.5-3.7.3-1.2.8-2.2 1.5-3.1.7-.9 1.5-1.6 2.5-2.2 1-.6 2.2-.8 3.6-.8.9 0 1.7.1 2.4.3.7.2 1.4.5 1.9.9.6.4 1.1.9 1.5 1.4.4.5.8 1.1 1.1 1.8l5.3-3c-.5-1-1.2-2-2-2.9-.8-.9-1.7-1.6-2.8-2.2-1.1-.6-2.2-1.1-3.5-1.4-1.3-.3-2.6-.5-4-.5-2.2 0-4.2.4-5.9 1.2-1.8.8-3.3 1.9-4.5 3.3-1.2 1.4-2.2 3-2.9 4.9-.7 1.9-1 3.9-1 6 0 2.2.3 4.2.9 6 .6 1.9 1.5 3.5 2.7 4.9 1.2 1.4 2.6 2.5 4.3 3.3 1.7.8 3.6 1.2 5.8 1.2.9 0 1.8-.1 2.6-.3.8-.2 1.6-.5 2.3-.8.7-.3 1.3-.8 1.9-1.2.6-.5 1-1 1.4-1.6v3.5h5.3V73.3H133v4.6h7.7v.3c0 .6-.1 1.3-.3 2.1-.2.8-.6 1.5-1.1 2.1-.5.6-1.3 1.2-2.2 1.6-.9.4-2 .6-3.4.6s-2.6-.3-3.6-.8c-1-.6-1.9-1.3-2.5-2.2-.7-.9-1.1-2-1.5-3.1-.3-1.2-.5-2.4-.5-3.7v-.2zM62.3 65.8c1.4.6 2.9-.1 3.4-1.4.6-1.3-.1-2.9-1.4-3.4-1.3-.5-2.9.1-3.4 1.4-.6 1.3.1 2.9 1.4 3.4M56.3 69.3c1.4.6 2.9-.1 3.4-1.4.6-1.3-.1-2.9-1.4-3.4-1.3-.5-2.9.1-3.4 1.4-.5 1.3.1 2.9 1.4 3.4M54.6 75.9c1.4.6 2.9-.1 3.4-1.4.6-1.3-.1-2.9-1.4-3.4-1.3-.5-2.9.1-3.4 1.4-.6 1.4.1 2.9 1.4 3.4M68.9 67.9c1.4.6 2.9-.1 3.4-1.4.6-1.3-.1-2.9-1.4-3.4-1.3-.5-2.9.1-3.4 1.4-.5 1.3.1 2.9 1.4 3.4M93 65.8c-1.4.6-2.9-.1-3.4-1.4-.6-1.3.1-2.9 1.4-3.4 1.3-.5 2.9.1 3.4 1.4.6 1.3 0 2.9-1.4 3.4M99 69.3c-1.4.6-2.9-.1-3.4-1.4-.6-1.3 0-2.9 1.4-3.4 1.3-.5 2.9.1 3.4 1.4.6 1.3-.1 2.9-1.4 3.4M100.8 75.9c-1.4.6-2.9-.1-3.4-1.4-.6-1.3.1-2.9 1.4-3.4 1.3-.5 2.9.1 3.4 1.4.5 1.4-.1 2.9-1.4 3.4M86.4 67.9c-1.4.6-2.9-.1-3.4-1.4-.6-1.3.1-2.9 1.4-3.4 1.3-.5 2.9.1 3.4 1.4.6 1.3-.1 2.9-1.4 3.4M79.1 61.1l3.3 1.7V58l-3.3 1-.3-.3 1.3-4.2h-4.8l1.3 4.2-.3.3-3.4-1v4.9l3.3-1.7.3.3-1.9 5.8c-.1.3-.1.6-.1.9 0 1.6 1.2 2.8 2.6 3.1h1c1.5-.2 2.7-1.5 2.7-3.1 0-.3 0-.6-.1-.9l-1.9-5.8c0-.1.2-.2.3-.4M77.7 89.3c6.3 0 12.3.4 17.6 1.2 1.5-6.4 3.4-10 5.3-12.6L97 76.7c.4 1.8.4 2.7 0 3.8-.6-.6-1.1-1.6-1.6-3.3L93.7 83c1.1-.7 1.9-1.2 2.8-1.2-1.7 3.6-3.7 4.5-5.1 4.2-1.6-.3-2.4-1.8-2.1-3 .4-1.7 2.2-2.2 3-.2 1.6-3.3-1.1-4.3-2.9-3.3 2.7-2.7 3-5.1.8-7.9-3 2.3-3.1 4.6-1.7 7.8-1.8-2-4.5-.9-3.5 2.3 1.3-2 3-.7 2.7 1.1-.2 1.6-2.4 2.9-5.1 2.7-3.8-.3-4.1-3-4.2-5.2.9-.2 2.6.7 4.1 2.7l.5-6.1c-1.6 1.6-3 2-4.6 2 .5-1.7 3-4.4 3-4.4h-7.5s2.4 2.7 3 4.4c-1.6-.1-3-.4-4.6-2l.5 6.1c1.5-2 3.2-2.9 4.1-2.7-.1 2.2-.3 4.8-4.2 5.2-2.7.2-4.8-1.1-5.1-2.7-.3-1.9 1.4-3.1 2.7-1.1 1-3.3-1.8-4.3-3.5-2.3 1.4-3.2 1.3-5.5-1.7-7.8-2.2 2.9-1.9 5.3.8 7.9-1.8-1-4.5.1-2.9 3.3.8-2 2.6-1.6 3 .2.3 1.2-.5 2.7-2.1 3-1.3.2-3.4-.7-5-4.2.9 0 1.7.5 2.8 1.2L60 77.2c-.4 1.6-1 2.7-1.6 3.3-.4-1.2-.3-2 0-3.8L54.8 78c1.9 2.6 3.7 6.2 5.3 12.6 5.3-.8 11.2-1.3 17.6-1.3"/>
  <path class="st5" d="M52.4 145.1h19.2v4.7h-7.1v20.5h-5.1v-20.5h-7.1v-4.7zM83.3 156.2h-.9c-2.8 0-5.2.9-5.2 5v9.1h-4.9v-18.8h4.9v2.1c.8-1.3 2.6-2.4 5-2.4h1.1v5zM91.6 170.6c-3.4 0-6.5-2.2-6.5-5.9 0-3 2-5 5.3-5.5l5.7-.8v-.6c0-1.7-1.1-2.4-3-2.4-2.3 0-4.1.9-5.5 1.5l-1.9-3.7c2.2-1.2 4.9-2.1 7.6-2.1 3.5 0 7.6.9 7.6 6v8.1c0 1.1.6 1.5 1.6 1.9l-2.2 3.5c-1.8-.1-3-1.1-3.5-2.1-1.1 1.5-2.9 2.1-5.2 2.1zm.6-7.9c-1.2.2-2 .9-2 1.9 0 1.2.9 2.2 2.6 2.2 2.3 0 3.3-1.5 3.3-3.5V162l-3.9.7zM105.5 151.5h4.9v1.6c1-1 2.5-2 4.8-2 4.1 0 6.5 2.8 6.5 6.5v12.7h-4.9v-10.9c0-2.7-1.3-3.7-3-3.7-2 0-3.5 1.4-3.5 4.3v10.3h-4.9v-18.8zM127.6 164.2c1.3 1.3 3.6 2.3 5.5 2.3 1.5 0 2.7-.4 2.7-1.5 0-.9-.7-1.3-2.3-1.7-1.1-.3-3.1-.6-4.7-1.3-1.8-.8-3.3-2.3-3.3-4.9 0-4 3.6-6 7.7-6 3.2 0 5.9 1.2 7.5 2.7l-3.1 3.2c-1-.9-2.6-1.7-4.3-1.7-1.3 0-2.7.5-2.7 1.6 0 .9.8 1.2 2.2 1.5 2.3.6 4 1 5.4 1.7 1.5.8 2.6 2.4 2.6 4.5 0 4-3.4 6-7.6 6-3.1 0-6.6-1.2-8.5-2.8l2.9-3.6zM149.8 170.6c-3.4 0-6.5-2.2-6.5-5.9 0-3 2-5 5.3-5.5l5.7-.8v-.6c0-1.7-1.1-2.4-3-2.4-2.3 0-4.1.9-5.5 1.5l-1.9-3.7c2.2-1.2 4.9-2.1 7.6-2.1 3.5 0 7.6.9 7.6 6v8.1c0 1.1.6 1.5 1.6 1.9l-2.2 3.5c-1.8-.1-3-1.1-3.5-2.1-1.1 1.5-3 2.1-5.2 2.1zm.6-7.9c-1.2.2-2 .9-2 1.9 0 1.2.9 2.2 2.6 2.2 2.3 0 3.3-1.5 3.3-3.5V162l-3.9.7zM162.7 160.8c0-5.5 3.8-9.7 9.1-9.7 3.9 0 6.9 1.9 8.2 4.9l-4.3 2.2c-.7-1.5-1.8-2.6-3.7-2.6-3 0-4.2 2.7-4.2 5.2v.2c0 2.4 1.3 5.1 4.2 5.1 1.9 0 3-1 3.7-2.6l4.3 2.2c-1.2 3-4.4 4.9-8.2 4.9-5.3 0-9-4.2-9-9.7v-.1zM190.3 164.7c0 .9.4 1.6 2.1 1.6.7 0 1.9-.1 2.4-.2l.4 4.3s-2.4.3-4.5.3c-3.3 0-5.3-1.5-5.3-4.8v-10H182v-4.4h3.4v-5.3l4.9-1.3v6.6h4.9v4.4h-4.9v8.8zM201.1 144.2c1.7 0 3.1 1.4 3.1 3.1s-1.4 3.1-3.1 3.1c-1.7 0-3.1-1.4-3.1-3.1s1.4-3.1 3.1-3.1zm2.4 26.1h-4.9v-18.8h4.9v18.8zM225.6 160.9c0 5.6-3.7 9.8-9.3 9.8-5.5 0-9.3-4.2-9.3-9.8 0-5.5 3.7-9.8 9.3-9.8 5.6 0 9.3 4.2 9.3 9.8zm-5 0c0-3.1-1.5-5.3-4.3-5.3s-4.2 2.2-4.3 5.3c0 3.1 1.5 5.3 4.3 5.3s4.3-2.3 4.3-5.3zM229.1 151.5h4.9v1.6c1-1 2.5-2 4.8-2 4.1 0 6.5 2.8 6.5 6.5v12.7h-4.9v-10.9c0-2.7-1.3-3.7-3-3.7-2 0-3.5 1.4-3.5 4.3v10.3H229v-18.8zM257.5 160.8c0-5.6 3.3-9.7 8.3-9.7 2.2 0 3.7.9 4.8 2v-8h4.9v25.2h-4.9v-1.6c-1 1.1-2.4 2-4.6 2-5 0-8.4-4.1-8.4-9.7v-.2zm13.1-1.7c0-2-1.5-3.5-3.9-3.5-2.8 0-4.3 2.2-4.3 5.2v.2c0 3 1.5 5.2 4.3 5.2 2.4 0 3.9-1.5 3.9-3.5v-3.6zM284 162.5c.5 2.4 2.3 3.7 4.6 3.7 1.8 0 3.5-.6 4.8-1.8l2.4 3.7c-1.7 1.4-4.2 2.5-7.3 2.5-5.2 0-9.5-3.6-9.5-9.6v-.2c0-5.5 3.8-9.7 9.1-9.7 5 0 8.6 3.8 8.6 9.3v2.2H284zm0-3.6h7.6c-.1-1.7-1.2-3.6-3.7-3.6-2.6 0-3.8 1.9-3.9 3.6zM306.9 164.7c0 .9.4 1.6 2.1 1.6.7 0 1.9-.1 2.4-.2l.4 4.3s-2.4.3-4.5.3c-3.3 0-5.3-1.5-5.3-4.8v-10h-3.4v-4.4h3.4v-5.3l4.9-1.3v6.6h4.9v4.4h-4.9v8.8zM320.7 170.6c-3.4 0-6.5-2.2-6.5-5.9 0-3 2-5 5.3-5.5l5.7-.8v-.6c0-1.7-1.1-2.4-3-2.4-2.3 0-4.1.9-5.5 1.5l-1.9-3.7c2.2-1.2 4.9-2.1 7.6-2.1 3.5 0 7.6.9 7.6 6v8.1c0 1.1.6 1.5 1.6 1.9l-2.2 3.5c-1.8-.1-3-1.1-3.5-2.1-1.1 1.5-3 2.1-5.2 2.1zm.6-7.9c-1.2.2-2 .9-2 1.9 0 1.2.9 2.2 2.6 2.2 2.3 0 3.3-1.5 3.3-3.5V162l-3.9.7zM337 144.2c1.7 0 3.1 1.4 3.1 3.1s-1.4 3.1-3.1 3.1c-1.7 0-3.1-1.4-3.1-3.1s1.4-3.1 3.1-3.1zm2.4 26.1h-4.9v-18.8h4.9v18.8zM343.9 145.1h4.9v20.1c0 .8.4 1.2 1.4 1.2.6 0 1.3-.1 1.8-.2l.4 4.1s-2.3.3-4.1.3c-2.7 0-4.4-1.4-4.4-4.1v-21.4zM356.2 164.2c1.3 1.3 3.6 2.3 5.5 2.3 1.5 0 2.7-.4 2.7-1.5 0-.9-.7-1.3-2.3-1.7-1.1-.3-3.1-.6-4.7-1.3-1.8-.8-3.3-2.3-3.3-4.9 0-4 3.6-6 7.7-6 3.2 0 5.9 1.2 7.5 2.7l-3.1 3.2c-1-.9-2.6-1.7-4.3-1.7-1.3 0-2.7.5-2.7 1.6 0 .9.8 1.2 2.2 1.5 2.3.6 4 1 5.4 1.7 1.5.8 2.6 2.4 2.6 4.5 0 4-3.4 6-7.6 6-3.1 0-6.6-1.2-8.5-2.8l2.9-3.6z"/>
  <g>
    <path class="st4" d="M309.9 65.8c2.4 0 4.2.6 5.4 1.8 1.2 1.2 1.9 3 1.9 5.2s-.6 4-1.9 5.2c-1.2 1.2-3 1.9-5.4 1.8h-7.3v9.7h-3.2V65.8h10.5zm-1.1 11.4c1.8 0 3.1-.3 3.9-1.1.8-.8 1.3-1.8 1.3-3.3 0-1.4-.4-2.5-1.3-3.3-.8-.7-2.1-1.1-3.9-1.1h-6.2v8.7h6.2zM335.8 89.6c-.5.3-1.2.4-2 .4-.7 0-1.3-.2-1.7-.6-.4-.4-.7-1.1-.7-2-.8.9-1.7 1.6-2.7 2-1 .4-2.1.6-3.3.6-.8 0-1.5-.1-2.2-.3-.7-.2-1.3-.5-1.8-.8-.5-.4-.9-.9-1.2-1.5-.3-.6-.4-1.4-.4-2.2 0-1 .2-1.8.5-2.4.3-.6.8-1.1 1.3-1.5.5-.4 1.2-.7 1.9-.9.7-.2 1.4-.4 2.1-.5.8-.2 1.5-.3 2.2-.4.7-.1 1.3-.2 1.8-.3.5-.1 1-.4 1.3-.6.3-.3.5-.7.5-1.2 0-.6-.1-1.1-.4-1.5-.2-.4-.5-.7-.9-.9-.4-.2-.8-.3-1.2-.4-.5-.1-.9-.1-1.3-.1-1.2 0-2.2.2-3 .7-.8.5-1.2 1.3-1.3 2.6h-2.8c0-1.1.3-2 .7-2.7.4-.7.9-1.3 1.6-1.8.7-.5 1.4-.8 2.3-1 .9-.2 1.8-.3 2.8-.3.8 0 1.5.1 2.3.2.8.1 1.5.3 2.1.7.6.3 1.1.8 1.5 1.4.4.6.6 1.4.6 2.4v8.8c0 .7 0 1.2.1 1.5.1.3.3.5.8.5.2 0 .5 0 .9-.1v2.2zm-4.6-8.9c-.4.3-.8.5-1.4.6l-1.8.3c-.6.1-1.3.2-1.9.3-.6.1-1.2.3-1.7.5s-.9.5-1.2.9c-.3.4-.5 1-.5 1.7 0 .5.1.9.3 1.2.2.3.4.6.7.8.3.2.6.3 1.1.4.4.1.8.1 1.3.1.9 0 1.7-.1 2.4-.4.7-.3 1.2-.6 1.6-1 .4-.4.7-.8.9-1.3.2-.5.3-.9.3-1.3v-2.8zM345.2 91.9c-.3.8-.7 1.6-1 2.1-.3.6-.7 1.1-1.1 1.4-.4.4-.8.6-1.3.8-.5.2-1 .2-1.7.2-.3 0-.7 0-1-.1-.3 0-.7-.1-1-.2v-2.6c.2.1.5.2.8.3.3.1.6.1.8.1.6 0 1.1-.1 1.5-.4.4-.3.7-.7.9-1.2l1.2-2.9-6.8-17.1h3.2l5 14.1h.1l4.8-14.1h3l-7.4 19.6z"/>
  </g>
  <path class="st8" d="M915 203.1H51.9"/>
  <g>
    <path class="st5" d="M365 235.2c.6.8 1.9 1.8 3.7 1.8 1.5 0 2.4-.7 2.4-1.6 0-1-.8-1.3-2.3-1.6-1.4-.3-3-.5-4.1-1.5-.7-.6-1.1-1.4-1.1-2.7 0-1.7 1.4-3.9 5.1-3.9 2 0 3.9.8 5 2.1l-1.8 1.8c-.7-.9-2-1.5-3.2-1.5-1.2 0-2.2.5-2.2 1.4 0 .6.4 1 1 1.2.8.3 2 .5 3.2.8 1.7.5 3.3 1.3 3.3 3.7 0 2.7-2.5 4.2-5.2 4.2-2.5 0-4.5-1.1-5.6-2.3l1.8-1.9zM376.1 225.9h5.1c3.2 0 4.9 2 4.9 4.1 0 1.8-1.1 3.2-2.6 3.7l2.9 5.5h-3.1l-2.4-4.8h-2.1v4.8h-2.7v-13.3zm4.9 2.5h-2.2v3.6h2.2c1.5 0 2.3-.8 2.3-1.8 0-1.1-.7-1.8-2.3-1.8zM391 239.2l-3.8-13.3h3l2.6 9.8 2.5-9.8h3l-3.8 13.3H391zM399.8 233.2l.7-7.3h8.5v2.4h-6.2l-.3 2.6c.6-.7 1.7-1 2.7-1 2.7 0 4.5 1.9 4.5 4.6 0 2.9-2.3 4.8-5.2 4.8-2.4 0-4.5-1.1-5.1-3.4l2.6-.8c.3 1 1 1.8 2.5 1.8 1.6 0 2.5-1.1 2.5-2.4 0-1.3-.8-2.3-2.4-2.3-.9 0-1.7.4-2.1 1.1l-2.7-.1zM416.2 225.9v13.3h-2.8v-8.8H411V228h.5c1.6 0 2-.6 2-1.9v-.2h2.7zM424.9 228.5h-6.7V226h9.5v2.6l-5.1 10.7h-3.2l5.5-10.8zM435.4 228.5h-6.7V226h9.5v2.6l-5.1 10.7h-3.2l5.5-10.8zM449.8 232.4c0 3.6-1.7 7-5.7 7-2.2 0-3.8-1.1-4.5-2.7l2.6-1c.4.9 1.1 1.3 2 1.3 1.8 0 2.5-1.6 2.7-3.5-.6.8-1.8 1.2-2.9 1.2-2.6 0-4.5-1.8-4.5-4.3 0-2.7 2-4.7 4.9-4.7 3.2 0 5.4 2.4 5.4 6.3v.4zm-5.3-4.3c-1.4 0-2.3 1-2.3 2.2 0 1.2.9 2.2 2.3 2.2s2.3-1 2.3-2.2c0-1.2-.9-2.2-2.3-2.2zM451.7 239.2v-2.4s2.1-1.5 4.6-3.5c1.3-1 2.1-2 2.1-3.3 0-1-.7-1.9-1.9-1.9-1.6 0-2.1 1.1-2.1 2.5l-2.8-.2c0-3 2-4.8 5-4.8 2.6 0 4.7 1.7 4.7 4.3 0 1.4-.6 2.7-2 4.1-.8.8-2 1.6-3.4 2.6h5.6v2.5h-9.8z"/>
  </g>
  <g>
    <path class="st5" d="M54.9 226.1h4.5c2.5 0 4.4 1.2 4.4 4 0 1.7-.9 3-2.6 3.7l2.8 5.6h-1.9l-2.5-5.3h-3.1v5.3h-1.6v-13.3zm4.6 6.5c1.5 0 2.6-.9 2.6-2.5 0-1.7-1.1-2.6-2.6-2.6h-3v5.1h3zM67.3 235.1c.1 1.8 1.2 3.1 2.9 3.1 1.1 0 1.8-.4 2.5-.9l.8 1.1c-.9.7-2 1.2-3.4 1.2-2.8 0-4.5-2.1-4.5-4.9 0-2.9 1.7-4.9 4.3-4.9 2.5 0 4 2.1 4 4.9v.5h-6.6zm0-1.2h5c-.1-1.5-.9-2.8-2.4-2.8s-2.5 1.3-2.6 2.8zM78.6 229.9h1.9v1.4h-1.9v8.1H77v-8.1h-1.6v-1.4H77v-1.8c0-1.6 1.1-2.2 2.6-2.2.8 0 1.3.1 1.5.1l-.1 1.3c-.4 0-1-.1-1.3-.1-.9 0-1.1.6-1.1 1.1v1.6zM83.5 235.1c.1 1.8 1.2 3.1 2.9 3.1 1.1 0 1.8-.4 2.5-.9l.8 1.1c-.9.7-2 1.2-3.4 1.2-2.8 0-4.5-2.1-4.5-4.9 0-2.9 1.7-4.9 4.3-4.9 2.5 0 4 2.1 4 4.9v.5h-6.6zm0-1.2h5c-.1-1.5-.9-2.8-2.4-2.8s-2.5 1.3-2.6 2.8zM97.5 231.3h-.2c-1.6 0-3 .6-3 3.2v4.9h-1.6v-9.5h1.6v1.5c.5-1.1 1.6-1.7 2.8-1.7h.5v1.6zM100.3 235.1c.1 1.8 1.2 3.1 2.9 3.1 1.1 0 1.8-.4 2.5-.9l.8 1.1c-.9.7-2 1.2-3.4 1.2-2.8 0-4.5-2.1-4.5-4.9 0-2.9 1.7-4.9 4.3-4.9 2.5 0 4 2.1 4 4.9v.5h-6.6zm0-1.2h5c-.1-1.5-.9-2.8-2.4-2.8s-2.5 1.3-2.6 2.8zM109.4 229.9h1.6v1.1c.6-.9 1.6-1.3 2.8-1.3 2.1 0 3.2 1.5 3.2 3.2v6.4h-1.6v-5.9c0-1.7-.9-2.3-2-2.3-1.2 0-2.4.9-2.4 2.6v5.6h-1.6v-9.4zM120.9 234.7c0 1.9.9 3.5 2.8 3.5 1.2 0 2-.7 2.5-1.6l1.3.7c-.6 1.3-2 2.2-3.7 2.2-2.6 0-4.4-2.1-4.4-4.9 0-2.9 1.7-4.9 4.4-4.9 1.7 0 3.1.9 3.7 2.2l-1.3.7c-.5-.9-1.3-1.6-2.5-1.6-1.9.1-2.8 1.7-2.8 3.7zM130.7 235.1c.1 1.8 1.2 3.1 2.9 3.1 1.1 0 1.8-.4 2.5-.9l.8 1.1c-.9.7-2 1.2-3.4 1.2-2.8 0-4.5-2.1-4.5-4.9 0-2.9 1.7-4.9 4.3-4.9 2.5 0 4 2.1 4 4.9v.5h-6.6zm0-1.2h5c-.1-1.5-.9-2.8-2.4-2.8s-2.5 1.3-2.6 2.8zM144.8 229.9h1.6v1.1c.6-.9 1.6-1.3 2.8-1.3 2.1 0 3.2 1.5 3.2 3.2v6.4h-1.6v-5.9c0-1.7-.9-2.3-2-2.3-1.2 0-2.4.9-2.4 2.6v5.6h-1.6v-9.4zM162.7 239.4h-1.6v-1.1c-.6.9-1.6 1.3-2.8 1.3-2.1 0-3.2-1.5-3.2-3.2V230h1.6v5.9c0 1.7.9 2.3 2 2.3 1.3 0 2.4-.9 2.4-2.6V230h1.6v9.4zM172.8 239.4h-1.6v-6c0-1.7-.9-2.3-1.9-2.3s-2.1.8-2.1 2.6v5.6h-1.6v-9.5h1.6v1.1c.6-.9 1.5-1.3 2.5-1.3.9 0 2.1.4 2.6 1.6.7-1.2 1.8-1.6 2.9-1.6 2.1 0 3.2 1.5 3.2 3.2v6.5h-1.6v-6c0-1.7-.9-2.3-1.9-2.3-1 0-2.1.8-2.1 2.6v5.8zM182.9 239.4h-1.6v-13.3h1.6v4.9c.6-.8 1.6-1.3 2.8-1.3 2.5 0 4 2.1 4 4.9 0 2.9-1.6 4.9-4 4.9-1.2 0-2.2-.5-2.8-1.3v1.2zm5.2-4.8c0-2-1-3.5-2.7-3.5-1.7 0-2.5 1.2-2.5 2.8v1.5c0 1.6.9 2.8 2.5 2.8 1.8 0 2.7-1.5 2.7-3.6zM193.3 235.1c.1 1.8 1.2 3.1 2.9 3.1 1.1 0 1.8-.4 2.5-.9l.8 1.1c-.9.7-2 1.2-3.4 1.2-2.8 0-4.5-2.1-4.5-4.9 0-2.9 1.7-4.9 4.3-4.9 2.5 0 4 2.1 4 4.9v.5h-6.6zm0-1.2h5c-.1-1.5-.9-2.8-2.4-2.8s-2.5 1.3-2.6 2.8zM207.2 231.3h-.2c-1.6 0-3 .6-3 3.2v4.9h-1.6v-9.5h1.6v1.5c.5-1.1 1.6-1.7 2.8-1.7h.5v1.6zM210.3 229.9c.7 0 1.3.6 1.3 1.3s-.6 1.3-1.3 1.3c-.7 0-1.3-.6-1.3-1.3s.6-1.3 1.3-1.3zm0 7.1c.7 0 1.3.6 1.3 1.3s-.6 1.3-1.3 1.3c-.7 0-1.3-.6-1.3-1.3s.6-1.3 1.3-1.3z"/>
  </g>
  <g>
    <path class="st5" d="M364.6 282.9h9v2.4h-6.3v2.8h5.8v2.4h-5.8v3.2h6.6v2.4h-9.3v-13.2zM378.2 291l-3-4.7h3l1.5 2.7 1.6-2.7h3l-3.1 4.7 3.4 5.2h-3l-2-3-1.8 3h-3l3.4-5.2zM388.6 296.4c-1.8 0-3.4-1.1-3.4-3.1 0-1.6 1-2.7 2.8-2.9l3-.4v-.3c0-.9-.6-1.3-1.6-1.3-1.2 0-2.2.5-2.9.8l-1-2c1.2-.6 2.6-1.1 4-1.1 1.8 0 4 .5 4 3.2v4.3c0 .6.3.8.9 1l-1.2 1.8c-1-.1-1.6-.6-1.9-1.1-.5.8-1.5 1.1-2.7 1.1zm.3-4.2c-.6.1-1 .5-1 1 0 .6.5 1.2 1.3 1.2 1.2 0 1.8-.8 1.8-1.8v-.7l-2.1.3zM404.3 296.2h-2.6v-5.8c0-1.4-.7-1.9-1.5-1.9-1 0-1.7.7-1.7 2.3v5.4H396v-9.9h2.6v.9c.6-.7 1.6-1.1 2.5-1.1 1 0 2 .4 2.6 1.3.7-1 1.8-1.3 3-1.3 2.2 0 3.5 1.6 3.5 3.3v6.8h-2.6v-5.8c0-1.4-.7-1.9-1.5-1.9-1 0-1.7.7-1.7 2.3v5.4zM415 286.3v.9c.6-.6 1.3-1 2.5-1 2.6 0 4.4 2.2 4.4 5.1v.1c0 2.9-1.8 5.1-4.4 5.1-1.2 0-1.9-.5-2.5-1v4h-2.6v-13.1h2.6zm0 5.9c0 1.1.8 1.9 2.1 1.9 1.5 0 2.3-1.2 2.3-2.7v-.1c0-1.6-.8-2.7-2.3-2.7-1.3 0-2.1.8-2.1 1.9v1.7zM423.8 282.9h2.6v10.6c0 .4.2.6.8.6.3 0 .7 0 1-.1l.2 2.2s-1.2.2-2.2.2c-1.4 0-2.3-.8-2.3-2.2v-11.3zM431.6 292.2c.2 1.3 1.2 1.9 2.4 1.9 1 0 1.8-.3 2.5-.9l1.3 1.9c-.9.7-2.2 1.3-3.9 1.3-2.7 0-5-1.9-5-5.1v-.1c0-2.9 2-5.1 4.8-5.1 2.6 0 4.6 2 4.6 4.9v1.2h-6.7zm.1-2h4c-.1-.9-.6-1.9-2-1.9-1.3 0-2 1-2 1.9zM445.3 293.1c.7.7 1.9 1.2 2.9 1.2.8 0 1.4-.2 1.4-.8 0-.5-.4-.7-1.2-.9-.6-.2-1.6-.3-2.5-.7-1-.4-1.7-1.2-1.7-2.6 0-2.1 1.9-3.2 4.1-3.2 1.7 0 3.1.6 3.9 1.4l-1.6 1.7c-.5-.5-1.3-.9-2.3-.9-.7 0-1.4.2-1.4.8 0 .5.4.6 1.2.8 1.2.3 2.1.5 2.8.9.8.4 1.4 1.3 1.4 2.4 0 2.1-1.8 3.2-4 3.2-1.6 0-3.5-.6-4.5-1.5l1.5-1.8zM456.3 292.2c.2 1.3 1.2 1.9 2.4 1.9 1 0 1.8-.3 2.5-.9l1.3 1.9c-.9.7-2.2 1.3-3.9 1.3-2.7 0-5-1.9-5-5.1v-.1c0-2.9 2-5.1 4.8-5.1 2.6 0 4.6 2 4.6 4.9v1.2h-6.7zm.1-2h4c-.1-.9-.6-1.9-2-1.9-1.3 0-2 1-2 1.9zM470.6 288.8h-.5c-1.5 0-2.8.5-2.8 2.6v4.8h-2.6v-9.9h2.6v1.1c.4-.7 1.3-1.3 2.6-1.3h.6v2.7zM474.3 296.2l-3-9.9h2.8l1.8 6.8 1.8-6.8h2.8l-3 9.9h-3.2zM483.3 282.5c.9 0 1.6.7 1.6 1.6s-.7 1.6-1.6 1.6-1.6-.7-1.6-1.6.7-1.6 1.6-1.6zm1.3 13.7H482v-9.9h2.6v9.9zM486.5 291.2c0-2.9 2-5.1 4.8-5.1 2 0 3.7 1 4.3 2.6l-2.3 1.2c-.4-.8-.9-1.3-2-1.3-1.6 0-2.2 1.4-2.2 2.7v.1c0 1.3.7 2.7 2.2 2.7 1 0 1.6-.5 2-1.3l2.3 1.2c-.6 1.6-2.3 2.6-4.4 2.6-2.7-.2-4.7-2.4-4.7-5.4zM499.4 292.2c.2 1.3 1.2 1.9 2.4 1.9 1 0 1.8-.3 2.5-.9l1.3 1.9c-.9.7-2.2 1.3-3.9 1.3-2.7 0-5-1.9-5-5.1v-.1c0-2.9 2-5.1 4.8-5.1 2.6 0 4.6 2 4.6 4.9v1.2h-6.7zm0-2h4c-.1-.9-.6-1.9-2-1.9-1.3 0-1.9 1-2 1.9z"/>
  </g>
  <g>
    <path class="st5" d="M59.8 296.4h-4.4v-13.3h4.4c4.1 0 5.9 2.7 5.9 6.6.1 4-1.8 6.7-5.9 6.7zm4.2-6.9c0-2.8-1.3-5-4.2-5H57V295h2.8c3 0 4.2-2.2 4.2-5v-.5zM69.6 292.1c.1 1.8 1.2 3.1 2.9 3.1 1.1 0 1.8-.4 2.5-.9l.8 1.1c-.9.7-2 1.2-3.4 1.2-2.8 0-4.5-2.1-4.5-4.9 0-2.9 1.7-4.9 4.3-4.9 2.5 0 4 2.1 4 4.9v.5h-6.6zm0-1.2h5c-.1-1.5-.9-2.8-2.4-2.8-1.6 0-2.6 1.3-2.6 2.8zM77.8 295.2l.9-1.1c.6.5 1.6 1.2 2.9 1.2 1.1 0 1.9-.5 1.9-1.4 0-1-1-1.3-2.3-1.6-1.3-.4-2.9-.8-2.9-2.8 0-1.6 1.5-2.8 3.5-2.8 1.3 0 2.6.5 3.3 1.2l-.9 1c-.6-.5-1.4-.9-2.3-.9-1.3 0-1.9.6-1.9 1.4 0 .7.5 1 1.4 1.3.5.1 1.1.3 1.6.5 1.3.4 2.3 1.1 2.3 2.6 0 2-1.7 2.8-3.6 2.8-1.4 0-2.8-.5-3.9-1.4zM88.6 291.7c0 1.9.9 3.5 2.8 3.5 1.2 0 2-.7 2.5-1.6l1.3.7c-.6 1.3-2 2.2-3.7 2.2-2.6 0-4.4-2.1-4.4-4.9 0-2.9 1.7-4.9 4.4-4.9 1.7 0 3.1.9 3.7 2.2l-1.3.7c-.5-.9-1.3-1.6-2.5-1.6-1.9.1-2.8 1.7-2.8 3.7zM102.3 288.3h-.2c-1.6 0-3 .6-3 3.2v4.9h-1.6v-9.5H99v1.5c.5-1.1 1.6-1.7 2.8-1.7h.5v1.6zM105.1 283.1c.6 0 1.1.5 1.1 1.2 0 .6-.5 1.2-1.1 1.2-.6 0-1.2-.5-1.2-1.2.1-.7.6-1.2 1.2-1.2zm.8 13.3h-1.6v-9.5h1.6v9.5zM110.5 286.9v1.1c.6-.8 1.6-1.3 2.8-1.3 2.5 0 4 2.1 4 4.9 0 2.9-1.6 4.9-4 4.9-1.2 0-2.2-.5-2.8-1.3v4h-1.6v-12.4h1.6zm5.2 4.7c0-2-1-3.5-2.7-3.5-1.7 0-2.5 1.2-2.5 2.8v1.5c0 1.6.9 2.8 2.5 2.8 1.7 0 2.7-1.5 2.7-3.6zM122.1 294c0 .6.1 1.2 1.2 1.2.3 0 .9-.1 1.2-.1l.2 1.4s-.9.1-1.7.1c-1.5 0-2.4-.6-2.4-2.2v-6.1h-1.8v-1.4h1.8v-3.1l1.6-.6v3.6h2.6v1.4h-2.6v5.8zM127.6 283.1c.6 0 1.1.5 1.1 1.2 0 .6-.5 1.2-1.1 1.2-.6 0-1.2-.5-1.2-1.2.1-.7.6-1.2 1.2-1.2zm.8 13.3h-1.6v-9.5h1.6v9.5zM139.6 291.6c0 2.8-1.7 4.9-4.4 4.9-2.6 0-4.4-2.1-4.4-4.9 0-2.9 1.7-4.9 4.4-4.9s4.4 2.1 4.4 4.9zm-1.6.1v-.1c0-1.9-1-3.5-2.8-3.5s-2.8 1.6-2.8 3.5v.1c0 1.9 1 3.5 2.8 3.5s2.8-1.6 2.8-3.5zM142.1 286.9h1.6v1.1c.6-.9 1.6-1.3 2.8-1.3 2.1 0 3.2 1.5 3.2 3.2v6.4H148v-5.9c0-1.7-.9-2.3-2-2.3-1.2 0-2.4.9-2.4 2.6v5.6H142v-9.4zM153.6 286.9c.7 0 1.3.6 1.3 1.3s-.6 1.3-1.3 1.3c-.7 0-1.3-.6-1.3-1.3s.6-1.3 1.3-1.3zm0 7.1c.7 0 1.3.6 1.3 1.3s-.6 1.3-1.3 1.3c-.7 0-1.3-.6-1.3-1.3s.6-1.3 1.3-1.3z"/>
  </g>
  <path class="st8" d="M915.7 259.3H52.6M915.7 314.8H52.6"/>
  <g>
    <path class="st5" d="M370.9 341.3c-.3-.6-.9-1.1-1.8-1.1-1.1 0-1.8.8-1.8 2.1v1.3h2.7v2.3h-2.7v2.8h5.6v2.4h-9.4v-2.4h1.1V346h-1.1v-2.3h1.1v-1.5c0-2.7 1.8-4.4 4.4-4.4 1.8 0 3.3.7 4.1 2l-2.2 1.5zM379.6 338v13.3h-2.8v-8.8h-2.4V340h.5c1.6 0 2-.6 2-1.9v-.1h2.7zM392.6 344.6c0 3.4-1.6 6.8-5.3 6.8s-5.3-3.4-5.3-6.8 1.6-6.8 5.3-6.8 5.3 3.4 5.3 6.8zm-2.8.3v-.5c0-2.5-.8-4.2-2.5-4.2s-2.5 1.7-2.5 4.2v.5c0 2.5.9 4.1 2.5 4.1s2.5-1.6 2.5-4.1zM396.2 347.9c1 0 1.8.8 1.8 1.8s-.8 1.8-1.8 1.8-1.8-.8-1.8-1.8.9-1.8 1.8-1.8zM410.5 344.6c0 3.4-1.6 6.8-5.3 6.8s-5.3-3.4-5.3-6.8 1.6-6.8 5.3-6.8 5.3 3.4 5.3 6.8zm-2.9.3v-.5c0-2.5-.8-4.2-2.5-4.2s-2.5 1.7-2.5 4.2v.5c0 2.5.9 4.1 2.5 4.1s2.5-1.6 2.5-4.1zM422.9 344.6c0 3.4-1.6 6.8-5.3 6.8s-5.3-3.4-5.3-6.8 1.6-6.8 5.3-6.8 5.3 3.4 5.3 6.8zm-2.8.3v-.5c0-2.5-.8-4.2-2.5-4.2s-2.5 1.7-2.5 4.2v.5c0 2.5.9 4.1 2.5 4.1s2.5-1.6 2.5-4.1z"/>
  </g>
  <g>
    <path class="st5" d="M61.6 348.4h-5.3l-.9 3h-1.7l4.1-13.3h2.4l4.2 13.3h-1.8l-1-3zm-4.9-1.4h4.5l-2.2-7.4h-.2l-2.1 7.4zM73.6 351.4H72v-6c0-1.7-.9-2.3-1.9-2.3s-2.1.8-2.1 2.6v5.6h-1.6v-9.5H68v1.1c.6-.9 1.5-1.3 2.5-1.3.9 0 2.1.4 2.6 1.6.7-1.2 1.8-1.6 2.9-1.6 2.1 0 3.2 1.5 3.2 3.2v6.5h-1.6v-6c0-1.7-.9-2.3-1.9-2.3-1 0-2.1.8-2.1 2.6v5.8zM90.3 346.7c0 2.8-1.7 4.9-4.4 4.9-2.6 0-4.4-2.1-4.4-4.9 0-2.9 1.7-4.9 4.4-4.9 2.7-.1 4.4 2 4.4 4.9zm-1.6 0v-.1c0-1.9-1-3.5-2.8-3.5s-2.8 1.6-2.8 3.5v.1c0 1.9 1 3.5 2.8 3.5s2.8-1.6 2.8-3.5zM100.2 351.4h-1.6v-1.1c-.6.9-1.6 1.3-2.8 1.3-2.1 0-3.2-1.5-3.2-3.2V342h1.6v5.9c0 1.7.9 2.3 2 2.3 1.3 0 2.4-.9 2.4-2.6V342h1.6v9.4zM103.3 341.9h1.6v1.1c.6-.9 1.6-1.3 2.8-1.3 2.1 0 3.2 1.5 3.2 3.2v6.4h-1.6v-5.9c0-1.7-.9-2.3-2-2.3-1.2 0-2.4.9-2.4 2.6v5.6h-1.6v-9.4zM116.2 349c0 .6.1 1.2 1.2 1.2.3 0 .9-.1 1.2-.1l.2 1.4s-.9.1-1.7.1c-1.5 0-2.4-.6-2.4-2.2v-6.1h-1.8v-1.4h1.8v-3.1l1.6-.6v3.6h2.6v1.4h-2.6v5.8zM122 341.9c.7 0 1.3.6 1.3 1.3s-.6 1.3-1.3 1.3c-.7 0-1.3-.6-1.3-1.3s.6-1.3 1.3-1.3zm0 7.1c.7 0 1.3.6 1.3 1.3s-.6 1.3-1.3 1.3c-.7 0-1.3-.6-1.3-1.3s.6-1.3 1.3-1.3z"/>
  </g>
  <g>
    <path class="st5" d="M365.6 404.2c.6.8 1.9 1.8 3.7 1.8 1.5 0 2.4-.7 2.4-1.6 0-1-.8-1.3-2.3-1.6-1.4-.3-3-.5-4.1-1.5-.7-.6-1.1-1.4-1.1-2.7 0-1.7 1.4-3.9 5.1-3.9 2 0 3.9.8 5 2.1l-1.8 1.8c-.7-.9-2-1.5-3.2-1.5-1.2 0-2.2.5-2.2 1.4 0 .6.4 1 1 1.2.8.3 2 .5 3.2.8 1.7.5 3.3 1.3 3.3 3.7 0 2.7-2.5 4.2-5.2 4.2-2.5 0-4.5-1.1-5.6-2.3l1.8-1.9zM384.7 408.3h-2.6v-.9c-.6.6-1.3 1-2.5 1-2.2 0-3.4-1.5-3.4-3.4v-6.7h2.6v5.8c0 1.4.7 1.9 1.6 1.9 1 0 1.8-.7 1.8-2.3v-5.4h2.6v10zM386.6 403.3c0-2.9 2-5.1 4.8-5.1 2 0 3.7 1 4.3 2.6l-2.3 1.2c-.4-.8-.9-1.3-2-1.3-1.6 0-2.2 1.4-2.2 2.7v.1c0 1.3.7 2.7 2.2 2.7 1 0 1.6-.5 2-1.3l2.3 1.2c-.6 1.6-2.3 2.6-4.4 2.6-2.8-.2-4.7-2.4-4.7-5.4zM396.8 403.3c0-2.9 2-5.1 4.8-5.1 2 0 3.7 1 4.3 2.6l-2.3 1.2c-.4-.8-.9-1.3-2-1.3-1.6 0-2.2 1.4-2.2 2.7v.1c0 1.3.7 2.7 2.2 2.7 1 0 1.6-.5 2-1.3l2.3 1.2c-.6 1.6-2.3 2.6-4.4 2.6-2.7-.2-4.7-2.4-4.7-5.4zM409.8 404.2c.2 1.3 1.2 1.9 2.4 1.9 1 0 1.8-.3 2.5-.9l1.3 1.9c-.9.7-2.2 1.3-3.9 1.3-2.7 0-5-1.9-5-5.1v-.1c0-2.9 2-5.1 4.8-5.1 2.6 0 4.6 2 4.6 4.9v1.2h-6.7zm0-2h4c-.1-.9-.6-1.9-2-1.9-1.3.1-1.9 1.1-2 1.9zM419.1 405.1c.7.7 1.9 1.2 2.9 1.2.8 0 1.4-.2 1.4-.8 0-.5-.4-.7-1.2-.9-.6-.2-1.6-.3-2.5-.7-1-.4-1.7-1.2-1.7-2.6 0-2.1 1.9-3.2 4.1-3.2 1.7 0 3.1.6 3.9 1.4l-1.6 1.7c-.5-.5-1.3-.9-2.3-.9-.7 0-1.4.2-1.4.8 0 .5.4.6 1.2.8 1.2.3 2.1.5 2.8.9.8.4 1.4 1.3 1.4 2.4 0 2.1-1.8 3.2-4 3.2-1.6 0-3.5-.6-4.5-1.5l1.5-1.8zM428.8 405.1c.7.7 1.9 1.2 2.9 1.2.8 0 1.4-.2 1.4-.8 0-.5-.4-.7-1.2-.9-.6-.2-1.6-.3-2.5-.7-1-.4-1.7-1.2-1.7-2.6 0-2.1 1.9-3.2 4.1-3.2 1.7 0 3.1.6 3.9 1.4l-1.6 1.7c-.5-.5-1.3-.9-2.3-.9-.7 0-1.4.2-1.4.8 0 .5.4.6 1.2.8 1.2.3 2.1.5 2.8.9.8.4 1.4 1.3 1.4 2.4 0 2.1-1.8 3.2-4 3.2-1.6 0-3.5-.6-4.5-1.5l1.5-1.8z"/>
  </g>
  <g>
    <path class="st5" d="M368.8 449.3v13.3H366v-8.8h-2.4v-2.4h.5c1.6 0 2-.6 2-1.9v-.2h2.7zM383 458.3l-3.9-4.9v9.2h-2.7v-13.3h2.7l3.9 5.2 4-5.2h2.6v13.3H387v-9.2l-4 4.9zM395.1 462.8c-1.8 0-3.4-1.1-3.4-3.1 0-1.6 1-2.7 2.8-2.9l3-.4v-.4c0-.9-.6-1.3-1.6-1.3-1.2 0-2.2.5-2.9.8l-1-2c1.2-.6 2.6-1.1 4-1.1 1.8 0 4 .5 4 3.2v4.3c0 .6.3.8.9 1l-1.2 1.8c-1-.1-1.6-.6-1.9-1.1-.5.8-1.5 1.2-2.7 1.2zm.3-4.2c-.6.1-1 .5-1 1 0 .6.5 1.2 1.3 1.2 1.2 0 1.8-.8 1.8-1.8v-.7l-2.1.3zM404.5 463l.1-.3h-.2l-3.1-10h2.8l1.8 6.9 1.8-6.9h2.8l-3.4 11.4c-.4 1.5-1.6 1.9-3.1 1.9-.6 0-1.7-.1-2.3-.2l.5-2.3s.7.1 1.4.1c.5 0 .8-.2.9-.6zM416 462.6v-2.4s2.1-1.5 4.6-3.5c1.3-1 2.1-2 2.1-3.3 0-1-.7-1.9-1.9-1.9-1.6 0-2.1 1.1-2.1 2.5l-2.8-.2c0-3 2-4.8 5-4.8 2.6 0 4.7 1.7 4.7 4.3 0 1.4-.6 2.7-2 4.1-.8.8-2 1.6-3.4 2.6h5.6v2.5H416zM438.2 455.9c0 3.4-1.6 6.8-5.3 6.8s-5.3-3.4-5.3-6.8 1.6-6.8 5.3-6.8 5.3 3.4 5.3 6.8zm-2.8.3v-.5c0-2.5-.8-4.2-2.5-4.2s-2.5 1.7-2.5 4.2v.5c0 2.5.9 4.1 2.5 4.1s2.5-1.6 2.5-4.1zM444.8 449.3v13.3H442v-8.8h-2.4v-2.4h.5c1.6 0 2-.6 2-1.9v-.2h2.7zM453.6 451.8h-6.7v-2.5h9.5v2.6l-5.1 10.7H448l5.6-10.8zM462.5 455.6h4.9v2.4h-4.9v-2.4zM478.9 449.3v13.3h-2.8v-8.8h-2.4v-2.4h.5c1.6 0 2-.6 2-1.9v-.2h2.7zM491.9 455.9c0 3.4-1.6 6.8-5.3 6.8s-5.3-3.4-5.3-6.8 1.6-6.8 5.3-6.8 5.3 3.4 5.3 6.8zm-2.8.3v-.5c0-2.5-.8-4.2-2.5-4.2s-2.5 1.7-2.5 4.2v.5c0 2.5.9 4.1 2.5 4.1s2.5-1.6 2.5-4.1zM495.9 452.6c1 0 1.8.8 1.8 1.8 0 .9-.8 1.8-1.8 1.8s-1.8-.8-1.8-1.8.8-1.8 1.8-1.8zm0 6.6c1 0 1.8.8 1.8 1.8s-.8 1.8-1.8 1.8-1.8-.8-1.8-1.8.8-1.8 1.8-1.8zM504.6 449.3v13.3h-2.8v-8.8h-2.4v-2.4h.5c1.6 0 2-.6 2-1.9v-.2h2.7zM507.2 456.6l.7-7.3h8.5v2.4h-6.2l-.3 2.6c.6-.7 1.7-1 2.7-1 2.7 0 4.5 1.9 4.5 4.6 0 2.9-2.3 4.8-5.2 4.8-2.4 0-4.5-1.1-5.1-3.4l2.6-.8c.3 1 1 1.8 2.5 1.8 1.6 0 2.5-1.1 2.5-2.4 0-1.3-.8-2.3-2.4-2.3-.9 0-1.7.4-2.1 1.1l-2.7-.1z"/>
  </g>
  <g>
    <path class="st5" d="M375.4 514.9l1.9-9.2h2.9l-3 13.3h-3.3l-2-9.5-2 9.5h-3.3l-3-13.3h2.9l1.8 9.2 2-9.2h3l2.1 9.2zM390.4 514.1c0 2.9-2 5.1-4.9 5.1s-4.9-2.2-4.9-5.1c0-2.9 1.9-5.1 4.9-5.1 3-.1 4.9 2.1 4.9 5.1zm-2.6-.1c0-1.6-.8-2.8-2.3-2.8s-2.2 1.2-2.3 2.8c0 1.6.8 2.8 2.3 2.8s2.3-1.1 2.3-2.8zM398.1 511.6h-.5c-1.5 0-2.8.5-2.8 2.6v4.8h-2.6v-9.9h2.6v1.1c.4-.7 1.3-1.3 2.6-1.3h.6v2.7zM399.7 505.7h2.6v10.6c0 .4.2.6.8.6.3 0 .7 0 1-.1l.2 2.2s-1.2.2-2.2.2c-1.4 0-2.3-.8-2.3-2.2v-11.3zM404.9 514c0-2.9 1.7-5.1 4.4-5.1 1.2 0 2 .5 2.5 1v-4.2h2.6V519h-2.6v-.9c-.6.6-1.3 1-2.5 1-2.6.1-4.4-2.1-4.4-5.1zm6.9-.9c0-1.1-.8-1.9-2.1-1.9-1.5 0-2.3 1.2-2.3 2.7v.1c0 1.6.8 2.7 2.3 2.7 1.3 0 2.1-.8 2.1-1.9v-1.7zM419.3 509.1v.9c.6-.6 1.3-1 2.5-1 2.6 0 4.4 2.2 4.4 5.1v.1c0 2.9-1.8 5.1-4.4 5.1-1.2 0-1.9-.5-2.5-1v4h-2.6v-13.1h2.6zm-.1 5.9c0 1.1.8 1.9 2.1 1.9 1.5 0 2.3-1.2 2.3-2.7v-.2c0-1.6-.8-2.7-2.3-2.7-1.3 0-2.1.8-2.1 1.9v1.8zM430.9 519.2c-1.8 0-3.4-1.1-3.4-3.1 0-1.6 1-2.7 2.8-2.9l3-.4v-.3c0-.9-.6-1.3-1.6-1.3-1.2 0-2.2.5-2.9.8l-1-2c1.2-.6 2.6-1.1 4-1.1 1.8 0 4 .5 4 3.2v4.3c0 .6.3.8.9 1l-1.2 1.8c-1-.1-1.6-.6-1.9-1.1-.6.7-1.5 1.1-2.7 1.1zm.3-4.2c-.6.1-1 .5-1 1 0 .6.5 1.2 1.3 1.2 1.2 0 1.8-.8 1.8-1.8v-.7l-2.1.3zM440.2 519.4l.1-.3h-.2l-3.1-10h2.8l1.8 6.9 1.8-6.9h2.8l-3.4 11.4c-.4 1.5-1.6 1.9-3.1 1.9-.6 0-1.7-.1-2.3-.2l.5-2.3s.7.1 1.4.1c.6 0 .8-.2.9-.6z"/>
  </g>
  <g>
    <path class="st5" d="M367.1 574.8c-1.8 0-3.4-1.1-3.4-3.1 0-1.6 1-2.7 2.8-2.9l3-.4v-.4c0-.9-.6-1.3-1.6-1.3-1.2 0-2.2.5-2.9.8l-1-2c1.2-.6 2.6-1.1 4-1.1 1.8 0 4 .5 4 3.2v4.3c0 .6.3.8.9 1l-1.2 1.8c-1-.1-1.6-.6-1.9-1.1-.5.8-1.5 1.2-2.7 1.2zm.3-4.2c-.6.1-1 .5-1 1 0 .6.5 1.2 1.3 1.2 1.2 0 1.8-.8 1.8-1.8v-.7l-2.1.3zM374.3 574.6v-2.4s2.1-1.5 4.6-3.5c1.3-1 2.1-2 2.1-3.3 0-1-.7-1.9-1.9-1.9-1.6 0-2.1 1.1-2.1 2.5l-2.8-.2c0-3 2-4.8 5-4.8 2.6 0 4.7 1.7 4.7 4.3 0 1.4-.6 2.7-2 4.1-.8.8-2 1.6-3.4 2.6h5.6v2.5h-9.8zM395.6 569.7c0 2.9-1.8 5.1-4.4 5.1-1.2 0-1.9-.5-2.5-1v.9h-2.6v-13.3h2.6v4.2c.6-.6 1.3-1 2.5-1 2.7-.1 4.4 2 4.4 5.1zm-6.9.9c0 1.1.8 1.9 2.1 1.9 1.5 0 2.3-1.2 2.3-2.7v-.1c0-1.6-.8-2.7-2.3-2.7-1.3 0-2.1.8-2.1 1.9v1.7zM397.5 568.6l.7-7.3h8.5v2.4h-6.2l-.3 2.6c.6-.7 1.7-1 2.7-1 2.7 0 4.5 1.9 4.5 4.6 0 2.9-2.3 4.8-5.2 4.8-2.4 0-4.5-1.1-5.1-3.4l2.6-.8c.3 1 1 1.8 2.5 1.8 1.6 0 2.5-1.1 2.5-2.4 0-1.3-.8-2.3-2.4-2.3-.9 0-1.7.4-2.1 1.1l-2.7-.1zM412.7 564.7h1.9v2.3h-1.9v7.6h-2.6V567h-1.6v-2.3h1.6v-1c0-1.7 1.2-2.5 3-2.5.9 0 1.7.1 2 .1l-.2 2.2c-.3-.1-.9-.1-1.3-.1-.7 0-1 .3-1 .7v.6zM418.3 570.5c.2 1.3 1.2 1.9 2.4 1.9 1 0 1.8-.3 2.5-.9l1.3 1.9c-.9.7-2.2 1.3-3.9 1.3-2.7 0-5-1.9-5-5.1v-.1c0-2.9 2-5.1 4.8-5.1 2.6 0 4.6 2 4.6 4.9v1.2h-6.7zm0-1.9h4c-.1-.9-.6-1.9-2-1.9-1.3 0-1.9 1-2 1.9zM426.5 568.1c0-3.6 1.7-7 5.7-7 2.2 0 3.8 1.1 4.5 2.7l-2.6 1c-.4-.9-1.1-1.3-2-1.3-1.8 0-2.5 1.6-2.7 3.5.6-.8 1.8-1.2 2.9-1.2 2.6 0 4.5 1.8 4.5 4.3 0 2.7-2 4.7-4.9 4.7-3.2 0-5.4-2.4-5.4-6.3v-.4zm5.3 4.4c1.4 0 2.3-1 2.3-2.2 0-1.2-.9-2.2-2.3-2.2s-2.3 1-2.3 2.2c0 1.2.9 2.2 2.3 2.2zM449.2 568c0 3.4-1.6 6.8-5.3 6.8s-5.3-3.4-5.3-6.8 1.6-6.8 5.3-6.8 5.3 3.3 5.3 6.8zm-2.8.2v-.5c0-2.5-.8-4.2-2.5-4.2s-2.5 1.7-2.5 4.2v.5c0 2.5.9 4.1 2.5 4.1s2.5-1.6 2.5-4.1zM451.3 567.6h4.9v2.4h-4.9v-2.4zM463.1 561.3v13.3h-2.8v-8.8h-2.4v-2.4h.5c1.6 0 2-.6 2-1.9v-.2h2.7zM469.2 564.7h1.9v2.3h-1.9v7.6h-2.6V567H465v-2.3h1.6v-1c0-1.7 1.2-2.5 3-2.5.9 0 1.7.1 2 .1l-.2 2.2c-.3-.1-.9-.1-1.3-.1-.7 0-1 .3-1 .7v.6zM482.7 567.8c0 3.6-1.7 7-5.7 7-2.2 0-3.8-1.1-4.5-2.7l2.6-1c.4.9 1.1 1.3 2 1.3 1.8 0 2.5-1.6 2.7-3.5-.6.8-1.8 1.2-2.9 1.2-2.6 0-4.5-1.8-4.5-4.3 0-2.7 2-4.7 4.9-4.7 3.2 0 5.4 2.4 5.4 6.3v.4zm-5.3-4.3c-1.4 0-2.3 1-2.3 2.2 0 1.2.9 2.2 2.3 2.2s2.3-1 2.3-2.2c0-1.3-.9-2.2-2.3-2.2zM484.7 574.6v-2.4s2.1-1.5 4.6-3.5c1.3-1 2.1-2 2.1-3.3 0-1-.7-1.9-1.9-1.9-1.6 0-2.1 1.1-2.1 2.5l-2.8-.2c0-3 2-4.8 5-4.8 2.6 0 4.7 1.7 4.7 4.3 0 1.4-.6 2.7-2 4.1-.8.8-2 1.6-3.4 2.6h5.6v2.5h-9.8zM496.5 567.6h4.9v2.4h-4.9v-2.4zM509.8 574.6v-3h-6.6v-2.9l6.1-7.4h3.2v7.9h1.9v2.4h-1.9v3h-2.7zm0-5.4v-5l-4.1 5h4.1zM526 564.9c0 .9-.5 2.1-1.8 2.8 1.5.6 2.2 1.9 2.2 3.1 0 2.8-2.6 4-5.2 4-2.7 0-5.2-1.2-5.2-4 0-1.2.7-2.5 2.2-3.1-1.3-.6-1.8-1.8-1.8-2.8 0-2.5 2.4-3.8 4.9-3.8 2.3 0 4.7 1.2 4.7 3.8zm-2.5 5.8c0-1.1-1-1.8-2.4-1.8s-2.4.8-2.4 1.8c0 1.1 1 1.8 2.4 1.8s2.4-.7 2.4-1.8zm-.3-5.7c0-1-.9-1.6-2.1-1.6s-2.1.6-2.1 1.6c0 1.1.8 1.6 2.1 1.6s2.1-.5 2.1-1.6zM534.4 574.6v-3h-6.6v-2.9l6.1-7.4h3.2v7.9h1.9v2.4h-1.9v3h-2.7zm0-5.4v-5l-4.1 5h4.1zM551.2 568c0 3.4-1.6 6.8-5.3 6.8s-5.3-3.4-5.3-6.8 1.6-6.8 5.3-6.8 5.3 3.3 5.3 6.8zm-2.8.2v-.5c0-2.5-.8-4.2-2.5-4.2s-2.5 1.7-2.5 4.2v.5c0 2.5.9 4.1 2.5 4.1s2.5-1.6 2.5-4.1zM553.3 567.6h4.9v2.4h-4.9v-2.4zM563.4 574.8c-1.8 0-3.4-1.1-3.4-3.1 0-1.6 1-2.7 2.8-2.9l3-.4v-.4c0-.9-.6-1.3-1.6-1.3-1.2 0-2.2.5-2.9.8l-1-2c1.2-.6 2.6-1.1 4-1.1 1.8 0 4 .5 4 3.2v4.3c0 .6.3.8.9 1l-1.2 1.8c-1-.1-1.6-.6-1.9-1.1-.6.8-1.5 1.2-2.7 1.2zm.3-4.2c-.6.1-1 .5-1 1 0 .6.5 1.2 1.3 1.2 1.2 0 1.8-.8 1.8-1.8v-.7l-2.1.3zM570.2 569.6c0-2.9 2-5.1 4.8-5.1 2 0 3.7 1 4.3 2.6l-2.3 1.2c-.4-.8-.9-1.3-2-1.3-1.6 0-2.2 1.4-2.2 2.7v.1c0 1.3.7 2.7 2.2 2.7 1 0 1.6-.5 2-1.3l2.3 1.2c-.6 1.6-2.3 2.6-4.4 2.6-2.7-.2-4.7-2.4-4.7-5.4zM584 574.8c-1.8 0-3.4-1.1-3.4-3.1 0-1.6 1-2.7 2.8-2.9l3-.4v-.4c0-.9-.6-1.3-1.6-1.3-1.2 0-2.2.5-2.9.8l-1-2c1.2-.6 2.6-1.1 4-1.1 1.8 0 4 .5 4 3.2v4.3c0 .6.3.8.9 1l-1.2 1.8c-1-.1-1.6-.6-1.9-1.1-.6.8-1.6 1.2-2.7 1.2zm.3-4.2c-.6.1-1 .5-1 1 0 .6.5 1.2 1.3 1.2 1.2 0 1.8-.8 1.8-1.8v-.7l-2.1.3zM591.3 568.6l.7-7.3h8.5v2.4h-6.2l-.3 2.6c.6-.7 1.7-1 2.7-1 2.7 0 4.5 1.9 4.5 4.6 0 2.9-2.3 4.8-5.2 4.8-2.4 0-4.5-1.1-5.1-3.4l2.6-.8c.3 1 1 1.8 2.5 1.8 1.6 0 2.5-1.1 2.5-2.4 0-1.3-.8-2.3-2.4-2.3-.9 0-1.7.4-2.1 1.1l-2.7-.1zM603 567.6h4.9v2.4H603v-2.4zM615.9 563.8h-6.7v-2.5h9.5v2.6l-5.1 10.7h-3.2l5.5-10.8zM620.3 568.6l.7-7.3h8.5v2.4h-6.2l-.3 2.6c.6-.7 1.7-1 2.7-1 2.7 0 4.5 1.9 4.5 4.6 0 2.9-2.3 4.8-5.2 4.8-2.4 0-4.5-1.1-5.1-3.4l2.6-.8c.3 1 1 1.8 2.5 1.8 1.6 0 2.5-1.1 2.5-2.4 0-1.3-.8-2.3-2.4-2.3-.9 0-1.7.4-2.1 1.1l-2.7-.1zM636.7 561.3v13.3h-2.8v-8.8h-2.4v-2.4h.5c1.6 0 2-.6 2-1.9v-.2h2.7zM643.9 561.3v13.3h-2.8v-8.8h-2.4v-2.4h.5c1.6 0 2-.6 2-1.9v-.2h2.7zM651.1 561.3v13.3h-2.8v-8.8h-2.4v-2.4h.5c1.6 0 2-.6 2-1.9v-.2h2.7zM653.4 568.1c0-3.6 1.7-7 5.7-7 2.2 0 3.8 1.1 4.5 2.7l-2.6 1c-.4-.9-1.1-1.3-2-1.3-1.8 0-2.5 1.6-2.7 3.5.6-.8 1.8-1.2 2.9-1.2 2.6 0 4.5 1.8 4.5 4.3 0 2.7-2 4.7-4.9 4.7-3.2 0-5.4-2.4-5.4-6.3v-.4zm5.3 4.4c1.4 0 2.3-1 2.3-2.2 0-1.2-.9-2.2-2.3-2.2s-2.3 1-2.3 2.2c0 1.2.9 2.2 2.3 2.2zM675.6 564.9c0 .9-.5 2.1-1.8 2.8 1.5.6 2.2 1.9 2.2 3.1 0 2.8-2.6 4-5.2 4-2.7 0-5.2-1.2-5.2-4 0-1.2.7-2.5 2.2-3.1-1.3-.6-1.8-1.8-1.8-2.8 0-2.5 2.4-3.8 4.9-3.8 2.3 0 4.7 1.2 4.7 3.8zm-2.5 5.8c0-1.1-1-1.8-2.4-1.8s-2.4.8-2.4 1.8c0 1.1 1 1.8 2.4 1.8s2.4-.7 2.4-1.8zm-.3-5.7c0-1-.9-1.6-2.1-1.6s-2.1.6-2.1 1.6c0 1.1.8 1.6 2.1 1.6s2.1-.5 2.1-1.6zM687.4 569.7c0 2.9-1.8 5.1-4.4 5.1-1.2 0-1.9-.5-2.5-1v.9H678v-13.3h2.6v4.2c.6-.6 1.3-1 2.5-1 2.6-.1 4.3 2 4.3 5.1zm-6.9.9c0 1.1.8 1.9 2.1 1.9 1.5 0 2.3-1.2 2.3-2.7v-.1c0-1.6-.8-2.7-2.3-2.7-1.3 0-2.1.8-2.1 1.9v1.7zM689.3 568.6l.7-7.3h8.5v2.4h-6.2l-.3 2.6c.6-.7 1.7-1 2.7-1 2.7 0 4.5 1.9 4.5 4.6 0 2.9-2.3 4.8-5.2 4.8-2.4 0-4.5-1.1-5.1-3.4l2.6-.8c.3 1 1 1.8 2.5 1.8 1.6 0 2.5-1.1 2.5-2.4 0-1.3-.8-2.3-2.4-2.3-.9 0-1.7.4-2.1 1.1l-2.7-.1zM710.6 569.7c0 2.9-1.8 5.1-4.4 5.1-1.2 0-1.9-.5-2.5-1v.9h-2.6v-13.3h2.6v4.2c.6-.6 1.3-1 2.5-1 2.6-.1 4.4 2 4.4 5.1zm-7 .9c0 1.1.8 1.9 2.1 1.9 1.5 0 2.3-1.2 2.3-2.7v-.1c0-1.6-.8-2.7-2.3-2.7-1.3 0-2.1.8-2.1 1.9v1.7zM714.7 570.5c.4 1.3 1.3 1.8 2.5 1.8 1.7 0 2.3-.9 2.3-1.7 0-1-.8-1.6-2.6-1.6h-.8v-2.4h.6c1.6 0 2.5-.5 2.5-1.6 0-1-.8-1.5-2-1.5-1.3 0-2.1.8-2.5 1.8l-2.5-.8c.5-2.3 2.8-3.4 5-3.4 2.7 0 4.8 1.4 4.8 3.8 0 1.3-.9 2.5-2.2 2.8 1.4.3 2.4 1.4 2.4 3.1 0 2.7-2.2 4-5.1 4-2.5 0-4.8-1.2-5.2-3.6l2.8-.7zM727.3 574.8c-1.8 0-3.4-1.1-3.4-3.1 0-1.6 1-2.7 2.8-2.9l3-.4v-.4c0-.9-.6-1.3-1.6-1.3-1.2 0-2.2.5-2.9.8l-1-2c1.2-.6 2.6-1.1 4-1.1 1.8 0 4 .5 4 3.2v4.3c0 .6.3.8.9 1l-1.2 1.8c-1-.1-1.6-.6-1.9-1.1-.6.8-1.5 1.2-2.7 1.2zm.3-4.2c-.6.1-1 .5-1 1 0 .6.5 1.2 1.3 1.2 1.2 0 1.8-.8 1.8-1.8v-.7l-2.1.3z"/>
  </g>
  <g>
    <path class="st5" d="M55.6 405.4c.9 1.1 2.2 1.7 3.8 1.7 1.6 0 3-.8 3-2.4 0-1-.5-1.5-1.3-1.9-1.3-.6-3.4-.7-4.8-1.5-.9-.5-1.6-1.3-1.6-2.8 0-2.1 1.7-3.7 4.5-3.7 1.7 0 3.4.7 4.4 1.8l-1.2 1c-.7-.7-1.8-1.4-3.2-1.4-1.6 0-2.9.8-2.9 2.2 0 2.2 3.1 1.9 5.4 2.9 1.2.5 2.2 1.4 2.2 3.2 0 2.6-2.4 4-4.8 4-2.2 0-3.8-.9-4.9-2.1l1.4-1zM68.7 406c0 .6.1 1.2 1.2 1.2.3 0 .9-.1 1.2-.1l.2 1.4s-.9.1-1.7.1c-1.5 0-2.4-.6-2.4-2.2v-6.1h-1.8v-1.4h1.8v-3.1l1.6-.6v3.6h2.6v1.4h-2.6v5.8zM76 408.6c-1.9 0-3.3-1.1-3.3-2.9 0-1.5 1-2.5 2.5-2.7l3.3-.5v-.5c0-1.4-.9-1.9-2.1-1.9-1.1 0-2 .3-2.7.7l-.6-1.2c1.1-.6 2.3-.9 3.5-.9 2.3 0 3.5 1 3.5 3v4.4c0 .6.2 1 .8 1.3l-.9 1.1c-.6-.2-1.1-.6-1.3-1.1-.5.7-1.4 1.2-2.7 1.2zm.1-4.4c-1 .2-1.7.5-1.7 1.5 0 1.1.9 1.7 1.9 1.7 1.2 0 2.3-.7 2.3-1.8v-1.7l-2.5.3zM85.6 406c0 .6.1 1.2 1.2 1.2.3 0 .9-.1 1.2-.1l.2 1.4s-.9.1-1.7.1c-1.5 0-2.4-.6-2.4-2.2v-6.1h-1.8v-1.4h1.8v-3.1l1.6-.6v3.6h2.6v1.4h-2.6v5.8zM97.8 408.4h-1.6v-1.1c-.6.9-1.6 1.3-2.8 1.3-2.1 0-3.2-1.5-3.2-3.2V399h1.6v5.9c0 1.7.9 2.3 2 2.3 1.3 0 2.4-.9 2.4-2.6V399h1.6v9.4zM100 407.2l.9-1.1c.6.5 1.6 1.2 2.9 1.2 1.1 0 1.9-.5 1.9-1.4 0-1-1-1.3-2.3-1.6-1.3-.4-2.9-.8-2.9-2.8 0-1.6 1.5-2.8 3.5-2.8 1.3 0 2.6.5 3.3 1.2l-.9 1c-.6-.5-1.4-.9-2.3-.9-1.3 0-1.9.6-1.9 1.4 0 .7.5 1 1.4 1.3.5.1 1.1.3 1.6.5 1.3.4 2.3 1.1 2.3 2.6 0 2-1.7 2.8-3.6 2.8-1.4 0-2.8-.4-3.9-1.4zM110.8 398.9c.7 0 1.3.6 1.3 1.3s-.6 1.3-1.3 1.3c-.7 0-1.3-.6-1.3-1.3s.6-1.3 1.3-1.3zm0 7.1c.7 0 1.3.6 1.3 1.3s-.6 1.3-1.3 1.3c-.7 0-1.3-.6-1.3-1.3s.6-1.3 1.3-1.3z"/>
  </g>
  <path class="st8" d="M915.7 371.3H52.6M915.7 426.9H52.6"/>
  <g>
    <path class="st5" d="M59.8 462.6h-4.4v-13.3h4.4c4.1 0 5.9 2.7 5.9 6.6.1 4-1.8 6.7-5.9 6.7zm4.2-6.9c0-2.8-1.3-5-4.2-5H57v10.5h2.8c3 0 4.2-2.2 4.2-5v-.5zM71 462.8c-1.9 0-3.3-1.1-3.3-2.9 0-1.5 1-2.5 2.5-2.7l3.3-.5v-.6c0-1.4-.9-1.9-2.1-1.9-1.1 0-2 .3-2.7.7l-.6-1.2c1.1-.6 2.3-.9 3.5-.9 2.3 0 3.5 1 3.5 3v4.4c0 .6.2 1 .8 1.3l-.9 1.1c-.6-.2-1.1-.6-1.3-1.1-.5.8-1.4 1.3-2.7 1.3zm0-4.4c-1 .2-1.7.5-1.7 1.5 0 1.1.9 1.7 1.9 1.7 1.2 0 2.3-.7 2.3-1.8V458l-2.5.4zM80.6 460.2c0 .6.1 1.2 1.2 1.2.3 0 .9-.1 1.2-.1l.2 1.4s-.9.1-1.7.1c-1.5 0-2.4-.6-2.4-2.2v-6.1h-1.8v-1.4H79V450l1.6-.6v3.6h2.6v1.4h-2.6v5.8zM86.4 458.3c.1 1.8 1.2 3.1 2.9 3.1 1.1 0 1.8-.4 2.5-.9l.8 1.1c-.9.7-2 1.2-3.4 1.2-2.8 0-4.5-2.1-4.5-4.9 0-2.9 1.7-4.9 4.3-4.9 2.5 0 4 2.1 4 4.9v.5h-6.6zm0-1.2h5c-.1-1.5-.9-2.8-2.4-2.8s-2.5 1.3-2.6 2.8zM101.5 457.9c0 1.9.9 3.5 2.8 3.5 1.2 0 2-.7 2.5-1.6l1.3.7c-.6 1.3-2 2.2-3.7 2.2-2.6 0-4.4-2.1-4.4-4.9 0-2.9 1.7-4.9 4.4-4.9 1.7 0 3.1.9 3.7 2.2l-1.3.7c-.5-.9-1.3-1.6-2.5-1.6-1.9.1-2.8 1.7-2.8 3.7zM115.2 454.5h-.2c-1.6 0-3 .6-3 3.2v4.9h-1.6v-9.5h1.6v1.5c.5-1.1 1.6-1.7 2.8-1.7h.5v1.6zM118 458.3c.1 1.8 1.2 3.1 2.9 3.1 1.1 0 1.8-.4 2.5-.9l.8 1.1c-.9.7-2 1.2-3.4 1.2-2.8 0-4.5-2.1-4.5-4.9 0-2.9 1.7-4.9 4.3-4.9 2.5 0 4 2.1 4 4.9v.5H118zm.1-1.2h5c-.1-1.5-.9-2.8-2.4-2.8-1.6 0-2.6 1.3-2.6 2.8zM129.7 462.8c-1.9 0-3.3-1.1-3.3-2.9 0-1.5 1-2.5 2.5-2.7l3.3-.5v-.6c0-1.4-.9-1.9-2.1-1.9-1.1 0-2 .3-2.7.7l-.6-1.2c1.1-.6 2.3-.9 3.5-.9 2.3 0 3.5 1 3.5 3v4.4c0 .6.2 1 .8 1.3l-.9 1.1c-.6-.2-1.1-.6-1.3-1.1-.5.8-1.4 1.3-2.7 1.3zm0-4.4c-1 .2-1.7.5-1.7 1.5 0 1.1.9 1.7 1.9 1.7 1.2 0 2.3-.7 2.3-1.8V458l-2.5.4zM139.3 460.2c0 .6.1 1.2 1.2 1.2.3 0 .9-.1 1.2-.1l.2 1.4s-.9.1-1.7.1c-1.5 0-2.4-.6-2.4-2.2v-6.1H136v-1.4h1.8V450l1.6-.6v3.6h2.6v1.4h-2.6v5.8zM144.9 449.3c.6 0 1.1.5 1.1 1.2 0 .6-.5 1.2-1.1 1.2-.6 0-1.2-.5-1.2-1.2s.5-1.2 1.2-1.2zm.7 13.3H144v-9.5h1.6v9.5zM149.7 458.3c.1 1.8 1.2 3.1 2.9 3.1 1.1 0 1.8-.4 2.5-.9l.8 1.1c-.9.7-2 1.2-3.4 1.2-2.8 0-4.5-2.1-4.5-4.9 0-2.9 1.7-4.9 4.3-4.9 2.5 0 4 2.1 4 4.9v.5h-6.6zm.1-1.2h5c-.1-1.5-.9-2.8-2.4-2.8-1.6 0-2.6 1.3-2.6 2.8zM165.1 461.5c-.6.8-1.6 1.3-2.8 1.3-2.5 0-4-2.1-4-4.9 0-2.9 1.6-4.9 4-4.9 1.2 0 2.2.5 2.8 1.3v-4.9h1.6v13.3h-1.6v-1.2zm-5.2-3.6c0 2 .9 3.5 2.7 3.5 1.7 0 2.5-1.2 2.5-2.8v-1.5c0-1.6-.9-2.8-2.5-2.8-1.8 0-2.7 1.5-2.7 3.6zM170.7 453.1c.7 0 1.3.6 1.3 1.3s-.6 1.3-1.3 1.3c-.7 0-1.3-.6-1.3-1.3s.6-1.3 1.3-1.3zm0 7.1c.7 0 1.3.6 1.3 1.3s-.6 1.3-1.3 1.3c-.7 0-1.3-.6-1.3-1.3s.6-1.3 1.3-1.3z"/>
  </g>
  <path class="st8" d="M915.7 482.6H52.6"/>
  <g>
    <path class="st5" d="M54.9 505.7h4.7c2.5 0 4.1 1.7 4.1 4.2s-1.8 4.2-4.3 4.2h-2.8v5H55v-13.4zm4.3 1.4h-2.7v5.5h2.7c1.7 0 2.7-1.1 2.7-2.7v-.1c.1-1.5-1-2.7-2.7-2.7zM70.7 510.9h-.2c-1.6 0-3 .6-3 3.2v4.9h-1.6v-9.5h1.6v1.5c.5-1.1 1.6-1.7 2.8-1.7h.5v1.6zM80.6 514.3c0 2.8-1.7 4.9-4.4 4.9-2.6 0-4.4-2.1-4.4-4.9 0-2.9 1.7-4.9 4.4-4.9s4.4 2 4.4 4.9zm-1.6 0v-.1c0-1.9-1-3.5-2.8-3.5s-2.8 1.6-2.8 3.5v.1c0 1.9 1 3.5 2.8 3.5s2.8-1.6 2.8-3.5zM84.9 519l-3-9.5h1.8l2.3 8 2.3-8H90l-3 9.5h-2.1zM92.9 505.7c.6 0 1.1.5 1.1 1.2 0 .6-.5 1.2-1.1 1.2-.6 0-1.2-.5-1.2-1.2 0-.6.5-1.2 1.2-1.2zm.7 13.3H92v-9.5h1.6v9.5zM102.9 517.9c-.6.8-1.6 1.3-2.8 1.3-2.5 0-4-2.1-4-4.9 0-2.9 1.6-4.9 4-4.9 1.2 0 2.2.5 2.8 1.3v-4.9h1.6V519h-1.6v-1.1zm-5.2-3.6c0 2 .9 3.5 2.7 3.5 1.7 0 2.5-1.2 2.5-2.8v-1.5c0-1.6-.9-2.8-2.5-2.8-1.7 0-2.7 1.6-2.7 3.6zM108.6 514.8c.1 1.8 1.2 3.1 2.9 3.1 1.1 0 1.8-.4 2.5-.9l.8 1.1c-.9.7-2 1.2-3.4 1.2-2.8 0-4.5-2.1-4.5-4.9 0-2.9 1.7-4.9 4.3-4.9 2.5 0 4 2.1 4 4.9v.5h-6.6zm0-1.3h5c-.1-1.5-.9-2.8-2.4-2.8s-2.5 1.4-2.6 2.8zM122.5 510.9h-.2c-1.6 0-3 .6-3 3.2v4.9h-1.6v-9.5h1.6v1.5c.5-1.1 1.6-1.7 2.8-1.7h.5v1.6zM125.6 509.5c.7 0 1.3.6 1.3 1.3s-.6 1.3-1.3 1.3c-.7 0-1.3-.6-1.3-1.3s.6-1.3 1.3-1.3zm0 7.2c.7 0 1.3.6 1.3 1.3s-.6 1.3-1.3 1.3c-.7 0-1.3-.6-1.3-1.3s.6-1.3 1.3-1.3z"/>
  </g>
  <g>
    <path class="st5" d="M55.4 561.3h4.7c2.5 0 4.1 1.7 4.1 4.2s-1.8 4.2-4.3 4.2H57v5h-1.6v-13.4zm4.3 1.4H57v5.5h2.7c1.7 0 2.7-1.1 2.7-2.7v-.1c.1-1.5-1-2.7-2.7-2.7zM71.2 566.5H71c-1.6 0-3 .6-3 3.2v4.9h-1.6v-9.5H68v1.5c.5-1.1 1.6-1.7 2.8-1.7h.5v1.6zM81.1 569.9c0 2.8-1.7 4.9-4.4 4.9-2.6 0-4.4-2.1-4.4-4.9 0-2.9 1.7-4.9 4.4-4.9 2.7-.1 4.4 2 4.4 4.9zm-1.6 0v-.1c0-1.9-1-3.5-2.8-3.5s-2.8 1.6-2.8 3.5v.1c0 1.9 1 3.5 2.8 3.5s2.8-1.6 2.8-3.5zM85.4 574.6l-3-9.5h1.8l2.3 8 2.3-8h1.8l-3 9.5h-2.2zM93.4 561.3c.6 0 1.1.5 1.1 1.2 0 .6-.5 1.2-1.1 1.2-.6 0-1.2-.5-1.2-1.2s.5-1.2 1.2-1.2zm.7 13.3h-1.6v-9.5h1.6v9.5zM103.4 573.5c-.6.8-1.6 1.3-2.8 1.3-2.5 0-4-2.1-4-4.9 0-2.9 1.6-4.9 4-4.9 1.2 0 2.2.5 2.8 1.3v-4.9h1.6v13.3h-1.6v-1.2zm-5.2-3.6c0 2 .9 3.5 2.7 3.5 1.7 0 2.5-1.2 2.5-2.8v-1.5c0-1.6-.9-2.8-2.5-2.8-1.7 0-2.7 1.5-2.7 3.6zM109.1 570.3c.1 1.8 1.2 3.1 2.9 3.1 1.1 0 1.8-.4 2.5-.9l.8 1.1c-.9.7-2 1.2-3.4 1.2-2.8 0-4.5-2.1-4.5-4.9 0-2.9 1.7-4.9 4.3-4.9 2.5 0 4 2.1 4 4.9v.5h-6.6zm0-1.2h5c-.1-1.5-.9-2.8-2.4-2.8s-2.5 1.3-2.6 2.8zM123 566.5h-.2c-1.6 0-3 .6-3 3.2v4.9h-1.6v-9.5h1.6v1.5c.5-1.1 1.6-1.7 2.8-1.7h.5v1.6zM130 561.3h1.6v13.3H130v-13.3zM139.9 574.6h-4.4v-13.3h4.4c4.1 0 5.9 2.7 5.9 6.6 0 4-1.8 6.7-5.9 6.7zm4.2-6.9c0-2.8-1.3-5-4.2-5h-2.8v10.5h2.8c3 0 4.2-2.2 4.2-5v-.5zM149.6 565.1c.7 0 1.3.6 1.3 1.3s-.6 1.3-1.3 1.3c-.7 0-1.3-.6-1.3-1.3s.6-1.3 1.3-1.3zm0 7.1c.7 0 1.3.6 1.3 1.3s-.6 1.3-1.3 1.3c-.7 0-1.3-.6-1.3-1.3s.6-1.3 1.3-1.3z"/>
  </g>
  <path class="st8" d="M915.7 539.1H52.6M915.7 594.6H52.6"/>
  <path class="st18" d="M719.2 149.1H915v34.5H719.2z"/>
  <path class="st19" d="M719.2 145.1H915v34.5H719.2z"/>
  <g>
    <path class="st4" d="M745.9 155.7h4.5c2.5 0 4.4 1.2 4.4 4 0 1.7-.9 3-2.6 3.7l2.8 5.6h-1.9l-2.5-5.3h-3.1v5.3h-1.6v-13.3zm4.7 6.5c1.5 0 2.6-.9 2.6-2.5 0-1.7-1.1-2.6-2.6-2.6h-3v5.1h3zM758.3 164.7c.1 1.8 1.2 3.1 2.9 3.1 1.1 0 1.8-.4 2.5-.9l.8 1.1c-.9.7-2 1.2-3.4 1.2-2.8 0-4.5-2.1-4.5-4.9 0-2.9 1.7-4.9 4.3-4.9 2.5 0 4 2.1 4 4.9v.5h-6.6zm0-1.3h5c-.1-1.5-.9-2.8-2.4-2.8-1.5.1-2.5 1.4-2.6 2.8zM769.6 159.5h1.9v1.4h-1.9v8.1H768v-8.1h-1.6v-1.4h1.6v-1.8c0-1.6 1.1-2.2 2.6-2.2.8 0 1.3.1 1.5.1l-.1 1.3c-.4 0-1-.1-1.3-.1-.9 0-1.1.6-1.1 1.1v1.6zM781.1 169h-1.6v-1.1c-.6.9-1.6 1.3-2.8 1.3-2.1 0-3.2-1.5-3.2-3.2v-6.4h1.6v5.9c0 1.7.9 2.3 2 2.3 1.3 0 2.4-.9 2.4-2.6v-5.6h1.6v9.4zM784.1 159.5h1.6v1.1c.6-.9 1.6-1.3 2.8-1.3 2.1 0 3.2 1.5 3.2 3.2v6.4h-1.6V163c0-1.7-.9-2.3-2-2.3-1.2 0-2.4.9-2.4 2.6v5.6h-1.6v-9.4zM800.8 167.9c-.6.8-1.6 1.3-2.8 1.3-2.5 0-4-2.1-4-4.9 0-2.9 1.6-4.9 4-4.9 1.2 0 2.2.5 2.8 1.3v-4.9h1.6V169h-1.6v-1.1zm-5.2-3.6c0 2 .9 3.5 2.7 3.5 1.7 0 2.5-1.2 2.5-2.8v-1.5c0-1.6-.9-2.8-2.5-2.8-1.7 0-2.7 1.5-2.7 3.6zM812 159.5v1.1c.6-.8 1.6-1.3 2.8-1.3 2.5 0 4 2.1 4 4.9 0 2.9-1.6 4.9-4 4.9-1.2 0-2.2-.5-2.8-1.3v4h-1.6v-12.4h1.6zm5.2 4.7c0-2-1-3.5-2.7-3.5-1.7 0-2.5 1.2-2.5 2.8v1.5c0 1.6.9 2.8 2.5 2.8 1.7 0 2.7-1.6 2.7-3.6zM823.9 169.1c-1.9 0-3.3-1.1-3.3-2.9 0-1.5 1-2.5 2.5-2.7l3.3-.5v-.6c0-1.4-.9-1.9-2.1-1.9-1.1 0-2 .3-2.7.7l-.6-1.2c1.1-.6 2.3-.9 3.5-.9 2.3 0 3.5 1 3.5 3v4.4c0 .6.2 1 .8 1.3l-.9 1.1c-.6-.2-1.1-.6-1.3-1.1-.5.8-1.5 1.3-2.7 1.3zm0-4.4c-1 .2-1.7.5-1.7 1.5 0 1.1.9 1.7 1.9 1.7 1.2 0 2.3-.7 2.3-1.8v-1.7l-2.5.3zM829.9 159.5h1.8l2.3 7.8 2.2-7.8h1.7l-3.5 10.9c-.4 1.3-1.3 1.7-2.5 1.7-.5 0-1.1-.1-1.7-.2l.2-1.4s.6.1 1.3.1c.7 0 1-.3 1.2-1l.1-.4-3.1-9.7zM847.1 169h-1.6v-6c0-1.7-.9-2.3-1.9-2.3s-2.1.8-2.1 2.6v5.6H840v-9.5h1.6v1.1c.6-.9 1.5-1.3 2.5-1.3.9 0 2.1.4 2.6 1.6.7-1.2 1.8-1.6 2.9-1.6 2.1 0 3.2 1.5 3.2 3.2v6.5h-1.6v-6c0-1.7-.9-2.3-1.9-2.3-1 0-2.1.8-2.1 2.6v5.8zM856.7 164.7c.1 1.8 1.2 3.1 2.9 3.1 1.1 0 1.8-.4 2.5-.9l.8 1.1c-.9.7-2 1.2-3.4 1.2-2.8 0-4.5-2.1-4.5-4.9 0-2.9 1.7-4.9 4.3-4.9 2.5 0 4 2.1 4 4.9v.5h-6.6zm0-1.3h5c-.1-1.5-.9-2.8-2.4-2.8-1.5.1-2.5 1.4-2.6 2.8zM865.8 159.5h1.6v1.1c.6-.9 1.6-1.3 2.8-1.3 2.1 0 3.2 1.5 3.2 3.2v6.4h-1.6V163c0-1.7-.9-2.3-2-2.3-1.2 0-2.4.9-2.4 2.6v5.6h-1.6v-9.4zM878.7 166.6c0 .6.1 1.2 1.2 1.2.3 0 .9-.1 1.2-.1l.2 1.4s-.9.1-1.7.1c-1.5 0-2.4-.6-2.4-2.2v-6.1h-1.8v-1.4h1.8v-3.1l1.6-.6v3.6h2.6v1.4h-2.6v5.8z"/>
  </g>
  <g class="st20">
    <path class="st5" d="M0 40.3h956V636H0z"/>
  </g>
  <path class="st3" d="M4 640V40h952v600h4V36H0v604z"/>
  <path class="st3" d="M.3 636h960v4H.3z"/>
  <g>
    <path class="st4" d="M665.9 586.5H294.1c-3.6 0-6.4-3.2-6.4-7.1V164.1c0-3.9 2.9-7.1 6.4-7.1h371.8c3.6 0 6.4 3.2 6.4 7.1v415.3c.1 3.9-2.8 7.1-6.4 7.1z"/>
    <path class="st5" d="M314.7 186h9.8c6 0 9.2 3.7 9.2 7.8 0 3.3-2.1 6-4.9 7l5.5 10.4h-5.9l-4.6-9.1h-4v9.1h-5.1V186zm9.2 4.6h-4.1v6.9h4.1c2.9 0 4.4-1.4 4.4-3.5s-1.5-3.4-4.4-3.4zM341.1 203.5c.5 2.4 2.3 3.7 4.6 3.7 1.8 0 3.5-.6 4.8-1.8l2.4 3.7c-1.7 1.4-4.2 2.5-7.3 2.5-5.2 0-9.5-3.6-9.5-9.6v-.2c0-5.5 3.8-9.7 9.1-9.7 5 0 8.6 3.8 8.6 9.3v2.2h-12.7zm.1-3.7h7.6c-.1-1.7-1.2-3.6-3.7-3.6-2.6 0-3.8 1.9-3.9 3.6zM363.6 192.4h3.6v4.4h-3.6v14.5h-4.9v-14.5h-3v-4.4h3v-1.9c0-3.3 2.3-4.8 5.7-4.8 1.7 0 3.3.2 3.9.3l-.4 4.1c-.6-.1-1.7-.2-2.4-.2-1.4 0-1.9.6-1.9 1.4v1.1zM386.4 211.2h-4.9v-1.6c-1 1-2.5 2-4.8 2-4.1 0-6.5-2.8-6.5-6.5v-12.7h4.9v10.9c0 2.7 1.3 3.7 3 3.7 2 0 3.5-1.4 3.5-4.3v-10.3h4.9v18.8zM390.9 192.4h4.9v1.6c1-1 2.5-2 4.8-2 4.1 0 6.5 2.8 6.5 6.5v12.7h-4.9v-10.9c0-2.7-1.3-3.7-3-3.7-2 0-3.5 1.4-3.5 4.3v10.3h-4.9v-18.8zM410.5 201.7c0-5.6 3.3-9.7 8.3-9.7 2.2 0 3.7.9 4.8 2v-8h4.9v25.2h-4.9v-1.6c-1 1.1-2.4 2-4.6 2-5 0-8.4-4.1-8.4-9.7v-.2zm13.2-1.6c0-2-1.5-3.5-3.9-3.5-2.8 0-4.3 2.2-4.3 5.2v.2c0 3 1.5 5.2 4.3 5.2 2.4 0 3.9-1.5 3.9-3.5v-3.6zM446.5 192.4v1.6c1-1.1 2.6-2 4.8-2 5 0 8.3 4.1 8.3 9.7v.2c0 5.6-3.4 9.7-8.4 9.7-2.2 0-3.6-.9-4.6-2v7.6h-4.9v-24.8h4.8zm-.1 11.1c0 2 1.5 3.5 3.9 3.5 2.8 0 4.3-2.2 4.3-5.2v-.2c0-3-1.5-5.2-4.3-5.2-2.4 0-3.9 1.5-3.9 3.5v3.6zM468.6 211.6c-3.4 0-6.5-2.2-6.5-5.9 0-3 2-5 5.3-5.5l5.7-.8v-.6c0-1.7-1.1-2.4-3-2.4-2.3 0-4.1.9-5.5 1.5l-1.9-3.7c2.2-1.2 4.9-2.1 7.6-2.1 3.5 0 7.6.9 7.6 6v8.1c0 1.1.6 1.5 1.6 1.9l-2.2 3.5c-1.8-.1-3-1.1-3.5-2.1-1.2 1.4-3 2.1-5.2 2.1zm.6-8c-1.2.2-2 .9-2 1.9 0 1.2.9 2.2 2.6 2.2 2.3 0 3.3-1.5 3.3-3.5V203l-3.9.6zM486.3 212l.1-.6h-.4l-5.8-19h5.4l3.5 13 3.4-13h5.3l-6.5 21.6c-.8 2.8-3 3.6-5.9 3.6-1.2 0-3.1-.1-4.4-.4l1-4.3s1.3.2 2.6.2c1.1 0 1.5-.4 1.7-1.1zM516.4 211.2h-4.9v-10.9c0-2.7-1.3-3.6-2.8-3.6-1.9 0-3.3 1.3-3.3 4.3v10.3h-4.9v-18.8h4.9v1.7c1.2-1.4 3-2 4.8-2 1.9 0 3.7.8 4.9 2.6 1.3-1.9 3.5-2.6 5.7-2.6 4.2 0 6.7 3 6.7 6.3v12.9h-4.9v-10.9c0-2.7-1.3-3.6-2.8-3.6-1.9 0-3.3 1.3-3.3 4.3v10zM535.9 203.5c.5 2.4 2.3 3.7 4.6 3.7 1.8 0 3.5-.6 4.8-1.8l2.4 3.7c-1.7 1.4-4.2 2.5-7.3 2.5-5.2 0-9.5-3.6-9.5-9.6v-.2c0-5.5 3.8-9.7 9.1-9.7 5 0 8.6 3.8 8.6 9.3v2.2h-12.7zm0-3.7h7.6c-.1-1.7-1.2-3.6-3.7-3.6s-3.7 1.9-3.9 3.6zM552.1 192.4h4.9v1.6c1-1 2.5-2 4.8-2 4.1 0 6.5 2.8 6.5 6.5v12.7h-4.9v-10.9c0-2.7-1.3-3.7-3-3.7-2 0-3.5 1.4-3.5 4.3v10.3H552v-18.8zM579.6 205.6c0 .9.4 1.6 2.1 1.6.7 0 1.9-.1 2.4-.2l.4 4.3s-2.4.3-4.5.3c-3.3 0-5.3-1.5-5.3-4.8v-10h-3.4v-4.4h3.4v-5.3l4.9-1.3v6.6h4.9v4.4h-4.9v8.8z"/>
    <path class="st18" d="M314.6 520.5h195.8V555H314.6z"/>
    <path class="st19" d="M314.6 516.5h195.8V551H314.6z"/>
    <g>
      <path class="st4" d="M341.3 527.1h4.5c2.5 0 4.4 1.2 4.4 4 0 1.7-.9 3-2.6 3.7l2.8 5.6h-1.9l-2.5-5.3h-3.1v5.3h-1.6v-13.3zm4.6 6.5c1.5 0 2.6-.9 2.6-2.5 0-1.7-1.1-2.6-2.6-2.6h-3v5.1h3zM353.7 536.1c.1 1.8 1.2 3.1 2.9 3.1 1.1 0 1.8-.4 2.5-.9l.8 1.1c-.9.7-2 1.2-3.4 1.2-2.8 0-4.5-2.1-4.5-4.9 0-2.9 1.7-4.9 4.3-4.9 2.5 0 4 2.1 4 4.9v.5h-6.6zm0-1.2h5c-.1-1.5-.9-2.8-2.4-2.8s-2.5 1.3-2.6 2.8zM365 530.9h1.9v1.4H365v8.1h-1.6v-8.1h-1.6v-1.4h1.6v-1.8c0-1.6 1.1-2.2 2.6-2.2.8 0 1.3.1 1.5.1l-.1 1.3c-.4 0-1-.1-1.3-.1-.9 0-1.1.6-1.1 1.1v1.6zM376.5 540.4h-1.6v-1.1c-.6.9-1.6 1.3-2.8 1.3-2.1 0-3.2-1.5-3.2-3.2V531h1.6v5.9c0 1.7.9 2.3 2 2.3 1.3 0 2.4-.9 2.4-2.6V531h1.6v9.4zM379.5 530.9h1.6v1.1c.6-.9 1.6-1.3 2.8-1.3 2.1 0 3.2 1.5 3.2 3.2v6.4h-1.6v-5.9c0-1.7-.9-2.3-2-2.3-1.2 0-2.4.9-2.4 2.6v5.6h-1.6v-9.4zM396.2 539.3c-.6.8-1.6 1.3-2.8 1.3-2.5 0-4-2.1-4-4.9 0-2.9 1.6-4.9 4-4.9 1.2 0 2.2.5 2.8 1.3v-4.9h1.6v13.3h-1.6v-1.2zm-5.2-3.6c0 2 .9 3.5 2.7 3.5 1.7 0 2.5-1.2 2.5-2.8v-1.5c0-1.6-.9-2.8-2.5-2.8-1.7 0-2.7 1.5-2.7 3.6zM407.3 530.9v1.1c.6-.8 1.6-1.3 2.8-1.3 2.5 0 4 2.1 4 4.9 0 2.9-1.6 4.9-4 4.9-1.2 0-2.2-.5-2.8-1.3v4h-1.6v-12.4h1.6zm5.2 4.7c0-2-1-3.5-2.7-3.5-1.7 0-2.5 1.2-2.5 2.8v1.5c0 1.6.9 2.8 2.5 2.8 1.8 0 2.7-1.5 2.7-3.6zM419.2 540.6c-1.9 0-3.3-1.1-3.3-2.9 0-1.5 1-2.5 2.5-2.7l3.3-.5v-.5c0-1.4-.9-1.9-2.1-1.9-1.1 0-2 .3-2.7.7l-.6-1.2c1.1-.6 2.3-.9 3.5-.9 2.3 0 3.5 1 3.5 3v4.4c0 .6.2 1 .8 1.3l-.9 1.1c-.6-.2-1.1-.6-1.3-1.1-.5.7-1.4 1.2-2.7 1.2zm.1-4.4c-1 .2-1.7.5-1.7 1.5 0 1.1.9 1.7 1.9 1.7 1.2 0 2.3-.7 2.3-1.8v-1.7l-2.5.3zM425.3 530.9h1.8l2.3 7.8 2.2-7.8h1.7l-3.5 10.9c-.4 1.3-1.3 1.7-2.5 1.7-.5 0-1.1-.1-1.7-.2l.2-1.4s.6.1 1.3.1c.7 0 1-.3 1.2-1l.1-.4-3.1-9.7zM442.5 540.4h-1.6v-6c0-1.7-.9-2.3-1.9-2.3s-2.1.8-2.1 2.6v5.6h-1.6v-9.5h1.6v1.1c.6-.9 1.5-1.3 2.5-1.3.9 0 2.1.4 2.6 1.6.7-1.2 1.8-1.6 2.9-1.6 2.1 0 3.2 1.5 3.2 3.2v6.5h-1.6v-6c0-1.7-.9-2.3-1.9-2.3-1 0-2.1.8-2.1 2.6v5.8zM452.1 536.1c.1 1.8 1.2 3.1 2.9 3.1 1.1 0 1.8-.4 2.5-.9l.8 1.1c-.9.7-2 1.2-3.4 1.2-2.8 0-4.5-2.1-4.5-4.9 0-2.9 1.7-4.9 4.3-4.9 2.5 0 4 2.1 4 4.9v.5h-6.6zm0-1.2h5c-.1-1.5-.9-2.8-2.4-2.8s-2.5 1.3-2.6 2.8zM461.2 530.9h1.6v1.1c.6-.9 1.6-1.3 2.8-1.3 2.1 0 3.2 1.5 3.2 3.2v6.4h-1.6v-5.9c0-1.7-.9-2.3-2-2.3-1.2 0-2.4.9-2.4 2.6v5.6h-1.6v-9.4zM474.1 538c0 .6.1 1.2 1.2 1.2.3 0 .9-.1 1.2-.1l.2 1.4s-.9.1-1.7.1c-1.5 0-2.4-.6-2.4-2.2v-6.1h-1.8v-1.4h1.8v-3.1l1.6-.6v3.6h2.6v1.4h-2.6v5.8z"/>
    </g>
    <g>
      <path class="st4" d="M332 285.2c-9.1 0-16.4-7.4-16.4-16.4 0-9.1 7.4-16.4 16.4-16.4 9.1 0 16.4 7.4 16.4 16.4.1 9-7.3 16.4-16.4 16.4z"/>
      <path class="st5" d="M332 253.4c8.5 0 15.4 6.9 15.4 15.4s-6.9 15.4-15.4 15.4-15.4-6.9-15.4-15.4 6.9-15.4 15.4-15.4m0-2c-9.6 0-17.4 7.8-17.4 17.4s7.8 17.4 17.4 17.4 17.4-7.8 17.4-17.4-7.7-17.4-17.4-17.4z"/>
    </g>
    <g>
      <path class="st4" d="M332 357.2c-9.1 0-16.4-7.4-16.4-16.4 0-9.1 7.4-16.4 16.4-16.4 9.1 0 16.4 7.4 16.4 16.4.1 9-7.3 16.4-16.4 16.4z"/>
      <path class="st5" d="M332 325.4c8.5 0 15.4 6.9 15.4 15.4s-6.9 15.4-15.4 15.4-15.4-6.9-15.4-15.4 6.9-15.4 15.4-15.4m0-2c-9.6 0-17.4 7.8-17.4 17.4s7.8 17.4 17.4 17.4 17.4-7.8 17.4-17.4-7.7-17.4-17.4-17.4z"/>
    </g>
    <g>
      <path class="st5" d="M364 261.8h9v2.4h-6.3v2.8h5.8v2.4h-5.8v5.6H364v-13.2zM383.1 275.1h-2.6v-.9c-.6.6-1.3 1-2.5 1-2.2 0-3.4-1.5-3.4-3.4v-6.7h2.6v5.8c0 1.4.7 1.9 1.6 1.9 1 0 1.8-.7 1.8-2.3v-5.4h2.6v10zM385.5 261.8h2.6v10.6c0 .4.2.6.8.6.3 0 .7 0 1-.1l.2 2.2s-1.2.2-2.2.2c-1.4 0-2.3-.8-2.3-2.2v-11.3zM391.1 261.8h2.6v10.6c0 .4.2.6.8.6.3 0 .7 0 1-.1l.2 2.2s-1.2.2-2.2.2c-1.4 0-2.3-.8-2.3-2.2v-11.3zM406.7 267.6h-.5c-1.5 0-2.8.5-2.8 2.6v4.8H401v-9.9h2.6v1.1c.4-.7 1.3-1.3 2.6-1.3h.6v2.7zM410.3 271c.2 1.3 1.2 1.9 2.4 1.9 1 0 1.8-.3 2.5-.9l1.3 1.9c-.9.7-2.2 1.3-3.9 1.3-2.7 0-5-1.9-5-5.1v-.1c0-2.9 2-5.1 4.8-5.1 2.6 0 4.6 2 4.6 4.9v1.2h-6.7zm.1-1.9h4c-.1-.9-.6-1.9-2-1.9-1.3 0-2 1-2 1.9zM422.2 265.2h1.9v2.3h-1.9v7.6h-2.6v-7.6H418v-2.3h1.6v-1c0-1.7 1.2-2.5 3-2.5.9 0 1.7.1 2 .1l-.2 2.2c-.3-.1-.9-.1-1.3-.1-.7 0-1 .3-1 .7v.6zM434.2 275.1h-2.6v-.9c-.6.6-1.3 1-2.5 1-2.2 0-3.4-1.5-3.4-3.4v-6.7h2.6v5.8c0 1.4.7 1.9 1.6 1.9 1 0 1.8-.7 1.8-2.3v-5.4h2.6v10zM436.6 265.2h2.6v.9c.6-.6 1.3-1 2.5-1 2.2 0 3.4 1.5 3.4 3.4v6.7h-2.6v-5.8c0-1.4-.7-1.9-1.6-1.9-1 0-1.8.7-1.8 2.3v5.4h-2.6v-10zM447 270.1c0-2.9 1.7-5.1 4.4-5.1 1.2 0 2 .5 2.5 1v-4.2h2.6v13.3h-2.6v-.9c-.6.6-1.3 1-2.5 1-2.6.1-4.4-2.1-4.4-5.1zm6.9-.9c0-1.1-.8-1.9-2.1-1.9-1.5 0-2.3 1.2-2.3 2.7v.1c0 1.6.8 2.7 2.3 2.7 1.3 0 2.1-.8 2.1-1.9v-1.7zM364.5 284.6h4.5c2.5 0 4.4 1.2 4.4 4 0 1.7-.9 3-2.6 3.7l2.8 5.6h-1.9l-2.5-5.3h-3.1v5.3h-1.6v-13.3zm4.6 6.5c1.5 0 2.6-.9 2.6-2.5 0-1.7-1.1-2.6-2.6-2.6h-3v5.1h3zM376.9 293.6c.1 1.8 1.2 3.1 2.9 3.1 1.1 0 1.8-.4 2.5-.9l.8 1.1c-.9.7-2 1.2-3.4 1.2-2.8 0-4.5-2.1-4.5-4.9 0-2.9 1.7-4.9 4.3-4.9 2.5 0 4 2.1 4 4.9v.5h-6.6zm0-1.2h5c-.1-1.5-.9-2.8-2.4-2.8-1.6 0-2.5 1.3-2.6 2.8zM388.2 288.4h1.9v1.4h-1.9v8.1h-1.6v-8.1H385v-1.4h1.6v-1.8c0-1.6 1.1-2.2 2.6-2.2.8 0 1.3.1 1.5.1l-.1 1.3c-.4 0-1-.1-1.3-.1-.9 0-1.1.6-1.1 1.1v1.6zM399.6 297.9H398v-1.1c-.6.9-1.6 1.3-2.8 1.3-2.1 0-3.2-1.5-3.2-3.2v-6.4h1.6v5.9c0 1.7.9 2.3 2 2.3 1.3 0 2.4-.9 2.4-2.6v-5.6h1.6v9.4zM402.7 288.4h1.6v1.1c.6-.9 1.6-1.3 2.8-1.3 2.1 0 3.2 1.5 3.2 3.2v6.4h-1.6v-5.9c0-1.7-.9-2.3-2-2.3-1.2 0-2.4.9-2.4 2.6v5.6h-1.6v-9.4zM419.4 296.8c-.6.8-1.6 1.3-2.8 1.3-2.5 0-4-2.1-4-4.9 0-2.9 1.6-4.9 4-4.9 1.2 0 2.2.5 2.8 1.3v-4.9h1.6V298h-1.6v-1.2zm-5.2-3.6c0 2 .9 3.5 2.7 3.5 1.7 0 2.5-1.2 2.5-2.8v-1.5c0-1.6-.9-2.8-2.5-2.8-1.8 0-2.7 1.5-2.7 3.6zM431 295.5c0 .6.1 1.2 1.2 1.2.3 0 .9-.1 1.2-.1l.2 1.4s-.9.1-1.7.1c-1.5 0-2.4-.6-2.4-2.2v-6.1h-1.8v-1.4h1.8v-3.1l1.6-.6v3.6h2.6v1.4H431v5.8zM435.8 284.6h1.6v4.9c.6-.9 1.6-1.3 2.8-1.3 2.1 0 3.2 1.5 3.2 3.2v6.4h-1.6v-5.9c0-1.7-.9-2.3-2-2.3-1.2 0-2.4.9-2.4 2.6v5.6h-1.6v-13.2zM447.3 293.6c.1 1.8 1.2 3.1 2.9 3.1 1.1 0 1.8-.4 2.5-.9l.8 1.1c-.9.7-2 1.2-3.4 1.2-2.8 0-4.5-2.1-4.5-4.9 0-2.9 1.7-4.9 4.3-4.9 2.5 0 4 2.1 4 4.9v.5h-6.6zm0-1.2h5c-.1-1.5-.9-2.8-2.4-2.8s-2.5 1.3-2.6 2.8zM463.3 288.4h1.9v1.4h-1.9v8.1h-1.6v-8.1h-1.6v-1.4h1.6v-1.8c0-1.6 1.1-2.2 2.6-2.2.8 0 1.3.1 1.5.1l-.1 1.3c-.4 0-1-.1-1.3-.1-.9 0-1.1.6-1.1 1.1v1.6zM474.8 297.9h-1.6v-1.1c-.6.9-1.6 1.3-2.8 1.3-2.1 0-3.2-1.5-3.2-3.2v-6.4h1.6v5.9c0 1.7.9 2.3 2 2.3 1.3 0 2.4-.9 2.4-2.6v-5.6h1.6v9.4zM477.8 284.6h1.6v11.2c0 .6.2 1 .9 1 .4 0 .7 0 1-.1l.2 1.3s-.9.1-1.6.1c-1.1 0-2-.5-2-1.9v-11.6zM483 284.6h1.6v11.2c0 .6.2 1 .9 1 .4 0 .7 0 1-.1l.2 1.3s-.9.1-1.6.1c-1.1 0-2-.5-2-1.9v-11.6zM495.3 298.1c-1.9 0-3.3-1.1-3.3-2.9 0-1.5 1-2.5 2.5-2.7l3.3-.5v-.6c0-1.4-.9-1.9-2.1-1.9-1.1 0-2 .3-2.7.7l-.6-1.2c1.1-.6 2.3-.9 3.5-.9 2.3 0 3.5 1 3.5 3v4.4c0 .6.2 1 .8 1.3l-.9 1.1c-.6-.2-1.1-.6-1.3-1.1-.5.8-1.4 1.3-2.7 1.3zm0-4.4c-1 .2-1.7.5-1.7 1.5 0 1.1.9 1.7 1.9 1.7 1.2 0 2.3-.7 2.3-1.8v-1.7l-2.5.3zM509.6 297.9H508v-6c0-1.7-.9-2.3-1.9-2.3s-2.1.8-2.1 2.6v5.6h-1.6v-9.5h1.6v1.1c.6-.9 1.5-1.3 2.5-1.3.9 0 2.1.4 2.6 1.6.7-1.2 1.8-1.6 2.9-1.6 2.1 0 3.2 1.5 3.2 3.2v6.5h-1.6v-6c0-1.7-.9-2.3-1.9-2.3-1 0-2.1.8-2.1 2.6v5.8zM526.3 293.2c0 2.8-1.7 4.9-4.4 4.9-2.6 0-4.4-2.1-4.4-4.9 0-2.9 1.7-4.9 4.4-4.9 2.6-.1 4.4 2 4.4 4.9zm-1.6 0v-.1c0-1.9-1-3.5-2.8-3.5s-2.8 1.6-2.8 3.5v.1c0 1.9 1 3.5 2.8 3.5s2.8-1.6 2.8-3.5zM536.2 297.9h-1.6v-1.1c-.6.9-1.6 1.3-2.8 1.3-2.1 0-3.2-1.5-3.2-3.2v-6.4h1.6v5.9c0 1.7.9 2.3 2 2.3 1.3 0 2.4-.9 2.4-2.6v-5.6h1.6v9.4zM539.2 288.4h1.6v1.1c.6-.9 1.6-1.3 2.8-1.3 2.1 0 3.2 1.5 3.2 3.2v6.4h-1.6v-5.9c0-1.7-.9-2.3-2-2.3-1.2 0-2.4.9-2.4 2.6v5.6h-1.6v-9.4zM552.2 295.5c0 .6.1 1.2 1.2 1.2.3 0 .9-.1 1.2-.1l.2 1.4s-.9.1-1.7.1c-1.5 0-2.4-.6-2.4-2.2v-6.1h-1.8v-1.4h1.8v-3.1l1.6-.6v3.6h2.6v1.4h-2.6v5.8zM570.1 293.2c0 2.8-1.7 4.9-4.4 4.9-2.6 0-4.4-2.1-4.4-4.9 0-2.9 1.7-4.9 4.4-4.9 2.6-.1 4.4 2 4.4 4.9zm-1.7 0v-.1c0-1.9-1-3.5-2.8-3.5s-2.8 1.6-2.8 3.5v.1c0 1.9 1 3.5 2.8 3.5s2.8-1.6 2.8-3.5zM574.6 288.4h1.9v1.4h-1.9v8.1H573v-8.1h-1.6v-1.4h1.6v-1.8c0-1.6 1.1-2.2 2.6-2.2.8 0 1.3.1 1.5.1l-.1 1.3c-.4 0-1-.1-1.3-.1-.9 0-1.1.6-1.1 1.1v1.6zM590.2 287c-.4-.7-1.2-1.2-2.3-1.2-1.4 0-2.4 1.1-2.4 2.8v2.1h3.1v1.4h-3.1v4.3h5.9v1.4h-8.5v-1.4h1v-4.3h-1v-1.4h1v-2.1c0-2.7 1.6-4.3 4-4.3 1.6 0 2.8.6 3.6 1.7l-1.3 1zM600 297.9v-3.4h-6.7v-1.6l6-8.2h2.3v8.5h2.2v1.4h-2.2v3.4H600zm0-4.8V286l-5.1 7.1h5.1zM615.6 291.3c0 3.4-1.3 6.8-4.8 6.8-3.6 0-4.8-3.4-4.8-6.8 0-3.5 1.3-6.8 4.8-6.8 3.6-.1 4.8 3.3 4.8 6.8zm-1.7.3v-.8c0-3.2-1.2-5-3.1-5-1.9 0-3.1 1.8-3.1 5v.8c0 3.2 1.2 5 3.1 5 1.8.1 3.1-1.8 3.1-5zM619.2 295.5c.7 0 1.3.6 1.3 1.3s-.6 1.3-1.3 1.3c-.7 0-1.3-.6-1.3-1.3s.6-1.3 1.3-1.3zM632.5 291.3c0 3.4-1.3 6.8-4.8 6.8-3.6 0-4.8-3.4-4.8-6.8 0-3.5 1.3-6.8 4.8-6.8 3.5-.1 4.8 3.3 4.8 6.8zm-1.7.3v-.8c0-3.2-1.2-5-3.1-5-1.9 0-3.1 1.8-3.1 5v.8c0 3.2 1.2 5 3.1 5 1.8.1 3.1-1.8 3.1-5zM644.6 291.3c0 3.4-1.3 6.8-4.8 6.8-3.6 0-4.8-3.4-4.8-6.8 0-3.5 1.3-6.8 4.8-6.8 3.6-.1 4.8 3.3 4.8 6.8zm-1.7.3v-.8c0-3.2-1.2-5-3.1-5-1.9 0-3.1 1.8-3.1 5v.8c0 3.2 1.2 5 3.1 5 1.8.1 3.1-1.8 3.1-5z"/>
    </g>
    <g>
      <path class="st5" d="M364 336.7h5.3c2.8 0 4.5 1.9 4.5 4.4 0 2.5-1.9 4.4-4.7 4.4h-2.4v4.5H364v-13.3zm4.6 2.4h-1.9v4h1.9c1.5 0 2.4-.7 2.4-1.9v-.2c0-1.2-.9-1.9-2.4-1.9zM378.2 350.2c-1.8 0-3.4-1.1-3.4-3.1 0-1.6 1-2.7 2.8-2.9l3-.4v-.3c0-.9-.6-1.3-1.6-1.3-1.2 0-2.2.5-2.9.8l-1-2c1.2-.6 2.6-1.1 4-1.1 1.8 0 4 .5 4 3.2v4.3c0 .6.3.8.9 1l-1.2 1.8c-1-.1-1.6-.6-1.9-1.1-.6.7-1.5 1.1-2.7 1.1zm.3-4.2c-.6.1-1 .5-1 1 0 .6.5 1.2 1.3 1.2 1.2 0 1.8-.8 1.8-1.8v-.7l-2.1.3zM391.3 342.5h-.5c-1.5 0-2.8.5-2.8 2.6v4.8h-2.6V340h2.6v1.1c.4-.7 1.3-1.3 2.6-1.3h.6v2.7zM396.5 347c0 .5.2.8 1.1.8.4 0 1 0 1.3-.1l.2 2.3s-1.3.2-2.4.2c-1.8 0-2.8-.8-2.8-2.5v-5.3h-1.8V340h1.8v-2.8l2.6-.7v3.5h2.6v2.3h-2.6v4.7zM402.2 336.2c.9 0 1.6.7 1.6 1.6s-.7 1.6-1.6 1.6-1.6-.7-1.6-1.6.7-1.6 1.6-1.6zm1.3 13.8H401v-10h2.6v10zM408.8 350.2c-1.8 0-3.4-1.1-3.4-3.1 0-1.6 1-2.7 2.8-2.9l3-.4v-.3c0-.9-.6-1.3-1.6-1.3-1.2 0-2.2.5-2.9.8l-1-2c1.2-.6 2.6-1.1 4-1.1 1.8 0 4 .5 4 3.2v4.3c0 .6.3.8.9 1l-1.2 1.8c-1-.1-1.6-.6-1.9-1.1-.6.7-1.6 1.1-2.7 1.1zm.3-4.2c-.6.1-1 .5-1 1 0 .6.5 1.2 1.3 1.2 1.2 0 1.8-.8 1.8-1.8v-.7l-2.1.3zM416.1 336.7h2.6v10.6c0 .4.2.6.8.6.3 0 .7 0 1-.1l.2 2.2s-1.2.2-2.2.2c-1.4 0-2.3-.8-2.3-2.2v-11.3zM431.7 342.5h-.5c-1.5 0-2.8.5-2.8 2.6v4.8h-2.6V340h2.6v1.1c.4-.7 1.3-1.3 2.6-1.3h.6v2.7zM435.3 345.9c.2 1.3 1.2 1.9 2.4 1.9 1 0 1.8-.3 2.5-.9l1.3 1.9c-.9.7-2.2 1.3-3.9 1.3-2.7 0-5-1.9-5-5.1 0-2.9 2-5.1 4.8-5.1 2.6 0 4.6 2 4.6 4.9v1.2h-6.7zm0-2h4c-.1-.9-.6-1.9-2-1.9-1.3.1-1.9 1.1-2 1.9zM447.1 340h1.9v2.3h-1.9v7.6h-2.6v-7.6H443V340h1.6v-1c0-1.7 1.2-2.5 3-2.5.9 0 1.7.1 2 .1l-.2 2.2c-.3-.1-.9-.1-1.3-.1-.7 0-1 .3-1 .7v.6zM459.1 350h-2.6v-.9c-.6.6-1.3 1-2.5 1-2.2 0-3.4-1.5-3.4-3.4V340h2.6v5.8c0 1.4.7 1.9 1.6 1.9 1 0 1.8-.7 1.8-2.3V340h2.6v10zM461.5 340h2.6v.9c.6-.6 1.3-1 2.5-1 2.2 0 3.4 1.5 3.4 3.4v6.7h-2.6v-5.8c0-1.4-.7-1.9-1.6-1.9-1 0-1.8.7-1.8 2.3v5.4h-2.6v-10zM471.9 345c0-2.9 1.7-5.1 4.4-5.1 1.2 0 2 .5 2.5 1v-4.2h2.6V350h-2.6v-.9c-.6.6-1.3 1-2.5 1-2.6.1-4.4-2.1-4.4-5.1zm7-.9c0-1.1-.8-1.9-2.1-1.9-1.5 0-2.3 1.2-2.3 2.7v.1c0 1.6.8 2.7 2.3 2.7 1.3 0 2.1-.8 2.1-1.9v-1.7zM364.5 359.5h4.5c2.5 0 4.4 1.2 4.4 4 0 1.7-.9 3-2.6 3.7l2.8 5.6h-1.9l-2.5-5.3h-3.1v5.3h-1.6v-13.3zm4.6 6.5c1.5 0 2.6-.9 2.6-2.5 0-1.7-1.1-2.6-2.6-2.6h-3v5.1h3zM376.9 368.5c.1 1.8 1.2 3.1 2.9 3.1 1.1 0 1.8-.4 2.5-.9l.8 1.1c-.9.7-2 1.2-3.4 1.2-2.8 0-4.5-2.1-4.5-4.9 0-2.9 1.7-4.9 4.3-4.9 2.5 0 4 2.1 4 4.9v.5h-6.6zm0-1.2h5c-.1-1.5-.9-2.8-2.4-2.8-1.6 0-2.5 1.3-2.6 2.8zM388.2 363.3h1.9v1.4h-1.9v8.1h-1.6v-8.1H385v-1.4h1.6v-1.8c0-1.6 1.1-2.2 2.6-2.2.8 0 1.3.1 1.5.1l-.1 1.3c-.4 0-1-.1-1.3-.1-.9 0-1.1.6-1.1 1.1v1.6zM399.6 372.8H398v-1.1c-.6.9-1.6 1.3-2.8 1.3-2.1 0-3.2-1.5-3.2-3.2v-6.4h1.6v5.9c0 1.7.9 2.3 2 2.3 1.3 0 2.4-.9 2.4-2.6v-5.6h1.6v9.4zM402.7 363.3h1.6v1.1c.6-.9 1.6-1.3 2.8-1.3 2.1 0 3.2 1.5 3.2 3.2v6.4h-1.6v-5.9c0-1.7-.9-2.3-2-2.3-1.2 0-2.4.9-2.4 2.6v5.6h-1.6v-9.4zM419.4 371.7c-.6.8-1.6 1.3-2.8 1.3-2.5 0-4-2.1-4-4.9 0-2.9 1.6-4.9 4-4.9 1.2 0 2.2.5 2.8 1.3v-4.9h1.6v13.3h-1.6v-1.2zm-5.2-3.6c0 2 .9 3.5 2.7 3.5 1.7 0 2.5-1.2 2.5-2.8v-1.5c0-1.6-.9-2.8-2.5-2.8-1.8 0-2.7 1.5-2.7 3.6zM431.6 373c-1.9 0-3.3-1.1-3.3-2.9 0-1.5 1-2.5 2.5-2.7l3.3-.5v-.6c0-1.4-.9-1.9-2.1-1.9-1.1 0-2 .3-2.7.7l-.6-1.2c1.1-.6 2.3-.9 3.5-.9 2.3 0 3.5 1 3.5 3v4.4c0 .6.2 1 .8 1.3l-.9 1.1c-.6-.2-1.1-.6-1.3-1.1-.5.8-1.5 1.3-2.7 1.3zm0-4.4c-1 .2-1.7.5-1.7 1.5 0 1.1.9 1.7 1.9 1.7 1.2 0 2.3-.7 2.3-1.8v-1.7l-2.5.3zM445.2 363.3v1.1c.6-.8 1.6-1.3 2.8-1.3 2.5 0 4 2.1 4 4.9 0 2.9-1.6 4.9-4 4.9-1.2 0-2.2-.5-2.8-1.3v4h-1.6v-12.4h1.6zm5.2 4.7c0-2-1-3.5-2.7-3.5-1.7 0-2.5 1.2-2.5 2.8v1.5c0 1.6.9 2.8 2.5 2.8 1.8 0 2.7-1.5 2.7-3.6zM457.1 373c-1.9 0-3.3-1.1-3.3-2.9 0-1.5 1-2.5 2.5-2.7l3.3-.5v-.6c0-1.4-.9-1.9-2.1-1.9-1.1 0-2 .3-2.7.7l-.6-1.2c1.1-.6 2.3-.9 3.5-.9 2.3 0 3.5 1 3.5 3v4.4c0 .6.2 1 .8 1.3l-.9 1.1c-.6-.2-1.1-.6-1.3-1.1-.5.8-1.4 1.3-2.7 1.3zm.1-4.4c-1 .2-1.7.5-1.7 1.5 0 1.1.9 1.7 1.9 1.7 1.2 0 2.3-.7 2.3-1.8v-1.7l-2.5.3zM469.1 364.7h-.2c-1.6 0-3 .6-3 3.2v4.9h-1.6v-9.5h1.6v1.5c.5-1.1 1.6-1.7 2.8-1.7h.5v1.6zM473.6 370.4c0 .6.1 1.2 1.2 1.2.3 0 .9-.1 1.2-.1l.2 1.4s-.9.1-1.7.1c-1.5 0-2.4-.6-2.4-2.2v-6.1h-1.8v-1.4h1.8v-3.1l1.6-.6v3.6h2.6v1.4h-2.6v5.8zM479.1 359.5c.6 0 1.1.5 1.1 1.2 0 .6-.5 1.2-1.1 1.2-.6 0-1.2-.5-1.2-1.2.1-.7.6-1.2 1.2-1.2zm.8 13.3h-1.6v-9.5h1.6v9.5zM485.5 373c-1.9 0-3.3-1.1-3.3-2.9 0-1.5 1-2.5 2.5-2.7l3.3-.5v-.6c0-1.4-.9-1.9-2.1-1.9-1.1 0-2 .3-2.7.7l-.6-1.2c1.1-.6 2.3-.9 3.5-.9 2.3 0 3.5 1 3.5 3v4.4c0 .6.2 1 .8 1.3l-.9 1.1c-.6-.2-1.1-.6-1.3-1.1-.5.8-1.4 1.3-2.7 1.3zm.1-4.4c-1 .2-1.7.5-1.7 1.5 0 1.1.9 1.7 1.9 1.7 1.2 0 2.3-.7 2.3-1.8v-1.7l-2.5.3zM492.6 359.5h1.6v11.2c0 .6.2 1 .9 1 .4 0 .7 0 1-.1l.2 1.3s-.9.1-1.6.1c-1.1 0-2-.5-2-1.9v-11.6zM505 373c-1.9 0-3.3-1.1-3.3-2.9 0-1.5 1-2.5 2.5-2.7l3.3-.5v-.6c0-1.4-.9-1.9-2.1-1.9-1.1 0-2 .3-2.7.7l-.6-1.2c1.1-.6 2.3-.9 3.5-.9 2.3 0 3.5 1 3.5 3v4.4c0 .6.2 1 .8 1.3l-.9 1.3c-.6-.2-1.1-.6-1.3-1.1-.5.6-1.5 1.1-2.7 1.1zm0-4.4c-1 .2-1.7.5-1.7 1.5 0 1.1.9 1.7 1.9 1.7 1.2 0 2.3-.7 2.3-1.8v-1.7l-2.5.3zM519.2 372.8h-1.6v-6c0-1.7-.9-2.3-1.9-2.3s-2.1.8-2.1 2.6v5.6H512v-9.5h1.6v1.1c.6-.9 1.5-1.3 2.5-1.3.9 0 2.1.4 2.6 1.6.7-1.2 1.8-1.6 2.9-1.6 2.1 0 3.2 1.5 3.2 3.2v6.5h-1.6v-6c0-1.7-.9-2.3-1.9-2.3-1 0-2.1.8-2.1 2.6v5.8zM535.9 368c0 2.8-1.7 4.9-4.4 4.9-2.6 0-4.4-2.1-4.4-4.9 0-2.9 1.7-4.9 4.4-4.9s4.4 2.1 4.4 4.9zm-1.6.1v-.1c0-1.9-1-3.5-2.8-3.5s-2.8 1.6-2.8 3.5v.1c0 1.9 1 3.5 2.8 3.5s2.8-1.6 2.8-3.5zM545.8 372.8h-1.6v-1.1c-.6.9-1.6 1.3-2.8 1.3-2.1 0-3.2-1.5-3.2-3.2v-6.4h1.6v5.9c0 1.7.9 2.3 2 2.3 1.3 0 2.4-.9 2.4-2.6v-5.6h1.6v9.4zM548.9 363.3h1.6v1.1c.6-.9 1.6-1.3 2.8-1.3 2.1 0 3.2 1.5 3.2 3.2v6.4h-1.6v-5.9c0-1.7-.9-2.3-2-2.3-1.2 0-2.4.9-2.4 2.6v5.6h-1.6v-9.4zM561.8 370.4c0 .6.1 1.2 1.2 1.2.3 0 .9-.1 1.2-.1l.2 1.4s-.9.1-1.7.1c-1.5 0-2.4-.6-2.4-2.2v-6.1h-1.8v-1.4h1.8v-3.1l1.6-.6v3.6h2.6v1.4h-2.6v5.8z"/>
    </g>
    <g>
      <path class="st5" d="M344.4 410.9h5.1c3.2 0 4.9 2 4.9 4.1 0 1.8-1.1 3.2-2.6 3.7l2.9 5.5h-3.1l-2.4-4.8h-2.1v4.8h-2.7v-13.3zm4.9 2.5h-2.2v3.6h2.2c1.5 0 2.3-.8 2.3-1.8 0-1.1-.7-1.8-2.3-1.8zM358.4 420.2c.2 1.3 1.2 1.9 2.4 1.9 1 0 1.8-.3 2.5-.9l1.3 1.9c-.9.7-2.2 1.3-3.9 1.3-2.7 0-5-1.9-5-5.1v-.1c0-2.9 2-5.1 4.8-5.1 2.6 0 4.6 2 4.6 4.9v1.2h-6.7zm0-2h4c-.1-.9-.6-1.9-2-1.9-1.3 0-1.9 1-2 1.9zM370.3 414.3h1.9v2.3h-1.9v7.6h-2.6v-7.6h-1.6v-2.3h1.6v-1c0-1.7 1.2-2.5 3-2.5.9 0 1.7.1 2 .1l-.2 2.2c-.3-.1-.9-.1-1.3-.1-.7 0-1 .3-1 .7v.6zM382.3 424.2h-2.6v-.9c-.6.6-1.3 1-2.5 1-2.2 0-3.4-1.5-3.4-3.4v-6.7h2.6v5.8c0 1.4.7 1.9 1.6 1.9 1 0 1.8-.7 1.8-2.3v-5.4h2.6v10zM384.7 414.3h2.6v.9c.6-.6 1.3-1 2.5-1 2.2 0 3.4 1.5 3.4 3.4v6.7h-2.6v-5.8c0-1.4-.7-1.9-1.6-1.9-1 0-1.8.7-1.8 2.3v5.4h-2.6v-10zM395 419.2c0-2.9 1.7-5.1 4.4-5.1 1.2 0 2 .5 2.5 1v-4.2h2.6v13.3h-2.6v-.9c-.6.6-1.3 1-2.5 1-2.6.1-4.4-2-4.4-5.1zm7-.8c0-1.1-.8-1.9-2.1-1.9-1.5 0-2.3 1.2-2.3 2.7v.1c0 1.6.8 2.7 2.3 2.7 1.3 0 2.1-.8 2.1-1.9v-1.7zM414.3 424.4c-1.8 0-3.4-1.1-3.4-3.1 0-1.6 1-2.7 2.8-2.9l3-.4v-.3c0-.9-.6-1.3-1.6-1.3-1.2 0-2.2.5-2.9.8l-1-2c1.2-.6 2.6-1.1 4-1.1 1.8 0 4 .5 4 3.2v4.3c0 .6.3.8.9 1l-1.2 1.8c-1-.1-1.6-.6-1.9-1.1-.5.8-1.5 1.1-2.7 1.1zm.3-4.2c-.6.1-1 .5-1 1 0 .6.5 1.2 1.3 1.2 1.2 0 1.8-.8 1.8-1.8v-.7l-2.1.3zM430 424.2h-2.6v-5.8c0-1.4-.7-1.9-1.5-1.9-1 0-1.7.7-1.7 2.3v5.4h-2.6v-9.9h2.6v.9c.6-.7 1.6-1.1 2.5-1.1 1 0 2 .4 2.6 1.3.7-1 1.8-1.3 3-1.3 2.2 0 3.5 1.6 3.5 3.3v6.8h-2.6v-5.8c0-1.4-.7-1.9-1.5-1.9-1 0-1.7.7-1.7 2.3v5.4zM447.4 419.3c0 2.9-2 5.1-4.9 5.1s-4.9-2.2-4.9-5.1c0-2.9 1.9-5.1 4.9-5.1 3-.1 4.9 2.1 4.9 5.1zm-2.6 0c0-1.6-.8-2.8-2.3-2.8s-2.2 1.2-2.3 2.8c0 1.6.8 2.8 2.3 2.8s2.3-1.2 2.3-2.8zM457.8 424.2h-2.6v-.9c-.6.6-1.3 1-2.5 1-2.2 0-3.4-1.5-3.4-3.4v-6.7h2.6v5.8c0 1.4.7 1.9 1.6 1.9 1 0 1.8-.7 1.8-2.3v-5.4h2.6v10zM460.2 414.3h2.6v.9c.6-.6 1.3-1 2.5-1 2.2 0 3.4 1.5 3.4 3.4v6.7h-2.6v-5.8c0-1.4-.7-1.9-1.6-1.9-1 0-1.8.7-1.8 2.3v5.4h-2.6v-10zM474.7 421.3c0 .5.2.8 1.1.8.4 0 1 0 1.3-.1l.2 2.3s-1.3.2-2.4.2c-1.8 0-2.8-.8-2.8-2.5v-5.3h-1.8v-2.3h1.8v-2.8l2.6-.7v3.5h2.6v2.3h-2.6v4.6z"/>
    </g>
    <path class="st5" d="M500.4 437.2v36H345v-36h155.4m2-2H343v40h159.5v-40h-.1z"/>
    <path class="st21" d="M320.3 411.5v76"/>
    <g>
      <path class="st5" d="M359.6 450.7c-.4-.7-1.2-1.2-2.3-1.2-1.4 0-2.4 1.1-2.4 2.8v2.1h3.1v1.4h-3.1v4.3h5.9v1.4h-8.5v-1.4h1v-4.3h-1v-1.4h1v-2.1c0-2.7 1.6-4.3 4-4.3 1.6 0 2.8.6 3.6 1.7l-1.3 1zM368.4 461.6V460c1-.9 3.8-3.2 4.8-4.1 1.1-1 2-2.1 2-3.7 0-1.7-1.1-2.6-2.6-2.6-1.7 0-2.5 1.1-2.6 2.8l-1.7-.1c.1-2.6 1.8-4.1 4.3-4.1 2.6 0 4.4 1.6 4.4 4.2 0 2-1 3.2-4 5.7l-2.4 2.1h6.6v1.5h-8.8zM389.2 454.9c0 3.4-1.3 6.8-4.8 6.8-3.6 0-4.8-3.4-4.8-6.8 0-3.5 1.3-6.8 4.8-6.8 3.6 0 4.8 3.4 4.8 6.8zm-1.7.4v-.8c0-3.2-1.2-5-3.1-5-1.9 0-3.1 1.8-3.1 5v.8c0 3.2 1.2 5 3.1 5 1.8 0 3.1-1.8 3.1-5zM392.8 459.2c.7 0 1.3.6 1.3 1.3s-.6 1.3-1.3 1.3c-.7 0-1.3-.6-1.3-1.3s.6-1.3 1.3-1.3zM406.1 454.9c0 3.4-1.3 6.8-4.8 6.8-3.6 0-4.8-3.4-4.8-6.8 0-3.5 1.3-6.8 4.8-6.8s4.8 3.4 4.8 6.8zm-1.7.4v-.8c0-3.2-1.2-5-3.1-5-1.9 0-3.1 1.8-3.1 5v.8c0 3.2 1.2 5 3.1 5 1.8 0 3.1-1.8 3.1-5zM418.2 454.9c0 3.4-1.3 6.8-4.8 6.8-3.6 0-4.8-3.4-4.8-6.8 0-3.5 1.3-6.8 4.8-6.8 3.6 0 4.8 3.4 4.8 6.8zm-1.7.4v-.8c0-3.2-1.2-5-3.1-5-1.9 0-3.1 1.8-3.1 5v.8c0 3.2 1.2 5 3.1 5 1.8 0 3.1-1.8 3.1-5z"/>
    </g>
    <g>
      <path class="st5" d="M332 352.1c-6.2 0-11.3-5.1-11.3-11.3 0-6.2 5.1-11.3 11.3-11.3 6.2 0 11.3 5.1 11.3 11.3.1 6.2-5 11.3-11.3 11.3z"/>
      <path class="st4" d="M332 330.5c5.7 0 10.3 4.6 10.3 10.3 0 5.7-4.6 10.3-10.3 10.3s-10.3-4.6-10.3-10.3c0-5.7 4.7-10.3 10.3-10.3m0-2c-6.8 0-12.3 5.5-12.3 12.3 0 6.8 5.5 12.3 12.3 12.3 6.8 0 12.3-5.5 12.3-12.3.1-6.8-5.5-12.3-12.3-12.3z"/>
    </g>
    <path class="st22" d="M332 323.4c9.6 0 17.4 7.8 17.4 17.4 0 9.6-7.8 17.4-17.4 17.4s-17.4-7.8-17.4-17.4c0-9.6 7.8-17.4 17.4-17.4m0-3c-11.3 0-20.4 9.2-20.4 20.4 0 11.3 9.2 20.4 20.4 20.4 11.3 0 20.4-9.2 20.4-20.4.1-11.3-9.1-20.4-20.4-20.4z"/>
  </g>
</svg>
