<svg id="Layer_1" xmlns="http://www.w3.org/2000/svg" viewBox="0 0 960 640"><style>.st3{fill:#dadada}.st4{fill:#fff}.st5{fill:#0b0b0b}.st8{fill:none;stroke:#8c8c8c;stroke-miterlimit:10}.st18{fill:#881516}.st19{fill:#b10e1e}</style><path class="st3" d="M0 40V10C0 4.5 4.5 0 10 0h940c5.5 0 10 4.5 10 10v30"/><circle class="st4" cx="25.4" cy="20" r="8.5"/><circle class="st4" cx="49.1" cy="20" r="8.5"/><circle class="st4" cx="72.9" cy="20" r="8.5"/><path class="st5" d="M1 40h958v65H1z"/><path class="st4" d="M267 59.7l-10.7 13v-13h-6.1v30h6.1v-9.1l3.9-4.3 7.9 13.4h7l-11-18.1 10.4-11.9zm-37.4 24.6c-.8-.3-1.4-.6-2-1.2-.6-.5-1-1.2-1.3-2-.3-.8-.5-1.7-.5-2.8V59.7h-6v19.5c0 1.7.3 3.2.9 4.5.6 1.4 1.5 2.5 2.5 3.5 1.1.9 2.4 1.7 3.9 2.2 1.5.5 3.1.8 4.9.8 1.8 0 3.4-.3 4.9-.8 1.5-.5 2.8-1.2 3.9-2.2 1.1-.9 1.9-2.1 2.5-3.5.6-1.4.9-2.9.9-4.5V59.7h-6v18.6c0 1.1-.2 2-.5 2.8-.3.8-.8 1.5-1.3 2-.6.5-1.2.9-2 1.2-.8.3-1.6.4-2.5.4-.7 0-1.5-.2-2.3-.4m-21.9 3.5c.2.5.5.9.8 1.2.3.3.8.6 1.2.8.5.2 1 .3 1.5.3s1-.1 1.5-.3c.5-.2.9-.5 1.2-.8.3-.3.6-.8.8-1.2.2-.5.3-1 .3-1.5s-.1-1-.3-1.5c-.2-.5-.5-.9-.8-1.2-.3-.3-.8-.6-1.2-.8-.5-.2-.9-.3-1.5-.3-.5 0-1 .1-1.5.3-.5.2-.9.5-1.2.8-.3.3-.6.7-.8 1.2-.2.5-.3.9-.3 1.5s.1 1 .3 1.5m-9.6 1.9l8.5-30h-6.7l-5.7 22.6h-.2l-5.8-22.6h-6.8l8.5 30zm-36.8-5.8c-1-.5-1.8-1.2-2.5-2.1-.7-.9-1.2-1.9-1.5-3.1a16 16 0 01-.5-3.9v-.2c0-1.4.2-2.7.5-3.9.3-1.2.9-2.2 1.5-3.1.7-.9 1.5-1.6 2.5-2.1s2.2-.7 3.5-.7c1.3 0 2.5.2 3.5.7 1 .5 1.8 1.2 2.5 2.1.7.9 1.2 1.9 1.5 3.1.3 1.2.5 2.5.5 3.9v.2a16 16 0 01-.5 3.9c-.3 1.2-.9 2.2-1.5 3.1-.7.9-1.5 1.6-2.5 2.1s-2.2.7-3.5.7c-1.3.1-2.5-.2-3.5-.7m-2.5-23.4c-1.8.8-3.3 1.9-4.5 3.3-1.2 1.4-2.2 3-2.8 4.9-.6 1.9-1 3.9-1 6 0 2.2.3 4.2 1 6 .6 1.9 1.6 3.5 2.8 4.9 1.2 1.4 2.7 2.5 4.5 3.3 1.8.8 3.8 1.2 6 1.2s4.2-.4 6-1.2c1.8-.8 3.3-1.9 4.5-3.3 1.2-1.4 2.2-3 2.8-4.9.6-1.9 1-3.9 1-6s-.3-4.2-1-6c-.6-1.9-1.6-3.5-2.8-4.9-1.2-1.4-2.7-2.5-4.5-3.3-1.8-.8-3.8-1.2-6-1.2-2.3 0-4.3.4-6 1.2m-33.1 14.1c0-1.3.2-2.5.5-3.7.3-1.2.8-2.2 1.5-3.1.7-.9 1.5-1.6 2.5-2.2 1-.6 2.2-.8 3.6-.8.9 0 1.7.1 2.4.3.7.2 1.4.5 1.9.9.6.4 1.1.9 1.5 1.4.4.5.8 1.1 1.1 1.8l5.3-3c-.5-1-1.2-2-2-2.9-.8-.9-1.7-1.6-2.8-2.2-1.1-.6-2.2-1.1-3.5-1.4-1.3-.3-2.6-.5-4-.5-2.2 0-4.2.4-5.9 1.2-1.8.8-3.3 1.9-4.5 3.3-1.2 1.4-2.2 3-2.9 4.9-.7 1.9-1 3.9-1 6 0 2.2.3 4.2.9 6 .6 1.9 1.5 3.5 2.7 4.9 1.2 1.4 2.6 2.5 4.3 3.3 1.7.8 3.6 1.2 5.8 1.2.9 0 1.8-.1 2.6-.3.8-.2 1.6-.5 2.3-.8.7-.3 1.3-.8 1.9-1.2.6-.5 1-1 1.4-1.6v3.5h5.3V73.3H133v4.6h7.7v.3c0 .6-.1 1.3-.3 2.1-.2.8-.6 1.5-1.1 2.1-.5.6-1.3 1.2-2.2 1.6-.9.4-2 .6-3.4.6s-2.6-.3-3.6-.8c-1-.6-1.9-1.3-2.5-2.2-.7-.9-1.1-2-1.5-3.1-.3-1.2-.5-2.4-.5-3.7v-.2zm-63.4-8.8c1.4.6 2.9-.1 3.4-1.4.6-1.3-.1-2.9-1.4-3.4-1.3-.5-2.9.1-3.4 1.4-.6 1.3.1 2.9 1.4 3.4m-6 3.5c1.4.6 2.9-.1 3.4-1.4.6-1.3-.1-2.9-1.4-3.4-1.3-.5-2.9.1-3.4 1.4-.5 1.3.1 2.9 1.4 3.4m-1.7 6.6c1.4.6 2.9-.1 3.4-1.4.6-1.3-.1-2.9-1.4-3.4-1.3-.5-2.9.1-3.4 1.4-.6 1.4.1 2.9 1.4 3.4m14.3-8c1.4.6 2.9-.1 3.4-1.4.6-1.3-.1-2.9-1.4-3.4-1.3-.5-2.9.1-3.4 1.4-.5 1.3.1 2.9 1.4 3.4M93 65.8c-1.4.6-2.9-.1-3.4-1.4-.6-1.3.1-2.9 1.4-3.4 1.3-.5 2.9.1 3.4 1.4.6 1.3 0 2.9-1.4 3.4m6 3.5c-1.4.6-2.9-.1-3.4-1.4-.6-1.3 0-2.9 1.4-3.4 1.3-.5 2.9.1 3.4 1.4.6 1.3-.1 2.9-1.4 3.4m1.8 6.6c-1.4.6-2.9-.1-3.4-1.4-.6-1.3.1-2.9 1.4-3.4 1.3-.5 2.9.1 3.4 1.4.5 1.4-.1 2.9-1.4 3.4m-14.4-8c-1.4.6-2.9-.1-3.4-1.4-.6-1.3.1-2.9 1.4-3.4 1.3-.5 2.9.1 3.4 1.4.6 1.3-.1 2.9-1.4 3.4m-7.3-6.8l3.3 1.7V58l-3.3 1-.3-.3 1.3-4.2h-4.8l1.3 4.2-.3.3-3.4-1v4.9l3.3-1.7.3.3-1.9 5.8c-.1.3-.1.6-.1.9 0 1.6 1.2 2.8 2.6 3.1h1c1.5-.2 2.7-1.5 2.7-3.1 0-.3 0-.6-.1-.9l-1.9-5.8c0-.1.2-.2.3-.4m-1.4 28.2c6.3 0 12.3.4 17.6 1.2 1.5-6.4 3.4-10 5.3-12.6L97 76.7c.4 1.8.4 2.7 0 3.8-.6-.6-1.1-1.6-1.6-3.3L93.7 83c1.1-.7 1.9-1.2 2.8-1.2-1.7 3.6-3.7 4.5-5.1 4.2-1.6-.3-2.4-1.8-2.1-3 .4-1.7 2.2-2.2 3-.2 1.6-3.3-1.1-4.3-2.9-3.3 2.7-2.7 3-5.1.8-7.9-3 2.3-3.1 4.6-1.7 7.8-1.8-2-4.5-.9-3.5 2.3 1.3-2 3-.7 2.7 1.1-.2 1.6-2.4 2.9-5.1 2.7-3.8-.3-4.1-3-4.2-5.2.9-.2 2.6.7 4.1 2.7l.5-6.1c-1.6 1.6-3 2-4.6 2 .5-1.7 3-4.4 3-4.4h-7.5s2.4 2.7 3 4.4c-1.6-.1-3-.4-4.6-2l.5 6.1c1.5-2 3.2-2.9 4.1-2.7-.1 2.2-.3 4.8-4.2 5.2-2.7.2-4.8-1.1-5.1-2.7-.3-1.9 1.4-3.1 2.7-1.1 1-3.3-1.8-4.3-3.5-2.3 1.4-3.2 1.3-5.5-1.7-7.8-2.2 2.9-1.9 5.3.8 7.9-1.8-1-4.5.1-2.9 3.3.8-2 2.6-1.6 3 .2.3 1.2-.5 2.7-2.1 3-1.3.2-3.4-.7-5-4.2.9 0 1.7.5 2.8 1.2L60 77.2c-.4 1.6-1 2.7-1.6 3.3-.4-1.2-.3-2 0-3.8L54.8 78c1.9 2.6 3.7 6.2 5.3 12.6 5.3-.8 11.2-1.3 17.6-1.3"/><path class="st5" d="M52.4 145.1h19.2v4.7h-7.1v20.5h-5.1v-20.5h-7.1v-4.7zm30.9 11.1h-.9c-2.8 0-5.2.9-5.2 5v9.1h-4.9v-18.8h4.9v2.1c.8-1.3 2.6-2.4 5-2.4h1.1v5zm8.3 14.4c-3.4 0-6.5-2.2-6.5-5.9 0-3 2-5 5.3-5.5l5.7-.8v-.6c0-1.7-1.1-2.4-3-2.4-2.3 0-4.1.9-5.5 1.5l-1.9-3.7c2.2-1.2 4.9-2.1 7.6-2.1 3.5 0 7.6.9 7.6 6v8.1c0 1.1.6 1.5 1.6 1.9l-2.2 3.5c-1.8-.1-3-1.1-3.5-2.1-1.1 1.5-2.9 2.1-5.2 2.1zm.6-7.9c-1.2.2-2 .9-2 1.9 0 1.2.9 2.2 2.6 2.2 2.3 0 3.3-1.5 3.3-3.5V162l-3.9.7zm13.3-11.2h4.9v1.6c1-1 2.5-2 4.8-2 4.1 0 6.5 2.8 6.5 6.5v12.7h-4.9v-10.9c0-2.7-1.3-3.7-3-3.7-2 0-3.5 1.4-3.5 4.3v10.3h-4.9v-18.8zm22.1 12.7c1.3 1.3 3.6 2.3 5.5 2.3 1.5 0 2.7-.4 2.7-1.5 0-.9-.7-1.3-2.3-1.7-1.1-.3-3.1-.6-4.7-1.3-1.8-.8-3.3-2.3-3.3-4.9 0-4 3.6-6 7.7-6 3.2 0 5.9 1.2 7.5 2.7l-3.1 3.2c-1-.9-2.6-1.7-4.3-1.7-1.3 0-2.7.5-2.7 1.6 0 .9.8 1.2 2.2 1.5 2.3.6 4 1 5.4 1.7 1.5.8 2.6 2.4 2.6 4.5 0 4-3.4 6-7.6 6-3.1 0-6.6-1.2-8.5-2.8l2.9-3.6zm22.2 6.4c-3.4 0-6.5-2.2-6.5-5.9 0-3 2-5 5.3-5.5l5.7-.8v-.6c0-1.7-1.1-2.4-3-2.4-2.3 0-4.1.9-5.5 1.5l-1.9-3.7c2.2-1.2 4.9-2.1 7.6-2.1 3.5 0 7.6.9 7.6 6v8.1c0 1.1.6 1.5 1.6 1.9l-2.2 3.5c-1.8-.1-3-1.1-3.5-2.1-1.1 1.5-3 2.1-5.2 2.1zm.6-7.9c-1.2.2-2 .9-2 1.9 0 1.2.9 2.2 2.6 2.2 2.3 0 3.3-1.5 3.3-3.5V162l-3.9.7zm12.3-1.9c0-5.5 3.8-9.7 9.1-9.7 3.9 0 6.9 1.9 8.2 4.9l-4.3 2.2c-.7-1.5-1.8-2.6-3.7-2.6-3 0-4.2 2.7-4.2 5.2v.2c0 2.4 1.3 5.1 4.2 5.1 1.9 0 3-1 3.7-2.6l4.3 2.2c-1.2 3-4.4 4.9-8.2 4.9-5.3 0-9-4.2-9-9.7v-.1zm27.6 3.9c0 .9.4 1.6 2.1 1.6.7 0 1.9-.1 2.4-.2l.4 4.3s-2.4.3-4.5.3c-3.3 0-5.3-1.5-5.3-4.8v-10H182v-4.4h3.4v-5.3l4.9-1.3v6.6h4.9v4.4h-4.9v8.8zm10.8-20.5c1.7 0 3.1 1.4 3.1 3.1s-1.4 3.1-3.1 3.1c-1.7 0-3.1-1.4-3.1-3.1s1.4-3.1 3.1-3.1zm2.4 26.1h-4.9v-18.8h4.9v18.8zm22.1-9.4c0 5.6-3.7 9.8-9.3 9.8-5.5 0-9.3-4.2-9.3-9.8 0-5.5 3.7-9.8 9.3-9.8 5.6 0 9.3 4.2 9.3 9.8zm-5 0c0-3.1-1.5-5.3-4.3-5.3s-4.2 2.2-4.3 5.3c0 3.1 1.5 5.3 4.3 5.3s4.3-2.3 4.3-5.3zm8.5-9.4h4.9v1.6c1-1 2.5-2 4.8-2 4.1 0 6.5 2.8 6.5 6.5v12.7h-4.9v-10.9c0-2.7-1.3-3.7-3-3.7-2 0-3.5 1.4-3.5 4.3v10.3H229v-18.8zm28.4 9.3c0-5.6 3.3-9.7 8.3-9.7 2.2 0 3.7.9 4.8 2v-8h4.9v25.2h-4.9v-1.6c-1 1.1-2.4 2-4.6 2-5 0-8.4-4.1-8.4-9.7v-.2zm13.1-1.7c0-2-1.5-3.5-3.9-3.5-2.8 0-4.3 2.2-4.3 5.2v.2c0 3 1.5 5.2 4.3 5.2 2.4 0 3.9-1.5 3.9-3.5v-3.6zm13.4 3.4c.5 2.4 2.3 3.7 4.6 3.7 1.8 0 3.5-.6 4.8-1.8l2.4 3.7c-1.7 1.4-4.2 2.5-7.3 2.5-5.2 0-9.5-3.6-9.5-9.6v-.2c0-5.5 3.8-9.7 9.1-9.7 5 0 8.6 3.8 8.6 9.3v2.2H284zm0-3.6h7.6c-.1-1.7-1.2-3.6-3.7-3.6-2.6 0-3.8 1.9-3.9 3.6zm22.9 5.8c0 .9.4 1.6 2.1 1.6.7 0 1.9-.1 2.4-.2l.4 4.3s-2.4.3-4.5.3c-3.3 0-5.3-1.5-5.3-4.8v-10h-3.4v-4.4h3.4v-5.3l4.9-1.3v6.6h4.9v4.4h-4.9v8.8zm13.8 5.9c-3.4 0-6.5-2.2-6.5-5.9 0-3 2-5 5.3-5.5l5.7-.8v-.6c0-1.7-1.1-2.4-3-2.4-2.3 0-4.1.9-5.5 1.5l-1.9-3.7c2.2-1.2 4.9-2.1 7.6-2.1 3.5 0 7.6.9 7.6 6v8.1c0 1.1.6 1.5 1.6 1.9l-2.2 3.5c-1.8-.1-3-1.1-3.5-2.1-1.1 1.5-3 2.1-5.2 2.1zm.6-7.9c-1.2.2-2 .9-2 1.9 0 1.2.9 2.2 2.6 2.2 2.3 0 3.3-1.5 3.3-3.5V162l-3.9.7zm15.7-18.5c1.7 0 3.1 1.4 3.1 3.1s-1.4 3.1-3.1 3.1c-1.7 0-3.1-1.4-3.1-3.1s1.4-3.1 3.1-3.1zm2.4 26.1h-4.9v-18.8h4.9v18.8zm4.5-25.2h4.9v20.1c0 .8.4 1.2 1.4 1.2.6 0 1.3-.1 1.8-.2l.4 4.1s-2.3.3-4.1.3c-2.7 0-4.4-1.4-4.4-4.1v-21.4zm12.3 19.1c1.3 1.3 3.6 2.3 5.5 2.3 1.5 0 2.7-.4 2.7-1.5 0-.9-.7-1.3-2.3-1.7-1.1-.3-3.1-.6-4.7-1.3-1.8-.8-3.3-2.3-3.3-4.9 0-4 3.6-6 7.7-6 3.2 0 5.9 1.2 7.5 2.7l-3.1 3.2c-1-.9-2.6-1.7-4.3-1.7-1.3 0-2.7.5-2.7 1.6 0 .9.8 1.2 2.2 1.5 2.3.6 4 1 5.4 1.7 1.5.8 2.6 2.4 2.6 4.5 0 4-3.4 6-7.6 6-3.1 0-6.6-1.2-8.5-2.8l2.9-3.6z"/><path class="st4" d="M309.9 65.8c2.4 0 4.2.6 5.4 1.8 1.2 1.2 1.9 3 1.9 5.2s-.6 4-1.9 5.2c-1.2 1.2-3 1.9-5.4 1.8h-7.3v9.7h-3.2V65.8h10.5zm-1.1 11.4c1.8 0 3.1-.3 3.9-1.1.8-.8 1.3-1.8 1.3-3.3 0-1.4-.4-2.5-1.3-3.3-.8-.7-2.1-1.1-3.9-1.1h-6.2v8.7h6.2zm27 12.4c-.5.3-1.2.4-2 .4-.7 0-1.3-.2-1.7-.6-.4-.4-.7-1.1-.7-2-.8.9-1.7 1.6-2.7 2-1 .4-2.1.6-3.3.6-.8 0-1.5-.1-2.2-.3-.7-.2-1.3-.5-1.8-.8-.5-.4-.9-.9-1.2-1.5-.3-.6-.4-1.4-.4-2.2 0-1 .2-1.8.5-2.4.3-.6.8-1.1 1.3-1.5.5-.4 1.2-.7 1.9-.9.7-.2 1.4-.4 2.1-.5.8-.2 1.5-.3 2.2-.4.7-.1 1.3-.2 1.8-.3.5-.1 1-.4 1.3-.6.3-.3.5-.7.5-1.2 0-.6-.1-1.1-.4-1.5-.2-.4-.5-.7-.9-.9-.4-.2-.8-.3-1.2-.4-.5-.1-.9-.1-1.3-.1-1.2 0-2.2.2-3 .7-.8.5-1.2 1.3-1.3 2.6h-2.8c0-1.1.3-2 .7-2.7.4-.7.9-1.3 1.6-1.8.7-.5 1.4-.8 2.3-1 .9-.2 1.8-.3 2.8-.3.8 0 1.5.1 2.3.2.8.1 1.5.3 2.1.7.6.3 1.1.8 1.5 1.4.4.6.6 1.4.6 2.4v8.8c0 .7 0 1.2.1 1.5.1.3.3.5.8.5.2 0 .5 0 .9-.1v2.2zm-4.6-8.9c-.4.3-.8.5-1.4.6l-1.8.3c-.6.1-1.3.2-1.9.3-.6.1-1.2.3-1.7.5s-.9.5-1.2.9c-.3.4-.5 1-.5 1.7 0 .5.1.9.3 1.2.2.3.4.6.7.8.3.2.6.3 1.1.4.4.1.8.1 1.3.1.9 0 1.7-.1 2.4-.4.7-.3 1.2-.6 1.6-1 .4-.4.7-.8.9-1.3.2-.5.3-.9.3-1.3v-2.8zm14 11.2c-.3.8-.7 1.6-1 2.1-.3.6-.7 1.1-1.1 1.4-.4.4-.8.6-1.3.8-.5.2-1 .2-1.7.2-.3 0-.7 0-1-.1-.3 0-.7-.1-1-.2v-2.6c.2.1.5.2.8.3.3.1.6.1.8.1.6 0 1.1-.1 1.5-.4.4-.3.7-.7.9-1.2l1.2-2.9-6.8-17.1h3.2l5 14.1h.1l4.8-14.1h3l-7.4 19.6z"/><path class="st8" d="M915 203.1H51.9"/><path class="st5" d="M365 235.2c.6.8 1.9 1.8 3.7 1.8 1.5 0 2.4-.7 2.4-1.6 0-1-.8-1.3-2.3-1.6-1.4-.3-3-.5-4.1-1.5-.7-.6-1.1-1.4-1.1-2.7 0-1.7 1.4-3.9 5.1-3.9 2 0 3.9.8 5 2.1l-1.8 1.8c-.7-.9-2-1.5-3.2-1.5-1.2 0-2.2.5-2.2 1.4 0 .6.4 1 1 1.2.8.3 2 .5 3.2.8 1.7.5 3.3 1.3 3.3 3.7 0 2.7-2.5 4.2-5.2 4.2-2.5 0-4.5-1.1-5.6-2.3l1.8-1.9zm11.1-9.3h5.1c3.2 0 4.9 2 4.9 4.1 0 1.8-1.1 3.2-2.6 3.7l2.9 5.5h-3.1l-2.4-4.8h-2.1v4.8h-2.7v-13.3zm4.9 2.5h-2.2v3.6h2.2c1.5 0 2.3-.8 2.3-1.8 0-1.1-.7-1.8-2.3-1.8zm10 10.8l-3.8-13.3h3l2.6 9.8 2.5-9.8h3l-3.8 13.3H391zm8.8-6l.7-7.3h8.5v2.4h-6.2l-.3 2.6c.6-.7 1.7-1 2.7-1 2.7 0 4.5 1.9 4.5 4.6 0 2.9-2.3 4.8-5.2 4.8-2.4 0-4.5-1.1-5.1-3.4l2.6-.8c.3 1 1 1.8 2.5 1.8 1.6 0 2.5-1.1 2.5-2.4 0-1.3-.8-2.3-2.4-2.3-.9 0-1.7.4-2.1 1.1l-2.7-.1zm16.4-7.3v13.3h-2.8v-8.8H411V228h.5c1.6 0 2-.6 2-1.9v-.2h2.7zm8.7 2.6h-6.7V226h9.5v2.6l-5.1 10.7h-3.2l5.5-10.8zm10.5 0h-6.7V226h9.5v2.6l-5.1 10.7h-3.2l5.5-10.8zm14.4 3.9c0 3.6-1.7 7-5.7 7-2.2 0-3.8-1.1-4.5-2.7l2.6-1c.4.9 1.1 1.3 2 1.3 1.8 0 2.5-1.6 2.7-3.5-.6.8-1.8 1.2-2.9 1.2-2.6 0-4.5-1.8-4.5-4.3 0-2.7 2-4.7 4.9-4.7 3.2 0 5.4 2.4 5.4 6.3v.4zm-5.3-4.3c-1.4 0-2.3 1-2.3 2.2 0 1.2.9 2.2 2.3 2.2s2.3-1 2.3-2.2c0-1.2-.9-2.2-2.3-2.2zm7.2 11.1v-2.4s2.1-1.5 4.6-3.5c1.3-1 2.1-2 2.1-3.3 0-1-.7-1.9-1.9-1.9-1.6 0-2.1 1.1-2.1 2.5l-2.8-.2c0-3 2-4.8 5-4.8 2.6 0 4.7 1.7 4.7 4.3 0 1.4-.6 2.7-2 4.1-.8.8-2 1.6-3.4 2.6h5.6v2.5h-9.8zM54.9 226.1h4.5c2.5 0 4.4 1.2 4.4 4 0 1.7-.9 3-2.6 3.7l2.8 5.6h-1.9l-2.5-5.3h-3.1v5.3h-1.6v-13.3zm4.6 6.5c1.5 0 2.6-.9 2.6-2.5 0-1.7-1.1-2.6-2.6-2.6h-3v5.1h3zm7.8 2.5c.1 1.8 1.2 3.1 2.9 3.1 1.1 0 1.8-.4 2.5-.9l.8 1.1c-.9.7-2 1.2-3.4 1.2-2.8 0-4.5-2.1-4.5-4.9 0-2.9 1.7-4.9 4.3-4.9 2.5 0 4 2.1 4 4.9v.5h-6.6zm0-1.2h5c-.1-1.5-.9-2.8-2.4-2.8s-2.5 1.3-2.6 2.8zm11.3-4h1.9v1.4h-1.9v8.1H77v-8.1h-1.6v-1.4H77v-1.8c0-1.6 1.1-2.2 2.6-2.2.8 0 1.3.1 1.5.1l-.1 1.3c-.4 0-1-.1-1.3-.1-.9 0-1.1.6-1.1 1.1v1.6zm4.9 5.2c.1 1.8 1.2 3.1 2.9 3.1 1.1 0 1.8-.4 2.5-.9l.8 1.1c-.9.7-2 1.2-3.4 1.2-2.8 0-4.5-2.1-4.5-4.9 0-2.9 1.7-4.9 4.3-4.9 2.5 0 4 2.1 4 4.9v.5h-6.6zm0-1.2h5c-.1-1.5-.9-2.8-2.4-2.8s-2.5 1.3-2.6 2.8zm14-2.6h-.2c-1.6 0-3 .6-3 3.2v4.9h-1.6v-9.5h1.6v1.5c.5-1.1 1.6-1.7 2.8-1.7h.5v1.6zm2.8 3.8c.1 1.8 1.2 3.1 2.9 3.1 1.1 0 1.8-.4 2.5-.9l.8 1.1c-.9.7-2 1.2-3.4 1.2-2.8 0-4.5-2.1-4.5-4.9 0-2.9 1.7-4.9 4.3-4.9 2.5 0 4 2.1 4 4.9v.5h-6.6zm0-1.2h5c-.1-1.5-.9-2.8-2.4-2.8s-2.5 1.3-2.6 2.8zm9.1-4h1.6v1.1c.6-.9 1.6-1.3 2.8-1.3 2.1 0 3.2 1.5 3.2 3.2v6.4h-1.6v-5.9c0-1.7-.9-2.3-2-2.3-1.2 0-2.4.9-2.4 2.6v5.6h-1.6v-9.4zm11.5 4.8c0 1.9.9 3.5 2.8 3.5 1.2 0 2-.7 2.5-1.6l1.3.7c-.6 1.3-2 2.2-3.7 2.2-2.6 0-4.4-2.1-4.4-4.9 0-2.9 1.7-4.9 4.4-4.9 1.7 0 3.1.9 3.7 2.2l-1.3.7c-.5-.9-1.3-1.6-2.5-1.6-1.9.1-2.8 1.7-2.8 3.7zm9.8.4c.1 1.8 1.2 3.1 2.9 3.1 1.1 0 1.8-.4 2.5-.9l.8 1.1c-.9.7-2 1.2-3.4 1.2-2.8 0-4.5-2.1-4.5-4.9 0-2.9 1.7-4.9 4.3-4.9 2.5 0 4 2.1 4 4.9v.5h-6.6zm0-1.2h5c-.1-1.5-.9-2.8-2.4-2.8s-2.5 1.3-2.6 2.8zm14.1-4h1.6v1.1c.6-.9 1.6-1.3 2.8-1.3 2.1 0 3.2 1.5 3.2 3.2v6.4h-1.6v-5.9c0-1.7-.9-2.3-2-2.3-1.2 0-2.4.9-2.4 2.6v5.6h-1.6v-9.4zm17.9 9.5h-1.6v-1.1c-.6.9-1.6 1.3-2.8 1.3-2.1 0-3.2-1.5-3.2-3.2V230h1.6v5.9c0 1.7.9 2.3 2 2.3 1.3 0 2.4-.9 2.4-2.6V230h1.6v9.4zm10.1 0h-1.6v-6c0-1.7-.9-2.3-1.9-2.3s-2.1.8-2.1 2.6v5.6h-1.6v-9.5h1.6v1.1c.6-.9 1.5-1.3 2.5-1.3.9 0 2.1.4 2.6 1.6.7-1.2 1.8-1.6 2.9-1.6 2.1 0 3.2 1.5 3.2 3.2v6.5h-1.6v-6c0-1.7-.9-2.3-1.9-2.3-1 0-2.1.8-2.1 2.6v5.8zm10.1 0h-1.6v-13.3h1.6v4.9c.6-.8 1.6-1.3 2.8-1.3 2.5 0 4 2.1 4 4.9 0 2.9-1.6 4.9-4 4.9-1.2 0-2.2-.5-2.8-1.3v1.2zm5.2-4.8c0-2-1-3.5-2.7-3.5-1.7 0-2.5 1.2-2.5 2.8v1.5c0 1.6.9 2.8 2.5 2.8 1.8 0 2.7-1.5 2.7-3.6zm5.2.5c.1 1.8 1.2 3.1 2.9 3.1 1.1 0 1.8-.4 2.5-.9l.8 1.1c-.9.7-2 1.2-3.4 1.2-2.8 0-4.5-2.1-4.5-4.9 0-2.9 1.7-4.9 4.3-4.9 2.5 0 4 2.1 4 4.9v.5h-6.6zm0-1.2h5c-.1-1.5-.9-2.8-2.4-2.8s-2.5 1.3-2.6 2.8zm13.9-2.6h-.2c-1.6 0-3 .6-3 3.2v4.9h-1.6v-9.5h1.6v1.5c.5-1.1 1.6-1.7 2.8-1.7h.5v1.6zm3.1-1.4c.7 0 1.3.6 1.3 1.3s-.6 1.3-1.3 1.3c-.7 0-1.3-.6-1.3-1.3s.6-1.3 1.3-1.3zm0 7.1c.7 0 1.3.6 1.3 1.3s-.6 1.3-1.3 1.3c-.7 0-1.3-.6-1.3-1.3s.6-1.3 1.3-1.3zM364.6 282.9h9v2.4h-6.3v2.8h5.8v2.4h-5.8v3.2h6.6v2.4h-9.3v-13.2zm13.6 8.1l-3-4.7h3l1.5 2.7 1.6-2.7h3l-3.1 4.7 3.4 5.2h-3l-2-3-1.8 3h-3l3.4-5.2zm10.4 5.4c-1.8 0-3.4-1.1-3.4-3.1 0-1.6 1-2.7 2.8-2.9l3-.4v-.3c0-.9-.6-1.3-1.6-1.3-1.2 0-2.2.5-2.9.8l-1-2c1.2-.6 2.6-1.1 4-1.1 1.8 0 4 .5 4 3.2v4.3c0 .6.3.8.9 1l-1.2 1.8c-1-.1-1.6-.6-1.9-1.1-.5.8-1.5 1.1-2.7 1.1zm.3-4.2c-.6.1-1 .5-1 1 0 .6.5 1.2 1.3 1.2 1.2 0 1.8-.8 1.8-1.8v-.7l-2.1.3zm15.4 4h-2.6v-5.8c0-1.4-.7-1.9-1.5-1.9-1 0-1.7.7-1.7 2.3v5.4H396v-9.9h2.6v.9c.6-.7 1.6-1.1 2.5-1.1 1 0 2 .4 2.6 1.3.7-1 1.8-1.3 3-1.3 2.2 0 3.5 1.6 3.5 3.3v6.8h-2.6v-5.8c0-1.4-.7-1.9-1.5-1.9-1 0-1.7.7-1.7 2.3v5.4zm10.7-9.9v.9c.6-.6 1.3-1 2.5-1 2.6 0 4.4 2.2 4.4 5.1v.1c0 2.9-1.8 5.1-4.4 5.1-1.2 0-1.9-.5-2.5-1v4h-2.6v-13.1h2.6zm0 5.9c0 1.1.8 1.9 2.1 1.9 1.5 0 2.3-1.2 2.3-2.7v-.1c0-1.6-.8-2.7-2.3-2.7-1.3 0-2.1.8-2.1 1.9v1.7zm8.8-9.3h2.6v10.6c0 .4.2.6.8.6.3 0 .7 0 1-.1l.2 2.2s-1.2.2-2.2.2c-1.4 0-2.3-.8-2.3-2.2v-11.3zm7.8 9.3c.2 1.3 1.2 1.9 2.4 1.9 1 0 1.8-.3 2.5-.9l1.3 1.9c-.9.7-2.2 1.3-3.9 1.3-2.7 0-5-1.9-5-5.1v-.1c0-2.9 2-5.1 4.8-5.1 2.6 0 4.6 2 4.6 4.9v1.2h-6.7zm.1-2h4c-.1-.9-.6-1.9-2-1.9-1.3 0-2 1-2 1.9zm13.6 2.9c.7.7 1.9 1.2 2.9 1.2.8 0 1.4-.2 1.4-.8 0-.5-.4-.7-1.2-.9-.6-.2-1.6-.3-2.5-.7-1-.4-1.7-1.2-1.7-2.6 0-2.1 1.9-3.2 4.1-3.2 1.7 0 3.1.6 3.9 1.4l-1.6 1.7c-.5-.5-1.3-.9-2.3-.9-.7 0-1.4.2-1.4.8 0 .5.4.6 1.2.8 1.2.3 2.1.5 2.8.9.8.4 1.4 1.3 1.4 2.4 0 2.1-1.8 3.2-4 3.2-1.6 0-3.5-.6-4.5-1.5l1.5-1.8zm11-.9c.2 1.3 1.2 1.9 2.4 1.9 1 0 1.8-.3 2.5-.9l1.3 1.9c-.9.7-2.2 1.3-3.9 1.3-2.7 0-5-1.9-5-5.1v-.1c0-2.9 2-5.1 4.8-5.1 2.6 0 4.6 2 4.6 4.9v1.2h-6.7zm.1-2h4c-.1-.9-.6-1.9-2-1.9-1.3 0-2 1-2 1.9zm14.2-1.4h-.5c-1.5 0-2.8.5-2.8 2.6v4.8h-2.6v-9.9h2.6v1.1c.4-.7 1.3-1.3 2.6-1.3h.6v2.7zm3.7 7.4l-3-9.9h2.8l1.8 6.8 1.8-6.8h2.8l-3 9.9h-3.2zm9-13.7c.9 0 1.6.7 1.6 1.6s-.7 1.6-1.6 1.6-1.6-.7-1.6-1.6.7-1.6 1.6-1.6zm1.3 13.7H482v-9.9h2.6v9.9zm1.9-5c0-2.9 2-5.1 4.8-5.1 2 0 3.7 1 4.3 2.6l-2.3 1.2c-.4-.8-.9-1.3-2-1.3-1.6 0-2.2 1.4-2.2 2.7v.1c0 1.3.7 2.7 2.2 2.7 1 0 1.6-.5 2-1.3l2.3 1.2c-.6 1.6-2.3 2.6-4.4 2.6-2.7-.2-4.7-2.4-4.7-5.4zm12.9 1c.2 1.3 1.2 1.9 2.4 1.9 1 0 1.8-.3 2.5-.9l1.3 1.9c-.9.7-2.2 1.3-3.9 1.3-2.7 0-5-1.9-5-5.1v-.1c0-2.9 2-5.1 4.8-5.1 2.6 0 4.6 2 4.6 4.9v1.2h-6.7zm0-2h4c-.1-.9-.6-1.9-2-1.9-1.3 0-1.9 1-2 1.9zM59.8 296.4h-4.4v-13.3h4.4c4.1 0 5.9 2.7 5.9 6.6.1 4-1.8 6.7-5.9 6.7zm4.2-6.9c0-2.8-1.3-5-4.2-5H57V295h2.8c3 0 4.2-2.2 4.2-5v-.5zm5.6 2.6c.1 1.8 1.2 3.1 2.9 3.1 1.1 0 1.8-.4 2.5-.9l.8 1.1c-.9.7-2 1.2-3.4 1.2-2.8 0-4.5-2.1-4.5-4.9 0-2.9 1.7-4.9 4.3-4.9 2.5 0 4 2.1 4 4.9v.5h-6.6zm0-1.2h5c-.1-1.5-.9-2.8-2.4-2.8-1.6 0-2.6 1.3-2.6 2.8zm8.2 4.3l.9-1.1c.6.5 1.6 1.2 2.9 1.2 1.1 0 1.9-.5 1.9-1.4 0-1-1-1.3-2.3-1.6-1.3-.4-2.9-.8-2.9-2.8 0-1.6 1.5-2.8 3.5-2.8 1.3 0 2.6.5 3.3 1.2l-.9 1c-.6-.5-1.4-.9-2.3-.9-1.3 0-1.9.6-1.9 1.4 0 .7.5 1 1.4 1.3.5.1 1.1.3 1.6.5 1.3.4 2.3 1.1 2.3 2.6 0 2-1.7 2.8-3.6 2.8-1.4 0-2.8-.5-3.9-1.4zm10.8-3.5c0 1.9.9 3.5 2.8 3.5 1.2 0 2-.7 2.5-1.6l1.3.7c-.6 1.3-2 2.2-3.7 2.2-2.6 0-4.4-2.1-4.4-4.9 0-2.9 1.7-4.9 4.4-4.9 1.7 0 3.1.9 3.7 2.2l-1.3.7c-.5-.9-1.3-1.6-2.5-1.6-1.9.1-2.8 1.7-2.8 3.7zm13.7-3.4h-.2c-1.6 0-3 .6-3 3.2v4.9h-1.6v-9.5H99v1.5c.5-1.1 1.6-1.7 2.8-1.7h.5v1.6zm2.8-5.2c.6 0 1.1.5 1.1 1.2 0 .6-.5 1.2-1.1 1.2-.6 0-1.2-.5-1.2-1.2.1-.7.6-1.2 1.2-1.2zm.8 13.3h-1.6v-9.5h1.6v9.5zm4.6-9.5v1.1c.6-.8 1.6-1.3 2.8-1.3 2.5 0 4 2.1 4 4.9 0 2.9-1.6 4.9-4 4.9-1.2 0-2.2-.5-2.8-1.3v4h-1.6v-12.4h1.6zm5.2 4.7c0-2-1-3.5-2.7-3.5-1.7 0-2.5 1.2-2.5 2.8v1.5c0 1.6.9 2.8 2.5 2.8 1.7 0 2.7-1.5 2.7-3.6zm6.4 2.4c0 .6.1 1.2 1.2 1.2.3 0 .9-.1 1.2-.1l.2 1.4s-.9.1-1.7.1c-1.5 0-2.4-.6-2.4-2.2v-6.1h-1.8v-1.4h1.8v-3.1l1.6-.6v3.6h2.6v1.4h-2.6v5.8zm5.5-10.9c.6 0 1.1.5 1.1 1.2 0 .6-.5 1.2-1.1 1.2-.6 0-1.2-.5-1.2-1.2.1-.7.6-1.2 1.2-1.2zm.8 13.3h-1.6v-9.5h1.6v9.5zm11.2-4.8c0 2.8-1.7 4.9-4.4 4.9-2.6 0-4.4-2.1-4.4-4.9 0-2.9 1.7-4.9 4.4-4.9s4.4 2.1 4.4 4.9zm-1.6.1v-.1c0-1.9-1-3.5-2.8-3.5s-2.8 1.6-2.8 3.5v.1c0 1.9 1 3.5 2.8 3.5s2.8-1.6 2.8-3.5zm4.1-4.8h1.6v1.1c.6-.9 1.6-1.3 2.8-1.3 2.1 0 3.2 1.5 3.2 3.2v6.4H148v-5.9c0-1.7-.9-2.3-2-2.3-1.2 0-2.4.9-2.4 2.6v5.6H142v-9.4zm11.5 0c.7 0 1.3.6 1.3 1.3s-.6 1.3-1.3 1.3c-.7 0-1.3-.6-1.3-1.3s.6-1.3 1.3-1.3zm0 7.1c.7 0 1.3.6 1.3 1.3s-.6 1.3-1.3 1.3c-.7 0-1.3-.6-1.3-1.3s.6-1.3 1.3-1.3z"/><path class="st8" d="M915.7 259.3H52.6m863.1 55.5H52.6"/><path class="st5" d="M370.9 341.3c-.3-.6-.9-1.1-1.8-1.1-1.1 0-1.8.8-1.8 2.1v1.3h2.7v2.3h-2.7v2.8h5.6v2.4h-9.4v-2.4h1.1V346h-1.1v-2.3h1.1v-1.5c0-2.7 1.8-4.4 4.4-4.4 1.8 0 3.3.7 4.1 2l-2.2 1.5zm8.7-3.3v13.3h-2.8v-8.8h-2.4V340h.5c1.6 0 2-.6 2-1.9v-.1h2.7zm13 6.6c0 3.4-1.6 6.8-5.3 6.8s-5.3-3.4-5.3-6.8 1.6-6.8 5.3-6.8 5.3 3.4 5.3 6.8zm-2.8.3v-.5c0-2.5-.8-4.2-2.5-4.2s-2.5 1.7-2.5 4.2v.5c0 2.5.9 4.1 2.5 4.1s2.5-1.6 2.5-4.1zm6.4 3c1 0 1.8.8 1.8 1.8s-.8 1.8-1.8 1.8-1.8-.8-1.8-1.8.9-1.8 1.8-1.8zm14.3-3.3c0 3.4-1.6 6.8-5.3 6.8s-5.3-3.4-5.3-6.8 1.6-6.8 5.3-6.8 5.3 3.4 5.3 6.8zm-2.9.3v-.5c0-2.5-.8-4.2-2.5-4.2s-2.5 1.7-2.5 4.2v.5c0 2.5.9 4.1 2.5 4.1s2.5-1.6 2.5-4.1zm15.3-.3c0 3.4-1.6 6.8-5.3 6.8s-5.3-3.4-5.3-6.8 1.6-6.8 5.3-6.8 5.3 3.4 5.3 6.8zm-2.8.3v-.5c0-2.5-.8-4.2-2.5-4.2s-2.5 1.7-2.5 4.2v.5c0 2.5.9 4.1 2.5 4.1s2.5-1.6 2.5-4.1zM61.6 348.4h-5.3l-.9 3h-1.7l4.1-13.3h2.4l4.2 13.3h-1.8l-1-3zm-4.9-1.4h4.5l-2.2-7.4h-.2l-2.1 7.4zm16.9 4.4H72v-6c0-1.7-.9-2.3-1.9-2.3s-2.1.8-2.1 2.6v5.6h-1.6v-9.5H68v1.1c.6-.9 1.5-1.3 2.5-1.3.9 0 2.1.4 2.6 1.6.7-1.2 1.8-1.6 2.9-1.6 2.1 0 3.2 1.5 3.2 3.2v6.5h-1.6v-6c0-1.7-.9-2.3-1.9-2.3-1 0-2.1.8-2.1 2.6v5.8zm16.7-4.7c0 2.8-1.7 4.9-4.4 4.9-2.6 0-4.4-2.1-4.4-4.9 0-2.9 1.7-4.9 4.4-4.9 2.7-.1 4.4 2 4.4 4.9zm-1.6 0v-.1c0-1.9-1-3.5-2.8-3.5s-2.8 1.6-2.8 3.5v.1c0 1.9 1 3.5 2.8 3.5s2.8-1.6 2.8-3.5zm11.5 4.7h-1.6v-1.1c-.6.9-1.6 1.3-2.8 1.3-2.1 0-3.2-1.5-3.2-3.2V342h1.6v5.9c0 1.7.9 2.3 2 2.3 1.3 0 2.4-.9 2.4-2.6V342h1.6v9.4zm3.1-9.5h1.6v1.1c.6-.9 1.6-1.3 2.8-1.3 2.1 0 3.2 1.5 3.2 3.2v6.4h-1.6v-5.9c0-1.7-.9-2.3-2-2.3-1.2 0-2.4.9-2.4 2.6v5.6h-1.6v-9.4zm12.9 7.1c0 .6.1 1.2 1.2 1.2.3 0 .9-.1 1.2-.1l.2 1.4s-.9.1-1.7.1c-1.5 0-2.4-.6-2.4-2.2v-6.1h-1.8v-1.4h1.8v-3.1l1.6-.6v3.6h2.6v1.4h-2.6v5.8zm5.8-7.1c.7 0 1.3.6 1.3 1.3s-.6 1.3-1.3 1.3c-.7 0-1.3-.6-1.3-1.3s.6-1.3 1.3-1.3zm0 7.1c.7 0 1.3.6 1.3 1.3s-.6 1.3-1.3 1.3c-.7 0-1.3-.6-1.3-1.3s.6-1.3 1.3-1.3zM365.6 404.2c.6.8 1.9 1.8 3.7 1.8 1.5 0 2.4-.7 2.4-1.6 0-1-.8-1.3-2.3-1.6-1.4-.3-3-.5-4.1-1.5-.7-.6-1.1-1.4-1.1-2.7 0-1.7 1.4-3.9 5.1-3.9 2 0 3.9.8 5 2.1l-1.8 1.8c-.7-.9-2-1.5-3.2-1.5-1.2 0-2.2.5-2.2 1.4 0 .6.4 1 1 1.2.8.3 2 .5 3.2.8 1.7.5 3.3 1.3 3.3 3.7 0 2.7-2.5 4.2-5.2 4.2-2.5 0-4.5-1.1-5.6-2.3l1.8-1.9zm19.1 4.1h-2.6v-.9c-.6.6-1.3 1-2.5 1-2.2 0-3.4-1.5-3.4-3.4v-6.7h2.6v5.8c0 1.4.7 1.9 1.6 1.9 1 0 1.8-.7 1.8-2.3v-5.4h2.6v10zm1.9-5c0-2.9 2-5.1 4.8-5.1 2 0 3.7 1 4.3 2.6l-2.3 1.2c-.4-.8-.9-1.3-2-1.3-1.6 0-2.2 1.4-2.2 2.7v.1c0 1.3.7 2.7 2.2 2.7 1 0 1.6-.5 2-1.3l2.3 1.2c-.6 1.6-2.3 2.6-4.4 2.6-2.8-.2-4.7-2.4-4.7-5.4zm10.2 0c0-2.9 2-5.1 4.8-5.1 2 0 3.7 1 4.3 2.6l-2.3 1.2c-.4-.8-.9-1.3-2-1.3-1.6 0-2.2 1.4-2.2 2.7v.1c0 1.3.7 2.7 2.2 2.7 1 0 1.6-.5 2-1.3l2.3 1.2c-.6 1.6-2.3 2.6-4.4 2.6-2.7-.2-4.7-2.4-4.7-5.4zm13 .9c.2 1.3 1.2 1.9 2.4 1.9 1 0 1.8-.3 2.5-.9l1.3 1.9c-.9.7-2.2 1.3-3.9 1.3-2.7 0-5-1.9-5-5.1v-.1c0-2.9 2-5.1 4.8-5.1 2.6 0 4.6 2 4.6 4.9v1.2h-6.7zm0-2h4c-.1-.9-.6-1.9-2-1.9-1.3.1-1.9 1.1-2 1.9zm9.3 2.9c.7.7 1.9 1.2 2.9 1.2.8 0 1.4-.2 1.4-.8 0-.5-.4-.7-1.2-.9-.6-.2-1.6-.3-2.5-.7-1-.4-1.7-1.2-1.7-2.6 0-2.1 1.9-3.2 4.1-3.2 1.7 0 3.1.6 3.9 1.4l-1.6 1.7c-.5-.5-1.3-.9-2.3-.9-.7 0-1.4.2-1.4.8 0 .5.4.6 1.2.8 1.2.3 2.1.5 2.8.9.8.4 1.4 1.3 1.4 2.4 0 2.1-1.8 3.2-4 3.2-1.6 0-3.5-.6-4.5-1.5l1.5-1.8zm9.7 0c.7.7 1.9 1.2 2.9 1.2.8 0 1.4-.2 1.4-.8 0-.5-.4-.7-1.2-.9-.6-.2-1.6-.3-2.5-.7-1-.4-1.7-1.2-1.7-2.6 0-2.1 1.9-3.2 4.1-3.2 1.7 0 3.1.6 3.9 1.4l-1.6 1.7c-.5-.5-1.3-.9-2.3-.9-.7 0-1.4.2-1.4.8 0 .5.4.6 1.2.8 1.2.3 2.1.5 2.8.9.8.4 1.4 1.3 1.4 2.4 0 2.1-1.8 3.2-4 3.2-1.6 0-3.5-.6-4.5-1.5l1.5-1.8zM368.8 449.3v13.3H366v-8.8h-2.4v-2.4h.5c1.6 0 2-.6 2-1.9v-.2h2.7zm14.2 9l-3.9-4.9v9.2h-2.7v-13.3h2.7l3.9 5.2 4-5.2h2.6v13.3H387v-9.2l-4 4.9zm12.1 4.5c-1.8 0-3.4-1.1-3.4-3.1 0-1.6 1-2.7 2.8-2.9l3-.4v-.4c0-.9-.6-1.3-1.6-1.3-1.2 0-2.2.5-2.9.8l-1-2c1.2-.6 2.6-1.1 4-1.1 1.8 0 4 .5 4 3.2v4.3c0 .6.3.8.9 1l-1.2 1.8c-1-.1-1.6-.6-1.9-1.1-.5.8-1.5 1.2-2.7 1.2zm.3-4.2c-.6.1-1 .5-1 1 0 .6.5 1.2 1.3 1.2 1.2 0 1.8-.8 1.8-1.8v-.7l-2.1.3zm9.1 4.4l.1-.3h-.2l-3.1-10h2.8l1.8 6.9 1.8-6.9h2.8l-3.4 11.4c-.4 1.5-1.6 1.9-3.1 1.9-.6 0-1.7-.1-2.3-.2l.5-2.3s.7.1 1.4.1c.5 0 .8-.2.9-.6zm11.5-.4v-2.4s2.1-1.5 4.6-3.5c1.3-1 2.1-2 2.1-3.3 0-1-.7-1.9-1.9-1.9-1.6 0-2.1 1.1-2.1 2.5l-2.8-.2c0-3 2-4.8 5-4.8 2.6 0 4.7 1.7 4.7 4.3 0 1.4-.6 2.7-2 4.1-.8.8-2 1.6-3.4 2.6h5.6v2.5H416zm22.2-6.7c0 3.4-1.6 6.8-5.3 6.8s-5.3-3.4-5.3-6.8 1.6-6.8 5.3-6.8 5.3 3.4 5.3 6.8zm-2.8.3v-.5c0-2.5-.8-4.2-2.5-4.2s-2.5 1.7-2.5 4.2v.5c0 2.5.9 4.1 2.5 4.1s2.5-1.6 2.5-4.1zm9.4-6.9v13.3H442v-8.8h-2.4v-2.4h.5c1.6 0 2-.6 2-1.9v-.2h2.7zm8.8 2.5h-6.7v-2.5h9.5v2.6l-5.1 10.7H448l5.6-10.8zm8.9 3.8h4.9v2.4h-4.9v-2.4zm16.4-6.3v13.3h-2.8v-8.8h-2.4v-2.4h.5c1.6 0 2-.6 2-1.9v-.2h2.7zm13 6.6c0 3.4-1.6 6.8-5.3 6.8s-5.3-3.4-5.3-6.8 1.6-6.8 5.3-6.8 5.3 3.4 5.3 6.8zm-2.8.3v-.5c0-2.5-.8-4.2-2.5-4.2s-2.5 1.7-2.5 4.2v.5c0 2.5.9 4.1 2.5 4.1s2.5-1.6 2.5-4.1zm6.8-3.6c1 0 1.8.8 1.8 1.8 0 .9-.8 1.8-1.8 1.8s-1.8-.8-1.8-1.8.8-1.8 1.8-1.8zm0 6.6c1 0 1.8.8 1.8 1.8s-.8 1.8-1.8 1.8-1.8-.8-1.8-1.8.8-1.8 1.8-1.8zm8.7-9.9v13.3h-2.8v-8.8h-2.4v-2.4h.5c1.6 0 2-.6 2-1.9v-.2h2.7zm2.6 7.3l.7-7.3h8.5v2.4h-6.2l-.3 2.6c.6-.7 1.7-1 2.7-1 2.7 0 4.5 1.9 4.5 4.6 0 2.9-2.3 4.8-5.2 4.8-2.4 0-4.5-1.1-5.1-3.4l2.6-.8c.3 1 1 1.8 2.5 1.8 1.6 0 2.5-1.1 2.5-2.4 0-1.3-.8-2.3-2.4-2.3-.9 0-1.7.4-2.1 1.1l-2.7-.1zM375.4 514.9l1.9-9.2h2.9l-3 13.3h-3.3l-2-9.5-2 9.5h-3.3l-3-13.3h2.9l1.8 9.2 2-9.2h3l2.1 9.2zm15-.8c0 2.9-2 5.1-4.9 5.1s-4.9-2.2-4.9-5.1c0-2.9 1.9-5.1 4.9-5.1 3-.1 4.9 2.1 4.9 5.1zm-2.6-.1c0-1.6-.8-2.8-2.3-2.8s-2.2 1.2-2.3 2.8c0 1.6.8 2.8 2.3 2.8s2.3-1.1 2.3-2.8zm10.3-2.4h-.5c-1.5 0-2.8.5-2.8 2.6v4.8h-2.6v-9.9h2.6v1.1c.4-.7 1.3-1.3 2.6-1.3h.6v2.7zm1.6-5.9h2.6v10.6c0 .4.2.6.8.6.3 0 .7 0 1-.1l.2 2.2s-1.2.2-2.2.2c-1.4 0-2.3-.8-2.3-2.2v-11.3zm5.2 8.3c0-2.9 1.7-5.1 4.4-5.1 1.2 0 2 .5 2.5 1v-4.2h2.6V519h-2.6v-.9c-.6.6-1.3 1-2.5 1-2.6.1-4.4-2.1-4.4-5.1zm6.9-.9c0-1.1-.8-1.9-2.1-1.9-1.5 0-2.3 1.2-2.3 2.7v.1c0 1.6.8 2.7 2.3 2.7 1.3 0 2.1-.8 2.1-1.9v-1.7zm7.5-4v.9c.6-.6 1.3-1 2.5-1 2.6 0 4.4 2.2 4.4 5.1v.1c0 2.9-1.8 5.1-4.4 5.1-1.2 0-1.9-.5-2.5-1v4h-2.6v-13.1h2.6zm-.1 5.9c0 1.1.8 1.9 2.1 1.9 1.5 0 2.3-1.2 2.3-2.7v-.2c0-1.6-.8-2.7-2.3-2.7-1.3 0-2.1.8-2.1 1.9v1.8zm11.7 4.2c-1.8 0-3.4-1.1-3.4-3.1 0-1.6 1-2.7 2.8-2.9l3-.4v-.3c0-.9-.6-1.3-1.6-1.3-1.2 0-2.2.5-2.9.8l-1-2c1.2-.6 2.6-1.1 4-1.1 1.8 0 4 .5 4 3.2v4.3c0 .6.3.8.9 1l-1.2 1.8c-1-.1-1.6-.6-1.9-1.1-.6.7-1.5 1.1-2.7 1.1zm.3-4.2c-.6.1-1 .5-1 1 0 .6.5 1.2 1.3 1.2 1.2 0 1.8-.8 1.8-1.8v-.7l-2.1.3zm9 4.4l.1-.3h-.2l-3.1-10h2.8l1.8 6.9 1.8-6.9h2.8l-3.4 11.4c-.4 1.5-1.6 1.9-3.1 1.9-.6 0-1.7-.1-2.3-.2l.5-2.3s.7.1 1.4.1c.6 0 .8-.2.9-.6zM367.1 574.8c-1.8 0-3.4-1.1-3.4-3.1 0-1.6 1-2.7 2.8-2.9l3-.4v-.4c0-.9-.6-1.3-1.6-1.3-1.2 0-2.2.5-2.9.8l-1-2c1.2-.6 2.6-1.1 4-1.1 1.8 0 4 .5 4 3.2v4.3c0 .6.3.8.9 1l-1.2 1.8c-1-.1-1.6-.6-1.9-1.1-.5.8-1.5 1.2-2.7 1.2zm.3-4.2c-.6.1-1 .5-1 1 0 .6.5 1.2 1.3 1.2 1.2 0 1.8-.8 1.8-1.8v-.7l-2.1.3zm6.9 4v-2.4s2.1-1.5 4.6-3.5c1.3-1 2.1-2 2.1-3.3 0-1-.7-1.9-1.9-1.9-1.6 0-2.1 1.1-2.1 2.5l-2.8-.2c0-3 2-4.8 5-4.8 2.6 0 4.7 1.7 4.7 4.3 0 1.4-.6 2.7-2 4.1-.8.8-2 1.6-3.4 2.6h5.6v2.5h-9.8zm21.3-4.9c0 2.9-1.8 5.1-4.4 5.1-1.2 0-1.9-.5-2.5-1v.9h-2.6v-13.3h2.6v4.2c.6-.6 1.3-1 2.5-1 2.7-.1 4.4 2 4.4 5.1zm-6.9.9c0 1.1.8 1.9 2.1 1.9 1.5 0 2.3-1.2 2.3-2.7v-.1c0-1.6-.8-2.7-2.3-2.7-1.3 0-2.1.8-2.1 1.9v1.7zm8.8-2l.7-7.3h8.5v2.4h-6.2l-.3 2.6c.6-.7 1.7-1 2.7-1 2.7 0 4.5 1.9 4.5 4.6 0 2.9-2.3 4.8-5.2 4.8-2.4 0-4.5-1.1-5.1-3.4l2.6-.8c.3 1 1 1.8 2.5 1.8 1.6 0 2.5-1.1 2.5-2.4 0-1.3-.8-2.3-2.4-2.3-.9 0-1.7.4-2.1 1.1l-2.7-.1zm15.2-3.9h1.9v2.3h-1.9v7.6h-2.6V567h-1.6v-2.3h1.6v-1c0-1.7 1.2-2.5 3-2.5.9 0 1.7.1 2 .1l-.2 2.2c-.3-.1-.9-.1-1.3-.1-.7 0-1 .3-1 .7v.6zm5.6 5.8c.2 1.3 1.2 1.9 2.4 1.9 1 0 1.8-.3 2.5-.9l1.3 1.9c-.9.7-2.2 1.3-3.9 1.3-2.7 0-5-1.9-5-5.1v-.1c0-2.9 2-5.1 4.8-5.1 2.6 0 4.6 2 4.6 4.9v1.2h-6.7zm0-1.9h4c-.1-.9-.6-1.9-2-1.9-1.3 0-1.9 1-2 1.9zm8.2-.5c0-3.6 1.7-7 5.7-7 2.2 0 3.8 1.1 4.5 2.7l-2.6 1c-.4-.9-1.1-1.3-2-1.3-1.8 0-2.5 1.6-2.7 3.5.6-.8 1.8-1.2 2.9-1.2 2.6 0 4.5 1.8 4.5 4.3 0 2.7-2 4.7-4.9 4.7-3.2 0-5.4-2.4-5.4-6.3v-.4zm5.3 4.4c1.4 0 2.3-1 2.3-2.2 0-1.2-.9-2.2-2.3-2.2s-2.3 1-2.3 2.2c0 1.2.9 2.2 2.3 2.2zm17.4-4.5c0 3.4-1.6 6.8-5.3 6.8s-5.3-3.4-5.3-6.8 1.6-6.8 5.3-6.8 5.3 3.3 5.3 6.8zm-2.8.2v-.5c0-2.5-.8-4.2-2.5-4.2s-2.5 1.7-2.5 4.2v.5c0 2.5.9 4.1 2.5 4.1s2.5-1.6 2.5-4.1zm4.9-.6h4.9v2.4h-4.9v-2.4zm11.8-6.3v13.3h-2.8v-8.8h-2.4v-2.4h.5c1.6 0 2-.6 2-1.9v-.2h2.7zm6.1 3.4h1.9v2.3h-1.9v7.6h-2.6V567H465v-2.3h1.6v-1c0-1.7 1.2-2.5 3-2.5.9 0 1.7.1 2 .1l-.2 2.2c-.3-.1-.9-.1-1.3-.1-.7 0-1 .3-1 .7v.6zm13.5 3.1c0 3.6-1.7 7-5.7 7-2.2 0-3.8-1.1-4.5-2.7l2.6-1c.4.9 1.1 1.3 2 1.3 1.8 0 2.5-1.6 2.7-3.5-.6.8-1.8 1.2-2.9 1.2-2.6 0-4.5-1.8-4.5-4.3 0-2.7 2-4.7 4.9-4.7 3.2 0 5.4 2.4 5.4 6.3v.4zm-5.3-4.3c-1.4 0-2.3 1-2.3 2.2 0 1.2.9 2.2 2.3 2.2s2.3-1 2.3-2.2c0-1.3-.9-2.2-2.3-2.2zm7.3 11.1v-2.4s2.1-1.5 4.6-3.5c1.3-1 2.1-2 2.1-3.3 0-1-.7-1.9-1.9-1.9-1.6 0-2.1 1.1-2.1 2.5l-2.8-.2c0-3 2-4.8 5-4.8 2.6 0 4.7 1.7 4.7 4.3 0 1.4-.6 2.7-2 4.1-.8.8-2 1.6-3.4 2.6h5.6v2.5h-9.8zm11.8-7h4.9v2.4h-4.9v-2.4zm13.3 7v-3h-6.6v-2.9l6.1-7.4h3.2v7.9h1.9v2.4h-1.9v3h-2.7zm0-5.4v-5l-4.1 5h4.1zm16.2-4.3c0 .9-.5 2.1-1.8 2.8 1.5.6 2.2 1.9 2.2 3.1 0 2.8-2.6 4-5.2 4-2.7 0-5.2-1.2-5.2-4 0-1.2.7-2.5 2.2-3.1-1.3-.6-1.8-1.8-1.8-2.8 0-2.5 2.4-3.8 4.9-3.8 2.3 0 4.7 1.2 4.7 3.8zm-2.5 5.8c0-1.1-1-1.8-2.4-1.8s-2.4.8-2.4 1.8c0 1.1 1 1.8 2.4 1.8s2.4-.7 2.4-1.8zm-.3-5.7c0-1-.9-1.6-2.1-1.6s-2.1.6-2.1 1.6c0 1.1.8 1.6 2.1 1.6s2.1-.5 2.1-1.6zm11.2 9.6v-3h-6.6v-2.9l6.1-7.4h3.2v7.9h1.9v2.4h-1.9v3h-2.7zm0-5.4v-5l-4.1 5h4.1zm16.8-1.2c0 3.4-1.6 6.8-5.3 6.8s-5.3-3.4-5.3-6.8 1.6-6.8 5.3-6.8 5.3 3.3 5.3 6.8zm-2.8.2v-.5c0-2.5-.8-4.2-2.5-4.2s-2.5 1.7-2.5 4.2v.5c0 2.5.9 4.1 2.5 4.1s2.5-1.6 2.5-4.1zm4.9-.6h4.9v2.4h-4.9v-2.4zm10.1 7.2c-1.8 0-3.4-1.1-3.4-3.1 0-1.6 1-2.7 2.8-2.9l3-.4v-.4c0-.9-.6-1.3-1.6-1.3-1.2 0-2.2.5-2.9.8l-1-2c1.2-.6 2.6-1.1 4-1.1 1.8 0 4 .5 4 3.2v4.3c0 .6.3.8.9 1l-1.2 1.8c-1-.1-1.6-.6-1.9-1.1-.6.8-1.5 1.2-2.7 1.2zm.3-4.2c-.6.1-1 .5-1 1 0 .6.5 1.2 1.3 1.2 1.2 0 1.8-.8 1.8-1.8v-.7l-2.1.3zm6.5-1c0-2.9 2-5.1 4.8-5.1 2 0 3.7 1 4.3 2.6l-2.3 1.2c-.4-.8-.9-1.3-2-1.3-1.6 0-2.2 1.4-2.2 2.7v.1c0 1.3.7 2.7 2.2 2.7 1 0 1.6-.5 2-1.3l2.3 1.2c-.6 1.6-2.3 2.6-4.4 2.6-2.7-.2-4.7-2.4-4.7-5.4zm13.8 5.2c-1.8 0-3.4-1.1-3.4-3.1 0-1.6 1-2.7 2.8-2.9l3-.4v-.4c0-.9-.6-1.3-1.6-1.3-1.2 0-2.2.5-2.9.8l-1-2c1.2-.6 2.6-1.1 4-1.1 1.8 0 4 .5 4 3.2v4.3c0 .6.3.8.9 1l-1.2 1.8c-1-.1-1.6-.6-1.9-1.1-.6.8-1.6 1.2-2.7 1.2zm.3-4.2c-.6.1-1 .5-1 1 0 .6.5 1.2 1.3 1.2 1.2 0 1.8-.8 1.8-1.8v-.7l-2.1.3zm7-2l.7-7.3h8.5v2.4h-6.2l-.3 2.6c.6-.7 1.7-1 2.7-1 2.7 0 4.5 1.9 4.5 4.6 0 2.9-2.3 4.8-5.2 4.8-2.4 0-4.5-1.1-5.1-3.4l2.6-.8c.3 1 1 1.8 2.5 1.8 1.6 0 2.5-1.1 2.5-2.4 0-1.3-.8-2.3-2.4-2.3-.9 0-1.7.4-2.1 1.1l-2.7-.1zm11.7-1h4.9v2.4H603v-2.4zm12.9-3.8h-6.7v-2.5h9.5v2.6l-5.1 10.7h-3.2l5.5-10.8zm4.4 4.8l.7-7.3h8.5v2.4h-6.2l-.3 2.6c.6-.7 1.7-1 2.7-1 2.7 0 4.5 1.9 4.5 4.6 0 2.9-2.3 4.8-5.2 4.8-2.4 0-4.5-1.1-5.1-3.4l2.6-.8c.3 1 1 1.8 2.5 1.8 1.6 0 2.5-1.1 2.5-2.4 0-1.3-.8-2.3-2.4-2.3-.9 0-1.7.4-2.1 1.1l-2.7-.1zm16.4-7.3v13.3h-2.8v-8.8h-2.4v-2.4h.5c1.6 0 2-.6 2-1.9v-.2h2.7zm7.2 0v13.3h-2.8v-8.8h-2.4v-2.4h.5c1.6 0 2-.6 2-1.9v-.2h2.7zm7.2 0v13.3h-2.8v-8.8h-2.4v-2.4h.5c1.6 0 2-.6 2-1.9v-.2h2.7zm2.3 6.8c0-3.6 1.7-7 5.7-7 2.2 0 3.8 1.1 4.5 2.7l-2.6 1c-.4-.9-1.1-1.3-2-1.3-1.8 0-2.5 1.6-2.7 3.5.6-.8 1.8-1.2 2.9-1.2 2.6 0 4.5 1.8 4.5 4.3 0 2.7-2 4.7-4.9 4.7-3.2 0-5.4-2.4-5.4-6.3v-.4zm5.3 4.4c1.4 0 2.3-1 2.3-2.2 0-1.2-.9-2.2-2.3-2.2s-2.3 1-2.3 2.2c0 1.2.9 2.2 2.3 2.2zm16.9-7.6c0 .9-.5 2.1-1.8 2.8 1.5.6 2.2 1.9 2.2 3.1 0 2.8-2.6 4-5.2 4-2.7 0-5.2-1.2-5.2-4 0-1.2.7-2.5 2.2-3.1-1.3-.6-1.8-1.8-1.8-2.8 0-2.5 2.4-3.8 4.9-3.8 2.3 0 4.7 1.2 4.7 3.8zm-2.5 5.8c0-1.1-1-1.8-2.4-1.8s-2.4.8-2.4 1.8c0 1.1 1 1.8 2.4 1.8s2.4-.7 2.4-1.8zm-.3-5.7c0-1-.9-1.6-2.1-1.6s-2.1.6-2.1 1.6c0 1.1.8 1.6 2.1 1.6s2.1-.5 2.1-1.6zm14.6 4.7c0 2.9-1.8 5.1-4.4 5.1-1.2 0-1.9-.5-2.5-1v.9H678v-13.3h2.6v4.2c.6-.6 1.3-1 2.5-1 2.6-.1 4.3 2 4.3 5.1zm-6.9.9c0 1.1.8 1.9 2.1 1.9 1.5 0 2.3-1.2 2.3-2.7v-.1c0-1.6-.8-2.7-2.3-2.7-1.3 0-2.1.8-2.1 1.9v1.7zm8.8-2l.7-7.3h8.5v2.4h-6.2l-.3 2.6c.6-.7 1.7-1 2.7-1 2.7 0 4.5 1.9 4.5 4.6 0 2.9-2.3 4.8-5.2 4.8-2.4 0-4.5-1.1-5.1-3.4l2.6-.8c.3 1 1 1.8 2.5 1.8 1.6 0 2.5-1.1 2.5-2.4 0-1.3-.8-2.3-2.4-2.3-.9 0-1.7.4-2.1 1.1l-2.7-.1zm21.3 1.1c0 2.9-1.8 5.1-4.4 5.1-1.2 0-1.9-.5-2.5-1v.9h-2.6v-13.3h2.6v4.2c.6-.6 1.3-1 2.5-1 2.6-.1 4.4 2 4.4 5.1zm-7 .9c0 1.1.8 1.9 2.1 1.9 1.5 0 2.3-1.2 2.3-2.7v-.1c0-1.6-.8-2.7-2.3-2.7-1.3 0-2.1.8-2.1 1.9v1.7zm11.1-.1c.4 1.3 1.3 1.8 2.5 1.8 1.7 0 2.3-.9 2.3-1.7 0-1-.8-1.6-2.6-1.6h-.8v-2.4h.6c1.6 0 2.5-.5 2.5-1.6 0-1-.8-1.5-2-1.5-1.3 0-2.1.8-2.5 1.8l-2.5-.8c.5-2.3 2.8-3.4 5-3.4 2.7 0 4.8 1.4 4.8 3.8 0 1.3-.9 2.5-2.2 2.8 1.4.3 2.4 1.4 2.4 3.1 0 2.7-2.2 4-5.1 4-2.5 0-4.8-1.2-5.2-3.6l2.8-.7zm12.6 4.3c-1.8 0-3.4-1.1-3.4-3.1 0-1.6 1-2.7 2.8-2.9l3-.4v-.4c0-.9-.6-1.3-1.6-1.3-1.2 0-2.2.5-2.9.8l-1-2c1.2-.6 2.6-1.1 4-1.1 1.8 0 4 .5 4 3.2v4.3c0 .6.3.8.9 1l-1.2 1.8c-1-.1-1.6-.6-1.9-1.1-.6.8-1.5 1.2-2.7 1.2zm.3-4.2c-.6.1-1 .5-1 1 0 .6.5 1.2 1.3 1.2 1.2 0 1.8-.8 1.8-1.8v-.7l-2.1.3zM55.6 405.4c.9 1.1 2.2 1.7 3.8 1.7 1.6 0 3-.8 3-2.4 0-1-.5-1.5-1.3-1.9-1.3-.6-3.4-.7-4.8-1.5-.9-.5-1.6-1.3-1.6-2.8 0-2.1 1.7-3.7 4.5-3.7 1.7 0 3.4.7 4.4 1.8l-1.2 1c-.7-.7-1.8-1.4-3.2-1.4-1.6 0-2.9.8-2.9 2.2 0 2.2 3.1 1.9 5.4 2.9 1.2.5 2.2 1.4 2.2 3.2 0 2.6-2.4 4-4.8 4-2.2 0-3.8-.9-4.9-2.1l1.4-1zm13.1.6c0 .6.1 1.2 1.2 1.2.3 0 .9-.1 1.2-.1l.2 1.4s-.9.1-1.7.1c-1.5 0-2.4-.6-2.4-2.2v-6.1h-1.8v-1.4h1.8v-3.1l1.6-.6v3.6h2.6v1.4h-2.6v5.8zm7.3 2.6c-1.9 0-3.3-1.1-3.3-2.9 0-1.5 1-2.5 2.5-2.7l3.3-.5v-.5c0-1.4-.9-1.9-2.1-1.9-1.1 0-2 .3-2.7.7l-.6-1.2c1.1-.6 2.3-.9 3.5-.9 2.3 0 3.5 1 3.5 3v4.4c0 .6.2 1 .8 1.3l-.9 1.1c-.6-.2-1.1-.6-1.3-1.1-.5.7-1.4 1.2-2.7 1.2zm.1-4.4c-1 .2-1.7.5-1.7 1.5 0 1.1.9 1.7 1.9 1.7 1.2 0 2.3-.7 2.3-1.8v-1.7l-2.5.3zm9.5 1.8c0 .6.1 1.2 1.2 1.2.3 0 .9-.1 1.2-.1l.2 1.4s-.9.1-1.7.1c-1.5 0-2.4-.6-2.4-2.2v-6.1h-1.8v-1.4h1.8v-3.1l1.6-.6v3.6h2.6v1.4h-2.6v5.8zm12.2 2.4h-1.6v-1.1c-.6.9-1.6 1.3-2.8 1.3-2.1 0-3.2-1.5-3.2-3.2V399h1.6v5.9c0 1.7.9 2.3 2 2.3 1.3 0 2.4-.9 2.4-2.6V399h1.6v9.4zm2.2-1.2l.9-1.1c.6.5 1.6 1.2 2.9 1.2 1.1 0 1.9-.5 1.9-1.4 0-1-1-1.3-2.3-1.6-1.3-.4-2.9-.8-2.9-2.8 0-1.6 1.5-2.8 3.5-2.8 1.3 0 2.6.5 3.3 1.2l-.9 1c-.6-.5-1.4-.9-2.3-.9-1.3 0-1.9.6-1.9 1.4 0 .7.5 1 1.4 1.3.5.1 1.1.3 1.6.5 1.3.4 2.3 1.1 2.3 2.6 0 2-1.7 2.8-3.6 2.8-1.4 0-2.8-.4-3.9-1.4zm10.8-8.3c.7 0 1.3.6 1.3 1.3s-.6 1.3-1.3 1.3c-.7 0-1.3-.6-1.3-1.3s.6-1.3 1.3-1.3zm0 7.1c.7 0 1.3.6 1.3 1.3s-.6 1.3-1.3 1.3c-.7 0-1.3-.6-1.3-1.3s.6-1.3 1.3-1.3z"/><path class="st8" d="M915.7 371.3H52.6m863.1 55.6H52.6"/><path class="st5" d="M59.8 462.6h-4.4v-13.3h4.4c4.1 0 5.9 2.7 5.9 6.6.1 4-1.8 6.7-5.9 6.7zm4.2-6.9c0-2.8-1.3-5-4.2-5H57v10.5h2.8c3 0 4.2-2.2 4.2-5v-.5zm7 7.1c-1.9 0-3.3-1.1-3.3-2.9 0-1.5 1-2.5 2.5-2.7l3.3-.5v-.6c0-1.4-.9-1.9-2.1-1.9-1.1 0-2 .3-2.7.7l-.6-1.2c1.1-.6 2.3-.9 3.5-.9 2.3 0 3.5 1 3.5 3v4.4c0 .6.2 1 .8 1.3l-.9 1.1c-.6-.2-1.1-.6-1.3-1.1-.5.8-1.4 1.3-2.7 1.3zm0-4.4c-1 .2-1.7.5-1.7 1.5 0 1.1.9 1.7 1.9 1.7 1.2 0 2.3-.7 2.3-1.8V458l-2.5.4zm9.6 1.8c0 .6.1 1.2 1.2 1.2.3 0 .9-.1 1.2-.1l.2 1.4s-.9.1-1.7.1c-1.5 0-2.4-.6-2.4-2.2v-6.1h-1.8v-1.4H79V450l1.6-.6v3.6h2.6v1.4h-2.6v5.8zm5.8-1.9c.1 1.8 1.2 3.1 2.9 3.1 1.1 0 1.8-.4 2.5-.9l.8 1.1c-.9.7-2 1.2-3.4 1.2-2.8 0-4.5-2.1-4.5-4.9 0-2.9 1.7-4.9 4.3-4.9 2.5 0 4 2.1 4 4.9v.5h-6.6zm0-1.2h5c-.1-1.5-.9-2.8-2.4-2.8s-2.5 1.3-2.6 2.8zm15.1.8c0 1.9.9 3.5 2.8 3.5 1.2 0 2-.7 2.5-1.6l1.3.7c-.6 1.3-2 2.2-3.7 2.2-2.6 0-4.4-2.1-4.4-4.9 0-2.9 1.7-4.9 4.4-4.9 1.7 0 3.1.9 3.7 2.2l-1.3.7c-.5-.9-1.3-1.6-2.5-1.6-1.9.1-2.8 1.7-2.8 3.7zm13.7-3.4h-.2c-1.6 0-3 .6-3 3.2v4.9h-1.6v-9.5h1.6v1.5c.5-1.1 1.6-1.7 2.8-1.7h.5v1.6zm2.8 3.8c.1 1.8 1.2 3.1 2.9 3.1 1.1 0 1.8-.4 2.5-.9l.8 1.1c-.9.7-2 1.2-3.4 1.2-2.8 0-4.5-2.1-4.5-4.9 0-2.9 1.7-4.9 4.3-4.9 2.5 0 4 2.1 4 4.9v.5H118zm.1-1.2h5c-.1-1.5-.9-2.8-2.4-2.8-1.6 0-2.6 1.3-2.6 2.8zm11.6 5.7c-1.9 0-3.3-1.1-3.3-2.9 0-1.5 1-2.5 2.5-2.7l3.3-.5v-.6c0-1.4-.9-1.9-2.1-1.9-1.1 0-2 .3-2.7.7l-.6-1.2c1.1-.6 2.3-.9 3.5-.9 2.3 0 3.5 1 3.5 3v4.4c0 .6.2 1 .8 1.3l-.9 1.1c-.6-.2-1.1-.6-1.3-1.1-.5.8-1.4 1.3-2.7 1.3zm0-4.4c-1 .2-1.7.5-1.7 1.5 0 1.1.9 1.7 1.9 1.7 1.2 0 2.3-.7 2.3-1.8V458l-2.5.4zm9.6 1.8c0 .6.1 1.2 1.2 1.2.3 0 .9-.1 1.2-.1l.2 1.4s-.9.1-1.7.1c-1.5 0-2.4-.6-2.4-2.2v-6.1H136v-1.4h1.8V450l1.6-.6v3.6h2.6v1.4h-2.6v5.8zm5.6-10.9c.6 0 1.1.5 1.1 1.2 0 .6-.5 1.2-1.1 1.2-.6 0-1.2-.5-1.2-1.2s.5-1.2 1.2-1.2zm.7 13.3H144v-9.5h1.6v9.5zm4.1-4.3c.1 1.8 1.2 3.1 2.9 3.1 1.1 0 1.8-.4 2.5-.9l.8 1.1c-.9.7-2 1.2-3.4 1.2-2.8 0-4.5-2.1-4.5-4.9 0-2.9 1.7-4.9 4.3-4.9 2.5 0 4 2.1 4 4.9v.5h-6.6zm.1-1.2h5c-.1-1.5-.9-2.8-2.4-2.8-1.6 0-2.6 1.3-2.6 2.8zm15.3 4.4c-.6.8-1.6 1.3-2.8 1.3-2.5 0-4-2.1-4-4.9 0-2.9 1.6-4.9 4-4.9 1.2 0 2.2.5 2.8 1.3v-4.9h1.6v13.3h-1.6v-1.2zm-5.2-3.6c0 2 .9 3.5 2.7 3.5 1.7 0 2.5-1.2 2.5-2.8v-1.5c0-1.6-.9-2.8-2.5-2.8-1.8 0-2.7 1.5-2.7 3.6zm10.8-4.8c.7 0 1.3.6 1.3 1.3s-.6 1.3-1.3 1.3c-.7 0-1.3-.6-1.3-1.3s.6-1.3 1.3-1.3zm0 7.1c.7 0 1.3.6 1.3 1.3s-.6 1.3-1.3 1.3c-.7 0-1.3-.6-1.3-1.3s.6-1.3 1.3-1.3z"/><path class="st8" d="M915.7 482.6H52.6"/><path class="st5" d="M54.9 505.7h4.7c2.5 0 4.1 1.7 4.1 4.2s-1.8 4.2-4.3 4.2h-2.8v5H55v-13.4zm4.3 1.4h-2.7v5.5h2.7c1.7 0 2.7-1.1 2.7-2.7v-.1c.1-1.5-1-2.7-2.7-2.7zm11.5 3.8h-.2c-1.6 0-3 .6-3 3.2v4.9h-1.6v-9.5h1.6v1.5c.5-1.1 1.6-1.7 2.8-1.7h.5v1.6zm9.9 3.4c0 2.8-1.7 4.9-4.4 4.9-2.6 0-4.4-2.1-4.4-4.9 0-2.9 1.7-4.9 4.4-4.9s4.4 2 4.4 4.9zm-1.6 0v-.1c0-1.9-1-3.5-2.8-3.5s-2.8 1.6-2.8 3.5v.1c0 1.9 1 3.5 2.8 3.5s2.8-1.6 2.8-3.5zm5.9 4.7l-3-9.5h1.8l2.3 8 2.3-8H90l-3 9.5h-2.1zm8-13.3c.6 0 1.1.5 1.1 1.2 0 .6-.5 1.2-1.1 1.2-.6 0-1.2-.5-1.2-1.2 0-.6.5-1.2 1.2-1.2zm.7 13.3H92v-9.5h1.6v9.5zm9.3-1.1c-.6.8-1.6 1.3-2.8 1.3-2.5 0-4-2.1-4-4.9 0-2.9 1.6-4.9 4-4.9 1.2 0 2.2.5 2.8 1.3v-4.9h1.6V519h-1.6v-1.1zm-5.2-3.6c0 2 .9 3.5 2.7 3.5 1.7 0 2.5-1.2 2.5-2.8v-1.5c0-1.6-.9-2.8-2.5-2.8-1.7 0-2.7 1.6-2.7 3.6zm10.9.5c.1 1.8 1.2 3.1 2.9 3.1 1.1 0 1.8-.4 2.5-.9l.8 1.1c-.9.7-2 1.2-3.4 1.2-2.8 0-4.5-2.1-4.5-4.9 0-2.9 1.7-4.9 4.3-4.9 2.5 0 4 2.1 4 4.9v.5h-6.6zm0-1.3h5c-.1-1.5-.9-2.8-2.4-2.8s-2.5 1.4-2.6 2.8zm13.9-2.6h-.2c-1.6 0-3 .6-3 3.2v4.9h-1.6v-9.5h1.6v1.5c.5-1.1 1.6-1.7 2.8-1.7h.5v1.6zm3.1-1.4c.7 0 1.3.6 1.3 1.3s-.6 1.3-1.3 1.3c-.7 0-1.3-.6-1.3-1.3s.6-1.3 1.3-1.3zm0 7.2c.7 0 1.3.6 1.3 1.3s-.6 1.3-1.3 1.3c-.7 0-1.3-.6-1.3-1.3s.6-1.3 1.3-1.3zM55.4 561.3h4.7c2.5 0 4.1 1.7 4.1 4.2s-1.8 4.2-4.3 4.2H57v5h-1.6v-13.4zm4.3 1.4H57v5.5h2.7c1.7 0 2.7-1.1 2.7-2.7v-.1c.1-1.5-1-2.7-2.7-2.7zm11.5 3.8H71c-1.6 0-3 .6-3 3.2v4.9h-1.6v-9.5H68v1.5c.5-1.1 1.6-1.7 2.8-1.7h.5v1.6zm9.9 3.4c0 2.8-1.7 4.9-4.4 4.9-2.6 0-4.4-2.1-4.4-4.9 0-2.9 1.7-4.9 4.4-4.9 2.7-.1 4.4 2 4.4 4.9zm-1.6 0v-.1c0-1.9-1-3.5-2.8-3.5s-2.8 1.6-2.8 3.5v.1c0 1.9 1 3.5 2.8 3.5s2.8-1.6 2.8-3.5zm5.9 4.7l-3-9.5h1.8l2.3 8 2.3-8h1.8l-3 9.5h-2.2zm8-13.3c.6 0 1.1.5 1.1 1.2 0 .6-.5 1.2-1.1 1.2-.6 0-1.2-.5-1.2-1.2s.5-1.2 1.2-1.2zm.7 13.3h-1.6v-9.5h1.6v9.5zm9.3-1.1c-.6.8-1.6 1.3-2.8 1.3-2.5 0-4-2.1-4-4.9 0-2.9 1.6-4.9 4-4.9 1.2 0 2.2.5 2.8 1.3v-4.9h1.6v13.3h-1.6v-1.2zm-5.2-3.6c0 2 .9 3.5 2.7 3.5 1.7 0 2.5-1.2 2.5-2.8v-1.5c0-1.6-.9-2.8-2.5-2.8-1.7 0-2.7 1.5-2.7 3.6zm10.9.4c.1 1.8 1.2 3.1 2.9 3.1 1.1 0 1.8-.4 2.5-.9l.8 1.1c-.9.7-2 1.2-3.4 1.2-2.8 0-4.5-2.1-4.5-4.9 0-2.9 1.7-4.9 4.3-4.9 2.5 0 4 2.1 4 4.9v.5h-6.6zm0-1.2h5c-.1-1.5-.9-2.8-2.4-2.8s-2.5 1.3-2.6 2.8zm13.9-2.6h-.2c-1.6 0-3 .6-3 3.2v4.9h-1.6v-9.5h1.6v1.5c.5-1.1 1.6-1.7 2.8-1.7h.5v1.6zm7-5.2h1.6v13.3H130v-13.3zm9.9 13.3h-4.4v-13.3h4.4c4.1 0 5.9 2.7 5.9 6.6 0 4-1.8 6.7-5.9 6.7zm4.2-6.9c0-2.8-1.3-5-4.2-5h-2.8v10.5h2.8c3 0 4.2-2.2 4.2-5v-.5zm5.5-2.6c.7 0 1.3.6 1.3 1.3s-.6 1.3-1.3 1.3c-.7 0-1.3-.6-1.3-1.3s.6-1.3 1.3-1.3zm0 7.1c.7 0 1.3.6 1.3 1.3s-.6 1.3-1.3 1.3c-.7 0-1.3-.6-1.3-1.3s.6-1.3 1.3-1.3z"/><path class="st8" d="M915.7 539.1H52.6m863.1 55.5H52.6"/><path class="st18" d="M719.2 149.1H915v34.5H719.2z"/><path class="st19" d="M719.2 145.1H915v34.5H719.2z"/><path class="st4" d="M745.9 155.7h4.5c2.5 0 4.4 1.2 4.4 4 0 1.7-.9 3-2.6 3.7l2.8 5.6h-1.9l-2.5-5.3h-3.1v5.3h-1.6v-13.3zm4.7 6.5c1.5 0 2.6-.9 2.6-2.5 0-1.7-1.1-2.6-2.6-2.6h-3v5.1h3zm7.7 2.5c.1 1.8 1.2 3.1 2.9 3.1 1.1 0 1.8-.4 2.5-.9l.8 1.1c-.9.7-2 1.2-3.4 1.2-2.8 0-4.5-2.1-4.5-4.9 0-2.9 1.7-4.9 4.3-4.9 2.5 0 4 2.1 4 4.9v.5h-6.6zm0-1.3h5c-.1-1.5-.9-2.8-2.4-2.8-1.5.1-2.5 1.4-2.6 2.8zm11.3-3.9h1.9v1.4h-1.9v8.1H768v-8.1h-1.6v-1.4h1.6v-1.8c0-1.6 1.1-2.2 2.6-2.2.8 0 1.3.1 1.5.1l-.1 1.3c-.4 0-1-.1-1.3-.1-.9 0-1.1.6-1.1 1.1v1.6zm11.5 9.5h-1.6v-1.1c-.6.9-1.6 1.3-2.8 1.3-2.1 0-3.2-1.5-3.2-3.2v-6.4h1.6v5.9c0 1.7.9 2.3 2 2.3 1.3 0 2.4-.9 2.4-2.6v-5.6h1.6v9.4zm3-9.5h1.6v1.1c.6-.9 1.6-1.3 2.8-1.3 2.1 0 3.2 1.5 3.2 3.2v6.4h-1.6V163c0-1.7-.9-2.3-2-2.3-1.2 0-2.4.9-2.4 2.6v5.6h-1.6v-9.4zm16.7 8.4c-.6.8-1.6 1.3-2.8 1.3-2.5 0-4-2.1-4-4.9 0-2.9 1.6-4.9 4-4.9 1.2 0 2.2.5 2.8 1.3v-4.9h1.6V169h-1.6v-1.1zm-5.2-3.6c0 2 .9 3.5 2.7 3.5 1.7 0 2.5-1.2 2.5-2.8v-1.5c0-1.6-.9-2.8-2.5-2.8-1.7 0-2.7 1.5-2.7 3.6zm16.4-4.8v1.1c.6-.8 1.6-1.3 2.8-1.3 2.5 0 4 2.1 4 4.9 0 2.9-1.6 4.9-4 4.9-1.2 0-2.2-.5-2.8-1.3v4h-1.6v-12.4h1.6zm5.2 4.7c0-2-1-3.5-2.7-3.5-1.7 0-2.5 1.2-2.5 2.8v1.5c0 1.6.9 2.8 2.5 2.8 1.7 0 2.7-1.6 2.7-3.6zm6.7 4.9c-1.9 0-3.3-1.1-3.3-2.9 0-1.5 1-2.5 2.5-2.7l3.3-.5v-.6c0-1.4-.9-1.9-2.1-1.9-1.1 0-2 .3-2.7.7l-.6-1.2c1.1-.6 2.3-.9 3.5-.9 2.3 0 3.5 1 3.5 3v4.4c0 .6.2 1 .8 1.3l-.9 1.1c-.6-.2-1.1-.6-1.3-1.1-.5.8-1.5 1.3-2.7 1.3zm0-4.4c-1 .2-1.7.5-1.7 1.5 0 1.1.9 1.7 1.9 1.7 1.2 0 2.3-.7 2.3-1.8v-1.7l-2.5.3zm6-5.2h1.8l2.3 7.8 2.2-7.8h1.7l-3.5 10.9c-.4 1.3-1.3 1.7-2.5 1.7-.5 0-1.1-.1-1.7-.2l.2-1.4s.6.1 1.3.1c.7 0 1-.3 1.2-1l.1-.4-3.1-9.7zm17.2 9.5h-1.6v-6c0-1.7-.9-2.3-1.9-2.3s-2.1.8-2.1 2.6v5.6H840v-9.5h1.6v1.1c.6-.9 1.5-1.3 2.5-1.3.9 0 2.1.4 2.6 1.6.7-1.2 1.8-1.6 2.9-1.6 2.1 0 3.2 1.5 3.2 3.2v6.5h-1.6v-6c0-1.7-.9-2.3-1.9-2.3-1 0-2.1.8-2.1 2.6v5.8zm9.6-4.3c.1 1.8 1.2 3.1 2.9 3.1 1.1 0 1.8-.4 2.5-.9l.8 1.1c-.9.7-2 1.2-3.4 1.2-2.8 0-4.5-2.1-4.5-4.9 0-2.9 1.7-4.9 4.3-4.9 2.5 0 4 2.1 4 4.9v.5h-6.6zm0-1.3h5c-.1-1.5-.9-2.8-2.4-2.8-1.5.1-2.5 1.4-2.6 2.8zm9.1-3.9h1.6v1.1c.6-.9 1.6-1.3 2.8-1.3 2.1 0 3.2 1.5 3.2 3.2v6.4h-1.6V163c0-1.7-.9-2.3-2-2.3-1.2 0-2.4.9-2.4 2.6v5.6h-1.6v-9.4zm12.9 7.1c0 .6.1 1.2 1.2 1.2.3 0 .9-.1 1.2-.1l.2 1.4s-.9.1-1.7.1c-1.5 0-2.4-.6-2.4-2.2v-6.1h-1.8v-1.4h1.8v-3.1l1.6-.6v3.6h2.6v1.4h-2.6v5.8z"/><path class="st5" d="M0 40.3h956V636H0z" opacity=".5"/><path class="st3" d="M4 640V40h952v600h4V36H0v604z"/><path class="st3" d="M.3 636h960v4H.3z"/><path class="st4" d="M665.9 586.5H294.1c-3.6 0-6.4-3.2-6.4-7.1V164.1c0-3.9 2.9-7.1 6.4-7.1h371.8c3.6 0 6.4 3.2 6.4 7.1v415.3c.1 3.9-2.8 7.1-6.4 7.1z"/><path class="st5" d="M314.7 186h9.8c6 0 9.2 3.7 9.2 7.8 0 3.3-2.1 6-4.9 7l5.5 10.4h-5.9l-4.6-9.1h-4v9.1h-5.1V186zm9.2 4.6h-4.1v6.9h4.1c2.9 0 4.4-1.4 4.4-3.5s-1.5-3.4-4.4-3.4zm17.2 12.9c.5 2.4 2.3 3.7 4.6 3.7 1.8 0 3.5-.6 4.8-1.8l2.4 3.7c-1.7 1.4-4.2 2.5-7.3 2.5-5.2 0-9.5-3.6-9.5-9.6v-.2c0-5.5 3.8-9.7 9.1-9.7 5 0 8.6 3.8 8.6 9.3v2.2h-12.7zm.1-3.7h7.6c-.1-1.7-1.2-3.6-3.7-3.6-2.6 0-3.8 1.9-3.9 3.6zm22.4-7.4h3.6v4.4h-3.6v14.5h-4.9v-14.5h-3v-4.4h3v-1.9c0-3.3 2.3-4.8 5.7-4.8 1.7 0 3.3.2 3.9.3l-.4 4.1c-.6-.1-1.7-.2-2.4-.2-1.4 0-1.9.6-1.9 1.4v1.1zm22.8 18.8h-4.9v-1.6c-1 1-2.5 2-4.8 2-4.1 0-6.5-2.8-6.5-6.5v-12.7h4.9v10.9c0 2.7 1.3 3.7 3 3.7 2 0 3.5-1.4 3.5-4.3v-10.3h4.9v18.8zm4.5-18.8h4.9v1.6c1-1 2.5-2 4.8-2 4.1 0 6.5 2.8 6.5 6.5v12.7h-4.9v-10.9c0-2.7-1.3-3.7-3-3.7-2 0-3.5 1.4-3.5 4.3v10.3h-4.9v-18.8zm19.6 9.3c0-5.6 3.3-9.7 8.3-9.7 2.2 0 3.7.9 4.8 2v-8h4.9v25.2h-4.9v-1.6c-1 1.1-2.4 2-4.6 2-5 0-8.4-4.1-8.4-9.7v-.2zm13.2-1.6c0-2-1.5-3.5-3.9-3.5-2.8 0-4.3 2.2-4.3 5.2v.2c0 3 1.5 5.2 4.3 5.2 2.4 0 3.9-1.5 3.9-3.5v-3.6zm22.8-7.7v1.6c1-1.1 2.6-2 4.8-2 5 0 8.3 4.1 8.3 9.7v.2c0 5.6-3.4 9.7-8.4 9.7-2.2 0-3.6-.9-4.6-2v7.6h-4.9v-24.8h4.8zm-.1 11.1c0 2 1.5 3.5 3.9 3.5 2.8 0 4.3-2.2 4.3-5.2v-.2c0-3-1.5-5.2-4.3-5.2-2.4 0-3.9 1.5-3.9 3.5v3.6zm22.2 8.1c-3.4 0-6.5-2.2-6.5-5.9 0-3 2-5 5.3-5.5l5.7-.8v-.6c0-1.7-1.1-2.4-3-2.4-2.3 0-4.1.9-5.5 1.5l-1.9-3.7c2.2-1.2 4.9-2.1 7.6-2.1 3.5 0 7.6.9 7.6 6v8.1c0 1.1.6 1.5 1.6 1.9l-2.2 3.5c-1.8-.1-3-1.1-3.5-2.1-1.2 1.4-3 2.1-5.2 2.1zm.6-8c-1.2.2-2 .9-2 1.9 0 1.2.9 2.2 2.6 2.2 2.3 0 3.3-1.5 3.3-3.5V203l-3.9.6zm17.1 8.4l.1-.6h-.4l-5.8-19h5.4l3.5 13 3.4-13h5.3l-6.5 21.6c-.8 2.8-3 3.6-5.9 3.6-1.2 0-3.1-.1-4.4-.4l1-4.3s1.3.2 2.6.2c1.1 0 1.5-.4 1.7-1.1zm30.1-.8h-4.9v-10.9c0-2.7-1.3-3.6-2.8-3.6-1.9 0-3.3 1.3-3.3 4.3v10.3h-4.9v-18.8h4.9v1.7c1.2-1.4 3-2 4.8-2 1.9 0 3.7.8 4.9 2.6 1.3-1.9 3.5-2.6 5.7-2.6 4.2 0 6.7 3 6.7 6.3v12.9h-4.9v-10.9c0-2.7-1.3-3.6-2.8-3.6-1.9 0-3.3 1.3-3.3 4.3v10zm19.5-7.7c.5 2.4 2.3 3.7 4.6 3.7 1.8 0 3.5-.6 4.8-1.8l2.4 3.7c-1.7 1.4-4.2 2.5-7.3 2.5-5.2 0-9.5-3.6-9.5-9.6v-.2c0-5.5 3.8-9.7 9.1-9.7 5 0 8.6 3.8 8.6 9.3v2.2h-12.7zm0-3.7h7.6c-.1-1.7-1.2-3.6-3.7-3.6s-3.7 1.9-3.9 3.6zm16.2-7.4h4.9v1.6c1-1 2.5-2 4.8-2 4.1 0 6.5 2.8 6.5 6.5v12.7h-4.9v-10.9c0-2.7-1.3-3.7-3-3.7-2 0-3.5 1.4-3.5 4.3v10.3H552v-18.8zm27.5 13.2c0 .9.4 1.6 2.1 1.6.7 0 1.9-.1 2.4-.2l.4 4.3s-2.4.3-4.5.3c-3.3 0-5.3-1.5-5.3-4.8v-10h-3.4v-4.4h3.4v-5.3l4.9-1.3v6.6h4.9v4.4h-4.9v8.8z"/><path class="st18" d="M314.6 520.5h195.8V555H314.6z"/><path class="st19" d="M314.6 516.5h195.8V551H314.6z"/><path class="st4" d="M341.3 527.1h4.5c2.5 0 4.4 1.2 4.4 4 0 1.7-.9 3-2.6 3.7l2.8 5.6h-1.9l-2.5-5.3h-3.1v5.3h-1.6v-13.3zm4.6 6.5c1.5 0 2.6-.9 2.6-2.5 0-1.7-1.1-2.6-2.6-2.6h-3v5.1h3zm7.8 2.5c.1 1.8 1.2 3.1 2.9 3.1 1.1 0 1.8-.4 2.5-.9l.8 1.1c-.9.7-2 1.2-3.4 1.2-2.8 0-4.5-2.1-4.5-4.9 0-2.9 1.7-4.9 4.3-4.9 2.5 0 4 2.1 4 4.9v.5h-6.6zm0-1.2h5c-.1-1.5-.9-2.8-2.4-2.8s-2.5 1.3-2.6 2.8zm11.3-4h1.9v1.4H365v8.1h-1.6v-8.1h-1.6v-1.4h1.6v-1.8c0-1.6 1.1-2.2 2.6-2.2.8 0 1.3.1 1.5.1l-.1 1.3c-.4 0-1-.1-1.3-.1-.9 0-1.1.6-1.1 1.1v1.6zm11.5 9.5h-1.6v-1.1c-.6.9-1.6 1.3-2.8 1.3-2.1 0-3.2-1.5-3.2-3.2V531h1.6v5.9c0 1.7.9 2.3 2 2.3 1.3 0 2.4-.9 2.4-2.6V531h1.6v9.4zm3-9.5h1.6v1.1c.6-.9 1.6-1.3 2.8-1.3 2.1 0 3.2 1.5 3.2 3.2v6.4h-1.6v-5.9c0-1.7-.9-2.3-2-2.3-1.2 0-2.4.9-2.4 2.6v5.6h-1.6v-9.4zm16.7 8.4c-.6.8-1.6 1.3-2.8 1.3-2.5 0-4-2.1-4-4.9 0-2.9 1.6-4.9 4-4.9 1.2 0 2.2.5 2.8 1.3v-4.9h1.6v13.3h-1.6v-1.2zm-5.2-3.6c0 2 .9 3.5 2.7 3.5 1.7 0 2.5-1.2 2.5-2.8v-1.5c0-1.6-.9-2.8-2.5-2.8-1.7 0-2.7 1.5-2.7 3.6zm16.3-4.8v1.1c.6-.8 1.6-1.3 2.8-1.3 2.5 0 4 2.1 4 4.9 0 2.9-1.6 4.9-4 4.9-1.2 0-2.2-.5-2.8-1.3v4h-1.6v-12.4h1.6zm5.2 4.7c0-2-1-3.5-2.7-3.5-1.7 0-2.5 1.2-2.5 2.8v1.5c0 1.6.9 2.8 2.5 2.8 1.8 0 2.7-1.5 2.7-3.6zm6.7 5c-1.9 0-3.3-1.1-3.3-2.9 0-1.5 1-2.5 2.5-2.7l3.3-.5v-.5c0-1.4-.9-1.9-2.1-1.9-1.1 0-2 .3-2.7.7l-.6-1.2c1.1-.6 2.3-.9 3.5-.9 2.3 0 3.5 1 3.5 3v4.4c0 .6.2 1 .8 1.3l-.9 1.1c-.6-.2-1.1-.6-1.3-1.1-.5.7-1.4 1.2-2.7 1.2zm.1-4.4c-1 .2-1.7.5-1.7 1.5 0 1.1.9 1.7 1.9 1.7 1.2 0 2.3-.7 2.3-1.8v-1.7l-2.5.3zm6-5.3h1.8l2.3 7.8 2.2-7.8h1.7l-3.5 10.9c-.4 1.3-1.3 1.7-2.5 1.7-.5 0-1.1-.1-1.7-.2l.2-1.4s.6.1 1.3.1c.7 0 1-.3 1.2-1l.1-.4-3.1-9.7zm17.2 9.5h-1.6v-6c0-1.7-.9-2.3-1.9-2.3s-2.1.8-2.1 2.6v5.6h-1.6v-9.5h1.6v1.1c.6-.9 1.5-1.3 2.5-1.3.9 0 2.1.4 2.6 1.6.7-1.2 1.8-1.6 2.9-1.6 2.1 0 3.2 1.5 3.2 3.2v6.5h-1.6v-6c0-1.7-.9-2.3-1.9-2.3-1 0-2.1.8-2.1 2.6v5.8zm9.6-4.3c.1 1.8 1.2 3.1 2.9 3.1 1.1 0 1.8-.4 2.5-.9l.8 1.1c-.9.7-2 1.2-3.4 1.2-2.8 0-4.5-2.1-4.5-4.9 0-2.9 1.7-4.9 4.3-4.9 2.5 0 4 2.1 4 4.9v.5h-6.6zm0-1.2h5c-.1-1.5-.9-2.8-2.4-2.8s-2.5 1.3-2.6 2.8zm9.1-4h1.6v1.1c.6-.9 1.6-1.3 2.8-1.3 2.1 0 3.2 1.5 3.2 3.2v6.4h-1.6v-5.9c0-1.7-.9-2.3-2-2.3-1.2 0-2.4.9-2.4 2.6v5.6h-1.6v-9.4zm12.9 7.1c0 .6.1 1.2 1.2 1.2.3 0 .9-.1 1.2-.1l.2 1.4s-.9.1-1.7.1c-1.5 0-2.4-.6-2.4-2.2v-6.1h-1.8v-1.4h1.8v-3.1l1.6-.6v3.6h2.6v1.4h-2.6v5.8zM332 285.2c-9.1 0-16.4-7.4-16.4-16.4 0-9.1 7.4-16.4 16.4-16.4 9.1 0 16.4 7.4 16.4 16.4.1 9-7.3 16.4-16.4 16.4z"/><path class="st5" d="M332 253.4c8.5 0 15.4 6.9 15.4 15.4s-6.9 15.4-15.4 15.4-15.4-6.9-15.4-15.4 6.9-15.4 15.4-15.4m0-2c-9.6 0-17.4 7.8-17.4 17.4s7.8 17.4 17.4 17.4 17.4-7.8 17.4-17.4-7.7-17.4-17.4-17.4z"/><path class="st4" d="M332 357.2c-9.1 0-16.4-7.4-16.4-16.4 0-9.1 7.4-16.4 16.4-16.4 9.1 0 16.4 7.4 16.4 16.4.1 9-7.3 16.4-16.4 16.4z"/><path class="st5" d="M332 325.4c8.5 0 15.4 6.9 15.4 15.4s-6.9 15.4-15.4 15.4-15.4-6.9-15.4-15.4 6.9-15.4 15.4-15.4m0-2c-9.6 0-17.4 7.8-17.4 17.4s7.8 17.4 17.4 17.4 17.4-7.8 17.4-17.4-7.7-17.4-17.4-17.4zM364 261.8h9v2.4h-6.3v2.8h5.8v2.4h-5.8v5.6H364v-13.2zm19.1 13.3h-2.6v-.9c-.6.6-1.3 1-2.5 1-2.2 0-3.4-1.5-3.4-3.4v-6.7h2.6v5.8c0 1.4.7 1.9 1.6 1.9 1 0 1.8-.7 1.8-2.3v-5.4h2.6v10zm2.4-13.3h2.6v10.6c0 .4.2.6.8.6.3 0 .7 0 1-.1l.2 2.2s-1.2.2-2.2.2c-1.4 0-2.3-.8-2.3-2.2v-11.3zm5.6 0h2.6v10.6c0 .4.2.6.8.6.3 0 .7 0 1-.1l.2 2.2s-1.2.2-2.2.2c-1.4 0-2.3-.8-2.3-2.2v-11.3zm15.6 5.8h-.5c-1.5 0-2.8.5-2.8 2.6v4.8H401v-9.9h2.6v1.1c.4-.7 1.3-1.3 2.6-1.3h.6v2.7zm3.6 3.4c.2 1.3 1.2 1.9 2.4 1.9 1 0 1.8-.3 2.5-.9l1.3 1.9c-.9.7-2.2 1.3-3.9 1.3-2.7 0-5-1.9-5-5.1v-.1c0-2.9 2-5.1 4.8-5.1 2.6 0 4.6 2 4.6 4.9v1.2h-6.7zm.1-1.9h4c-.1-.9-.6-1.9-2-1.9-1.3 0-2 1-2 1.9zm11.8-3.9h1.9v2.3h-1.9v7.6h-2.6v-7.6H418v-2.3h1.6v-1c0-1.7 1.2-2.5 3-2.5.9 0 1.7.1 2 .1l-.2 2.2c-.3-.1-.9-.1-1.3-.1-.7 0-1 .3-1 .7v.6zm12 9.9h-2.6v-.9c-.6.6-1.3 1-2.5 1-2.2 0-3.4-1.5-3.4-3.4v-6.7h2.6v5.8c0 1.4.7 1.9 1.6 1.9 1 0 1.8-.7 1.8-2.3v-5.4h2.6v10zm2.4-9.9h2.6v.9c.6-.6 1.3-1 2.5-1 2.2 0 3.4 1.5 3.4 3.4v6.7h-2.6v-5.8c0-1.4-.7-1.9-1.6-1.9-1 0-1.8.7-1.8 2.3v5.4h-2.6v-10zm10.4 4.9c0-2.9 1.7-5.1 4.4-5.1 1.2 0 2 .5 2.5 1v-4.2h2.6v13.3h-2.6v-.9c-.6.6-1.3 1-2.5 1-2.6.1-4.4-2.1-4.4-5.1zm6.9-.9c0-1.1-.8-1.9-2.1-1.9-1.5 0-2.3 1.2-2.3 2.7v.1c0 1.6.8 2.7 2.3 2.7 1.3 0 2.1-.8 2.1-1.9v-1.7zm-89.4 15.4h4.5c2.5 0 4.4 1.2 4.4 4 0 1.7-.9 3-2.6 3.7l2.8 5.6h-1.9l-2.5-5.3h-3.1v5.3h-1.6v-13.3zm4.6 6.5c1.5 0 2.6-.9 2.6-2.5 0-1.7-1.1-2.6-2.6-2.6h-3v5.1h3zm7.8 2.5c.1 1.8 1.2 3.1 2.9 3.1 1.1 0 1.8-.4 2.5-.9l.8 1.1c-.9.7-2 1.2-3.4 1.2-2.8 0-4.5-2.1-4.5-4.9 0-2.9 1.7-4.9 4.3-4.9 2.5 0 4 2.1 4 4.9v.5h-6.6zm0-1.2h5c-.1-1.5-.9-2.8-2.4-2.8-1.6 0-2.5 1.3-2.6 2.8zm11.3-4h1.9v1.4h-1.9v8.1h-1.6v-8.1H385v-1.4h1.6v-1.8c0-1.6 1.1-2.2 2.6-2.2.8 0 1.3.1 1.5.1l-.1 1.3c-.4 0-1-.1-1.3-.1-.9 0-1.1.6-1.1 1.1v1.6zm11.4 9.5H398v-1.1c-.6.9-1.6 1.3-2.8 1.3-2.1 0-3.2-1.5-3.2-3.2v-6.4h1.6v5.9c0 1.7.9 2.3 2 2.3 1.3 0 2.4-.9 2.4-2.6v-5.6h1.6v9.4zm3.1-9.5h1.6v1.1c.6-.9 1.6-1.3 2.8-1.3 2.1 0 3.2 1.5 3.2 3.2v6.4h-1.6v-5.9c0-1.7-.9-2.3-2-2.3-1.2 0-2.4.9-2.4 2.6v5.6h-1.6v-9.4zm16.7 8.4c-.6.8-1.6 1.3-2.8 1.3-2.5 0-4-2.1-4-4.9 0-2.9 1.6-4.9 4-4.9 1.2 0 2.2.5 2.8 1.3v-4.9h1.6V298h-1.6v-1.2zm-5.2-3.6c0 2 .9 3.5 2.7 3.5 1.7 0 2.5-1.2 2.5-2.8v-1.5c0-1.6-.9-2.8-2.5-2.8-1.8 0-2.7 1.5-2.7 3.6zm16.8 2.3c0 .6.1 1.2 1.2 1.2.3 0 .9-.1 1.2-.1l.2 1.4s-.9.1-1.7.1c-1.5 0-2.4-.6-2.4-2.2v-6.1h-1.8v-1.4h1.8v-3.1l1.6-.6v3.6h2.6v1.4H431v5.8zm4.8-10.9h1.6v4.9c.6-.9 1.6-1.3 2.8-1.3 2.1 0 3.2 1.5 3.2 3.2v6.4h-1.6v-5.9c0-1.7-.9-2.3-2-2.3-1.2 0-2.4.9-2.4 2.6v5.6h-1.6v-13.2zm11.5 9c.1 1.8 1.2 3.1 2.9 3.1 1.1 0 1.8-.4 2.5-.9l.8 1.1c-.9.7-2 1.2-3.4 1.2-2.8 0-4.5-2.1-4.5-4.9 0-2.9 1.7-4.9 4.3-4.9 2.5 0 4 2.1 4 4.9v.5h-6.6zm0-1.2h5c-.1-1.5-.9-2.8-2.4-2.8s-2.5 1.3-2.6 2.8zm16-4h1.9v1.4h-1.9v8.1h-1.6v-8.1h-1.6v-1.4h1.6v-1.8c0-1.6 1.1-2.2 2.6-2.2.8 0 1.3.1 1.5.1l-.1 1.3c-.4 0-1-.1-1.3-.1-.9 0-1.1.6-1.1 1.1v1.6zm11.5 9.5h-1.6v-1.1c-.6.9-1.6 1.3-2.8 1.3-2.1 0-3.2-1.5-3.2-3.2v-6.4h1.6v5.9c0 1.7.9 2.3 2 2.3 1.3 0 2.4-.9 2.4-2.6v-5.6h1.6v9.4zm3-13.3h1.6v11.2c0 .6.2 1 .9 1 .4 0 .7 0 1-.1l.2 1.3s-.9.1-1.6.1c-1.1 0-2-.5-2-1.9v-11.6zm5.2 0h1.6v11.2c0 .6.2 1 .9 1 .4 0 .7 0 1-.1l.2 1.3s-.9.1-1.6.1c-1.1 0-2-.5-2-1.9v-11.6zm12.3 13.5c-1.9 0-3.3-1.1-3.3-2.9 0-1.5 1-2.5 2.5-2.7l3.3-.5v-.6c0-1.4-.9-1.9-2.1-1.9-1.1 0-2 .3-2.7.7l-.6-1.2c1.1-.6 2.3-.9 3.5-.9 2.3 0 3.5 1 3.5 3v4.4c0 .6.2 1 .8 1.3l-.9 1.1c-.6-.2-1.1-.6-1.3-1.1-.5.8-1.4 1.3-2.7 1.3zm0-4.4c-1 .2-1.7.5-1.7 1.5 0 1.1.9 1.7 1.9 1.7 1.2 0 2.3-.7 2.3-1.8v-1.7l-2.5.3zm14.3 4.2H508v-6c0-1.7-.9-2.3-1.9-2.3s-2.1.8-2.1 2.6v5.6h-1.6v-9.5h1.6v1.1c.6-.9 1.5-1.3 2.5-1.3.9 0 2.1.4 2.6 1.6.7-1.2 1.8-1.6 2.9-1.6 2.1 0 3.2 1.5 3.2 3.2v6.5h-1.6v-6c0-1.7-.9-2.3-1.9-2.3-1 0-2.1.8-2.1 2.6v5.8zm16.7-4.7c0 2.8-1.7 4.9-4.4 4.9-2.6 0-4.4-2.1-4.4-4.9 0-2.9 1.7-4.9 4.4-4.9 2.6-.1 4.4 2 4.4 4.9zm-1.6 0v-.1c0-1.9-1-3.5-2.8-3.5s-2.8 1.6-2.8 3.5v.1c0 1.9 1 3.5 2.8 3.5s2.8-1.6 2.8-3.5zm11.5 4.7h-1.6v-1.1c-.6.9-1.6 1.3-2.8 1.3-2.1 0-3.2-1.5-3.2-3.2v-6.4h1.6v5.9c0 1.7.9 2.3 2 2.3 1.3 0 2.4-.9 2.4-2.6v-5.6h1.6v9.4zm3-9.5h1.6v1.1c.6-.9 1.6-1.3 2.8-1.3 2.1 0 3.2 1.5 3.2 3.2v6.4h-1.6v-5.9c0-1.7-.9-2.3-2-2.3-1.2 0-2.4.9-2.4 2.6v5.6h-1.6v-9.4zm13 7.1c0 .6.1 1.2 1.2 1.2.3 0 .9-.1 1.2-.1l.2 1.4s-.9.1-1.7.1c-1.5 0-2.4-.6-2.4-2.2v-6.1h-1.8v-1.4h1.8v-3.1l1.6-.6v3.6h2.6v1.4h-2.6v5.8zm17.9-2.3c0 2.8-1.7 4.9-4.4 4.9-2.6 0-4.4-2.1-4.4-4.9 0-2.9 1.7-4.9 4.4-4.9 2.6-.1 4.4 2 4.4 4.9zm-1.7 0v-.1c0-1.9-1-3.5-2.8-3.5s-2.8 1.6-2.8 3.5v.1c0 1.9 1 3.5 2.8 3.5s2.8-1.6 2.8-3.5zm6.2-4.8h1.9v1.4h-1.9v8.1H573v-8.1h-1.6v-1.4h1.6v-1.8c0-1.6 1.1-2.2 2.6-2.2.8 0 1.3.1 1.5.1l-.1 1.3c-.4 0-1-.1-1.3-.1-.9 0-1.1.6-1.1 1.1v1.6zm15.6-1.4c-.4-.7-1.2-1.2-2.3-1.2-1.4 0-2.4 1.1-2.4 2.8v2.1h3.1v1.4h-3.1v4.3h5.9v1.4h-8.5v-1.4h1v-4.3h-1v-1.4h1v-2.1c0-2.7 1.6-4.3 4-4.3 1.6 0 2.8.6 3.6 1.7l-1.3 1zm9.8 10.9v-3.4h-6.7v-1.6l6-8.2h2.3v8.5h2.2v1.4h-2.2v3.4H600zm0-4.8V286l-5.1 7.1h5.1zm15.6-1.8c0 3.4-1.3 6.8-4.8 6.8-3.6 0-4.8-3.4-4.8-6.8 0-3.5 1.3-6.8 4.8-6.8 3.6-.1 4.8 3.3 4.8 6.8zm-1.7.3v-.8c0-3.2-1.2-5-3.1-5-1.9 0-3.1 1.8-3.1 5v.8c0 3.2 1.2 5 3.1 5 1.8.1 3.1-1.8 3.1-5zm5.3 3.9c.7 0 1.3.6 1.3 1.3s-.6 1.3-1.3 1.3c-.7 0-1.3-.6-1.3-1.3s.6-1.3 1.3-1.3zm13.3-4.2c0 3.4-1.3 6.8-4.8 6.8-3.6 0-4.8-3.4-4.8-6.8 0-3.5 1.3-6.8 4.8-6.8 3.5-.1 4.8 3.3 4.8 6.8zm-1.7.3v-.8c0-3.2-1.2-5-3.1-5-1.9 0-3.1 1.8-3.1 5v.8c0 3.2 1.2 5 3.1 5 1.8.1 3.1-1.8 3.1-5zm13.8-.3c0 3.4-1.3 6.8-4.8 6.8-3.6 0-4.8-3.4-4.8-6.8 0-3.5 1.3-6.8 4.8-6.8 3.6-.1 4.8 3.3 4.8 6.8zm-1.7.3v-.8c0-3.2-1.2-5-3.1-5-1.9 0-3.1 1.8-3.1 5v.8c0 3.2 1.2 5 3.1 5 1.8.1 3.1-1.8 3.1-5zM364 336.7h5.3c2.8 0 4.5 1.9 4.5 4.4 0 2.5-1.9 4.4-4.7 4.4h-2.4v4.5H364v-13.3zm4.6 2.4h-1.9v4h1.9c1.5 0 2.4-.7 2.4-1.9v-.2c0-1.2-.9-1.9-2.4-1.9zm9.6 11.1c-1.8 0-3.4-1.1-3.4-3.1 0-1.6 1-2.7 2.8-2.9l3-.4v-.3c0-.9-.6-1.3-1.6-1.3-1.2 0-2.2.5-2.9.8l-1-2c1.2-.6 2.6-1.1 4-1.1 1.8 0 4 .5 4 3.2v4.3c0 .6.3.8.9 1l-1.2 1.8c-1-.1-1.6-.6-1.9-1.1-.6.7-1.5 1.1-2.7 1.1zm.3-4.2c-.6.1-1 .5-1 1 0 .6.5 1.2 1.3 1.2 1.2 0 1.8-.8 1.8-1.8v-.7l-2.1.3zm12.8-3.5h-.5c-1.5 0-2.8.5-2.8 2.6v4.8h-2.6V340h2.6v1.1c.4-.7 1.3-1.3 2.6-1.3h.6v2.7zm5.2 4.5c0 .5.2.8 1.1.8.4 0 1 0 1.3-.1l.2 2.3s-1.3.2-2.4.2c-1.8 0-2.8-.8-2.8-2.5v-5.3h-1.8V340h1.8v-2.8l2.6-.7v3.5h2.6v2.3h-2.6v4.7zm5.7-10.8c.9 0 1.6.7 1.6 1.6s-.7 1.6-1.6 1.6-1.6-.7-1.6-1.6.7-1.6 1.6-1.6zm1.3 13.8H401v-10h2.6v10zm5.3.2c-1.8 0-3.4-1.1-3.4-3.1 0-1.6 1-2.7 2.8-2.9l3-.4v-.3c0-.9-.6-1.3-1.6-1.3-1.2 0-2.2.5-2.9.8l-1-2c1.2-.6 2.6-1.1 4-1.1 1.8 0 4 .5 4 3.2v4.3c0 .6.3.8.9 1l-1.2 1.8c-1-.1-1.6-.6-1.9-1.1-.6.7-1.6 1.1-2.7 1.1zm.3-4.2c-.6.1-1 .5-1 1 0 .6.5 1.2 1.3 1.2 1.2 0 1.8-.8 1.8-1.8v-.7l-2.1.3zm7-9.3h2.6v10.6c0 .4.2.6.8.6.3 0 .7 0 1-.1l.2 2.2s-1.2.2-2.2.2c-1.4 0-2.3-.8-2.3-2.2v-11.3zm15.6 5.8h-.5c-1.5 0-2.8.5-2.8 2.6v4.8h-2.6V340h2.6v1.1c.4-.7 1.3-1.3 2.6-1.3h.6v2.7zm3.6 3.4c.2 1.3 1.2 1.9 2.4 1.9 1 0 1.8-.3 2.5-.9l1.3 1.9c-.9.7-2.2 1.3-3.9 1.3-2.7 0-5-1.9-5-5.1 0-2.9 2-5.1 4.8-5.1 2.6 0 4.6 2 4.6 4.9v1.2h-6.7zm0-2h4c-.1-.9-.6-1.9-2-1.9-1.3.1-1.9 1.1-2 1.9zm11.8-3.9h1.9v2.3h-1.9v7.6h-2.6v-7.6H443V340h1.6v-1c0-1.7 1.2-2.5 3-2.5.9 0 1.7.1 2 .1l-.2 2.2c-.3-.1-.9-.1-1.3-.1-.7 0-1 .3-1 .7v.6zm12 10h-2.6v-.9c-.6.6-1.3 1-2.5 1-2.2 0-3.4-1.5-3.4-3.4V340h2.6v5.8c0 1.4.7 1.9 1.6 1.9 1 0 1.8-.7 1.8-2.3V340h2.6v10zm2.4-10h2.6v.9c.6-.6 1.3-1 2.5-1 2.2 0 3.4 1.5 3.4 3.4v6.7h-2.6v-5.8c0-1.4-.7-1.9-1.6-1.9-1 0-1.8.7-1.8 2.3v5.4h-2.6v-10zm10.4 5c0-2.9 1.7-5.1 4.4-5.1 1.2 0 2 .5 2.5 1v-4.2h2.6V350h-2.6v-.9c-.6.6-1.3 1-2.5 1-2.6.1-4.4-2.1-4.4-5.1zm7-.9c0-1.1-.8-1.9-2.1-1.9-1.5 0-2.3 1.2-2.3 2.7v.1c0 1.6.8 2.7 2.3 2.7 1.3 0 2.1-.8 2.1-1.9v-1.7zm-114.4 15.4h4.5c2.5 0 4.4 1.2 4.4 4 0 1.7-.9 3-2.6 3.7l2.8 5.6h-1.9l-2.5-5.3h-3.1v5.3h-1.6v-13.3zm4.6 6.5c1.5 0 2.6-.9 2.6-2.5 0-1.7-1.1-2.6-2.6-2.6h-3v5.1h3zm7.8 2.5c.1 1.8 1.2 3.1 2.9 3.1 1.1 0 1.8-.4 2.5-.9l.8 1.1c-.9.7-2 1.2-3.4 1.2-2.8 0-4.5-2.1-4.5-4.9 0-2.9 1.7-4.9 4.3-4.9 2.5 0 4 2.1 4 4.9v.5h-6.6zm0-1.2h5c-.1-1.5-.9-2.8-2.4-2.8-1.6 0-2.5 1.3-2.6 2.8zm11.3-4h1.9v1.4h-1.9v8.1h-1.6v-8.1H385v-1.4h1.6v-1.8c0-1.6 1.1-2.2 2.6-2.2.8 0 1.3.1 1.5.1l-.1 1.3c-.4 0-1-.1-1.3-.1-.9 0-1.1.6-1.1 1.1v1.6zm11.4 9.5H398v-1.1c-.6.9-1.6 1.3-2.8 1.3-2.1 0-3.2-1.5-3.2-3.2v-6.4h1.6v5.9c0 1.7.9 2.3 2 2.3 1.3 0 2.4-.9 2.4-2.6v-5.6h1.6v9.4zm3.1-9.5h1.6v1.1c.6-.9 1.6-1.3 2.8-1.3 2.1 0 3.2 1.5 3.2 3.2v6.4h-1.6v-5.9c0-1.7-.9-2.3-2-2.3-1.2 0-2.4.9-2.4 2.6v5.6h-1.6v-9.4zm16.7 8.4c-.6.8-1.6 1.3-2.8 1.3-2.5 0-4-2.1-4-4.9 0-2.9 1.6-4.9 4-4.9 1.2 0 2.2.5 2.8 1.3v-4.9h1.6v13.3h-1.6v-1.2zm-5.2-3.6c0 2 .9 3.5 2.7 3.5 1.7 0 2.5-1.2 2.5-2.8v-1.5c0-1.6-.9-2.8-2.5-2.8-1.8 0-2.7 1.5-2.7 3.6zm17.4 4.9c-1.9 0-3.3-1.1-3.3-2.9 0-1.5 1-2.5 2.5-2.7l3.3-.5v-.6c0-1.4-.9-1.9-2.1-1.9-1.1 0-2 .3-2.7.7l-.6-1.2c1.1-.6 2.3-.9 3.5-.9 2.3 0 3.5 1 3.5 3v4.4c0 .6.2 1 .8 1.3l-.9 1.1c-.6-.2-1.1-.6-1.3-1.1-.5.8-1.5 1.3-2.7 1.3zm0-4.4c-1 .2-1.7.5-1.7 1.5 0 1.1.9 1.7 1.9 1.7 1.2 0 2.3-.7 2.3-1.8v-1.7l-2.5.3zm13.6-5.3v1.1c.6-.8 1.6-1.3 2.8-1.3 2.5 0 4 2.1 4 4.9 0 2.9-1.6 4.9-4 4.9-1.2 0-2.2-.5-2.8-1.3v4h-1.6v-12.4h1.6zm5.2 4.7c0-2-1-3.5-2.7-3.5-1.7 0-2.5 1.2-2.5 2.8v1.5c0 1.6.9 2.8 2.5 2.8 1.8 0 2.7-1.5 2.7-3.6zm6.7 5c-1.9 0-3.3-1.1-3.3-2.9 0-1.5 1-2.5 2.5-2.7l3.3-.5v-.6c0-1.4-.9-1.9-2.1-1.9-1.1 0-2 .3-2.7.7l-.6-1.2c1.1-.6 2.3-.9 3.5-.9 2.3 0 3.5 1 3.5 3v4.4c0 .6.2 1 .8 1.3l-.9 1.1c-.6-.2-1.1-.6-1.3-1.1-.5.8-1.4 1.3-2.7 1.3zm.1-4.4c-1 .2-1.7.5-1.7 1.5 0 1.1.9 1.7 1.9 1.7 1.2 0 2.3-.7 2.3-1.8v-1.7l-2.5.3zm11.9-3.9h-.2c-1.6 0-3 .6-3 3.2v4.9h-1.6v-9.5h1.6v1.5c.5-1.1 1.6-1.7 2.8-1.7h.5v1.6zm4.5 5.7c0 .6.1 1.2 1.2 1.2.3 0 .9-.1 1.2-.1l.2 1.4s-.9.1-1.7.1c-1.5 0-2.4-.6-2.4-2.2v-6.1h-1.8v-1.4h1.8v-3.1l1.6-.6v3.6h2.6v1.4h-2.6v5.8zm5.5-10.9c.6 0 1.1.5 1.1 1.2 0 .6-.5 1.2-1.1 1.2-.6 0-1.2-.5-1.2-1.2.1-.7.6-1.2 1.2-1.2zm.8 13.3h-1.6v-9.5h1.6v9.5zm5.6.2c-1.9 0-3.3-1.1-3.3-2.9 0-1.5 1-2.5 2.5-2.7l3.3-.5v-.6c0-1.4-.9-1.9-2.1-1.9-1.1 0-2 .3-2.7.7l-.6-1.2c1.1-.6 2.3-.9 3.5-.9 2.3 0 3.5 1 3.5 3v4.4c0 .6.2 1 .8 1.3l-.9 1.1c-.6-.2-1.1-.6-1.3-1.1-.5.8-1.4 1.3-2.7 1.3zm.1-4.4c-1 .2-1.7.5-1.7 1.5 0 1.1.9 1.7 1.9 1.7 1.2 0 2.3-.7 2.3-1.8v-1.7l-2.5.3zm7-9.1h1.6v11.2c0 .6.2 1 .9 1 .4 0 .7 0 1-.1l.2 1.3s-.9.1-1.6.1c-1.1 0-2-.5-2-1.9v-11.6zM505 373c-1.9 0-3.3-1.1-3.3-2.9 0-1.5 1-2.5 2.5-2.7l3.3-.5v-.6c0-1.4-.9-1.9-2.1-1.9-1.1 0-2 .3-2.7.7l-.6-1.2c1.1-.6 2.3-.9 3.5-.9 2.3 0 3.5 1 3.5 3v4.4c0 .6.2 1 .8 1.3l-.9 1.3c-.6-.2-1.1-.6-1.3-1.1-.5.6-1.5 1.1-2.7 1.1zm0-4.4c-1 .2-1.7.5-1.7 1.5 0 1.1.9 1.7 1.9 1.7 1.2 0 2.3-.7 2.3-1.8v-1.7l-2.5.3zm14.2 4.2h-1.6v-6c0-1.7-.9-2.3-1.9-2.3s-2.1.8-2.1 2.6v5.6H512v-9.5h1.6v1.1c.6-.9 1.5-1.3 2.5-1.3.9 0 2.1.4 2.6 1.6.7-1.2 1.8-1.6 2.9-1.6 2.1 0 3.2 1.5 3.2 3.2v6.5h-1.6v-6c0-1.7-.9-2.3-1.9-2.3-1 0-2.1.8-2.1 2.6v5.8zm16.7-4.8c0 2.8-1.7 4.9-4.4 4.9-2.6 0-4.4-2.1-4.4-4.9 0-2.9 1.7-4.9 4.4-4.9s4.4 2.1 4.4 4.9zm-1.6.1v-.1c0-1.9-1-3.5-2.8-3.5s-2.8 1.6-2.8 3.5v.1c0 1.9 1 3.5 2.8 3.5s2.8-1.6 2.8-3.5zm11.5 4.7h-1.6v-1.1c-.6.9-1.6 1.3-2.8 1.3-2.1 0-3.2-1.5-3.2-3.2v-6.4h1.6v5.9c0 1.7.9 2.3 2 2.3 1.3 0 2.4-.9 2.4-2.6v-5.6h1.6v9.4zm3.1-9.5h1.6v1.1c.6-.9 1.6-1.3 2.8-1.3 2.1 0 3.2 1.5 3.2 3.2v6.4h-1.6v-5.9c0-1.7-.9-2.3-2-2.3-1.2 0-2.4.9-2.4 2.6v5.6h-1.6v-9.4zm12.9 7.1c0 .6.1 1.2 1.2 1.2.3 0 .9-.1 1.2-.1l.2 1.4s-.9.1-1.7.1c-1.5 0-2.4-.6-2.4-2.2v-6.1h-1.8v-1.4h1.8v-3.1l1.6-.6v3.6h2.6v1.4h-2.6v5.8zM344.4 410.9h5.1c3.2 0 4.9 2 4.9 4.1 0 1.8-1.1 3.2-2.6 3.7l2.9 5.5h-3.1l-2.4-4.8h-2.1v4.8h-2.7v-13.3zm4.9 2.5h-2.2v3.6h2.2c1.5 0 2.3-.8 2.3-1.8 0-1.1-.7-1.8-2.3-1.8zm9.1 6.8c.2 1.3 1.2 1.9 2.4 1.9 1 0 1.8-.3 2.5-.9l1.3 1.9c-.9.7-2.2 1.3-3.9 1.3-2.7 0-5-1.9-5-5.1v-.1c0-2.9 2-5.1 4.8-5.1 2.6 0 4.6 2 4.6 4.9v1.2h-6.7zm0-2h4c-.1-.9-.6-1.9-2-1.9-1.3 0-1.9 1-2 1.9zm11.9-3.9h1.9v2.3h-1.9v7.6h-2.6v-7.6h-1.6v-2.3h1.6v-1c0-1.7 1.2-2.5 3-2.5.9 0 1.7.1 2 .1l-.2 2.2c-.3-.1-.9-.1-1.3-.1-.7 0-1 .3-1 .7v.6zm12 9.9h-2.6v-.9c-.6.6-1.3 1-2.5 1-2.2 0-3.4-1.5-3.4-3.4v-6.7h2.6v5.8c0 1.4.7 1.9 1.6 1.9 1 0 1.8-.7 1.8-2.3v-5.4h2.6v10zm2.4-9.9h2.6v.9c.6-.6 1.3-1 2.5-1 2.2 0 3.4 1.5 3.4 3.4v6.7h-2.6v-5.8c0-1.4-.7-1.9-1.6-1.9-1 0-1.8.7-1.8 2.3v5.4h-2.6v-10zm10.3 4.9c0-2.9 1.7-5.1 4.4-5.1 1.2 0 2 .5 2.5 1v-4.2h2.6v13.3h-2.6v-.9c-.6.6-1.3 1-2.5 1-2.6.1-4.4-2-4.4-5.1zm7-.8c0-1.1-.8-1.9-2.1-1.9-1.5 0-2.3 1.2-2.3 2.7v.1c0 1.6.8 2.7 2.3 2.7 1.3 0 2.1-.8 2.1-1.9v-1.7zm12.3 6c-1.8 0-3.4-1.1-3.4-3.1 0-1.6 1-2.7 2.8-2.9l3-.4v-.3c0-.9-.6-1.3-1.6-1.3-1.2 0-2.2.5-2.9.8l-1-2c1.2-.6 2.6-1.1 4-1.1 1.8 0 4 .5 4 3.2v4.3c0 .6.3.8.9 1l-1.2 1.8c-1-.1-1.6-.6-1.9-1.1-.5.8-1.5 1.1-2.7 1.1zm.3-4.2c-.6.1-1 .5-1 1 0 .6.5 1.2 1.3 1.2 1.2 0 1.8-.8 1.8-1.8v-.7l-2.1.3zm15.4 4h-2.6v-5.8c0-1.4-.7-1.9-1.5-1.9-1 0-1.7.7-1.7 2.3v5.4h-2.6v-9.9h2.6v.9c.6-.7 1.6-1.1 2.5-1.1 1 0 2 .4 2.6 1.3.7-1 1.8-1.3 3-1.3 2.2 0 3.5 1.6 3.5 3.3v6.8h-2.6v-5.8c0-1.4-.7-1.9-1.5-1.9-1 0-1.7.7-1.7 2.3v5.4zm17.4-4.9c0 2.9-2 5.1-4.9 5.1s-4.9-2.2-4.9-5.1c0-2.9 1.9-5.1 4.9-5.1 3-.1 4.9 2.1 4.9 5.1zm-2.6 0c0-1.6-.8-2.8-2.3-2.8s-2.2 1.2-2.3 2.8c0 1.6.8 2.8 2.3 2.8s2.3-1.2 2.3-2.8zm13 4.9h-2.6v-.9c-.6.6-1.3 1-2.5 1-2.2 0-3.4-1.5-3.4-3.4v-6.7h2.6v5.8c0 1.4.7 1.9 1.6 1.9 1 0 1.8-.7 1.8-2.3v-5.4h2.6v10zm2.4-9.9h2.6v.9c.6-.6 1.3-1 2.5-1 2.2 0 3.4 1.5 3.4 3.4v6.7h-2.6v-5.8c0-1.4-.7-1.9-1.6-1.9-1 0-1.8.7-1.8 2.3v5.4h-2.6v-10zm14.5 7c0 .5.2.8 1.1.8.4 0 1 0 1.3-.1l.2 2.3s-1.3.2-2.4.2c-1.8 0-2.8-.8-2.8-2.5v-5.3h-1.8v-2.3h1.8v-2.8l2.6-.7v3.5h2.6v2.3h-2.6v4.6zM500.4 437.2v36H345v-36h155.4m2-2H343v40h159.5v-40h-.1z"/><path d="M320.3 411.5v76" fill="#8c8c8c" stroke="#b4b4b4" stroke-width="8" stroke-miterlimit="10"/><path class="st5" d="M359.6 450.7c-.4-.7-1.2-1.2-2.3-1.2-1.4 0-2.4 1.1-2.4 2.8v2.1h3.1v1.4h-3.1v4.3h5.9v1.4h-8.5v-1.4h1v-4.3h-1v-1.4h1v-2.1c0-2.7 1.6-4.3 4-4.3 1.6 0 2.8.6 3.6 1.7l-1.3 1zm8.8 10.9V460c1-.9 3.8-3.2 4.8-4.1 1.1-1 2-2.1 2-3.7 0-1.7-1.1-2.6-2.6-2.6-1.7 0-2.5 1.1-2.6 2.8l-1.7-.1c.1-2.6 1.8-4.1 4.3-4.1 2.6 0 4.4 1.6 4.4 4.2 0 2-1 3.2-4 5.7l-2.4 2.1h6.6v1.5h-8.8zm20.8-6.7c0 3.4-1.3 6.8-4.8 6.8-3.6 0-4.8-3.4-4.8-6.8 0-3.5 1.3-6.8 4.8-6.8 3.6 0 4.8 3.4 4.8 6.8zm-1.7.4v-.8c0-3.2-1.2-5-3.1-5-1.9 0-3.1 1.8-3.1 5v.8c0 3.2 1.2 5 3.1 5 1.8 0 3.1-1.8 3.1-5zm5.3 3.9c.7 0 1.3.6 1.3 1.3s-.6 1.3-1.3 1.3c-.7 0-1.3-.6-1.3-1.3s.6-1.3 1.3-1.3zm13.3-4.3c0 3.4-1.3 6.8-4.8 6.8-3.6 0-4.8-3.4-4.8-6.8 0-3.5 1.3-6.8 4.8-6.8s4.8 3.4 4.8 6.8zm-1.7.4v-.8c0-3.2-1.2-5-3.1-5-1.9 0-3.1 1.8-3.1 5v.8c0 3.2 1.2 5 3.1 5 1.8 0 3.1-1.8 3.1-5zm13.8-.4c0 3.4-1.3 6.8-4.8 6.8-3.6 0-4.8-3.4-4.8-6.8 0-3.5 1.3-6.8 4.8-6.8 3.6 0 4.8 3.4 4.8 6.8zm-1.7.4v-.8c0-3.2-1.2-5-3.1-5-1.9 0-3.1 1.8-3.1 5v.8c0 3.2 1.2 5 3.1 5 1.8 0 3.1-1.8 3.1-5z"/><g><path class="st5" d="M332 352.1c-6.2 0-11.3-5.1-11.3-11.3 0-6.2 5.1-11.3 11.3-11.3 6.2 0 11.3 5.1 11.3 11.3.1 6.2-5 11.3-11.3 11.3z"/><path class="st4" d="M332 330.5c5.7 0 10.3 4.6 10.3 10.3 0 5.7-4.6 10.3-10.3 10.3s-10.3-4.6-10.3-10.3c0-5.7 4.7-10.3 10.3-10.3m0-2c-6.8 0-12.3 5.5-12.3 12.3 0 6.8 5.5 12.3 12.3 12.3 6.8 0 12.3-5.5 12.3-12.3.1-6.8-5.5-12.3-12.3-12.3z"/></g><path d="M332 323.4c9.6 0 17.4 7.8 17.4 17.4 0 9.6-7.8 17.4-17.4 17.4s-17.4-7.8-17.4-17.4c0-9.6 7.8-17.4 17.4-17.4m0-3c-11.3 0-20.4 9.2-20.4 20.4 0 11.3 9.2 20.4 20.4 20.4 11.3 0 20.4-9.2 20.4-20.4.1-11.3-9.1-20.4-20.4-20.4z" fill="#ffbf47"/></svg>