<svg xmlns="http://www.w3.org/2000/svg" viewBox="0 0 1000.58 463.63">
  <defs>
    <style>
      .cls-1 {
        fill: #fff;
      }

      .cls-2 {
        fill: #0b0b0b;
      }

      .cls-3 {
        fill: #dadada;
      }

      .cls-4 {
        fill: #28a197;
      }

      .cls-5 {
        fill: #004a1e;
      }

      .cls-6 {
        fill: #00823b;
      }

      .cls-7 {
        fill: #8c8c8c;
        stroke: #b4b4b4;
        stroke-miterlimit: 10;
        stroke-width: 8px;
      }
    </style>
  </defs>
  <title>adhoc-user-flow</title>
  <g id="Layer_2" data-name="Layer 2">
    <rect class="cls-1" x="0.05" y="29.9" width="620.85" height="358.1"/>
    <g>
      <path class="cls-2" d="M46.24,160.62v-6.4h1.19v6.52a3.67,3.67,0,0,1-7.34,0v-6.52H41.3v6.4a2.48,2.48,0,1,0,4.94,0Z"/>
      <path class="cls-2" d="M49.11,163.27l.71-.82a3.36,3.36,0,0,0,2.14.87c.81,0,1.42-.37,1.42-1.07s-.77-.94-1.73-1.19-2.2-.61-2.2-2.07c0-1.19,1.09-2.06,2.58-2.06a3.82,3.82,0,0,1,2.46.88l-.68.78a2.59,2.59,0,0,0-1.75-.68c-.94,0-1.41.41-1.41,1.05s.4.77,1,.94l1.16.34c1,.3,1.73.8,1.73,1.93,0,1.46-1.29,2.13-2.67,2.13A4.26,4.26,0,0,1,49.11,163.27Z"/>
      <path class="cls-2" d="M57.14,161a2.23,2.23,0,0,0,2.2,2.3,2.84,2.84,0,0,0,1.86-.7l.6.84a4,4,0,0,1-2.51.88,3.35,3.35,0,0,1-3.37-3.68c0-2.16,1.26-3.69,3.22-3.69s3,1.55,3,3.68V161Zm0-.94H60.9c0-1.09-.65-2.09-1.77-2.09A2.06,2.06,0,0,0,57.15,160Z"/>
      <path class="cls-2" d="M69.48,162.39c0,.47.09.87.91.87a6.12,6.12,0,0,0,.88-.09l.13,1a10.36,10.36,0,0,1-1.26.1c-1.12,0-1.82-.44-1.82-1.65v-4.56H67v-1h1.33v-2.31l1.16-.41v2.73h2v1h-2Z"/>
      <path class="cls-2" d="M72.94,154.21H74.1v3.66a2.44,2.44,0,0,1,2.07-1,2.26,2.26,0,0,1,2.37,2.41v4.81H77.38v-4.44c0-1.25-.64-1.72-1.46-1.72a1.81,1.81,0,0,0-1.82,2v4.2H72.94Z"/>
      <path class="cls-2" d="M81.28,154.21a.87.87,0,0,1,.85.87.86.86,0,1,1-1.72,0A.87.87,0,0,1,81.28,154.21Zm.57,9.94H80.68v-7.09h1.16Z"/>
      <path class="cls-2" d="M83.41,163.27l.71-.82a3.36,3.36,0,0,0,2.14.87c.81,0,1.42-.37,1.42-1.07s-.77-.94-1.73-1.19-2.2-.61-2.2-2.07c0-1.19,1.09-2.06,2.58-2.06a3.82,3.82,0,0,1,2.46.88l-.68.78a2.59,2.59,0,0,0-1.75-.68c-.94,0-1.41.41-1.41,1.05s.4.77,1,.94l1.16.34c1,.3,1.73.8,1.73,1.93,0,1.46-1.29,2.13-2.67,2.13A4.26,4.26,0,0,1,83.41,163.27Z"/>
      <path class="cls-2" d="M100.52,160.62c0,2.13-1.31,3.68-3.27,3.68S94,162.75,94,160.62s1.31-3.69,3.27-3.69S100.52,158.46,100.52,160.62Zm-1.21,0v-.09c0-1.42-.71-2.63-2.06-2.63s-2.06,1.21-2.06,2.63v.09c0,1.39.71,2.61,2.06,2.61S99.31,162.05,99.31,160.66Z"/>
      <path class="cls-2" d="M103.5,157.07v.81a2.48,2.48,0,0,1,2.07-1c1.83,0,3,1.55,3,3.69s-1.18,3.68-3,3.68a2.48,2.48,0,0,1-2.07-1v3h-1.16v-9.24Zm3.88,3.51c0-1.48-.71-2.61-2-2.61a1.85,1.85,0,0,0-1.87,2.07v1.15a1.85,1.85,0,0,0,1.87,2.07c1.31,0,2-1.14,2-2.61Z"/>
      <path class="cls-2" d="M112.07,162.39c0,.47.09.87.91.87a6.12,6.12,0,0,0,.88-.09l.13,1a10.36,10.36,0,0,1-1.26.1c-1.12,0-1.82-.44-1.82-1.65v-4.56h-1.33v-1h1.33v-2.31l1.16-.41v2.73h2v1h-2Z"/>
      <path class="cls-2" d="M116.12,154.21a.87.87,0,0,1,.85.87.86.86,0,1,1-1.72,0A.87.87,0,0,1,116.12,154.21Zm.57,9.94h-1.16v-7.09h1.16Z"/>
      <path class="cls-2" d="M125,160.62c0,2.13-1.31,3.68-3.27,3.68s-3.27-1.55-3.27-3.68,1.31-3.69,3.27-3.69S125,158.46,125,160.62Zm-1.21,0v-.09c0-1.42-.71-2.63-2.06-2.63s-2.06,1.21-2.06,2.63v.09c0,1.39.71,2.61,2.06,2.61S123.77,162.05,123.77,160.66Z"/>
      <path class="cls-2" d="M126.79,157.07H128v.81a2.44,2.44,0,0,1,2.07-1,2.26,2.26,0,0,1,2.37,2.41v4.81h-1.16v-4.44c0-1.25-.64-1.72-1.46-1.72a1.82,1.82,0,0,0-1.82,2v4.2h-1.16Z"/>
      <path class="cls-2" d="M136.48,164.3a2.22,2.22,0,0,1-2.47-2.14,2,2,0,0,1,1.89-2l2.5-.34v-.45c0-1.08-.7-1.41-1.58-1.41a4.31,4.31,0,0,0-2,.55l-.44-.92a5.35,5.35,0,0,1,2.6-.65c1.72,0,2.63.77,2.63,2.26v3.31a1,1,0,0,0,.58,1l-.65.84a1.4,1.4,0,0,1-1-.85A2.63,2.63,0,0,1,136.48,164.3Zm0-3.29c-.78.11-1.29.37-1.29,1.09a1.31,1.31,0,0,0,1.45,1.28c.87,0,1.75-.55,1.75-1.38v-1.28Z"/>
      <path class="cls-2" d="M141.73,154.21h1.16v8.35c0,.47.14.71.68.71.3,0,.54,0,.73,0l.11,1a11.29,11.29,0,0,1-1.18.09c-.84,0-1.5-.37-1.5-1.39Z"/>
      <path class="cls-2" d="M150.55,157.07v.81a2.48,2.48,0,0,1,2.07-1c1.83,0,3,1.55,3,3.69s-1.18,3.68-3,3.68a2.48,2.48,0,0,1-2.07-1v3h-1.16v-9.24Zm3.88,3.51c0-1.48-.71-2.61-2-2.61a1.85,1.85,0,0,0-1.87,2.07v1.15a1.85,1.85,0,0,0,1.87,2.07c1.31,0,2-1.14,2-2.61Z"/>
      <path class="cls-2" d="M159.42,164.3a2.22,2.22,0,0,1-2.47-2.14,2,2,0,0,1,1.89-2l2.5-.34v-.45c0-1.08-.7-1.41-1.58-1.41a4.31,4.31,0,0,0-2,.55l-.44-.92a5.35,5.35,0,0,1,2.6-.65c1.72,0,2.63.77,2.63,2.26v3.31a1,1,0,0,0,.58,1l-.65.84a1.4,1.4,0,0,1-1-.85A2.63,2.63,0,0,1,159.42,164.3Zm0-3.29c-.78.11-1.29.37-1.29,1.09a1.31,1.31,0,0,0,1.45,1.28c.87,0,1.75-.55,1.75-1.38v-1.28Z"/>
      <path class="cls-2" d="M168.34,158.11h-.18c-1.19,0-2.27.48-2.27,2.41v3.64h-1.16v-7.09h1.16v1.12a2.21,2.21,0,0,1,2.12-1.25h.34Z"/>
      <path class="cls-2" d="M171.84,164.3a2.22,2.22,0,0,1-2.47-2.14,2,2,0,0,1,1.89-2l2.5-.34v-.45c0-1.08-.7-1.41-1.58-1.41a4.31,4.31,0,0,0-2,.55l-.44-.92a5.35,5.35,0,0,1,2.6-.65c1.72,0,2.63.77,2.63,2.26v3.31a1,1,0,0,0,.58,1l-.65.84a1.4,1.4,0,0,1-1-.85A2.63,2.63,0,0,1,171.84,164.3Zm0-3.29c-.78.11-1.29.37-1.29,1.09a1.31,1.31,0,0,0,1.45,1.28c.87,0,1.75-.55,1.75-1.38v-1.28Z"/>
      <path class="cls-2" d="M179.5,156.93a2.4,2.4,0,0,1,2,1v-.81h1.17v7.14c0,1.76-1.55,2.27-3,2.27a6.14,6.14,0,0,1-2.63-.57l.4-1a5.76,5.76,0,0,0,2.26.5c1.19,0,1.85-.44,1.85-1.53v-1.35a2.4,2.4,0,0,1-2,1c-1.76,0-2.87-1.43-2.87-3.29S177.74,156.93,179.5,156.93Zm2,3.27c0-1.26-.54-2.23-1.82-2.23s-1.87,1-1.87,2.23v.06c0,1.24.58,2.23,1.87,2.23s1.82-1,1.82-2.23Z"/>
      <path class="cls-2" d="M188.47,158.11h-.18c-1.19,0-2.27.48-2.27,2.41v3.64h-1.16v-7.09H186v1.12a2.21,2.21,0,0,1,2.12-1.25h.34Z"/>
      <path class="cls-2" d="M192,164.3a2.22,2.22,0,0,1-2.47-2.14,2,2,0,0,1,1.89-2l2.5-.34v-.45c0-1.08-.7-1.41-1.58-1.41a4.31,4.31,0,0,0-2,.55l-.44-.92a5.35,5.35,0,0,1,2.6-.65c1.72,0,2.63.77,2.63,2.26v3.31a1,1,0,0,0,.58,1l-.65.84a1.4,1.4,0,0,1-1-.85A2.63,2.63,0,0,1,192,164.3Zm0-3.29c-.78.11-1.29.37-1.29,1.09a1.31,1.31,0,0,0,1.45,1.28c.87,0,1.75-.55,1.75-1.38v-1.28Z"/>
      <path class="cls-2" d="M198.43,157.07v.81a2.48,2.48,0,0,1,2.07-1c1.83,0,3,1.55,3,3.69s-1.18,3.68-3,3.68a2.48,2.48,0,0,1-2.07-1v3h-1.16v-9.24Zm3.88,3.51c0-1.48-.71-2.61-2-2.61a1.85,1.85,0,0,0-1.87,2.07v1.15a1.85,1.85,0,0,0,1.87,2.07c1.31,0,2-1.14,2-2.61Z"/>
      <path class="cls-2" d="M205.33,154.21h1.16v3.66a2.44,2.44,0,0,1,2.07-1,2.26,2.26,0,0,1,2.37,2.41v4.81h-1.16v-4.44c0-1.25-.64-1.72-1.46-1.72a1.81,1.81,0,0,0-1.82,2v4.2h-1.16Z"/>
      <path class="cls-2" d="M218.7,162.39c0,.47.09.87.91.87a6.14,6.14,0,0,0,.88-.09l.13,1a10.36,10.36,0,0,1-1.26.1c-1.12,0-1.82-.44-1.82-1.65v-4.56H216.2v-1h1.33v-2.31l1.16-.41v2.73h2v1h-2Z"/>
      <path class="cls-2" d="M228.13,160.62c0,2.13-1.31,3.68-3.27,3.68s-3.27-1.55-3.27-3.68,1.31-3.69,3.27-3.69S228.13,158.46,228.13,160.62Zm-1.21,0v-.09c0-1.42-.71-2.63-2.06-2.63s-2.06,1.21-2.06,2.63v.09c0,1.39.71,2.61,2.06,2.61S226.93,162.05,226.93,160.66Z"/>
      <path class="cls-2" d="M236.17,156.93a2.4,2.4,0,0,1,2,1v-.81h1.17v7.14c0,1.76-1.55,2.27-3,2.27a6.14,6.14,0,0,1-2.63-.57l.4-1a5.76,5.76,0,0,0,2.26.5c1.19,0,1.85-.44,1.85-1.53v-1.35a2.4,2.4,0,0,1-2,1c-1.76,0-2.87-1.43-2.87-3.29S234.41,156.93,236.17,156.93Zm2,3.27c0-1.26-.54-2.23-1.82-2.23s-1.87,1-1.87,2.23v.06c0,1.24.58,2.23,1.87,2.23s1.82-1,1.82-2.23Z"/>
      <path class="cls-2" d="M242.13,154.21a.87.87,0,0,1,.85.87.86.86,0,1,1-1.72,0A.87.87,0,0,1,242.13,154.21Zm.57,9.94h-1.16v-7.09h1.16Z"/>
      <path class="cls-2" d="M246.41,164.16l-2.24-7.09h1.32l1.7,6,1.69-6h1.32L248,164.16Z"/>
      <path class="cls-2" d="M252.29,161a2.23,2.23,0,0,0,2.2,2.3,2.84,2.84,0,0,0,1.86-.7l.6.84a4,4,0,0,1-2.51.88,3.35,3.35,0,0,1-3.37-3.68c0-2.16,1.26-3.69,3.22-3.69s3,1.55,3,3.68V161Zm0-.94h3.75c0-1.09-.65-2.09-1.77-2.09A2.06,2.06,0,0,0,252.31,160Z"/>
      <path class="cls-2" d="M262,157.07h1.32l1.75,5.85,1.66-5.85h1.31l-2.58,8.15a1.7,1.7,0,0,1-1.88,1.25,8.32,8.32,0,0,1-1.26-.11l.17-1a5.39,5.39,0,0,0,.94.1.8.8,0,0,0,.89-.71l.07-.33Z"/>
      <path class="cls-2" d="M275.44,160.62c0,2.13-1.31,3.68-3.27,3.68s-3.27-1.55-3.27-3.68,1.31-3.69,3.27-3.69S275.44,158.46,275.44,160.62Zm-1.21,0v-.09c0-1.42-.71-2.63-2.06-2.63s-2.06,1.21-2.06,2.63v.09c0,1.39.71,2.61,2.06,2.61S274.23,162.05,274.23,160.66Z"/>
      <path class="cls-2" d="M282.79,164.16h-1.17v-.81a2.44,2.44,0,0,1-2.07,1,2.26,2.26,0,0,1-2.37-2.41v-4.81h1.16v4.44c0,1.25.64,1.72,1.46,1.72a1.78,1.78,0,0,0,1.82-2v-4.2h1.17Z"/>
      <path class="cls-2" d="M288.59,158.11h-.18c-1.19,0-2.27.48-2.27,2.41v3.64H285v-7.09h1.16v1.12a2.21,2.21,0,0,1,2.12-1.25h.34Z"/>
      <path class="cls-2" d="M299.37,164.16h-1.17v-.81a2.44,2.44,0,0,1-2.07,1,2.26,2.26,0,0,1-2.37-2.41v-4.81h1.16v4.44c0,1.25.64,1.72,1.46,1.72a1.78,1.78,0,0,0,1.82-2v-4.2h1.17Z"/>
      <path class="cls-2" d="M300.94,163.27l.71-.82a3.36,3.36,0,0,0,2.14.87c.81,0,1.42-.37,1.42-1.07s-.77-.94-1.73-1.19-2.2-.61-2.2-2.07c0-1.19,1.09-2.06,2.58-2.06a3.83,3.83,0,0,1,2.46.88l-.68.78a2.59,2.59,0,0,0-1.75-.68c-.94,0-1.41.41-1.41,1.05s.4.77,1,.94l1.16.34c1,.3,1.73.8,1.73,1.93,0,1.46-1.29,2.13-2.67,2.13A4.26,4.26,0,0,1,300.94,163.27Z"/>
      <path class="cls-2" d="M309,161a2.23,2.23,0,0,0,2.2,2.3,2.84,2.84,0,0,0,1.86-.7l.6.84a4,4,0,0,1-2.51.88,3.35,3.35,0,0,1-3.37-3.68c0-2.16,1.26-3.69,3.22-3.69s3,1.55,3,3.68V161Zm0-.94h3.75c0-1.09-.65-2.09-1.77-2.09A2.06,2.06,0,0,0,309,160Z"/>
      <path class="cls-2" d="M319.37,158.11h-.18c-1.19,0-2.27.48-2.27,2.41v3.64h-1.16v-7.09h1.16v1.12a2.21,2.21,0,0,1,2.12-1.25h.34Z"/>
      <path class="cls-2" d="M320.29,163.27l.71-.82a3.36,3.36,0,0,0,2.14.87c.81,0,1.42-.37,1.42-1.07s-.77-.94-1.73-1.19-2.2-.61-2.2-2.07c0-1.19,1.09-2.06,2.58-2.06a3.83,3.83,0,0,1,2.46.88l-.68.78a2.59,2.59,0,0,0-1.75-.68c-.94,0-1.41.41-1.41,1.05s.4.77,1,.94l1.16.34c1,.3,1.73.8,1.73,1.93,0,1.46-1.29,2.13-2.67,2.13A4.26,4.26,0,0,1,320.29,163.27Z"/>
      <path class="cls-2" d="M336.61,164.16h-1.17V159.7c0-1.26-.64-1.7-1.42-1.7s-1.56.6-1.56,2v4.19H331.3v-7.09h1.16v.81a2.18,2.18,0,0,1,1.86-1,2.1,2.1,0,0,1,1.92,1.18,2.43,2.43,0,0,1,2.16-1.18,2.28,2.28,0,0,1,2.39,2.37v4.86h-1.16V159.7c0-1.26-.68-1.7-1.45-1.7s-1.56.6-1.56,2Z"/>
      <path class="cls-2" d="M349.07,160.62c0,2.13-1.31,3.68-3.27,3.68s-3.27-1.55-3.27-3.68,1.31-3.69,3.27-3.69S349.07,158.46,349.07,160.62Zm-1.21,0v-.09c0-1.42-.71-2.63-2.06-2.63s-2.06,1.21-2.06,2.63v.09c0,1.39.71,2.61,2.06,2.61S347.86,162.05,347.86,160.66Z"/>
      <path class="cls-2" d="M354.5,158.11h-.18c-1.19,0-2.27.48-2.27,2.41v3.64h-1.16v-7.09H352v1.12a2.21,2.21,0,0,1,2.12-1.25h.34Z"/>
      <path class="cls-2" d="M356.67,161a2.23,2.23,0,0,0,2.2,2.3,2.84,2.84,0,0,0,1.86-.7l.6.84a4,4,0,0,1-2.51.88,3.35,3.35,0,0,1-3.37-3.68c0-2.16,1.26-3.69,3.22-3.69s3,1.55,3,3.68V161Zm0-.94h3.75c0-1.09-.65-2.09-1.77-2.09A2.06,2.06,0,0,0,356.68,160Z"/>
      <path class="cls-2" d="M367.77,154.21a.87.87,0,0,1,.85.87.86.86,0,1,1-1.72,0A.87.87,0,0,1,367.77,154.21Zm.57,9.94h-1.16v-7.09h1.16Z"/>
      <path class="cls-2" d="M370.51,157.07h1.16v.81a2.44,2.44,0,0,1,2.07-1,2.26,2.26,0,0,1,2.37,2.41v4.81H375v-4.44c0-1.25-.64-1.72-1.46-1.72a1.82,1.82,0,0,0-1.82,2v4.2h-1.16Z"/>
      <path class="cls-2" d="M379.82,157.07h1.41v1h-1.41v6.06h-1.16v-6.06h-1.18v-1h1.18v-1.32c0-1.22.82-1.66,1.95-1.66a6.62,6.62,0,0,1,1.14.1l-.09,1c-.27,0-.78-.06-1-.06-.67,0-.82.41-.82.85Z"/>
      <path class="cls-2" d="M388.7,160.62c0,2.13-1.31,3.68-3.27,3.68s-3.27-1.55-3.27-3.68,1.31-3.69,3.27-3.69S388.7,158.46,388.7,160.62Zm-1.21,0v-.09c0-1.42-.71-2.63-2.06-2.63s-2.06,1.21-2.06,2.63v.09c0,1.39.71,2.61,2.06,2.61S387.49,162.05,387.49,160.66Z"/>
      <path class="cls-2" d="M394.13,158.11h-.18c-1.19,0-2.27.48-2.27,2.41v3.64h-1.16v-7.09h1.16v1.12a2.21,2.21,0,0,1,2.12-1.25h.34Z"/>
      <path class="cls-2" d="M400.9,164.16h-1.17V159.7c0-1.26-.64-1.7-1.42-1.7s-1.56.6-1.56,2v4.19h-1.16v-7.09h1.16v.81a2.18,2.18,0,0,1,1.86-1,2.1,2.1,0,0,1,1.92,1.18,2.43,2.43,0,0,1,2.16-1.18,2.28,2.28,0,0,1,2.39,2.37v4.86h-1.16V159.7c0-1.26-.68-1.7-1.45-1.7s-1.56.6-1.56,2Z"/>
      <path class="cls-2" d="M409.16,164.3a2.22,2.22,0,0,1-2.47-2.14,2,2,0,0,1,1.89-2l2.5-.34v-.45c0-1.08-.7-1.41-1.58-1.41a4.31,4.31,0,0,0-2,.55l-.44-.92a5.35,5.35,0,0,1,2.6-.65c1.72,0,2.63.77,2.63,2.26v3.31a1,1,0,0,0,.58,1l-.65.84a1.4,1.4,0,0,1-1-.85A2.63,2.63,0,0,1,409.16,164.3Zm0-3.29c-.78.11-1.29.37-1.29,1.09a1.31,1.31,0,0,0,1.45,1.28c.87,0,1.75-.55,1.75-1.38v-1.28Z"/>
      <path class="cls-2" d="M416.16,162.39c0,.47.09.87.91.87a6.12,6.12,0,0,0,.88-.09l.13,1a10.36,10.36,0,0,1-1.26.1c-1.12,0-1.82-.44-1.82-1.65v-4.56h-1.33v-1H415v-2.31l1.16-.41v2.73h2v1h-2Z"/>
      <path class="cls-2" d="M420.22,154.21a.87.87,0,0,1,.85.87.86.86,0,1,1-1.72,0A.87.87,0,0,1,420.22,154.21Zm.57,9.94h-1.16v-7.09h1.16Z"/>
      <path class="cls-2" d="M429.07,160.62c0,2.13-1.31,3.68-3.27,3.68s-3.27-1.55-3.27-3.68,1.31-3.69,3.27-3.69S429.07,158.46,429.07,160.62Zm-1.21,0v-.09c0-1.42-.71-2.63-2.06-2.63s-2.06,1.21-2.06,2.63v.09c0,1.39.71,2.61,2.06,2.61S427.87,162.05,427.87,160.66Z"/>
      <path class="cls-2" d="M430.89,157.07h1.16v.81a2.44,2.44,0,0,1,2.07-1,2.26,2.26,0,0,1,2.37,2.41v4.81h-1.16v-4.44c0-1.25-.64-1.72-1.46-1.72a1.82,1.82,0,0,0-1.82,2v4.2h-1.16Z"/>
      <path class="cls-2" d="M439.51,162.39a1,1,0,1,1-1,1A1,1,0,0,1,439.51,162.39Z"/>
      <path class="cls-2" d="M40.19,171.26h5.95v1.05H41.41v3.27h4.34v1.05H41.41v4.57H40.19Z"/>
      <path class="cls-2" d="M53.92,177.66c0,2.13-1.31,3.68-3.27,3.68s-3.27-1.55-3.27-3.68S48.69,174,50.65,174,53.92,175.5,53.92,177.66Zm-1.21,0v-.09c0-1.42-.71-2.63-2.06-2.63s-2.06,1.21-2.06,2.63v.09c0,1.39.71,2.61,2.06,2.61S52.71,179.09,52.71,177.7Z"/>
      <path class="cls-2" d="M59.35,175.15h-.18c-1.19,0-2.27.48-2.27,2.41v3.64H55.73v-7.09H56.9v1.12A2.21,2.21,0,0,1,59,174h.34Z"/>
      <path class="cls-2" d="M65.37,178a2.23,2.23,0,0,0,2.2,2.3,2.84,2.84,0,0,0,1.86-.7l.6.84a4,4,0,0,1-2.51.88,3.35,3.35,0,0,1-3.37-3.68c0-2.16,1.26-3.69,3.22-3.69s3,1.55,3,3.68V178Zm0-.94h3.75c0-1.09-.65-2.09-1.77-2.09A2.06,2.06,0,0,0,65.39,177.08Z"/>
      <path class="cls-2" d="M73.63,177.46l-2.17-3.35h1.33l1.52,2.44,1.45-2.44h1.35l-2.16,3.35,2.46,3.73H76l-1.78-2.75-1.62,2.75H71.24Z"/>
      <path class="cls-2" d="M80.67,181.34a2.22,2.22,0,0,1-2.47-2.14,2,2,0,0,1,1.89-2l2.5-.34v-.45c0-1.08-.7-1.41-1.58-1.41a4.31,4.31,0,0,0-2,.55l-.44-.92a5.35,5.35,0,0,1,2.6-.65c1.72,0,2.63.77,2.63,2.26v3.31a1,1,0,0,0,.58,1l-.65.84a1.4,1.4,0,0,1-1-.85A2.63,2.63,0,0,1,80.67,181.34Zm0-3.29c-.78.11-1.29.37-1.29,1.09a1.31,1.31,0,0,0,1.45,1.28c.87,0,1.75-.55,1.75-1.38v-1.28Z"/>
      <path class="cls-2" d="M91.28,181.2H90.11v-4.46c0-1.26-.64-1.7-1.42-1.7s-1.56.6-1.56,2v4.19H86v-7.09h1.16v.81A2.18,2.18,0,0,1,89,174a2.1,2.1,0,0,1,1.92,1.18A2.43,2.43,0,0,1,93.07,174a2.28,2.28,0,0,1,2.39,2.37v4.86H94.29v-4.46c0-1.26-.68-1.7-1.45-1.7s-1.56.6-1.56,2Z"/>
      <path class="cls-2" d="M98.78,174.11v.81a2.48,2.48,0,0,1,2.07-1c1.83,0,3,1.55,3,3.69s-1.18,3.68-3,3.68a2.48,2.48,0,0,1-2.07-1v3H97.62v-9.24Zm3.88,3.51c0-1.48-.71-2.61-2-2.61a1.85,1.85,0,0,0-1.87,2.07v1.15a1.85,1.85,0,0,0,1.87,2.07c1.31,0,2-1.14,2-2.61Z"/>
      <path class="cls-2" d="M105.66,171.26h1.16v8.35c0,.47.14.71.68.71.3,0,.54,0,.73,0l.11,1a11.29,11.29,0,0,1-1.18.09c-.84,0-1.5-.37-1.5-1.39Z"/>
      <path class="cls-2" d="M110.26,178a2.23,2.23,0,0,0,2.2,2.3,2.84,2.84,0,0,0,1.86-.7l.6.84a4,4,0,0,1-2.51.88,3.35,3.35,0,0,1-3.37-3.68c0-2.16,1.26-3.69,3.22-3.69s3,1.55,3,3.68V178Zm0-.94H114c0-1.09-.65-2.09-1.77-2.09A2.06,2.06,0,0,0,110.27,177.08Z"/>
      <path class="cls-2" d="M118.79,180.67a1.67,1.67,0,0,1-1.66,1.8h-.2l0-.53.17,0c.37-.06.72-.18.72-.57v0h-.11a.91.91,0,0,1-.94-.92,1,1,0,0,1,1-1A1.12,1.12,0,0,1,118.79,180.67Z"/>
      <path class="cls-2" d="M123.84,174.11h1.32l1.75,5.85,1.66-5.85h1.31l-2.58,8.15a1.7,1.7,0,0,1-1.88,1.25,8.32,8.32,0,0,1-1.26-.11l.17-1a5.39,5.39,0,0,0,.94.1.8.8,0,0,0,.89-.71l.07-.33Z"/>
      <path class="cls-2" d="M137.27,177.66c0,2.13-1.31,3.68-3.27,3.68s-3.27-1.55-3.27-3.68S132,174,134,174,137.27,175.5,137.27,177.66Zm-1.21,0v-.09c0-1.42-.71-2.63-2.06-2.63s-2.06,1.21-2.06,2.63v.09c0,1.39.71,2.61,2.06,2.61S136.06,179.09,136.06,177.7Z"/>
      <path class="cls-2" d="M144.61,181.2h-1.17v-.81a2.44,2.44,0,0,1-2.07,1,2.26,2.26,0,0,1-2.37-2.41v-4.81h1.16v4.44c0,1.25.64,1.72,1.46,1.72a1.78,1.78,0,0,0,1.82-2v-4.2h1.17Z"/>
      <path class="cls-2" d="M151.39,177.69c0,1.42.7,2.63,2.06,2.63a2,2,0,0,0,1.83-1.19l1,.55a3,3,0,0,1-2.8,1.66c-2,0-3.27-1.53-3.27-3.68s1.31-3.69,3.27-3.69a3,3,0,0,1,2.8,1.66l-1,.55a2,2,0,0,0-1.83-1.19c-1.36,0-2.06,1.21-2.06,2.63Z"/>
      <path class="cls-2" d="M164,177.66c0,2.13-1.31,3.68-3.27,3.68s-3.27-1.55-3.27-3.68,1.31-3.69,3.27-3.69S164,175.5,164,177.66Zm-1.21,0v-.09c0-1.42-.71-2.63-2.06-2.63s-2.06,1.21-2.06,2.63v.09c0,1.39.71,2.61,2.06,2.61S162.76,179.09,162.76,177.7Z"/>
      <path class="cls-2" d="M171.31,181.2h-1.17v-.81a2.44,2.44,0,0,1-2.07,1,2.26,2.26,0,0,1-2.37-2.41v-4.81h1.16v4.44c0,1.25.64,1.72,1.46,1.72a1.78,1.78,0,0,0,1.82-2v-4.2h1.17Z"/>
      <path class="cls-2" d="M173.48,171.26h1.16v8.35c0,.47.14.71.68.71.3,0,.54,0,.73,0l.11,1a11.29,11.29,0,0,1-1.18.09c-.84,0-1.5-.37-1.5-1.39Z"/>
      <path class="cls-2" d="M182,180.39a2.48,2.48,0,0,1-2.07,1c-1.83,0-3-1.53-3-3.68s1.18-3.69,3-3.69a2.48,2.48,0,0,1,2.07,1v-3.66h1.17v9.94H182Zm-3.88-2.7c0,1.48.71,2.61,2,2.61a1.85,1.85,0,0,0,1.87-2.07v-1.15a1.85,1.85,0,0,0-1.87-2.07c-1.31,0-2,1.14-2,2.61Z"/>
      <path class="cls-2" d="M191,179.43c0,.47.09.87.91.87a6.14,6.14,0,0,0,.88-.09l.13,1a10.36,10.36,0,0,1-1.26.1c-1.12,0-1.82-.44-1.82-1.65v-4.56h-1.33v-1h1.33V171.8l1.16-.41v2.73h2v1h-2Z"/>
      <path class="cls-2" d="M195.1,178a2.23,2.23,0,0,0,2.2,2.3,2.84,2.84,0,0,0,1.86-.7l.6.84a4,4,0,0,1-2.51.88,3.35,3.35,0,0,1-3.37-3.68c0-2.16,1.26-3.69,3.22-3.69s3,1.55,3,3.68V178Zm0-.94h3.75c0-1.09-.65-2.09-1.77-2.09A2.06,2.06,0,0,0,195.11,177.08Z"/>
      <path class="cls-2" d="M201.83,171.26H203v8.35c0,.47.14.71.68.71.3,0,.54,0,.73,0l.11,1a11.29,11.29,0,0,1-1.18.09c-.84,0-1.5-.37-1.5-1.39Z"/>
      <path class="cls-2" d="M205.76,171.26h1.16v8.35c0,.47.14.71.68.71.3,0,.54,0,.73,0l.11,1a11.29,11.29,0,0,1-1.18.09c-.84,0-1.5-.37-1.5-1.39Z"/>
      <path class="cls-2" d="M215.25,179.43c0,.47.09.87.91.87a6.12,6.12,0,0,0,.88-.09l.13,1a10.36,10.36,0,0,1-1.26.1c-1.12,0-1.82-.44-1.82-1.65v-4.56h-1.33v-1h1.33V171.8l1.16-.41v2.73h2v1h-2Z"/>
      <path class="cls-2" d="M218.71,171.26h1.16v3.66a2.44,2.44,0,0,1,2.07-1,2.26,2.26,0,0,1,2.37,2.41v4.81h-1.16v-4.44c0-1.25-.64-1.72-1.46-1.72a1.81,1.81,0,0,0-1.82,2v4.2h-1.16Z"/>
      <path class="cls-2" d="M227.3,178a2.23,2.23,0,0,0,2.2,2.3,2.84,2.84,0,0,0,1.86-.7l.6.84a4,4,0,0,1-2.51.88,3.35,3.35,0,0,1-3.37-3.68c0-2.16,1.26-3.69,3.22-3.69s3,1.55,3,3.68V178Zm0-.94h3.75c0-1.09-.65-2.09-1.77-2.09A2.06,2.06,0,0,0,227.31,177.08Z"/>
      <path class="cls-2" d="M239.38,181.2h-1.17v-4.46c0-1.26-.64-1.7-1.42-1.7s-1.56.6-1.56,2v4.19h-1.16v-7.09h1.16v.81a2.18,2.18,0,0,1,1.86-1,2.1,2.1,0,0,1,1.92,1.18,2.43,2.43,0,0,1,2.16-1.18,2.28,2.28,0,0,1,2.39,2.37v4.86h-1.16v-4.46c0-1.26-.68-1.7-1.45-1.7s-1.56.6-1.56,2Z"/>
      <path class="cls-2" d="M249.49,171.26h1.16v3.66a2.44,2.44,0,0,1,2.07-1,2.26,2.26,0,0,1,2.37,2.41v4.81h-1.16v-4.44c0-1.25-.64-1.72-1.46-1.72a1.81,1.81,0,0,0-1.82,2v4.2h-1.16Z"/>
      <path class="cls-2" d="M263.4,177.66c0,2.13-1.31,3.68-3.27,3.68s-3.27-1.55-3.27-3.68,1.31-3.69,3.27-3.69S263.4,175.5,263.4,177.66Zm-1.21,0v-.09c0-1.42-.71-2.63-2.06-2.63s-2.06,1.21-2.06,2.63v.09c0,1.39.71,2.61,2.06,2.61S262.19,179.09,262.19,177.7Z"/>
      <path class="cls-2" d="M271.17,179.82l1.28-5.71h1.24L272,181.2h-1.49L269,175.52l-1.46,5.68h-1.43l-1.72-7.09h1.25l1.24,5.71,1.49-5.71h1.32Z"/>
      <path class="cls-2" d="M279,171.26h1.16v8.35c0,.47.14.71.68.71.3,0,.54,0,.73,0l.11,1a11.29,11.29,0,0,1-1.18.09c-.84,0-1.5-.37-1.5-1.39Z"/>
      <path class="cls-2" d="M288.92,177.66c0,2.13-1.31,3.68-3.27,3.68s-3.27-1.55-3.27-3.68,1.31-3.69,3.27-3.69S288.92,175.5,288.92,177.66Zm-1.21,0v-.09c0-1.42-.71-2.63-2.06-2.63s-2.06,1.21-2.06,2.63v.09c0,1.39.71,2.61,2.06,2.61S287.71,179.09,287.71,177.7Z"/>
      <path class="cls-2" d="M290.73,174.11h1.16v.81a2.44,2.44,0,0,1,2.07-1,2.26,2.26,0,0,1,2.37,2.41v4.81h-1.16v-4.44c0-1.25-.64-1.72-1.46-1.72a1.82,1.82,0,0,0-1.82,2v4.2h-1.16Z"/>
      <path class="cls-2" d="M300.94,174a2.4,2.4,0,0,1,2,1v-.81h1.17v7.14c0,1.76-1.55,2.27-3,2.27a6.14,6.14,0,0,1-2.63-.57l.4-1a5.76,5.76,0,0,0,2.26.5c1.19,0,1.85-.44,1.85-1.53v-1.35a2.4,2.4,0,0,1-2,1c-1.76,0-2.87-1.43-2.87-3.29S299.18,174,300.94,174Zm2,3.27c0-1.26-.54-2.23-1.82-2.23s-1.87,1-1.87,2.23v.06c0,1.24.58,2.23,1.87,2.23s1.82-1,1.82-2.23Z"/>
      <path class="cls-2" d="M310.69,171.26a.87.87,0,0,1,.85.87.86.86,0,1,1-1.72,0A.87.87,0,0,1,310.69,171.26Zm.57,9.94H310.1v-7.09h1.16Z"/>
      <path class="cls-2" d="M315.25,179.43c0,.47.09.87.91.87a6.14,6.14,0,0,0,.88-.09l.13,1a10.36,10.36,0,0,1-1.26.1c-1.12,0-1.82-.44-1.82-1.65v-4.56h-1.33v-1h1.33V171.8l1.16-.41v2.73h2v1h-2Z"/>
      <path class="cls-2" d="M324.36,179.43c0,.47.09.87.91.87a6.12,6.12,0,0,0,.88-.09l.13,1a10.36,10.36,0,0,1-1.26.1c-1.12,0-1.82-.44-1.82-1.65v-4.56h-1.33v-1h1.33V171.8l1.16-.41v2.73h2v1h-2Z"/>
      <path class="cls-2" d="M329.86,181.34a2.22,2.22,0,0,1-2.47-2.14,2,2,0,0,1,1.89-2l2.5-.34v-.45c0-1.08-.7-1.41-1.58-1.41a4.31,4.31,0,0,0-2,.55l-.44-.92a5.35,5.35,0,0,1,2.6-.65c1.72,0,2.63.77,2.63,2.26v3.31a1,1,0,0,0,.58,1l-.65.84a1.4,1.4,0,0,1-1-.85A2.63,2.63,0,0,1,329.86,181.34Zm0-3.29c-.78.11-1.29.37-1.29,1.09a1.31,1.31,0,0,0,1.45,1.28c.87,0,1.75-.55,1.75-1.38v-1.28Z"/>
      <path class="cls-2" d="M336.32,177.59l3.34-3.48h1.46l-2.7,2.81,2.83,4.27h-1.42l-2.23-3.49L336.32,179v2.19h-1.16v-9.94h1.16Z"/>
      <path class="cls-2" d="M343.11,178a2.23,2.23,0,0,0,2.2,2.3,2.84,2.84,0,0,0,1.86-.7l.6.84a4,4,0,0,1-2.51.88,3.35,3.35,0,0,1-3.37-3.68c0-2.16,1.26-3.69,3.22-3.69s3,1.55,3,3.68V178Zm0-.94h3.75c0-1.09-.65-2.09-1.77-2.09A2.06,2.06,0,0,0,343.12,177.08Z"/>
      <path class="cls-2" d="M349.23,180.32l.71-.82a3.36,3.36,0,0,0,2.14.87c.81,0,1.42-.37,1.42-1.07s-.77-.94-1.73-1.19-2.2-.61-2.2-2.07c0-1.19,1.09-2.06,2.58-2.06a3.83,3.83,0,0,1,2.46.88l-.68.78a2.59,2.59,0,0,0-1.75-.68c-.94,0-1.41.41-1.41,1.05s.4.77,1,.94l1.16.34c1,.3,1.73.8,1.73,1.93,0,1.46-1.29,2.13-2.67,2.13A4.26,4.26,0,0,1,349.23,180.32Z"/>
      <path class="cls-2" d="M361.9,174.11h1.41v1H361.9v6.06h-1.16v-6.06h-1.18v-1h1.18v-1.32c0-1.22.82-1.66,1.95-1.66a6.62,6.62,0,0,1,1.14.1l-.09,1c-.27,0-.78-.06-1-.06-.67,0-.82.41-.82.85Z"/>
      <path class="cls-2" d="M370.77,177.66c0,2.13-1.31,3.68-3.27,3.68s-3.27-1.55-3.27-3.68,1.31-3.69,3.27-3.69S370.77,175.5,370.77,177.66Zm-1.21,0v-.09c0-1.42-.71-2.63-2.06-2.63s-2.06,1.21-2.06,2.63v.09c0,1.39.71,2.61,2.06,2.61S369.56,179.09,369.56,177.7Z"/>
      <path class="cls-2" d="M376.2,175.15H376c-1.19,0-2.27.48-2.27,2.41v3.64h-1.16v-7.09h1.16v1.12a2.21,2.21,0,0,1,2.12-1.25h.34Z"/>
      <path class="cls-2" d="M383.26,179.43c0,.47.09.87.91.87a6.12,6.12,0,0,0,.88-.09l.13,1a10.36,10.36,0,0,1-1.26.1c-1.12,0-1.82-.44-1.82-1.65v-4.56h-1.33v-1h1.33V171.8l1.16-.41v2.73h2v1h-2Z"/>
      <path class="cls-2" d="M386.72,171.26h1.16v3.66a2.44,2.44,0,0,1,2.07-1,2.26,2.26,0,0,1,2.37,2.41v4.81h-1.16v-4.44c0-1.25-.64-1.72-1.46-1.72a1.81,1.81,0,0,0-1.82,2v4.2h-1.16Z"/>
      <path class="cls-2" d="M395.31,178a2.23,2.23,0,0,0,2.2,2.3,2.84,2.84,0,0,0,1.86-.7l.6.84a4,4,0,0,1-2.51.88,3.35,3.35,0,0,1-3.37-3.68c0-2.16,1.26-3.69,3.22-3.69s3,1.55,3,3.68V178Zm0-.94h3.75c0-1.09-.65-2.09-1.77-2.09A2.06,2.06,0,0,0,395.33,177.08Z"/>
      <path class="cls-2" d="M402.66,171.26a.87.87,0,0,1,.85.87.86.86,0,1,1-1.72,0A.87.87,0,0,1,402.66,171.26Zm.57,9.94h-1.16v-7.09h1.16Z"/>
      <path class="cls-2" d="M409,175.15h-.18c-1.19,0-2.27.48-2.27,2.41v3.64H405.4v-7.09h1.16v1.12a2.21,2.21,0,0,1,2.12-1.25H409Z"/>
      <path class="cls-2" d="M416.19,181.34a2.22,2.22,0,0,1-2.47-2.14,2,2,0,0,1,1.89-2l2.5-.34v-.45c0-1.08-.7-1.41-1.58-1.41a4.31,4.31,0,0,0-2,.55l-.44-.92a5.35,5.35,0,0,1,2.6-.65c1.72,0,2.63.77,2.63,2.26v3.31a1,1,0,0,0,.58,1l-.65.84a1.4,1.4,0,0,1-1-.85A2.63,2.63,0,0,1,416.19,181.34Zm0-3.29c-.78.11-1.29.37-1.29,1.09a1.31,1.31,0,0,0,1.45,1.28c.87,0,1.75-.55,1.75-1.38v-1.28Z"/>
      <path class="cls-2" d="M422.65,174.11v.81a2.48,2.48,0,0,1,2.07-1c1.83,0,3,1.55,3,3.69s-1.18,3.68-3,3.68a2.48,2.48,0,0,1-2.07-1v3h-1.16v-9.24Zm3.88,3.51c0-1.48-.71-2.61-2-2.61a1.85,1.85,0,0,0-1.87,2.07v1.15a1.85,1.85,0,0,0,1.87,2.07c1.31,0,2-1.14,2-2.61Z"/>
      <path class="cls-2" d="M430.72,174.11v.81a2.48,2.48,0,0,1,2.07-1c1.83,0,3,1.55,3,3.69s-1.18,3.68-3,3.68a2.48,2.48,0,0,1-2.07-1v3h-1.16v-9.24Zm3.88,3.51c0-1.48-.71-2.61-2-2.61a1.85,1.85,0,0,0-1.87,2.07v1.15a1.85,1.85,0,0,0,1.87,2.07c1.31,0,2-1.14,2-2.61Z"/>
      <path class="cls-2" d="M437.6,171.26h1.16v8.35c0,.47.14.71.68.71.3,0,.54,0,.73,0l.11,1a11.29,11.29,0,0,1-1.18.09c-.84,0-1.5-.37-1.5-1.39Z"/>
      <path class="cls-2" d="M442.19,171.26a.87.87,0,0,1,.85.87.86.86,0,1,1-1.72,0A.87.87,0,0,1,442.19,171.26Zm.57,9.94H441.6v-7.09h1.16Z"/>
      <path class="cls-2" d="M445.72,177.69c0,1.42.7,2.63,2.06,2.63a2,2,0,0,0,1.83-1.19l1,.55a3,3,0,0,1-2.8,1.66c-2,0-3.27-1.53-3.27-3.68s1.31-3.69,3.27-3.69a3,3,0,0,1,2.8,1.66l-1,.55a2,2,0,0,0-1.83-1.19c-1.36,0-2.06,1.21-2.06,2.63Z"/>
      <path class="cls-2" d="M454.37,181.34a2.22,2.22,0,0,1-2.47-2.14,2,2,0,0,1,1.89-2l2.5-.34v-.45c0-1.08-.7-1.41-1.58-1.41a4.31,4.31,0,0,0-2,.55l-.44-.92a5.35,5.35,0,0,1,2.6-.65c1.72,0,2.63.77,2.63,2.26v3.31a1,1,0,0,0,.58,1l-.65.84a1.4,1.4,0,0,1-1-.85A2.63,2.63,0,0,1,454.37,181.34Zm0-3.29c-.78.11-1.29.37-1.29,1.09a1.31,1.31,0,0,0,1.45,1.28c.87,0,1.75-.55,1.75-1.38v-1.28Z"/>
      <path class="cls-2" d="M461.36,179.43c0,.47.09.87.91.87a6.12,6.12,0,0,0,.88-.09l.13,1a10.36,10.36,0,0,1-1.26.1c-1.12,0-1.82-.44-1.82-1.65v-4.56h-1.33v-1h1.33V171.8l1.16-.41v2.73h2v1h-2Z"/>
      <path class="cls-2" d="M465.42,171.26a.87.87,0,0,1,.85.87.86.86,0,1,1-1.72,0A.87.87,0,0,1,465.42,171.26Zm.57,9.94h-1.16v-7.09H466Z"/>
      <path class="cls-2" d="M474.28,177.66c0,2.13-1.31,3.68-3.27,3.68s-3.27-1.55-3.27-3.68S469.05,174,471,174,474.28,175.5,474.28,177.66Zm-1.21,0v-.09c0-1.42-.71-2.63-2.06-2.63S469,176.2,469,177.62v.09c0,1.39.71,2.61,2.06,2.61S473.07,179.09,473.07,177.7Z"/>
      <path class="cls-2" d="M476.09,174.11h1.16v.81a2.44,2.44,0,0,1,2.07-1,2.26,2.26,0,0,1,2.37,2.41v4.81h-1.16v-4.44c0-1.25-.64-1.72-1.46-1.72a1.82,1.82,0,0,0-1.82,2v4.2h-1.16Z"/>
      <path class="cls-2" d="M41.72,196.48c0,.47.09.87.91.87a6.12,6.12,0,0,0,.88-.09l.13,1a10.36,10.36,0,0,1-1.26.1c-1.12,0-1.82-.44-1.82-1.65v-4.56H39.22v-1h1.33v-2.31l1.16-.41v2.73h2v1h-2Z"/>
      <path class="cls-2" d="M51.15,194.7c0,2.13-1.31,3.68-3.27,3.68s-3.27-1.55-3.27-3.68S45.93,191,47.89,191,51.15,192.54,51.15,194.7Zm-1.21,0v-.09c0-1.42-.71-2.63-2.06-2.63s-2.06,1.21-2.06,2.63v.09c0,1.39.71,2.61,2.06,2.61S49.95,196.13,49.95,194.74Z"/>
      <path class="cls-2" d="M57.89,198.24H56.72V188.3h1.16V192A2.48,2.48,0,0,1,60,191c1.83,0,3,1.55,3,3.69s-1.18,3.68-3,3.68a2.48,2.48,0,0,1-2.07-1Zm3.88-3.58c0-1.48-.71-2.61-2-2.61a1.85,1.85,0,0,0-1.87,2.07v1.15a1.85,1.85,0,0,0,1.87,2.07c1.31,0,2-1.14,2-2.61Z"/>
      <path class="cls-2" d="M65.64,195.06a2.23,2.23,0,0,0,2.2,2.3,2.84,2.84,0,0,0,1.86-.7l.6.84a4,4,0,0,1-2.51.88,3.35,3.35,0,0,1-3.37-3.68c0-2.16,1.26-3.69,3.22-3.69s3,1.55,3,3.68v.37Zm0-.94h3.75c0-1.09-.65-2.09-1.77-2.09A2.06,2.06,0,0,0,65.66,194.12Z"/>
      <path class="cls-2" d="M77.32,191.15V192a2.48,2.48,0,0,1,2.07-1c1.83,0,3,1.55,3,3.69s-1.18,3.68-3,3.68a2.48,2.48,0,0,1-2.07-1v3H76.15v-9.24Zm3.88,3.51c0-1.48-.71-2.61-2-2.61a1.85,1.85,0,0,0-1.87,2.07v1.15a1.85,1.85,0,0,0,1.87,2.07c1.31,0,2-1.14,2-2.61Z"/>
      <path class="cls-2" d="M87.84,192.19h-.18c-1.19,0-2.27.48-2.27,2.41v3.64H84.22v-7.09h1.16v1.12A2.21,2.21,0,0,1,87.5,191h.34Z"/>
      <path class="cls-2" d="M95.31,194.7c0,2.13-1.31,3.68-3.27,3.68s-3.27-1.55-3.27-3.68S90.09,191,92,191,95.31,192.54,95.31,194.7Zm-1.21,0v-.09c0-1.42-.71-2.63-2.06-2.63S90,193.24,90,194.66v.09c0,1.39.71,2.61,2.06,2.61S94.11,196.13,94.11,194.74Z"/>
      <path class="cls-2" d="M97.94,194.73c0,1.42.7,2.63,2.06,2.63a2,2,0,0,0,1.83-1.19l1,.55a3,3,0,0,1-2.8,1.66c-2,0-3.27-1.53-3.27-3.68S98,191,100,191a3,3,0,0,1,2.8,1.66l-1,.55A2,2,0,0,0,100,192c-1.36,0-2.06,1.21-2.06,2.63Z"/>
      <path class="cls-2" d="M105.21,195.06a2.23,2.23,0,0,0,2.2,2.3,2.84,2.84,0,0,0,1.86-.7l.6.84a4,4,0,0,1-2.51.88A3.35,3.35,0,0,1,104,194.7c0-2.16,1.26-3.69,3.22-3.69s3,1.55,3,3.68v.37Zm0-.94H109c0-1.09-.65-2.09-1.77-2.09A2.06,2.06,0,0,0,105.23,194.12Z"/>
      <path class="cls-2" d="M111.34,197.36l.71-.82a3.36,3.36,0,0,0,2.14.87c.81,0,1.42-.37,1.42-1.07s-.77-.94-1.73-1.19-2.2-.61-2.2-2.07c0-1.19,1.09-2.06,2.58-2.06a3.82,3.82,0,0,1,2.46.88l-.68.78a2.59,2.59,0,0,0-1.75-.68c-.94,0-1.41.41-1.41,1.05s.4.77,1,.94l1.16.34c1,.3,1.73.8,1.73,1.93,0,1.46-1.29,2.13-2.67,2.13A4.26,4.26,0,0,1,111.34,197.36Z"/>
      <path class="cls-2" d="M118,197.36l.71-.82a3.36,3.36,0,0,0,2.14.87c.81,0,1.42-.37,1.42-1.07s-.77-.94-1.73-1.19-2.2-.61-2.2-2.07c0-1.19,1.09-2.06,2.58-2.06a3.82,3.82,0,0,1,2.46.88l-.68.78A2.59,2.59,0,0,0,121,192c-.94,0-1.41.41-1.41,1.05s.4.77,1,.94l1.16.34c1,.3,1.73.8,1.73,1.93,0,1.46-1.29,2.13-2.67,2.13A4.26,4.26,0,0,1,118,197.36Z"/>
      <path class="cls-2" d="M126.05,195.06a2.23,2.23,0,0,0,2.2,2.3,2.84,2.84,0,0,0,1.86-.7l.6.84a4,4,0,0,1-2.51.88,3.35,3.35,0,0,1-3.37-3.68c0-2.16,1.26-3.69,3.22-3.69s3,1.55,3,3.68v.37Zm0-.94h3.75c0-1.09-.65-2.09-1.77-2.09A2.06,2.06,0,0,0,126.07,194.12Z"/>
      <path class="cls-2" d="M137.54,197.43a2.48,2.48,0,0,1-2.07,1c-1.83,0-3-1.53-3-3.68s1.18-3.69,3-3.69a2.48,2.48,0,0,1,2.07,1V188.3h1.17v9.94h-1.17Zm-3.88-2.7c0,1.48.71,2.61,2,2.61a1.85,1.85,0,0,0,1.87-2.07v-1.15a1.85,1.85,0,0,0-1.87-2.07c-1.31,0-2,1.14-2,2.61Z"/>
      <path class="cls-2" d="M141.76,196.48a1,1,0,1,1-1,1A1,1,0,0,1,141.76,196.48Z"/>
    </g>
    <g>
      <g>
        <circle class="cls-1" cx="18.97" cy="14.95" r="6.35"/>
        <circle class="cls-1" cx="36.72" cy="14.95" r="6.35"/>
        <circle class="cls-1" cx="54.47" cy="14.95" r="6.35"/>
      </g>
      <rect class="cls-2" x="0.75" y="29.9" width="621.72" height="48.58"/>
      <g>
        <polygon class="cls-1" points="199.55 44.64 191.55 54.34 191.55 44.64 187.01 44.64 187.01 67.05 191.55 67.05 191.55 60.23 194.44 57 200.36 67.05 205.63 67.05 197.34 53.55 205.13 44.64 199.55 44.64"/>
        <g>
          <path class="cls-1" d="M171.63,63a4,4,0,0,1-1.47-.87,4.12,4.12,0,0,1-1-1.49,5.66,5.66,0,0,1-.36-2.12V44.61h-4.48V59.17a8.21,8.21,0,0,0,.68,3.39,7.39,7.39,0,0,0,1.9,2.58,8.63,8.63,0,0,0,2.89,1.64,11.83,11.83,0,0,0,7.31,0A8.56,8.56,0,0,0,180,65.14a7.43,7.43,0,0,0,1.89-2.58,8.2,8.2,0,0,0,.68-3.39V44.61h-4.45V58.5a5.69,5.69,0,0,1-.36,2.12,4.14,4.14,0,0,1-1,1.49,4,4,0,0,1-1.47.87,6,6,0,0,1-3.67,0"/>
          <path class="cls-1" d="M155.25,65.63a2.94,2.94,0,0,0,.62.91,2.8,2.8,0,0,0,.92.61,2.83,2.83,0,0,0,1.1.22,2.78,2.78,0,0,0,1.09-.22,2.83,2.83,0,0,0,.91-.61,3,3,0,0,0,.62-.91,2.74,2.74,0,0,0,.23-1.11,2.63,2.63,0,0,0-.23-1.08,2.88,2.88,0,0,0-.62-.89,3,3,0,0,0-.91-.61,2.67,2.67,0,0,0-1.09-.23,2.72,2.72,0,0,0-1.1.23,3,3,0,0,0-.92.61,2.87,2.87,0,0,0-.62.89,2.64,2.64,0,0,0-.23,1.08,2.75,2.75,0,0,0,.23,1.11"/>
        </g>
        <polygon class="cls-1" points="148.06 67.05 154.39 44.64 149.37 44.64 145.14 61.49 144.98 61.49 140.65 44.64 135.57 44.64 141.9 67.05 148.06 67.05"/>
        <g>
          <path class="cls-1" d="M120.56,62.71a5.3,5.3,0,0,1-1.88-1.54,6.94,6.94,0,0,1-1.15-2.33,10.53,10.53,0,0,1-.39-2.94v-.13a10.56,10.56,0,0,1,.39-2.93,6.93,6.93,0,0,1,1.15-2.34A5.29,5.29,0,0,1,120.56,49a6.33,6.33,0,0,1,5.18,0,5.38,5.38,0,0,1,1.88,1.54,6.85,6.85,0,0,1,1.16,2.34,10.51,10.51,0,0,1,.39,2.93v.13a10.48,10.48,0,0,1-.39,2.94,6.86,6.86,0,0,1-1.16,2.33,5.39,5.39,0,0,1-1.88,1.54,6.33,6.33,0,0,1-5.18,0m-1.9-17.49a10,10,0,0,0-3.36,2.45,10.68,10.68,0,0,0-2.11,3.66,14.36,14.36,0,0,0,0,9A10.8,10.8,0,0,0,115.3,64a9.81,9.81,0,0,0,3.36,2.45,11.75,11.75,0,0,0,9,0A9.78,9.78,0,0,0,131,64a10.8,10.8,0,0,0,2.11-3.66,14.39,14.39,0,0,0,0-9A10.69,10.69,0,0,0,131,47.68a9.93,9.93,0,0,0-3.37-2.45,11.68,11.68,0,0,0-9,0"/>
          <path class="cls-1" d="M93.93,55.75A10.52,10.52,0,0,1,94.29,53a7.11,7.11,0,0,1,1.09-2.35A5.51,5.51,0,0,1,97.26,49a5.63,5.63,0,0,1,2.72-.62,6,6,0,0,1,1.81.26,5.13,5.13,0,0,1,2.56,1.77,7.71,7.71,0,0,1,.84,1.34l4-2.23a8.37,8.37,0,0,0-1.47-2.13,9.08,9.08,0,0,0-2.09-1.64,10.3,10.3,0,0,0-2.61-1,12.08,12.08,0,0,0-3-.37,10.6,10.6,0,0,0-4.43.9,10.12,10.12,0,0,0-3.37,2.45A11,11,0,0,0,90,51.34a13.19,13.19,0,0,0-.76,4.51,14.52,14.52,0,0,0,.68,4.52,10.87,10.87,0,0,0,2,3.66,9.19,9.19,0,0,0,3.21,2.45,10.2,10.2,0,0,0,4.36.89,8.65,8.65,0,0,0,2-.22,8,8,0,0,0,1.71-.6,6.54,6.54,0,0,0,1.41-.92,5.52,5.52,0,0,0,1-1.2V67h4V54.77H99.46v3.45h5.73v.22A5.67,5.67,0,0,1,105,60a4.33,4.33,0,0,1-.84,1.57,4.68,4.68,0,0,1-1.61,1.21,5.81,5.81,0,0,1-2.52.48,5.63,5.63,0,0,1-2.72-.62A5.5,5.5,0,0,1,95.38,61a7.12,7.12,0,0,1-1.09-2.34,10.5,10.5,0,0,1-.36-2.77Z"/>
          <path class="cls-1" d="M46.56,49.2a2,2,0,1,0-1.06-2.55,2,2,0,0,0,1.06,2.55"/>
          <path class="cls-1" d="M42.1,51.81A2,2,0,1,0,41,49.26a2,2,0,0,0,1.06,2.55"/>
          <path class="cls-1" d="M40.8,56.76a2,2,0,1,0-1.06-2.55,2,2,0,0,0,1.06,2.55"/>
          <path class="cls-1" d="M51.53,50.77a2,2,0,1,0-1.06-2.55,2,2,0,0,0,1.06,2.55"/>
          <path class="cls-1" d="M69.54,49.2a2,2,0,1,1,1.06-2.55,2,2,0,0,1-1.06,2.55"/>
          <path class="cls-1" d="M74,51.81a2,2,0,1,1,1.06-2.55A2,2,0,0,1,74,51.81"/>
          <path class="cls-1" d="M75.3,56.76a2,2,0,1,1,1.06-2.55,2,2,0,0,1-1.06,2.55"/>
          <path class="cls-1" d="M64.57,50.77a2,2,0,1,1,1.06-2.55,2,2,0,0,1-1.06,2.55"/>
          <path class="cls-1" d="M59.09,45.69h0L61.58,47V43.32l-2.48.79h0a1.24,1.24,0,0,0-.24-.24h0l1-3.15H56.25l1,3.15h0a1.27,1.27,0,0,0-.24.24h0l-2.48-.79V47L57,45.68h0a1.32,1.32,0,0,0,.26.25l-1.43,4.31v0h0a2.32,2.32,0,0,0,1.88,3h0l.29,0,.29,0h0a2.32,2.32,0,0,0,2-2.29,2.35,2.35,0,0,0-.1-.68h0v0l-1.43-4.31a1.34,1.34,0,0,0,.26-.25"/>
          <path class="cls-1" d="M58,66.77a94,94,0,0,1,13.17.89c1.13-4.75,2.51-7.48,3.93-9.42l-2.68-1a4.89,4.89,0,0,1,0,2.86,5.42,5.42,0,0,1-1.19-2.44L70,62a4,4,0,0,1,2.09-.91c-1.23,2.66-2.77,3.34-3.77,3.16a1.9,1.9,0,0,1-1.59-2.23c.28-1.31,1.62-1.65,2.25-.13,1.2-2.44-.83-3.21-2.14-2.48,2-2,2.24-3.79.62-5.94-2.26,1.73-2.29,3.44-1.27,5.84-1.32-1.51-3.37-.7-2.63,1.74,1-1.47,2.21-.55,2,.85-.17,1.22-1.78,2.2-3.78,2-2.87-.26-3-2.24-3.11-3.88.7-.13,2,.52,3.06,2l.4-4.58a4.46,4.46,0,0,1-3.44,1.5,13.41,13.41,0,0,1,2.22-3.26H55.19a13.45,13.45,0,0,1,2.22,3.26A4.46,4.46,0,0,1,54,57.55l.4,4.58c1.09-1.52,2.36-2.18,3.06-2-.07,1.64-.24,3.62-3.11,3.88-2,.17-3.61-.81-3.78-2-.2-1.4,1.06-2.33,2-.85.74-2.44-1.31-3.25-2.63-1.74,1-2.41,1-4.12-1.27-5.84-1.62,2.15-1.39,3.94.62,5.94-1.31-.72-3.34,0-2.14,2.48.63-1.52,2-1.18,2.25.13a1.9,1.9,0,0,1-1.59,2.23c-1,.19-2.54-.5-3.77-3.16A4,4,0,0,1,46.1,62l-1.3-4.32a5.41,5.41,0,0,1-1.19,2.44,4.89,4.89,0,0,1,0-2.86l-2.67,1c1.42,1.94,2.8,4.66,3.93,9.41A94.18,94.18,0,0,1,58,66.77"/>
        </g>
      </g>
      <polygon class="cls-3" points="2.99 389.34 2.99 29.89 620.66 29.89 620.66 389.34 623.65 389.34 623.65 26.91 0 26.91 0 389.34 2.99 389.34"/>
      <path class="cls-3" d="M0,29.9V10A10,10,0,0,1,10,0H613.65a10,10,0,0,1,10,10V29.9"/>
      <g>
        <circle class="cls-1" cx="18.97" cy="14.95" r="6.35"/>
        <circle class="cls-1" cx="36.72" cy="14.95" r="6.35"/>
        <circle class="cls-1" cx="54.47" cy="14.95" r="6.35"/>
      </g>
      <rect class="cls-3" y="386.35" width="623.65" height="2.99"/>
      <polygon class="cls-3" points="2.99 389.34 2.99 29.89 620.66 29.89 620.66 389.34 623.65 389.34 623.65 26.91 0 26.91 0 389.34 2.99 389.34"/>
    </g>
    <rect class="cls-1" x="379.73" y="132.83" width="620.85" height="326.32"/>
    <rect class="cls-4" x="415.37" y="165.01" width="431.73" height="193.81"/>
    <g>
      <path class="cls-1" d="M498.05,193.31h5.52l-8.12,14.41v9.9h-5v-9.9l-8.12-14.41H488l5,9.41Z"/>
      <path class="cls-1" d="M520,208.55c0,5.38-3.58,9.41-8.92,9.41s-8.92-4.06-8.92-9.41v0c0-5.35,3.54-9.41,8.92-9.41s8.92,4.06,8.92,9.41Zm-4.79,0c0-3-1.46-5.07-4.13-5.07s-4.1,2.12-4.13,5.07v0c0,3,1.46,5.07,4.13,5.07s4.1-2.12,4.13-5.07Z"/>
      <path class="cls-1" d="M538.56,217.62h-4.69v-1.56a6.16,6.16,0,0,1-4.62,1.91,6,6,0,0,1-6.28-6.25V199.46h4.69V210c0,2.57,1.22,3.54,2.85,3.54,1.91,0,3.37-1.35,3.37-4.17v-9.93h4.69Z"/>
      <path class="cls-1" d="M553.19,204h-.83c-2.67,0-5,.9-5,4.79v8.82h-4.69V199.46h4.69v2a5.63,5.63,0,0,1,4.83-2.36h1Z"/>
      <path class="cls-1" d="M569.2,199.46V201a6,6,0,0,1,4.58-1.91c4.79,0,8,4,8,9.34v.17c0,5.38-3.3,9.34-8.09,9.34a5.77,5.77,0,0,1-4.48-1.91v7.29h-4.69V199.46Zm-.14,10.76a3.42,3.42,0,0,0,3.75,3.4c2.67,0,4.13-2.12,4.13-5v-.17c0-2.88-1.46-5-4.13-5a3.42,3.42,0,0,0-3.75,3.4Z"/>
      <path class="cls-1" d="M590,218c-3.3,0-6.28-2.08-6.28-5.69,0-2.92,1.91-4.86,5.1-5.31l5.52-.76v-.59c0-1.6-1.08-2.33-2.85-2.33a12.23,12.23,0,0,0-5.35,1.46l-1.84-3.61a15.33,15.33,0,0,1,7.36-2c3.33,0,7.36.9,7.36,5.83v7.78c0,1.08.59,1.46,1.56,1.87L598.52,218a4.13,4.13,0,0,1-3.4-2A6.28,6.28,0,0,1,590,218Zm.56-7.67c-1.15.17-1.91.83-1.91,1.87a2.21,2.21,0,0,0,2.47,2.12,3,3,0,0,0,3.23-3.33V209.7Z"/>
      <path class="cls-1" d="M606.66,218.35l.14-.59h-.35l-5.59-18.3h5.21L609.4,212l3.26-12.57h5.14l-6.25,20.83c-.8,2.71-2.92,3.44-5.66,3.44a30.74,30.74,0,0,1-4.27-.35l1-4.13a16.81,16.81,0,0,0,2.5.21A1.38,1.38,0,0,0,606.66,218.35Z"/>
      <path class="cls-1" d="M635.29,217.62H630.6V207.06c0-2.6-1.22-3.51-2.74-3.51-1.81,0-3.19,1.25-3.19,4.17v9.9H620V199.46h4.69v1.6a6.09,6.09,0,0,1,4.65-1.94,5.26,5.26,0,0,1,4.69,2.47,6.4,6.4,0,0,1,5.49-2.47,6.08,6.08,0,0,1,6.46,6.11v12.4h-4.72V207.06c0-2.6-1.21-3.51-2.74-3.51-1.81,0-3.19,1.25-3.19,4.17Z"/>
      <path class="cls-1" d="M653.82,210.15a4.27,4.27,0,0,0,4.41,3.54,6.52,6.52,0,0,0,4.58-1.7l2.33,3.54a10.87,10.87,0,0,1-7,2.43c-5,0-9.13-3.47-9.13-9.31v-.21c0-5.35,3.65-9.34,8.78-9.34,4.79,0,8.33,3.65,8.33,8.92v2.12Zm0-3.54h7.33a3.49,3.49,0,0,0-3.58-3.44A3.63,3.63,0,0,0,653.86,206.61Z"/>
      <path class="cls-1" d="M669.2,199.46h4.69V201a6.16,6.16,0,0,1,4.62-1.91,6,6,0,0,1,6.28,6.25v12.26H680.1V207.06c0-2.57-1.22-3.54-2.85-3.54-1.91,0-3.37,1.35-3.37,4.17v9.93H669.2Z"/>
      <path class="cls-1" d="M695,212.2c0,.87.38,1.53,2,1.53a11.62,11.62,0,0,0,2.33-.21l.42,4.13a37.4,37.4,0,0,1-4.31.31c-3.23,0-5.14-1.42-5.14-4.62v-9.69h-3.26v-4.2h3.26v-5.14l4.69-1.25v6.39h4.76v4.2H695Z"/>
      <path class="cls-1" d="M728,211.68l2.22-12.22h5l-4.2,18.16h-5.56l-2.71-11.81-2.88,11.81h-5.49l-4.2-18.16h5.1l2.15,12.22,3.16-12.22H725Z"/>
      <path class="cls-1" d="M742.85,218c-3.3,0-6.28-2.08-6.28-5.69,0-2.92,1.91-4.86,5.1-5.31l5.52-.76v-.59c0-1.6-1.08-2.33-2.85-2.33a12.23,12.23,0,0,0-5.35,1.46l-1.84-3.61a15.33,15.33,0,0,1,7.36-2c3.33,0,7.36.9,7.36,5.83v7.78c0,1.08.59,1.46,1.56,1.87L751.32,218a4.13,4.13,0,0,1-3.4-2A6.28,6.28,0,0,1,742.85,218Zm.56-7.67c-1.15.17-1.91.83-1.91,1.87a2.21,2.21,0,0,0,2.47,2.12,3,3,0,0,0,3.23-3.33V209.7Z"/>
      <path class="cls-1" d="M757.86,211.78a8.41,8.41,0,0,0,5.31,2.19c1.42,0,2.57-.38,2.57-1.46,0-.87-.69-1.21-2.22-1.6a31.07,31.07,0,0,1-4.51-1.28,4.89,4.89,0,0,1-3.19-4.72c0-3.89,3.44-5.8,7.47-5.8a10.43,10.43,0,0,1,7.19,2.57l-3,3.09a6.24,6.24,0,0,0-4.17-1.67c-1.28,0-2.57.45-2.57,1.53,0,.83.8,1.15,2.15,1.49a25.61,25.61,0,0,1,5.21,1.67,4.8,4.8,0,0,1,2.54,4.34c0,3.85-3.3,5.83-7.33,5.83a13.35,13.35,0,0,1-8.19-2.74Z"/>
      <path class="cls-1" d="M550.29,249.4a8.41,8.41,0,0,0,5.31,2.19c1.42,0,2.57-.38,2.57-1.46,0-.87-.69-1.21-2.22-1.6a31.07,31.07,0,0,1-4.51-1.28,4.89,4.89,0,0,1-3.19-4.72c0-3.89,3.44-5.8,7.47-5.8a10.43,10.43,0,0,1,7.19,2.57l-3,3.09a6.24,6.24,0,0,0-4.17-1.67c-1.28,0-2.57.45-2.57,1.53,0,.83.8,1.15,2.15,1.49a25.64,25.64,0,0,1,5.21,1.67,4.8,4.8,0,0,1,2.53,4.34c0,3.85-3.3,5.83-7.33,5.83a13.35,13.35,0,0,1-8.19-2.74Z"/>
      <path class="cls-1" d="M581.57,255.23h-4.69v-1.56a6.16,6.16,0,0,1-4.62,1.91,6,6,0,0,1-6.29-6.25V237.07h4.69v10.56c0,2.57,1.22,3.54,2.85,3.54,1.91,0,3.37-1.35,3.37-4.17v-9.93h4.69Z"/>
      <path class="cls-1" d="M584.67,246.1c0-5.35,3.68-9.38,8.78-9.38,3.72,0,6.7,1.84,7.88,4.69l-4.17,2.12a3.71,3.71,0,0,0-3.61-2.47c-2.85,0-4.06,2.6-4.06,5v.21c0,2.36,1.22,5,4.06,5a3.71,3.71,0,0,0,3.61-2.47l4.17,2.12c-1.18,2.85-4.27,4.69-8,4.69-5.1,0-8.72-4-8.72-9.38Z"/>
      <path class="cls-1" d="M603,246.1c0-5.35,3.68-9.38,8.78-9.38,3.72,0,6.7,1.84,7.88,4.69l-4.17,2.12a3.71,3.71,0,0,0-3.61-2.47c-2.85,0-4.06,2.6-4.06,5v.21c0,2.36,1.22,5,4.06,5a3.71,3.71,0,0,0,3.61-2.47l4.17,2.12c-1.18,2.85-4.27,4.69-8,4.69-5.1,0-8.72-4-8.72-9.38Z"/>
      <path class="cls-1" d="M626.11,247.76a4.27,4.27,0,0,0,4.41,3.54,6.52,6.52,0,0,0,4.58-1.7l2.33,3.54a10.87,10.87,0,0,1-7,2.43c-5,0-9.13-3.47-9.13-9.31v-.21c0-5.35,3.65-9.34,8.78-9.34,4.79,0,8.33,3.65,8.33,8.92v2.12Zm0-3.54h7.33a3.49,3.49,0,0,0-3.58-3.44A3.63,3.63,0,0,0,626.15,244.22Z"/>
      <path class="cls-1" d="M642.75,249.4a8.41,8.41,0,0,0,5.31,2.19c1.42,0,2.57-.38,2.57-1.46,0-.87-.69-1.21-2.22-1.6a31.07,31.07,0,0,1-4.51-1.28,4.89,4.89,0,0,1-3.19-4.72c0-3.89,3.44-5.8,7.47-5.8a10.43,10.43,0,0,1,7.19,2.57l-3,3.09a6.24,6.24,0,0,0-4.17-1.67c-1.28,0-2.57.45-2.57,1.53,0,.83.8,1.15,2.15,1.49A25.61,25.61,0,0,1,653,245.4a4.8,4.8,0,0,1,2.54,4.34c0,3.85-3.3,5.83-7.33,5.83a13.35,13.35,0,0,1-8.19-2.74Z"/>
      <path class="cls-1" d="M660,249.4a8.41,8.41,0,0,0,5.31,2.19c1.42,0,2.57-.38,2.57-1.46,0-.87-.69-1.21-2.22-1.6a31.07,31.07,0,0,1-4.51-1.28,4.89,4.89,0,0,1-3.19-4.72c0-3.89,3.44-5.8,7.47-5.8a10.43,10.43,0,0,1,7.19,2.57l-3,3.09a6.24,6.24,0,0,0-4.17-1.67c-1.28,0-2.57.45-2.57,1.53,0,.83.8,1.15,2.15,1.49a25.61,25.61,0,0,1,5.21,1.67,4.8,4.8,0,0,1,2.54,4.34c0,3.85-3.3,5.83-7.33,5.83a13.35,13.35,0,0,1-8.19-2.74Z"/>
      <path class="cls-1" d="M682.2,237.07h3.47v4.2H682.2v14h-4.69v-14h-2.88v-4.2h2.88V235.2c0-3.16,2.26-4.62,5.49-4.62a31.64,31.64,0,0,1,3.71.24l-.38,4a16.21,16.21,0,0,0-2.29-.17c-1.32,0-1.84.56-1.84,1.35Z"/>
      <path class="cls-1" d="M703.56,255.23h-4.69v-1.56a6.16,6.16,0,0,1-4.62,1.91,6,6,0,0,1-6.29-6.25V237.07h4.69v10.56c0,2.57,1.22,3.54,2.85,3.54,1.91,0,3.37-1.35,3.37-4.17v-9.93h4.69Z"/>
      <path class="cls-1" d="M707.59,230.92h4.69V250.3c0,.76.42,1.18,1.39,1.18a9.25,9.25,0,0,0,1.77-.17l.38,4a38.52,38.52,0,0,1-4,.28c-2.64,0-4.27-1.39-4.27-4Z"/>
      <path class="cls-1" d="M468.87,288.22H471l-5.21,9.58v6.62h-2V297.8l-5.23-9.58h2.27l4,7.71Z"/>
      <path class="cls-1" d="M481.67,298.65c0,3.47-2.13,6-5.32,6s-5.32-2.52-5.32-6,2.13-6,5.32-6S481.67,295.14,481.67,298.65Zm-2,.07v-.14c0-2.31-1.16-4.28-3.36-4.28s-3.36,2-3.36,4.28v.14c0,2.27,1.16,4.26,3.36,4.26S479.7,301,479.7,298.72Z"/>
      <path class="cls-1" d="M493.49,304.42h-1.9V303.1a4,4,0,0,1-3.38,1.55,3.68,3.68,0,0,1-3.87-3.93v-7.85h1.9v7.24c0,2,1,2.8,2.38,2.8a2.9,2.9,0,0,0,3-3.19v-6.85h1.9Z"/>
      <path class="cls-1" d="M502.8,294.56h-.3c-1.94,0-3.7.79-3.7,3.93v5.93h-1.9V292.87h1.9v1.83a3.6,3.6,0,0,1,3.45-2h.56Z"/>
      <path class="cls-1" d="M513.22,292.87v1.32a4,4,0,0,1,3.38-1.55c3,0,4.91,2.52,4.91,6s-1.92,6-4.91,6a4,4,0,0,1-3.38-1.55v4.84h-1.9V292.87Zm6.32,5.72c0-2.41-1.16-4.26-3.29-4.26s-3.06,1.46-3.06,3.38v1.87c0,1.92,1,3.38,3.06,3.38s3.29-1.85,3.29-4.26Z"/>
      <path class="cls-1" d="M527.54,304.65c-2.29,0-4-1.34-4-3.5a3.23,3.23,0,0,1,3.08-3.26l4.07-.56v-.74c0-1.76-1.13-2.29-2.57-2.29a7,7,0,0,0-3.33.9l-.72-1.5a8.71,8.71,0,0,1,4.24-1.07c2.8,0,4.28,1.25,4.28,3.68v5.39a1.56,1.56,0,0,0,.95,1.57l-1.07,1.37a2.29,2.29,0,0,1-1.55-1.39A4.29,4.29,0,0,1,527.54,304.65Zm0-5.37c-1.27.19-2.11.6-2.11,1.78a2.13,2.13,0,0,0,2.36,2.08c1.41,0,2.85-.9,2.85-2.24v-2.08Z"/>
      <path class="cls-1" d="M534.45,292.87h2.15l2.85,9.54,2.71-9.54h2.13l-4.21,13.29a2.78,2.78,0,0,1-3.06,2A13.65,13.65,0,0,1,535,308l.28-1.67a8.8,8.8,0,0,0,1.53.16,1.31,1.31,0,0,0,1.46-1.16l.12-.53Z"/>
      <path class="cls-1" d="M555.18,304.42h-1.9v-7.27c0-2.06-1-2.78-2.31-2.78s-2.55,1-2.55,3.22v6.83h-1.9V292.87h1.9v1.32a3.55,3.55,0,0,1,3-1.55,3.42,3.42,0,0,1,3.13,1.92,4,4,0,0,1,3.52-1.92A3.72,3.72,0,0,1,562,296.5v7.92h-1.9v-7.27c0-2.06-1.11-2.78-2.36-2.78s-2.55,1-2.55,3.22Z"/>
      <path class="cls-1" d="M566.72,299.23c.14,2.18,1.5,3.75,3.59,3.75a4.63,4.63,0,0,0,3-1.13l1,1.37a6.44,6.44,0,0,1-4.1,1.44c-3.36,0-5.49-2.52-5.49-6s2.06-6,5.25-6c3,0,4.93,2.52,4.93,6v.6Zm0-1.53h6.11c-.07-1.78-1.06-3.4-2.89-3.4A3.36,3.36,0,0,0,566.74,297.71Z"/>
      <path class="cls-1" d="M577.61,292.87h1.9v1.32a4,4,0,0,1,3.38-1.55,3.68,3.68,0,0,1,3.87,3.93v7.85h-1.9v-7.24c0-2-1-2.8-2.38-2.8a3,3,0,0,0-3,3.19v6.85h-1.9Z"/>
      <path class="cls-1" d="M592.89,301.55c0,.76.14,1.41,1.48,1.41a10.05,10.05,0,0,0,1.43-.14l.21,1.67a16.83,16.83,0,0,1-2.06.16c-1.83,0-3-.72-3-2.68v-7.43h-2.18v-1.67H591V289.1l1.9-.67v4.44h3.22v1.67h-3.22Z"/>
      <path class="cls-1" d="M610.64,294.56h-.3c-1.94,0-3.7.79-3.7,3.93v5.93h-1.9V292.87h1.9v1.83a3.6,3.6,0,0,1,3.45-2h.56Z"/>
      <path class="cls-1" d="M614,299.23c.14,2.18,1.5,3.75,3.59,3.75a4.63,4.63,0,0,0,3-1.13l1,1.37a6.44,6.44,0,0,1-4.1,1.44c-3.36,0-5.49-2.52-5.49-6s2.06-6,5.25-6c3,0,4.93,2.52,4.93,6v.6Zm0-1.53h6.11c-.07-1.78-1.06-3.4-2.89-3.4A3.36,3.36,0,0,0,614,297.71Z"/>
      <path class="cls-1" d="M627.39,292.87h2.29v1.67h-2.29v9.88h-1.9v-9.88h-1.92v-1.67h1.92v-2.15c0-2,1.34-2.71,3.17-2.71a10.7,10.7,0,0,1,1.85.16l-.14,1.62c-.44,0-1.27-.09-1.64-.09-1.09,0-1.34.67-1.34,1.39Z"/>
      <path class="cls-1" d="M633.06,299.23c.14,2.18,1.5,3.75,3.59,3.75a4.63,4.63,0,0,0,3-1.13l1,1.37a6.44,6.44,0,0,1-4.1,1.44c-3.36,0-5.49-2.52-5.49-6s2.06-6,5.25-6c3,0,4.93,2.52,4.93,6v.6Zm0-1.53h6.11c-.07-1.78-1.06-3.4-2.89-3.4A3.36,3.36,0,0,0,633.08,297.71Z"/>
      <path class="cls-1" d="M649.86,294.56h-.3c-1.94,0-3.7.79-3.7,3.93v5.93H644V292.87h1.9v1.83a3.6,3.6,0,0,1,3.45-2h.56Z"/>
      <path class="cls-1" d="M653.23,299.23c.14,2.18,1.5,3.75,3.59,3.75a4.63,4.63,0,0,0,3-1.13l1,1.37a6.44,6.44,0,0,1-4.1,1.44c-3.36,0-5.49-2.52-5.49-6s2.06-6,5.25-6c3,0,4.93,2.52,4.93,6v.6Zm0-1.53h6.11c-.07-1.78-1.06-3.4-2.89-3.4A3.36,3.36,0,0,0,653.26,297.71Z"/>
      <path class="cls-1" d="M664.13,292.87H666v1.32a4,4,0,0,1,3.38-1.55,3.68,3.68,0,0,1,3.87,3.93v7.85h-1.9v-7.24c0-2-1-2.8-2.38-2.8a3,3,0,0,0-3,3.19v6.85h-1.9Z"/>
      <path class="cls-1" d="M678,298.7c0,2.31,1.13,4.28,3.36,4.28a3.3,3.3,0,0,0,3-1.94l1.57.9a4.9,4.9,0,0,1-4.56,2.71c-3.19,0-5.32-2.5-5.32-6s2.13-6,5.32-6a4.9,4.9,0,0,1,4.56,2.71l-1.57.9a3.3,3.3,0,0,0-3-1.94c-2.22,0-3.36,2-3.36,4.28Z"/>
      <path class="cls-1" d="M689.65,299.23c.14,2.18,1.5,3.75,3.59,3.75a4.63,4.63,0,0,0,3-1.13l1,1.37a6.44,6.44,0,0,1-4.1,1.44c-3.36,0-5.49-2.52-5.49-6s2.06-6,5.25-6c3,0,4.93,2.52,4.93,6v.6Zm0-1.53h6.11c-.07-1.78-1.06-3.4-2.89-3.4A3.36,3.36,0,0,0,689.68,297.71Z"/>
      <path class="cls-1" d="M706.78,292.87h1.9v1.32a4,4,0,0,1,3.38-1.55,3.68,3.68,0,0,1,3.87,3.93v7.85H714v-7.24c0-2-1-2.8-2.38-2.8a3,3,0,0,0-3,3.19v6.85h-1.9Z"/>
      <path class="cls-1" d="M728.31,304.42h-1.9V303.1a4,4,0,0,1-3.38,1.55,3.68,3.68,0,0,1-3.87-3.93v-7.85h1.9v7.24c0,2,1,2.8,2.38,2.8a2.9,2.9,0,0,0,3-3.19v-6.85h1.9Z"/>
      <path class="cls-1" d="M740.37,304.42h-1.9v-7.27c0-2.06-1-2.78-2.31-2.78s-2.55,1-2.55,3.22v6.83h-1.9V292.87h1.9v1.32a3.55,3.55,0,0,1,3-1.55,3.42,3.42,0,0,1,3.13,1.92,4,4,0,0,1,3.52-1.92,3.72,3.72,0,0,1,3.89,3.87v7.92h-1.9v-7.27c0-2.06-1.11-2.78-2.36-2.78s-2.55,1-2.55,3.22Z"/>
      <path class="cls-1" d="M752.45,304.42h-1.9v-16.2h1.9v6a4,4,0,0,1,3.38-1.55c3,0,4.91,2.52,4.91,6s-1.92,6-4.91,6a4,4,0,0,1-3.38-1.55Zm6.32-5.83c0-2.41-1.16-4.26-3.29-4.26s-3.06,1.46-3.06,3.38v1.87c0,1.92,1,3.38,3.06,3.38s3.29-1.85,3.29-4.26Z"/>
      <path class="cls-1" d="M764.95,299.23c.14,2.18,1.5,3.75,3.59,3.75a4.63,4.63,0,0,0,3-1.13l1,1.37a6.44,6.44,0,0,1-4.1,1.44c-3.36,0-5.49-2.52-5.49-6s2.06-6,5.25-6c3,0,4.93,2.52,4.93,6v.6Zm0-1.53h6.11c-.07-1.78-1.06-3.4-2.89-3.4A3.36,3.36,0,0,0,765,297.71Z"/>
      <path class="cls-1" d="M781.74,294.56h-.3c-1.94,0-3.7.79-3.7,3.93v5.93h-1.9V292.87h1.9v1.83a3.6,3.6,0,0,1,3.45-2h.56Z"/>
      <path class="cls-1" d="M791.23,288.22a1.41,1.41,0,0,1,1.39,1.41,1.4,1.4,0,1,1-2.8,0A1.42,1.42,0,0,1,791.23,288.22Zm.93,16.2h-1.9V292.87h1.9Z"/>
      <path class="cls-1" d="M794.55,303l1.16-1.34a5.47,5.47,0,0,0,3.49,1.41c1.32,0,2.31-.6,2.31-1.74s-1.25-1.53-2.82-1.94-3.59-1-3.59-3.38c0-1.94,1.78-3.36,4.21-3.36a6.24,6.24,0,0,1,4,1.44l-1.11,1.27a4.23,4.23,0,0,0-2.85-1.11c-1.53,0-2.29.67-2.29,1.71,0,.83.65,1.25,1.67,1.53.6.16,1.3.37,1.9.56,1.55.49,2.82,1.3,2.82,3.15,0,2.38-2.11,3.47-4.35,3.47A6.94,6.94,0,0,1,794.55,303Z"/>
      <path class="cls-1" d="M564.51,323.63h-7.13v6.83H554.1v-16.2h3.29v6.41h7.13v-6.41h3.29v16.2h-3.29Z"/>
      <path class="cls-1" d="M576.42,314.26v16.2h-3.36V319.74h-2.94v-3h.65c1.94,0,2.41-.72,2.41-2.31v-.21Z"/>
      <path class="cls-1" d="M586.68,330.46V326.8H578.6v-3.5l7.45-9H590v9.58h2.36v3H590v3.66Zm0-6.62v-6.06l-5,6.06Z"/>
      <path class="cls-1" d="M604.54,314.26v16.2h-3.36V319.74h-2.94v-3h.65c1.94,0,2.41-.72,2.41-2.31v-.21Z"/>
      <path class="cls-1" d="M610.22,325.5a3,3,0,0,0,3.1,2.24c2.06,0,2.78-1,2.78-2.08,0-1.27-.95-2-3.15-2h-1v-2.92h.76c2,0,3.08-.58,3.08-1.9,0-1.16-1-1.87-2.41-1.87a3.06,3.06,0,0,0-3,2.18l-3.08-.95c.65-2.8,3.38-4.19,6.09-4.19,3.33,0,5.83,1.74,5.83,4.63a3.4,3.4,0,0,1-2.66,3.38,3.72,3.72,0,0,1,3,3.73c0,3.29-2.71,4.93-6.23,4.93-3.08,0-5.81-1.44-6.39-4.35Z"/>
      <path class="cls-1" d="M622.38,314.26h10.92v3h-7.64v3.45h7v3h-7v3.87h8.08v3H622.38Z"/>
      <path class="cls-1" d="M643.39,317.36h-8.22v-3.1h11.55v3.15l-6.27,13.05h-3.84Z"/>
      <path class="cls-1" d="M667.62,325.44l2.27-11.18h3.56l-3.61,16.2h-4l-2.45-11.62L661,330.46h-4l-3.61-16.2h3.56l2.2,11.18,2.45-11.18h3.68Z"/>
      <path class="cls-1" d="M683.77,325.23l-4.79-6v11.23h-3.29v-16.2H679l4.79,6.32,4.93-6.32h3.19v16.2h-3.29V319.23l-4.77,6Z"/>
      <path class="cls-1" d="M705.32,324.28v-10h3.24v10.53c0,3.61-2.78,5.93-6.6,5.93s-6.6-2.31-6.6-5.93V314.23h3.24v10a3.36,3.36,0,1,0,6.71,0Z"/>
    </g>
    <g>
      <path class="cls-2" d="M427.44,391.29l1.82-9h2.86l-2.9,13H426L424,386l-1.93,9.33h-3.22l-2.9-13h2.86l1.77,9,2-9h3Z"/>
      <path class="cls-2" d="M433.85,382.32h2.51v4.13a3.3,3.3,0,0,1,2.47-1,3.18,3.18,0,0,1,3.36,3.35v6.56h-2.51v-5.65c0-1.38-.65-1.9-1.52-1.9s-1.8.73-1.8,2.23v5.32h-2.51Z"/>
      <path class="cls-2" d="M447.25,395.51a3.11,3.11,0,0,1-3.36-3,2.81,2.81,0,0,1,2.73-2.84l3-.41v-.32c0-.86-.58-1.25-1.52-1.25a6.54,6.54,0,0,0-2.86.78l-1-1.93a8.22,8.22,0,0,1,3.94-1.08c1.78,0,3.94.48,3.94,3.12v4.16c0,.58.32.78.84,1l-1.13,1.8a2.21,2.21,0,0,1-1.82-1.1A3.36,3.36,0,0,1,447.25,395.51Zm.3-4.11c-.61.09-1,.45-1,1a1.18,1.18,0,0,0,1.32,1.13,1.62,1.62,0,0,0,1.73-1.78v-.67Z"/>
      <path class="cls-2" d="M457.92,392.43c0,.46.2.82,1.08.82a6.21,6.21,0,0,0,1.24-.11l.22,2.21a20.06,20.06,0,0,1-2.3.17c-1.73,0-2.75-.76-2.75-2.47v-5.19h-1.75v-2.25h1.75v-2.75l2.51-.67v3.42h2.55v2.25h-2.55Z"/>
      <path class="cls-2" d="M466.73,382.32h2.51v4.13a3.3,3.3,0,0,1,2.47-1,3.18,3.18,0,0,1,3.36,3.35v6.56h-2.51v-5.65c0-1.38-.65-1.9-1.52-1.9s-1.8.73-1.8,2.23v5.32h-2.51Z"/>
      <path class="cls-2" d="M480.13,395.51a3.11,3.11,0,0,1-3.36-3,2.81,2.81,0,0,1,2.73-2.84l3-.41v-.32c0-.86-.58-1.25-1.52-1.25a6.54,6.54,0,0,0-2.86.78l-1-1.93a8.22,8.22,0,0,1,3.94-1.08c1.78,0,3.94.48,3.94,3.12v4.16c0,.58.32.78.84,1l-1.13,1.8a2.21,2.21,0,0,1-1.82-1.1A3.36,3.36,0,0,1,480.13,395.51Zm.3-4.11c-.61.09-1,.45-1,1a1.18,1.18,0,0,0,1.32,1.13,1.62,1.62,0,0,0,1.73-1.78v-.67Z"/>
      <path class="cls-2" d="M489.81,385.61v.84a3.22,3.22,0,0,1,2.45-1c2.57,0,4.28,2.12,4.28,5v.09c0,2.88-1.77,5-4.33,5a3.09,3.09,0,0,1-2.4-1v3.9h-2.51V385.61Zm-.07,5.76a1.83,1.83,0,0,0,2,1.82c1.43,0,2.21-1.13,2.21-2.68v-.09c0-1.54-.78-2.68-2.21-2.68a1.83,1.83,0,0,0-2,1.82Z"/>
      <path class="cls-2" d="M500.91,385.61v.84a3.22,3.22,0,0,1,2.45-1c2.57,0,4.28,2.12,4.28,5v.09c0,2.88-1.77,5-4.33,5a3.09,3.09,0,0,1-2.4-1v3.9H498.4V385.61Zm-.07,5.76a1.83,1.83,0,0,0,2,1.82c1.43,0,2.21-1.13,2.21-2.68v-.09c0-1.54-.78-2.68-2.21-2.68a1.83,1.83,0,0,0-2,1.82Z"/>
      <path class="cls-2" d="M511.6,391.33a2.29,2.29,0,0,0,2.36,1.9,3.49,3.49,0,0,0,2.45-.91l1.25,1.9a5.81,5.81,0,0,1-3.77,1.3,4.73,4.73,0,0,1-4.89-5v-.11a4.7,4.7,0,0,1,4.7-5,4.45,4.45,0,0,1,4.46,4.78v1.13Zm0-1.9h3.92a1.87,1.87,0,0,0-1.91-1.84A2,2,0,0,0,511.61,389.44Z"/>
      <path class="cls-2" d="M519.94,385.61h2.51v.84a3.3,3.3,0,0,1,2.47-1,3.18,3.18,0,0,1,3.36,3.35v6.56h-2.51v-5.65c0-1.38-.65-1.9-1.52-1.9s-1.8.73-1.8,2.23v5.32h-2.51Z"/>
      <path class="cls-2" d="M531.33,392.2a4.5,4.5,0,0,0,2.84,1.17c.76,0,1.38-.2,1.38-.78s-.37-.65-1.19-.86a16.59,16.59,0,0,1-2.42-.69,2.62,2.62,0,0,1-1.71-2.53c0-2.08,1.84-3.1,4-3.1a5.58,5.58,0,0,1,3.85,1.38l-1.6,1.65a3.34,3.34,0,0,0-2.23-.89c-.69,0-1.37.24-1.37.82s.43.61,1.15.8a13.7,13.7,0,0,1,2.79.89,2.57,2.57,0,0,1,1.36,2.32c0,2.06-1.77,3.12-3.92,3.12a7.15,7.15,0,0,1-4.39-1.47Z"/>
      <path class="cls-2" d="M544.51,385.61H547v.84a3.3,3.3,0,0,1,2.47-1,3.18,3.18,0,0,1,3.36,3.35v6.56h-2.51v-5.65c0-1.38-.65-1.9-1.52-1.9s-1.8.73-1.8,2.23v5.32h-2.51Z"/>
      <path class="cls-2" d="M557.22,391.33a2.29,2.29,0,0,0,2.36,1.9,3.49,3.49,0,0,0,2.45-.91l1.25,1.9a5.81,5.81,0,0,1-3.77,1.3,4.73,4.73,0,0,1-4.89-5v-.11a4.7,4.7,0,0,1,4.7-5,4.45,4.45,0,0,1,4.46,4.78v1.13Zm0-1.9h3.92a1.87,1.87,0,0,0-1.91-1.84A2,2,0,0,0,557.24,389.44Z"/>
      <path class="cls-2" d="M567.63,390.23l-3-4.63h2.9l1.49,2.62,1.56-2.62h2.92l-3,4.65,3.35,5.07h-3l-1.91-3-1.75,3h-2.92Z"/>
      <path class="cls-2" d="M578.75,392.43c0,.46.2.82,1.08.82a6.21,6.21,0,0,0,1.24-.11l.22,2.21a20.06,20.06,0,0,1-2.3.17c-1.73,0-2.75-.76-2.75-2.47v-5.19h-1.75v-2.25h1.75v-2.75l2.51-.67v3.42h2.55v2.25h-2.55Z"/>
      <path class="cls-2" d="M425,424.52,426.8,416h1.29l-2.3,10.3h-1.5l-2.19-8.41-2.18,8.41h-1.52L416.14,416h1.28l1.82,8.52,2.18-8.52h1.37Z"/>
      <path class="cls-2" d="M430.26,423a2.31,2.31,0,0,0,2.28,2.38,2.94,2.94,0,0,0,1.93-.72l.62.87a4.09,4.09,0,0,1-2.6.91c-2.13,0-3.49-1.6-3.49-3.81s1.31-3.83,3.34-3.83,3.13,1.6,3.13,3.81V423Zm0-1h3.88c0-1.13-.68-2.16-1.84-2.16A2.13,2.13,0,0,0,430.28,422Z"/>
      <path class="cls-2" d="M441.15,416h1.21v3.8a2.53,2.53,0,0,1,2.15-1,2.34,2.34,0,0,1,2.46,2.5v5h-1.21v-4.6c0-1.29-.66-1.78-1.52-1.78a1.88,1.88,0,0,0-1.88,2v4.35h-1.21Z"/>
      <path class="cls-2" d="M451.27,426.45a2.3,2.3,0,0,1-2.56-2.22,2.06,2.06,0,0,1,2-2.07l2.59-.35v-.47c0-1.12-.72-1.46-1.63-1.46a4.47,4.47,0,0,0-2.12.57l-.46-1a5.55,5.55,0,0,1,2.69-.68c1.78,0,2.72.79,2.72,2.34v3.43a1,1,0,0,0,.6,1l-.68.87a1.45,1.45,0,0,1-1-.88A2.73,2.73,0,0,1,451.27,426.45Zm0-3.41c-.81.12-1.34.38-1.34,1.13a1.36,1.36,0,0,0,1.5,1.32c.9,0,1.81-.57,1.81-1.43v-1.32Z"/>
      <path class="cls-2" d="M458.31,426.3,456,419h1.37l1.77,6.22,1.75-6.22h1.37l-2.32,7.34Z"/>
      <path class="cls-2" d="M464.52,423a2.31,2.31,0,0,0,2.28,2.38,2.94,2.94,0,0,0,1.93-.72l.62.87a4.09,4.09,0,0,1-2.6.91c-2.13,0-3.49-1.6-3.49-3.81s1.31-3.83,3.34-3.83,3.13,1.6,3.13,3.81V423Zm0-1h3.88c0-1.13-.68-2.16-1.84-2.16A2.13,2.13,0,0,0,464.53,422Z"/>
      <path class="cls-2" d="M474.77,425.39l.74-.85a3.48,3.48,0,0,0,2.22.9c.84,0,1.47-.38,1.47-1.1s-.79-1-1.79-1.24-2.28-.63-2.28-2.15c0-1.24,1.13-2.13,2.68-2.13a4,4,0,0,1,2.55.91l-.71.81a2.69,2.69,0,0,0-1.81-.71c-1,0-1.46.43-1.46,1.09s.41.79,1.06,1l1.21.35c1,.31,1.79.82,1.79,2,0,1.51-1.34,2.21-2.77,2.21A4.41,4.41,0,0,1,474.77,425.39Z"/>
      <path class="cls-2" d="M483.14,423a2.31,2.31,0,0,0,2.28,2.38,2.94,2.94,0,0,0,1.93-.72l.62.87a4.09,4.09,0,0,1-2.6.91c-2.13,0-3.49-1.6-3.49-3.81s1.31-3.83,3.34-3.83,3.13,1.6,3.13,3.81V423Zm0-1H487c0-1.13-.68-2.16-1.84-2.16A2.13,2.13,0,0,0,483.16,422Z"/>
      <path class="cls-2" d="M490.17,419h1.21v.84a2.53,2.53,0,0,1,2.15-1,2.34,2.34,0,0,1,2.46,2.5v5h-1.21v-4.6c0-1.29-.66-1.78-1.52-1.78a1.89,1.89,0,0,0-1.88,2v4.35h-1.21Z"/>
      <path class="cls-2" d="M500.18,424.48c0,.49.09.9.94.9a6.43,6.43,0,0,0,.91-.09l.13,1.06a10.67,10.67,0,0,1-1.31.1c-1.16,0-1.88-.46-1.88-1.71V420h-1.38V419H499v-2.4l1.21-.43V419h2V420h-2Z"/>
      <path class="cls-2" d="M506.58,419h1.37l1.81,6.06,1.72-6.06h1.35l-2.68,8.44a1.76,1.76,0,0,1-1.94,1.29,8.57,8.57,0,0,1-1.31-.12l.18-1.06a5.59,5.59,0,0,0,1,.1.83.83,0,0,0,.93-.74l.07-.34Z"/>
      <path class="cls-2" d="M520.61,422.64c0,2.21-1.35,3.81-3.38,3.81s-3.38-1.6-3.38-3.81,1.35-3.83,3.38-3.83S520.61,420.4,520.61,422.64Zm-1.25,0v-.09c0-1.47-.74-2.72-2.13-2.72s-2.13,1.25-2.13,2.72v.09c0,1.44.74,2.71,2.13,2.71S519.36,424.13,519.36,422.68Z"/>
      <path class="cls-2" d="M528.28,426.3h-1.21v-.84a2.53,2.53,0,0,1-2.15,1,2.34,2.34,0,0,1-2.46-2.5v-5h1.21v4.6c0,1.29.66,1.78,1.51,1.78a1.84,1.84,0,0,0,1.88-2V419h1.21Z"/>
      <path class="cls-2" d="M536.5,426.45a2.3,2.3,0,0,1-2.56-2.22,2.06,2.06,0,0,1,2-2.07l2.59-.35v-.47c0-1.12-.72-1.46-1.63-1.46a4.47,4.47,0,0,0-2.12.57l-.46-1a5.55,5.55,0,0,1,2.69-.68c1.78,0,2.72.79,2.72,2.34v3.43a1,1,0,0,0,.6,1l-.68.87a1.45,1.45,0,0,1-1-.88A2.73,2.73,0,0,1,536.5,426.45Zm0-3.41c-.81.12-1.34.38-1.34,1.13a1.36,1.36,0,0,0,1.5,1.32c.9,0,1.81-.57,1.81-1.43v-1.32Z"/>
      <path class="cls-2" d="M546.7,422.67c0,1.47.72,2.72,2.13,2.72a2.1,2.1,0,0,0,1.9-1.24l1,.57a3.11,3.11,0,0,1-2.9,1.72c-2,0-3.38-1.59-3.38-3.81s1.35-3.83,3.38-3.83a3.11,3.11,0,0,1,2.9,1.72l-1,.57a2.1,2.1,0,0,0-1.9-1.24c-1.41,0-2.13,1.25-2.13,2.72Z"/>
      <path class="cls-2" d="M559.81,422.64c0,2.21-1.35,3.81-3.38,3.81s-3.38-1.6-3.38-3.81,1.35-3.83,3.38-3.83S559.81,420.4,559.81,422.64Zm-1.25,0v-.09c0-1.47-.74-2.72-2.13-2.72s-2.13,1.25-2.13,2.72v.09c0,1.44.74,2.71,2.13,2.71S558.56,424.13,558.56,422.68Z"/>
      <path class="cls-2" d="M561.72,419h1.21v.84a2.53,2.53,0,0,1,2.15-1,2.34,2.34,0,0,1,2.46,2.5v5h-1.21v-4.6c0-1.29-.66-1.78-1.52-1.78a1.89,1.89,0,0,0-1.88,2v4.35h-1.21Z"/>
      <path class="cls-2" d="M571.55,419H573V420h-1.46v6.28h-1.21V420h-1.22V419h1.22v-1.37c0-1.27.85-1.72,2-1.72a6.82,6.82,0,0,1,1.18.1l-.09,1c-.28,0-.81-.06-1-.06-.69,0-.85.43-.85.88Z"/>
      <path class="cls-2" d="M575.29,416a.9.9,0,0,1,.88.9.89.89,0,1,1-1.78,0A.9.9,0,0,1,575.29,416Zm.59,10.3h-1.21V419h1.21Z"/>
      <path class="cls-2" d="M582,420h-.19c-1.24,0-2.35.5-2.35,2.5v3.77h-1.21V419h1.21v1.16a2.29,2.29,0,0,1,2.19-1.29H582Z"/>
      <path class="cls-2" d="M589,426.3h-1.21v-4.62c0-1.31-.66-1.77-1.47-1.77s-1.62.62-1.62,2v4.34h-1.21V419h1.21v.84a2.26,2.26,0,0,1,1.93-1,2.18,2.18,0,0,1,2,1.22,2.51,2.51,0,0,1,2.24-1.22,2.37,2.37,0,0,1,2.47,2.46v5h-1.21v-4.62c0-1.31-.71-1.77-1.5-1.77s-1.62.62-1.62,2Z"/>
      <path class="cls-2" d="M597.68,426.45a2.3,2.3,0,0,1-2.56-2.22,2.06,2.06,0,0,1,2-2.07l2.59-.35v-.47c0-1.12-.72-1.46-1.63-1.46a4.47,4.47,0,0,0-2.12.57l-.46-1a5.55,5.55,0,0,1,2.69-.68c1.78,0,2.72.79,2.72,2.34v3.43a1,1,0,0,0,.6,1l-.68.87a1.45,1.45,0,0,1-1-.88A2.73,2.73,0,0,1,597.68,426.45Zm0-3.41c-.81.12-1.34.38-1.34,1.13a1.36,1.36,0,0,0,1.5,1.32c.9,0,1.81-.57,1.81-1.43v-1.32Z"/>
      <path class="cls-2" d="M605.11,424.48c0,.49.09.9.94.9a6.43,6.43,0,0,0,.91-.09l.13,1.06a10.67,10.67,0,0,1-1.31.1c-1.16,0-1.88-.46-1.88-1.71V420h-1.38V419h1.38v-2.4l1.21-.43V419h2V420h-2Z"/>
      <path class="cls-2" d="M609.41,416a.9.9,0,0,1,.88.9.89.89,0,1,1-1.78,0A.9.9,0,0,1,609.41,416Zm.59,10.3h-1.21V419H610Z"/>
      <path class="cls-2" d="M618.68,422.64c0,2.21-1.35,3.81-3.38,3.81s-3.38-1.6-3.38-3.81,1.35-3.83,3.38-3.83S618.68,420.4,618.68,422.64Zm-1.25,0v-.09c0-1.47-.74-2.72-2.13-2.72s-2.13,1.25-2.13,2.72v.09c0,1.44.74,2.71,2.13,2.71S617.43,424.13,617.43,422.68Z"/>
      <path class="cls-2" d="M620.59,419h1.21v.84a2.53,2.53,0,0,1,2.15-1,2.34,2.34,0,0,1,2.46,2.5v5H625.2v-4.6c0-1.29-.66-1.78-1.52-1.78a1.89,1.89,0,0,0-1.88,2v4.35h-1.21Z"/>
      <path class="cls-2" d="M633.38,423a2.31,2.31,0,0,0,2.28,2.38,2.94,2.94,0,0,0,1.93-.72l.62.87a4.09,4.09,0,0,1-2.6.91c-2.13,0-3.49-1.6-3.49-3.81s1.31-3.83,3.34-3.83,3.13,1.6,3.13,3.81V423Zm0-1h3.88c0-1.13-.68-2.16-1.84-2.16A2.13,2.13,0,0,0,633.39,422Z"/>
      <path class="cls-2" d="M645.91,426.3H644.7v-4.62c0-1.31-.66-1.77-1.47-1.77s-1.62.62-1.62,2v4.34h-1.21V419h1.21v.84a2.26,2.26,0,0,1,1.93-1,2.18,2.18,0,0,1,2,1.22,2.51,2.51,0,0,1,2.24-1.22,2.37,2.37,0,0,1,2.47,2.46v5H649v-4.62c0-1.31-.71-1.77-1.5-1.77s-1.62.62-1.62,2Z"/>
      <path class="cls-2" d="M654.55,426.45a2.3,2.3,0,0,1-2.56-2.22,2.06,2.06,0,0,1,2-2.07l2.59-.35v-.47c0-1.12-.72-1.46-1.63-1.46a4.47,4.47,0,0,0-2.12.57l-.46-1a5.55,5.55,0,0,1,2.69-.68c1.78,0,2.72.79,2.72,2.34v3.43a1,1,0,0,0,.6,1l-.68.87a1.45,1.45,0,0,1-1-.88A2.73,2.73,0,0,1,654.55,426.45Zm0-3.41c-.81.12-1.34.38-1.34,1.13a1.36,1.36,0,0,0,1.5,1.32c.9,0,1.81-.57,1.81-1.43v-1.32Z"/>
      <path class="cls-2" d="M660.7,416a.9.9,0,0,1,.88.9.89.89,0,1,1-1.78,0A.9.9,0,0,1,660.7,416Zm.59,10.3h-1.21V419h1.21Z"/>
      <path class="cls-2" d="M663.6,416h1.21v8.65c0,.49.15.74.71.74.31,0,.56,0,.75,0l.12,1a11.71,11.71,0,0,1-1.22.09c-.87,0-1.56-.38-1.56-1.44Z"/>
      <path class="cls-2" d="M668.5,424.48a1,1,0,1,1-1,1A1,1,0,0,1,668.5,424.48Z"/>
      <path class="cls-2" d="M416.87,450.46h5.2a4.13,4.13,0,0,1,4.37,4.31,4.28,4.28,0,0,1-4.57,4.31h-2.36v4.39h-2.64Zm4.5,2.38h-1.86v3.87h1.86c1.45,0,2.36-.67,2.36-1.9v-.07C423.73,453.51,422.82,452.84,421.37,452.84Z"/>
      <path class="cls-2" d="M430.7,463.66a3.12,3.12,0,0,1-3.36-3,2.81,2.81,0,0,1,2.73-2.84l3-.41V457c0-.86-.58-1.25-1.52-1.25a6.54,6.54,0,0,0-2.86.78l-1-1.93a8.22,8.22,0,0,1,3.94-1.08c1.78,0,3.94.48,3.94,3.12v4.16c0,.58.32.78.84,1l-1.13,1.8a2.21,2.21,0,0,1-1.82-1.1A3.36,3.36,0,0,1,430.7,463.66Zm.3-4.11c-.61.09-1,.45-1,1a1.18,1.18,0,0,0,1.32,1.13A1.62,1.62,0,0,0,433,459.9v-.67Z"/>
      <path class="cls-2" d="M439.84,463.86l.07-.32h-.19l-3-9.79h2.79l1.78,6.73,1.75-6.73h2.75l-3.35,11.15c-.43,1.45-1.56,1.84-3,1.84a16.53,16.53,0,0,1-2.29-.19l.52-2.21a9,9,0,0,0,1.34.11A.74.74,0,0,0,439.84,463.86Z"/>
      <path class="cls-2" d="M455.38,463.47h-2.51v-5.65c0-1.39-.65-1.88-1.47-1.88s-1.71.67-1.71,2.23v5.3h-2.51v-9.72h2.51v.85a3.26,3.26,0,0,1,2.49-1,2.81,2.81,0,0,1,2.51,1.32,3.42,3.42,0,0,1,2.94-1.32,3.25,3.25,0,0,1,3.46,3.27v6.64h-2.53v-5.65c0-1.39-.65-1.88-1.47-1.88s-1.71.67-1.71,2.23Z"/>
      <path class="cls-2" d="M465.45,459.48a2.29,2.29,0,0,0,2.36,1.9,3.49,3.49,0,0,0,2.45-.91l1.25,1.9a5.81,5.81,0,0,1-3.77,1.3,4.73,4.73,0,0,1-4.89-5v-.11a4.7,4.7,0,0,1,4.7-5,4.45,4.45,0,0,1,4.46,4.78v1.13Zm0-1.9h3.92a1.87,1.87,0,0,0-1.91-1.84A2,2,0,0,0,465.47,457.58Z"/>
      <path class="cls-2" d="M473.79,453.75h2.51v.84a3.3,3.3,0,0,1,2.47-1,3.18,3.18,0,0,1,3.36,3.35v6.56h-2.51v-5.65c0-1.38-.65-1.9-1.52-1.9s-1.8.73-1.8,2.23v5.32h-2.51Z"/>
      <path class="cls-2" d="M488,460.57c0,.46.2.82,1.08.82a6.21,6.21,0,0,0,1.24-.11l.22,2.21a20.06,20.06,0,0,1-2.3.17c-1.73,0-2.75-.76-2.75-2.47V456h-1.75v-2.25h1.75V451l2.51-.67v3.42h2.55V456H488Z"/>
      <path class="cls-2" d="M497.58,460.35a4.5,4.5,0,0,0,2.84,1.17c.76,0,1.38-.2,1.38-.78s-.37-.65-1.19-.86a16.59,16.59,0,0,1-2.42-.69,2.62,2.62,0,0,1-1.71-2.53c0-2.08,1.84-3.1,4-3.1a5.58,5.58,0,0,1,3.85,1.38l-1.6,1.65a3.34,3.34,0,0,0-2.23-.89c-.69,0-1.37.24-1.37.82s.43.61,1.15.8a13.7,13.7,0,0,1,2.79.89,2.57,2.57,0,0,1,1.36,2.32c0,2.06-1.77,3.12-3.92,3.12a7.15,7.15,0,0,1-4.39-1.47Z"/>
      <path class="cls-2" d="M514.53,463.47H512v-.84a3.3,3.3,0,0,1-2.47,1,3.18,3.18,0,0,1-3.36-3.35v-6.56h2.51v5.65c0,1.38.65,1.9,1.52,1.9s1.8-.72,1.8-2.23v-5.32h2.51Z"/>
      <path class="cls-2" d="M525.07,463.47h-2.51v-5.65c0-1.39-.65-1.88-1.47-1.88s-1.71.67-1.71,2.23v5.3h-2.51v-9.72h2.51v.85a3.26,3.26,0,0,1,2.49-1,2.81,2.81,0,0,1,2.51,1.32,3.42,3.42,0,0,1,2.94-1.32,3.25,3.25,0,0,1,3.46,3.27v6.64h-2.53v-5.65c0-1.39-.65-1.88-1.47-1.88s-1.71.67-1.71,2.23Z"/>
      <path class="cls-2" d="M541.24,463.47h-2.51v-5.65c0-1.39-.65-1.88-1.47-1.88s-1.71.67-1.71,2.23v5.3H533v-9.72h2.51v.85a3.26,3.26,0,0,1,2.49-1,2.81,2.81,0,0,1,2.51,1.32,3.42,3.42,0,0,1,2.94-1.32,3.25,3.25,0,0,1,3.46,3.27v6.64h-2.53v-5.65c0-1.39-.65-1.88-1.47-1.88s-1.71.67-1.71,2.23Z"/>
      <path class="cls-2" d="M552,463.66a3.11,3.11,0,0,1-3.36-3,2.81,2.81,0,0,1,2.73-2.84l3-.41V457c0-.86-.58-1.25-1.52-1.25a6.54,6.54,0,0,0-2.86.78l-1-1.93a8.22,8.22,0,0,1,3.94-1.08c1.78,0,3.94.48,3.94,3.12v4.16c0,.58.32.78.84,1l-1.13,1.8a2.21,2.21,0,0,1-1.82-1.1A3.36,3.36,0,0,1,552,463.66Zm.3-4.11c-.61.09-1,.45-1,1a1.18,1.18,0,0,0,1.32,1.13,1.62,1.62,0,0,0,1.73-1.78v-.67Z"/>
      <path class="cls-2" d="M564.83,456.19h-.45c-1.43,0-2.7.48-2.7,2.57v4.72h-2.51v-9.72h2.51v1.1a3,3,0,0,1,2.58-1.26h.56Z"/>
      <path class="cls-2" d="M568.51,463.86l.07-.32h-.19l-3-9.79h2.79l1.78,6.73,1.75-6.73h2.75l-3.35,11.15c-.43,1.45-1.56,1.84-3,1.84a16.51,16.51,0,0,1-2.29-.19l.52-2.21a9,9,0,0,0,1.34.11A.74.74,0,0,0,568.51,463.86Z"/>
    </g>
    <g>
      <rect class="cls-2" x="377.49" y="88.45" width="619.63" height="48.58"/>
      <g>
        <polygon class="cls-1" points="576.29 103.2 568.29 112.9 568.29 103.2 563.76 103.2 563.76 125.6 568.29 125.6 568.29 118.79 571.18 115.56 577.1 125.6 582.37 125.6 574.09 112.1 581.87 103.2 576.29 103.2"/>
        <g>
          <path class="cls-1" d="M548.37,121.53a4,4,0,0,1-1.47-.87,4.12,4.12,0,0,1-1-1.49,5.66,5.66,0,0,1-.36-2.12V103.17h-4.48v14.56a8.21,8.21,0,0,0,.68,3.39,7.39,7.39,0,0,0,1.9,2.58,8.63,8.63,0,0,0,2.89,1.64,11.83,11.83,0,0,0,7.31,0,8.56,8.56,0,0,0,2.88-1.64,7.43,7.43,0,0,0,1.89-2.58,8.2,8.2,0,0,0,.68-3.39V103.17h-4.45v13.89a5.69,5.69,0,0,1-.36,2.12,4.14,4.14,0,0,1-1,1.49,4,4,0,0,1-1.47.87,6,6,0,0,1-3.67,0"/>
          <path class="cls-1" d="M532,124.18a2.94,2.94,0,0,0,.62.91,2.8,2.8,0,0,0,.92.61,2.83,2.83,0,0,0,1.1.22,2.78,2.78,0,0,0,1.09-.22,2.83,2.83,0,0,0,.91-.61,3,3,0,0,0,.62-.91,2.74,2.74,0,0,0,.23-1.11,2.63,2.63,0,0,0-.23-1.08,2.88,2.88,0,0,0-.62-.89,3,3,0,0,0-.91-.61,2.67,2.67,0,0,0-1.09-.23,2.72,2.72,0,0,0-1.1.23,3,3,0,0,0-.92.61,2.87,2.87,0,0,0-.62.89,2.64,2.64,0,0,0-.23,1.08,2.75,2.75,0,0,0,.23,1.11"/>
        </g>
        <polygon class="cls-1" points="524.8 125.6 531.13 103.2 526.12 103.2 521.88 120.04 521.72 120.04 517.39 103.2 512.32 103.2 518.65 125.6 524.8 125.6"/>
        <g>
          <path class="cls-1" d="M497.3,121.27a5.3,5.3,0,0,1-1.88-1.54,6.94,6.94,0,0,1-1.15-2.33,10.53,10.53,0,0,1-.39-2.94v-.13a10.56,10.56,0,0,1,.39-2.93,6.93,6.93,0,0,1,1.15-2.34,5.29,5.29,0,0,1,1.88-1.54,6.33,6.33,0,0,1,5.18,0,5.38,5.38,0,0,1,1.88,1.54,6.85,6.85,0,0,1,1.16,2.34,10.51,10.51,0,0,1,.39,2.93v.13a10.48,10.48,0,0,1-.39,2.94,6.86,6.86,0,0,1-1.16,2.33,5.39,5.39,0,0,1-1.88,1.54,6.33,6.33,0,0,1-5.18,0m-1.9-17.49a10,10,0,0,0-3.36,2.45,10.68,10.68,0,0,0-2.11,3.66,14.36,14.36,0,0,0,0,9,10.8,10.8,0,0,0,2.11,3.66A9.81,9.81,0,0,0,495.4,125a11.75,11.75,0,0,0,9,0,9.78,9.78,0,0,0,3.37-2.45,10.8,10.8,0,0,0,2.11-3.66,14.39,14.39,0,0,0,0-9,10.69,10.69,0,0,0-2.11-3.66,9.93,9.93,0,0,0-3.37-2.45,11.68,11.68,0,0,0-9,0"/>
          <path class="cls-1" d="M470.67,114.31a10.52,10.52,0,0,1,.36-2.76,7.11,7.11,0,0,1,1.09-2.35,5.51,5.51,0,0,1,1.88-1.63,5.63,5.63,0,0,1,2.72-.62,6,6,0,0,1,1.81.26A5.13,5.13,0,0,1,481.1,109a7.71,7.71,0,0,1,.84,1.34l4-2.23a8.37,8.37,0,0,0-1.47-2.13,9.08,9.08,0,0,0-2.09-1.64,10.3,10.3,0,0,0-2.61-1,12.08,12.08,0,0,0-3-.37,10.6,10.6,0,0,0-4.43.9,10.12,10.12,0,0,0-3.37,2.45,11,11,0,0,0-2.16,3.66,13.19,13.19,0,0,0-.76,4.51,14.52,14.52,0,0,0,.68,4.52,10.87,10.87,0,0,0,2,3.66,9.19,9.19,0,0,0,3.21,2.45,10.2,10.2,0,0,0,4.36.89,8.65,8.65,0,0,0,2-.22,8,8,0,0,0,1.71-.6,6.54,6.54,0,0,0,1.41-.92,5.52,5.52,0,0,0,1-1.2v2.63h4V113.32H476.2v3.45h5.73V117a5.67,5.67,0,0,1-.24,1.56,4.33,4.33,0,0,1-.84,1.57,4.68,4.68,0,0,1-1.61,1.21,5.81,5.81,0,0,1-2.52.48,5.63,5.63,0,0,1-2.72-.62,5.5,5.5,0,0,1-1.88-1.63,7.12,7.12,0,0,1-1.09-2.34,10.5,10.5,0,0,1-.36-2.77Z"/>
          <path class="cls-1" d="M423.3,107.75a2,2,0,1,0-1.06-2.55,2,2,0,0,0,1.06,2.55"/>
          <path class="cls-1" d="M418.84,110.36a2,2,0,1,0-1.06-2.55,2,2,0,0,0,1.06,2.55"/>
          <path class="cls-1" d="M417.54,115.32a2,2,0,1,0-1.06-2.55,2,2,0,0,0,1.06,2.55"/>
          <path class="cls-1" d="M428.27,109.32a2,2,0,1,0-1.06-2.55,2,2,0,0,0,1.06,2.55"/>
          <path class="cls-1" d="M446.29,107.75a2,2,0,1,1,1.06-2.55,2,2,0,0,1-1.06,2.55"/>
          <path class="cls-1" d="M450.74,110.36a2,2,0,1,1,1.06-2.55,2,2,0,0,1-1.06,2.55"/>
          <path class="cls-1" d="M452,115.32a2,2,0,1,1,1.06-2.55,2,2,0,0,1-1.06,2.55"/>
          <path class="cls-1" d="M441.31,109.32a2,2,0,1,1,1.06-2.55,2,2,0,0,1-1.06,2.55"/>
          <path class="cls-1" d="M435.83,104.24h0l2.49,1.31v-3.67l-2.48.79h0a1.24,1.24,0,0,0-.24-.24h0l1-3.15H433l1,3.15h0a1.27,1.27,0,0,0-.24.24h0l-2.48-.79v3.67l2.49-1.31h0a1.32,1.32,0,0,0,.26.25l-1.43,4.31v0h0a2.32,2.32,0,0,0,1.88,3h0l.29,0,.29,0h0a2.32,2.32,0,0,0,2-2.29,2.35,2.35,0,0,0-.1-.68h0v0l-1.43-4.31a1.34,1.34,0,0,0,.26-.25"/>
          <path class="cls-1" d="M434.79,125.33a94,94,0,0,1,13.17.89c1.13-4.75,2.51-7.48,3.93-9.42l-2.68-1a4.89,4.89,0,0,1,0,2.86,5.42,5.42,0,0,1-1.19-2.44l-1.29,4.32a4,4,0,0,1,2.09-.91c-1.23,2.66-2.77,3.34-3.77,3.16a1.9,1.9,0,0,1-1.59-2.23c.28-1.31,1.62-1.65,2.25-.13,1.2-2.44-.83-3.21-2.14-2.48,2-2,2.24-3.79.62-5.94-2.26,1.73-2.29,3.44-1.27,5.84-1.32-1.51-3.37-.7-2.63,1.74,1-1.47,2.21-.55,2,.85-.17,1.22-1.78,2.2-3.78,2-2.87-.26-3-2.24-3.11-3.88.7-.13,2,.52,3.06,2l.4-4.58a4.46,4.46,0,0,1-3.44,1.5,13.41,13.41,0,0,1,2.22-3.26h-5.71a13.45,13.45,0,0,1,2.22,3.26,4.46,4.46,0,0,1-3.44-1.5l.4,4.58c1.09-1.52,2.36-2.18,3.06-2-.07,1.64-.24,3.62-3.11,3.88-2,.17-3.61-.81-3.78-2-.2-1.4,1.06-2.33,2-.85.74-2.44-1.31-3.25-2.63-1.74,1-2.41,1-4.12-1.27-5.84-1.62,2.15-1.39,3.94.62,5.94-1.31-.72-3.34,0-2.14,2.48.63-1.52,2-1.18,2.25.13a1.9,1.9,0,0,1-1.59,2.23c-1,.19-2.54-.5-3.77-3.16a4,4,0,0,1,2.09.91l-1.3-4.32a5.41,5.41,0,0,1-1.19,2.44,4.89,4.89,0,0,1,0-2.86l-2.67,1c1.42,1.94,2.8,4.66,3.93,9.41a94.18,94.18,0,0,1,13.17-.89"/>
        </g>
      </g>
      <rect class="cls-3" x="376.74" y="458.86" width="623.37" height="4.69"/>
      <g>
        <circle class="cls-1" cx="395.71" cy="73.5" r="6.35"/>
        <circle class="cls-1" cx="413.46" cy="73.5" r="6.35"/>
        <circle class="cls-1" cx="431.21" cy="73.5" r="6.35"/>
      </g>
      <path class="cls-3" d="M376.74,88.45V68.55a10,10,0,0,1,10-10H990.11a10,10,0,0,1,10,10v19.9"/>
      <g>
        <circle class="cls-1" cx="395.71" cy="73.5" r="6.35"/>
        <circle class="cls-1" cx="413.46" cy="73.5" r="6.35"/>
        <circle class="cls-1" cx="431.21" cy="73.5" r="6.35"/>
      </g>
      <polygon class="cls-3" points="379.73 462.14 379.73 87.95 997.13 87.95 997.13 462.14 1000.11 462.14 1000.11 85.46 376.74 85.46 376.74 462.14 379.73 462.14"/>
      <rect class="cls-5" x="38.7" y="337.47" width="181.64" height="25.81"/>
      <rect class="cls-6" x="38.7" y="334.49" width="181.64" height="25.81"/>
      <g>
        <path class="cls-1" d="M64,342.76h4a3.16,3.16,0,0,1,3.34,3.29,3.27,3.27,0,0,1-3.49,3.29h-1.8v3.35H64Zm3.44,1.82H66.05v3h1.42c1.11,0,1.8-.51,1.8-1.45V346C69.28,345.09,68.58,344.58,67.47,344.58Z"/>
        <path class="cls-1" d="M76.87,347.14h-.34c-1.09,0-2.06.37-2.06,2v3.61H72.56v-7.43h1.92v.84a2.3,2.3,0,0,1,2-1h.43Z"/>
        <path class="cls-1" d="M84.87,349a3.65,3.65,0,1,1-7.3,0h0a3.65,3.65,0,1,1,7.3,0Zm-2,0c0-1.21-.6-2.07-1.69-2.07s-1.68.87-1.69,2.07h0c0,1.21.6,2.07,1.69,2.07s1.68-.87,1.69-2.07Z"/>
        <path class="cls-1" d="M85.89,349a3.61,3.61,0,0,1,3.59-3.83,3.34,3.34,0,0,1,3.22,1.92l-1.7.87a1.52,1.52,0,0,0-1.48-1c-1.17,0-1.66,1.06-1.66,2V349c0,1,.5,2,1.66,2a1.52,1.52,0,0,0,1.48-1l1.7.87a3.4,3.4,0,0,1-3.25,1.92A3.59,3.59,0,0,1,85.89,349Z"/>
        <path class="cls-1" d="M95.56,349.65a1.75,1.75,0,0,0,1.8,1.45,2.67,2.67,0,0,0,1.87-.7l1,1.45a4.44,4.44,0,0,1-2.88,1A3.61,3.61,0,0,1,93.57,349V349a3.59,3.59,0,0,1,3.59-3.82,3.4,3.4,0,0,1,3.41,3.65v.87Zm0-1.45h3a1.43,1.43,0,0,0-1.46-1.41A1.49,1.49,0,0,0,95.58,348.2Z"/>
        <path class="cls-1" d="M103.54,349.65a1.75,1.75,0,0,0,1.8,1.45,2.67,2.67,0,0,0,1.87-.7l1,1.45a4.44,4.44,0,0,1-2.88,1,3.61,3.61,0,0,1-3.73-3.81V349a3.59,3.59,0,0,1,3.59-3.82,3.4,3.4,0,0,1,3.41,3.65v.87Zm0-1.45h3a1.43,1.43,0,0,0-1.46-1.41A1.49,1.49,0,0,0,103.56,348.2Z"/>
        <path class="cls-1" d="M109.55,349c0-2.2,1.31-3.82,3.27-3.82a2.46,2.46,0,0,1,1.87.78v-3.15h1.92v9.94h-1.92v-.64a2.36,2.36,0,0,1-1.83.78c-2,0-3.31-1.62-3.31-3.82Zm5.2-.65a1.4,1.4,0,0,0-1.53-1.39c-1.09,0-1.69.87-1.69,2V349c0,1.18.6,2,1.69,2a1.4,1.4,0,0,0,1.53-1.39Z"/>
        <path class="cls-1" d="M124.27,350.49c0,.36.16.62.82.62a4.75,4.75,0,0,0,1-.08l.17,1.69a15.35,15.35,0,0,1-1.76.13c-1.32,0-2.1-.58-2.1-1.89v-4H121v-1.72h1.33v-2.1l1.92-.51v2.61h1.95V347h-1.95Z"/>
        <path class="cls-1" d="M134.48,349a3.65,3.65,0,1,1-7.3,0h0a3.65,3.65,0,1,1,7.3,0Zm-2,0c0-1.21-.6-2.07-1.69-2.07s-1.68.87-1.69,2.07h0c0,1.21.6,2.07,1.69,2.07s1.68-.87,1.69-2.07Z"/>
        <path class="cls-1" d="M141.24,345.28v.64a2.46,2.46,0,0,1,1.87-.78c2,0,3.27,1.62,3.27,3.82V349c0,2.2-1.35,3.82-3.31,3.82a2.36,2.36,0,0,1-1.83-.78v3h-1.92v-9.77Zm-.06,4.4a1.4,1.4,0,0,0,1.53,1.39c1.09,0,1.69-.87,1.69-2V349c0-1.18-.6-2-1.69-2a1.4,1.4,0,0,0-1.53,1.39Z"/>
        <path class="cls-1" d="M149.93,352.85a2.38,2.38,0,0,1-2.57-2.33,2.15,2.15,0,0,1,2.09-2.17l2.26-.31v-.24c0-.65-.44-1-1.16-1a5,5,0,0,0-2.19.6L147.6,346a6.27,6.27,0,0,1,3-.82c1.36,0,3,.37,3,2.39v3.18c0,.44.24.6.64.77l-.87,1.38A1.69,1.69,0,0,1,152,352,2.57,2.57,0,0,1,149.93,352.85Zm.23-3.14c-.47.07-.78.34-.78.77a.9.9,0,0,0,1,.87,1.24,1.24,0,0,0,1.32-1.36v-.51Z"/>
        <path class="cls-1" d="M156.92,353l.06-.24h-.14l-2.29-7.48h2.13l1.36,5.14,1.33-5.14h2.1l-2.56,8.52c-.33,1.11-1.19,1.41-2.31,1.41a12.63,12.63,0,0,1-1.75-.14l.4-1.69a6.89,6.89,0,0,0,1,.08A.56.56,0,0,0,156.92,353Z"/>
        <path class="cls-1" d="M168.79,352.7h-1.92v-4.32c0-1.06-.5-1.43-1.12-1.43s-1.31.51-1.31,1.7v4h-1.92v-7.43h1.92v.65a2.49,2.49,0,0,1,1.9-.8,2.15,2.15,0,0,1,1.92,1,2.62,2.62,0,0,1,2.24-1,2.49,2.49,0,0,1,2.64,2.5v5.07h-1.93v-4.32c0-1.06-.5-1.43-1.12-1.43s-1.31.51-1.31,1.7Z"/>
        <path class="cls-1" d="M176.49,349.65a1.75,1.75,0,0,0,1.8,1.45,2.67,2.67,0,0,0,1.87-.7l1,1.45a4.44,4.44,0,0,1-2.88,1A3.61,3.61,0,0,1,174.5,349V349a3.59,3.59,0,0,1,3.59-3.82,3.4,3.4,0,0,1,3.41,3.65v.87Zm0-1.45h3A1.43,1.43,0,0,0,178,346.8,1.49,1.49,0,0,0,176.5,348.2Z"/>
        <path class="cls-1" d="M182.86,345.28h1.92v.64a2.52,2.52,0,0,1,1.89-.78,2.43,2.43,0,0,1,2.57,2.56v5h-1.92v-4.32c0-1.05-.5-1.45-1.16-1.45s-1.38.55-1.38,1.7v4.06h-1.92Z"/>
        <path class="cls-1" d="M193.71,350.49c0,.36.16.62.82.62a4.75,4.75,0,0,0,1-.08l.17,1.69a15.35,15.35,0,0,1-1.76.13c-1.32,0-2.1-.58-2.1-1.89v-4h-1.33v-1.72h1.33v-2.1l1.92-.51v2.61h1.95V347h-1.95Z"/>
      </g>
      <line class="cls-7" x1="42.51" y1="256.06" x2="42.51" y2="310.35"/>
      <g>
        <path class="cls-2" d="M70.11,279a3.69,3.69,0,0,0-3.23-1.67c-2,0-3.44,1.56-3.44,4v3h4.39v2H63.44v6.16h8.42v2H59.75v-2h1.4v-6.16h-1.4v-2h1.4v-2.91c0-3.77,2.26-6,5.7-6A5.89,5.89,0,0,1,72,277.7Z"/>
        <path class="cls-2" d="M77.59,289.62a4.26,4.26,0,0,0,4.36,3.07c2.74,0,4-1.59,4-3.5,0-2.1-1.56-3.28-4.41-3.28h-.83v-2h.46c2.45,0,4.47-.86,4.47-3.25,0-2.21-1.72-3.26-3.66-3.26a4.33,4.33,0,0,0-4.14,2.85l-2.13-.81A6.32,6.32,0,0,1,82,275.36c3.28,0,6,2.1,6,5a4.23,4.23,0,0,1-3.5,4.33,4.42,4.42,0,0,1,3.85,4.57c0,3.66-3.07,5.41-6.51,5.41-3,0-5.57-1.4-6.62-4.36Z"/>
        <path class="cls-2" d="M94.84,275.79v-.19H97.1v18.83H94.76V280.66H91.29v-2h.35C94.11,278.64,94.84,277.78,94.84,275.79Z"/>
        <path class="cls-2" d="M103.47,291.1a1.8,1.8,0,1,1-1.8,1.8A1.8,1.8,0,0,1,103.47,291.1Z"/>
        <path class="cls-2" d="M122.25,285c0,4.87-1.77,9.66-6.83,9.66s-6.83-4.79-6.83-9.66,1.78-9.68,6.83-9.68S122.25,280.15,122.25,285Zm-2.45.54v-1.1c0-4.52-1.75-7.1-4.38-7.1S111,280,111,284.48v1.1c0,4.52,1.75,7.1,4.39,7.1S119.8,290.1,119.8,285.58Z"/>
        <path class="cls-2" d="M139.42,285c0,4.87-1.77,9.66-6.83,9.66s-6.83-4.79-6.83-9.66,1.78-9.68,6.83-9.68S139.42,280.15,139.42,285Zm-2.45.54v-1.1c0-4.52-1.75-7.1-4.38-7.1s-4.39,2.58-4.39,7.1v1.1c0,4.52,1.75,7.1,4.39,7.1S137,290.1,137,285.58Z"/>
      </g>
      <g>
        <path class="cls-2" d="M40.15,230.47h5a4,4,0,0,1,4.22,4.16A4.13,4.13,0,0,1,45,238.79H42.7V243H40.15Zm4.34,2.3H42.7v3.73H44.5c1.4,0,2.28-.65,2.28-1.83v-.07C46.77,233.41,45.89,232.76,44.5,232.76Z"/>
        <path class="cls-2" d="M53.5,243.2a3,3,0,0,1-3.25-2.94,2.71,2.71,0,0,1,2.64-2.74l2.85-.39v-.3c0-.83-.56-1.2-1.47-1.2a6.32,6.32,0,0,0-2.76.75l-1-1.87a7.93,7.93,0,0,1,3.8-1c1.72,0,3.8.47,3.8,3v4c0,.56.3.75.81,1l-1.09,1.74a2.13,2.13,0,0,1-1.76-1.06A3.24,3.24,0,0,1,53.5,243.2Zm.29-4c-.59.09-1,.43-1,1a1.14,1.14,0,0,0,1.27,1.09,1.57,1.57,0,0,0,1.67-1.72v-.65Z"/>
        <path class="cls-2" d="M62.32,243.4l.07-.3h-.18l-2.89-9.45H62l1.72,6.49,1.69-6.49h2.65l-3.23,10.76c-.41,1.4-1.51,1.78-2.92,1.78a15.91,15.91,0,0,1-2.21-.18l.5-2.13a8.71,8.71,0,0,0,1.29.11A.71.71,0,0,0,62.32,243.4Z"/>
        <path class="cls-2" d="M77.32,243H74.9v-5.45c0-1.35-.63-1.81-1.42-1.81s-1.65.65-1.65,2.15V243H69.41v-9.38h2.42v.83a3.14,3.14,0,0,1,2.4-1,2.71,2.71,0,0,1,2.42,1.27,3.31,3.31,0,0,1,2.83-1.27,3.14,3.14,0,0,1,3.34,3.16V243H80.39v-5.45c0-1.35-.63-1.81-1.42-1.81s-1.65.65-1.65,2.15Z"/>
        <path class="cls-2" d="M87,239.17A2.21,2.21,0,0,0,89.32,241a3.37,3.37,0,0,0,2.37-.88l1.2,1.83a5.61,5.61,0,0,1-3.64,1.26,4.56,4.56,0,0,1-4.72-4.81v-.11a4.54,4.54,0,0,1,4.54-4.83,4.3,4.3,0,0,1,4.31,4.61v1.09Zm0-1.83h3.78A1.8,1.8,0,0,0,89,235.56,1.88,1.88,0,0,0,87.06,237.34Z"/>
        <path class="cls-2" d="M95.09,233.64h2.42v.81a3.18,3.18,0,0,1,2.39-1,3.07,3.07,0,0,1,3.25,3.23V243h-2.42v-5.45c0-1.33-.63-1.83-1.47-1.83s-1.74.7-1.74,2.15V243H95.09Z"/>
        <path class="cls-2" d="M108.8,240.23c0,.45.2.79,1,.79a6,6,0,0,0,1.2-.11l.21,2.13a19.36,19.36,0,0,1-2.22.16c-1.67,0-2.65-.74-2.65-2.39v-5h-1.69v-2.17h1.69V231l2.42-.65v3.3h2.46v2.17H108.8Z"/>
        <path class="cls-2" d="M120,243.2a3,3,0,0,1-3.25-2.94,2.71,2.71,0,0,1,2.64-2.74l2.85-.39v-.3c0-.83-.56-1.2-1.47-1.2a6.32,6.32,0,0,0-2.76.75l-1-1.87a7.93,7.93,0,0,1,3.8-1c1.72,0,3.8.47,3.8,3v4c0,.56.3.75.81,1l-1.09,1.74a2.13,2.13,0,0,1-1.76-1.06A3.24,3.24,0,0,1,120,243.2Zm.29-4c-.59.09-1,.43-1,1a1.14,1.14,0,0,0,1.27,1.09,1.57,1.57,0,0,0,1.67-1.72v-.65Z"/>
        <path class="cls-2" d="M134.82,243H132.4v-5.45c0-1.35-.63-1.81-1.42-1.81s-1.65.65-1.65,2.15V243h-2.42v-9.38h2.42v.83a3.14,3.14,0,0,1,2.4-1,2.71,2.71,0,0,1,2.42,1.27,3.31,3.31,0,0,1,2.83-1.27,3.14,3.14,0,0,1,3.34,3.16V243h-2.44v-5.45c0-1.35-.63-1.81-1.42-1.81s-1.65.65-1.65,2.15Z"/>
        <path class="cls-2" d="M151.25,238.34a4.62,4.62,0,1,1-9.22,0v0a4.62,4.62,0,1,1,9.22,0Zm-2.48,0c0-1.52-.75-2.62-2.13-2.62s-2.12,1.09-2.13,2.62v0c0,1.53.75,2.62,2.13,2.62s2.12-1.09,2.13-2.62Z"/>
        <path class="cls-2" d="M161,243h-2.42v-.81a3.18,3.18,0,0,1-2.39,1A3.07,3.07,0,0,1,153,240v-6.33h2.42v5.45c0,1.33.63,1.83,1.47,1.83s1.74-.7,1.74-2.15v-5.13H161Z"/>
        <path class="cls-2" d="M163.27,233.64h2.42v.81a3.18,3.18,0,0,1,2.39-1,3.07,3.07,0,0,1,3.25,3.23V243H168.9v-5.45c0-1.33-.63-1.83-1.47-1.83s-1.74.7-1.74,2.15V243h-2.42Z"/>
        <path class="cls-2" d="M177,240.23c0,.45.2.79,1,.79a6,6,0,0,0,1.2-.11l.21,2.13a19.36,19.36,0,0,1-2.22.16c-1.67,0-2.65-.74-2.65-2.39v-5h-1.69v-2.17h1.69V231l2.42-.65v3.3h2.46v2.17H177Z"/>
      </g>
      <g>
        <path class="cls-2" d="M40.85,108.46h7.53a6,6,0,0,1,6.32,6.24c0,3.58-2.69,6.24-6.62,6.24H44.67v6.35H40.85Zm6.51,3.44H44.67v5.6h2.69c2.1,0,3.42-1,3.42-2.74v-.11C50.78,112.87,49.46,111.91,47.36,111.91Z"/>
        <path class="cls-2" d="M60.87,127.56c-2.56,0-4.87-1.61-4.87-4.41,0-2.26,1.48-3.77,4-4.12l4.28-.59V118c0-1.24-.83-1.8-2.21-1.8a9.47,9.47,0,0,0-4.14,1.13l-1.43-2.8a11.89,11.89,0,0,1,5.7-1.56c2.58,0,5.7.7,5.7,4.52v6c0,.83.46,1.13,1.21,1.45l-1.64,2.61A3.2,3.2,0,0,1,64.8,126,4.86,4.86,0,0,1,60.87,127.56Zm.43-5.94c-.89.13-1.48.65-1.48,1.45a1.71,1.71,0,0,0,1.91,1.64,2.35,2.35,0,0,0,2.5-2.58v-1Z"/>
        <path class="cls-2" d="M74.11,127.86l.11-.46h-.27l-4.33-14.18h4L76.23,123l2.53-9.74h4L77.9,129.36c-.62,2.1-2.26,2.66-4.39,2.66a23.76,23.76,0,0,1-3.31-.27l.75-3.2a13,13,0,0,0,1.94.16A1.07,1.07,0,0,0,74.11,127.86Z"/>
        <path class="cls-2" d="M95.53,113.22h2.69v3.25H95.53v10.81H91.89V116.48H89.66v-3.25h2.23v-1.45c0-2.45,1.75-3.58,4.25-3.58a24.59,24.59,0,0,1,2.88.19l-.3,3.09a12.52,12.52,0,0,0-1.77-.13c-1,0-1.43.43-1.43,1Z"/>
        <path class="cls-2" d="M113.44,120.27c0,4.17-2.77,7.29-6.91,7.29s-6.91-3.15-6.91-7.29v0c0-4.14,2.74-7.29,6.91-7.29s6.91,3.15,6.91,7.29Zm-3.71,0c0-2.29-1.13-3.93-3.2-3.93s-3.17,1.64-3.2,3.93v0c0,2.29,1.13,3.93,3.2,3.93s3.17-1.64,3.2-3.93Z"/>
        <path class="cls-2" d="M124.29,116.75h-.65c-2.07,0-3.9.7-3.9,3.71v6.83h-3.63V113.22h3.63v1.59a4.36,4.36,0,0,1,3.74-1.83h.81Z"/>
        <path class="cls-2" d="M135.53,121.51a3.31,3.31,0,0,0,3.42,2.74,5.05,5.05,0,0,0,3.55-1.32l1.8,2.74a8.42,8.42,0,0,1-5.46,1.88,6.84,6.84,0,0,1-7.07-7.21v-.16c0-4.14,2.82-7.24,6.81-7.24,3.71,0,6.46,2.82,6.46,6.91v1.64Zm0-2.74h5.68a2.71,2.71,0,0,0-2.77-2.66A2.81,2.81,0,0,0,135.56,118.77Z"/>
        <path class="cls-2" d="M150.6,119.92l-4.28-6.7h4.2l2.15,3.79,2.26-3.79h4.22l-4.36,6.72,4.84,7.34h-4.28l-2.77-4.3-2.53,4.3h-4.22Z"/>
        <path class="cls-2" d="M165.34,127.56c-2.56,0-4.87-1.61-4.87-4.41,0-2.26,1.48-3.77,4-4.12l4.28-.59V118c0-1.24-.83-1.8-2.21-1.8a9.47,9.47,0,0,0-4.14,1.13l-1.43-2.8a11.89,11.89,0,0,1,5.7-1.56c2.58,0,5.7.7,5.7,4.52v6c0,.83.46,1.13,1.21,1.45l-1.64,2.61a3.2,3.2,0,0,1-2.64-1.59A4.86,4.86,0,0,1,165.34,127.56Zm.43-5.94c-.89.13-1.48.65-1.48,1.45a1.71,1.71,0,0,0,1.91,1.64,2.35,2.35,0,0,0,2.5-2.58v-1Z"/>
        <path class="cls-2" d="M187.59,127.29H184v-8.18c0-2-.94-2.72-2.13-2.72-1.4,0-2.47,1-2.47,3.23v7.67h-3.63V113.22h3.63v1.24A4.71,4.71,0,0,1,183,113a4.07,4.07,0,0,1,3.63,1.91,5,5,0,0,1,4.25-1.91,4.71,4.71,0,0,1,5,4.73v9.6h-3.66v-8.18c0-2-.94-2.72-2.13-2.72-1.4,0-2.47,1-2.47,3.23Z"/>
        <path class="cls-2" d="M202.77,113.22v1.21a4.65,4.65,0,0,1,3.55-1.48c3.71,0,6.19,3.07,6.19,7.24v.13c0,4.17-2.56,7.24-6.27,7.24a4.47,4.47,0,0,1-3.47-1.48v5.65h-3.63V113.22Zm-.11,8.34a2.65,2.65,0,0,0,2.91,2.64c2.07,0,3.2-1.64,3.2-3.87v-.13c0-2.23-1.13-3.87-3.2-3.87a2.65,2.65,0,0,0-2.91,2.64Z"/>
        <path class="cls-2" d="M215.15,108.46h3.63v15c0,.59.32.91,1.08.91a7.2,7.2,0,0,0,1.37-.13l.3,3.09a29.89,29.89,0,0,1-3.07.22c-2,0-3.31-1.08-3.31-3.09Z"/>
        <path class="cls-2" d="M226.26,121.51a3.31,3.31,0,0,0,3.42,2.74,5.05,5.05,0,0,0,3.55-1.32l1.8,2.74a8.42,8.42,0,0,1-5.46,1.88,6.84,6.84,0,0,1-7.07-7.21v-.16c0-4.14,2.82-7.24,6.81-7.24,3.71,0,6.46,2.82,6.46,6.91v1.64Zm0-2.74H232a2.71,2.71,0,0,0-2.77-2.66A2.81,2.81,0,0,0,226.28,118.77Z"/>
        <path class="cls-2" d="M245.63,122.77a6.52,6.52,0,0,0,4.11,1.69c1.1,0,2-.3,2-1.13,0-.67-.54-.94-1.72-1.24a24.13,24.13,0,0,1-3.5-1,3.78,3.78,0,0,1-2.47-3.66c0-3,2.66-4.49,5.78-4.49a8.08,8.08,0,0,1,5.57,2l-2.31,2.39a4.84,4.84,0,0,0-3.23-1.29c-1,0-2,.35-2,1.18,0,.65.62.89,1.67,1.16a19.81,19.81,0,0,1,4,1.29,3.72,3.72,0,0,1,2,3.36c0,3-2.56,4.52-5.68,4.52a10.34,10.34,0,0,1-6.35-2.13Z"/>
        <path class="cls-2" d="M261.24,121.51a3.31,3.31,0,0,0,3.42,2.74,5.05,5.05,0,0,0,3.55-1.32l1.8,2.74a8.42,8.42,0,0,1-5.46,1.88,6.84,6.84,0,0,1-7.07-7.21v-.16c0-4.14,2.82-7.24,6.81-7.24,3.71,0,6.46,2.82,6.46,6.91v1.64Zm0-2.74h5.68a2.71,2.71,0,0,0-2.77-2.66A2.81,2.81,0,0,0,261.26,118.77Z"/>
        <path class="cls-2" d="M281.49,116.75h-.65c-2.07,0-3.9.7-3.9,3.71v6.83h-3.63V113.22h3.63v1.59a4.36,4.36,0,0,1,3.74-1.83h.81Z"/>
        <path class="cls-2" d="M286.74,127.29l-4.3-14.07h4l2.53,9.68,2.58-9.68h4l-4.28,14.07Z"/>
        <path class="cls-2" d="M299.44,107.79a2.29,2.29,0,1,1-2.29,2.29A2.28,2.28,0,0,1,299.44,107.79Zm1.83,19.5h-3.63V113.22h3.63Z"/>
        <path class="cls-2" d="M303.94,120.22c0-4.14,2.85-7.26,6.81-7.26a6.33,6.33,0,0,1,6.11,3.63l-3.23,1.64a2.87,2.87,0,0,0-2.8-1.91c-2.21,0-3.15,2-3.15,3.87v.16c0,1.83.94,3.85,3.15,3.85a2.87,2.87,0,0,0,2.8-1.91l3.23,1.64a6.44,6.44,0,0,1-6.16,3.63c-4,0-6.75-3.12-6.75-7.26Z"/>
        <path class="cls-2" d="M322.26,121.51a3.31,3.31,0,0,0,3.42,2.74,5.05,5.05,0,0,0,3.55-1.32l1.8,2.74a8.42,8.42,0,0,1-5.46,1.88,6.84,6.84,0,0,1-7.07-7.21v-.16c0-4.14,2.82-7.24,6.81-7.24,3.71,0,6.46,2.82,6.46,6.91v1.64Zm0-2.74H328a2.71,2.71,0,0,0-2.77-2.66A2.81,2.81,0,0,0,322.28,118.77Z"/>
      </g>
    </g>
  </g>
</svg>
