<svg xmlns="http://www.w3.org/2000/svg" viewBox="0 0 1000.58 463.63"><defs><style>.cls-1{fill:#fff}.cls-2{fill:#0b0b0b}.cls-3{fill:#dadada}</style></defs><g id="Layer_2" data-name="Layer 2"><path class="cls-1" d="M.05 29.9H620.9V388H.05z"/><path class="cls-2" d="M46.24 160.62v-6.4h1.19v6.52a3.67 3.67 0 01-7.34 0v-6.52h1.21v6.4a2.48 2.48 0 104.94 0zM49.11 163.27l.71-.82a3.36 3.36 0 002.14.87c.81 0 1.42-.37 1.42-1.07s-.77-.94-1.73-1.19-2.2-.61-2.2-2.07c0-1.19 1.09-2.06 2.58-2.06a3.82 3.82 0 012.46.88l-.68.78a2.59 2.59 0 00-1.75-.68c-.94 0-1.41.41-1.41 1.05s.4.77 1 .94l1.16.34c1 .3 1.73.8 1.73 1.93 0 1.46-1.29 2.13-2.67 2.13a4.26 4.26 0 01-2.76-1.03zM57.14 161a2.23 2.23 0 002.2 2.3 2.84 2.84 0 001.86-.7l.6.84a4 4 0 01-2.51.88 3.35 3.35 0 01-3.37-3.68c0-2.16 1.26-3.69 3.22-3.69s3 1.55 3 3.68v.37zm0-.94h3.76c0-1.09-.65-2.09-1.77-2.09a2.06 2.06 0 00-1.98 2.03zM69.48 162.39c0 .47.09.87.91.87a6.12 6.12 0 00.88-.09l.13 1a10.36 10.36 0 01-1.26.1c-1.12 0-1.82-.44-1.82-1.65v-4.56H67v-1h1.33v-2.31l1.16-.41v2.73h2v1h-2zM72.94 154.21h1.16v3.66a2.44 2.44 0 012.07-1 2.26 2.26 0 012.37 2.41v4.81h-1.16v-4.44c0-1.25-.64-1.72-1.46-1.72a1.81 1.81 0 00-1.82 2v4.2h-1.16zM81.28 154.21a.87.87 0 01.85.87.86.86 0 11-1.72 0 .87.87 0 01.87-.87zm.57 9.94h-1.17v-7.09h1.16zM83.41 163.27l.71-.82a3.36 3.36 0 002.14.87c.81 0 1.42-.37 1.42-1.07s-.77-.94-1.73-1.19-2.2-.61-2.2-2.07c0-1.19 1.09-2.06 2.58-2.06a3.82 3.82 0 012.46.88l-.68.78a2.59 2.59 0 00-1.75-.68c-.94 0-1.41.41-1.41 1.05s.4.77 1 .94l1.16.34c1 .3 1.73.8 1.73 1.93 0 1.46-1.29 2.13-2.67 2.13a4.26 4.26 0 01-2.76-1.03zM100.52 160.62c0 2.13-1.31 3.68-3.27 3.68S94 162.75 94 160.62s1.31-3.69 3.27-3.69 3.25 1.53 3.25 3.69zm-1.21 0v-.09c0-1.42-.71-2.63-2.06-2.63s-2.06 1.21-2.06 2.63v.09c0 1.39.71 2.61 2.06 2.61s2.06-1.18 2.06-2.57zM103.5 157.07v.81a2.48 2.48 0 012.07-1c1.83 0 3 1.55 3 3.69s-1.18 3.68-3 3.68a2.48 2.48 0 01-2.07-1v3h-1.16v-9.24zm3.88 3.51c0-1.48-.71-2.61-2-2.61a1.85 1.85 0 00-1.87 2.07v1.15a1.85 1.85 0 001.87 2.07c1.31 0 2-1.14 2-2.61zM112.07 162.39c0 .47.09.87.91.87a6.12 6.12 0 00.88-.09l.13 1a10.36 10.36 0 01-1.26.1c-1.12 0-1.82-.44-1.82-1.65v-4.56h-1.33v-1h1.33v-2.31l1.16-.41v2.73h2v1h-2zM116.12 154.21a.87.87 0 01.85.87.86.86 0 11-1.72 0 .87.87 0 01.87-.87zm.57 9.94h-1.16v-7.09h1.16zM125 160.62c0 2.13-1.31 3.68-3.27 3.68s-3.27-1.55-3.27-3.68 1.31-3.69 3.27-3.69 3.27 1.53 3.27 3.69zm-1.21 0v-.09c0-1.42-.71-2.63-2.06-2.63s-2.06 1.21-2.06 2.63v.09c0 1.39.71 2.61 2.06 2.61s2.04-1.18 2.04-2.57zM126.79 157.07H128v.81a2.44 2.44 0 012.07-1 2.26 2.26 0 012.37 2.41v4.81h-1.16v-4.44c0-1.25-.64-1.72-1.46-1.72a1.82 1.82 0 00-1.82 2v4.2h-1.16zM136.48 164.3a2.22 2.22 0 01-2.47-2.14 2 2 0 011.89-2l2.5-.34v-.45c0-1.08-.7-1.41-1.58-1.41a4.31 4.31 0 00-2 .55l-.44-.92a5.35 5.35 0 012.6-.65c1.72 0 2.63.77 2.63 2.26v3.31a1 1 0 00.58 1l-.65.84a1.4 1.4 0 01-1-.85 2.63 2.63 0 01-2.06.8zm0-3.29c-.78.11-1.29.37-1.29 1.09a1.31 1.31 0 001.45 1.28c.87 0 1.75-.55 1.75-1.38v-1.28zM141.73 154.21h1.16v8.35c0 .47.14.71.68.71h.73l.11 1a11.29 11.29 0 01-1.18.09c-.84 0-1.5-.37-1.5-1.39zM150.55 157.07v.81a2.48 2.48 0 012.07-1c1.83 0 3 1.55 3 3.69s-1.18 3.68-3 3.68a2.48 2.48 0 01-2.07-1v3h-1.16v-9.24zm3.88 3.51c0-1.48-.71-2.61-2-2.61a1.85 1.85 0 00-1.87 2.07v1.15a1.85 1.85 0 001.87 2.07c1.31 0 2-1.14 2-2.61zM159.42 164.3a2.22 2.22 0 01-2.47-2.14 2 2 0 011.89-2l2.5-.34v-.45c0-1.08-.7-1.41-1.58-1.41a4.31 4.31 0 00-2 .55l-.44-.92a5.35 5.35 0 012.6-.65c1.72 0 2.63.77 2.63 2.26v3.31a1 1 0 00.58 1l-.65.84a1.4 1.4 0 01-1-.85 2.63 2.63 0 01-2.06.8zm0-3.29c-.78.11-1.29.37-1.29 1.09a1.31 1.31 0 001.45 1.28c.87 0 1.75-.55 1.75-1.38v-1.28zM168.34 158.11h-.18c-1.19 0-2.27.48-2.27 2.41v3.64h-1.16v-7.09h1.16v1.12a2.21 2.21 0 012.12-1.25h.34zM171.84 164.3a2.22 2.22 0 01-2.47-2.14 2 2 0 011.89-2l2.5-.34v-.45c0-1.08-.7-1.41-1.58-1.41a4.31 4.31 0 00-2 .55l-.44-.92a5.35 5.35 0 012.6-.65c1.72 0 2.63.77 2.63 2.26v3.31a1 1 0 00.58 1l-.65.84a1.4 1.4 0 01-1-.85 2.63 2.63 0 01-2.06.8zm0-3.29c-.78.11-1.29.37-1.29 1.09a1.31 1.31 0 001.45 1.28c.87 0 1.75-.55 1.75-1.38v-1.28zM179.5 156.93a2.4 2.4 0 012 1v-.81h1.17v7.14c0 1.76-1.55 2.27-3 2.27a6.14 6.14 0 01-2.63-.57l.4-1a5.76 5.76 0 002.26.5c1.19 0 1.85-.44 1.85-1.53v-1.35a2.4 2.4 0 01-2 1c-1.76 0-2.87-1.43-2.87-3.29s1.06-3.36 2.82-3.36zm2 3.27c0-1.26-.54-2.23-1.82-2.23s-1.87 1-1.87 2.23v.06c0 1.24.58 2.23 1.87 2.23s1.82-1 1.82-2.23zM188.47 158.11h-.18c-1.19 0-2.27.48-2.27 2.41v3.64h-1.16v-7.09H186v1.12a2.21 2.21 0 012.12-1.25h.34zM192 164.3a2.22 2.22 0 01-2.47-2.14 2 2 0 011.89-2l2.5-.34v-.45c0-1.08-.7-1.41-1.58-1.41a4.31 4.31 0 00-2 .55l-.44-.92a5.35 5.35 0 012.6-.65c1.72 0 2.63.77 2.63 2.26v3.31a1 1 0 00.58 1l-.65.84a1.4 1.4 0 01-1-.85 2.63 2.63 0 01-2.06.8zm0-3.29c-.78.11-1.29.37-1.29 1.09a1.31 1.31 0 001.45 1.28c.87 0 1.75-.55 1.75-1.38v-1.28zM198.43 157.07v.81a2.48 2.48 0 012.07-1c1.83 0 3 1.55 3 3.69s-1.18 3.68-3 3.68a2.48 2.48 0 01-2.07-1v3h-1.16v-9.24zm3.88 3.51c0-1.48-.71-2.61-2-2.61a1.85 1.85 0 00-1.87 2.07v1.15a1.85 1.85 0 001.87 2.07c1.31 0 2-1.14 2-2.61zM205.33 154.21h1.16v3.66a2.44 2.44 0 012.07-1 2.26 2.26 0 012.37 2.41v4.81h-1.16v-4.44c0-1.25-.64-1.72-1.46-1.72a1.81 1.81 0 00-1.82 2v4.2h-1.16zM218.7 162.39c0 .47.09.87.91.87a6.14 6.14 0 00.88-.09l.13 1a10.36 10.36 0 01-1.26.1c-1.12 0-1.82-.44-1.82-1.65v-4.56h-1.34v-1h1.33v-2.31l1.16-.41v2.73h2v1h-2zM228.13 160.62c0 2.13-1.31 3.68-3.27 3.68s-3.27-1.55-3.27-3.68 1.31-3.69 3.27-3.69 3.27 1.53 3.27 3.69zm-1.21 0v-.09c0-1.42-.71-2.63-2.06-2.63s-2.06 1.21-2.06 2.63v.09c0 1.39.71 2.61 2.06 2.61s2.07-1.18 2.07-2.57zM236.17 156.93a2.4 2.4 0 012 1v-.81h1.17v7.14c0 1.76-1.55 2.27-3 2.27a6.14 6.14 0 01-2.63-.57l.4-1a5.76 5.76 0 002.26.5c1.19 0 1.85-.44 1.85-1.53v-1.35a2.4 2.4 0 01-2 1c-1.76 0-2.87-1.43-2.87-3.29s1.06-3.36 2.82-3.36zm2 3.27c0-1.26-.54-2.23-1.82-2.23s-1.87 1-1.87 2.23v.06c0 1.24.58 2.23 1.87 2.23s1.82-1 1.82-2.23zM242.13 154.21a.87.87 0 01.85.87.86.86 0 11-1.72 0 .87.87 0 01.87-.87zm.57 9.94h-1.16v-7.09h1.16zM246.41 164.16l-2.24-7.09h1.32l1.7 6 1.69-6h1.32l-2.2 7.09zM252.29 161a2.23 2.23 0 002.2 2.3 2.84 2.84 0 001.86-.7l.6.84a4 4 0 01-2.51.88 3.35 3.35 0 01-3.37-3.68c0-2.16 1.26-3.69 3.22-3.69s3 1.55 3 3.68v.37zm0-.94h3.75c0-1.09-.65-2.09-1.77-2.09a2.06 2.06 0 00-1.96 2.03zM262 157.07h1.32l1.75 5.85 1.66-5.85h1.31l-2.58 8.15a1.7 1.7 0 01-1.88 1.25 8.32 8.32 0 01-1.26-.11l.17-1a5.39 5.39 0 00.94.1.8.8 0 00.89-.71l.07-.33zM275.44 160.62c0 2.13-1.31 3.68-3.27 3.68s-3.27-1.55-3.27-3.68 1.31-3.69 3.27-3.69 3.27 1.53 3.27 3.69zm-1.21 0v-.09c0-1.42-.71-2.63-2.06-2.63s-2.06 1.21-2.06 2.63v.09c0 1.39.71 2.61 2.06 2.61s2.06-1.18 2.06-2.57zM282.79 164.16h-1.17v-.81a2.44 2.44 0 01-2.07 1 2.26 2.26 0 01-2.37-2.41v-4.81h1.16v4.44c0 1.25.64 1.72 1.46 1.72a1.78 1.78 0 001.82-2v-4.2h1.17zM288.59 158.11h-.18c-1.19 0-2.27.48-2.27 2.41v3.64H285v-7.09h1.16v1.12a2.21 2.21 0 012.12-1.25h.34zM299.37 164.16h-1.17v-.81a2.44 2.44 0 01-2.07 1 2.26 2.26 0 01-2.37-2.41v-4.81h1.16v4.44c0 1.25.64 1.72 1.46 1.72a1.78 1.78 0 001.82-2v-4.2h1.17zM300.94 163.27l.71-.82a3.36 3.36 0 002.14.87c.81 0 1.42-.37 1.42-1.07s-.77-.94-1.73-1.19-2.2-.61-2.2-2.07c0-1.19 1.09-2.06 2.58-2.06a3.83 3.83 0 012.46.88l-.68.78a2.59 2.59 0 00-1.75-.68c-.94 0-1.41.41-1.41 1.05s.4.77 1 .94l1.16.34c1 .3 1.73.8 1.73 1.93 0 1.46-1.29 2.13-2.67 2.13a4.26 4.26 0 01-2.76-1.03zM309 161a2.23 2.23 0 002.2 2.3 2.84 2.84 0 001.86-.7l.6.84a4 4 0 01-2.51.88 3.35 3.35 0 01-3.37-3.68c0-2.16 1.26-3.69 3.22-3.69s3 1.55 3 3.68v.37zm0-.94h3.75c0-1.09-.65-2.09-1.77-2.09A2.06 2.06 0 00309 160zM319.37 158.11h-.18c-1.19 0-2.27.48-2.27 2.41v3.64h-1.16v-7.09h1.16v1.12a2.21 2.21 0 012.12-1.25h.34zM320.29 163.27l.71-.82a3.36 3.36 0 002.14.87c.81 0 1.42-.37 1.42-1.07s-.77-.94-1.73-1.19-2.2-.61-2.2-2.07c0-1.19 1.09-2.06 2.58-2.06a3.83 3.83 0 012.46.88l-.68.78a2.59 2.59 0 00-1.75-.68c-.94 0-1.41.41-1.41 1.05s.4.77 1 .94l1.16.34c1 .3 1.73.8 1.73 1.93 0 1.46-1.29 2.13-2.67 2.13a4.26 4.26 0 01-2.76-1.03zM336.61 164.16h-1.17v-4.46c0-1.26-.64-1.7-1.42-1.7s-1.56.6-1.56 2v4.19h-1.16v-7.09h1.16v.81a2.18 2.18 0 011.86-1 2.1 2.1 0 011.92 1.18 2.43 2.43 0 012.16-1.18 2.28 2.28 0 012.39 2.37v4.86h-1.16v-4.44c0-1.26-.68-1.7-1.45-1.7s-1.56.6-1.56 2zM349.07 160.62c0 2.13-1.31 3.68-3.27 3.68s-3.27-1.55-3.27-3.68 1.31-3.69 3.27-3.69 3.27 1.53 3.27 3.69zm-1.21 0v-.09c0-1.42-.71-2.63-2.06-2.63s-2.06 1.21-2.06 2.63v.09c0 1.39.71 2.61 2.06 2.61s2.06-1.18 2.06-2.57zM354.5 158.11h-.18c-1.19 0-2.27.48-2.27 2.41v3.64h-1.16v-7.09H352v1.12a2.21 2.21 0 012.12-1.25h.34zM356.67 161a2.23 2.23 0 002.2 2.3 2.84 2.84 0 001.86-.7l.6.84a4 4 0 01-2.51.88 3.35 3.35 0 01-3.37-3.68c0-2.16 1.26-3.69 3.22-3.69s3 1.55 3 3.68v.37zm0-.94h3.75c0-1.09-.65-2.09-1.77-2.09a2.06 2.06 0 00-1.97 2.03zM367.77 154.21a.87.87 0 01.85.87.86.86 0 11-1.72 0 .87.87 0 01.87-.87zm.57 9.94h-1.16v-7.09h1.16zM370.51 157.07h1.16v.81a2.44 2.44 0 012.07-1 2.26 2.26 0 012.37 2.41v4.81H375v-4.44c0-1.25-.64-1.72-1.46-1.72a1.82 1.82 0 00-1.82 2v4.2h-1.16zM379.82 157.07h1.41v1h-1.41v6.06h-1.16v-6.06h-1.18v-1h1.18v-1.32c0-1.22.82-1.66 1.95-1.66a6.62 6.62 0 011.14.1l-.09 1c-.27 0-.78-.06-1-.06-.67 0-.82.41-.82.85zM388.7 160.62c0 2.13-1.31 3.68-3.27 3.68s-3.27-1.55-3.27-3.68 1.31-3.69 3.27-3.69 3.27 1.53 3.27 3.69zm-1.21 0v-.09c0-1.42-.71-2.63-2.06-2.63s-2.06 1.21-2.06 2.63v.09c0 1.39.71 2.61 2.06 2.61s2.06-1.18 2.06-2.57zM394.13 158.11h-.18c-1.19 0-2.27.48-2.27 2.41v3.64h-1.16v-7.09h1.16v1.12a2.21 2.21 0 012.12-1.25h.34zM400.9 164.16h-1.17v-4.46c0-1.26-.64-1.7-1.42-1.7s-1.56.6-1.56 2v4.19h-1.16v-7.09h1.16v.81a2.18 2.18 0 011.86-1 2.1 2.1 0 011.92 1.18 2.43 2.43 0 012.16-1.18 2.28 2.28 0 012.39 2.37v4.86h-1.16v-4.44c0-1.26-.68-1.7-1.45-1.7s-1.56.6-1.56 2zM409.16 164.3a2.22 2.22 0 01-2.47-2.14 2 2 0 011.89-2l2.5-.34v-.45c0-1.08-.7-1.41-1.58-1.41a4.31 4.31 0 00-2 .55l-.44-.92a5.35 5.35 0 012.6-.65c1.72 0 2.63.77 2.63 2.26v3.31a1 1 0 00.58 1l-.65.84a1.4 1.4 0 01-1-.85 2.63 2.63 0 01-2.06.8zm0-3.29c-.78.11-1.29.37-1.29 1.09a1.31 1.31 0 001.45 1.28c.87 0 1.75-.55 1.75-1.38v-1.28zM416.16 162.39c0 .47.09.87.91.87a6.12 6.12 0 00.88-.09l.13 1a10.36 10.36 0 01-1.26.1c-1.12 0-1.82-.44-1.82-1.65v-4.56h-1.33v-1H415v-2.31l1.16-.41v2.73h2v1h-2zM420.22 154.21a.87.87 0 01.85.87.86.86 0 11-1.72 0 .87.87 0 01.87-.87zm.57 9.94h-1.16v-7.09h1.16zM429.07 160.62c0 2.13-1.31 3.68-3.27 3.68s-3.27-1.55-3.27-3.68 1.31-3.69 3.27-3.69 3.27 1.53 3.27 3.69zm-1.21 0v-.09c0-1.42-.71-2.63-2.06-2.63s-2.06 1.21-2.06 2.63v.09c0 1.39.71 2.61 2.06 2.61s2.07-1.18 2.07-2.57zM430.89 157.07h1.16v.81a2.44 2.44 0 012.07-1 2.26 2.26 0 012.37 2.41v4.81h-1.16v-4.44c0-1.25-.64-1.72-1.46-1.72a1.82 1.82 0 00-1.82 2v4.2h-1.16zM439.51 162.39a1 1 0 11-1 1 1 1 0 011-1zM40.19 171.26h5.95v1.05h-4.73v3.27h4.34v1.05h-4.34v4.57h-1.22zM53.92 177.66c0 2.13-1.31 3.68-3.27 3.68s-3.27-1.55-3.27-3.68 1.31-3.66 3.27-3.66 3.27 1.5 3.27 3.66zm-1.21 0v-.09c0-1.42-.71-2.63-2.06-2.63s-2.06 1.21-2.06 2.63v.09c0 1.39.71 2.61 2.06 2.61s2.06-1.18 2.06-2.57zM59.35 175.15h-.18c-1.19 0-2.27.48-2.27 2.41v3.64h-1.17v-7.09h1.17v1.12A2.21 2.21 0 0159 174h.34zM65.37 178a2.23 2.23 0 002.2 2.3 2.84 2.84 0 001.86-.7l.6.84a4 4 0 01-2.51.88 3.35 3.35 0 01-3.37-3.68c0-2.16 1.26-3.69 3.22-3.69s3 1.55 3 3.68v.37zm0-.94h3.75c0-1.09-.65-2.09-1.77-2.09a2.06 2.06 0 00-1.96 2.11zM73.63 177.46l-2.17-3.35h1.33l1.52 2.44 1.45-2.44h1.35l-2.16 3.35 2.46 3.73H76l-1.78-2.75-1.62 2.75h-1.36zM80.67 181.34a2.22 2.22 0 01-2.47-2.14 2 2 0 011.89-2l2.5-.34v-.45c0-1.08-.7-1.41-1.58-1.41a4.31 4.31 0 00-2 .55l-.44-.92a5.35 5.35 0 012.6-.65c1.72 0 2.63.77 2.63 2.26v3.31a1 1 0 00.58 1l-.65.84a1.4 1.4 0 01-1-.85 2.63 2.63 0 01-2.06.8zm0-3.29c-.78.11-1.29.37-1.29 1.09a1.31 1.31 0 001.45 1.28c.87 0 1.75-.55 1.75-1.38v-1.28zM91.28 181.2h-1.17v-4.46c0-1.26-.64-1.7-1.42-1.7s-1.56.6-1.56 2v4.19H86v-7.09h1.16v.81A2.18 2.18 0 0189 174a2.1 2.1 0 011.92 1.18 2.43 2.43 0 012.15-1.18 2.28 2.28 0 012.39 2.37v4.86h-1.17v-4.46c0-1.26-.68-1.7-1.45-1.7s-1.56.6-1.56 2zM98.78 174.11v.81a2.48 2.48 0 012.07-1c1.83 0 3 1.55 3 3.69s-1.18 3.68-3 3.68a2.48 2.48 0 01-2.07-1v3h-1.16v-9.24zm3.88 3.51c0-1.48-.71-2.61-2-2.61a1.85 1.85 0 00-1.87 2.07v1.15a1.85 1.85 0 001.87 2.07c1.31 0 2-1.14 2-2.61zM105.66 171.26h1.16v8.35c0 .47.14.71.68.71h.73l.11 1a11.29 11.29 0 01-1.18.09c-.84 0-1.5-.37-1.5-1.39zM110.26 178a2.23 2.23 0 002.2 2.3 2.84 2.84 0 001.86-.7l.6.84a4 4 0 01-2.51.88 3.35 3.35 0 01-3.37-3.68c0-2.16 1.26-3.69 3.22-3.69s3 1.55 3 3.68v.37zm0-.94H114c0-1.09-.65-2.09-1.77-2.09a2.06 2.06 0 00-1.96 2.11zM118.79 180.67a1.67 1.67 0 01-1.66 1.8h-.2v-.53h.17c.37-.06.72-.18.72-.57h-.11a.91.91 0 01-.94-.92 1 1 0 011-1 1.12 1.12 0 011.02 1.22zM123.84 174.11h1.32l1.75 5.85 1.66-5.85h1.31l-2.58 8.15a1.7 1.7 0 01-1.88 1.25 8.32 8.32 0 01-1.26-.11l.17-1a5.39 5.39 0 00.94.1.8.8 0 00.89-.71l.07-.33zM137.27 177.66c0 2.13-1.31 3.68-3.27 3.68s-3.27-1.55-3.27-3.68S132 174 134 174s3.27 1.5 3.27 3.66zm-1.21 0v-.09c0-1.42-.71-2.63-2.06-2.63s-2.06 1.21-2.06 2.63v.09c0 1.39.71 2.61 2.06 2.61s2.06-1.18 2.06-2.57zM144.61 181.2h-1.17v-.81a2.44 2.44 0 01-2.07 1 2.26 2.26 0 01-2.37-2.41v-4.81h1.16v4.44c0 1.25.64 1.72 1.46 1.72a1.78 1.78 0 001.82-2v-4.2h1.17zM151.39 177.69c0 1.42.7 2.63 2.06 2.63a2 2 0 001.83-1.19l1 .55a3 3 0 01-2.8 1.66c-2 0-3.27-1.53-3.27-3.68s1.31-3.69 3.27-3.69a3 3 0 012.8 1.66l-1 .55a2 2 0 00-1.83-1.19c-1.36 0-2.06 1.21-2.06 2.63zM164 177.66c0 2.13-1.31 3.68-3.27 3.68s-3.27-1.55-3.27-3.68 1.31-3.69 3.27-3.69 3.27 1.53 3.27 3.69zm-1.21 0v-.09c0-1.42-.71-2.63-2.06-2.63s-2.06 1.21-2.06 2.63v.09c0 1.39.71 2.61 2.06 2.61s2.03-1.18 2.03-2.57zM171.31 181.2h-1.17v-.81a2.44 2.44 0 01-2.07 1 2.26 2.26 0 01-2.37-2.41v-4.81h1.16v4.44c0 1.25.64 1.72 1.46 1.72a1.78 1.78 0 001.82-2v-4.2h1.17zM173.48 171.26h1.16v8.35c0 .47.14.71.68.71h.73l.11 1a11.29 11.29 0 01-1.18.09c-.84 0-1.5-.37-1.5-1.39zM182 180.39a2.48 2.48 0 01-2.07 1c-1.83 0-3-1.53-3-3.68s1.18-3.69 3-3.69a2.48 2.48 0 012.07 1v-3.66h1.17v9.94H182zm-3.88-2.7c0 1.48.71 2.61 2 2.61a1.85 1.85 0 001.87-2.07v-1.15a1.85 1.85 0 00-1.87-2.07c-1.31 0-2 1.14-2 2.61zM191 179.43c0 .47.09.87.91.87a6.14 6.14 0 00.88-.09l.13 1a10.36 10.36 0 01-1.26.1c-1.12 0-1.82-.44-1.82-1.65v-4.56h-1.33v-1h1.33v-2.3l1.16-.41v2.73h2v1h-2zM195.1 178a2.23 2.23 0 002.2 2.3 2.84 2.84 0 001.86-.7l.6.84a4 4 0 01-2.51.88 3.35 3.35 0 01-3.37-3.68c0-2.16 1.26-3.69 3.22-3.69s3 1.55 3 3.68v.37zm0-.94h3.75c0-1.09-.65-2.09-1.77-2.09a2.06 2.06 0 00-1.97 2.11zM201.83 171.26H203v8.35c0 .47.14.71.68.71h.73l.11 1a11.29 11.29 0 01-1.18.09c-.84 0-1.5-.37-1.5-1.39zM205.76 171.26h1.16v8.35c0 .47.14.71.68.71h.73l.11 1a11.29 11.29 0 01-1.18.09c-.84 0-1.5-.37-1.5-1.39zM215.25 179.43c0 .47.09.87.91.87a6.12 6.12 0 00.88-.09l.13 1a10.36 10.36 0 01-1.26.1c-1.12 0-1.82-.44-1.82-1.65v-4.56h-1.33v-1h1.33v-2.3l1.16-.41v2.73h2v1h-2zM218.71 171.26h1.16v3.66a2.44 2.44 0 012.07-1 2.26 2.26 0 012.37 2.41v4.81h-1.16v-4.44c0-1.25-.64-1.72-1.46-1.72a1.81 1.81 0 00-1.82 2v4.2h-1.16zM227.3 178a2.23 2.23 0 002.2 2.3 2.84 2.84 0 001.86-.7l.6.84a4 4 0 01-2.51.88 3.35 3.35 0 01-3.37-3.68c0-2.16 1.26-3.69 3.22-3.69s3 1.55 3 3.68v.37zm0-.94h3.75c0-1.09-.65-2.09-1.77-2.09a2.06 2.06 0 00-1.97 2.11zM239.38 181.2h-1.17v-4.46c0-1.26-.64-1.7-1.42-1.7s-1.56.6-1.56 2v4.19h-1.16v-7.09h1.16v.81a2.18 2.18 0 011.86-1 2.1 2.1 0 011.92 1.18 2.43 2.43 0 012.16-1.18 2.28 2.28 0 012.39 2.37v4.86h-1.16v-4.46c0-1.26-.68-1.7-1.45-1.7s-1.56.6-1.56 2zM249.49 171.26h1.16v3.66a2.44 2.44 0 012.07-1 2.26 2.26 0 012.37 2.41v4.81h-1.16v-4.44c0-1.25-.64-1.72-1.46-1.72a1.81 1.81 0 00-1.82 2v4.2h-1.16zM263.4 177.66c0 2.13-1.31 3.68-3.27 3.68s-3.27-1.55-3.27-3.68 1.31-3.69 3.27-3.69 3.27 1.53 3.27 3.69zm-1.21 0v-.09c0-1.42-.71-2.63-2.06-2.63s-2.06 1.21-2.06 2.63v.09c0 1.39.71 2.61 2.06 2.61s2.06-1.18 2.06-2.57zM271.17 179.82l1.28-5.71h1.24L272 181.2h-1.49l-1.51-5.68-1.46 5.68h-1.43l-1.72-7.09h1.25l1.24 5.71 1.49-5.71h1.32zM279 171.26h1.16v8.35c0 .47.14.71.68.71h.73l.11 1a11.29 11.29 0 01-1.18.09c-.84 0-1.5-.37-1.5-1.39zM288.92 177.66c0 2.13-1.31 3.68-3.27 3.68s-3.27-1.55-3.27-3.68 1.31-3.69 3.27-3.69 3.27 1.53 3.27 3.69zm-1.21 0v-.09c0-1.42-.71-2.63-2.06-2.63s-2.06 1.21-2.06 2.63v.09c0 1.39.71 2.61 2.06 2.61s2.06-1.18 2.06-2.57zM290.73 174.11h1.16v.81a2.44 2.44 0 012.07-1 2.26 2.26 0 012.37 2.41v4.81h-1.16v-4.44c0-1.25-.64-1.72-1.46-1.72a1.82 1.82 0 00-1.82 2v4.2h-1.16zM300.94 174a2.4 2.4 0 012 1v-.81h1.17v7.14c0 1.76-1.55 2.27-3 2.27a6.14 6.14 0 01-2.63-.57l.4-1a5.76 5.76 0 002.26.5c1.19 0 1.85-.44 1.85-1.53v-1.35a2.4 2.4 0 01-2 1c-1.76 0-2.87-1.43-2.87-3.29s1.06-3.36 2.82-3.36zm2 3.27c0-1.26-.54-2.23-1.82-2.23s-1.87 1-1.87 2.23v.06c0 1.24.58 2.23 1.87 2.23s1.82-1 1.82-2.23zM310.69 171.26a.87.87 0 01.85.87.86.86 0 11-1.72 0 .87.87 0 01.87-.87zm.57 9.94h-1.16v-7.09h1.16zM315.25 179.43c0 .47.09.87.91.87a6.14 6.14 0 00.88-.09l.13 1a10.36 10.36 0 01-1.26.1c-1.12 0-1.82-.44-1.82-1.65v-4.56h-1.33v-1h1.33v-2.3l1.16-.41v2.73h2v1h-2zM324.36 179.43c0 .47.09.87.91.87a6.12 6.12 0 00.88-.09l.13 1a10.36 10.36 0 01-1.26.1c-1.12 0-1.82-.44-1.82-1.65v-4.56h-1.33v-1h1.33v-2.3l1.16-.41v2.73h2v1h-2zM329.86 181.34a2.22 2.22 0 01-2.47-2.14 2 2 0 011.89-2l2.5-.34v-.45c0-1.08-.7-1.41-1.58-1.41a4.31 4.31 0 00-2 .55l-.44-.92a5.35 5.35 0 012.6-.65c1.72 0 2.63.77 2.63 2.26v3.31a1 1 0 00.58 1l-.65.84a1.4 1.4 0 01-1-.85 2.63 2.63 0 01-2.06.8zm0-3.29c-.78.11-1.29.37-1.29 1.09a1.31 1.31 0 001.45 1.28c.87 0 1.75-.55 1.75-1.38v-1.28zM336.32 177.59l3.34-3.48h1.46l-2.7 2.81 2.83 4.27h-1.42l-2.23-3.49-1.28 1.3v2.19h-1.16v-9.94h1.16zM343.11 178a2.23 2.23 0 002.2 2.3 2.84 2.84 0 001.86-.7l.6.84a4 4 0 01-2.51.88 3.35 3.35 0 01-3.37-3.68c0-2.16 1.26-3.69 3.22-3.69s3 1.55 3 3.68v.37zm0-.94h3.75c0-1.09-.65-2.09-1.77-2.09a2.06 2.06 0 00-1.97 2.11zM349.23 180.32l.71-.82a3.36 3.36 0 002.14.87c.81 0 1.42-.37 1.42-1.07s-.77-.94-1.73-1.19-2.2-.61-2.2-2.07c0-1.19 1.09-2.06 2.58-2.06a3.83 3.83 0 012.46.88l-.68.78a2.59 2.59 0 00-1.75-.68c-.94 0-1.41.41-1.41 1.05s.4.77 1 .94l1.16.34c1 .3 1.73.8 1.73 1.93 0 1.46-1.29 2.13-2.67 2.13a4.26 4.26 0 01-2.76-1.03zM361.9 174.11h1.41v1h-1.41v6.06h-1.16v-6.06h-1.18v-1h1.18v-1.32c0-1.22.82-1.66 1.95-1.66a6.62 6.62 0 011.14.1l-.09 1c-.27 0-.78-.06-1-.06-.67 0-.82.41-.82.85zM370.77 177.66c0 2.13-1.31 3.68-3.27 3.68s-3.27-1.55-3.27-3.68 1.31-3.69 3.27-3.69 3.27 1.53 3.27 3.69zm-1.21 0v-.09c0-1.42-.71-2.63-2.06-2.63s-2.06 1.21-2.06 2.63v.09c0 1.39.71 2.61 2.06 2.61s2.06-1.18 2.06-2.57zM376.2 175.15h-.2c-1.19 0-2.27.48-2.27 2.41v3.64h-1.16v-7.09h1.16v1.12a2.21 2.21 0 012.12-1.25h.34zM383.26 179.43c0 .47.09.87.91.87a6.12 6.12 0 00.88-.09l.13 1a10.36 10.36 0 01-1.26.1c-1.12 0-1.82-.44-1.82-1.65v-4.56h-1.33v-1h1.33v-2.3l1.16-.41v2.73h2v1h-2zM386.72 171.26h1.16v3.66a2.44 2.44 0 012.07-1 2.26 2.26 0 012.37 2.41v4.81h-1.16v-4.44c0-1.25-.64-1.72-1.46-1.72a1.81 1.81 0 00-1.82 2v4.2h-1.16zM395.31 178a2.23 2.23 0 002.2 2.3 2.84 2.84 0 001.86-.7l.6.84a4 4 0 01-2.51.88 3.35 3.35 0 01-3.37-3.68c0-2.16 1.26-3.69 3.22-3.69s3 1.55 3 3.68v.37zm0-.94h3.75c0-1.09-.65-2.09-1.77-2.09a2.06 2.06 0 00-1.96 2.11zM402.66 171.26a.87.87 0 01.85.87.86.86 0 11-1.72 0 .87.87 0 01.87-.87zm.57 9.94h-1.16v-7.09h1.16zM409 175.15h-.18c-1.19 0-2.27.48-2.27 2.41v3.64h-1.15v-7.09h1.16v1.12a2.21 2.21 0 012.12-1.25h.32zM416.19 181.34a2.22 2.22 0 01-2.47-2.14 2 2 0 011.89-2l2.5-.34v-.45c0-1.08-.7-1.41-1.58-1.41a4.31 4.31 0 00-2 .55l-.44-.92a5.35 5.35 0 012.6-.65c1.72 0 2.63.77 2.63 2.26v3.31a1 1 0 00.58 1l-.65.84a1.4 1.4 0 01-1-.85 2.63 2.63 0 01-2.06.8zm0-3.29c-.78.11-1.29.37-1.29 1.09a1.31 1.31 0 001.45 1.28c.87 0 1.75-.55 1.75-1.38v-1.28zM422.65 174.11v.81a2.48 2.48 0 012.07-1c1.83 0 3 1.55 3 3.69s-1.18 3.68-3 3.68a2.48 2.48 0 01-2.07-1v3h-1.16v-9.24zm3.88 3.51c0-1.48-.71-2.61-2-2.61a1.85 1.85 0 00-1.87 2.07v1.15a1.85 1.85 0 001.87 2.07c1.31 0 2-1.14 2-2.61zM430.72 174.11v.81a2.48 2.48 0 012.07-1c1.83 0 3 1.55 3 3.69s-1.18 3.68-3 3.68a2.48 2.48 0 01-2.07-1v3h-1.16v-9.24zm3.88 3.51c0-1.48-.71-2.61-2-2.61a1.85 1.85 0 00-1.87 2.07v1.15a1.85 1.85 0 001.87 2.07c1.31 0 2-1.14 2-2.61zM437.6 171.26h1.16v8.35c0 .47.14.71.68.71h.73l.11 1a11.29 11.29 0 01-1.18.09c-.84 0-1.5-.37-1.5-1.39zM442.19 171.26a.87.87 0 01.85.87.86.86 0 11-1.72 0 .87.87 0 01.87-.87zm.57 9.94h-1.16v-7.09h1.16zM445.72 177.69c0 1.42.7 2.63 2.06 2.63a2 2 0 001.83-1.19l1 .55a3 3 0 01-2.8 1.66c-2 0-3.27-1.53-3.27-3.68s1.31-3.69 3.27-3.69a3 3 0 012.8 1.66l-1 .55a2 2 0 00-1.83-1.19c-1.36 0-2.06 1.21-2.06 2.63zM454.37 181.34a2.22 2.22 0 01-2.47-2.14 2 2 0 011.89-2l2.5-.34v-.45c0-1.08-.7-1.41-1.58-1.41a4.31 4.31 0 00-2 .55l-.44-.92a5.35 5.35 0 012.6-.65c1.72 0 2.63.77 2.63 2.26v3.31a1 1 0 00.58 1l-.65.84a1.4 1.4 0 01-1-.85 2.63 2.63 0 01-2.06.8zm0-3.29c-.78.11-1.29.37-1.29 1.09a1.31 1.31 0 001.45 1.28c.87 0 1.75-.55 1.75-1.38v-1.28zM461.36 179.43c0 .47.09.87.91.87a6.12 6.12 0 00.88-.09l.13 1a10.36 10.36 0 01-1.26.1c-1.12 0-1.82-.44-1.82-1.65v-4.56h-1.33v-1h1.33v-2.3l1.16-.41v2.73h2v1h-2zM465.42 171.26a.87.87 0 01.85.87.86.86 0 11-1.72 0 .87.87 0 01.87-.87zm.57 9.94h-1.16v-7.09H466zM474.28 177.66c0 2.13-1.31 3.68-3.27 3.68s-3.27-1.55-3.27-3.68S469.05 174 471 174s3.28 1.5 3.28 3.66zm-1.21 0v-.09c0-1.42-.71-2.63-2.06-2.63s-2.01 1.26-2.01 2.68v.09c0 1.39.71 2.61 2.06 2.61s2.01-1.23 2.01-2.62zM476.09 174.11h1.16v.81a2.44 2.44 0 012.07-1 2.26 2.26 0 012.37 2.41v4.81h-1.16v-4.44c0-1.25-.64-1.72-1.46-1.72a1.82 1.82 0 00-1.82 2v4.2h-1.16zM41.72 196.48c0 .47.09.87.91.87a6.12 6.12 0 00.88-.09l.13 1a10.36 10.36 0 01-1.26.1c-1.12 0-1.82-.44-1.82-1.65v-4.56h-1.34v-1h1.33v-2.31l1.16-.41v2.73h2v1h-2zM51.15 194.7c0 2.13-1.31 3.68-3.27 3.68s-3.27-1.55-3.27-3.68 1.32-3.7 3.28-3.7 3.26 1.54 3.26 3.7zm-1.21 0v-.09c0-1.42-.71-2.63-2.06-2.63s-2.06 1.21-2.06 2.63v.09c0 1.39.71 2.61 2.06 2.61s2.07-1.18 2.07-2.57zM57.89 198.24h-1.17v-9.94h1.16v3.7a2.48 2.48 0 012.12-1c1.83 0 3 1.55 3 3.69s-1.18 3.68-3 3.68a2.48 2.48 0 01-2.07-1zm3.88-3.58c0-1.48-.71-2.61-2-2.61a1.85 1.85 0 00-1.87 2.07v1.15a1.85 1.85 0 001.87 2.07c1.31 0 2-1.14 2-2.61zM65.64 195.06a2.23 2.23 0 002.2 2.3 2.84 2.84 0 001.86-.7l.6.84a4 4 0 01-2.51.88 3.35 3.35 0 01-3.37-3.68c0-2.16 1.26-3.69 3.22-3.69s3 1.55 3 3.68v.37zm0-.94h3.75c0-1.09-.65-2.09-1.77-2.09a2.06 2.06 0 00-1.96 2.09zM77.32 191.15v.85a2.48 2.48 0 012.07-1c1.83 0 3 1.55 3 3.69s-1.18 3.68-3 3.68a2.48 2.48 0 01-2.07-1v3h-1.17v-9.24zm3.88 3.51c0-1.48-.71-2.61-2-2.61a1.85 1.85 0 00-1.87 2.07v1.15a1.85 1.85 0 001.87 2.07c1.31 0 2-1.14 2-2.61zM87.84 192.19h-.18c-1.19 0-2.27.48-2.27 2.41v3.64h-1.17v-7.09h1.16v1.12A2.21 2.21 0 0187.5 191h.34zM95.31 194.7c0 2.13-1.31 3.68-3.27 3.68s-3.27-1.55-3.27-3.68S90.09 191 92 191s3.31 1.54 3.31 3.7zm-1.21 0v-.09c0-1.42-.71-2.63-2.06-2.63S90 193.24 90 194.66v.09c0 1.39.71 2.61 2.06 2.61s2.05-1.23 2.05-2.62zM97.94 194.73c0 1.42.7 2.63 2.06 2.63a2 2 0 001.83-1.19l1 .55a3 3 0 01-2.8 1.66c-2 0-3.27-1.53-3.27-3.68S98 191 100 191a3 3 0 012.8 1.66l-1 .55A2 2 0 00100 192c-1.36 0-2.06 1.21-2.06 2.63zM105.21 195.06a2.23 2.23 0 002.2 2.3 2.84 2.84 0 001.86-.7l.6.84a4 4 0 01-2.51.88 3.35 3.35 0 01-3.36-3.68c0-2.16 1.26-3.69 3.22-3.69s3 1.55 3 3.68v.37zm0-.94H109c0-1.09-.65-2.09-1.77-2.09a2.06 2.06 0 00-2 2.09zM111.34 197.36l.71-.82a3.36 3.36 0 002.14.87c.81 0 1.42-.37 1.42-1.07s-.77-.94-1.73-1.19-2.2-.61-2.2-2.07c0-1.19 1.09-2.06 2.58-2.06a3.82 3.82 0 012.46.88l-.68.78a2.59 2.59 0 00-1.75-.68c-.94 0-1.41.41-1.41 1.05s.4.77 1 .94l1.16.34c1 .3 1.73.8 1.73 1.93 0 1.46-1.29 2.13-2.67 2.13a4.26 4.26 0 01-2.76-1.03zM118 197.36l.71-.82a3.36 3.36 0 002.14.87c.81 0 1.42-.37 1.42-1.07s-.77-.94-1.73-1.19-2.2-.61-2.2-2.07c0-1.19 1.09-2.06 2.58-2.06a3.82 3.82 0 012.46.88l-.68.78a2.59 2.59 0 00-1.7-.68c-.94 0-1.41.41-1.41 1.05s.4.77 1 .94l1.16.34c1 .3 1.73.8 1.73 1.93 0 1.46-1.29 2.13-2.67 2.13a4.26 4.26 0 01-2.81-1.03zM126.05 195.06a2.23 2.23 0 002.2 2.3 2.84 2.84 0 001.86-.7l.6.84a4 4 0 01-2.51.88 3.35 3.35 0 01-3.37-3.68c0-2.16 1.26-3.69 3.22-3.69s3 1.55 3 3.68v.37zm0-.94h3.75c0-1.09-.65-2.09-1.77-2.09a2.06 2.06 0 00-1.96 2.09zM137.54 197.43a2.48 2.48 0 01-2.07 1c-1.83 0-3-1.53-3-3.68s1.18-3.69 3-3.69a2.48 2.48 0 012.07 1v-3.76h1.17v9.94h-1.17zm-3.88-2.7c0 1.48.71 2.61 2 2.61a1.85 1.85 0 001.87-2.07v-1.15a1.85 1.85 0 00-1.87-2.07c-1.31 0-2 1.14-2 2.61zM141.76 196.48a1 1 0 11-1 1 1 1 0 011-1z"/><g><circle class="cls-1" cx="18.97" cy="14.95" r="6.35"/><circle class="cls-1" cx="36.72" cy="14.95" r="6.35"/><circle class="cls-1" cx="54.47" cy="14.95" r="6.35"/><path class="cls-2" d="M.75 29.9h621.72v48.58H.75z"/><path class="cls-1" d="M199.55 44.64l-8 9.7v-9.7h-4.54v22.41h4.54v-6.82l2.89-3.23 5.92 10.05h5.27l-8.29-13.5 7.79-8.91h-5.58zM171.63 63a4 4 0 01-1.47-.87 4.12 4.12 0 01-1-1.49 5.66 5.66 0 01-.36-2.12V44.61h-4.48v14.56a8.21 8.21 0 00.68 3.39 7.39 7.39 0 001.9 2.58 8.63 8.63 0 002.89 1.64 11.83 11.83 0 007.31 0 8.56 8.56 0 002.9-1.64 7.43 7.43 0 001.89-2.58 8.2 8.2 0 00.68-3.39V44.61h-4.45V58.5a5.69 5.69 0 01-.36 2.12 4.14 4.14 0 01-1 1.49 4 4 0 01-1.47.87 6 6 0 01-3.67 0M155.25 65.63a2.94 2.94 0 00.62.91 2.8 2.8 0 00.92.61 2.83 2.83 0 001.1.22 2.78 2.78 0 001.09-.22 2.83 2.83 0 00.91-.61 3 3 0 00.62-.91 2.74 2.74 0 00.23-1.11 2.63 2.63 0 00-.23-1.08 2.88 2.88 0 00-.62-.89 3 3 0 00-.91-.61 2.67 2.67 0 00-1.09-.23 2.72 2.72 0 00-1.1.23 3 3 0 00-.92.61 2.87 2.87 0 00-.62.89 2.64 2.64 0 00-.23 1.08 2.75 2.75 0 00.23 1.11M148.06 67.05l6.33-22.41h-5.02l-4.23 16.85h-.16l-4.33-16.85h-5.08l6.33 22.41h6.16z"/><g><path class="cls-1" d="M120.56 62.71a5.3 5.3 0 01-1.88-1.54 6.94 6.94 0 01-1.15-2.33 10.53 10.53 0 01-.39-2.94v-.13a10.56 10.56 0 01.39-2.93 6.93 6.93 0 011.15-2.34 5.29 5.29 0 011.88-1.5 6.33 6.33 0 015.18 0 5.38 5.38 0 011.88 1.54 6.85 6.85 0 011.16 2.34 10.51 10.51 0 01.39 2.93v.13a10.48 10.48 0 01-.39 2.94 6.86 6.86 0 01-1.16 2.33 5.39 5.39 0 01-1.88 1.54 6.33 6.33 0 01-5.18 0m-1.9-17.49a10 10 0 00-3.36 2.45 10.68 10.68 0 00-2.11 3.66 14.36 14.36 0 000 9A10.8 10.8 0 00115.3 64a9.81 9.81 0 003.36 2.45 11.75 11.75 0 009 0A9.78 9.78 0 00131 64a10.8 10.8 0 002.11-3.66 14.39 14.39 0 000-9 10.69 10.69 0 00-2.11-3.66 9.93 9.93 0 00-3.37-2.45 11.68 11.68 0 00-9 0M93.93 55.75a10.52 10.52 0 01.36-2.75 7.11 7.11 0 011.09-2.35A5.51 5.51 0 0197.26 49a5.63 5.63 0 012.72-.62 6 6 0 011.81.26 5.13 5.13 0 012.56 1.77 7.71 7.71 0 01.84 1.34l4-2.23a8.37 8.37 0 00-1.47-2.13 9.08 9.08 0 00-2.09-1.64 10.3 10.3 0 00-2.61-1 12.08 12.08 0 00-3-.37 10.6 10.6 0 00-4.43.9 10.12 10.12 0 00-3.37 2.45A11 11 0 0090 51.34a13.19 13.19 0 00-.76 4.51 14.52 14.52 0 00.68 4.52 10.87 10.87 0 002 3.66 9.19 9.19 0 003.21 2.45 10.2 10.2 0 004.36.89 8.65 8.65 0 002-.22 8 8 0 001.71-.6 6.54 6.54 0 001.41-.92 5.52 5.52 0 001-1.2V67h4V54.77H99.46v3.45h5.73v.22A5.67 5.67 0 01105 60a4.33 4.33 0 01-.84 1.57 4.68 4.68 0 01-1.61 1.21 5.81 5.81 0 01-2.52.48 5.63 5.63 0 01-2.72-.62A5.5 5.5 0 0195.38 61a7.12 7.12 0 01-1.09-2.34 10.5 10.5 0 01-.36-2.77zM46.56 49.2a2 2 0 10-1.06-2.55 2 2 0 001.06 2.55M42.1 51.81a2 2 0 10-1.1-2.55 2 2 0 001.06 2.55M40.8 56.76a2 2 0 10-1.06-2.55 2 2 0 001.06 2.55M51.53 50.77a2 2 0 10-1.06-2.55 2 2 0 001.06 2.55M69.54 49.2a2 2 0 111.06-2.55 2 2 0 01-1.06 2.55M74 51.81a2 2 0 111.06-2.55A2 2 0 0174 51.81M75.3 56.76a2 2 0 111.06-2.55 2 2 0 01-1.06 2.55M64.57 50.77a2 2 0 111.06-2.55 2 2 0 01-1.06 2.55M59.09 45.69L61.58 47v-3.68l-2.48.79a1.24 1.24 0 00-.24-.24l1-3.15h-3.61l1 3.15a1.27 1.27 0 00-.24.24l-2.48-.79V47L57 45.68a1.32 1.32 0 00.26.25l-1.43 4.31a2.32 2.32 0 001.88 3h.58a2.32 2.32 0 002-2.29 2.35 2.35 0 00-.1-.68l-1.43-4.31a1.34 1.34 0 00.26-.25M58 66.77a94 94 0 0113.17.89c1.13-4.75 2.51-7.48 3.93-9.42l-2.68-1a4.89 4.89 0 010 2.86 5.42 5.42 0 01-1.19-2.44L70 62a4 4 0 012.09-.91c-1.23 2.66-2.77 3.34-3.77 3.16a1.9 1.9 0 01-1.59-2.23c.28-1.31 1.62-1.65 2.25-.13 1.2-2.44-.83-3.21-2.14-2.48 2-2 2.24-3.79.62-5.94-2.26 1.73-2.29 3.44-1.27 5.84-1.32-1.51-3.37-.7-2.63 1.74 1-1.47 2.21-.55 2 .85-.17 1.22-1.78 2.2-3.78 2-2.87-.26-3-2.24-3.11-3.88.7-.13 2 .52 3.06 2l.4-4.58a4.46 4.46 0 01-3.44 1.5 13.41 13.41 0 012.22-3.26h-5.72a13.45 13.45 0 012.22 3.26A4.46 4.46 0 0154 57.55l.4 4.58c1.09-1.52 2.36-2.18 3.06-2-.07 1.64-.24 3.62-3.11 3.88-2 .17-3.61-.81-3.78-2-.2-1.4 1.06-2.33 2-.85.74-2.44-1.31-3.25-2.63-1.74 1-2.41 1-4.12-1.27-5.84-1.62 2.15-1.39 3.94.62 5.94-1.31-.72-3.34 0-2.14 2.48.63-1.52 2-1.18 2.25.13a1.9 1.9 0 01-1.59 2.23c-1 .19-2.54-.5-3.77-3.16a4 4 0 012.06.8l-1.3-4.32a5.41 5.41 0 01-1.19 2.44 4.89 4.89 0 010-2.86l-2.67 1c1.42 1.94 2.8 4.66 3.93 9.41a94.18 94.18 0 0113.13-.9"/></g><path class="cls-3" d="M2.99 389.34V29.89h617.67v359.45h2.99V26.91H0v362.43h2.99z"/><path class="cls-3" d="M0 29.9V10A10 10 0 0110 0h603.65a10 10 0 0110 10v19.9"/><g><circle class="cls-1" cx="18.97" cy="14.95" r="6.35"/><circle class="cls-1" cx="36.72" cy="14.95" r="6.35"/><circle class="cls-1" cx="54.47" cy="14.95" r="6.35"/></g><path class="cls-3" d="M0 386.35h623.65v2.99H0z"/><path class="cls-3" d="M2.99 389.34V29.89h617.67v359.45h2.99V26.91H0v362.43h2.99z"/></g><path class="cls-1" d="M379.73 132.83h620.85v326.32H379.73z"/><path fill="#28a197" d="M415.37 165.01H847.1v193.81H415.37z"/><g><path class="cls-1" d="M498.05 193.31h5.52l-8.12 14.41v9.9h-5v-9.9l-8.12-14.41H488l5 9.41zM520 208.55c0 5.38-3.58 9.41-8.92 9.41s-8.92-4.06-8.92-9.41c0-5.35 3.54-9.41 8.92-9.41s8.92 4.06 8.92 9.41zm-4.79 0c0-3-1.46-5.07-4.13-5.07s-4.1 2.12-4.13 5.07c0 3 1.46 5.07 4.13 5.07s4.1-2.12 4.13-5.07zM538.56 217.62h-4.69v-1.56a6.16 6.16 0 01-4.62 1.91 6 6 0 01-6.28-6.25v-12.26h4.69V210c0 2.57 1.22 3.54 2.85 3.54 1.91 0 3.37-1.35 3.37-4.17v-9.93h4.69zM553.19 204h-.83c-2.67 0-5 .9-5 4.79v8.82h-4.69v-18.15h4.69v2a5.63 5.63 0 014.83-2.36h1zM569.2 199.46V201a6 6 0 014.58-1.91c4.79 0 8 4 8 9.34v.17c0 5.38-3.3 9.34-8.09 9.34a5.77 5.77 0 01-4.48-1.91v7.29h-4.69v-23.86zm-.14 10.76a3.42 3.42 0 003.75 3.4c2.67 0 4.13-2.12 4.13-5v-.17c0-2.88-1.46-5-4.13-5a3.42 3.42 0 00-3.75 3.4zM590 218c-3.3 0-6.28-2.08-6.28-5.69 0-2.92 1.91-4.86 5.1-5.31l5.52-.76v-.59c0-1.6-1.08-2.33-2.85-2.33a12.23 12.23 0 00-5.35 1.46l-1.84-3.61a15.33 15.33 0 017.36-2c3.33 0 7.36.9 7.36 5.83v7.78c0 1.08.59 1.46 1.56 1.87l-2.06 3.35a4.13 4.13 0 01-3.4-2 6.28 6.28 0 01-5.12 2zm.56-7.67c-1.15.17-1.91.83-1.91 1.87a2.21 2.21 0 002.47 2.12 3 3 0 003.23-3.33v-1.29zM606.66 218.35l.14-.59h-.35l-5.59-18.3h5.21L609.4 212l3.26-12.57h5.14l-6.25 20.83c-.8 2.71-2.92 3.44-5.66 3.44a30.74 30.74 0 01-4.27-.35l1-4.13a16.81 16.81 0 002.5.21 1.38 1.38 0 001.54-1.08zM635.29 217.62h-4.69v-10.56c0-2.6-1.22-3.51-2.74-3.51-1.81 0-3.19 1.25-3.19 4.17v9.9H620v-18.16h4.69v1.6a6.09 6.09 0 014.65-1.94 5.26 5.26 0 014.69 2.47 6.4 6.4 0 015.49-2.47 6.08 6.08 0 016.46 6.11v12.4h-4.72v-10.57c0-2.6-1.21-3.51-2.74-3.51-1.81 0-3.19 1.25-3.19 4.17zM653.82 210.15a4.27 4.27 0 004.41 3.54 6.52 6.52 0 004.58-1.7l2.33 3.54a10.87 10.87 0 01-7 2.43c-5 0-9.13-3.47-9.13-9.31v-.21c0-5.35 3.65-9.34 8.78-9.34 4.79 0 8.33 3.65 8.33 8.92v2.12zm0-3.54h7.33a3.49 3.49 0 00-3.58-3.44 3.63 3.63 0 00-3.71 3.44zM669.2 199.46h4.69V201a6.16 6.16 0 014.62-1.91 6 6 0 016.28 6.25v12.26h-4.69v-10.54c0-2.57-1.22-3.54-2.85-3.54-1.91 0-3.37 1.35-3.37 4.17v9.93h-4.68zM695 212.2c0 .87.38 1.53 2 1.53a11.62 11.62 0 002.33-.21l.42 4.13a37.4 37.4 0 01-4.31.31c-3.23 0-5.14-1.42-5.14-4.62v-9.69h-3.26v-4.2h3.26v-5.14l4.69-1.25v6.39h4.76v4.2H695zM728 211.68l2.22-12.22h5l-4.2 18.16h-5.56l-2.71-11.81-2.88 11.81h-5.49l-4.2-18.16h5.1l2.15 12.22 3.16-12.22H725zM742.85 218c-3.3 0-6.28-2.08-6.28-5.69 0-2.92 1.91-4.86 5.1-5.31l5.52-.76v-.59c0-1.6-1.08-2.33-2.85-2.33a12.23 12.23 0 00-5.35 1.46l-1.84-3.61a15.33 15.33 0 017.36-2c3.33 0 7.36.9 7.36 5.83v7.78c0 1.08.59 1.46 1.56 1.87l-2.11 3.35a4.13 4.13 0 01-3.4-2 6.28 6.28 0 01-5.07 2zm.56-7.67c-1.15.17-1.91.83-1.91 1.87a2.21 2.21 0 002.47 2.12 3 3 0 003.23-3.33v-1.29zM757.86 211.78a8.41 8.41 0 005.31 2.19c1.42 0 2.57-.38 2.57-1.46 0-.87-.69-1.21-2.22-1.6a31.07 31.07 0 01-4.51-1.28 4.89 4.89 0 01-3.19-4.72c0-3.89 3.44-5.8 7.47-5.8a10.43 10.43 0 017.19 2.57l-3 3.09a6.24 6.24 0 00-4.17-1.67c-1.28 0-2.57.45-2.57 1.53 0 .83.8 1.15 2.15 1.49a25.61 25.61 0 015.21 1.67 4.8 4.8 0 012.54 4.34c0 3.85-3.3 5.83-7.33 5.83a13.35 13.35 0 01-8.19-2.74zM550.29 249.4a8.41 8.41 0 005.31 2.19c1.42 0 2.57-.38 2.57-1.46 0-.87-.69-1.21-2.22-1.6a31.07 31.07 0 01-4.51-1.28 4.89 4.89 0 01-3.19-4.72c0-3.89 3.44-5.8 7.47-5.8a10.43 10.43 0 017.19 2.57l-3 3.09a6.24 6.24 0 00-4.17-1.67c-1.28 0-2.57.45-2.57 1.53 0 .83.8 1.15 2.15 1.49a25.64 25.64 0 015.21 1.67 4.8 4.8 0 012.53 4.34c0 3.85-3.3 5.83-7.33 5.83a13.35 13.35 0 01-8.19-2.74zM581.57 255.23h-4.69v-1.56a6.16 6.16 0 01-4.62 1.91 6 6 0 01-6.29-6.25v-12.26h4.69v10.56c0 2.57 1.22 3.54 2.85 3.54 1.91 0 3.37-1.35 3.37-4.17v-9.93h4.69zM584.67 246.1c0-5.35 3.68-9.38 8.78-9.38 3.72 0 6.7 1.84 7.88 4.69l-4.17 2.12a3.71 3.71 0 00-3.61-2.47c-2.85 0-4.06 2.6-4.06 5v.21c0 2.36 1.22 5 4.06 5a3.71 3.71 0 003.61-2.47l4.17 2.12c-1.18 2.85-4.27 4.69-8 4.69-5.1 0-8.72-4-8.72-9.38zM603 246.1c0-5.35 3.68-9.38 8.78-9.38 3.72 0 6.7 1.84 7.88 4.69l-4.17 2.12a3.71 3.71 0 00-3.61-2.47c-2.85 0-4.06 2.6-4.06 5v.21c0 2.36 1.22 5 4.06 5a3.71 3.71 0 003.61-2.47l4.17 2.12c-1.18 2.85-4.27 4.69-8 4.69-5.1 0-8.72-4-8.72-9.38zM626.11 247.76a4.27 4.27 0 004.41 3.54 6.52 6.52 0 004.58-1.7l2.33 3.54a10.87 10.87 0 01-7 2.43c-5 0-9.13-3.47-9.13-9.31v-.21c0-5.35 3.65-9.34 8.78-9.34 4.79 0 8.33 3.65 8.33 8.92v2.12zm0-3.54h7.33a3.49 3.49 0 00-3.58-3.44 3.63 3.63 0 00-3.71 3.44zM642.75 249.4a8.41 8.41 0 005.31 2.19c1.42 0 2.57-.38 2.57-1.46 0-.87-.69-1.21-2.22-1.6a31.07 31.07 0 01-4.51-1.28 4.89 4.89 0 01-3.19-4.72c0-3.89 3.44-5.8 7.47-5.8a10.43 10.43 0 017.19 2.57l-3 3.09a6.24 6.24 0 00-4.17-1.67c-1.28 0-2.57.45-2.57 1.53 0 .83.8 1.15 2.15 1.49a25.61 25.61 0 015.22 1.66 4.8 4.8 0 012.54 4.34c0 3.85-3.3 5.83-7.33 5.83a13.35 13.35 0 01-8.19-2.74zM660 249.4a8.41 8.41 0 005.31 2.19c1.42 0 2.57-.38 2.57-1.46 0-.87-.69-1.21-2.22-1.6a31.07 31.07 0 01-4.51-1.28 4.89 4.89 0 01-3.19-4.72c0-3.89 3.44-5.8 7.47-5.8a10.43 10.43 0 017.19 2.57l-3 3.09a6.24 6.24 0 00-4.17-1.67c-1.28 0-2.57.45-2.57 1.53 0 .83.8 1.15 2.15 1.49a25.61 25.61 0 015.21 1.67 4.8 4.8 0 012.54 4.34c0 3.85-3.3 5.83-7.33 5.83a13.35 13.35 0 01-8.19-2.74zM682.2 237.07h3.47v4.2h-3.47v14h-4.69v-14h-2.88v-4.2h2.88v-1.87c0-3.16 2.26-4.62 5.49-4.62a31.64 31.64 0 013.71.24l-.38 4a16.21 16.21 0 00-2.29-.17c-1.32 0-1.84.56-1.84 1.35zM703.56 255.23h-4.69v-1.56a6.16 6.16 0 01-4.62 1.91 6 6 0 01-6.29-6.25v-12.26h4.69v10.56c0 2.57 1.22 3.54 2.85 3.54 1.91 0 3.37-1.35 3.37-4.17v-9.93h4.69zM707.59 230.92h4.69v19.38c0 .76.42 1.18 1.39 1.18a9.25 9.25 0 001.77-.17l.38 4a38.52 38.52 0 01-4 .28c-2.64 0-4.27-1.39-4.27-4zM468.87 288.22H471l-5.21 9.58v6.62h-2v-6.62l-5.23-9.58h2.27l4 7.71zM481.67 298.65c0 3.47-2.13 6-5.32 6s-5.32-2.52-5.32-6 2.13-6 5.32-6 5.32 2.49 5.32 6zm-2 .07v-.14c0-2.31-1.16-4.28-3.36-4.28s-3.36 2-3.36 4.28v.14c0 2.27 1.16 4.26 3.36 4.26s3.39-1.98 3.39-4.26zM493.49 304.42h-1.9v-1.32a4 4 0 01-3.38 1.55 3.68 3.68 0 01-3.87-3.93v-7.85h1.9v7.24c0 2 1 2.8 2.38 2.8a2.9 2.9 0 003-3.19v-6.85h1.9zM502.8 294.56h-.3c-1.94 0-3.7.79-3.7 3.93v5.93h-1.9v-11.55h1.9v1.83a3.6 3.6 0 013.45-2h.56zM513.22 292.87v1.32a4 4 0 013.38-1.55c3 0 4.91 2.52 4.91 6s-1.92 6-4.91 6a4 4 0 01-3.38-1.55v4.84h-1.9v-15.06zm6.32 5.72c0-2.41-1.16-4.26-3.29-4.26s-3.06 1.46-3.06 3.38v1.87c0 1.92 1 3.38 3.06 3.38s3.29-1.85 3.29-4.26zM527.54 304.65c-2.29 0-4-1.34-4-3.5a3.23 3.23 0 013.08-3.26l4.07-.56v-.74c0-1.76-1.13-2.29-2.57-2.29a7 7 0 00-3.33.9l-.72-1.5a8.71 8.71 0 014.24-1.07c2.8 0 4.28 1.25 4.28 3.68v5.39a1.56 1.56 0 00.95 1.57l-1.07 1.37a2.29 2.29 0 01-1.55-1.39 4.29 4.29 0 01-3.38 1.4zm0-5.37c-1.27.19-2.11.6-2.11 1.78a2.13 2.13 0 002.36 2.08c1.41 0 2.85-.9 2.85-2.24v-2.08zM534.45 292.87h2.15l2.85 9.54 2.71-9.54h2.13l-4.21 13.29a2.78 2.78 0 01-3.06 2A13.65 13.65 0 01535 308l.28-1.67a8.8 8.8 0 001.53.16 1.31 1.31 0 001.46-1.16l.12-.53zM555.18 304.42h-1.9v-7.27c0-2.06-1-2.78-2.31-2.78s-2.55 1-2.55 3.22v6.83h-1.9v-11.55h1.9v1.32a3.55 3.55 0 013-1.55 3.42 3.42 0 013.13 1.92 4 4 0 013.52-1.92 3.72 3.72 0 013.93 3.86v7.92h-1.9v-7.27c0-2.06-1.11-2.78-2.36-2.78s-2.55 1-2.55 3.22zM566.72 299.23c.14 2.18 1.5 3.75 3.59 3.75a4.63 4.63 0 003-1.13l1 1.37a6.44 6.44 0 01-4.1 1.44c-3.36 0-5.49-2.52-5.49-6s2.06-6 5.25-6c3 0 4.93 2.52 4.93 6v.6zm0-1.53h6.11c-.07-1.78-1.06-3.4-2.89-3.4a3.36 3.36 0 00-3.2 3.41zM577.61 292.87h1.9v1.32a4 4 0 013.38-1.55 3.68 3.68 0 013.87 3.93v7.85h-1.9v-7.24c0-2-1-2.8-2.38-2.8a3 3 0 00-3 3.19v6.85h-1.9zM592.89 301.55c0 .76.14 1.41 1.48 1.41a10.05 10.05 0 001.43-.14l.21 1.67a16.83 16.83 0 01-2.06.16c-1.83 0-3-.72-3-2.68v-7.43h-2.18v-1.67H591v-3.77l1.9-.67v4.44h3.22v1.67h-3.22zM610.64 294.56h-.3c-1.94 0-3.7.79-3.7 3.93v5.93h-1.9v-11.55h1.9v1.83a3.6 3.6 0 013.45-2h.56zM614 299.23c.14 2.18 1.5 3.75 3.59 3.75a4.63 4.63 0 003-1.13l1 1.37a6.44 6.44 0 01-4.1 1.44c-3.36 0-5.49-2.52-5.49-6s2.06-6 5.25-6c3 0 4.93 2.52 4.93 6v.6zm0-1.53h6.11c-.07-1.78-1.06-3.4-2.89-3.4a3.36 3.36 0 00-3.22 3.41zM627.39 292.87h2.29v1.67h-2.29v9.88h-1.9v-9.88h-1.92v-1.67h1.92v-2.15c0-2 1.34-2.71 3.17-2.71a10.7 10.7 0 011.85.16l-.14 1.62c-.44 0-1.27-.09-1.64-.09-1.09 0-1.34.67-1.34 1.39zM633.06 299.23c.14 2.18 1.5 3.75 3.59 3.75a4.63 4.63 0 003-1.13l1 1.37a6.44 6.44 0 01-4.1 1.44c-3.36 0-5.49-2.52-5.49-6s2.06-6 5.25-6c3 0 4.93 2.52 4.93 6v.6zm0-1.53h6.11c-.07-1.78-1.06-3.4-2.89-3.4a3.36 3.36 0 00-3.2 3.41zM649.86 294.56h-.3c-1.94 0-3.7.79-3.7 3.93v5.93H644v-11.55h1.9v1.83a3.6 3.6 0 013.45-2h.56zM653.23 299.23c.14 2.18 1.5 3.75 3.59 3.75a4.63 4.63 0 003-1.13l1 1.37a6.44 6.44 0 01-4.1 1.44c-3.36 0-5.49-2.52-5.49-6s2.06-6 5.25-6c3 0 4.93 2.52 4.93 6v.6zm0-1.53h6.11c-.07-1.78-1.06-3.4-2.89-3.4a3.36 3.36 0 00-3.19 3.41zM664.13 292.87H666v1.32a4 4 0 013.38-1.55 3.68 3.68 0 013.87 3.93v7.85h-1.9v-7.24c0-2-1-2.8-2.38-2.8a3 3 0 00-3 3.19v6.85h-1.9zM678 298.7c0 2.31 1.13 4.28 3.36 4.28a3.3 3.3 0 003-1.94l1.57.9a4.9 4.9 0 01-4.56 2.71c-3.19 0-5.32-2.5-5.32-6s2.13-6 5.32-6a4.9 4.9 0 014.56 2.71l-1.57.9a3.3 3.3 0 00-3-1.94c-2.22 0-3.36 2-3.36 4.28zM689.65 299.23c.14 2.18 1.5 3.75 3.59 3.75a4.63 4.63 0 003-1.13l1 1.37a6.44 6.44 0 01-4.1 1.44c-3.36 0-5.49-2.52-5.49-6s2.06-6 5.25-6c3 0 4.93 2.52 4.93 6v.6zm0-1.53h6.11c-.07-1.78-1.06-3.4-2.89-3.4a3.36 3.36 0 00-3.19 3.41zM706.78 292.87h1.9v1.32a4 4 0 013.38-1.55 3.68 3.68 0 013.87 3.93v7.85H714v-7.24c0-2-1-2.8-2.38-2.8a3 3 0 00-3 3.19v6.85h-1.9zM728.31 304.42h-1.9v-1.32a4 4 0 01-3.38 1.55 3.68 3.68 0 01-3.87-3.93v-7.85h1.9v7.24c0 2 1 2.8 2.38 2.8a2.9 2.9 0 003-3.19v-6.85h1.9zM740.37 304.42h-1.9v-7.27c0-2.06-1-2.78-2.31-2.78s-2.55 1-2.55 3.22v6.83h-1.9v-11.55h1.9v1.32a3.55 3.55 0 013-1.55 3.42 3.42 0 013.13 1.92 4 4 0 013.52-1.92 3.72 3.72 0 013.89 3.87v7.92h-1.9v-7.27c0-2.06-1.11-2.78-2.36-2.78s-2.55 1-2.55 3.22zM752.45 304.42h-1.9v-16.2h1.9v6a4 4 0 013.38-1.55c3 0 4.91 2.52 4.91 6s-1.92 6-4.91 6a4 4 0 01-3.38-1.55zm6.32-5.83c0-2.41-1.16-4.26-3.29-4.26s-3.06 1.46-3.06 3.38v1.87c0 1.92 1 3.38 3.06 3.38s3.29-1.85 3.29-4.26zM764.95 299.23c.14 2.18 1.5 3.75 3.59 3.75a4.63 4.63 0 003-1.13l1 1.37a6.44 6.44 0 01-4.1 1.44c-3.36 0-5.49-2.52-5.49-6s2.06-6 5.25-6c3 0 4.93 2.52 4.93 6v.6zm0-1.53h6.11c-.07-1.78-1.06-3.4-2.89-3.4a3.36 3.36 0 00-3.17 3.41zM781.74 294.56h-.3c-1.94 0-3.7.79-3.7 3.93v5.93h-1.9v-11.55h1.9v1.83a3.6 3.6 0 013.45-2h.56zM791.23 288.22a1.41 1.41 0 011.39 1.41 1.4 1.4 0 11-2.8 0 1.42 1.42 0 011.41-1.41zm.93 16.2h-1.9v-11.55h1.9zM794.55 303l1.16-1.34a5.47 5.47 0 003.49 1.41c1.32 0 2.31-.6 2.31-1.74s-1.25-1.53-2.82-1.94-3.59-1-3.59-3.38c0-1.94 1.78-3.36 4.21-3.36a6.24 6.24 0 014 1.44l-1.11 1.27a4.23 4.23 0 00-2.85-1.11c-1.53 0-2.29.67-2.29 1.71 0 .83.65 1.25 1.67 1.53.6.16 1.3.37 1.9.56 1.55.49 2.82 1.3 2.82 3.15 0 2.38-2.11 3.47-4.35 3.47a6.94 6.94 0 01-4.55-1.67zM564.51 323.63h-7.13v6.83h-3.28v-16.2h3.29v6.41h7.13v-6.41h3.29v16.2h-3.29zM576.42 314.26v16.2h-3.36v-10.72h-2.94v-3h.65c1.94 0 2.41-.72 2.41-2.31v-.21zM586.68 330.46v-3.66h-8.08v-3.5l7.45-9H590v9.58h2.36v3H590v3.66zm0-6.62v-6.06l-5 6.06zM604.54 314.26v16.2h-3.36v-10.72h-2.94v-3h.65c1.94 0 2.41-.72 2.41-2.31v-.21zM610.22 325.5a3 3 0 003.1 2.24c2.06 0 2.78-1 2.78-2.08 0-1.27-.95-2-3.15-2h-1v-2.92h.76c2 0 3.08-.58 3.08-1.9 0-1.16-1-1.87-2.41-1.87a3.06 3.06 0 00-3 2.18l-3.08-.95c.65-2.8 3.38-4.19 6.09-4.19 3.33 0 5.83 1.74 5.83 4.63a3.4 3.4 0 01-2.66 3.38 3.72 3.72 0 013 3.73c0 3.29-2.71 4.93-6.23 4.93-3.08 0-5.81-1.44-6.39-4.35zM622.38 314.26h10.92v3h-7.64v3.45h7v3h-7v3.87h8.08v3h-11.36zM643.39 317.36h-8.22v-3.1h11.55v3.15l-6.27 13.05h-3.84zM667.62 325.44l2.27-11.18h3.56l-3.61 16.2h-4l-2.45-11.62-2.39 11.62h-4l-3.61-16.2h3.56l2.2 11.18 2.45-11.18h3.68zM683.77 325.23l-4.79-6v11.23h-3.29v-16.2H679l4.79 6.32 4.93-6.32h3.19v16.2h-3.29v-11.23l-4.77 6zM705.32 324.28v-10h3.24v10.53c0 3.61-2.78 5.93-6.6 5.93s-6.6-2.31-6.6-5.93v-10.58h3.24v10a3.36 3.36 0 106.71 0z"/></g><g><path class="cls-2" d="M427.44 391.29l1.82-9h2.86l-2.9 13H426l-2-9.29-1.93 9.33h-3.22l-2.9-13h2.86l1.77 9 2-9h3zM433.85 382.32h2.51v4.13a3.3 3.3 0 012.47-1 3.18 3.18 0 013.36 3.35v6.56h-2.51v-5.65c0-1.38-.65-1.9-1.52-1.9s-1.8.73-1.8 2.23v5.32h-2.51zM447.25 395.51a3.11 3.11 0 01-3.36-3 2.81 2.81 0 012.73-2.84l3-.41v-.32c0-.86-.58-1.25-1.52-1.25a6.54 6.54 0 00-2.86.78l-1-1.93a8.22 8.22 0 013.94-1.08c1.78 0 3.94.48 3.94 3.12v4.16c0 .58.32.78.84 1l-1.13 1.8a2.21 2.21 0 01-1.82-1.1 3.36 3.36 0 01-2.76 1.07zm.3-4.11c-.61.09-1 .45-1 1a1.18 1.18 0 001.32 1.13 1.62 1.62 0 001.73-1.78v-.67zM457.92 392.43c0 .46.2.82 1.08.82a6.21 6.21 0 001.24-.11l.22 2.21a20.06 20.06 0 01-2.3.17c-1.73 0-2.75-.76-2.75-2.47v-5.19h-1.75v-2.25h1.75v-2.75l2.51-.67v3.42h2.55v2.25h-2.55zM466.73 382.32h2.51v4.13a3.3 3.3 0 012.47-1 3.18 3.18 0 013.36 3.35v6.56h-2.51v-5.65c0-1.38-.65-1.9-1.52-1.9s-1.8.73-1.8 2.23v5.32h-2.51zM480.13 395.51a3.11 3.11 0 01-3.36-3 2.81 2.81 0 012.73-2.84l3-.41v-.32c0-.86-.58-1.25-1.52-1.25a6.54 6.54 0 00-2.86.78l-1-1.93a8.22 8.22 0 013.94-1.08c1.78 0 3.94.48 3.94 3.12v4.16c0 .58.32.78.84 1l-1.13 1.8a2.21 2.21 0 01-1.82-1.1 3.36 3.36 0 01-2.76 1.07zm.3-4.11c-.61.09-1 .45-1 1a1.18 1.18 0 001.32 1.13 1.62 1.62 0 001.73-1.78v-.67zM489.81 385.61v.84a3.22 3.22 0 012.45-1c2.57 0 4.28 2.12 4.28 5v.09c0 2.88-1.77 5-4.33 5a3.09 3.09 0 01-2.4-1v3.9h-2.51v-12.83zm-.07 5.76a1.83 1.83 0 002 1.82c1.43 0 2.21-1.13 2.21-2.68v-.09c0-1.54-.78-2.68-2.21-2.68a1.83 1.83 0 00-2 1.82zM500.91 385.61v.84a3.22 3.22 0 012.45-1c2.57 0 4.28 2.12 4.28 5v.09c0 2.88-1.77 5-4.33 5a3.09 3.09 0 01-2.4-1v3.9h-2.51v-12.83zm-.07 5.76a1.83 1.83 0 002 1.82c1.43 0 2.21-1.13 2.21-2.68v-.09c0-1.54-.78-2.68-2.21-2.68a1.83 1.83 0 00-2 1.82zM511.6 391.33a2.29 2.29 0 002.36 1.9 3.49 3.49 0 002.45-.91l1.25 1.9a5.81 5.81 0 01-3.77 1.3 4.73 4.73 0 01-4.89-5v-.11a4.7 4.7 0 014.7-5 4.45 4.45 0 014.46 4.78v1.13zm0-1.9h3.92a1.87 1.87 0 00-1.91-1.84 2 2 0 00-2 1.85zM519.94 385.61h2.51v.84a3.3 3.3 0 012.47-1 3.18 3.18 0 013.36 3.35v6.56h-2.51v-5.65c0-1.38-.65-1.9-1.52-1.9s-1.8.73-1.8 2.23v5.32h-2.51zM531.33 392.2a4.5 4.5 0 002.84 1.17c.76 0 1.38-.2 1.38-.78s-.37-.65-1.19-.86a16.59 16.59 0 01-2.42-.69 2.62 2.62 0 01-1.71-2.53c0-2.08 1.84-3.1 4-3.1a5.58 5.58 0 013.85 1.38l-1.6 1.65a3.34 3.34 0 00-2.23-.89c-.69 0-1.37.24-1.37.82s.43.61 1.15.8a13.7 13.7 0 012.79.89 2.57 2.57 0 011.36 2.32c0 2.06-1.77 3.12-3.92 3.12a7.15 7.15 0 01-4.39-1.47zM544.51 385.61H547v.84a3.3 3.3 0 012.47-1 3.18 3.18 0 013.36 3.35v6.56h-2.51v-5.65c0-1.38-.65-1.9-1.52-1.9s-1.8.73-1.8 2.23v5.32h-2.51zM557.22 391.33a2.29 2.29 0 002.36 1.9 3.49 3.49 0 002.45-.91l1.25 1.9a5.81 5.81 0 01-3.77 1.3 4.73 4.73 0 01-4.89-5v-.11a4.7 4.7 0 014.7-5 4.45 4.45 0 014.46 4.78v1.13zm0-1.9h3.92a1.87 1.87 0 00-1.91-1.84 2 2 0 00-1.99 1.85zM567.63 390.23l-3-4.63h2.9l1.49 2.62 1.56-2.62h2.92l-3 4.65 3.35 5.07h-3l-1.91-3-1.75 3h-2.92zM578.75 392.43c0 .46.2.82 1.08.82a6.21 6.21 0 001.24-.11l.22 2.21a20.06 20.06 0 01-2.3.17c-1.73 0-2.75-.76-2.75-2.47v-5.19h-1.75v-2.25h1.75v-2.75l2.51-.67v3.42h2.55v2.25h-2.55zM425 424.52l1.8-8.52h1.29l-2.3 10.3h-1.5l-2.19-8.41-2.18 8.41h-1.52l-2.26-10.3h1.28l1.82 8.52 2.18-8.52h1.37zM430.26 423a2.31 2.31 0 002.28 2.38 2.94 2.94 0 001.93-.72l.62.87a4.09 4.09 0 01-2.6.91c-2.13 0-3.49-1.6-3.49-3.81s1.31-3.83 3.34-3.83 3.13 1.6 3.13 3.81v.39zm0-1h3.88c0-1.13-.68-2.16-1.84-2.16a2.13 2.13 0 00-2.02 2.16zM441.15 416h1.21v3.8a2.53 2.53 0 012.15-1 2.34 2.34 0 012.46 2.5v5h-1.21v-4.6c0-1.29-.66-1.78-1.52-1.78a1.88 1.88 0 00-1.88 2v4.35h-1.21zM451.27 426.45a2.3 2.3 0 01-2.56-2.22 2.06 2.06 0 012-2.07l2.59-.35v-.47c0-1.12-.72-1.46-1.63-1.46a4.47 4.47 0 00-2.12.57l-.46-1a5.55 5.55 0 012.69-.68c1.78 0 2.72.79 2.72 2.34v3.43a1 1 0 00.6 1l-.68.87a1.45 1.45 0 01-1-.88 2.73 2.73 0 01-2.15.92zm0-3.41c-.81.12-1.34.38-1.34 1.13a1.36 1.36 0 001.5 1.32c.9 0 1.81-.57 1.81-1.43v-1.32zM458.31 426.3L456 419h1.37l1.77 6.22 1.75-6.22h1.37l-2.32 7.34zM464.52 423a2.31 2.31 0 002.28 2.38 2.94 2.94 0 001.93-.72l.62.87a4.09 4.09 0 01-2.6.91c-2.13 0-3.49-1.6-3.49-3.81s1.31-3.83 3.34-3.83 3.13 1.6 3.13 3.81v.39zm0-1h3.88c0-1.13-.68-2.16-1.84-2.16a2.13 2.13 0 00-2.03 2.16zM474.77 425.39l.74-.85a3.48 3.48 0 002.22.9c.84 0 1.47-.38 1.47-1.1s-.79-1-1.79-1.24-2.28-.63-2.28-2.15c0-1.24 1.13-2.13 2.68-2.13a4 4 0 012.55.91l-.71.81a2.69 2.69 0 00-1.81-.71c-1 0-1.46.43-1.46 1.09s.41.79 1.06 1l1.21.35c1 .31 1.79.82 1.79 2 0 1.51-1.34 2.21-2.77 2.21a4.41 4.41 0 01-2.9-1.09zM483.14 423a2.31 2.31 0 002.28 2.38 2.94 2.94 0 001.93-.72l.62.87a4.09 4.09 0 01-2.6.91c-2.13 0-3.49-1.6-3.49-3.81s1.31-3.83 3.34-3.83 3.13 1.6 3.13 3.81v.39zm0-1H487c0-1.13-.68-2.16-1.84-2.16a2.13 2.13 0 00-2 2.16zM490.17 419h1.21v.84a2.53 2.53 0 012.15-1 2.34 2.34 0 012.46 2.5v5h-1.21v-4.6c0-1.29-.66-1.78-1.52-1.78a1.89 1.89 0 00-1.88 2v4.35h-1.21zM500.18 424.48c0 .49.09.9.94.9a6.43 6.43 0 00.91-.09l.13 1.06a10.67 10.67 0 01-1.31.1c-1.16 0-1.88-.46-1.88-1.71V420h-1.38v-1H499v-2.4l1.21-.43V419h2v1h-2zM506.58 419h1.37l1.81 6.06 1.72-6.06h1.35l-2.68 8.44a1.76 1.76 0 01-1.94 1.29 8.57 8.57 0 01-1.31-.12l.18-1.06a5.59 5.59 0 001 .1.83.83 0 00.93-.74l.07-.34zM520.61 422.64c0 2.21-1.35 3.81-3.38 3.81s-3.38-1.6-3.38-3.81 1.35-3.83 3.38-3.83 3.38 1.59 3.38 3.83zm-1.25 0v-.09c0-1.47-.74-2.72-2.13-2.72s-2.13 1.25-2.13 2.72v.09c0 1.44.74 2.71 2.13 2.71s2.13-1.22 2.13-2.67zM528.28 426.3h-1.21v-.84a2.53 2.53 0 01-2.15 1 2.34 2.34 0 01-2.46-2.5v-5h1.21v4.6c0 1.29.66 1.78 1.51 1.78a1.84 1.84 0 001.88-2V419h1.21zM536.5 426.45a2.3 2.3 0 01-2.56-2.22 2.06 2.06 0 012-2.07l2.59-.35v-.47c0-1.12-.72-1.46-1.63-1.46a4.47 4.47 0 00-2.12.57l-.46-1a5.55 5.55 0 012.69-.68c1.78 0 2.72.79 2.72 2.34v3.43a1 1 0 00.6 1l-.68.87a1.45 1.45 0 01-1-.88 2.73 2.73 0 01-2.15.92zm0-3.41c-.81.12-1.34.38-1.34 1.13a1.36 1.36 0 001.5 1.32c.9 0 1.81-.57 1.81-1.43v-1.32zM546.7 422.67c0 1.47.72 2.72 2.13 2.72a2.1 2.1 0 001.9-1.24l1 .57a3.11 3.11 0 01-2.9 1.72c-2 0-3.38-1.59-3.38-3.81s1.35-3.83 3.38-3.83a3.11 3.11 0 012.9 1.72l-1 .57a2.1 2.1 0 00-1.9-1.24c-1.41 0-2.13 1.25-2.13 2.72zM559.81 422.64c0 2.21-1.35 3.81-3.38 3.81s-3.38-1.6-3.38-3.81 1.35-3.83 3.38-3.83 3.38 1.59 3.38 3.83zm-1.25 0v-.09c0-1.47-.74-2.72-2.13-2.72s-2.13 1.25-2.13 2.72v.09c0 1.44.74 2.71 2.13 2.71s2.13-1.22 2.13-2.67zM561.72 419h1.21v.84a2.53 2.53 0 012.15-1 2.34 2.34 0 012.46 2.5v5h-1.21v-4.6c0-1.29-.66-1.78-1.52-1.78a1.89 1.89 0 00-1.88 2v4.35h-1.21zM571.55 419H573v1h-1.46v6.28h-1.21V420h-1.22v-1h1.22v-1.37c0-1.27.85-1.72 2-1.72a6.82 6.82 0 011.18.1l-.09 1c-.28 0-.81-.06-1-.06-.69 0-.85.43-.85.88zM575.29 416a.9.9 0 01.88.9.89.89 0 11-1.78 0 .9.9 0 01.9-.9zm.59 10.3h-1.21V419h1.21zM582 420h-.19c-1.24 0-2.35.5-2.35 2.5v3.77h-1.21V419h1.21v1.16a2.29 2.29 0 012.19-1.29h.35zM589 426.3h-1.21v-4.62c0-1.31-.66-1.77-1.47-1.77s-1.62.62-1.62 2v4.34h-1.21V419h1.21v.84a2.26 2.26 0 011.93-1 2.18 2.18 0 012 1.22 2.51 2.51 0 012.24-1.22 2.37 2.37 0 012.47 2.46v5h-1.21v-4.62c0-1.31-.71-1.77-1.5-1.77s-1.62.62-1.62 2zM597.68 426.45a2.3 2.3 0 01-2.56-2.22 2.06 2.06 0 012-2.07l2.59-.35v-.47c0-1.12-.72-1.46-1.63-1.46a4.47 4.47 0 00-2.12.57l-.46-1a5.55 5.55 0 012.69-.68c1.78 0 2.72.79 2.72 2.34v3.43a1 1 0 00.6 1l-.68.87a1.45 1.45 0 01-1-.88 2.73 2.73 0 01-2.15.92zm0-3.41c-.81.12-1.34.38-1.34 1.13a1.36 1.36 0 001.5 1.32c.9 0 1.81-.57 1.81-1.43v-1.32zM605.11 424.48c0 .49.09.9.94.9a6.43 6.43 0 00.91-.09l.13 1.06a10.67 10.67 0 01-1.31.1c-1.16 0-1.88-.46-1.88-1.71V420h-1.38v-1h1.38v-2.4l1.21-.43V419h2v1h-2zM609.41 416a.9.9 0 01.88.9.89.89 0 11-1.78 0 .9.9 0 01.9-.9zm.59 10.3h-1.21V419H610zM618.68 422.64c0 2.21-1.35 3.81-3.38 3.81s-3.38-1.6-3.38-3.81 1.35-3.83 3.38-3.83 3.38 1.59 3.38 3.83zm-1.25 0v-.09c0-1.47-.74-2.72-2.13-2.72s-2.13 1.25-2.13 2.72v.09c0 1.44.74 2.71 2.13 2.71s2.13-1.22 2.13-2.67zM620.59 419h1.21v.84a2.53 2.53 0 012.15-1 2.34 2.34 0 012.46 2.5v5h-1.21v-4.6c0-1.29-.66-1.78-1.52-1.78a1.89 1.89 0 00-1.88 2v4.35h-1.21zM633.38 423a2.31 2.31 0 002.28 2.38 2.94 2.94 0 001.93-.72l.62.87a4.09 4.09 0 01-2.6.91c-2.13 0-3.49-1.6-3.49-3.81s1.31-3.83 3.34-3.83 3.13 1.6 3.13 3.81v.39zm0-1h3.88c0-1.13-.68-2.16-1.84-2.16a2.13 2.13 0 00-2.03 2.16zM645.91 426.3h-1.21v-4.62c0-1.31-.66-1.77-1.47-1.77s-1.62.62-1.62 2v4.34h-1.21V419h1.21v.84a2.26 2.26 0 011.93-1 2.18 2.18 0 012 1.22 2.51 2.51 0 012.24-1.22 2.37 2.37 0 012.47 2.46v5H649v-4.62c0-1.31-.71-1.77-1.5-1.77s-1.62.62-1.62 2zM654.55 426.45a2.3 2.3 0 01-2.56-2.22 2.06 2.06 0 012-2.07l2.59-.35v-.47c0-1.12-.72-1.46-1.63-1.46a4.47 4.47 0 00-2.12.57l-.46-1a5.55 5.55 0 012.69-.68c1.78 0 2.72.79 2.72 2.34v3.43a1 1 0 00.6 1l-.68.87a1.45 1.45 0 01-1-.88 2.73 2.73 0 01-2.15.92zm0-3.41c-.81.12-1.34.38-1.34 1.13a1.36 1.36 0 001.5 1.32c.9 0 1.81-.57 1.81-1.43v-1.32zM660.7 416a.9.9 0 01.88.9.89.89 0 11-1.78 0 .9.9 0 01.9-.9zm.59 10.3h-1.21V419h1.21zM663.6 416h1.21v8.65c0 .49.15.74.71.74h.75l.12 1a11.71 11.71 0 01-1.22.09c-.87 0-1.56-.38-1.56-1.44zM668.5 424.48a1 1 0 11-1 1 1 1 0 011-1zM416.87 450.46h5.2a4.13 4.13 0 014.37 4.31 4.28 4.28 0 01-4.57 4.31h-2.36v4.39h-2.64zm4.5 2.38h-1.86v3.87h1.86c1.45 0 2.36-.67 2.36-1.9v-.07c0-1.23-.91-1.9-2.36-1.9zM430.7 463.66a3.12 3.12 0 01-3.36-3 2.81 2.81 0 012.73-2.84l3-.41V457c0-.86-.58-1.25-1.52-1.25a6.54 6.54 0 00-2.86.78l-1-1.93a8.22 8.22 0 013.94-1.08c1.78 0 3.94.48 3.94 3.12v4.16c0 .58.32.78.84 1l-1.13 1.8a2.21 2.21 0 01-1.82-1.1 3.36 3.36 0 01-2.76 1.16zm.3-4.11c-.61.09-1 .45-1 1a1.18 1.18 0 001.32 1.13 1.62 1.62 0 001.68-1.78v-.67zM439.84 463.86l.07-.32h-.19l-3-9.79h2.79l1.78 6.73 1.75-6.73h2.75l-3.35 11.15c-.43 1.45-1.56 1.84-3 1.84a16.53 16.53 0 01-2.29-.19l.52-2.21a9 9 0 001.34.11.74.74 0 00.83-.59zM455.38 463.47h-2.51v-5.65c0-1.39-.65-1.88-1.47-1.88s-1.71.67-1.71 2.23v5.3h-2.51v-9.72h2.51v.85a3.26 3.26 0 012.49-1 2.81 2.81 0 012.51 1.32 3.42 3.42 0 012.94-1.32 3.25 3.25 0 013.46 3.27v6.64h-2.53v-5.65c0-1.39-.65-1.88-1.47-1.88s-1.71.67-1.71 2.23zM465.45 459.48a2.29 2.29 0 002.36 1.9 3.49 3.49 0 002.45-.91l1.25 1.9a5.81 5.81 0 01-3.77 1.3 4.73 4.73 0 01-4.89-5v-.11a4.7 4.7 0 014.7-5 4.45 4.45 0 014.46 4.78v1.13zm0-1.9h3.92a1.87 1.87 0 00-1.91-1.84 2 2 0 00-1.99 1.84zM473.79 453.75h2.51v.84a3.3 3.3 0 012.47-1 3.18 3.18 0 013.36 3.35v6.56h-2.51v-5.65c0-1.38-.65-1.9-1.52-1.9s-1.8.73-1.8 2.23v5.32h-2.51zM488 460.57c0 .46.2.82 1.08.82a6.21 6.21 0 001.24-.11l.22 2.21a20.06 20.06 0 01-2.3.17c-1.73 0-2.75-.76-2.75-2.47V456h-1.75v-2.25h1.75V451l2.51-.67v3.42h2.55V456H488zM497.58 460.35a4.5 4.5 0 002.84 1.17c.76 0 1.38-.2 1.38-.78s-.37-.65-1.19-.86a16.59 16.59 0 01-2.42-.69 2.62 2.62 0 01-1.71-2.53c0-2.08 1.84-3.1 4-3.1a5.58 5.58 0 013.85 1.38l-1.6 1.65a3.34 3.34 0 00-2.23-.89c-.69 0-1.37.24-1.37.82s.43.61 1.15.8a13.7 13.7 0 012.79.89 2.57 2.57 0 011.36 2.32c0 2.06-1.77 3.12-3.92 3.12a7.15 7.15 0 01-4.39-1.47zM514.53 463.47H512v-.84a3.3 3.3 0 01-2.47 1 3.18 3.18 0 01-3.36-3.35v-6.56h2.51v5.65c0 1.38.65 1.9 1.52 1.9s1.8-.72 1.8-2.23v-5.32h2.51zM525.07 463.47h-2.51v-5.65c0-1.39-.65-1.88-1.47-1.88s-1.71.67-1.71 2.23v5.3h-2.51v-9.72h2.51v.85a3.26 3.26 0 012.49-1 2.81 2.81 0 012.51 1.32 3.42 3.42 0 012.94-1.32 3.25 3.25 0 013.46 3.27v6.64h-2.53v-5.65c0-1.39-.65-1.88-1.47-1.88s-1.71.67-1.71 2.23zM541.24 463.47h-2.51v-5.65c0-1.39-.65-1.88-1.47-1.88s-1.71.67-1.71 2.23v5.3H533v-9.72h2.51v.85a3.26 3.26 0 012.49-1 2.81 2.81 0 012.51 1.32 3.42 3.42 0 012.94-1.32 3.25 3.25 0 013.46 3.27v6.64h-2.53v-5.65c0-1.39-.65-1.88-1.47-1.88s-1.71.67-1.71 2.23zM552 463.66a3.11 3.11 0 01-3.36-3 2.81 2.81 0 012.73-2.84l3-.41V457c0-.86-.58-1.25-1.52-1.25a6.54 6.54 0 00-2.86.78l-1-1.93a8.22 8.22 0 013.94-1.08c1.78 0 3.94.48 3.94 3.12v4.16c0 .58.32.78.84 1l-1.13 1.8a2.21 2.21 0 01-1.82-1.1 3.36 3.36 0 01-2.76 1.16zm.3-4.11c-.61.09-1 .45-1 1a1.18 1.18 0 001.32 1.13 1.62 1.62 0 001.73-1.78v-.67zM564.83 456.19h-.45c-1.43 0-2.7.48-2.7 2.57v4.72h-2.51v-9.72h2.51v1.1a3 3 0 012.58-1.26h.56zM568.51 463.86l.07-.32h-.19l-3-9.79h2.79l1.78 6.73 1.75-6.73h2.75l-3.35 11.15c-.43 1.45-1.56 1.84-3 1.84a16.51 16.51 0 01-2.29-.19l.52-2.21a9 9 0 001.34.11.74.74 0 00.83-.59z"/></g><g><path class="cls-2" d="M377.49 88.45h619.63v48.58H377.49z"/><path class="cls-1" d="M576.29 103.2l-8 9.7v-9.7h-4.53v22.4h4.53v-6.81l2.89-3.23 5.92 10.04h5.27l-8.28-13.5 7.78-8.9h-5.58zM548.37 121.53a4 4 0 01-1.47-.87 4.12 4.12 0 01-1-1.49 5.66 5.66 0 01-.36-2.12v-13.88h-4.48v14.56a8.21 8.21 0 00.68 3.39 7.39 7.39 0 001.9 2.58 8.63 8.63 0 002.89 1.64 11.83 11.83 0 007.31 0 8.56 8.56 0 002.88-1.64 7.43 7.43 0 001.89-2.58 8.2 8.2 0 00.68-3.39v-14.56h-4.45v13.89a5.69 5.69 0 01-.36 2.12 4.14 4.14 0 01-1 1.49 4 4 0 01-1.47.87 6 6 0 01-3.67 0M532 124.18a2.94 2.94 0 00.62.91 2.8 2.8 0 00.92.61 2.83 2.83 0 001.1.22 2.78 2.78 0 001.09-.22 2.83 2.83 0 00.91-.61 3 3 0 00.62-.91 2.74 2.74 0 00.23-1.11 2.63 2.63 0 00-.23-1.08 2.88 2.88 0 00-.62-.89 3 3 0 00-.91-.61 2.67 2.67 0 00-1.09-.23 2.72 2.72 0 00-1.1.23 3 3 0 00-.92.61 2.87 2.87 0 00-.62.89 2.64 2.64 0 00-.23 1.08 2.75 2.75 0 00.23 1.11M524.8 125.6l6.33-22.4h-5.01l-4.24 16.84h-.16l-4.33-16.84h-5.07l6.33 22.4h6.15zM497.3 121.27a5.3 5.3 0 01-1.88-1.54 6.94 6.94 0 01-1.15-2.33 10.53 10.53 0 01-.39-2.94v-.13a10.56 10.56 0 01.39-2.93 6.93 6.93 0 011.15-2.34 5.29 5.29 0 011.88-1.54 6.33 6.33 0 015.18 0 5.38 5.38 0 011.88 1.54 6.85 6.85 0 011.16 2.34 10.51 10.51 0 01.39 2.93v.13a10.48 10.48 0 01-.39 2.94 6.86 6.86 0 01-1.16 2.33 5.39 5.39 0 01-1.88 1.54 6.33 6.33 0 01-5.18 0m-1.9-17.49a10 10 0 00-3.36 2.45 10.68 10.68 0 00-2.11 3.66 14.36 14.36 0 000 9 10.8 10.8 0 002.11 3.66 9.81 9.81 0 003.36 2.45 11.75 11.75 0 009 0 9.78 9.78 0 003.37-2.45 10.8 10.8 0 002.11-3.66 14.39 14.39 0 000-9 10.69 10.69 0 00-2.11-3.66 9.93 9.93 0 00-3.37-2.45 11.68 11.68 0 00-9 0M470.67 114.31a10.52 10.52 0 01.36-2.76 7.11 7.11 0 011.09-2.35 5.51 5.51 0 011.88-1.63 5.63 5.63 0 012.72-.62 6 6 0 011.81.26 5.13 5.13 0 012.57 1.79 7.71 7.71 0 01.84 1.34l4-2.23a8.37 8.37 0 00-1.47-2.13 9.08 9.08 0 00-2.09-1.64 10.3 10.3 0 00-2.61-1 12.08 12.08 0 00-3-.37 10.6 10.6 0 00-4.43.9 10.12 10.12 0 00-3.37 2.45 11 11 0 00-2.16 3.66 13.19 13.19 0 00-.76 4.51 14.52 14.52 0 00.68 4.52 10.87 10.87 0 002 3.66 9.19 9.19 0 003.21 2.45 10.2 10.2 0 004.36.89 8.65 8.65 0 002-.22 8 8 0 001.71-.6 6.54 6.54 0 001.41-.92 5.52 5.52 0 001-1.2v2.63h4v-12.38H476.2v3.45h5.73v.23a5.67 5.67 0 01-.24 1.56 4.33 4.33 0 01-.84 1.57 4.68 4.68 0 01-1.61 1.21 5.81 5.81 0 01-2.52.48 5.63 5.63 0 01-2.72-.62 5.5 5.5 0 01-1.88-1.63 7.12 7.12 0 01-1.09-2.34 10.5 10.5 0 01-.36-2.77zM423.3 107.75a2 2 0 10-1.06-2.55 2 2 0 001.06 2.55M418.84 110.36a2 2 0 10-1.06-2.55 2 2 0 001.06 2.55M417.54 115.32a2 2 0 10-1.06-2.55 2 2 0 001.06 2.55M428.27 109.32a2 2 0 10-1.06-2.55 2 2 0 001.06 2.55M446.29 107.75a2 2 0 111.06-2.55 2 2 0 01-1.06 2.55M450.74 110.36a2 2 0 111.06-2.55 2 2 0 01-1.06 2.55M452 115.32a2 2 0 111.06-2.55 2 2 0 01-1.06 2.55M441.31 109.32a2 2 0 111.06-2.55 2 2 0 01-1.06 2.55M435.83 104.24l2.49 1.31v-3.67l-2.48.79a1.24 1.24 0 00-.24-.24l1-3.15H433l1 3.15a1.27 1.27 0 00-.24.24l-2.48-.79v3.67l2.49-1.31a1.32 1.32 0 00.26.25l-1.43 4.31a2.32 2.32 0 001.88 3h.58a2.32 2.32 0 002-2.29 2.35 2.35 0 00-.1-.68l-1.43-4.31a1.34 1.34 0 00.26-.25M434.79 125.33a94 94 0 0113.17.89c1.13-4.75 2.51-7.48 3.93-9.42l-2.68-1a4.89 4.89 0 010 2.86 5.42 5.42 0 01-1.19-2.44l-1.29 4.32a4 4 0 012.09-.91c-1.23 2.66-2.77 3.34-3.77 3.16a1.9 1.9 0 01-1.59-2.23c.28-1.31 1.62-1.65 2.25-.13 1.2-2.44-.83-3.21-2.14-2.48 2-2 2.24-3.79.62-5.94-2.26 1.73-2.29 3.44-1.27 5.84-1.32-1.51-3.37-.7-2.63 1.74 1-1.47 2.21-.55 2 .85-.17 1.22-1.78 2.2-3.78 2-2.87-.26-3-2.24-3.11-3.88.7-.13 2 .52 3.06 2l.4-4.58a4.46 4.46 0 01-3.44 1.5 13.41 13.41 0 012.22-3.26h-5.71a13.45 13.45 0 012.22 3.26 4.46 4.46 0 01-3.44-1.5l.4 4.58c1.09-1.52 2.36-2.18 3.06-2-.07 1.64-.24 3.62-3.11 3.88-2 .17-3.61-.81-3.78-2-.2-1.4 1.06-2.33 2-.85.74-2.44-1.31-3.25-2.63-1.74 1-2.41 1-4.12-1.27-5.84-1.62 2.15-1.39 3.94.62 5.94-1.31-.72-3.34 0-2.14 2.48.63-1.52 2-1.18 2.25.13a1.9 1.9 0 01-1.59 2.23c-1 .19-2.54-.5-3.77-3.16a4 4 0 012.09.91l-1.3-4.32a5.41 5.41 0 01-1.19 2.44 4.89 4.89 0 010-2.86l-2.67 1c1.42 1.94 2.8 4.66 3.93 9.41a94.18 94.18 0 0113.17-.89"/><path class="cls-3" d="M376.74 458.86h623.37v4.69H376.74z"/><g><circle class="cls-1" cx="395.71" cy="73.5" r="6.35"/><circle class="cls-1" cx="413.46" cy="73.5" r="6.35"/><circle class="cls-1" cx="431.21" cy="73.5" r="6.35"/></g><path class="cls-3" d="M376.74 88.45v-19.9a10 10 0 0110-10h603.37a10 10 0 0110 10v19.9"/><g><circle class="cls-1" cx="395.71" cy="73.5" r="6.35"/><circle class="cls-1" cx="413.46" cy="73.5" r="6.35"/><circle class="cls-1" cx="431.21" cy="73.5" r="6.35"/></g><path class="cls-3" d="M379.73 462.14V87.95h617.4v374.19h2.98V85.46H376.74v376.68h2.99z"/><path fill="#004a1e" d="M38.7 337.47h181.64v25.81H38.7z"/><path fill="#00823b" d="M38.7 334.49h181.64v25.81H38.7z"/><g><path class="cls-1" d="M64 342.76h4a3.16 3.16 0 013.34 3.29 3.27 3.27 0 01-3.49 3.29h-1.8v3.35H64zm3.44 1.82h-1.39v3h1.42c1.11 0 1.8-.51 1.8-1.45V346c.01-.91-.69-1.42-1.8-1.42zM76.87 347.14h-.34c-1.09 0-2.06.37-2.06 2v3.61h-1.91v-7.43h1.92v.84a2.3 2.3 0 012-1h.43zM84.87 349a3.65 3.65 0 11-7.3 0 3.65 3.65 0 117.3 0zm-2 0c0-1.21-.6-2.07-1.69-2.07s-1.68.87-1.69 2.07c0 1.21.6 2.07 1.69 2.07s1.68-.87 1.69-2.07zM85.89 349a3.61 3.61 0 013.59-3.83 3.34 3.34 0 013.22 1.92l-1.7.87a1.52 1.52 0 00-1.48-1c-1.17 0-1.66 1.06-1.66 2v.04c0 1 .5 2 1.66 2a1.52 1.52 0 001.48-1l1.7.87a3.4 3.4 0 01-3.25 1.92 3.59 3.59 0 01-3.56-3.79zM95.56 349.65a1.75 1.75 0 001.8 1.45 2.67 2.67 0 001.87-.7l1 1.45a4.44 4.44 0 01-2.88 1 3.61 3.61 0 01-3.78-3.85 3.59 3.59 0 013.59-3.82 3.4 3.4 0 013.41 3.65v.87zm0-1.45h3a1.43 1.43 0 00-1.46-1.41 1.49 1.49 0 00-1.52 1.41zM103.54 349.65a1.75 1.75 0 001.8 1.45 2.67 2.67 0 001.87-.7l1 1.45a4.44 4.44 0 01-2.88 1 3.61 3.61 0 01-3.73-3.81V349a3.59 3.59 0 013.59-3.82 3.4 3.4 0 013.41 3.65v.87zm0-1.45h3a1.43 1.43 0 00-1.46-1.41 1.49 1.49 0 00-1.52 1.41zM109.55 349c0-2.2 1.31-3.82 3.27-3.82a2.46 2.46 0 011.87.78v-3.15h1.92v9.94h-1.92v-.64a2.36 2.36 0 01-1.83.78c-2 0-3.31-1.62-3.31-3.82zm5.2-.65a1.4 1.4 0 00-1.53-1.39c-1.09 0-1.69.87-1.69 2v.04c0 1.18.6 2 1.69 2a1.4 1.4 0 001.53-1.39zM124.27 350.49c0 .36.16.62.82.62a4.75 4.75 0 001-.08l.17 1.69a15.35 15.35 0 01-1.76.13c-1.32 0-2.1-.58-2.1-1.89v-4H121v-1.72h1.33v-2.1l1.92-.51v2.61h1.95V347h-1.95zM134.48 349a3.65 3.65 0 11-7.3 0 3.65 3.65 0 117.3 0zm-2 0c0-1.21-.6-2.07-1.69-2.07s-1.68.87-1.69 2.07c0 1.21.6 2.07 1.69 2.07s1.68-.87 1.69-2.07zM141.24 345.28v.64a2.46 2.46 0 011.87-.78c2 0 3.27 1.62 3.27 3.82v.04c0 2.2-1.35 3.82-3.31 3.82a2.36 2.36 0 01-1.83-.78v3h-1.92v-9.77zm-.06 4.4a1.4 1.4 0 001.53 1.39c1.09 0 1.69-.87 1.69-2V349c0-1.18-.6-2-1.69-2a1.4 1.4 0 00-1.53 1.39zM149.93 352.85a2.38 2.38 0 01-2.57-2.33 2.15 2.15 0 012.09-2.17l2.26-.31v-.24c0-.65-.44-1-1.16-1a5 5 0 00-2.19.6l-.76-1.4a6.27 6.27 0 013-.82c1.36 0 3 .37 3 2.39v3.18c0 .44.24.6.64.77l-.87 1.38a1.69 1.69 0 01-1.37-.9 2.57 2.57 0 01-2.07.85zm.23-3.14c-.47.07-.78.34-.78.77a.9.9 0 001 .87 1.24 1.24 0 001.32-1.36v-.51zM156.92 353l.06-.24h-.14l-2.29-7.48h2.13l1.36 5.14 1.33-5.14h2.1l-2.56 8.52c-.33 1.11-1.19 1.41-2.31 1.41a12.63 12.63 0 01-1.75-.14l.4-1.69a6.89 6.89 0 001 .08.56.56 0 00.67-.46zM168.79 352.7h-1.92v-4.32c0-1.06-.5-1.43-1.12-1.43s-1.31.51-1.31 1.7v4h-1.92v-7.43h1.92v.65a2.49 2.49 0 011.9-.8 2.15 2.15 0 011.92 1 2.62 2.62 0 012.24-1 2.49 2.49 0 012.64 2.5v5.07h-1.93v-4.32c0-1.06-.5-1.43-1.12-1.43s-1.31.51-1.31 1.7zM176.49 349.65a1.75 1.75 0 001.8 1.45 2.67 2.67 0 001.87-.7l1 1.45a4.44 4.44 0 01-2.88 1 3.61 3.61 0 01-3.78-3.85 3.59 3.59 0 013.59-3.82 3.4 3.4 0 013.41 3.65v.87zm0-1.45h3a1.43 1.43 0 00-1.49-1.4 1.49 1.49 0 00-1.5 1.4zM182.86 345.28h1.92v.64a2.52 2.52 0 011.89-.78 2.43 2.43 0 012.57 2.56v5h-1.92v-4.32c0-1.05-.5-1.45-1.16-1.45s-1.38.55-1.38 1.7v4.06h-1.92zM193.71 350.49c0 .36.16.62.82.62a4.75 4.75 0 001-.08l.17 1.69a15.35 15.35 0 01-1.76.13c-1.32 0-2.1-.58-2.1-1.89v-4h-1.33v-1.72h1.33v-2.1l1.92-.51v2.61h1.95V347h-1.95z"/></g><path fill="#8c8c8c" stroke="#b4b4b4" stroke-miterlimit="10" stroke-width="8" d="M42.51 256.06v54.29"/><g><path class="cls-2" d="M70.11 279a3.69 3.69 0 00-3.23-1.67c-2 0-3.44 1.56-3.44 4v3h4.39v2h-4.39v6.16h8.42v2H59.75v-2h1.4v-6.16h-1.4v-2h1.4v-2.91c0-3.77 2.26-6 5.7-6A5.89 5.89 0 0172 277.7zM77.59 289.62a4.26 4.26 0 004.36 3.07c2.74 0 4-1.59 4-3.5 0-2.1-1.56-3.28-4.41-3.28h-.83v-2h.46c2.45 0 4.47-.86 4.47-3.25 0-2.21-1.72-3.26-3.66-3.26a4.33 4.33 0 00-4.14 2.85l-2.13-.81a6.32 6.32 0 016.29-4.08c3.28 0 6 2.1 6 5a4.23 4.23 0 01-3.5 4.33 4.42 4.42 0 013.85 4.57c0 3.66-3.07 5.41-6.51 5.41-3 0-5.57-1.4-6.62-4.36zM94.84 275.79v-.19h2.26v18.83h-2.34v-13.77h-3.47v-2h.35c2.47-.02 3.2-.88 3.2-2.87zM103.47 291.1a1.8 1.8 0 11-1.8 1.8 1.8 1.8 0 011.8-1.8zM122.25 285c0 4.87-1.77 9.66-6.83 9.66s-6.83-4.79-6.83-9.66 1.78-9.68 6.83-9.68 6.83 4.83 6.83 9.68zm-2.45.54v-1.1c0-4.52-1.75-7.1-4.38-7.1S111 280 111 284.48v1.1c0 4.52 1.75 7.1 4.39 7.1s4.41-2.58 4.41-7.1zM139.42 285c0 4.87-1.77 9.66-6.83 9.66s-6.83-4.79-6.83-9.66 1.78-9.68 6.83-9.68 6.83 4.83 6.83 9.68zm-2.45.54v-1.1c0-4.52-1.75-7.1-4.38-7.1s-4.39 2.58-4.39 7.1v1.1c0 4.52 1.75 7.1 4.39 7.1s4.41-2.54 4.41-7.06z"/></g><g><path class="cls-2" d="M40.15 230.47h5a4 4 0 014.22 4.16 4.13 4.13 0 01-4.37 4.16h-2.3V243h-2.55zm4.34 2.3H42.7v3.73h1.8c1.4 0 2.28-.65 2.28-1.83v-.07c-.01-1.19-.89-1.84-2.28-1.84zM53.5 243.2a3 3 0 01-3.25-2.94 2.71 2.71 0 012.64-2.74l2.85-.39v-.3c0-.83-.56-1.2-1.47-1.2a6.32 6.32 0 00-2.76.75l-1-1.87a7.93 7.93 0 013.8-1c1.72 0 3.8.47 3.8 3v4c0 .56.3.75.81 1l-1.09 1.74a2.13 2.13 0 01-1.76-1.06 3.24 3.24 0 01-2.57 1.01zm.29-4c-.59.09-1 .43-1 1a1.14 1.14 0 001.27 1.09 1.57 1.57 0 001.67-1.72v-.65zM62.32 243.4l.07-.3h-.18l-2.89-9.45H62l1.72 6.49 1.69-6.49h2.65l-3.23 10.76c-.41 1.4-1.51 1.78-2.92 1.78a15.91 15.91 0 01-2.21-.18l.5-2.13a8.71 8.71 0 001.29.11.71.71 0 00.83-.59zM77.32 243H74.9v-5.45c0-1.35-.63-1.81-1.42-1.81s-1.65.65-1.65 2.15V243h-2.42v-9.38h2.42v.83a3.14 3.14 0 012.4-1 2.71 2.71 0 012.42 1.27 3.31 3.31 0 012.83-1.27 3.14 3.14 0 013.34 3.16V243h-2.43v-5.45c0-1.35-.63-1.81-1.42-1.81s-1.65.65-1.65 2.15zM87 239.17a2.21 2.21 0 002.32 1.83 3.37 3.37 0 002.37-.88l1.2 1.83a5.61 5.61 0 01-3.64 1.26 4.56 4.56 0 01-4.72-4.81v-.11a4.54 4.54 0 014.54-4.83 4.3 4.3 0 014.31 4.61v1.09zm0-1.83h3.78a1.8 1.8 0 00-1.78-1.78 1.88 1.88 0 00-1.94 1.78zM95.09 233.64h2.42v.81a3.18 3.18 0 012.39-1 3.07 3.07 0 013.25 3.23V243h-2.42v-5.45c0-1.33-.63-1.83-1.47-1.83s-1.74.7-1.74 2.15V243h-2.43zM108.8 240.23c0 .45.2.79 1 .79a6 6 0 001.2-.11l.21 2.13a19.36 19.36 0 01-2.22.16c-1.67 0-2.65-.74-2.65-2.39v-5h-1.69v-2.17h1.69V231l2.42-.65v3.3h2.46v2.17h-2.42zM120 243.2a3 3 0 01-3.25-2.94 2.71 2.71 0 012.64-2.74l2.85-.39v-.3c0-.83-.56-1.2-1.47-1.2a6.32 6.32 0 00-2.76.75l-1-1.87a7.93 7.93 0 013.8-1c1.72 0 3.8.47 3.8 3v4c0 .56.3.75.81 1l-1.09 1.74a2.13 2.13 0 01-1.76-1.06 3.24 3.24 0 01-2.57 1.01zm.29-4c-.59.09-1 .43-1 1a1.14 1.14 0 001.27 1.09 1.57 1.57 0 001.67-1.72v-.65zM134.82 243h-2.42v-5.45c0-1.35-.63-1.81-1.42-1.81s-1.65.65-1.65 2.15V243h-2.42v-9.38h2.42v.83a3.14 3.14 0 012.4-1 2.71 2.71 0 012.42 1.27 3.31 3.31 0 012.83-1.27 3.14 3.14 0 013.34 3.16V243h-2.44v-5.45c0-1.35-.63-1.81-1.42-1.81s-1.65.65-1.65 2.15zM151.25 238.34a4.62 4.62 0 11-9.22 0 4.62 4.62 0 119.22 0zm-2.48 0c0-1.52-.75-2.62-2.13-2.62s-2.12 1.09-2.13 2.62c0 1.53.75 2.62 2.13 2.62s2.12-1.09 2.13-2.62zM161 243h-2.42v-.81a3.18 3.18 0 01-2.39 1A3.07 3.07 0 01153 240v-6.33h2.42v5.45c0 1.33.63 1.83 1.47 1.83s1.74-.7 1.74-2.15v-5.13H161zM163.27 233.64h2.42v.81a3.18 3.18 0 012.39-1 3.07 3.07 0 013.25 3.23V243h-2.43v-5.45c0-1.33-.63-1.83-1.47-1.83s-1.74.7-1.74 2.15V243h-2.42zM177 240.23c0 .45.2.79 1 .79a6 6 0 001.2-.11l.21 2.13a19.36 19.36 0 01-2.22.16c-1.67 0-2.65-.74-2.65-2.39v-5h-1.69v-2.17h1.69V231l2.42-.65v3.3h2.46v2.17H177z"/></g><g><path class="cls-2" d="M40.85 108.46h7.53a6 6 0 016.32 6.24c0 3.58-2.69 6.24-6.62 6.24h-3.41v6.35h-3.82zm6.51 3.44h-2.69v5.6h2.69c2.1 0 3.42-1 3.42-2.74v-.11c0-1.78-1.32-2.74-3.42-2.74zM60.87 127.56c-2.56 0-4.87-1.61-4.87-4.41 0-2.26 1.48-3.77 4-4.12l4.28-.59V118c0-1.24-.83-1.8-2.21-1.8a9.47 9.47 0 00-4.14 1.13l-1.43-2.8a11.89 11.89 0 015.7-1.56c2.58 0 5.7.7 5.7 4.52v6c0 .83.46 1.13 1.21 1.45l-1.64 2.61A3.2 3.2 0 0164.8 126a4.86 4.86 0 01-3.93 1.56zm.43-5.94c-.89.13-1.48.65-1.48 1.45a1.71 1.71 0 001.91 1.64 2.35 2.35 0 002.5-2.58v-1zM74.11 127.86l.11-.46h-.27l-4.33-14.18h4l2.61 9.78 2.53-9.74h4l-4.86 16.1c-.62 2.1-2.26 2.66-4.39 2.66a23.76 23.76 0 01-3.31-.27l.75-3.2a13 13 0 001.94.16 1.07 1.07 0 001.22-.85zM95.53 113.22h2.69v3.25h-2.69v10.81h-3.64v-10.8h-2.23v-3.25h2.23v-1.45c0-2.45 1.75-3.58 4.25-3.58a24.59 24.59 0 012.88.19l-.3 3.09a12.52 12.52 0 00-1.77-.13c-1 0-1.43.43-1.43 1zM113.44 120.27c0 4.17-2.77 7.29-6.91 7.29s-6.91-3.15-6.91-7.29c0-4.14 2.74-7.29 6.91-7.29s6.91 3.15 6.91 7.29zm-3.71 0c0-2.29-1.13-3.93-3.2-3.93s-3.17 1.64-3.2 3.93c0 2.29 1.13 3.93 3.2 3.93s3.17-1.64 3.2-3.93zM124.29 116.75h-.65c-2.07 0-3.9.7-3.9 3.71v6.83h-3.63v-14.07h3.63v1.59a4.36 4.36 0 013.74-1.83h.81zM135.53 121.51a3.31 3.31 0 003.42 2.74 5.05 5.05 0 003.55-1.32l1.8 2.74a8.42 8.42 0 01-5.46 1.88 6.84 6.84 0 01-7.07-7.21v-.16c0-4.14 2.82-7.24 6.81-7.24 3.71 0 6.46 2.82 6.46 6.91v1.64zm0-2.74h5.68a2.71 2.71 0 00-2.77-2.66 2.81 2.81 0 00-2.88 2.66zM150.6 119.92l-4.28-6.7h4.2l2.15 3.79 2.26-3.79h4.22l-4.36 6.72 4.84 7.34h-4.28l-2.77-4.3-2.53 4.3h-4.22zM165.34 127.56c-2.56 0-4.87-1.61-4.87-4.41 0-2.26 1.48-3.77 4-4.12l4.28-.59V118c0-1.24-.83-1.8-2.21-1.8a9.47 9.47 0 00-4.14 1.13l-1.43-2.8a11.89 11.89 0 015.7-1.56c2.58 0 5.7.7 5.7 4.52v6c0 .83.46 1.13 1.21 1.45l-1.64 2.61a3.2 3.2 0 01-2.64-1.59 4.86 4.86 0 01-3.96 1.6zm.43-5.94c-.89.13-1.48.65-1.48 1.45a1.71 1.71 0 001.91 1.64 2.35 2.35 0 002.5-2.58v-1zM187.59 127.29H184v-8.18c0-2-.94-2.72-2.13-2.72-1.4 0-2.47 1-2.47 3.23v7.67h-3.63v-14.07h3.63v1.24A4.71 4.71 0 01183 113a4.07 4.07 0 013.63 1.91 5 5 0 014.25-1.91 4.71 4.71 0 015 4.73v9.6h-3.66v-8.18c0-2-.94-2.72-2.13-2.72-1.4 0-2.47 1-2.47 3.23zM202.77 113.22v1.21a4.65 4.65 0 013.55-1.48c3.71 0 6.19 3.07 6.19 7.24v.13c0 4.17-2.56 7.24-6.27 7.24a4.47 4.47 0 01-3.47-1.48v5.65h-3.63v-18.51zm-.11 8.34a2.65 2.65 0 002.91 2.64c2.07 0 3.2-1.64 3.2-3.87v-.13c0-2.23-1.13-3.87-3.2-3.87a2.65 2.65 0 00-2.91 2.64zM215.15 108.46h3.63v15c0 .59.32.91 1.08.91a7.2 7.2 0 001.37-.13l.3 3.09a29.89 29.89 0 01-3.07.22c-2 0-3.31-1.08-3.31-3.09zM226.26 121.51a3.31 3.31 0 003.42 2.74 5.05 5.05 0 003.55-1.32l1.8 2.74a8.42 8.42 0 01-5.46 1.88 6.84 6.84 0 01-7.07-7.21v-.16c0-4.14 2.82-7.24 6.81-7.24 3.71 0 6.46 2.82 6.46 6.91v1.64zm0-2.74H232a2.71 2.71 0 00-2.77-2.66 2.81 2.81 0 00-2.95 2.66zM245.63 122.77a6.52 6.52 0 004.11 1.69c1.1 0 2-.3 2-1.13 0-.67-.54-.94-1.72-1.24a24.13 24.13 0 01-3.5-1 3.78 3.78 0 01-2.47-3.66c0-3 2.66-4.49 5.78-4.49a8.08 8.08 0 015.57 2l-2.31 2.39a4.84 4.84 0 00-3.23-1.29c-1 0-2 .35-2 1.18 0 .65.62.89 1.67 1.16a19.81 19.81 0 014 1.29 3.72 3.72 0 012 3.36c0 3-2.56 4.52-5.68 4.52a10.34 10.34 0 01-6.35-2.13zM261.24 121.51a3.31 3.31 0 003.42 2.74 5.05 5.05 0 003.55-1.32l1.8 2.74a8.42 8.42 0 01-5.46 1.88 6.84 6.84 0 01-7.07-7.21v-.16c0-4.14 2.82-7.24 6.81-7.24 3.71 0 6.46 2.82 6.46 6.91v1.64zm0-2.74h5.68a2.71 2.71 0 00-2.77-2.66 2.81 2.81 0 00-2.89 2.66zM281.49 116.75h-.65c-2.07 0-3.9.7-3.9 3.71v6.83h-3.63v-14.07h3.63v1.59a4.36 4.36 0 013.74-1.83h.81zM286.74 127.29l-4.3-14.07h4l2.53 9.68 2.58-9.68h4l-4.28 14.07zM299.44 107.79a2.29 2.29 0 11-2.29 2.29 2.28 2.28 0 012.29-2.29zm1.83 19.5h-3.63v-14.07h3.63zM303.94 120.22c0-4.14 2.85-7.26 6.81-7.26a6.33 6.33 0 016.11 3.63l-3.23 1.64a2.87 2.87 0 00-2.8-1.91c-2.21 0-3.15 2-3.15 3.87v.16c0 1.83.94 3.85 3.15 3.85a2.87 2.87 0 002.8-1.91l3.23 1.64a6.44 6.44 0 01-6.16 3.63c-4 0-6.75-3.12-6.75-7.26zM322.26 121.51a3.31 3.31 0 003.42 2.74 5.05 5.05 0 003.55-1.32l1.8 2.74a8.42 8.42 0 01-5.46 1.88 6.84 6.84 0 01-7.07-7.21v-.16c0-4.14 2.82-7.24 6.81-7.24 3.71 0 6.46 2.82 6.46 6.91v1.64zm0-2.74H328a2.71 2.71 0 00-2.77-2.66 2.81 2.81 0 00-2.95 2.66z"/></g></g></g></svg>