<svg xmlns="http://www.w3.org/2000/svg" viewBox="0 0 1833.22 1284.47"><defs><style>.cls-1{fill:#fff}.cls-2{fill:#1a171b}.cls-13,.cls-3,.cls-4,.cls-7{fill:none}.cls-3{stroke:#dadada;stroke-width:3px}.cls-13,.cls-3,.cls-4,.cls-7{stroke-miterlimit:10}.cls-4{stroke:#1d1d1b}.cls-4,.cls-7{stroke-width:.5px}.cls-5{fill:#a3a3a3}.cls-7{stroke:#9c9b9b}.cls-8{fill:#1d1d1b}.cls-9{fill:#dadada}.cls-10{fill:#1d70b7}.cls-11{fill:#0b0b0b}.cls-13{stroke:#a3a3a3;stroke-width:8px}</style></defs><g id="Layer_2" data-name="Layer 2"><path class="cls-1" d="M0 0h965.98v1284.47H0z"/><path class="cls-2" d="M111.38 108.79H98.79l-1.53 5.09h-6.93l10.59-32.39h8.6l10.73 32.39H113zM100.55 103h9.07l-4.49-14.62H105zM130.07 89.68v2.08a8 8 0 016.11-2.54c6.38 0 10.64 5.27 10.64 12.45v.23c0 7.17-4.4 12.44-10.78 12.44a7.69 7.69 0 01-6-2.54v9.72h-6.25V89.68zm-.19 14.32c0 2.59 1.94 4.53 5 4.53 3.56 0 5.51-2.82 5.51-6.66v-.23c0-3.84-1.94-6.66-5.51-6.66-3.05 0-5 1.94-5 4.53zM157.69 89.68v2.08a8 8 0 016.11-2.54c6.38 0 10.64 5.27 10.64 12.45v.23c0 7.17-4.4 12.44-10.78 12.44a7.69 7.69 0 01-6-2.54v9.72h-6.25V89.68zM157.5 104c0 2.59 1.94 4.53 5 4.53 3.56 0 5.51-2.82 5.51-6.66v-.23c0-3.84-1.94-6.66-5.51-6.66-3.05 0-5 1.94-5 4.53zM179 81.49h6.25v25.82c0 1 .56 1.57 1.85 1.57a12.38 12.38 0 002.36-.23l.51 5.32a51.41 51.41 0 01-5.27.37c-3.52 0-5.69-1.85-5.69-5.32zM195.95 80.33a3.93 3.93 0 11-3.95 3.94 3.93 3.93 0 013.95-3.94zm3.15 33.54h-6.25V89.68h6.25zM203.67 101.71c0-7.13 4.9-12.49 11.7-12.49 5 0 8.93 2.45 10.5 6.25l-5.55 2.82a4.94 4.94 0 00-4.8-3.29c-3.79 0-5.41 3.47-5.41 6.66v.28c0 3.15 1.62 6.62 5.41 6.62a4.94 4.94 0 004.81-3.28l5.55 2.82c-1.57 3.79-5.69 6.25-10.59 6.25-6.8 0-11.61-5.37-11.61-12.49zM237.12 114.34c-4.4 0-8.37-2.78-8.37-7.59 0-3.89 2.54-6.48 6.8-7.08l7.36-1v-.79c0-2.13-1.43-3.1-3.79-3.1a16.3 16.3 0 00-7.12 1.93l-2.45-4.81a20.44 20.44 0 019.81-2.68c4.44 0 9.81 1.2 9.81 7.77v10.36c0 1.43.79 1.94 2.08 2.5l-2.82 4.49a5.5 5.5 0 01-4.53-2.73c-1.55 1.85-3.9 2.73-6.78 2.73zm.74-10.22c-1.53.23-2.54 1.11-2.54 2.5s1.2 2.82 3.29 2.82c2.92 0 4.3-1.94 4.3-4.44v-1.67zM263.68 106.66c0 1.16.51 2 2.68 2a15.38 15.38 0 003.1-.28l.55 5.51a49.93 49.93 0 01-5.74.42c-4.3 0-6.85-1.9-6.85-6.15V95.28h-4.35v-5.6h4.35v-6.85l6.25-1.67v8.51H270v5.6h-6.34zM277.51 80.33a3.93 3.93 0 11-3.93 3.93 3.93 3.93 0 013.93-3.93zm3.15 33.54h-6.25V89.68h6.25zM309 101.8c0 7.17-4.76 12.54-11.89 12.54s-11.89-5.41-11.89-12.54c0-7.12 4.72-12.54 11.89-12.54S309 94.63 309 101.75zm-6.38 0c0-3.93-1.94-6.75-5.51-6.75s-5.46 2.82-5.51 6.75c0 3.93 1.94 6.75 5.51 6.75s5.46-2.82 5.51-6.75zM313.6 89.68h6.25v2.08a8.21 8.21 0 016.15-2.54 7.93 7.93 0 018.37 8.33v16.33h-6.25V99.81c0-3.42-1.62-4.72-3.79-4.72-2.54 0-4.49 1.8-4.49 5.55v13.23h-6.24zM359.58 89.68h4.63v5.6h-4.63v18.6h-6.25v-18.6h-3.83v-5.6h3.84v-2.5c0-4.21 3-6.15 7.31-6.15a42 42 0 015 .32l-.51 5.32a21.54 21.54 0 00-3.05-.23c-1.76 0-2.45.74-2.45 1.8zM390.4 101.8c0 7.17-4.76 12.54-11.89 12.54s-11.89-5.41-11.89-12.54c0-7.12 4.72-12.54 11.89-12.54s11.89 5.41 11.89 12.54zm-6.38 0c0-3.93-1.94-6.75-5.51-6.75s-5.51 2.77-5.51 6.7 1.94 6.75 5.51 6.75 5.46-2.82 5.51-6.75zM409 95.74h-1.11c-3.56 0-6.71 1.2-6.71 6.38v11.75H395V89.68h6.25v2.73a7.5 7.5 0 016.43-3.15H409zM433.33 113.88h-6.25V99.81c0-3.47-1.62-4.67-3.65-4.67-2.41 0-4.26 1.67-4.26 5.55v13.19h-6.25v-24.2h6.25v2.13a8.11 8.11 0 016.2-2.59 7 7 0 016.25 3.28c1.71-2.41 4.44-3.28 7.31-3.28 5.41 0 8.61 3.84 8.61 8.14v16.52h-6.29V99.81c0-3.47-1.62-4.67-3.65-4.67-2.41 0-4.26 1.67-4.26 5.55z"/><path d="M89.59 162.85h4.78v93.01h-4.78zM97.35 162.85h2.2v93.01h-2.2zM105.09 162.85h7.36v93.01h-7.36zM118.01 162.85h9.95v93.01h-9.95zM130.93 162.85h2.2v93.01h-2.2zM136.1 162.85h7.36v93.01h-7.36zM169.29 255.85h-4.78v-93h4.78zm-7.75 0h-4.78v-93h4.78zm-10.33 0h-4.78v-93h4.78zM184.8 255.85h-2.2v-93h2.2zm-7.75 0h-2.2v-93H177zM192.93 162.85h4.78v93.01h-4.78zM203.27 162.85h7.36v93.01h-7.36zM213.6 162.85h9.95v93.01h-9.95zM233.88 255.85h-2.2v-93h2.2zm-5.17 0h-2.2v-93h2.2zM236.85 162.85h4.78v93.01h-4.78zM247.19 162.85h7.36v93.01h-7.36zM272.63 255.85h-2.2v-93h2.2zm-10.33 0h-2.2v-93h2.2zM275.61 162.85h4.78v93.01h-4.78zM288.52 162.85h7.36v93.01h-7.36zM304.02 162.85h2.2v93.01h-2.2zM321.72 255.85h-4.78v-93h4.78zm-7.75 0h-4.78v-93H314zM352.72 255.85h-2.2v-93h2.2zm-5.17 0h-2.2v-93h2.2zm-7.75 0h-2.2v-93h2.2zm-5.17 0h-2.2v-93h2.2zM360.86 162.85h9.95v93.01h-9.95zM383.73 255.85h-2.2v-93h2.2zm-7.75 0h-2.2v-93H376zM407 255.85h-4.8v-93h4.8zm-12.92 0h-4.78v-93h4.78zM415.11 162.85h7.36v93.01h-7.36zM425.45 162.85h2.2v93.01h-2.2zM430.61 162.85h4.78v93.01h-4.78z"/><path class="cls-3" d="M48.04 146.36V45.55h100.81M819.62 45.55h100.82v100.81M919.19 1140.13v100.82H818.38M147.6 1240.95H46.79v-100.82M63.09 301.47h834.63"/><path class="cls-4" d="M91.91 376.36h27.71v27.71H91.91z"/><path class="cls-4" d="M119.61 376.36h27.71v27.71h-27.71zM147.32 376.36h27.71v27.71h-27.71z"/><path class="cls-4" d="M175.02 376.36h27.71v27.71h-27.71z"/><path class="cls-4" d="M202.73 376.36h27.71v27.71h-27.71z"/><path class="cls-4" d="M230.44 376.36h27.71v27.71h-27.71z"/><path class="cls-4" d="M258.14 376.36h27.71v27.71h-27.71zM285.85 376.36h27.71v27.71h-27.71zM313.56 376.36h27.71v27.71h-27.71z"/><path class="cls-4" d="M341.26 376.36h27.71v27.71h-27.71zM368.97 376.36h27.71v27.71h-27.71zM396.68 376.36h27.71v27.71h-27.71z"/><path class="cls-4" d="M424.38 376.36h27.71v27.71h-27.71zM452.09 376.36h27.71v27.71h-27.71zM479.8 376.36h27.71v27.71H479.8z"/><path class="cls-4" d="M507.5 376.36h27.71v27.71H507.5zM91.91 501.31h27.71v27.71H91.91z"/><path class="cls-4" d="M119.61 501.31h27.71v27.71h-27.71zM147.32 501.31h27.71v27.71h-27.71z"/><path class="cls-4" d="M175.02 501.31h27.71v27.71h-27.71z"/><path class="cls-4" d="M202.73 501.31h27.71v27.71h-27.71z"/><path class="cls-4" d="M230.44 501.31h27.71v27.71h-27.71z"/><path class="cls-4" d="M258.14 501.31h27.71v27.71h-27.71zM285.85 501.31h27.71v27.71h-27.71zM313.56 501.31h27.71v27.71h-27.71z"/><path class="cls-4" d="M341.26 501.31h27.71v27.71h-27.71zM368.97 501.31h27.71v27.71h-27.71zM396.68 501.31h27.71v27.71h-27.71z"/><path class="cls-4" d="M424.38 501.31h27.71v27.71h-27.71zM452.09 501.31h27.71v27.71h-27.71zM479.8 501.31h27.71v27.71H479.8z"/><path class="cls-4" d="M507.5 501.31h27.71v27.71H507.5zM535.21 501.31h27.71v27.71h-27.71z"/><path class="cls-4" d="M562.92 501.31h27.71v27.71h-27.71z"/><path class="cls-4" d="M590.62 501.31h27.71v27.71h-27.71zM618.33 501.31h27.71v27.71h-27.71z"/><path class="cls-4" d="M646.03 501.31h27.71v27.71h-27.71zM91.91 559.63h27.71v27.71H91.91z"/><path class="cls-4" d="M119.61 559.63h27.71v27.71h-27.71zM147.32 559.63h27.71v27.71h-27.71z"/><path class="cls-4" d="M175.02 559.63h27.71v27.71h-27.71z"/><path class="cls-4" d="M202.73 559.63h27.71v27.71h-27.71z"/><path class="cls-4" d="M230.44 559.63h27.71v27.71h-27.71z"/><path class="cls-4" d="M258.14 559.63h27.71v27.71h-27.71zM285.85 559.63h27.71v27.71h-27.71zM313.56 559.63h27.71v27.71h-27.71z"/><path class="cls-4" d="M341.26 559.63h27.71v27.71h-27.71zM368.97 559.63h27.71v27.71h-27.71zM396.68 559.63h27.71v27.71h-27.71z"/><path class="cls-4" d="M424.38 559.63h27.71v27.71h-27.71zM452.09 559.63h27.71v27.71h-27.71zM479.8 559.63h27.71v27.71H479.8z"/><path class="cls-4" d="M507.5 559.63h27.71v27.71H507.5zM535.21 559.63h27.71v27.71h-27.71z"/><path class="cls-4" d="M562.92 559.63h27.71v27.71h-27.71z"/><path class="cls-4" d="M590.62 559.63h27.71v27.71h-27.71zM618.33 559.63h27.71v27.71h-27.71z"/><path class="cls-4" d="M646.03 559.63h27.71v27.71h-27.71z"/><path class="cls-5" d="M90.91 344.04h195.94v15.26H90.91zM91.91 462.8h195.94v15.26H91.91z"/><path class="cls-4" d="M91.91 671.6h27.71v27.71H91.91z"/><path class="cls-4" d="M119.61 671.6h27.71v27.71h-27.71zM147.32 671.6h27.71v27.71h-27.71z"/><path class="cls-4" d="M175.02 671.6h27.71v27.71h-27.71z"/><path class="cls-4" d="M202.73 671.6h27.71v27.71h-27.71z"/><path class="cls-4" d="M230.44 671.6h27.71v27.71h-27.71z"/><path class="cls-4" d="M258.14 671.6h27.71v27.71h-27.71zM285.85 671.6h27.71v27.71h-27.71zM313.56 671.6h27.71v27.71h-27.71z"/><path class="cls-4" d="M341.26 671.6h27.71v27.71h-27.71zM368.97 671.6h27.71v27.71h-27.71zM396.68 671.6h27.71v27.71h-27.71z"/><path class="cls-4" d="M424.38 671.6h27.71v27.71h-27.71zM452.09 671.6h27.71v27.71h-27.71zM479.8 671.6h27.71v27.71H479.8z"/><path class="cls-4" d="M507.5 671.6h27.71v27.71H507.5zM535.21 671.6h27.71v27.71h-27.71z"/><path class="cls-4" d="M562.92 671.6h27.71v27.71h-27.71z"/><path class="cls-4" d="M590.62 671.6h27.71v27.71h-27.71zM618.33 671.6h27.71v27.71h-27.71z"/><path class="cls-4" d="M646.03 671.6h27.71v27.71h-27.71zM91.91 729.92h27.71v27.71H91.91z"/><path class="cls-4" d="M119.61 729.92h27.71v27.71h-27.71zM147.32 729.92h27.71v27.71h-27.71z"/><path class="cls-4" d="M175.02 729.92h27.71v27.71h-27.71z"/><path class="cls-4" d="M202.73 729.92h27.71v27.71h-27.71z"/><path class="cls-4" d="M230.44 729.92h27.71v27.71h-27.71z"/><path class="cls-4" d="M258.14 729.92h27.71v27.71h-27.71zM285.85 729.92h27.71v27.71h-27.71zM313.56 729.92h27.71v27.71h-27.71z"/><path class="cls-4" d="M341.26 729.92h27.71v27.71h-27.71zM368.97 729.92h27.71v27.71h-27.71zM396.68 729.92h27.71v27.71h-27.71z"/><path class="cls-4" d="M424.38 729.92h27.71v27.71h-27.71zM452.09 729.92h27.71v27.71h-27.71zM479.8 729.92h27.71v27.71H479.8z"/><path class="cls-4" d="M507.5 729.92h27.71v27.71H507.5zM535.21 729.92h27.71v27.71h-27.71z"/><path class="cls-4" d="M562.92 729.92h27.71v27.71h-27.71z"/><path class="cls-4" d="M590.62 729.92h27.71v27.71h-27.71zM618.33 729.92h27.71v27.71h-27.71z"/><path class="cls-4" d="M646.03 729.92h27.71v27.71h-27.71z"/><path class="cls-5" d="M91.91 633.09h195.94v15.26H91.91z"/><path stroke="#1a171b" stroke-width="4" stroke-miterlimit="10" fill="none" d="M604.47 1075.04h268.36v107.91H604.47z"/><path class="cls-7" d="M65.68 1039.22H900.3M65.68 801.33H900.3"/><path class="cls-5" d="M89.19 1083.11h325.73v15.26H89.19zM89.19 1126.78h404.45v15.26H89.19zM89.19 1170.44h372.56v15.26H89.19z"/><g><path class="cls-8" d="M91.7 837.66h9.54a7.57 7.57 0 018 7.9c0 4.53-3.41 7.91-8.38 7.91h-4.32v8H91.7zm8.25 4.34h-3.41v7.09h3.41c2.66 0 4.33-1.23 4.33-3.48v-.14c-.01-2.23-1.68-3.47-4.33-3.47zM117.05 861.85c-3.24 0-6.17-2-6.17-5.59 0-2.86 1.87-4.77 5-5.21l5.42-.75v-.58c0-1.57-1.06-2.28-2.79-2.28a12 12 0 00-5.25 1.43l-1.81-3.54a15.05 15.05 0 017.22-2c3.27 0 7.22.89 7.22 5.72v7.63c0 1.06.58 1.43 1.53 1.84l-2.08 3.3a4 4 0 01-3.34-2 6.16 6.16 0 01-4.95 2.03zm.54-7.53c-1.12.17-1.87.82-1.87 1.84a2.17 2.17 0 002.42 2.08 3 3 0 003.17-3.27v-1.23zM133.82 862.22l.14-.58h-.34l-5.49-18h5.11l3.27 12.36 3.2-12.33h5l-6.13 20.44c-.78 2.66-2.86 3.37-5.55 3.37a30.22 30.22 0 01-4.19-.34l1-4.05a16.54 16.54 0 002.45.2 1.35 1.35 0 001.53-1.07zM162.31 861.51h-4.6v-10.36c0-2.56-1.19-3.44-2.69-3.44-1.77 0-3.13 1.23-3.13 4.09v9.71h-4.6v-17.82h4.6v1.57a6 6 0 014.57-1.91 5.16 5.16 0 014.6 2.42 6.28 6.28 0 015.38-2.42 6 6 0 016.34 6v12.16h-4.63v-10.36c0-2.56-1.19-3.44-2.69-3.44-1.77 0-3.13 1.23-3.13 4.09zM180.78 854.18a4.19 4.19 0 004.33 3.47 6.4 6.4 0 004.5-1.67l2.28 3.48a10.67 10.67 0 01-6.92 2.38c-4.91 0-9-3.41-9-9.13v-.2c0-5.25 3.58-9.17 8.62-9.17 4.7 0 8.18 3.58 8.18 8.76v2.08zm0-3.48H188a3.43 3.43 0 00-3.51-3.37 3.57 3.57 0 00-3.68 3.38zM196.08 843.69h4.6v1.53a6 6 0 014.53-1.87 5.84 5.84 0 016.17 6.13v12h-4.6v-10.33c0-2.52-1.19-3.48-2.79-3.48-1.87 0-3.31 1.33-3.31 4.09v9.75h-4.6zM222.11 856.19c0 .85.38 1.5 2 1.5a11.39 11.39 0 002.28-.2l.41 4.05a36.76 36.76 0 01-4.22.31c-3.17 0-5-1.4-5-4.53v-9.51h-3.2v-4.12h3.2v-5l4.6-1.23v6.27h4.67v4.12h-4.67zM243.38 861.85c-3.24 0-6.17-2-6.17-5.59 0-2.86 1.87-4.77 5-5.21l5.42-.75v-.58c0-1.57-1.06-2.28-2.79-2.28a12 12 0 00-5.25 1.43l-1.81-3.54a15.05 15.05 0 017.22-2c3.27 0 7.22.89 7.22 5.72v7.63c0 1.06.58 1.43 1.53 1.84l-2.08 3.3a4 4 0 01-3.34-2 6.16 6.16 0 01-4.95 2.03zm.54-7.53c-1.12.17-1.87.82-1.87 1.84a2.17 2.17 0 002.42 2.08 3 3 0 003.17-3.27v-1.23zM271.56 861.51H267v-10.36c0-2.56-1.19-3.44-2.69-3.44-1.77 0-3.13 1.23-3.13 4.09v9.71h-4.6v-17.82h4.6v1.57a6 6 0 014.57-1.91 5.16 5.16 0 014.6 2.42 6.28 6.28 0 015.38-2.42 6 6 0 016.34 6v12.16h-4.63v-10.36c0-2.56-1.19-3.44-2.69-3.44-1.77 0-3.13 1.23-3.13 4.09zM302.77 852.61c0 5.28-3.51 9.23-8.76 9.23s-8.76-4-8.76-9.23c0-5.25 3.48-9.23 8.76-9.23s8.76 4 8.76 9.23zm-4.7 0c0-2.9-1.43-5-4.05-5s-4 2.08-4.05 5c0 2.9 1.43 5 4.05 5s4-2.08 4.05-5zM321.31 861.51h-4.6V860a6 6 0 01-4.53 1.87 5.84 5.84 0 01-6.17-6.13v-12h4.6V854c0 2.52 1.19 3.48 2.79 3.48 1.87 0 3.3-1.33 3.3-4.09v-9.75h4.6zM325.61 843.69h4.6v1.53a6 6 0 014.53-1.87 5.84 5.84 0 016.17 6.13v12h-4.6v-10.33c0-2.52-1.19-3.48-2.79-3.48-1.87 0-3.31 1.33-3.31 4.09v9.75h-4.6zM351.64 856.19c0 .85.38 1.5 2 1.5a11.39 11.39 0 002.28-.2l.41 4.05a36.76 36.76 0 01-4.22.31c-3.17 0-5-1.4-5-4.53v-9.51h-3.2v-4.12H347v-5l4.6-1.23v6.27h4.67v4.12h-4.67z"/></g><path class="cls-9" d="M959.94 5.21v1274H6V5.21h953.94M966 0H0v1284.47h966V0z"/><g><path class="cls-10" d="M90.06 981.18h2.62v8.26a5.5 5.5 0 014.67-2.14 5.09 5.09 0 015.34 5.44v10.85h-2.62v-10c0-2.82-1.44-3.87-3.3-3.87a4.09 4.09 0 00-4.1 4.42v9.47h-2.61zM111.82 999.61c0 1.06.19 2 2 2a13.91 13.91 0 002-.19l.29 2.3a23.27 23.27 0 01-2.85.22c-2.53 0-4.1-1-4.1-3.71v-10.32h-3v-2.3h3v-5.22l2.62-.93v6.14h4.45v2.3h-4.45zM123.95 999.61c0 1.06.19 2 2 2a13.9 13.9 0 002-.19l.29 2.3a23.27 23.27 0 01-2.85.22c-2.53 0-4.1-1-4.1-3.71v-10.32h-3v-2.3h3v-5.22l2.62-.93v6.14h4.45v2.3h-4.45zM134.57 987.61v1.82a5.59 5.59 0 014.67-2.14c4.13 0 6.78 3.49 6.78 8.32s-2.66 8.29-6.78 8.29a5.59 5.59 0 01-4.67-2.14v6.69h-2.62v-20.84zm8.74 7.9c0-3.33-1.6-5.89-4.54-5.89-2.78 0-4.22 2-4.22 4.67v2.59c0 2.66 1.44 4.67 4.22 4.67 2.94 0 4.54-2.56 4.54-5.89zM148.84 1001.59l1.6-1.86a7.57 7.57 0 004.83 2c1.82 0 3.2-.83 3.2-2.4 0-1.73-1.73-2.11-3.9-2.69s-5-1.38-5-4.67c0-2.69 2.46-4.64 5.82-4.64a8.62 8.62 0 015.54 2l-1.49 1.67a5.85 5.85 0 00-3.94-1.54c-2.11 0-3.17.93-3.17 2.37 0 1.15.9 1.73 2.3 2.11.83.22 1.79.51 2.62.77 2.14.67 3.9 1.79 3.9 4.35 0 3.3-2.91 4.8-6 4.8a9.6 9.6 0 01-6.31-2.27zM167.05 987.61a2.14 2.14 0 11-2.14 2.14 2.14 2.14 0 012.14-2.14zm0 12a2.14 2.14 0 11-2.14 2.14 2.14 2.14 0 012.14-2.14zM180.52 981.18h2.69l-7.84 22.4h-2.72zM190.09 981.18h2.69l-7.84 22.4h-2.72zM201.51 987.29a5.4 5.4 0 014.51 2.14v-1.82h2.62v16.09c0 4-3.49 5.12-6.85 5.12a13.82 13.82 0 01-5.92-1.28l.9-2.18a13 13 0 005.09 1.12c2.69 0 4.16-1 4.16-3.46v-3a5.4 5.4 0 01-4.51 2.14c-4 0-6.46-3.23-6.46-7.42s2.5-7.45 6.46-7.45zm4.58 7.36c0-2.85-1.22-5-4.1-5s-4.22 2.24-4.22 5v.13c0 2.78 1.31 5 4.22 5s4.1-2.18 4.1-5zM227.53 995.61c0 4.8-2.94 8.29-7.36 8.29s-7.36-3.49-7.36-8.29 2.94-8.32 7.36-8.32 7.36 3.46 7.36 8.32zm-2.72.1v-.19c0-3.2-1.6-5.92-4.64-5.92s-4.64 2.72-4.64 5.92v.19c0 3.14 1.6 5.89 4.64 5.89s4.64-2.76 4.64-5.89zM234.79 1003.58l-5.06-16h3l3.84 13.54 3.81-13.54h3l-5.06 16zM247.59 999.61a2.14 2.14 0 11-2.14 2.14 2.14 2.14 0 012.14-2.14zM267 1003.58h-2.62v-1.82a5.5 5.5 0 01-4.67 2.14 5.09 5.09 0 01-5.34-5.44v-10.85H257v10c0 2.82 1.44 3.87 3.3 3.87 2.18 0 4.1-1.44 4.1-4.42v-9.47h2.6zM274.76 995.45l7.52-7.84h3.3l-6.08 6.34 6.37 9.63h-3.2l-5-7.87-2.88 2.94v4.93h-2.62v-22.4h2.62zM295.69 981.18h2.69l-7.84 22.4h-2.72zM304.45 987.61v1.82a5.59 5.59 0 014.67-2.14c4.13 0 6.78 3.49 6.78 8.32s-2.66 8.29-6.78 8.29a5.59 5.59 0 01-4.67-2.14v6.69h-2.62v-20.84zm8.74 7.9c0-3.33-1.6-5.89-4.54-5.89-2.78 0-4.22 2-4.22 4.67v2.59c0 2.66 1.44 4.67 4.22 4.67 2.94 0 4.54-2.56 4.54-5.89zM324.49 1003.9c-3.17 0-5.57-1.86-5.57-4.83 0-2.5 1.7-4.16 4.26-4.51l5.63-.77v-1c0-2.43-1.57-3.17-3.55-3.17a9.73 9.73 0 00-4.61 1.25l-1-2.08a12 12 0 015.86-1.47c3.87 0 5.92 1.73 5.92 5.09v7.46a2.16 2.16 0 001.31 2.18l-1.47 1.89a3.16 3.16 0 01-2.14-1.92 5.93 5.93 0 01-4.64 1.88zm0-7.42c-1.76.26-2.91.83-2.91 2.46 0 1.86 1.5 2.88 3.26 2.88 2 0 3.94-1.25 3.94-3.1v-2.88zM334.63 987.61h3l3.94 13.18 3.74-13.18h2.94l-5.84 18.39c-.7 2.24-2.27 2.82-4.22 2.82a18.87 18.87 0 01-2.85-.26l.38-2.3a12.17 12.17 0 002.11.22 1.81 1.81 0 002-1.6l.16-.74zM363.62 1003.58H361v-10c0-2.85-1.44-3.84-3.2-3.84s-3.52 1.34-3.52 4.45v9.44h-2.62v-16h2.62v1.82a4.91 4.91 0 014.19-2.14 4.73 4.73 0 014.32 2.66 5.47 5.47 0 014.86-2.66 5.15 5.15 0 015.38 5.34v10.94h-2.62v-10c0-2.85-1.54-3.84-3.26-3.84s-3.52 1.34-3.52 4.45zM379.81 996.41c.19 3 2.08 5.18 5 5.18A6.4 6.4 0 00389 1000l1.34 1.89a8.9 8.9 0 01-5.66 2c-4.64 0-7.58-3.49-7.58-8.29s2.85-8.32 7.26-8.32c4.16 0 6.82 3.49 6.82 8.29v.83zm0-2.11h8.45c-.1-2.46-1.47-4.7-4-4.7s-4.26 2.27-4.41 4.7zM395.11 987.61h2.62v1.82a5.5 5.5 0 014.67-2.14 5.09 5.09 0 015.34 5.44v10.85h-2.62v-10c0-2.82-1.44-3.87-3.3-3.87a4.1 4.1 0 00-4.1 4.42v9.47h-2.62zM416.87 999.61c0 1.06.19 2 2 2a13.91 13.91 0 002-.19l.29 2.3a23.27 23.27 0 01-2.85.22c-2.53 0-4.1-1-4.1-3.71v-10.32h-3v-2.3h3v-5.22l2.62-.93v6.14h4.45v2.3h-4.45zM423.49 1001.59l1.6-1.86a7.57 7.57 0 004.83 2c1.82 0 3.2-.83 3.2-2.4 0-1.73-1.73-2.11-3.9-2.69s-5-1.38-5-4.67c0-2.69 2.46-4.64 5.82-4.64a8.62 8.62 0 015.54 2l-1.49 1.67a5.85 5.85 0 00-3.94-1.54c-2.11 0-3.17.93-3.17 2.37 0 1.15.9 1.73 2.3 2.11.83.22 1.79.51 2.62.77 2.14.67 3.9 1.79 3.9 4.35 0 3.3-2.91 4.8-6 4.8a9.6 9.6 0 01-6.31-2.27zM446.47 981.18h2.69l-7.84 22.4h-2.72zM451 1001.59l1.6-1.86a7.57 7.57 0 004.83 2c1.82 0 3.2-.83 3.2-2.4 0-1.73-1.73-2.11-3.9-2.69s-5-1.38-5-4.67c0-2.69 2.46-4.64 5.82-4.64a8.63 8.63 0 015.54 2l-1.52 1.67a5.85 5.85 0 00-3.94-1.54c-2.11 0-3.17.93-3.17 2.37 0 1.15.9 1.73 2.3 2.11.83.22 1.79.51 2.62.77 2.14.67 3.9 1.79 3.9 4.35 0 3.3-2.91 4.8-6 4.8a9.6 9.6 0 01-6.28-2.27zM469.19 996.41c.19 3 2.08 5.18 5 5.18a6.4 6.4 0 004.19-1.57l1.34 1.89a8.9 8.9 0 01-5.66 2c-4.64 0-7.58-3.49-7.58-8.29s2.85-8.32 7.26-8.32c4.16 0 6.82 3.49 6.82 8.29v.83zm0-2.11h8.45c-.1-2.46-1.47-4.7-4-4.7s-4.29 2.27-4.42 4.7zM492.64 989.95h-.42c-2.69 0-5.12 1.09-5.12 5.44v8.19h-2.62v-16h2.62v2.53a5 5 0 014.77-2.82h.77zM499.46 1003.58l-5.06-16h3l3.84 13.54 3.76-13.51h3l-5.06 16zM512.84 981.18a2 2 0 011.92 2 1.94 1.94 0 11-3.87 0 2 2 0 011.95-2zm1.28 22.4h-2.62v-16h2.62zM521 995.67c0 3.2 1.57 5.92 4.64 5.92a4.56 4.56 0 004.13-2.69l2.18 1.25a6.78 6.78 0 01-6.3 3.74c-4.42 0-7.36-3.46-7.36-8.29s2.94-8.32 7.36-8.32a6.78 6.78 0 016.3 3.74l-2.18 1.25a4.56 4.56 0 00-4.13-2.69c-3.07 0-4.64 2.72-4.64 5.92zM537.54 996.41c.19 3 2.08 5.18 5 5.18a6.4 6.4 0 004.19-1.57l1.34 1.89a8.9 8.9 0 01-5.66 2c-4.64 0-7.58-3.49-7.58-8.29s2.85-8.32 7.26-8.32c4.16 0 6.82 3.49 6.82 8.29v.83zm0-2.11H546c-.1-2.46-1.47-4.7-4-4.7s-4.3 2.27-4.43 4.7zM552.65 993h6.72v2.5h-6.72zM564.29 987.61h2.62v1.82a5.5 5.5 0 014.67-2.14 5.09 5.09 0 015.34 5.44v10.85h-2.62v-10c0-2.82-1.44-3.87-3.3-3.87a4.1 4.1 0 00-4.1 4.42v9.47h-2.62zM586.31 1003.9c-3.17 0-5.57-1.86-5.57-4.83 0-2.5 1.7-4.16 4.26-4.51l5.63-.77v-1c0-2.43-1.57-3.17-3.55-3.17a9.73 9.73 0 00-4.61 1.25l-1-2.08a12 12 0 015.86-1.47c3.87 0 5.92 1.73 5.92 5.09v7.46a2.16 2.16 0 001.31 2.18l-1.47 1.89a3.16 3.16 0 01-2.14-1.92 5.93 5.93 0 01-4.64 1.88zm0-7.42c-1.76.26-2.91.83-2.91 2.46 0 1.86 1.5 2.88 3.26 2.88 2 0 3.94-1.25 3.94-3.1v-2.88zM610.31 1003.58h-2.62v-10c0-2.85-1.44-3.84-3.2-3.84S601 991 601 994.14v9.44h-2.62v-16H601v1.82a4.91 4.91 0 014.19-2.14 4.73 4.73 0 014.32 2.66 5.47 5.47 0 014.86-2.66 5.15 5.15 0 015.38 5.34v10.94h-2.62v-10c0-2.85-1.54-3.84-3.26-3.84s-3.52 1.34-3.52 4.45zM626.5 996.41c.19 3 2.08 5.18 5 5.18a6.4 6.4 0 004.19-1.57l1.34 1.89a8.9 8.9 0 01-5.66 2c-4.64 0-7.58-3.49-7.58-8.29s2.85-8.32 7.26-8.32c4.16 0 6.82 3.49 6.82 8.29v.83zm0-2.11h8.5c-.1-2.46-1.47-4.7-4-4.7s-4.34 2.27-4.47 4.7zM648.35 981.18H651l-7.84 22.4h-2.72zM657.12 987.61v1.82a5.59 5.59 0 014.67-2.14c4.13 0 6.78 3.49 6.78 8.32s-2.66 8.29-6.78 8.29a5.59 5.59 0 01-4.67-2.14v6.69h-2.62v-20.84zm8.74 7.9c0-3.33-1.6-5.89-4.54-5.89-2.78 0-4.22 2-4.22 4.67v2.59c0 2.66 1.44 4.67 4.22 4.67 2.94 0 4.54-2.56 4.54-5.89zM677.15 1003.9c-3.17 0-5.57-1.86-5.57-4.83 0-2.5 1.7-4.16 4.26-4.51l5.63-.77v-1c0-2.43-1.57-3.17-3.55-3.17a9.73 9.73 0 00-4.61 1.25l-1-2.08a12 12 0 015.86-1.47c3.87 0 5.92 1.73 5.92 5.09v7.46a2.16 2.16 0 001.31 2.18l-1.47 1.89a3.16 3.16 0 01-2.14-1.92 5.93 5.93 0 01-4.64 1.88zm0-7.42c-1.76.26-2.91.83-2.91 2.46 0 1.86 1.5 2.88 3.26 2.88 2 0 3.94-1.25 3.94-3.1v-2.88zM687.3 987.61h3l3.94 13.18 3.76-13.18h2.94l-5.87 18.39c-.7 2.24-2.27 2.82-4.22 2.82a18.87 18.87 0 01-2.85-.26l.38-2.3a12.17 12.17 0 002.11.22 1.81 1.81 0 002-1.6l.16-.74zM716.29 1003.58h-2.62v-10c0-2.85-1.44-3.84-3.2-3.84s-3.52 1.34-3.52 4.45v9.44h-2.62v-16h2.62v1.82a4.91 4.91 0 014.19-2.14 4.73 4.73 0 014.32 2.66 5.47 5.47 0 014.86-2.66 5.15 5.15 0 015.38 5.34v10.94h-2.62v-10c0-2.85-1.54-3.84-3.26-3.84s-3.52 1.34-3.52 4.45zM732.48 996.41c.19 3 2.08 5.18 5 5.18a6.4 6.4 0 004.19-1.57l1.34 1.89a8.9 8.9 0 01-5.66 2c-4.64 0-7.58-3.49-7.58-8.29s2.85-8.32 7.26-8.32c4.16 0 6.82 3.49 6.82 8.29v.83zm0-2.11H741c-.1-2.46-1.47-4.7-4-4.7s-4.36 2.27-4.49 4.7zM747.78 987.61h2.62v1.82a5.5 5.5 0 014.67-2.14 5.09 5.09 0 015.34 5.44v10.85h-2.62v-10c0-2.82-1.44-3.87-3.3-3.87a4.1 4.1 0 00-4.1 4.42v9.47h-2.62zM769.54 999.61c0 1.06.19 2 2 2a13.91 13.91 0 002-.19l.29 2.3a23.27 23.27 0 01-2.85.22c-2.53 0-4.1-1-4.1-3.71v-10.32h-3v-2.3h3v-5.22l2.62-.93v6.14h4.5v2.3h-4.45zM777.35 993h6.72v2.5h-6.72zM788.9 981.18h2.62V1000c0 1.06.32 1.6 1.54 1.6.67 0 1.22-.06 1.63-.1l.26 2.21a25.45 25.45 0 01-2.66.19c-1.89 0-3.39-.83-3.39-3.14zM799.1 981.18a2 2 0 011.92 2 1.94 1.94 0 11-3.87 0 2 2 0 011.95-2zm1.28 22.4h-2.62v-16h2.62zM805.5 987.61h2.62v1.82a5.5 5.5 0 014.67-2.14 5.09 5.09 0 015.34 5.44v10.85h-2.62v-10c0-2.82-1.44-3.87-3.3-3.87a4.1 4.1 0 00-4.1 4.42v9.47h-2.61zM825.76 995.45l7.52-7.84h3.3l-6.08 6.34 6.37 9.63h-3.2l-5-7.87-2.88 2.94v4.93h-2.62v-22.4h2.62z"/></g><path class="cls-1" d="M858.87 271.41h967.62v663.26H858.87z"/><path class="cls-9" d="M1826.4 934.65H858.53V274.26h967.87m-974.76 0v666.31h981.57V274.28z"/><path class="cls-11" d="M858.59 320.63h967.62v81.87H858.59z"/><g><path class="cls-2" d="M928.54 448.86h13c6.71 0 10.87 4.63 10.87 10.73s-4.63 10.73-11.38 10.73h-5.88v10.92h-6.57zm11.2 5.92h-4.63v9.62h4.63c3.61 0 5.88-1.67 5.88-4.72v-.19c-.01-3.04-2.28-4.7-5.89-4.7zM963 481.71c-4.39 0-8.37-2.78-8.37-7.59 0-3.89 2.54-6.48 6.8-7.08l7.36-1v-.79c0-2.13-1.43-3.1-3.79-3.1a16.29 16.29 0 00-7.12 1.94l-2.45-4.81a20.44 20.44 0 019.81-2.68c4.44 0 9.81 1.2 9.81 7.77v10.36c0 1.43.79 1.94 2.08 2.5l-2.82 4.49a5.5 5.5 0 01-4.53-2.73c-1.59 1.84-3.95 2.72-6.78 2.72zm.74-10.22c-1.53.23-2.54 1.11-2.54 2.5s1.2 2.82 3.29 2.82c2.91 0 4.3-1.94 4.3-4.44v-1.67zM985.72 482.22l.19-.79h-.46L978 457.05h6.94l4.44 16.75 4.35-16.75h6.85l-8.33 27.76c-1.06 3.61-3.88 4.58-7.54 4.58a41 41 0 01-5.69-.46l1.29-5.51a22.37 22.37 0 003.33.28 1.83 1.83 0 002.08-1.48zM1022.55 457.05h4.63v5.6h-4.63v18.6h-6.25v-18.6h-3.84v-5.6h3.84v-2.5c0-4.21 3-6.15 7.31-6.15a42 42 0 014.95.32l-.51 5.32a21.54 21.54 0 00-3.05-.23c-1.76 0-2.45.74-2.45 1.8zM1053.36 469.17c0 7.17-4.76 12.54-11.89 12.54s-11.89-5.41-11.89-12.54c0-7.12 4.72-12.54 11.89-12.54s11.89 5.41 11.89 12.54zm-6.38 0c0-3.93-1.94-6.75-5.5-6.75s-5.46 2.82-5.51 6.75c0 3.93 1.94 6.75 5.51 6.75s5.46-2.82 5.5-6.75zM1072 463.11h-1.11c-3.56 0-6.71 1.2-6.71 6.38v11.75h-6.24v-24.2h6.24v2.73a7.5 7.5 0 016.43-3.15h1.39zM1091.34 471.3a5.69 5.69 0 005.88 4.72 8.69 8.69 0 006.11-2.27l3.1 4.72a14.47 14.47 0 01-9.39 3.24c-6.66 0-12.17-4.63-12.17-12.4V469c0-7.12 4.86-12.45 11.71-12.45 6.38 0 11.1 4.86 11.1 11.89v2.82zm0-4.72h9.76a4.65 4.65 0 00-4.77-4.58 4.84 4.84 0 00-4.94 4.58zM1117.25 468.57l-7.36-11.52h7.22l3.7 6.52 3.88-6.52h7.31l-7.49 11.57 8.33 12.63h-7.36l-4.76-7.4-4.35 7.4h-7.26zM1142.6 481.71c-4.39 0-8.37-2.78-8.37-7.59 0-3.89 2.54-6.48 6.8-7.08l7.36-1v-.79c0-2.13-1.43-3.1-3.79-3.1a16.29 16.29 0 00-7.12 1.94l-2.45-4.81a20.44 20.44 0 019.81-2.68c4.44 0 9.81 1.2 9.81 7.77v10.36c0 1.43.79 1.94 2.08 2.5l-2.82 4.49a5.5 5.5 0 01-4.53-2.73c-1.55 1.84-3.91 2.72-6.78 2.72zm.74-10.22c-1.53.23-2.54 1.11-2.54 2.5s1.2 2.82 3.29 2.82c2.91 0 4.3-1.94 4.3-4.44v-1.67zM1180.86 481.25h-6.25v-14.07c0-3.47-1.62-4.67-3.65-4.67-2.41 0-4.26 1.67-4.26 5.55v13.19h-6.24v-24.2h6.24v2.13a8.11 8.11 0 016.2-2.59 7 7 0 016.25 3.28c1.71-2.41 4.44-3.28 7.31-3.28 5.41 0 8.61 3.84 8.61 8.14v16.52h-6.29v-14.07c0-3.47-1.62-4.67-3.65-4.67-2.41 0-4.26 1.67-4.26 5.55zM1207 457.05v2.08a8 8 0 016.11-2.54c6.38 0 10.64 5.27 10.64 12.45v.23c0 7.17-4.39 12.44-10.78 12.44a7.69 7.69 0 01-6-2.54v9.72h-6.24v-31.84zm-.18 14.34c0 2.59 1.94 4.53 5 4.53 3.56 0 5.51-2.82 5.51-6.66V469c0-3.84-1.94-6.66-5.51-6.66-3.05 0-5 1.94-5 4.53zM1228.24 448.86h6.25v25.82c0 1 .55 1.57 1.85 1.57a12.39 12.39 0 002.36-.23l.51 5.32a51.41 51.41 0 01-5.27.37c-3.52 0-5.69-1.85-5.69-5.32zM1247.35 471.3a5.69 5.69 0 005.88 4.72 8.69 8.69 0 006.11-2.27l3.1 4.72a14.48 14.48 0 01-9.39 3.24c-6.66 0-12.17-4.63-12.17-12.4V469c0-7.12 4.86-12.45 11.71-12.45 6.38 0 11.1 4.86 11.1 11.89v2.82zm0-4.72h9.76a4.65 4.65 0 00-4.76-4.58 4.84 4.84 0 00-4.96 4.58zM1280.66 473.48a11.21 11.21 0 007.08 2.91c1.9 0 3.42-.51 3.42-1.94 0-1.16-.93-1.62-3-2.13a41.37 41.37 0 01-6-1.71 6.51 6.51 0 01-4.26-6.29c0-5.18 4.58-7.73 9.95-7.73 4.07 0 7.63 1.48 9.58 3.42l-4 4.12a8.31 8.31 0 00-5.55-2.22c-1.71 0-3.42.6-3.42 2 0 1.11 1.06 1.53 2.87 2a34.15 34.15 0 016.94 2.22 6.4 6.4 0 013.38 5.78c0 5.14-4.39 7.77-9.76 7.77-3.93 0-8.51-1.48-10.92-3.65zM1307.49 471.3a5.69 5.69 0 005.88 4.72 8.69 8.69 0 006.11-2.27l3.1 4.72a14.47 14.47 0 01-9.39 3.24c-6.66 0-12.17-4.63-12.17-12.4V469c0-7.12 4.86-12.45 11.71-12.45 6.38 0 11.1 4.86 11.1 11.89v2.82zm0-4.72h9.76a4.65 4.65 0 00-4.77-4.58 4.84 4.84 0 00-4.95 4.58zM1342.33 463.11h-1.11c-3.56 0-6.71 1.2-6.71 6.38v11.75h-6.25v-24.2h6.25v2.73a7.5 7.5 0 016.43-3.15h1.39zM1351.35 481.25l-7.4-24.2h6.94l4.35 16.66 4.44-16.66h6.85l-7.36 24.2zM1373.18 447.71a3.93 3.93 0 11-3.93 3.93 3.93 3.93 0 013.93-3.93zm3.15 33.54h-6.25v-24.2h6.25zM1380.91 469.08c0-7.12 4.9-12.49 11.71-12.49 5 0 8.93 2.45 10.5 6.25l-5.55 2.82a4.94 4.94 0 00-4.81-3.28c-3.79 0-5.41 3.47-5.41 6.66v.28c0 3.15 1.62 6.62 5.41 6.62a4.94 4.94 0 004.81-3.28l5.55 2.82c-1.57 3.79-5.69 6.25-10.59 6.25-6.8 0-11.61-5.37-11.61-12.49zM1412.42 471.3a5.69 5.69 0 005.88 4.72 8.69 8.69 0 006.11-2.27l3.1 4.72a14.48 14.48 0 01-9.39 3.24c-6.66 0-12.17-4.63-12.17-12.4V469c0-7.12 4.86-12.45 11.71-12.45 6.38 0 11.1 4.86 11.1 11.89v2.82zm0-4.72h9.76a4.65 4.65 0 00-4.76-4.58 4.84 4.84 0 00-4.96 4.58z"/></g><path class="cls-5" d="M924.34 523.12h713.99v15.26H924.34zM924.34 563.38h531v15.26h-531z"/><g><path class="cls-8" d="M927 803.6h9.54a7.57 7.57 0 018 7.9c0 4.53-3.41 7.91-8.38 7.91h-4.33v8H927zm8.25 4.36h-3.41v7.09h3.41c2.66 0 4.33-1.23 4.33-3.48v-.14c-.01-2.24-1.68-3.43-4.34-3.43zM952.35 827.8c-3.24 0-6.17-2-6.17-5.59 0-2.86 1.87-4.77 5-5.21l5.42-.75v-.58c0-1.57-1.06-2.28-2.79-2.28a12 12 0 00-5.25 1.43l-1.81-3.54a15.05 15.05 0 017.22-2c3.27 0 7.22.89 7.22 5.72v7.63c0 1.06.58 1.43 1.53 1.84l-2.08 3.3a4 4 0 01-3.34-2 6.16 6.16 0 01-4.95 2.03zm.54-7.53c-1.12.17-1.87.82-1.87 1.84a2.16 2.16 0 002.42 2.08 3 3 0 003.17-3.27v-1.23zM969.11 828.17l.14-.58h-.34l-5.49-18h5.11l3.28 12.41 3.2-12.33h5l-6.13 20.44c-.78 2.66-2.86 3.37-5.55 3.37a30.22 30.22 0 01-4.19-.34l1-4.05a16.54 16.54 0 002.45.2 1.35 1.35 0 001.52-1.12zM1006.66 818.56c0 5.28-3.51 9.23-8.76 9.23s-8.76-4-8.76-9.23c0-5.25 3.48-9.23 8.76-9.23s8.76 4 8.76 9.23zm-4.7 0c0-2.9-1.43-5-4.05-5s-4 2.08-4.05 5c0 2.9 1.43 5 4.05 5s4-2.08 4.05-5zM1010 809.63h4.6v1.53a6 6 0 014.53-1.87 5.84 5.84 0 016.17 6.13v12h-4.6V817.1c0-2.52-1.19-3.48-2.79-3.48-1.87 0-3.31 1.33-3.31 4.09v9.75h-4.6zM1029.43 803.6h4.6v19c0 .75.41 1.16 1.36 1.16a9.09 9.09 0 001.74-.17l.37 3.92a37.88 37.88 0 01-3.88.27c-2.59 0-4.19-1.36-4.19-3.92zM1041.94 802.75a2.9 2.9 0 11-2.9 2.9 2.89 2.89 0 012.9-2.9zm2.32 24.7h-4.6v-17.82h4.6zM1048.55 809.63h4.6v1.53a6 6 0 014.53-1.87 5.84 5.84 0 016.17 6.13v12h-4.6V817.1c0-2.52-1.19-3.48-2.79-3.48-1.87 0-3.31 1.33-3.31 4.09v9.75h-4.6zM1071.85 820.13a4.19 4.19 0 004.33 3.47 6.4 6.4 0 004.5-1.67l2.28 3.48a10.67 10.67 0 01-6.92 2.38c-4.91 0-9-3.41-9-9.13v-.2c0-5.25 3.58-9.17 8.62-9.17 4.7 0 8.18 3.58 8.18 8.76v2.08zm0-3.48h7.19a3.43 3.43 0 00-3.51-3.37 3.56 3.56 0 00-3.64 3.37z"/><path class="cls-10" d="M926.9 843.46h2.62v8.26a5.5 5.5 0 014.67-2.14 5.09 5.09 0 015.34 5.44v10.85h-2.62v-10c0-2.82-1.44-3.87-3.3-3.87a4.09 4.09 0 00-4.1 4.42v9.47h-2.61zM948.66 861.89c0 1.06.19 2 2 2a13.91 13.91 0 002-.19l.34 2.3a23.27 23.27 0 01-2.85.22c-2.53 0-4.1-1-4.1-3.71v-10.32h-3v-2.3h3v-5.22l2.62-.93v6.14h4.45v2.3h-4.45zM960.78 861.89c0 1.06.19 2 2 2a13.9 13.9 0 002-.19l.29 2.3a23.27 23.27 0 01-2.85.22c-2.53 0-4.1-1-4.1-3.71v-10.32h-3v-2.3h3v-5.22l2.62-.93v6.14h4.45v2.3h-4.45zM971.41 849.89v1.82a5.59 5.59 0 014.67-2.14c4.13 0 6.78 3.49 6.78 8.32s-2.66 8.29-6.78 8.29a5.59 5.59 0 01-4.67-2.14v6.69h-2.62v-20.84zm8.74 7.9c0-3.33-1.6-5.89-4.54-5.89-2.78 0-4.22 2-4.22 4.67v2.59c0 2.66 1.44 4.67 4.22 4.67 2.94 0 4.54-2.56 4.54-5.89zM985.68 863.87l1.6-1.86a7.57 7.57 0 004.83 2c1.82 0 3.2-.83 3.2-2.4 0-1.73-1.73-2.11-3.9-2.69s-5-1.38-5-4.67c0-2.69 2.46-4.64 5.82-4.64a8.62 8.62 0 015.54 2l-1.54 1.76a5.85 5.85 0 00-3.94-1.54c-2.11 0-3.17.93-3.17 2.37 0 1.15.9 1.73 2.3 2.11.83.22 1.79.51 2.62.77 2.14.67 3.9 1.79 3.9 4.35 0 3.3-2.91 4.8-6 4.8a9.6 9.6 0 01-6.26-2.36zM1003.89 849.89a2.14 2.14 0 11-2.14 2.14 2.14 2.14 0 012.14-2.14zm0 12a2.14 2.14 0 11-2.14 2.14 2.14 2.14 0 012.14-2.14zM1017.36 843.46h2.64l-7.84 22.4h-2.72zM1026.93 843.46h2.69l-7.84 22.4h-2.72zM1038.35 849.57a5.4 5.4 0 014.51 2.14v-1.82h2.62V866c0 4-3.49 5.12-6.85 5.12a13.82 13.82 0 01-5.92-1.28l.9-2.18a13 13 0 005.09 1.12c2.69 0 4.16-1 4.16-3.46v-3a5.4 5.4 0 01-4.51 2.14c-4 0-6.46-3.23-6.46-7.42s2.49-7.47 6.46-7.47zm4.58 7.36c0-2.85-1.22-5-4.1-5s-4.22 2.24-4.22 5v.13c0 2.78 1.31 5 4.22 5s4.1-2.18 4.1-5zM1064.36 857.89c0 4.8-2.94 8.29-7.36 8.29s-7.36-3.49-7.36-8.29 2.94-8.32 7.36-8.32 7.36 3.43 7.36 8.32zm-2.72.1v-.19c0-3.2-1.6-5.92-4.64-5.92s-4.64 2.72-4.64 5.92v.2c0 3.14 1.6 5.89 4.64 5.89s4.65-2.77 4.65-5.89zM1071.63 865.85l-5.06-16h3l3.84 13.54 3.81-13.54h3l-5.06 16zM1084.43 861.89a2.14 2.14 0 11-2.14 2.14 2.14 2.14 0 012.14-2.14zM1103.85 865.85h-2.62V864a5.5 5.5 0 01-4.67 2.14 5.09 5.09 0 01-5.34-5.44v-10.81h2.62v10c0 2.82 1.44 3.87 3.3 3.87 2.18 0 4.1-1.44 4.1-4.42v-9.47h2.62zM1111.6 857.73l7.52-7.84h3.3l-6.08 6.34 6.37 9.63h-3.2l-5-7.87-2.88 2.94v4.93H1109v-22.4h2.62zM1132.52 843.46h2.69l-7.84 22.4h-2.72zM1141.29 849.89v1.82a5.59 5.59 0 014.67-2.14c4.13 0 6.78 3.49 6.78 8.32s-2.66 8.29-6.78 8.29a5.59 5.59 0 01-4.67-2.14v6.69h-2.62v-20.84zm8.74 7.9c0-3.33-1.6-5.89-4.54-5.89-2.78 0-4.22 2-4.22 4.67v2.59c0 2.66 1.44 4.67 4.22 4.67 2.94 0 4.54-2.56 4.54-5.89zM1161.32 866.17c-3.17 0-5.57-1.86-5.57-4.83 0-2.5 1.7-4.16 4.26-4.51l5.63-.77v-1c0-2.43-1.57-3.17-3.55-3.17a9.73 9.73 0 00-4.61 1.25l-1-2.08a12 12 0 015.86-1.47c3.87 0 5.92 1.73 5.92 5.09v7.46a2.16 2.16 0 001.31 2.18l-1.47 1.89a3.16 3.16 0 01-2.14-1.92 5.93 5.93 0 01-4.64 1.88zm0-7.42c-1.76.26-2.91.83-2.91 2.46 0 1.86 1.5 2.88 3.26 2.88 2 0 3.94-1.25 3.94-3.1v-2.88zM1171.47 849.89h3l3.94 13.18 3.74-13.18h2.94l-5.82 18.37c-.7 2.24-2.27 2.82-4.22 2.82a18.75 18.75 0 01-2.85-.26l.38-2.3a12.17 12.17 0 002.11.22 1.81 1.81 0 002-1.6l.16-.74zM1200.46 865.85h-2.62v-10c0-2.85-1.44-3.84-3.2-3.84s-3.52 1.34-3.52 4.45v9.44h-2.62v-16h2.62v1.82a4.91 4.91 0 014.19-2.14 4.73 4.73 0 014.32 2.66 5.47 5.47 0 014.86-2.66 5.15 5.15 0 015.38 5.34v10.94h-2.62v-10c0-2.85-1.54-3.84-3.26-3.84s-3.52 1.34-3.52 4.45zM1216.65 858.69c.19 3 2.08 5.18 5 5.18a6.4 6.4 0 004.19-1.57l1.34 1.89a8.9 8.9 0 01-5.66 2c-4.64 0-7.58-3.49-7.58-8.29s2.85-8.32 7.26-8.32c4.16 0 6.82 3.49 6.82 8.29v.83zm0-2.11h8.45c-.1-2.46-1.47-4.7-4-4.7s-4.29 2.26-4.42 4.7zM1231.95 849.89h2.62v1.82a5.5 5.5 0 014.67-2.14 5.09 5.09 0 015.34 5.44v10.85H1242v-10c0-2.82-1.44-3.87-3.3-3.87a4.1 4.1 0 00-4.1 4.42v9.47h-2.62zM1253.71 861.89c0 1.06.19 2 2 2a13.91 13.91 0 002-.19l.29 2.3a23.27 23.27 0 01-2.85.22c-2.53 0-4.1-1-4.1-3.71v-10.32h-3v-2.3h3v-5.22l2.62-.93v6.14h4.45v2.3h-4.45zM1260.33 863.87l1.6-1.86a7.57 7.57 0 004.83 2c1.82 0 3.2-.83 3.2-2.4 0-1.73-1.73-2.11-3.9-2.69s-5-1.38-5-4.67c0-2.69 2.46-4.64 5.82-4.64a8.62 8.62 0 015.54 2l-1.54 1.76a5.85 5.85 0 00-3.94-1.54c-2.11 0-3.17.93-3.17 2.37 0 1.15.9 1.73 2.3 2.11.83.22 1.79.51 2.62.77 2.14.67 3.9 1.79 3.9 4.35 0 3.3-2.91 4.8-6 4.8a9.6 9.6 0 01-6.26-2.36zM1283.3 843.46h2.7l-7.84 22.4h-2.72zM1287.82 863.87l1.6-1.86a7.57 7.57 0 004.83 2c1.82 0 3.2-.83 3.2-2.4 0-1.73-1.73-2.11-3.9-2.69s-5-1.38-5-4.67c0-2.69 2.46-4.64 5.82-4.64a8.63 8.63 0 015.54 2l-1.54 1.76a5.85 5.85 0 00-3.94-1.54c-2.11 0-3.17.93-3.17 2.37 0 1.15.9 1.73 2.3 2.11.83.22 1.79.51 2.62.77 2.14.67 3.9 1.79 3.9 4.35 0 3.3-2.91 4.8-6 4.8a9.6 9.6 0 01-6.26-2.36zM1306 858.69c.19 3 2.08 5.18 5 5.18a6.4 6.4 0 004.19-1.57l1.34 1.89a8.9 8.9 0 01-5.66 2c-4.64 0-7.58-3.49-7.58-8.29s2.85-8.32 7.26-8.32c4.16 0 6.82 3.49 6.82 8.29v.83zm0-2.11h8.45c-.1-2.46-1.47-4.7-4-4.7s-4.26 2.26-4.39 4.7zM1329.48 852.22h-.42c-2.69 0-5.12 1.09-5.12 5.44v8.19h-2.62v-16h2.62v2.53a5 5 0 014.77-2.82h.77zM1336.3 865.85l-5.06-16h3l3.84 13.54 3.81-13.54h3l-5.06 16zM1349.67 843.46a2 2 0 011.92 2 1.94 1.94 0 11-3.87 0 2 2 0 011.95-2zm1.28 22.4h-2.62v-16h2.67zM1357.83 858c0 3.2 1.57 5.92 4.64 5.92a4.56 4.56 0 004.13-2.69l2.18 1.25a6.78 6.78 0 01-6.3 3.74c-4.42 0-7.36-3.46-7.36-8.29s2.94-8.32 7.36-8.32a6.78 6.78 0 016.3 3.74l-2.18 1.25a4.56 4.56 0 00-4.13-2.69c-3.07 0-4.64 2.72-4.64 5.92zM1374.38 858.69c.19 3 2.08 5.18 5 5.18a6.4 6.4 0 004.19-1.57l1.34 1.89a8.9 8.9 0 01-5.66 2c-4.64 0-7.58-3.49-7.58-8.29s2.85-8.32 7.26-8.32c4.16 0 6.82 3.49 6.82 8.29v.83zm0-2.11h8.45c-.1-2.46-1.47-4.7-4-4.7s-4.29 2.26-4.42 4.7zM1389.48 855.29h6.72v2.5h-6.72zM1401.13 849.89h2.62v1.82a5.5 5.5 0 014.67-2.14 5.09 5.09 0 015.34 5.44v10.85h-2.62v-10c0-2.82-1.44-3.87-3.3-3.87a4.1 4.1 0 00-4.1 4.42v9.47h-2.62zM1423.14 866.17c-3.17 0-5.57-1.86-5.57-4.83 0-2.5 1.7-4.16 4.26-4.51l5.63-.77v-1c0-2.43-1.57-3.17-3.55-3.17a9.73 9.73 0 00-4.61 1.25l-1-2.08a12 12 0 015.86-1.47c3.87 0 5.92 1.73 5.92 5.09v7.46a2.16 2.16 0 001.31 2.18l-1.47 1.89a3.16 3.16 0 01-2.14-1.92 5.93 5.93 0 01-4.64 1.88zm0-7.42c-1.76.26-2.91.83-2.91 2.46 0 1.86 1.5 2.88 3.26 2.88 2 0 3.94-1.25 3.94-3.1v-2.88zM1447.14 865.85h-2.62v-10c0-2.85-1.44-3.84-3.2-3.84s-3.52 1.34-3.52 4.45v9.44h-2.62v-16h2.62v1.82a4.91 4.91 0 014.19-2.14 4.73 4.73 0 014.32 2.66 5.47 5.47 0 014.86-2.66 5.15 5.15 0 015.38 5.34v10.94h-2.62v-10c0-2.85-1.54-3.84-3.26-3.84s-3.52 1.34-3.52 4.45zM1463.33 858.69c.19 3 2.08 5.18 5 5.18a6.4 6.4 0 004.19-1.57l1.34 1.89a8.9 8.9 0 01-5.66 2c-4.64 0-7.58-3.49-7.58-8.29s2.85-8.32 7.26-8.32c4.16 0 6.82 3.49 6.82 8.29v.83zm0-2.11h8.45c-.1-2.46-1.47-4.7-4-4.7s-4.29 2.26-4.41 4.7zM1485.19 843.46h2.69l-7.84 22.4h-2.72zM1494 849.89v1.82a5.59 5.59 0 014.67-2.14c4.13 0 6.78 3.49 6.78 8.32s-2.66 8.29-6.78 8.29A5.59 5.59 0 011494 864v6.69h-2.62v-20.8zm8.74 7.9c0-3.33-1.6-5.89-4.54-5.89-2.78 0-4.22 2-4.22 4.67v2.59c0 2.66 1.44 4.67 4.22 4.67 2.94 0 4.54-2.56 4.54-5.89zM1514 866.17c-3.17 0-5.57-1.86-5.57-4.83 0-2.5 1.7-4.16 4.26-4.51l5.63-.77v-1c0-2.43-1.57-3.17-3.55-3.17a9.73 9.73 0 00-4.61 1.25l-1-2.08a12 12 0 015.86-1.47c3.87 0 5.92 1.73 5.92 5.09v7.46a2.16 2.16 0 001.31 2.18l-1.47 1.89a3.16 3.16 0 01-2.14-1.92 5.93 5.93 0 01-4.64 1.88zm0-7.42c-1.76.26-2.91.83-2.91 2.46 0 1.86 1.5 2.88 3.26 2.88 2 0 3.94-1.25 3.94-3.1v-2.88zM1524.14 849.89h3l3.94 13.18 3.74-13.18h2.94l-5.82 18.37c-.7 2.24-2.27 2.82-4.22 2.82a18.75 18.75 0 01-2.85-.26l.38-2.3a12.17 12.17 0 002.11.22 1.81 1.81 0 002-1.6l.16-.74zM1553.13 865.85h-2.62v-10c0-2.85-1.44-3.84-3.2-3.84s-3.52 1.34-3.52 4.45v9.44h-2.62v-16h2.62v1.82a4.91 4.91 0 014.19-2.14 4.73 4.73 0 014.32 2.66 5.47 5.47 0 014.86-2.66 5.15 5.15 0 015.38 5.34v10.94h-2.62v-10c0-2.85-1.54-3.84-3.26-3.84s-3.52 1.34-3.52 4.45zM1569.32 858.69c.19 3 2.08 5.18 5 5.18a6.4 6.4 0 004.19-1.57l1.34 1.89a8.9 8.9 0 01-5.66 2c-4.64 0-7.58-3.49-7.58-8.29s2.85-8.32 7.26-8.32c4.16 0 6.82 3.49 6.82 8.29v.83zm0-2.11h8.45c-.1-2.46-1.47-4.7-4-4.7s-4.29 2.26-4.42 4.7zM1584.61 849.89h2.62v1.82a5.5 5.5 0 014.67-2.14 5.09 5.09 0 015.34 5.44v10.85h-2.62v-10c0-2.82-1.44-3.87-3.3-3.87a4.1 4.1 0 00-4.1 4.42v9.47h-2.62zM1606.37 861.89c0 1.06.19 2 2 2a13.91 13.91 0 002-.19l.29 2.3a23.27 23.27 0 01-2.85.22c-2.53 0-4.1-1-4.1-3.71v-10.32h-3v-2.3h3v-5.22l2.62-.93v6.14h4.45v2.3h-4.45zM1614.18 855.29h6.72v2.5h-6.72zM1625.73 843.46h2.62v18.81c0 1.06.32 1.6 1.54 1.6.67 0 1.22-.06 1.63-.1l.26 2.21a25.45 25.45 0 01-2.66.19c-1.89 0-3.39-.83-3.39-3.14zM1635.94 843.46a2 2 0 011.92 2 1.94 1.94 0 11-3.87 0 2 2 0 011.95-2zm1.28 22.4h-2.62v-16h2.62zM1642.34 849.89h2.66v1.82a5.5 5.5 0 014.67-2.14A5.09 5.09 0 011655 855v10.85h-2.62v-10c0-2.82-1.44-3.87-3.3-3.87a4.1 4.1 0 00-4.1 4.42v9.47h-2.62zM1662.6 857.73l7.52-7.84h3.3l-6.08 6.34 6.37 9.63h-3.2l-5-7.87-2.88 2.94v4.93H1660v-22.4h2.62z"/></g><g><path class="cls-9" d="M851.65 320.63v-45.46a10 10 0 0110-10h961.58a10 10 0 0110 10v45.46"/><circle class="cls-1" cx="886.84" cy="292.9" r="11.79"/><circle class="cls-1" cx="919.77" cy="292.9" r="11.79"/><circle class="cls-1" cx="952.7" cy="292.9" r="11.79"/></g><path d="M924.24 345.31v32.5h48.36v-32.5zm45.22 1.7l-21 18.09-21-18.09zm-43.51 1l15 12.92-15 14.06zm1.31 28.09l15-14 6.15 5.29 6.15-5.29 15 14zm43.64-1.1l-15-14.06 15-12.92z" stroke="#fff" stroke-miterlimit="10" fill="#fff"/><g><path class="cls-1" d="M1002 347.93h17.6V351h-14v9.66h12.85v3.11h-12.85v10.42h14.79v3.11H1002zM1041.53 377.34h-3.44v-13.19c0-3.74-1.89-5-4.2-5s-4.62 1.76-4.62 5.84v12.39h-3.45v-21h3.45v2.39a6.45 6.45 0 015.5-2.81 6.22 6.22 0 015.67 3.49 7.18 7.18 0 016.38-3.49 6.75 6.75 0 017.06 7v14.37h-3.45v-13.18c0-3.74-2-5-4.28-5s-4.62 1.76-4.62 5.84zM1066.18 377.76c-4.16 0-7.31-2.44-7.31-6.34 0-3.28 2.23-5.46 5.59-5.92l7.39-1v-1.34c0-3.19-2.06-4.16-4.66-4.16a12.76 12.76 0 00-6 1.64l-1.3-2.73a15.82 15.82 0 017.69-1.93c5.08 0 7.77 2.27 7.77 6.68v9.79a2.84 2.84 0 001.72 2.86l-1.93 2.48a4.14 4.14 0 01-2.81-2.52 7.79 7.79 0 01-6.15 2.49zm0-9.75c-2.31.34-3.82 1.09-3.82 3.23 0 2.44 2 3.78 4.29 3.78 2.56 0 5.17-1.64 5.17-4.07v-3.78zM1083.74 347.93a2.56 2.56 0 012.52 2.56 2.54 2.54 0 11-5.08 0 2.57 2.57 0 012.56-2.56zm1.68 29.41H1082v-21h3.45zM1092 347.93h3.44v24.7c0 1.39.42 2.1 2 2.1.88 0 1.6-.08 2.14-.13l.34 2.9a33.49 33.49 0 01-3.49.25c-2.48 0-4.45-1.09-4.45-4.12z"/></g><path class="cls-13" d="M94.35 893.85v62.22"/><g><path class="cls-11" d="M127.49 919.32a4.77 4.77 0 00-4.17-2.16c-2.61 0-4.45 2-4.45 5.11v3.83h5.67v2.57h-5.67v8h10.88v2.57H114.1v-2.57h1.81v-8h-1.81v-2.57h1.81v-3.76c0-4.87 2.92-7.79 7.37-7.79 3 0 5.22 1 6.61 3zM137.16 933a5.5 5.5 0 005.63 4c3.55 0 5.18-2.05 5.18-4.52 0-2.71-2-4.24-5.7-4.24h-1.08v-2.61h.59c3.16 0 5.77-1.11 5.77-4.21 0-2.85-2.23-4.21-4.73-4.21a5.6 5.6 0 00-5.35 3.69l-2.75-1c1.32-3.58 4.56-5.25 8.14-5.25 4.24 0 7.79 2.71 7.79 6.5a5.47 5.47 0 01-4.52 5.6c3.44.73 5 3.06 5 5.91 0 4.73-4 7-8.41 7-3.93 0-7.2-1.81-8.55-5.63zM159.45 915.11v-.24h2.92v24.34h-3v-17.8h-4.49v-2.61h.45c3.18 0 4.12-1.11 4.12-3.69zM170.62 934.9a2.33 2.33 0 11-2.33 2.33 2.33 2.33 0 012.33-2.33zM194.89 927.07c0 6.29-2.29 12.48-8.83 12.48s-8.83-6.19-8.83-12.48 2.3-12.52 8.83-12.52 8.83 6.19 8.83 12.52zm-3.16.7v-1.43c0-5.84-2.26-9.18-5.67-9.18s-5.67 3.34-5.67 9.18v1.43c0 5.84 2.26 9.18 5.67 9.18s5.66-3.34 5.66-9.18zM217.08 927.07c0 6.29-2.29 12.48-8.83 12.48s-8.83-6.19-8.83-12.48 2.3-12.52 8.83-12.52 8.83 6.19 8.83 12.52zm-3.16.7v-1.43c0-5.84-2.26-9.18-5.67-9.18s-5.67 3.34-5.67 9.18v1.43c0 5.84 2.26 9.18 5.67 9.18s5.66-3.34 5.66-9.18z"/></g><g><path class="cls-8" d="M927 648.34h9.54a7.57 7.57 0 018 7.9c0 4.53-3.41 7.91-8.38 7.91h-4.33v8H927zm8.25 4.36h-3.41v7.09h3.41c2.66 0 4.33-1.23 4.33-3.48v-.14c-.01-2.24-1.68-3.46-4.34-3.46zM952.35 672.54c-3.24 0-6.17-2-6.17-5.59 0-2.86 1.88-4.77 5-5.21l5.42-.75v-.58c0-1.57-1.06-2.28-2.79-2.28a12 12 0 00-5.25 1.43l-1.8-3.56a15.05 15.05 0 017.22-2c3.27 0 7.22.89 7.22 5.72v7.63c0 1.06.58 1.43 1.53 1.84l-2.08 3.3a4.05 4.05 0 01-3.34-2 6.16 6.16 0 01-4.96 2.05zm.54-7.53c-1.12.17-1.87.82-1.87 1.84a2.16 2.16 0 002.42 2.08 3 3 0 003.17-3.27v-1.23zM969.11 672.91l.13-.58h-.34l-5.49-18h5.11l3.27 12.33 3.2-12.33h5l-6.13 20.44c-.78 2.66-2.86 3.37-5.55 3.37a30.22 30.22 0 01-4.19-.34l1-4.05a16.54 16.54 0 002.46.2 1.35 1.35 0 001.53-1.04zM997.6 672.19H993v-10.35c0-2.56-1.19-3.44-2.69-3.44-1.77 0-3.13 1.23-3.13 4.09v9.71h-4.6v-17.83h4.6v1.57a6 6 0 014.57-1.91 5.16 5.16 0 014.6 2.42 6.28 6.28 0 015.38-2.42 6 6 0 016.34 6v12.16h-4.63v-10.35c0-2.56-1.19-3.44-2.69-3.44-1.77 0-3.13 1.23-3.13 4.09zM1016.07 664.87a4.19 4.19 0 004.33 3.47 6.4 6.4 0 004.5-1.67l2.28 3.48a10.66 10.66 0 01-6.92 2.38c-4.91 0-9-3.41-9-9.13v-.2c0-5.25 3.58-9.17 8.62-9.17 4.7 0 8.18 3.58 8.18 8.76v2.08zm0-3.48h7.19a3.43 3.43 0 00-3.51-3.37 3.56 3.56 0 00-3.64 3.37zM1031.37 654.37h4.6v1.53a6 6 0 014.53-1.87 5.84 5.84 0 016.17 6.13v12h-4.6v-10.32c0-2.52-1.19-3.48-2.79-3.48-1.87 0-3.31 1.33-3.31 4.09v9.75h-4.6zM1057.41 666.88c0 .85.38 1.5 2 1.5a11.39 11.39 0 002.28-.2l.41 4.05a36.78 36.78 0 01-4.22.31c-3.17 0-5-1.4-5-4.53v-9.51h-3.2v-4.12h3.2v-5l4.6-1.23v6.27h4.67v4.12h-4.67zM1078.67 672.54c-3.24 0-6.17-2-6.17-5.59 0-2.86 1.87-4.77 5-5.21l5.42-.75v-.58c0-1.57-1.06-2.28-2.79-2.28a12 12 0 00-5.25 1.43l-1.8-3.54a15.05 15.05 0 017.22-2c3.27 0 7.22.89 7.22 5.72v7.63c0 1.06.58 1.43 1.53 1.84l-2.08 3.3a4 4 0 01-3.34-2 6.16 6.16 0 01-4.96 2.03zm.54-7.53c-1.12.17-1.87.82-1.87 1.84a2.17 2.17 0 002.42 2.08 3 3 0 003.17-3.27v-1.23zM1106.85 672.19h-4.6v-10.35c0-2.56-1.19-3.44-2.69-3.44-1.77 0-3.13 1.23-3.13 4.09v9.71h-4.6v-17.83h4.6v1.57A6 6 0 011101 654a5.16 5.16 0 014.6 2.42 6.27 6.27 0 015.4-2.42 6 6 0 016.34 6v12.16h-4.63v-10.32c0-2.56-1.19-3.44-2.69-3.44-1.77 0-3.13 1.23-3.13 4.09zM1138.07 663.3c0 5.28-3.51 9.23-8.76 9.23s-8.76-4-8.76-9.23c0-5.25 3.48-9.23 8.76-9.23s8.76 4 8.76 9.23zm-4.7 0c0-2.9-1.43-5-4.05-5s-4 2.08-4.05 5c0 2.9 1.43 5 4.05 5s4-2.08 4.05-5zM1156.61 672.19H1152v-1.53a6 6 0 01-4.53 1.87 5.84 5.84 0 01-6.17-6.13v-12h4.6v10.36c0 2.52 1.19 3.48 2.79 3.48 1.87 0 3.3-1.33 3.3-4.09v-9.75h4.6zM1160.9 654.37h4.6v1.53a6 6 0 014.5-1.9 5.84 5.84 0 016.17 6.13v12h-4.6v-10.29c0-2.52-1.19-3.48-2.79-3.48-1.87 0-3.31 1.33-3.31 4.09v9.75h-4.6zM1186.94 666.88c0 .85.38 1.5 2 1.5a11.39 11.39 0 002.28-.2l.41 4.05a36.78 36.78 0 01-4.22.31c-3.17 0-5-1.4-5-4.53v-9.51h-3.2v-4.12h3.2v-5l4.6-1.23v6.27h4.67v4.12h-4.67z"/><path class="cls-13" d="M930.87 698.8v62.22"/><g><path class="cls-11" d="M964 724.27a4.77 4.77 0 00-4.17-2.16c-2.61 0-4.45 2-4.45 5.11v3.83h5.67v2.57h-5.67v8h10.88v2.57h-15.64v-2.57h1.81v-8h-1.81v-2.57h1.81v-3.75c0-4.87 2.92-7.79 7.37-7.79 3 0 5.22 1 6.61 3zM973.68 737.94a5.5 5.5 0 005.63 4c3.55 0 5.18-2.05 5.18-4.52 0-2.71-2-4.24-5.7-4.24h-1.08v-2.61h.59c3.16 0 5.77-1.11 5.77-4.21 0-2.85-2.23-4.21-4.73-4.21a5.6 5.6 0 00-5.34 3.65l-2.75-1c1.32-3.58 4.56-5.25 8.14-5.25 4.24 0 7.79 2.71 7.79 6.5a5.47 5.47 0 01-4.52 5.6c3.44.73 5 3.06 5 5.91 0 4.73-4 7-8.41 7-3.93 0-7.2-1.81-8.55-5.63zM996 720.07v-.24h2.92v24.34h-3v-17.8h-4.49v-2.61h.45c3.12-.01 4.12-1.12 4.12-3.69zM1007.13 739.85a2.33 2.33 0 11-2.33 2.33 2.33 2.33 0 012.33-2.33zM1031.41 732c0 6.29-2.29 12.48-8.83 12.48s-8.83-6.19-8.83-12.48 2.3-12.52 8.83-12.52 8.83 6.22 8.83 12.52zm-3.16.7v-1.4c0-5.84-2.26-9.18-5.67-9.18s-5.67 3.34-5.67 9.18v1.43c0 5.84 2.26 9.18 5.67 9.18s5.66-3.35 5.66-9.19zM1053.59 732c0 6.29-2.29 12.48-8.83 12.48s-8.83-6.19-8.83-12.48 2.3-12.52 8.83-12.52 8.83 6.22 8.83 12.52zm-3.16.7v-1.4c0-5.84-2.26-9.18-5.67-9.18s-5.67 3.34-5.67 9.18v1.43c0 5.84 2.26 9.18 5.67 9.18s5.67-3.35 5.67-9.19z"/></g></g></g></svg>