<svg xmlns="http://www.w3.org/2000/svg" viewBox="0 0 1833.22 1284.47">
  <defs>
    <style>
      .cls-1, .cls-12 {
        fill: #fff;
      }

      .cls-2 {
        fill: #1a171b;
      }

      .cls-13, .cls-3, .cls-4, .cls-6, .cls-7 {
        fill: none;
      }

      .cls-3 {
        stroke: #dadada;
        stroke-width: 3px;
      }

      .cls-12, .cls-13, .cls-3, .cls-4, .cls-6, .cls-7 {
        stroke-miterlimit: 10;
      }

      .cls-4 {
        stroke: #1d1d1b;
      }

      .cls-4, .cls-7 {
        stroke-width: 0.5px;
      }

      .cls-5 {
        fill: #a3a3a3;
      }

      .cls-6 {
        stroke: #1a171b;
        stroke-width: 4px;
      }

      .cls-7 {
        stroke: #9c9b9b;
      }

      .cls-8 {
        fill: #1d1d1b;
      }

      .cls-9 {
        fill: #dadada;
      }

      .cls-10 {
        fill: #1d70b7;
      }

      .cls-11 {
        fill: #0b0b0b;
      }

      .cls-12 {
        stroke: #fff;
      }

      .cls-13 {
        stroke: #a3a3a3;
        stroke-width: 8px;
      }
    </style>
  </defs>
  <title>payment-link-demo-2</title>
  <g id="Layer_2" data-name="Layer 2">
    <rect class="cls-1" width="965.98" height="1284.47"/>
    <g>
      <g>
        <path class="cls-2" d="M111.38,108.79H98.79l-1.53,5.09H90.33l10.59-32.39h8.6l10.73,32.39H113ZM100.55,103h9.07l-4.49-14.62H105Z"/>
        <path class="cls-2" d="M130.07,89.68v2.08a8,8,0,0,1,6.11-2.54c6.38,0,10.64,5.27,10.64,12.45v.23c0,7.17-4.4,12.44-10.78,12.44a7.69,7.69,0,0,1-6-2.54v9.72h-6.25V89.68ZM129.88,104c0,2.59,1.94,4.53,5,4.53,3.56,0,5.51-2.82,5.51-6.66v-.23c0-3.84-1.94-6.66-5.51-6.66-3.05,0-5,1.94-5,4.53Z"/>
        <path class="cls-2" d="M157.69,89.68v2.08a8,8,0,0,1,6.11-2.54c6.38,0,10.64,5.27,10.64,12.45v.23c0,7.17-4.4,12.44-10.78,12.44a7.69,7.69,0,0,1-6-2.54v9.72h-6.25V89.68ZM157.5,104c0,2.59,1.94,4.53,5,4.53,3.56,0,5.51-2.82,5.51-6.66v-.23c0-3.84-1.94-6.66-5.51-6.66-3.05,0-5,1.94-5,4.53Z"/>
        <path class="cls-2" d="M179,81.49h6.25v25.82c0,1,.56,1.57,1.85,1.57a12.38,12.38,0,0,0,2.36-.23l.51,5.32a51.41,51.41,0,0,1-5.27.37c-3.52,0-5.69-1.85-5.69-5.32Z"/>
        <path class="cls-2" d="M195.95,80.33A3.93,3.93,0,1,1,192,84.27,3.93,3.93,0,0,1,195.95,80.33Zm3.15,33.54h-6.25V89.68h6.25Z"/>
        <path class="cls-2" d="M203.67,101.71c0-7.13,4.9-12.49,11.7-12.49,5,0,8.93,2.45,10.5,6.25l-5.55,2.82A4.94,4.94,0,0,0,215.52,95c-3.79,0-5.41,3.47-5.41,6.66v.28c0,3.15,1.62,6.62,5.41,6.62a4.94,4.94,0,0,0,4.81-3.28l5.55,2.82c-1.57,3.79-5.69,6.25-10.59,6.25-6.8,0-11.61-5.37-11.61-12.49Z"/>
        <path class="cls-2" d="M237.12,114.34c-4.4,0-8.37-2.78-8.37-7.59,0-3.89,2.54-6.48,6.8-7.08l7.36-1v-.79c0-2.13-1.43-3.1-3.79-3.1A16.3,16.3,0,0,0,232,96.71l-2.45-4.81a20.44,20.44,0,0,1,9.81-2.68c4.44,0,9.81,1.2,9.81,7.77v10.36c0,1.43.79,1.94,2.08,2.5l-2.82,4.49a5.5,5.5,0,0,1-4.53-2.73C242.35,113.46,240,114.34,237.12,114.34Zm.74-10.22c-1.53.23-2.54,1.11-2.54,2.5s1.2,2.82,3.29,2.82c2.92,0,4.3-1.94,4.3-4.44v-1.67Z"/>
        <path class="cls-2" d="M263.68,106.66c0,1.16.51,2,2.68,2a15.38,15.38,0,0,0,3.1-.28l.55,5.51a49.93,49.93,0,0,1-5.74.42c-4.3,0-6.85-1.9-6.85-6.15V95.28h-4.35v-5.6h4.35V82.83l6.25-1.67v8.51H270v5.6h-6.34Z"/>
        <path class="cls-2" d="M277.51,80.33a3.93,3.93,0,1,1-3.93,3.93A3.93,3.93,0,0,1,277.51,80.33Zm3.15,33.54h-6.25V89.68h6.25Z"/>
        <path class="cls-2" d="M309,101.8c0,7.17-4.76,12.54-11.89,12.54s-11.89-5.41-11.89-12.54v0c0-7.12,4.72-12.54,11.89-12.54S309,94.63,309,101.75Zm-6.38,0c0-3.93-1.94-6.75-5.51-6.75s-5.46,2.82-5.51,6.75v0c0,3.93,1.94,6.75,5.51,6.75s5.46-2.82,5.51-6.75Z"/>
        <path class="cls-2" d="M313.6,89.68h6.25v2.08A8.21,8.21,0,0,1,326,89.22a7.93,7.93,0,0,1,8.37,8.33v16.33h-6.25V99.81c0-3.42-1.62-4.72-3.79-4.72-2.54,0-4.49,1.8-4.49,5.55v13.23H313.6Z"/>
        <path class="cls-2" d="M359.58,89.68h4.63v5.6h-4.63v18.6h-6.25V95.28H349.5v-5.6h3.84v-2.5c0-4.21,3-6.15,7.31-6.15a42,42,0,0,1,5,.32l-.51,5.32a21.54,21.54,0,0,0-3.05-.23c-1.76,0-2.45.74-2.45,1.8Z"/>
        <path class="cls-2" d="M390.4,101.8c0,7.17-4.76,12.54-11.89,12.54s-11.89-5.41-11.89-12.54v0c0-7.12,4.72-12.54,11.89-12.54s11.89,5.41,11.89,12.54Zm-6.38,0c0-3.93-1.94-6.75-5.51-6.75S373,97.82,373,101.75v0c0,3.93,1.94,6.75,5.51,6.75s5.46-2.82,5.51-6.75Z"/>
        <path class="cls-2" d="M409,95.74h-1.11c-3.56,0-6.71,1.2-6.71,6.38v11.75H395V89.68h6.25v2.73a7.5,7.5,0,0,1,6.43-3.15H409Z"/>
        <path class="cls-2" d="M433.33,113.88h-6.25V99.81c0-3.47-1.62-4.67-3.65-4.67-2.41,0-4.26,1.67-4.26,5.55v13.19h-6.25V89.68h6.25v2.13a8.11,8.11,0,0,1,6.2-2.59,7,7,0,0,1,6.25,3.28c1.71-2.41,4.44-3.28,7.31-3.28,5.41,0,8.61,3.84,8.61,8.14v16.52h-6.29V99.81c0-3.47-1.62-4.67-3.65-4.67-2.41,0-4.26,1.67-4.26,5.55Z"/>
      </g>
      <rect x="89.59" y="162.85" width="4.78" height="93.01"/>
      <rect x="97.35" y="162.85" width="2.2" height="93.01"/>
      <rect x="105.09" y="162.85" width="7.36" height="93.01"/>
      <rect x="118.01" y="162.85" width="9.95" height="93.01"/>
      <rect x="130.93" y="162.85" width="2.2" height="93.01"/>
      <rect x="136.1" y="162.85" width="7.36" height="93.01"/>
      <path d="M169.29,255.85h-4.78v-93h4.78Zm-7.75,0h-4.78v-93h4.78Zm-10.33,0h-4.78v-93h4.78Z"/>
      <path d="M184.8,255.85h-2.2v-93h2.2Zm-7.75,0h-2.2v-93H177Z"/>
      <rect x="192.93" y="162.85" width="4.78" height="93.01"/>
      <rect x="203.27" y="162.85" width="7.36" height="93.01"/>
      <rect x="213.6" y="162.85" width="9.95" height="93.01"/>
      <path d="M233.88,255.85h-2.2v-93h2.2Zm-5.17,0h-2.2v-93h2.2Z"/>
      <rect x="236.85" y="162.85" width="4.78" height="93.01"/>
      <rect x="247.19" y="162.85" width="7.36" height="93.01"/>
      <path d="M272.63,255.85h-2.2v-93h2.2Zm-10.33,0h-2.2v-93h2.2Z"/>
      <rect x="275.61" y="162.85" width="4.78" height="93.01"/>
      <rect x="288.52" y="162.85" width="7.36" height="93.01"/>
      <rect x="304.02" y="162.85" width="2.2" height="93.01"/>
      <path d="M321.72,255.85h-4.78v-93h4.78Zm-7.75,0h-4.78v-93H314Z"/>
      <path d="M352.72,255.85h-2.2v-93h2.2Zm-5.17,0h-2.2v-93h2.2Zm-7.75,0h-2.2v-93h2.2Zm-5.17,0h-2.2v-93h2.2Z"/>
      <rect x="360.86" y="162.85" width="9.95" height="93.01"/>
      <path d="M383.73,255.85h-2.2v-93h2.2Zm-7.75,0h-2.2v-93H376Z"/>
      <path d="M407,255.85H402.2v-93H407Zm-12.92,0h-4.78v-93h4.78Z"/>
      <rect x="415.11" y="162.85" width="7.36" height="93.01"/>
      <rect x="425.45" y="162.85" width="2.2" height="93.01"/>
      <rect x="430.61" y="162.85" width="4.78" height="93.01"/>
      <polyline class="cls-3" points="48.04 146.36 48.04 45.55 148.85 45.55"/>
      <polyline class="cls-3" points="819.62 45.55 920.44 45.55 920.44 146.36"/>
      <polyline class="cls-3" points="919.19 1140.13 919.19 1240.95 818.38 1240.95"/>
      <polyline class="cls-3" points="147.6 1240.95 46.79 1240.95 46.79 1140.13"/>
      <line class="cls-3" x1="63.09" y1="301.47" x2="897.72" y2="301.47"/>
      <rect class="cls-4" x="91.91" y="376.36" width="27.71" height="27.71"/>
      <rect class="cls-4" x="119.61" y="376.36" width="27.71" height="27.71"/>
      <rect class="cls-4" x="147.32" y="376.36" width="27.71" height="27.71"/>
      <rect class="cls-4" x="175.02" y="376.36" width="27.71" height="27.71"/>
      <rect class="cls-4" x="202.73" y="376.36" width="27.71" height="27.71"/>
      <rect class="cls-4" x="230.44" y="376.36" width="27.71" height="27.71"/>
      <rect class="cls-4" x="258.14" y="376.36" width="27.71" height="27.71"/>
      <rect class="cls-4" x="285.85" y="376.36" width="27.71" height="27.71"/>
      <rect class="cls-4" x="313.56" y="376.36" width="27.71" height="27.71"/>
      <rect class="cls-4" x="341.26" y="376.36" width="27.71" height="27.71"/>
      <rect class="cls-4" x="368.97" y="376.36" width="27.71" height="27.71"/>
      <rect class="cls-4" x="396.68" y="376.36" width="27.71" height="27.71"/>
      <rect class="cls-4" x="424.38" y="376.36" width="27.71" height="27.71"/>
      <rect class="cls-4" x="452.09" y="376.36" width="27.71" height="27.71"/>
      <rect class="cls-4" x="479.8" y="376.36" width="27.71" height="27.71"/>
      <rect class="cls-4" x="507.5" y="376.36" width="27.71" height="27.71"/>
      <rect class="cls-4" x="91.91" y="501.31" width="27.71" height="27.71"/>
      <rect class="cls-4" x="119.61" y="501.31" width="27.71" height="27.71"/>
      <rect class="cls-4" x="147.32" y="501.31" width="27.71" height="27.71"/>
      <rect class="cls-4" x="175.02" y="501.31" width="27.71" height="27.71"/>
      <rect class="cls-4" x="202.73" y="501.31" width="27.71" height="27.71"/>
      <rect class="cls-4" x="230.44" y="501.31" width="27.71" height="27.71"/>
      <rect class="cls-4" x="258.14" y="501.31" width="27.71" height="27.71"/>
      <rect class="cls-4" x="285.85" y="501.31" width="27.71" height="27.71"/>
      <rect class="cls-4" x="313.56" y="501.31" width="27.71" height="27.71"/>
      <rect class="cls-4" x="341.26" y="501.31" width="27.71" height="27.71"/>
      <rect class="cls-4" x="368.97" y="501.31" width="27.71" height="27.71"/>
      <rect class="cls-4" x="396.68" y="501.31" width="27.71" height="27.71"/>
      <rect class="cls-4" x="424.38" y="501.31" width="27.71" height="27.71"/>
      <rect class="cls-4" x="452.09" y="501.31" width="27.71" height="27.71"/>
      <rect class="cls-4" x="479.8" y="501.31" width="27.71" height="27.71"/>
      <rect class="cls-4" x="507.5" y="501.31" width="27.71" height="27.71"/>
      <rect class="cls-4" x="535.21" y="501.31" width="27.71" height="27.71"/>
      <rect class="cls-4" x="562.92" y="501.31" width="27.71" height="27.71"/>
      <rect class="cls-4" x="590.62" y="501.31" width="27.71" height="27.71"/>
      <rect class="cls-4" x="618.33" y="501.31" width="27.71" height="27.71"/>
      <rect class="cls-4" x="646.03" y="501.31" width="27.71" height="27.71"/>
      <rect class="cls-4" x="91.91" y="559.63" width="27.71" height="27.71"/>
      <rect class="cls-4" x="119.61" y="559.63" width="27.71" height="27.71"/>
      <rect class="cls-4" x="147.32" y="559.63" width="27.71" height="27.71"/>
      <rect class="cls-4" x="175.02" y="559.63" width="27.71" height="27.71"/>
      <rect class="cls-4" x="202.73" y="559.63" width="27.71" height="27.71"/>
      <rect class="cls-4" x="230.44" y="559.63" width="27.71" height="27.71"/>
      <rect class="cls-4" x="258.14" y="559.63" width="27.71" height="27.71"/>
      <rect class="cls-4" x="285.85" y="559.63" width="27.71" height="27.71"/>
      <rect class="cls-4" x="313.56" y="559.63" width="27.71" height="27.71"/>
      <rect class="cls-4" x="341.26" y="559.63" width="27.71" height="27.71"/>
      <rect class="cls-4" x="368.97" y="559.63" width="27.71" height="27.71"/>
      <rect class="cls-4" x="396.68" y="559.63" width="27.71" height="27.71"/>
      <rect class="cls-4" x="424.38" y="559.63" width="27.71" height="27.71"/>
      <rect class="cls-4" x="452.09" y="559.63" width="27.71" height="27.71"/>
      <rect class="cls-4" x="479.8" y="559.63" width="27.71" height="27.71"/>
      <rect class="cls-4" x="507.5" y="559.63" width="27.71" height="27.71"/>
      <rect class="cls-4" x="535.21" y="559.63" width="27.71" height="27.71"/>
      <rect class="cls-4" x="562.92" y="559.63" width="27.71" height="27.71"/>
      <rect class="cls-4" x="590.62" y="559.63" width="27.71" height="27.71"/>
      <rect class="cls-4" x="618.33" y="559.63" width="27.71" height="27.71"/>
      <rect class="cls-4" x="646.03" y="559.63" width="27.71" height="27.71"/>
      <rect class="cls-5" x="90.91" y="344.04" width="195.94" height="15.26"/>
      <rect class="cls-5" x="91.91" y="462.8" width="195.94" height="15.26"/>
      <rect class="cls-4" x="91.91" y="671.6" width="27.71" height="27.71"/>
      <rect class="cls-4" x="119.61" y="671.6" width="27.71" height="27.71"/>
      <rect class="cls-4" x="147.32" y="671.6" width="27.71" height="27.71"/>
      <rect class="cls-4" x="175.02" y="671.6" width="27.71" height="27.71"/>
      <rect class="cls-4" x="202.73" y="671.6" width="27.71" height="27.71"/>
      <rect class="cls-4" x="230.44" y="671.6" width="27.71" height="27.71"/>
      <rect class="cls-4" x="258.14" y="671.6" width="27.71" height="27.71"/>
      <rect class="cls-4" x="285.85" y="671.6" width="27.71" height="27.71"/>
      <rect class="cls-4" x="313.56" y="671.6" width="27.71" height="27.71"/>
      <rect class="cls-4" x="341.26" y="671.6" width="27.71" height="27.71"/>
      <rect class="cls-4" x="368.97" y="671.6" width="27.71" height="27.71"/>
      <rect class="cls-4" x="396.68" y="671.6" width="27.71" height="27.71"/>
      <rect class="cls-4" x="424.38" y="671.6" width="27.71" height="27.71"/>
      <rect class="cls-4" x="452.09" y="671.6" width="27.71" height="27.71"/>
      <rect class="cls-4" x="479.8" y="671.6" width="27.71" height="27.71"/>
      <rect class="cls-4" x="507.5" y="671.6" width="27.71" height="27.71"/>
      <rect class="cls-4" x="535.21" y="671.6" width="27.71" height="27.71"/>
      <rect class="cls-4" x="562.92" y="671.6" width="27.71" height="27.71"/>
      <rect class="cls-4" x="590.62" y="671.6" width="27.71" height="27.71"/>
      <rect class="cls-4" x="618.33" y="671.6" width="27.71" height="27.71"/>
      <rect class="cls-4" x="646.03" y="671.6" width="27.71" height="27.71"/>
      <rect class="cls-4" x="91.91" y="729.92" width="27.71" height="27.71"/>
      <rect class="cls-4" x="119.61" y="729.92" width="27.71" height="27.71"/>
      <rect class="cls-4" x="147.32" y="729.92" width="27.71" height="27.71"/>
      <rect class="cls-4" x="175.02" y="729.92" width="27.71" height="27.71"/>
      <rect class="cls-4" x="202.73" y="729.92" width="27.71" height="27.71"/>
      <rect class="cls-4" x="230.44" y="729.92" width="27.71" height="27.71"/>
      <rect class="cls-4" x="258.14" y="729.92" width="27.71" height="27.71"/>
      <rect class="cls-4" x="285.85" y="729.92" width="27.71" height="27.71"/>
      <rect class="cls-4" x="313.56" y="729.92" width="27.71" height="27.71"/>
      <rect class="cls-4" x="341.26" y="729.92" width="27.71" height="27.71"/>
      <rect class="cls-4" x="368.97" y="729.92" width="27.71" height="27.71"/>
      <rect class="cls-4" x="396.68" y="729.92" width="27.71" height="27.71"/>
      <rect class="cls-4" x="424.38" y="729.92" width="27.71" height="27.71"/>
      <rect class="cls-4" x="452.09" y="729.92" width="27.71" height="27.71"/>
      <rect class="cls-4" x="479.8" y="729.92" width="27.71" height="27.71"/>
      <rect class="cls-4" x="507.5" y="729.92" width="27.71" height="27.71"/>
      <rect class="cls-4" x="535.21" y="729.92" width="27.71" height="27.71"/>
      <rect class="cls-4" x="562.92" y="729.92" width="27.71" height="27.71"/>
      <rect class="cls-4" x="590.62" y="729.92" width="27.71" height="27.71"/>
      <rect class="cls-4" x="618.33" y="729.92" width="27.71" height="27.71"/>
      <rect class="cls-4" x="646.03" y="729.92" width="27.71" height="27.71"/>
      <rect class="cls-5" x="91.91" y="633.09" width="195.94" height="15.26"/>
      <rect class="cls-6" x="604.47" y="1075.04" width="268.36" height="107.91"/>
      <line class="cls-7" x1="65.68" y1="1039.22" x2="900.3" y2="1039.22"/>
      <line class="cls-7" x1="65.68" y1="801.33" x2="900.3" y2="801.33"/>
      <rect class="cls-5" x="89.19" y="1083.11" width="325.73" height="15.26"/>
      <rect class="cls-5" x="89.19" y="1126.78" width="404.45" height="15.26"/>
      <rect class="cls-5" x="89.19" y="1170.44" width="372.56" height="15.26"/>
      <g>
        <path class="cls-8" d="M91.7,837.66h9.54a7.57,7.57,0,0,1,8,7.9c0,4.53-3.41,7.91-8.38,7.91H96.54v8H91.7ZM99.95,842H96.54v7.09h3.41c2.66,0,4.33-1.23,4.33-3.48v-.14C104.27,843.24,102.6,842,99.95,842Z"/>
        <path class="cls-8" d="M117.05,861.85c-3.24,0-6.17-2-6.17-5.59,0-2.86,1.87-4.77,5-5.21l5.42-.75v-.58c0-1.57-1.06-2.28-2.79-2.28a12,12,0,0,0-5.25,1.43l-1.81-3.54a15.05,15.05,0,0,1,7.22-2c3.27,0,7.22.89,7.22,5.72v7.63c0,1.06.58,1.43,1.53,1.84l-2.08,3.3a4,4,0,0,1-3.34-2A6.16,6.16,0,0,1,117.05,861.85Zm.54-7.53c-1.12.17-1.87.82-1.87,1.84a2.17,2.17,0,0,0,2.42,2.08,3,3,0,0,0,3.17-3.27v-1.23Z"/>
        <path class="cls-8" d="M133.82,862.22l.14-.58h-.34l-5.49-18h5.11L136.51,856l3.2-12.33h5l-6.13,20.44c-.78,2.66-2.86,3.37-5.55,3.37a30.22,30.22,0,0,1-4.19-.34l1-4.05a16.54,16.54,0,0,0,2.45.2A1.35,1.35,0,0,0,133.82,862.22Z"/>
        <path class="cls-8" d="M162.31,861.51h-4.6V851.15c0-2.56-1.19-3.44-2.69-3.44-1.77,0-3.13,1.23-3.13,4.09v9.71h-4.6V843.69h4.6v1.57a6,6,0,0,1,4.57-1.91,5.16,5.16,0,0,1,4.6,2.42,6.28,6.28,0,0,1,5.38-2.42,6,6,0,0,1,6.34,6v12.16h-4.63V851.15c0-2.56-1.19-3.44-2.69-3.44-1.77,0-3.13,1.23-3.13,4.09Z"/>
        <path class="cls-8" d="M180.78,854.18a4.19,4.19,0,0,0,4.33,3.47,6.4,6.4,0,0,0,4.5-1.67l2.28,3.48a10.67,10.67,0,0,1-6.92,2.38c-4.91,0-9-3.41-9-9.13v-.2c0-5.25,3.58-9.17,8.62-9.17,4.7,0,8.18,3.58,8.18,8.76v2.08Zm0-3.48H188a3.43,3.43,0,0,0-3.51-3.37A3.57,3.57,0,0,0,180.81,850.71Z"/>
        <path class="cls-8" d="M196.08,843.69h4.6v1.53a6,6,0,0,1,4.53-1.87,5.84,5.84,0,0,1,6.17,6.13v12h-4.6V851.15c0-2.52-1.19-3.48-2.79-3.48-1.87,0-3.31,1.33-3.31,4.09v9.75h-4.6Z"/>
        <path class="cls-8" d="M222.11,856.19c0,.85.38,1.5,2,1.5a11.39,11.39,0,0,0,2.28-.2l.41,4.05a36.76,36.76,0,0,1-4.22.31c-3.17,0-5-1.4-5-4.53v-9.51h-3.2v-4.12h3.2v-5l4.6-1.23v6.27h4.67v4.12h-4.67Z"/>
        <path class="cls-8" d="M243.38,861.85c-3.24,0-6.17-2-6.17-5.59,0-2.86,1.87-4.77,5-5.21l5.42-.75v-.58c0-1.57-1.06-2.28-2.79-2.28a12,12,0,0,0-5.25,1.43l-1.81-3.54a15.05,15.05,0,0,1,7.22-2c3.27,0,7.22.89,7.22,5.72v7.63c0,1.06.58,1.43,1.53,1.84l-2.08,3.3a4,4,0,0,1-3.34-2A6.16,6.16,0,0,1,243.38,861.85Zm.54-7.53c-1.12.17-1.87.82-1.87,1.84a2.17,2.17,0,0,0,2.42,2.08,3,3,0,0,0,3.17-3.27v-1.23Z"/>
        <path class="cls-8" d="M271.56,861.51H267V851.15c0-2.56-1.19-3.44-2.69-3.44-1.77,0-3.13,1.23-3.13,4.09v9.71h-4.6V843.69h4.6v1.57a6,6,0,0,1,4.57-1.91,5.16,5.16,0,0,1,4.6,2.42,6.28,6.28,0,0,1,5.38-2.42,6,6,0,0,1,6.34,6v12.16h-4.63V851.15c0-2.56-1.19-3.44-2.69-3.44-1.77,0-3.13,1.23-3.13,4.09Z"/>
        <path class="cls-8" d="M302.77,852.61c0,5.28-3.51,9.23-8.76,9.23s-8.76-4-8.76-9.23v0c0-5.25,3.48-9.23,8.76-9.23s8.76,4,8.76,9.23Zm-4.7,0c0-2.9-1.43-5-4.05-5s-4,2.08-4.05,5v0c0,2.9,1.43,5,4.05,5s4-2.08,4.05-5Z"/>
        <path class="cls-8" d="M321.31,861.51h-4.6V860a6,6,0,0,1-4.53,1.87,5.84,5.84,0,0,1-6.17-6.13v-12h4.6V854c0,2.52,1.19,3.48,2.79,3.48,1.87,0,3.3-1.33,3.3-4.09v-9.75h4.6Z"/>
        <path class="cls-8" d="M325.61,843.69h4.6v1.53a6,6,0,0,1,4.53-1.87,5.84,5.84,0,0,1,6.17,6.13v12h-4.6V851.15c0-2.52-1.19-3.48-2.79-3.48-1.87,0-3.31,1.33-3.31,4.09v9.75h-4.6Z"/>
        <path class="cls-8" d="M351.64,856.19c0,.85.38,1.5,2,1.5a11.39,11.39,0,0,0,2.28-.2l.41,4.05a36.76,36.76,0,0,1-4.22.31c-3.17,0-5-1.4-5-4.53v-9.51h-3.2v-4.12H347v-5l4.6-1.23v6.27h4.67v4.12h-4.67Z"/>
      </g>
      <path class="cls-9" d="M959.94,5.21v1274H6V5.21H959.94M966,0H0V1284.47H966V0Z"/>
      <g>
        <path class="cls-10" d="M90.06,981.18h2.62v8.26a5.5,5.5,0,0,1,4.67-2.14,5.09,5.09,0,0,1,5.34,5.44v10.85h-2.62v-10c0-2.82-1.44-3.87-3.3-3.87a4.09,4.09,0,0,0-4.1,4.42v9.47H90.06Z"/>
        <path class="cls-10" d="M111.82,999.61c0,1.06.19,2,2,2a13.91,13.91,0,0,0,2-.19l.29,2.3a23.27,23.27,0,0,1-2.85.22c-2.53,0-4.1-1-4.1-3.71V989.91h-3v-2.3h3v-5.22l2.62-.93v6.14h4.45v2.3h-4.45Z"/>
        <path class="cls-10" d="M123.95,999.61c0,1.06.19,2,2,2a13.9,13.9,0,0,0,2-.19l.29,2.3a23.27,23.27,0,0,1-2.85.22c-2.53,0-4.1-1-4.1-3.71V989.91h-3v-2.3h3v-5.22l2.62-.93v6.14h4.45v2.3h-4.45Z"/>
        <path class="cls-10" d="M134.57,987.61v1.82a5.59,5.59,0,0,1,4.67-2.14c4.13,0,6.78,3.49,6.78,8.32s-2.66,8.29-6.78,8.29a5.59,5.59,0,0,1-4.67-2.14v6.69h-2.62V987.61Zm8.74,7.9c0-3.33-1.6-5.89-4.54-5.89-2.78,0-4.22,2-4.22,4.67v2.59c0,2.66,1.44,4.67,4.22,4.67,2.94,0,4.54-2.56,4.54-5.89Z"/>
        <path class="cls-10" d="M148.84,1001.59l1.6-1.86a7.57,7.57,0,0,0,4.83,2c1.82,0,3.2-.83,3.2-2.4,0-1.73-1.73-2.11-3.9-2.69s-5-1.38-5-4.67c0-2.69,2.46-4.64,5.82-4.64a8.62,8.62,0,0,1,5.54,2L159.44,991a5.85,5.85,0,0,0-3.94-1.54c-2.11,0-3.17.93-3.17,2.37,0,1.15.9,1.73,2.3,2.11.83.22,1.79.51,2.62.77,2.14.67,3.9,1.79,3.9,4.35,0,3.3-2.91,4.8-6,4.8A9.6,9.6,0,0,1,148.84,1001.59Z"/>
        <path class="cls-10" d="M167.05,987.61a2.14,2.14,0,1,1-2.14,2.14A2.14,2.14,0,0,1,167.05,987.61Zm0,12a2.14,2.14,0,1,1-2.14,2.14A2.14,2.14,0,0,1,167.05,999.61Z"/>
        <path class="cls-10" d="M180.52,981.18h2.69l-7.84,22.4h-2.72Z"/>
        <path class="cls-10" d="M190.09,981.18h2.69l-7.84,22.4h-2.72Z"/>
        <path class="cls-10" d="M201.51,987.29a5.4,5.4,0,0,1,4.51,2.14v-1.82h2.62v16.09c0,4-3.49,5.12-6.85,5.12a13.82,13.82,0,0,1-5.92-1.28l.9-2.18a13,13,0,0,0,5.09,1.12c2.69,0,4.16-1,4.16-3.46v-3a5.4,5.4,0,0,1-4.51,2.14c-4,0-6.46-3.23-6.46-7.42S197.55,987.29,201.51,987.29Zm4.58,7.36c0-2.85-1.22-5-4.1-5s-4.22,2.24-4.22,5v.13c0,2.78,1.31,5,4.22,5s4.1-2.18,4.1-5Z"/>
        <path class="cls-10" d="M227.53,995.61c0,4.8-2.94,8.29-7.36,8.29s-7.36-3.49-7.36-8.29,2.94-8.32,7.36-8.32S227.53,990.75,227.53,995.61Zm-2.72.1v-.19c0-3.2-1.6-5.92-4.64-5.92s-4.64,2.72-4.64,5.92v.19c0,3.14,1.6,5.89,4.64,5.89S224.81,998.84,224.81,995.71Z"/>
        <path class="cls-10" d="M234.79,1003.58l-5.06-16h3l3.84,13.54,3.81-13.54h3l-5.06,16Z"/>
        <path class="cls-10" d="M247.59,999.61a2.14,2.14,0,1,1-2.14,2.14A2.14,2.14,0,0,1,247.59,999.61Z"/>
        <path class="cls-10" d="M267,1003.58h-2.62v-1.82a5.5,5.5,0,0,1-4.67,2.14,5.09,5.09,0,0,1-5.34-5.44V987.61H257v10c0,2.82,1.44,3.87,3.3,3.87,2.18,0,4.1-1.44,4.1-4.42v-9.47H267Z"/>
        <path class="cls-10" d="M274.76,995.45l7.52-7.84h3.3l-6.08,6.34,6.37,9.63h-3.2l-5-7.87-2.88,2.94v4.93h-2.62v-22.4h2.62Z"/>
        <path class="cls-10" d="M295.69,981.18h2.69l-7.84,22.4h-2.72Z"/>
        <path class="cls-10" d="M304.45,987.61v1.82a5.59,5.59,0,0,1,4.67-2.14c4.13,0,6.78,3.49,6.78,8.32s-2.66,8.29-6.78,8.29a5.59,5.59,0,0,1-4.67-2.14v6.69h-2.62V987.61Zm8.74,7.9c0-3.33-1.6-5.89-4.54-5.89-2.78,0-4.22,2-4.22,4.67v2.59c0,2.66,1.44,4.67,4.22,4.67,2.94,0,4.54-2.56,4.54-5.89Z"/>
        <path class="cls-10" d="M324.49,1003.9c-3.17,0-5.57-1.86-5.57-4.83,0-2.5,1.7-4.16,4.26-4.51l5.63-.77v-1c0-2.43-1.57-3.17-3.55-3.17a9.73,9.73,0,0,0-4.61,1.25l-1-2.08a12,12,0,0,1,5.86-1.47c3.87,0,5.92,1.73,5.92,5.09v7.46a2.16,2.16,0,0,0,1.31,2.18l-1.47,1.89a3.16,3.16,0,0,1-2.14-1.92A5.93,5.93,0,0,1,324.49,1003.9Zm0-7.42c-1.76.26-2.91.83-2.91,2.46,0,1.86,1.5,2.88,3.26,2.88,2,0,3.94-1.25,3.94-3.1v-2.88Z"/>
        <path class="cls-10" d="M334.63,987.61h3l3.94,13.18,3.74-13.18h2.94L342.41,1006c-.7,2.24-2.27,2.82-4.22,2.82a18.87,18.87,0,0,1-2.85-.26l.38-2.3a12.17,12.17,0,0,0,2.11.22,1.81,1.81,0,0,0,2-1.6l.16-.74Z"/>
        <path class="cls-10" d="M363.62,1003.58H361v-10c0-2.85-1.44-3.84-3.2-3.84s-3.52,1.34-3.52,4.45v9.44h-2.62v-16h2.62v1.82a4.91,4.91,0,0,1,4.19-2.14,4.73,4.73,0,0,1,4.32,2.66,5.47,5.47,0,0,1,4.86-2.66,5.15,5.15,0,0,1,5.38,5.34v10.94h-2.62v-10c0-2.85-1.54-3.84-3.26-3.84s-3.52,1.34-3.52,4.45Z"/>
        <path class="cls-10" d="M379.81,996.41c.19,3,2.08,5.18,5,5.18A6.4,6.4,0,0,0,389,1000l1.34,1.89a8.9,8.9,0,0,1-5.66,2c-4.64,0-7.58-3.49-7.58-8.29s2.85-8.32,7.26-8.32c4.16,0,6.82,3.49,6.82,8.29v.83Zm0-2.11h8.45c-.1-2.46-1.47-4.7-4-4.7S380,991.87,379.85,994.3Z"/>
        <path class="cls-10" d="M395.11,987.61h2.62v1.82a5.5,5.5,0,0,1,4.67-2.14,5.09,5.09,0,0,1,5.34,5.44v10.85h-2.62v-10c0-2.82-1.44-3.87-3.3-3.87a4.1,4.1,0,0,0-4.1,4.42v9.47h-2.62Z"/>
        <path class="cls-10" d="M416.87,999.61c0,1.06.19,2,2,2a13.91,13.91,0,0,0,2-.19l.29,2.3a23.27,23.27,0,0,1-2.85.22c-2.53,0-4.1-1-4.1-3.71V989.91h-3v-2.3h3v-5.22l2.62-.93v6.14h4.45v2.3h-4.45Z"/>
        <path class="cls-10" d="M423.49,1001.59l1.6-1.86a7.57,7.57,0,0,0,4.83,2c1.82,0,3.2-.83,3.2-2.4,0-1.73-1.73-2.11-3.9-2.69s-5-1.38-5-4.67c0-2.69,2.46-4.64,5.82-4.64a8.62,8.62,0,0,1,5.54,2L434.09,991a5.85,5.85,0,0,0-3.94-1.54c-2.11,0-3.17.93-3.17,2.37,0,1.15.9,1.73,2.3,2.11.83.22,1.79.51,2.62.77,2.14.67,3.9,1.79,3.9,4.35,0,3.3-2.91,4.8-6,4.8A9.6,9.6,0,0,1,423.49,1001.59Z"/>
        <path class="cls-10" d="M446.47,981.18h2.69l-7.84,22.4H438.6Z"/>
        <path class="cls-10" d="M451,1001.59l1.6-1.86a7.57,7.57,0,0,0,4.83,2c1.82,0,3.2-.83,3.2-2.4,0-1.73-1.73-2.11-3.9-2.69s-5-1.38-5-4.67c0-2.69,2.46-4.64,5.82-4.64a8.63,8.63,0,0,1,5.54,2L461.57,991a5.85,5.85,0,0,0-3.94-1.54c-2.11,0-3.17.93-3.17,2.37,0,1.15.9,1.73,2.3,2.11.83.22,1.79.51,2.62.77,2.14.67,3.9,1.79,3.9,4.35,0,3.3-2.91,4.8-6,4.8A9.6,9.6,0,0,1,451,1001.59Z"/>
        <path class="cls-10" d="M469.19,996.41c.19,3,2.08,5.18,5,5.18a6.4,6.4,0,0,0,4.19-1.57l1.34,1.89a8.9,8.9,0,0,1-5.66,2c-4.64,0-7.58-3.49-7.58-8.29s2.85-8.32,7.26-8.32c4.16,0,6.82,3.49,6.82,8.29v.83Zm0-2.11h8.45c-.1-2.46-1.47-4.7-4-4.7S469.35,991.87,469.22,994.3Z"/>
        <path class="cls-10" d="M492.64,989.95h-.42c-2.69,0-5.12,1.09-5.12,5.44v8.19h-2.62v-16h2.62v2.53a5,5,0,0,1,4.77-2.82h.77Z"/>
        <path class="cls-10" d="M499.46,1003.58l-5.06-16h3l3.84,13.54L505,987.61h3l-5.06,16Z"/>
        <path class="cls-10" d="M512.84,981.18a2,2,0,0,1,1.92,2,1.94,1.94,0,1,1-3.87,0A2,2,0,0,1,512.84,981.18Zm1.28,22.4h-2.62v-16h2.62Z"/>
        <path class="cls-10" d="M521,995.67c0,3.2,1.57,5.92,4.64,5.92a4.56,4.56,0,0,0,4.13-2.69l2.18,1.25a6.78,6.78,0,0,1-6.3,3.74c-4.42,0-7.36-3.46-7.36-8.29s2.94-8.32,7.36-8.32a6.78,6.78,0,0,1,6.3,3.74l-2.18,1.25a4.56,4.56,0,0,0-4.13-2.69c-3.07,0-4.64,2.72-4.64,5.92Z"/>
        <path class="cls-10" d="M537.54,996.41c.19,3,2.08,5.18,5,5.18a6.4,6.4,0,0,0,4.19-1.57l1.34,1.89a8.9,8.9,0,0,1-5.66,2c-4.64,0-7.58-3.49-7.58-8.29s2.85-8.32,7.26-8.32c4.16,0,6.82,3.49,6.82,8.29v.83Zm0-2.11H546c-.1-2.46-1.47-4.7-4-4.7S537.7,991.87,537.57,994.3Z"/>
        <path class="cls-10" d="M552.65,993h6.72v2.5h-6.72Z"/>
        <path class="cls-10" d="M564.29,987.61h2.62v1.82a5.5,5.5,0,0,1,4.67-2.14,5.09,5.09,0,0,1,5.34,5.44v10.85h-2.62v-10c0-2.82-1.44-3.87-3.3-3.87a4.1,4.1,0,0,0-4.1,4.42v9.47h-2.62Z"/>
        <path class="cls-10" d="M586.31,1003.9c-3.17,0-5.57-1.86-5.57-4.83,0-2.5,1.7-4.16,4.26-4.51l5.63-.77v-1c0-2.43-1.57-3.17-3.55-3.17a9.73,9.73,0,0,0-4.61,1.25l-1-2.08a12,12,0,0,1,5.86-1.47c3.87,0,5.92,1.73,5.92,5.09v7.46a2.16,2.16,0,0,0,1.31,2.18l-1.47,1.89a3.16,3.16,0,0,1-2.14-1.92A5.93,5.93,0,0,1,586.31,1003.9Zm0-7.42c-1.76.26-2.91.83-2.91,2.46,0,1.86,1.5,2.88,3.26,2.88,2,0,3.94-1.25,3.94-3.1v-2.88Z"/>
        <path class="cls-10" d="M610.31,1003.58h-2.62v-10c0-2.85-1.44-3.84-3.2-3.84S601,991,601,994.14v9.44h-2.62v-16H601v1.82a4.91,4.91,0,0,1,4.19-2.14,4.73,4.73,0,0,1,4.32,2.66,5.47,5.47,0,0,1,4.86-2.66,5.15,5.15,0,0,1,5.38,5.34v10.94h-2.62v-10c0-2.85-1.54-3.84-3.26-3.84s-3.52,1.34-3.52,4.45Z"/>
        <path class="cls-10" d="M626.5,996.41c.19,3,2.08,5.18,5,5.18a6.4,6.4,0,0,0,4.19-1.57l1.34,1.89a8.9,8.9,0,0,1-5.66,2c-4.64,0-7.58-3.49-7.58-8.29s2.85-8.32,7.26-8.32c4.16,0,6.82,3.49,6.82,8.29v.83Zm0-2.11H635c-.1-2.46-1.47-4.7-4-4.7S626.66,991.87,626.53,994.3Z"/>
        <path class="cls-10" d="M648.35,981.18H651l-7.84,22.4h-2.72Z"/>
        <path class="cls-10" d="M657.12,987.61v1.82a5.59,5.59,0,0,1,4.67-2.14c4.13,0,6.78,3.49,6.78,8.32s-2.66,8.29-6.78,8.29a5.59,5.59,0,0,1-4.67-2.14v6.69H654.5V987.61Zm8.74,7.9c0-3.33-1.6-5.89-4.54-5.89-2.78,0-4.22,2-4.22,4.67v2.59c0,2.66,1.44,4.67,4.22,4.67,2.94,0,4.54-2.56,4.54-5.89Z"/>
        <path class="cls-10" d="M677.15,1003.9c-3.17,0-5.57-1.86-5.57-4.83,0-2.5,1.7-4.16,4.26-4.51l5.63-.77v-1c0-2.43-1.57-3.17-3.55-3.17a9.73,9.73,0,0,0-4.61,1.25l-1-2.08a12,12,0,0,1,5.86-1.47c3.87,0,5.92,1.73,5.92,5.09v7.46a2.16,2.16,0,0,0,1.31,2.18l-1.47,1.89a3.16,3.16,0,0,1-2.14-1.92A5.93,5.93,0,0,1,677.15,1003.9Zm0-7.42c-1.76.26-2.91.83-2.91,2.46,0,1.86,1.5,2.88,3.26,2.88,2,0,3.94-1.25,3.94-3.1v-2.88Z"/>
        <path class="cls-10" d="M687.3,987.61h3l3.94,13.18L698,987.61h2.94L695.07,1006c-.7,2.24-2.27,2.82-4.22,2.82a18.87,18.87,0,0,1-2.85-.26l.38-2.3a12.17,12.17,0,0,0,2.11.22,1.81,1.81,0,0,0,2-1.6l.16-.74Z"/>
        <path class="cls-10" d="M716.29,1003.58h-2.62v-10c0-2.85-1.44-3.84-3.2-3.84s-3.52,1.34-3.52,4.45v9.44h-2.62v-16h2.62v1.82a4.91,4.91,0,0,1,4.19-2.14,4.73,4.73,0,0,1,4.32,2.66,5.47,5.47,0,0,1,4.86-2.66,5.15,5.15,0,0,1,5.38,5.34v10.94h-2.62v-10c0-2.85-1.54-3.84-3.26-3.84s-3.52,1.34-3.52,4.45Z"/>
        <path class="cls-10" d="M732.48,996.41c.19,3,2.08,5.18,5,5.18a6.4,6.4,0,0,0,4.19-1.57l1.34,1.89a8.9,8.9,0,0,1-5.66,2c-4.64,0-7.58-3.49-7.58-8.29s2.85-8.32,7.26-8.32c4.16,0,6.82,3.49,6.82,8.29v.83Zm0-2.11H741c-.1-2.46-1.47-4.7-4-4.7S732.64,991.87,732.51,994.3Z"/>
        <path class="cls-10" d="M747.78,987.61h2.62v1.82a5.5,5.5,0,0,1,4.67-2.14,5.09,5.09,0,0,1,5.34,5.44v10.85h-2.62v-10c0-2.82-1.44-3.87-3.3-3.87a4.1,4.1,0,0,0-4.1,4.42v9.47h-2.62Z"/>
        <path class="cls-10" d="M769.54,999.61c0,1.06.19,2,2,2a13.91,13.91,0,0,0,2-.19l.29,2.3a23.27,23.27,0,0,1-2.85.22c-2.53,0-4.1-1-4.1-3.71V989.91h-3v-2.3h3v-5.22l2.62-.93v6.14H774v2.3h-4.45Z"/>
        <path class="cls-10" d="M777.35,993h6.72v2.5h-6.72Z"/>
        <path class="cls-10" d="M788.9,981.18h2.62V1000c0,1.06.32,1.6,1.54,1.6.67,0,1.22-.06,1.63-.1l.26,2.21a25.45,25.45,0,0,1-2.66.19c-1.89,0-3.39-.83-3.39-3.14Z"/>
        <path class="cls-10" d="M799.1,981.18a2,2,0,0,1,1.92,2,1.94,1.94,0,1,1-3.87,0A2,2,0,0,1,799.1,981.18Zm1.28,22.4h-2.62v-16h2.62Z"/>
        <path class="cls-10" d="M805.5,987.61h2.62v1.82a5.5,5.5,0,0,1,4.67-2.14,5.09,5.09,0,0,1,5.34,5.44v10.85h-2.62v-10c0-2.82-1.44-3.87-3.3-3.87a4.1,4.1,0,0,0-4.1,4.42v9.47H805.5Z"/>
        <path class="cls-10" d="M825.76,995.45l7.52-7.84h3.3l-6.08,6.34,6.37,9.63h-3.2l-5-7.87-2.88,2.94v4.93h-2.62v-22.4h2.62Z"/>
      </g>
    </g>
    <rect class="cls-1" x="858.87" y="271.41" width="967.62" height="663.26"/>
    <path class="cls-9" d="M1826.4,934.65H858.53V274.26H1826.4m-974.76,0V940.57h981.57V274.28Z"/>
    <rect class="cls-11" x="858.59" y="320.63" width="967.62" height="81.87"/>
    <g>
      <path class="cls-2" d="M928.54,448.86h13c6.71,0,10.87,4.63,10.87,10.73s-4.63,10.73-11.38,10.73h-5.88v10.92h-6.57Zm11.2,5.92h-4.63v9.62h4.63c3.61,0,5.88-1.67,5.88-4.72v-.19C945.61,456.45,943.34,454.79,939.73,454.79Z"/>
      <path class="cls-2" d="M963,481.71c-4.39,0-8.37-2.78-8.37-7.59,0-3.89,2.54-6.48,6.8-7.08l7.36-1v-.79c0-2.13-1.43-3.1-3.79-3.1a16.29,16.29,0,0,0-7.12,1.94l-2.45-4.81a20.44,20.44,0,0,1,9.81-2.68c4.44,0,9.81,1.2,9.81,7.77v10.36c0,1.43.79,1.94,2.08,2.5l-2.82,4.49a5.5,5.5,0,0,1-4.53-2.73C968.19,480.83,965.83,481.71,963,481.71Zm.74-10.22c-1.53.23-2.54,1.11-2.54,2.5s1.2,2.82,3.29,2.82c2.91,0,4.3-1.94,4.3-4.44V470.7Z"/>
      <path class="cls-2" d="M985.72,482.22l.19-.79h-.46L978,457.05h6.94l4.44,16.75,4.35-16.75h6.85l-8.33,27.76c-1.06,3.61-3.88,4.58-7.54,4.58a41,41,0,0,1-5.69-.46l1.29-5.51a22.37,22.37,0,0,0,3.33.28A1.83,1.83,0,0,0,985.72,482.22Z"/>
      <path class="cls-2" d="M1022.55,457.05h4.63v5.6h-4.63v18.6h-6.25v-18.6h-3.84v-5.6h3.84v-2.5c0-4.21,3-6.15,7.31-6.15a42,42,0,0,1,4.95.32l-.51,5.32a21.54,21.54,0,0,0-3.05-.23c-1.76,0-2.45.74-2.45,1.8Z"/>
      <path class="cls-2" d="M1053.36,469.17c0,7.17-4.76,12.54-11.89,12.54s-11.89-5.41-11.89-12.54v0c0-7.12,4.72-12.54,11.89-12.54s11.89,5.41,11.89,12.54Zm-6.38,0c0-3.93-1.94-6.75-5.5-6.75s-5.46,2.82-5.51,6.75v0c0,3.93,1.94,6.75,5.51,6.75s5.46-2.82,5.5-6.75Z"/>
      <path class="cls-2" d="M1072,463.11h-1.11c-3.56,0-6.71,1.2-6.71,6.38v11.75h-6.24v-24.2h6.24v2.73a7.5,7.5,0,0,1,6.43-3.15H1072Z"/>
      <path class="cls-2" d="M1091.34,471.3a5.69,5.69,0,0,0,5.88,4.72,8.69,8.69,0,0,0,6.11-2.27l3.1,4.72a14.47,14.47,0,0,1-9.39,3.24c-6.66,0-12.17-4.63-12.17-12.4V469c0-7.12,4.86-12.45,11.71-12.45,6.38,0,11.1,4.86,11.1,11.89v2.82Zm0-4.72h9.76a4.65,4.65,0,0,0-4.77-4.58A4.84,4.84,0,0,0,1091.39,466.58Z"/>
      <path class="cls-2" d="M1117.25,468.57l-7.36-11.52h7.22l3.7,6.52,3.88-6.52H1132l-7.49,11.57,8.33,12.63h-7.36l-4.76-7.4-4.35,7.4h-7.26Z"/>
      <path class="cls-2" d="M1142.6,481.71c-4.39,0-8.37-2.78-8.37-7.59,0-3.89,2.54-6.48,6.8-7.08l7.36-1v-.79c0-2.13-1.43-3.1-3.79-3.1a16.29,16.29,0,0,0-7.12,1.94l-2.45-4.81a20.44,20.44,0,0,1,9.81-2.68c4.44,0,9.81,1.2,9.81,7.77v10.36c0,1.43.79,1.94,2.08,2.5l-2.82,4.49a5.5,5.5,0,0,1-4.53-2.73C1147.83,480.83,1145.47,481.71,1142.6,481.71Zm.74-10.22c-1.53.23-2.54,1.11-2.54,2.5s1.2,2.82,3.29,2.82c2.91,0,4.3-1.94,4.3-4.44V470.7Z"/>
      <path class="cls-2" d="M1180.86,481.25h-6.25V467.18c0-3.47-1.62-4.67-3.65-4.67-2.41,0-4.26,1.67-4.26,5.55v13.19h-6.24v-24.2h6.24v2.13a8.11,8.11,0,0,1,6.2-2.59,7,7,0,0,1,6.25,3.28c1.71-2.41,4.44-3.28,7.31-3.28,5.41,0,8.61,3.84,8.61,8.14v16.52h-6.29V467.18c0-3.47-1.62-4.67-3.65-4.67-2.41,0-4.26,1.67-4.26,5.55Z"/>
      <path class="cls-2" d="M1207,457.05v2.08a8,8,0,0,1,6.11-2.54c6.38,0,10.64,5.27,10.64,12.45v.23c0,7.17-4.39,12.44-10.78,12.44a7.69,7.69,0,0,1-6-2.54v9.72h-6.24V457.05Zm-.18,14.34c0,2.59,1.94,4.53,5,4.53,3.56,0,5.51-2.82,5.51-6.66V469c0-3.84-1.94-6.66-5.51-6.66-3.05,0-5,1.94-5,4.53Z"/>
      <path class="cls-2" d="M1228.24,448.86h6.25v25.82c0,1,.55,1.57,1.85,1.57a12.39,12.39,0,0,0,2.36-.23l.51,5.32a51.41,51.41,0,0,1-5.27.37c-3.52,0-5.69-1.85-5.69-5.32Z"/>
      <path class="cls-2" d="M1247.35,471.3a5.69,5.69,0,0,0,5.88,4.72,8.69,8.69,0,0,0,6.11-2.27l3.1,4.72a14.48,14.48,0,0,1-9.39,3.24c-6.66,0-12.17-4.63-12.17-12.4V469c0-7.12,4.86-12.45,11.71-12.45,6.38,0,11.1,4.86,11.1,11.89v2.82Zm0-4.72h9.76a4.65,4.65,0,0,0-4.76-4.58A4.84,4.84,0,0,0,1247.39,466.58Z"/>
      <path class="cls-2" d="M1280.66,473.48a11.21,11.21,0,0,0,7.08,2.91c1.9,0,3.42-.51,3.42-1.94,0-1.16-.93-1.62-3-2.13a41.37,41.37,0,0,1-6-1.71,6.51,6.51,0,0,1-4.26-6.29c0-5.18,4.58-7.73,9.95-7.73,4.07,0,7.63,1.48,9.58,3.42l-4,4.12a8.31,8.31,0,0,0-5.55-2.22c-1.71,0-3.42.6-3.42,2,0,1.11,1.06,1.53,2.87,2a34.15,34.15,0,0,1,6.94,2.22,6.4,6.4,0,0,1,3.38,5.78c0,5.14-4.39,7.77-9.76,7.77-3.93,0-8.51-1.48-10.92-3.65Z"/>
      <path class="cls-2" d="M1307.49,471.3a5.69,5.69,0,0,0,5.88,4.72,8.69,8.69,0,0,0,6.11-2.27l3.1,4.72a14.47,14.47,0,0,1-9.39,3.24c-6.66,0-12.17-4.63-12.17-12.4V469c0-7.12,4.86-12.45,11.71-12.45,6.38,0,11.1,4.86,11.1,11.89v2.82Zm0-4.72h9.76a4.65,4.65,0,0,0-4.77-4.58A4.84,4.84,0,0,0,1307.53,466.58Z"/>
      <path class="cls-2" d="M1342.33,463.11h-1.11c-3.56,0-6.71,1.2-6.71,6.38v11.75h-6.25v-24.2h6.25v2.73a7.5,7.5,0,0,1,6.43-3.15h1.39Z"/>
      <path class="cls-2" d="M1351.35,481.25l-7.4-24.2h6.94l4.35,16.66,4.44-16.66h6.85l-7.36,24.2Z"/>
      <path class="cls-2" d="M1373.18,447.71a3.93,3.93,0,1,1-3.93,3.93A3.93,3.93,0,0,1,1373.18,447.71Zm3.15,33.54h-6.25v-24.2h6.25Z"/>
      <path class="cls-2" d="M1380.91,469.08c0-7.12,4.9-12.49,11.71-12.49,5,0,8.93,2.45,10.5,6.25l-5.55,2.82a4.94,4.94,0,0,0-4.81-3.28c-3.79,0-5.41,3.47-5.41,6.66v.28c0,3.15,1.62,6.62,5.41,6.62a4.94,4.94,0,0,0,4.81-3.28l5.55,2.82c-1.57,3.79-5.69,6.25-10.59,6.25-6.8,0-11.61-5.37-11.61-12.49Z"/>
      <path class="cls-2" d="M1412.42,471.3a5.69,5.69,0,0,0,5.88,4.72,8.69,8.69,0,0,0,6.11-2.27l3.1,4.72a14.48,14.48,0,0,1-9.39,3.24c-6.66,0-12.17-4.63-12.17-12.4V469c0-7.12,4.86-12.45,11.71-12.45,6.38,0,11.1,4.86,11.1,11.89v2.82Zm0-4.72h9.76a4.65,4.65,0,0,0-4.76-4.58A4.84,4.84,0,0,0,1412.46,466.58Z"/>
    </g>
    <rect class="cls-5" x="924.34" y="523.12" width="713.99" height="15.26"/>
    <rect class="cls-5" x="924.34" y="563.38" width="531" height="15.26"/>
    <g>
      <path class="cls-8" d="M927,803.6h9.54a7.57,7.57,0,0,1,8,7.9c0,4.53-3.41,7.91-8.38,7.91h-4.33v8H927Zm8.25,4.36h-3.41v7.09h3.41c2.66,0,4.33-1.23,4.33-3.48v-.14C939.57,809.19,937.9,808,935.24,808Z"/>
      <path class="cls-8" d="M952.35,827.8c-3.24,0-6.17-2-6.17-5.59,0-2.86,1.87-4.77,5-5.21l5.42-.75v-.58c0-1.57-1.06-2.28-2.79-2.28a12,12,0,0,0-5.25,1.43l-1.81-3.54a15.05,15.05,0,0,1,7.22-2c3.27,0,7.22.89,7.22,5.72v7.63c0,1.06.58,1.43,1.53,1.84l-2.08,3.3a4,4,0,0,1-3.34-2A6.16,6.16,0,0,1,952.35,827.8Zm.54-7.53c-1.12.17-1.87.82-1.87,1.84a2.16,2.16,0,0,0,2.42,2.08,3,3,0,0,0,3.17-3.27v-1.23Z"/>
      <path class="cls-8" d="M969.11,828.17l.14-.58h-.34l-5.49-18h5.11L971.81,822l3.2-12.33h5l-6.13,20.44c-.78,2.66-2.86,3.37-5.55,3.37a30.22,30.22,0,0,1-4.19-.34l1-4.05a16.54,16.54,0,0,0,2.45.2A1.35,1.35,0,0,0,969.11,828.17Z"/>
      <path class="cls-8" d="M1006.66,818.56c0,5.28-3.51,9.23-8.76,9.23s-8.76-4-8.76-9.23v0c0-5.25,3.48-9.23,8.76-9.23s8.76,4,8.76,9.23Zm-4.7,0c0-2.9-1.43-5-4.05-5s-4,2.08-4.05,5v0c0,2.9,1.43,5,4.05,5s4-2.08,4.05-5Z"/>
      <path class="cls-8" d="M1010,809.63h4.6v1.53a6,6,0,0,1,4.53-1.87,5.84,5.84,0,0,1,6.17,6.13v12h-4.6V817.1c0-2.52-1.19-3.48-2.79-3.48-1.87,0-3.31,1.33-3.31,4.09v9.75H1010Z"/>
      <path class="cls-8" d="M1029.43,803.6h4.6v19c0,.75.41,1.16,1.36,1.16a9.09,9.09,0,0,0,1.74-.17l.37,3.92a37.88,37.88,0,0,1-3.88.27c-2.59,0-4.19-1.36-4.19-3.92Z"/>
      <path class="cls-8" d="M1041.94,802.75a2.9,2.9,0,1,1-2.9,2.9A2.89,2.89,0,0,1,1041.94,802.75Zm2.32,24.7h-4.6V809.63h4.6Z"/>
      <path class="cls-8" d="M1048.55,809.63h4.6v1.53a6,6,0,0,1,4.53-1.87,5.84,5.84,0,0,1,6.17,6.13v12h-4.6V817.1c0-2.52-1.19-3.48-2.79-3.48-1.87,0-3.31,1.33-3.31,4.09v9.75h-4.6Z"/>
      <path class="cls-8" d="M1071.85,820.13a4.19,4.19,0,0,0,4.33,3.47,6.4,6.4,0,0,0,4.5-1.67l2.28,3.48a10.67,10.67,0,0,1-6.92,2.38c-4.91,0-9-3.41-9-9.13v-.2c0-5.25,3.58-9.17,8.62-9.17,4.7,0,8.18,3.58,8.18,8.76v2.08Zm0-3.48h7.19a3.43,3.43,0,0,0-3.51-3.37A3.56,3.56,0,0,0,1071.89,816.65Z"/>
      <path class="cls-10" d="M926.9,843.46h2.62v8.26a5.5,5.5,0,0,1,4.67-2.14,5.09,5.09,0,0,1,5.34,5.44v10.85h-2.62v-10c0-2.82-1.44-3.87-3.3-3.87a4.09,4.09,0,0,0-4.1,4.42v9.47H926.9Z"/>
      <path class="cls-10" d="M948.66,861.89c0,1.06.19,2,2,2a13.91,13.91,0,0,0,2-.19L953,866a23.27,23.27,0,0,1-2.85.22c-2.53,0-4.1-1-4.1-3.71V852.19h-3v-2.3h3v-5.22l2.62-.93v6.14h4.45v2.3h-4.45Z"/>
      <path class="cls-10" d="M960.78,861.89c0,1.06.19,2,2,2a13.9,13.9,0,0,0,2-.19l.29,2.3a23.27,23.27,0,0,1-2.85.22c-2.53,0-4.1-1-4.1-3.71V852.19h-3v-2.3h3v-5.22l2.62-.93v6.14h4.45v2.3h-4.45Z"/>
      <path class="cls-10" d="M971.41,849.89v1.82a5.59,5.59,0,0,1,4.67-2.14c4.13,0,6.78,3.49,6.78,8.32s-2.66,8.29-6.78,8.29a5.59,5.59,0,0,1-4.67-2.14v6.69h-2.62V849.89Zm8.74,7.9c0-3.33-1.6-5.89-4.54-5.89-2.78,0-4.22,2-4.22,4.67v2.59c0,2.66,1.44,4.67,4.22,4.67,2.94,0,4.54-2.56,4.54-5.89Z"/>
      <path class="cls-10" d="M985.68,863.87l1.6-1.86a7.57,7.57,0,0,0,4.83,2c1.82,0,3.2-.83,3.2-2.4,0-1.73-1.73-2.11-3.9-2.69s-5-1.38-5-4.67c0-2.69,2.46-4.64,5.82-4.64a8.62,8.62,0,0,1,5.54,2l-1.54,1.76a5.85,5.85,0,0,0-3.94-1.54c-2.11,0-3.17.93-3.17,2.37,0,1.15.9,1.73,2.3,2.11.83.22,1.79.51,2.62.77,2.14.67,3.9,1.79,3.9,4.35,0,3.3-2.91,4.8-6,4.8A9.6,9.6,0,0,1,985.68,863.87Z"/>
      <path class="cls-10" d="M1003.89,849.89a2.14,2.14,0,1,1-2.14,2.14A2.14,2.14,0,0,1,1003.89,849.89Zm0,12a2.14,2.14,0,1,1-2.14,2.14A2.14,2.14,0,0,1,1003.89,861.89Z"/>
      <path class="cls-10" d="M1017.36,843.46H1020l-7.84,22.4h-2.72Z"/>
      <path class="cls-10" d="M1026.93,843.46h2.69l-7.84,22.4h-2.72Z"/>
      <path class="cls-10" d="M1038.35,849.57a5.4,5.4,0,0,1,4.51,2.14v-1.82h2.62V866c0,4-3.49,5.12-6.85,5.12a13.82,13.82,0,0,1-5.92-1.28l.9-2.18a13,13,0,0,0,5.09,1.12c2.69,0,4.16-1,4.16-3.46v-3a5.4,5.4,0,0,1-4.51,2.14c-4,0-6.46-3.23-6.46-7.42S1034.38,849.57,1038.35,849.57Zm4.58,7.36c0-2.85-1.22-5-4.1-5s-4.22,2.24-4.22,5v.13c0,2.78,1.31,5,4.22,5s4.1-2.18,4.1-5Z"/>
      <path class="cls-10" d="M1064.36,857.89c0,4.8-2.94,8.29-7.36,8.29s-7.36-3.49-7.36-8.29,2.94-8.32,7.36-8.32S1064.36,853,1064.36,857.89Zm-2.72.1v-.19c0-3.2-1.6-5.92-4.64-5.92s-4.64,2.72-4.64,5.92V858c0,3.14,1.6,5.89,4.64,5.89S1061.65,861.12,1061.65,858Z"/>
      <path class="cls-10" d="M1071.63,865.85l-5.06-16h3l3.84,13.54,3.81-13.54h3l-5.06,16Z"/>
      <path class="cls-10" d="M1084.43,861.89a2.14,2.14,0,1,1-2.14,2.14A2.14,2.14,0,0,1,1084.43,861.89Z"/>
      <path class="cls-10" d="M1103.85,865.85h-2.62V864a5.5,5.5,0,0,1-4.67,2.14,5.09,5.09,0,0,1-5.34-5.44V849.89h2.62v10c0,2.82,1.44,3.87,3.3,3.87,2.18,0,4.1-1.44,4.1-4.42v-9.47h2.62Z"/>
      <path class="cls-10" d="M1111.6,857.73l7.52-7.84h3.3l-6.08,6.34,6.37,9.63h-3.2l-5-7.87-2.88,2.94v4.93H1109v-22.4h2.62Z"/>
      <path class="cls-10" d="M1132.52,843.46h2.69l-7.84,22.4h-2.72Z"/>
      <path class="cls-10" d="M1141.29,849.89v1.82a5.59,5.59,0,0,1,4.67-2.14c4.13,0,6.78,3.49,6.78,8.32s-2.66,8.29-6.78,8.29a5.59,5.59,0,0,1-4.67-2.14v6.69h-2.62V849.89Zm8.74,7.9c0-3.33-1.6-5.89-4.54-5.89-2.78,0-4.22,2-4.22,4.67v2.59c0,2.66,1.44,4.67,4.22,4.67,2.94,0,4.54-2.56,4.54-5.89Z"/>
      <path class="cls-10" d="M1161.32,866.17c-3.17,0-5.57-1.86-5.57-4.83,0-2.5,1.7-4.16,4.26-4.51l5.63-.77v-1c0-2.43-1.57-3.17-3.55-3.17a9.73,9.73,0,0,0-4.61,1.25l-1-2.08a12,12,0,0,1,5.86-1.47c3.87,0,5.92,1.73,5.92,5.09v7.46a2.16,2.16,0,0,0,1.31,2.18l-1.47,1.89a3.16,3.16,0,0,1-2.14-1.92A5.93,5.93,0,0,1,1161.32,866.17Zm0-7.42c-1.76.26-2.91.83-2.91,2.46,0,1.86,1.5,2.88,3.26,2.88,2,0,3.94-1.25,3.94-3.1v-2.88Z"/>
      <path class="cls-10" d="M1171.47,849.89h3l3.94,13.18,3.74-13.18h2.94l-5.82,18.37c-.7,2.24-2.27,2.82-4.22,2.82a18.75,18.75,0,0,1-2.85-.26l.38-2.3a12.17,12.17,0,0,0,2.11.22,1.81,1.81,0,0,0,2-1.6l.16-.74Z"/>
      <path class="cls-10" d="M1200.46,865.85h-2.62v-10c0-2.85-1.44-3.84-3.2-3.84s-3.52,1.34-3.52,4.45v9.44h-2.62v-16h2.62v1.82a4.91,4.91,0,0,1,4.19-2.14,4.73,4.73,0,0,1,4.32,2.66,5.47,5.47,0,0,1,4.86-2.66,5.15,5.15,0,0,1,5.38,5.34v10.94h-2.62v-10c0-2.85-1.54-3.84-3.26-3.84s-3.52,1.34-3.52,4.45Z"/>
      <path class="cls-10" d="M1216.65,858.69c.19,3,2.08,5.18,5,5.18a6.4,6.4,0,0,0,4.19-1.57l1.34,1.89a8.9,8.9,0,0,1-5.66,2c-4.64,0-7.58-3.49-7.58-8.29s2.85-8.32,7.26-8.32c4.16,0,6.82,3.49,6.82,8.29v.83Zm0-2.11h8.45c-.1-2.46-1.47-4.7-4-4.7S1216.81,854.14,1216.68,856.58Z"/>
      <path class="cls-10" d="M1231.95,849.89h2.62v1.82a5.5,5.5,0,0,1,4.67-2.14,5.09,5.09,0,0,1,5.34,5.44v10.85H1242v-10c0-2.82-1.44-3.87-3.3-3.87a4.1,4.1,0,0,0-4.1,4.42v9.47h-2.62Z"/>
      <path class="cls-10" d="M1253.71,861.89c0,1.06.19,2,2,2a13.91,13.91,0,0,0,2-.19l.29,2.3a23.27,23.27,0,0,1-2.85.22c-2.53,0-4.1-1-4.1-3.71V852.19h-3v-2.3h3v-5.22l2.62-.93v6.14h4.45v2.3h-4.45Z"/>
      <path class="cls-10" d="M1260.33,863.87l1.6-1.86a7.57,7.57,0,0,0,4.83,2c1.82,0,3.2-.83,3.2-2.4,0-1.73-1.73-2.11-3.9-2.69s-5-1.38-5-4.67c0-2.69,2.46-4.64,5.82-4.64a8.62,8.62,0,0,1,5.54,2l-1.54,1.76a5.85,5.85,0,0,0-3.94-1.54c-2.11,0-3.17.93-3.17,2.37,0,1.15.9,1.73,2.3,2.11.83.22,1.79.51,2.62.77,2.14.67,3.9,1.79,3.9,4.35,0,3.3-2.91,4.8-6,4.8A9.6,9.6,0,0,1,1260.33,863.87Z"/>
      <path class="cls-10" d="M1283.3,843.46H1286l-7.84,22.4h-2.72Z"/>
      <path class="cls-10" d="M1287.82,863.87l1.6-1.86a7.57,7.57,0,0,0,4.83,2c1.82,0,3.2-.83,3.2-2.4,0-1.73-1.73-2.11-3.9-2.69s-5-1.38-5-4.67c0-2.69,2.46-4.64,5.82-4.64a8.63,8.63,0,0,1,5.54,2l-1.54,1.76a5.85,5.85,0,0,0-3.94-1.54c-2.11,0-3.17.93-3.17,2.37,0,1.15.9,1.73,2.3,2.11.83.22,1.79.51,2.62.77,2.14.67,3.9,1.79,3.9,4.35,0,3.3-2.91,4.8-6,4.8A9.6,9.6,0,0,1,1287.82,863.87Z"/>
      <path class="cls-10" d="M1306,858.69c.19,3,2.08,5.18,5,5.18a6.4,6.4,0,0,0,4.19-1.57l1.34,1.89a8.9,8.9,0,0,1-5.66,2c-4.64,0-7.58-3.49-7.58-8.29s2.85-8.32,7.26-8.32c4.16,0,6.82,3.49,6.82,8.29v.83Zm0-2.11h8.45c-.1-2.46-1.47-4.7-4-4.7S1306.19,854.14,1306.06,856.58Z"/>
      <path class="cls-10" d="M1329.48,852.22h-.42c-2.69,0-5.12,1.09-5.12,5.44v8.19h-2.62v-16h2.62v2.53a5,5,0,0,1,4.77-2.82h.77Z"/>
      <path class="cls-10" d="M1336.3,865.85l-5.06-16h3l3.84,13.54,3.81-13.54h3l-5.06,16Z"/>
      <path class="cls-10" d="M1349.67,843.46a2,2,0,0,1,1.92,2,1.94,1.94,0,1,1-3.87,0A2,2,0,0,1,1349.67,843.46Zm1.28,22.4h-2.62v-16H1351Z"/>
      <path class="cls-10" d="M1357.83,858c0,3.2,1.57,5.92,4.64,5.92a4.56,4.56,0,0,0,4.13-2.69l2.18,1.25a6.78,6.78,0,0,1-6.3,3.74c-4.42,0-7.36-3.46-7.36-8.29s2.94-8.32,7.36-8.32a6.78,6.78,0,0,1,6.3,3.74l-2.18,1.25a4.56,4.56,0,0,0-4.13-2.69c-3.07,0-4.64,2.72-4.64,5.92Z"/>
      <path class="cls-10" d="M1374.38,858.69c.19,3,2.08,5.18,5,5.18a6.4,6.4,0,0,0,4.19-1.57l1.34,1.89a8.9,8.9,0,0,1-5.66,2c-4.64,0-7.58-3.49-7.58-8.29s2.85-8.32,7.26-8.32c4.16,0,6.82,3.49,6.82,8.29v.83Zm0-2.11h8.45c-.1-2.46-1.47-4.7-4-4.7S1374.54,854.14,1374.41,856.58Z"/>
      <path class="cls-10" d="M1389.48,855.29h6.72v2.5h-6.72Z"/>
      <path class="cls-10" d="M1401.13,849.89h2.62v1.82a5.5,5.5,0,0,1,4.67-2.14,5.09,5.09,0,0,1,5.34,5.44v10.85h-2.62v-10c0-2.82-1.44-3.87-3.3-3.87a4.1,4.1,0,0,0-4.1,4.42v9.47h-2.62Z"/>
      <path class="cls-10" d="M1423.14,866.17c-3.17,0-5.57-1.86-5.57-4.83,0-2.5,1.7-4.16,4.26-4.51l5.63-.77v-1c0-2.43-1.57-3.17-3.55-3.17a9.73,9.73,0,0,0-4.61,1.25l-1-2.08a12,12,0,0,1,5.86-1.47c3.87,0,5.92,1.73,5.92,5.09v7.46a2.16,2.16,0,0,0,1.31,2.18l-1.47,1.89a3.16,3.16,0,0,1-2.14-1.92A5.93,5.93,0,0,1,1423.14,866.17Zm0-7.42c-1.76.26-2.91.83-2.91,2.46,0,1.86,1.5,2.88,3.26,2.88,2,0,3.94-1.25,3.94-3.1v-2.88Z"/>
      <path class="cls-10" d="M1447.14,865.85h-2.62v-10c0-2.85-1.44-3.84-3.2-3.84s-3.52,1.34-3.52,4.45v9.44h-2.62v-16h2.62v1.82a4.91,4.91,0,0,1,4.19-2.14,4.73,4.73,0,0,1,4.32,2.66,5.47,5.47,0,0,1,4.86-2.66,5.15,5.15,0,0,1,5.38,5.34v10.94h-2.62v-10c0-2.85-1.54-3.84-3.26-3.84s-3.52,1.34-3.52,4.45Z"/>
      <path class="cls-10" d="M1463.33,858.69c.19,3,2.08,5.18,5,5.18a6.4,6.4,0,0,0,4.19-1.57l1.34,1.89a8.9,8.9,0,0,1-5.66,2c-4.64,0-7.58-3.49-7.58-8.29s2.85-8.32,7.26-8.32c4.16,0,6.82,3.49,6.82,8.29v.83Zm0-2.11h8.45c-.1-2.46-1.47-4.7-4-4.7S1463.49,854.14,1463.37,856.58Z"/>
      <path class="cls-10" d="M1485.19,843.46h2.69l-7.84,22.4h-2.72Z"/>
      <path class="cls-10" d="M1494,849.89v1.82a5.59,5.59,0,0,1,4.67-2.14c4.13,0,6.78,3.49,6.78,8.32s-2.66,8.29-6.78,8.29A5.59,5.59,0,0,1,1494,864v6.69h-2.62V849.89Zm8.74,7.9c0-3.33-1.6-5.89-4.54-5.89-2.78,0-4.22,2-4.22,4.67v2.59c0,2.66,1.44,4.67,4.22,4.67,2.94,0,4.54-2.56,4.54-5.89Z"/>
      <path class="cls-10" d="M1514,866.17c-3.17,0-5.57-1.86-5.57-4.83,0-2.5,1.7-4.16,4.26-4.51l5.63-.77v-1c0-2.43-1.57-3.17-3.55-3.17a9.73,9.73,0,0,0-4.61,1.25l-1-2.08a12,12,0,0,1,5.86-1.47c3.87,0,5.92,1.73,5.92,5.09v7.46a2.16,2.16,0,0,0,1.31,2.18l-1.47,1.89a3.16,3.16,0,0,1-2.14-1.92A5.93,5.93,0,0,1,1514,866.17Zm0-7.42c-1.76.26-2.91.83-2.91,2.46,0,1.86,1.5,2.88,3.26,2.88,2,0,3.94-1.25,3.94-3.1v-2.88Z"/>
      <path class="cls-10" d="M1524.14,849.89h3l3.94,13.18,3.74-13.18h2.94l-5.82,18.37c-.7,2.24-2.27,2.82-4.22,2.82a18.75,18.75,0,0,1-2.85-.26l.38-2.3a12.17,12.17,0,0,0,2.11.22,1.81,1.81,0,0,0,2-1.6l.16-.74Z"/>
      <path class="cls-10" d="M1553.13,865.85h-2.62v-10c0-2.85-1.44-3.84-3.2-3.84s-3.52,1.34-3.52,4.45v9.44h-2.62v-16h2.62v1.82a4.91,4.91,0,0,1,4.19-2.14,4.73,4.73,0,0,1,4.32,2.66,5.47,5.47,0,0,1,4.86-2.66,5.15,5.15,0,0,1,5.38,5.34v10.94h-2.62v-10c0-2.85-1.54-3.84-3.26-3.84s-3.52,1.34-3.52,4.45Z"/>
      <path class="cls-10" d="M1569.32,858.69c.19,3,2.08,5.18,5,5.18a6.4,6.4,0,0,0,4.19-1.57l1.34,1.89a8.9,8.9,0,0,1-5.66,2c-4.64,0-7.58-3.49-7.58-8.29s2.85-8.32,7.26-8.32c4.16,0,6.82,3.49,6.82,8.29v.83Zm0-2.11h8.45c-.1-2.46-1.47-4.7-4-4.7S1569.48,854.14,1569.35,856.58Z"/>
      <path class="cls-10" d="M1584.61,849.89h2.62v1.82a5.5,5.5,0,0,1,4.67-2.14,5.09,5.09,0,0,1,5.34,5.44v10.85h-2.62v-10c0-2.82-1.44-3.87-3.3-3.87a4.1,4.1,0,0,0-4.1,4.42v9.47h-2.62Z"/>
      <path class="cls-10" d="M1606.37,861.89c0,1.06.19,2,2,2a13.91,13.91,0,0,0,2-.19l.29,2.3a23.27,23.27,0,0,1-2.85.22c-2.53,0-4.1-1-4.1-3.71V852.19h-3v-2.3h3v-5.22l2.62-.93v6.14h4.45v2.3h-4.45Z"/>
      <path class="cls-10" d="M1614.18,855.29h6.72v2.5h-6.72Z"/>
      <path class="cls-10" d="M1625.73,843.46h2.62v18.81c0,1.06.32,1.6,1.54,1.6.67,0,1.22-.06,1.63-.1l.26,2.21a25.45,25.45,0,0,1-2.66.19c-1.89,0-3.39-.83-3.39-3.14Z"/>
      <path class="cls-10" d="M1635.94,843.46a2,2,0,0,1,1.92,2,1.94,1.94,0,1,1-3.87,0A2,2,0,0,1,1635.94,843.46Zm1.28,22.4h-2.62v-16h2.62Z"/>
      <path class="cls-10" d="M1642.34,849.89H1645v1.82a5.5,5.5,0,0,1,4.67-2.14A5.09,5.09,0,0,1,1655,855v10.85h-2.62v-10c0-2.82-1.44-3.87-3.3-3.87a4.1,4.1,0,0,0-4.1,4.42v9.47h-2.62Z"/>
      <path class="cls-10" d="M1662.6,857.73l7.52-7.84h3.3l-6.08,6.34,6.37,9.63h-3.2l-5-7.87-2.88,2.94v4.93H1660v-22.4h2.62Z"/>
    </g>
    <g>
      <path class="cls-9" d="M851.65,320.63V275.17a10,10,0,0,1,10-10h961.58a10,10,0,0,1,10,10v45.46"/>
      <g>
        <circle class="cls-1" cx="886.84" cy="292.9" r="11.79"/>
        <circle class="cls-1" cx="919.77" cy="292.9" r="11.79"/>
        <circle class="cls-1" cx="952.7" cy="292.9" r="11.79"/>
      </g>
    </g>
    <path class="cls-12" d="M924.24,345.31v32.5H972.6v-32.5Zm45.22,1.7-21,18.09-21-18.09Zm-43.51,1,15,12.92-15,14.06Zm1.31,28.09,15-14,6.15,5.29,6.15-5.29,15,14ZM970.9,375l-15-14.06,15-12.92Z"/>
    <g>
      <path class="cls-1" d="M1002,347.93h17.6V351h-14v9.66h12.85v3.11h-12.85v10.42h14.79v3.11H1002Z"/>
      <path class="cls-1" d="M1041.53,377.34h-3.44V364.15c0-3.74-1.89-5-4.2-5s-4.62,1.76-4.62,5.84v12.39h-3.45v-21h3.45v2.39a6.45,6.45,0,0,1,5.5-2.81,6.22,6.22,0,0,1,5.67,3.49,7.18,7.18,0,0,1,6.38-3.49,6.75,6.75,0,0,1,7.06,7v14.37h-3.45V364.15c0-3.74-2-5-4.28-5s-4.62,1.76-4.62,5.84Z"/>
      <path class="cls-1" d="M1066.18,377.76c-4.16,0-7.31-2.44-7.31-6.34,0-3.28,2.23-5.46,5.59-5.92l7.39-1v-1.34c0-3.19-2.06-4.16-4.66-4.16a12.76,12.76,0,0,0-6,1.64l-1.3-2.73a15.82,15.82,0,0,1,7.69-1.93c5.08,0,7.77,2.27,7.77,6.68v9.79a2.84,2.84,0,0,0,1.72,2.86l-1.93,2.48a4.14,4.14,0,0,1-2.81-2.52A7.79,7.79,0,0,1,1066.18,377.76Zm0-9.75c-2.31.34-3.82,1.09-3.82,3.23,0,2.44,2,3.78,4.29,3.78,2.56,0,5.17-1.64,5.17-4.07v-3.78Z"/>
      <path class="cls-1" d="M1083.74,347.93a2.56,2.56,0,0,1,2.52,2.56,2.54,2.54,0,1,1-5.08,0A2.57,2.57,0,0,1,1083.74,347.93Zm1.68,29.41H1082v-21h3.45Z"/>
      <path class="cls-1" d="M1092,347.93h3.44v24.7c0,1.39.42,2.1,2,2.1.88,0,1.6-.08,2.14-.13l.34,2.9a33.49,33.49,0,0,1-3.49.25c-2.48,0-4.45-1.09-4.45-4.12Z"/>
    </g>
    <line class="cls-13" x1="94.35" y1="893.85" x2="94.35" y2="956.07"/>
    <g>
      <path class="cls-11" d="M127.49,919.32a4.77,4.77,0,0,0-4.17-2.16c-2.61,0-4.45,2-4.45,5.11v3.83h5.67v2.57h-5.67v8h10.88v2.57H114.1v-2.57h1.81v-8H114.1V926.1h1.81v-3.76c0-4.87,2.92-7.79,7.37-7.79,3,0,5.22,1,6.61,3Z"/>
      <path class="cls-11" d="M137.16,933a5.5,5.5,0,0,0,5.63,4c3.55,0,5.18-2.05,5.18-4.52,0-2.71-2-4.24-5.7-4.24h-1.08v-2.61h.59c3.16,0,5.77-1.11,5.77-4.21,0-2.85-2.23-4.21-4.73-4.21a5.6,5.6,0,0,0-5.35,3.69l-2.75-1c1.32-3.58,4.56-5.25,8.14-5.25,4.24,0,7.79,2.71,7.79,6.5a5.47,5.47,0,0,1-4.52,5.6c3.44.73,5,3.06,5,5.91,0,4.73-4,7-8.41,7-3.93,0-7.2-1.81-8.55-5.63Z"/>
      <path class="cls-11" d="M159.45,915.11v-.24h2.92v24.34h-3v-17.8h-4.49V918.8h.45C158.51,918.8,159.45,917.69,159.45,915.11Z"/>
      <path class="cls-11" d="M170.62,934.9a2.33,2.33,0,1,1-2.33,2.33A2.33,2.33,0,0,1,170.62,934.9Z"/>
      <path class="cls-11" d="M194.89,927.07c0,6.29-2.29,12.48-8.83,12.48s-8.83-6.19-8.83-12.48,2.3-12.52,8.83-12.52S194.89,920.74,194.89,927.07Zm-3.16.7v-1.43c0-5.84-2.26-9.18-5.67-9.18s-5.67,3.34-5.67,9.18v1.43c0,5.84,2.26,9.18,5.67,9.18S191.72,933.61,191.72,927.77Z"/>
      <path class="cls-11" d="M217.08,927.07c0,6.29-2.29,12.48-8.83,12.48s-8.83-6.19-8.83-12.48,2.3-12.52,8.83-12.52S217.08,920.74,217.08,927.07Zm-3.16.7v-1.43c0-5.84-2.26-9.18-5.67-9.18s-5.67,3.34-5.67,9.18v1.43c0,5.84,2.26,9.18,5.67,9.18S213.91,933.61,213.91,927.77Z"/>
    </g>
    <g>
      <g>
        <path class="cls-8" d="M927,648.34h9.54a7.57,7.57,0,0,1,8,7.9c0,4.53-3.41,7.91-8.38,7.91h-4.33v8H927Zm8.25,4.36h-3.41v7.09h3.41c2.66,0,4.33-1.23,4.33-3.48v-.14C939.57,653.93,937.9,652.71,935.24,652.71Z"/>
        <path class="cls-8" d="M952.35,672.54c-3.24,0-6.17-2-6.17-5.59,0-2.86,1.88-4.77,5-5.21l5.42-.75v-.58c0-1.57-1.06-2.28-2.79-2.28a12,12,0,0,0-5.25,1.43L946.76,656a15.05,15.05,0,0,1,7.22-2c3.27,0,7.22.89,7.22,5.72v7.63c0,1.06.58,1.43,1.53,1.84l-2.08,3.3a4.05,4.05,0,0,1-3.34-2A6.16,6.16,0,0,1,952.35,672.54Zm.54-7.53c-1.12.17-1.87.82-1.87,1.84a2.16,2.16,0,0,0,2.42,2.08,3,3,0,0,0,3.17-3.27v-1.23Z"/>
        <path class="cls-8" d="M969.11,672.91l.13-.58h-.34l-5.49-18h5.11l3.27,12.33,3.2-12.33h5l-6.13,20.44c-.78,2.66-2.86,3.37-5.55,3.37a30.22,30.22,0,0,1-4.19-.34l1-4.05a16.54,16.54,0,0,0,2.46.2A1.35,1.35,0,0,0,969.11,672.91Z"/>
        <path class="cls-8" d="M997.6,672.19H993V661.84c0-2.56-1.19-3.44-2.69-3.44-1.77,0-3.13,1.23-3.13,4.09v9.71h-4.6V654.37h4.6v1.57a6,6,0,0,1,4.57-1.91,5.16,5.16,0,0,1,4.6,2.42,6.28,6.28,0,0,1,5.38-2.42,6,6,0,0,1,6.34,6v12.16h-4.63V661.84c0-2.56-1.19-3.44-2.69-3.44-1.77,0-3.13,1.23-3.13,4.09Z"/>
        <path class="cls-8" d="M1016.07,664.87a4.19,4.19,0,0,0,4.33,3.47,6.4,6.4,0,0,0,4.5-1.67l2.28,3.48a10.66,10.66,0,0,1-6.92,2.38c-4.91,0-9-3.41-9-9.13v-.2c0-5.25,3.58-9.17,8.62-9.17,4.7,0,8.18,3.58,8.18,8.76v2.08Zm0-3.48h7.19a3.43,3.43,0,0,0-3.51-3.37A3.56,3.56,0,0,0,1016.11,661.39Z"/>
        <path class="cls-8" d="M1031.37,654.37h4.6v1.53a6,6,0,0,1,4.53-1.87,5.84,5.84,0,0,1,6.17,6.13v12h-4.6V661.84c0-2.52-1.19-3.48-2.79-3.48-1.87,0-3.31,1.33-3.31,4.09v9.75h-4.6Z"/>
        <path class="cls-8" d="M1057.41,666.88c0,.85.38,1.5,2,1.5a11.39,11.39,0,0,0,2.28-.2l.41,4.05a36.78,36.78,0,0,1-4.22.31c-3.17,0-5-1.4-5-4.53V658.5h-3.2v-4.12h3.2v-5l4.6-1.23v6.27h4.67v4.12h-4.67Z"/>
        <path class="cls-8" d="M1078.67,672.54c-3.24,0-6.17-2-6.17-5.59,0-2.86,1.87-4.77,5-5.21l5.42-.75v-.58c0-1.57-1.06-2.28-2.79-2.28a12,12,0,0,0-5.25,1.43l-1.8-3.54a15.05,15.05,0,0,1,7.22-2c3.27,0,7.22.89,7.22,5.72v7.63c0,1.06.58,1.43,1.53,1.84l-2.08,3.3a4,4,0,0,1-3.34-2A6.16,6.16,0,0,1,1078.67,672.54Zm.54-7.53c-1.12.17-1.87.82-1.87,1.84a2.17,2.17,0,0,0,2.42,2.08,3,3,0,0,0,3.17-3.27v-1.23Z"/>
        <path class="cls-8" d="M1106.85,672.19h-4.6V661.84c0-2.56-1.19-3.44-2.69-3.44-1.77,0-3.13,1.23-3.13,4.09v9.71h-4.6V654.37h4.6v1.57A6,6,0,0,1,1101,654a5.16,5.16,0,0,1,4.6,2.42A6.27,6.27,0,0,1,1111,654a6,6,0,0,1,6.34,6v12.16h-4.63V661.84c0-2.56-1.19-3.44-2.69-3.44-1.77,0-3.13,1.23-3.13,4.09Z"/>
        <path class="cls-8" d="M1138.07,663.3c0,5.28-3.51,9.23-8.76,9.23s-8.76-4-8.76-9.23v0c0-5.25,3.48-9.23,8.76-9.23s8.76,4,8.76,9.23Zm-4.7,0c0-2.9-1.43-5-4.05-5s-4,2.08-4.05,5v0c0,2.9,1.43,5,4.05,5s4-2.08,4.05-5Z"/>
        <path class="cls-8" d="M1156.61,672.19H1152v-1.53a6,6,0,0,1-4.53,1.87,5.84,5.84,0,0,1-6.17-6.13v-12h4.6v10.36c0,2.52,1.19,3.48,2.79,3.48,1.87,0,3.3-1.33,3.3-4.09v-9.75h4.6Z"/>
        <path class="cls-8" d="M1160.9,654.37h4.6v1.53A6,6,0,0,1,1170,654a5.84,5.84,0,0,1,6.17,6.13v12h-4.6V661.84c0-2.52-1.19-3.48-2.79-3.48-1.87,0-3.31,1.33-3.31,4.09v9.75h-4.6Z"/>
        <path class="cls-8" d="M1186.94,666.88c0,.85.38,1.5,2,1.5a11.39,11.39,0,0,0,2.28-.2l.41,4.05a36.78,36.78,0,0,1-4.22.31c-3.17,0-5-1.4-5-4.53V658.5h-3.2v-4.12h3.2v-5l4.6-1.23v6.27h4.67v4.12h-4.67Z"/>
      </g>
      <line class="cls-13" x1="930.87" y1="698.8" x2="930.87" y2="761.02"/>
      <g>
        <path class="cls-11" d="M964,724.27a4.77,4.77,0,0,0-4.17-2.16c-2.61,0-4.45,2-4.45,5.11v3.83h5.67v2.57h-5.67v8h10.88v2.57H950.62v-2.57h1.81v-8h-1.81v-2.57h1.81V727.3c0-4.87,2.92-7.79,7.37-7.79,3,0,5.22,1,6.61,3Z"/>
        <path class="cls-11" d="M973.68,737.94a5.5,5.5,0,0,0,5.63,4c3.55,0,5.18-2.05,5.18-4.52,0-2.71-2-4.24-5.7-4.24h-1.08v-2.61h.59c3.16,0,5.77-1.11,5.77-4.21,0-2.85-2.23-4.21-4.73-4.21A5.6,5.6,0,0,0,974,725.8l-2.75-1c1.32-3.58,4.56-5.25,8.14-5.25,4.24,0,7.79,2.71,7.79,6.5a5.47,5.47,0,0,1-4.52,5.6c3.44.73,5,3.06,5,5.91,0,4.73-4,7-8.41,7-3.93,0-7.2-1.81-8.55-5.63Z"/>
        <path class="cls-11" d="M996,720.07v-.24h2.92v24.34h-3v-17.8h-4.49v-2.61h.45C995,723.75,996,722.64,996,720.07Z"/>
        <path class="cls-11" d="M1007.13,739.85a2.33,2.33,0,1,1-2.33,2.33A2.33,2.33,0,0,1,1007.13,739.85Z"/>
        <path class="cls-11" d="M1031.41,732c0,6.29-2.29,12.48-8.83,12.48s-8.83-6.19-8.83-12.48,2.3-12.52,8.83-12.52S1031.41,725.7,1031.41,732Zm-3.16.7V731.3c0-5.84-2.26-9.18-5.67-9.18s-5.67,3.34-5.67,9.18v1.43c0,5.84,2.26,9.18,5.67,9.18S1028.24,738.56,1028.24,732.72Z"/>
        <path class="cls-11" d="M1053.59,732c0,6.29-2.29,12.48-8.83,12.48s-8.83-6.19-8.83-12.48,2.3-12.52,8.83-12.52S1053.59,725.7,1053.59,732Zm-3.16.7V731.3c0-5.84-2.26-9.18-5.67-9.18s-5.67,3.34-5.67,9.18v1.43c0,5.84,2.26,9.18,5.67,9.18S1050.43,738.56,1050.43,732.72Z"/>
      </g>
    </g>
  </g>
</svg>